0
SECTION
2
HEADER
9
$INSUNITS
70
4
9
$ACADVER
1
AC1014
9
$HANDSEED
5
FFFF
0
ENDSEC
0
SECTION
2
TABLES
0
TABLE
2
VPORT
5
8
100
AcDbSymbolTable
0
ENDTAB
0
TABLE
2
LTYPE
5
5
100
AcDbSymbolTable
0
LTYPE
5
14
100
AcDbSymbolTableRecord
100
AcDbLinetypeTableRecord
2
BYBLOCK
70
0
0
LTYPE
5
15
100
AcDbSymbolTableRecord
100
AcDbLinetypeTableRecord
2
BYLAYER
70
0
0
LTYPE
5
16
100
AcDbSymbolTableRecord
100
AcDbLinetypeTableRecord
2
DASHED
70
0
3
Dashed __ __ __ __ __ __ __ __ __ __ __ __ __ _
72
65
73
2
40
0.75
49
0.5
74
0
49
-0.25
74
0
0
ENDTAB
0
TABLE
2
LAYER
5
2
100
AcDbSymbolTable
70
2
0
LAYER
5
50
100
AcDbSymbolTableRecord
100
AcDbLayerTableRecord
2
0
70
0
62
7
6
CONTINUOUS
0
ENDTAB
0
TABLE
2
STYLE
5
3
100
AcDbSymbolTable
70
1
0
STYLE
5
11
100
AcDbSymbolTableRecord
100
AcDbTextStyleTableRecord
2
STANDARD
70
0
0
ENDTAB
0
TABLE
2
VIEW
5
6
100
AcDbSymbolTable
70
0
0
ENDTAB
0
TABLE
2
UCS
5
7
100
AcDbSymbolTable
70
0
0
ENDTAB
0
TABLE
2
APPID
5
9
100
AcDbSymbolTable
70
2
0
APPID
5
12
100
AcDbSymbolTableRecord
100
AcDbRegAppTableRecord
2
ACAD
70
0
0
ENDTAB
0
TABLE
2
DIMSTYLE
5
A
100
AcDbSymbolTable
70
1
0
ENDTAB
0
TABLE
2
BLOCK_RECORD
5
1
100
AcDbSymbolTable
70
1
0
BLOCK_RECORD
5
1F
100
AcDbSymbolTableRecord
100
AcDbBlockTableRecord
2
*MODEL_SPACE
0
BLOCK_RECORD
5
1B
100
AcDbSymbolTableRecord
100
AcDbBlockTableRecord
2
*PAPER_SPACE
0
ENDTAB
0
ENDSEC
0
SECTION
2
BLOCKS
0
BLOCK
5
20
100
AcDbEntity
100
AcDbBlockBegin
2
*MODEL_SPACE
0
ENDBLK
5
21
100
AcDbEntity
100
AcDbBlockEnd
0
BLOCK
5
1C
100
AcDbEntity
100
AcDbBlockBegin
2
*PAPER_SPACE
0
ENDBLK
5
1D
100
AcDbEntity
100
AcDbBlockEnd
0
ENDSEC
0
SECTION
2
ENTITIES
0
LWPOLYLINE
5
100
100
AcDbEntity
8
0
100
AcDbPolyline
90
8
70
1
43
0.0
10
16.999999999999922
20
-42.081088051560016
42
0.41421356237310025
10
17.5
20
-42.581088051560101
10
43.149999999999977
20
-42.581088051560094
42
0.41421356237316265
10
43.649999999999949
20
-42.081088051560023
10
43.649999999999984
20
-33.08108805156013
42
0.41421356237311063
10
43.150000000000048
20
-32.581088051560023
10
17.500000000000004
20
-32.581088051560094
42
0.41421356237309631
10
16.999999999999957
20
-33.081088051560116
0
LWPOLYLINE
5
101
100
AcDbEntity
8
0
100
AcDbPolyline
90
8
70
1
43
0.0
10
-17.000000000000028
20
-33.081088051560116
10
-16.999999999999975
20
-42.081088051560016
42
-0.41421356237311974
10
-17.499999999999989
20
-42.581088051560023
10
-43.149999999999906
20
-42.581088051560052
42
-0.41421356237309503
10
-43.649999999999949
20
-42.081088051560009
10
-43.650000000000048
20
-33.081088051560116
42
-0.41421356237309503
10
-43.150000000000013
20
-32.581088051560087
10
-17.5
20
-32.581088051560158
42
-0.41421356237308982
0
LWPOLYLINE
5
102
100
AcDbEntity
8
0
100
AcDbPolyline
90
20
70
1
43
0.0
10
100.15625
20
-25.549853602954737
10
100.15625011697151
20
-12.54439659891637
42
-0.4142135623730378
10
100.65625011697151
20
-12.044396598916389
10
101.2432501169715
20
-12.044396598916354
10
101.2432501169715
20
-11.544396598916205
42
-0.41421356237309503
10
101.7432501169715
20
-11.044396598916205
10
107.74325011697147
20
-11.044396598916196
42
-0.41421356237309503
10
108.24325011697148
20
-11.544396598916203
10
108.24325011697148
20
-12.044396598916292
10
123.18125011697148
20
-12.044396598916215
42
-0.41421356237314189
10
123.68125011697144
20
-12.544396598916322
10
123.68125000000009
20
-25.549853602954844
42
-0.41421356237314705
10
123.18125000000012
20
-26.049853602954833
10
108.24325000000002
20
-26.049853602954673
10
108.2432500000001
20
-26.549853602954929
42
-0.41421356237310542
10
107.74325000000016
20
-27.04985360295483
10
101.7432500000001
20
-27.049853602954812
42
-0.41421356237314966
10
101.2432500000001
20
-26.549853602954713
10
101.24325000000013
20
-26.049853602954762
10
100.65625000000011
20
-26.049853602954816
42
-0.41421356237307422
0
LWPOLYLINE
5
103
100
AcDbEntity
8
0
100
AcDbPolyline
90
32
70
1
43
0.0
10
107.30000000000004
20
31.600146397045261
10
107.30000011697146
20
44.60560340108303
42
-0.41421356237316787
10
107.80000011697147
20
45.10560340108615
10
108.38700011697142
20
45.105603401086128
10
108.38700011697142
20
45.605603401084082
42
-0.41421356237309503
10
108.88700011697142
20
46.105603401084075
10
114.88700011697136
20
46.105603401084075
42
-0.41421356237309503
10
115.38700011697138
20
45.605603401084068
10
115.38700011697138
20
45.105603401085844
10
132.26300011697148
20
45.105603401085176
10
132.26300011697148
20
45.60560340108394
42
-0.41421356237309503
10
132.76300011697148
20
46.105603401083933
10
138.76300011697145
20
46.105603401083954
42
-0.41421356237309503
10
139.26300011697148
20
45.605603401083947
10
139.26300011697148
20
45.105603401084892
10
139.8500001169715
20
45.105603401084835
42
-0.41421356237326151
10
140.35000011697147
20
44.605603401082959
10
140.35000000000005
20
31.600146397045261
42
-0.41421356237309503
10
139.85000000000008
20
31.100146397045254
10
139.26300000000012
20
31.100146397045432
10
139.26300000000003
20
30.600146397045425
42
-0.41421356237313667
10
138.76299999999998
20
30.100146397045346
10
132.76299999999949
20
30.100146397045346
42
-0.41421356237307944
10
132.26300000000003
20
30.600146397044774
10
132.26300000000009
20
31.100146397044988
10
115.38699999999999
20
31.100146397045627
10
115.38699999999997
20
30.600146397045176
42
-0.41421356237314705
10
114.88700000000026
20
30.100146397045453
10
108.88700000000014
20
30.100146397045471
42
-0.4142135623730846
10
108.38700000000001
20
30.600146397045584
10
108.38700000000003
20
31.100146397045343
10
107.80000000000001
20
31.10014639704529
42
-0.41421356237309503
0
LWPOLYLINE
5
104
100
AcDbEntity
8
0
100
AcDbPolyline
90
8
70
1
43
0.0
10
-135.08750000000003
20
-31.099853602954717
42
0.4142135623730846
10
-135.58750000000001
20
-31.599853602954706
10
-135.58750000000001
20
-44.59985360295471
42
0.41421356237313667
10
-135.08749999999998
20
-45.099853602954724
10
-122.08750000000002
20
-45.099853602954703
42
0.41421356237309503
10
-121.58750000000001
20
-44.59985360295471
10
-121.58750000000001
20
-31.599853602954706
42
0.41421356237312623
10
-122.08750000000002
20
-31.099853602954717
0
LWPOLYLINE
5
105
100
AcDbEntity
8
0
100
AcDbPolyline
90
8
70
1
43
0.0
10
-97.775000000000006
20
-31.599853602954706
10
-97.775000000000006
20
-44.599853602954724
42
-0.41421356237311585
10
-98.274999999999991
20
-45.09985360295471
10
-111.27500000000001
20
-45.099853602954703
42
-0.41421356237307422
10
-111.77500000000003
20
-44.59985360295471
10
-111.77499999999998
20
-31.599853602954706
42
-0.4142135623730846
10
-111.27499999999999
20
-31.09985360295471
10
-98.275000000000006
20
-31.099853602954699
42
-0.41421356237309503
0
LWPOLYLINE
5
106
100
AcDbEntity
8
0
100
AcDbPolyline
90
8
70
1
43
0.0
10
6.4999999999999858
20
-45.099853602954724
10
-6.4999999999999858
20
-45.099853602954738
42
-0.41421356237312623
10
-7.0000000000000071
20
-44.599853602954731
10
-6.9999999999999929
20
-31.599853602954724
42
-0.41421356237309115
10
-6.499999999999984
20
-31.099853602954724
10
6.4999999999999858
20
-31.09985360295472
42
-0.41421356237308982
10
6.9999999999999982
20
-31.599853602954724
10
6.9999999999999929
20
-44.599853602954731
42
-0.4142135623730846
0
LWPOLYLINE
5
107
100
AcDbEntity
8
0
100
AcDbPolyline
90
8
70
1
43
0.0
10
-73.962499999999977
20
-31.599853602954717
42
0.41421356237307944
10
-74.462499999999977
20
-31.099853602954724
10
-87.462499999999977
20
-31.099853602954724
42
0.4142135623730846
10
-87.962499999999977
20
-31.599853602954717
10
-87.962499999999977
20
-44.599853602954724
42
0.41421356237307944
10
-87.462499999999963
20
-45.09985360295471
10
-74.462500000000006
20
-45.09985360295471
42
0.41421356237311063
10
-73.96250000000002
20
-44.599853602954724
0
LWPOLYLINE
5
108
100
AcDbEntity
8
0
100
AcDbPolyline
90
8
70
1
43
0.0
10
129.88175000000007
20
-7.4998536029547402
10
129.88175011697152
20
7.5056034010839952
42
-0.41421356237309503
10
130.38175011697146
20
8.0056034010839223
10
136.38175011697157
20
8.0056034010839277
42
-0.41421356237309503
10
136.88175011697146
20
7.5056034010840449
10
136.88175000000001
20
-7.499853602954758
42
-0.4142135623730534
10
136.38175000000001
20
-7.9998536029547651
10
130.3817500000001
20
-7.9998536029547651
42
-0.4142135623730846
0
LWPOLYLINE
5
109
100
AcDbEntity
8
0
100
AcDbPolyline
90
8
70
1
43
0.0
10
-140.34999999999999
20
31.600146397045297
10
-140.34999999999999
20
44.600146397045286
42
-0.41421356237309503
10
-139.84999999999999
20
45.100146397045293
10
-126.85000000000002
20
45.100146397045279
42
-0.41421356237313145
10
-126.35000000000002
20
44.600146397045293
10
-126.35000000000002
20
31.600146397045297
42
-0.4142135623730846
10
-126.84999999999999
20
31.100146397045272
10
-139.84999999999999
20
31.10014639704529
42
-0.41421356237311585
0
LWPOLYLINE
5
110
100
AcDbEntity
8
0
100
AcDbPolyline
90
8
70
1
43
0.0
10
-121.30000000000003
20
31.600146397045297
10
-121.30000000000003
20
44.600146397045286
42
-0.41421356237312623
10
-120.80000000000004
20
45.100146397045293
10
-107.80000000000001
20
45.100146397045293
42
-0.41421356237309503
10
-107.30000000000001
20
44.600146397045286
10
-107.30000000000001
20
31.600146397045297
42
-0.41421356237309503
10
-107.80000000000001
20
31.10014639704529
10
-120.80000000000001
20
31.10014639704529
42
-0.4142135623730534
0
LWPOLYLINE
5
111
100
AcDbEntity
8
0
100
AcDbPolyline
90
8
70
1
43
0.0
10
-88.749999999999972
20
31.10014639704529
42
0.41421356237307944
10
-88.250000000000014
20
31.600146397045286
10
-88.250000000000028
20
44.600146397045286
42
0.41421356237309503
10
-88.75
20
45.100146397045258
10
-101.75000000000003
20
45.100146397045293
42
0.41421356237310542
10
-102.25000000000001
20
44.600146397045286
10
-102.24999999999996
20
31.600146397045297
42
0.41421356237307422
10
-101.75
20
31.100146397045307
0
LWPOLYLINE
5
112
100
AcDbEntity
8
0
100
AcDbPolyline
90
8
70
1
43
0.0
10
-82.699999999999989
20
45.100146397045293
10
-69.699999999999989
20
45.100146397045279
42
-0.41421356237308982
10
-69.200000000000003
20
44.600146397045293
10
-69.200000000000003
20
31.600146397045279
42
-0.41421356237309503
10
-69.699999999999989
20
31.10014639704529
10
-82.699999999999989
20
31.10014639704529
42
-0.41421356237313145
10
-83.200000000000003
20
31.600146397045286
10
-83.200000000000003
20
44.600146397045286
42
-0.41421356237309503
0
LWPOLYLINE
5
113
100
AcDbEntity
8
0
100
AcDbPolyline
90
8
70
1
43
0.0
10
-64.149999999999991
20
31.600146397045279
10
-64.150000000000006
20
44.600146397045286
42
-0.41421356237307944
10
-63.649999999999977
20
45.100146397045279
10
-50.649999999999977
20
45.100146397045265
42
-0.41421356237306384
10
-50.150000000000013
20
44.600146397045286
10
-50.149999999999977
20
31.600146397045279
42
-0.41421356237309503
10
-50.649999999999977
20
31.100146397045279
10
-63.649999999999984
20
31.100146397045272
42
-0.4142135623730534
0
LWPOLYLINE
5
114
100
AcDbEntity
8
0
100
AcDbPolyline
90
8
70
1
43
0.0
10
-31.099999999999959
20
44.600146397045286
10
-31.099999999999991
20
31.600146397045279
42
-0.41421356237311585
10
-31.599999999999984
20
31.100146397045286
10
-44.599999999999973
20
31.10014639704529
42
-0.41421356237307683
10
-45.099999999999994
20
31.600146397045282
10
-45.100000000000016
20
44.600146397045286
42
-0.41421356237311063
10
-44.59999999999998
20
45.100146397045293
10
-31.599999999999966
20
45.100146397045293
42
-0.41421356237309503
0
LWPOLYLINE
5
115
100
AcDbEntity
8
0
100
AcDbPolyline
90
8
70
1
43
0.0
10
-12.549999999999994
20
31.100146397045286
42
0.41421356237310025
10
-12.049999999999997
20
31.600146397045282
10
-12.050000000000002
20
44.600146397045286
42
0.41421356237310542
10
-12.54999999999999
20
45.100146397045293
10
-25.549999999999958
20
45.100146397045286
42
0.41421356237308721
10
-26.050000000000004
20
44.600146397045286
10
-26.049999999999983
20
31.600146397045286
42
0.41421356237308982
10
-25.549999999999962
20
31.100146397045272
0
LWPOLYLINE
5
116
100
AcDbEntity
8
0
100
AcDbPolyline
90
8
70
1
43
0.0
10
7.0000000000000284
20
44.600146397045293
42
0.41421356237309176
10
6.5000000000000178
20
45.100146397045293
10
-6.4999999999999982
20
45.100146397045286
42
0.41421356237307749
10
-6.9999999999999929
20
44.600146397045286
10
-6.999999999999984
20
31.600146397045286
42
0.41421356237310025
10
-6.4999999999999858
20
31.100146397045272
10
6.5000000000000195
20
31.100146397045286
42
0.41421356237309631
10
6.9999999999999929
20
31.600146397045279
0
LWPOLYLINE
5
117
100
AcDbEntity
8
0
100
AcDbPolyline
90
8
70
1
43
0.0
10
25.550000000000033
20
31.100146397045272
42
0.41421356237309243
10
26.05000000000004
20
31.600146397045275
10
26.05000000000004
20
44.600146397045286
42
0.41421356237309503
10
25.550000000000033
20
45.100146397045293
10
12.550000000000027
20
45.100146397045293
42
0.41421356237309631
10
12.050000000000018
20
44.600146397045286
10
12.05000000000001
20
31.600146397045275
42
0.41421356237309243
10
12.550000000000026
20
31.100146397045272
0
LWPOLYLINE
5
118
100
AcDbEntity
8
0
100
AcDbPolyline
90
8
70
1
43
0.0
10
45.100000000000051
20
44.600146397045265
10
45.100000000000009
20
31.600146397045279
42
-0.41421356237309503
10
44.600000000000009
20
31.100146397045279
10
31.600000000000037
20
31.100146397045268
42
-0.41421356237309503
10
31.100000000000026
20
31.600146397045279
10
31.10000000000003
20
44.600146397045286
42
-0.41421356237310281
10
31.600000000000051
20
45.100146397045293
10
44.600000000000009
20
45.100146397045293
42
-0.4142135623730846
0
LWPOLYLINE
5
119
100
AcDbEntity
8
0
100
AcDbPolyline
90
8
70
1
43
0.0
10
63.65000000000002
20
31.100146397045272
10
50.650000000000048
20
31.100146397045272
42
-0.41421356237315748
10
50.150000000000006
20
31.600146397045279
10
50.150000000000048
20
44.600146397045265
42
-0.41421356237310025
10
50.650000000000041
20
45.100146397045286
10
63.650000000000091
20
45.100146397045251
42
-0.41421356237311585
10
64.150000000000034
20
44.600146397045265
10
64.150000000000063
20
31.600146397045279
42
-0.41421356237315748
0
LWPOLYLINE
5
120
100
AcDbEntity
8
0
100
AcDbPolyline
90
8
70
1
43
0.0
10
69.199999999999989
20
31.600146397045261
42
0.41421356237311585
10
69.700000000000003
20
31.100146397045243
10
82.700000000000017
20
31.100146397045268
42
0.41421356237306384
10
83.199999999999932
20
31.600146397045279
10
83.200000000000045
20
44.600146397045265
42
0.41421356237309503
10
82.700000000000031
20
45.100146397045279
10
69.700000000000045
20
45.100146397045286
42
0.41421356237307422
10
69.200000000000017
20
44.600146397045265
0
LWPOLYLINE
5
121
100
AcDbEntity
8
0
100
AcDbPolyline
90
8
70
1
43
0.0
10
88.750000000000014
20
45.100146397045279
42
0.41421356237310542
10
88.25
20
44.600146397045265
10
88.249999999999957
20
31.600146397045272
42
0.41421356237310025
10
88.75
20
31.100146397045236
10
101.75000000000006
20
31.100146397045254
42
0.41421356237310542
10
102.25000000000001
20
31.600146397045261
10
102.25000000000006
20
44.600146397045265
42
0.4142135623730534
10
101.75000000000011
20
45.100146397045279
0
LWPOLYLINE
5
122
100
AcDbEntity
8
0
100
AcDbPolyline
90
8
70
1
43
0.0
10
-121.58750000000005
20
25.550146397045292
42
0.41421356237310542
10
-122.08750000000002
20
26.050146397045285
10
-135.08750000000001
20
26.0501463970453
42
0.41421356237307422
10
-135.58749999999998
20
25.550146397045292
10
-135.58749999999998
20
12.550146397045292
42
0.41421356237308854
10
-135.08749999999998
20
12.050146397045278
10
-122.08749999999998
20
12.05014639704526
42
0.4142135623730846
10
-121.58750000000001
20
12.550146397045285
0
LWPOLYLINE
5
123
100
AcDbEntity
8
0
100
AcDbPolyline
90
8
70
1
43
0.0
10
-111.27499999999999
20
26.050146397045282
42
0.41421356237308721
10
-111.77499999999996
20
25.550146397045289
10
-111.77499999999996
20
12.550146397045276
42
0.41421356237307944
10
-111.27500000000001
20
12.050146397045278
10
-98.274999999999991
20
12.050146397045275
42
0.41421356237309503
10
-97.775000000000034
20
12.550146397045285
10
-97.774999999999977
20
25.550146397045292
42
0.41421356237309503
10
-98.275000000000006
20
26.050146397045317
0
LWPOLYLINE
5
124
100
AcDbEntity
8
0
100
AcDbPolyline
90
8
70
1
43
0.0
10
-92.725000000000009
20
12.550146397045285
10
-92.725000000000009
20
25.550146397045292
42
-0.4142135623730534
10
-92.224999999999994
20
26.050146397045289
10
-79.224999999999994
20
26.050146397045289
42
-0.41421356237310025
10
-78.724999999999994
20
25.550146397045282
10
-78.724999999999994
20
12.550146397045268
42
-0.41421356237310542
10
-79.225000000000009
20
12.050146397045271
10
-92.224999999999994
20
12.05014639704526
42
-0.41421356237306384
0
LWPOLYLINE
5
125
100
AcDbEntity
8
0
100
AcDbPolyline
90
8
70
1
43
0.0
10
-73.67500000000004
20
12.550146397045268
10
-73.67500000000004
20
25.550146397045275
42
-0.41421356237309503
10
-73.175000000000011
20
26.050146397045275
10
-60.174999999999983
20
26.050146397045275
42
-0.41421356237313145
10
-59.674999999999983
20
25.550146397045282
10
-59.674999999999983
20
12.550146397045268
42
-0.41421356237310025
10
-60.17499999999999
20
12.050146397045269
10
-73.174999999999983
20
12.050146397045296
42
-0.41421356237309503
0
LWPOLYLINE
5
126
100
AcDbEntity
8
0
100
AcDbPolyline
90
8
70
1
43
0.0
10
-54.624999999999986
20
12.550146397045284
42
0.4142135623730781
10
-54.124999999999986
20
12.050146397045294
10
-41.124999999999986
20
12.050146397045278
42
0.41421356237310542
10
-40.625
20
12.550146397045268
10
-40.624999999999957
20
25.550146397045278
42
0.41421356237309243
10
-41.124999999999972
20
26.050146397045282
10
-54.124999999999979
20
26.050146397045275
42
0.41421356237309503
10
-54.624999999999986
20
25.550146397045275
0
LWPOLYLINE
5
127
100
AcDbEntity
8
0
100
AcDbPolyline
90
8
70
1
43
0.0
10
-22.074999999999996
20
12.05014639704526
10
-35.075000000000003
20
12.050146397045275
42
-0.41421356237309243
10
-35.575000000000017
20
12.550146397045282
10
-35.575000000000003
20
25.550146397045275
42
-0.41421356237309764
10
-35.074999999999996
20
26.050146397045278
10
-22.074999999999996
20
26.050146397045285
42
-0.41421356237309503
10
-21.574999999999985
20
25.550146397045275
10
-21.574999999999989
20
12.550146397045268
42
-0.41421356237309503
0
LWPOLYLINE
5
128
100
AcDbEntity
8
0
100
AcDbPolyline
90
8
70
1
43
0.0
10
-3.0249999999999844
20
12.05014639704526
10
-16.024999999999991
20
12.05014639704526
42
-0.41421356237309631
10
-16.524999999999999
20
12.550146397045269
10
-16.524999999999995
20
25.550146397045275
42
-0.41421356237308721
10
-16.025000000000006
20
26.050146397045278
10
-3.0249999999999844
20
26.050146397045296
42
-0.414213562373069
10
-2.524999999999999
20
25.550146397045282
10
-2.5250000000000128
20
12.550146397045268
42
-0.41421356237307422
0
LWPOLYLINE
5
129
100
AcDbEntity
8
0
100
AcDbPolyline
90
8
70
1
43
0.0
10
2.5250000000000101
20
12.550146397045266
42
0.41421356237309243
10
3.0250000000000177
20
12.050146397045259
10
16.024999999999995
20
12.050146397045257
42
0.41421356237309243
10
16.525000000000034
20
12.550146397045268
10
16.525000000000006
20
25.550146397045278
42
0.41421356237307161
10
16.025000000000027
20
26.050146397045282
10
3.0250000000000115
20
26.050146397045278
42
0.41421356237309015
10
2.5250000000000128
20
25.550146397045275
0
LWPOLYLINE
5
130
100
AcDbEntity
8
0
100
AcDbPolyline
90
8
70
1
43
0.0
10
22.075000000000017
20
26.050146397045278
42
0.41421356237307683
10
21.57500000000001
20
25.550146397045275
10
21.574999999999989
20
12.550146397045269
42
0.41421356237309631
10
22.074999999999996
20
12.05014639704526
10
35.07500000000001
20
12.050146397045246
42
0.41421356237308982
10
35.574999999999974
20
12.550146397045268
10
35.575000000000031
20
25.550146397045275
42
0.4142135623730846
10
35.075000000000003
20
26.050146397045282
0
LWPOLYLINE
5
131
100
AcDbEntity
8
0
100
AcDbPolyline
90
8
70
1
43
0.0
10
54.625000000000057
20
25.550146397045275
42
0.41421356237310542
10
54.125000000000071
20
26.050146397045246
10
41.125000000000043
20
26.050146397045275
42
0.41421356237309503
10
40.625
20
25.550146397045275
10
40.625000000000036
20
12.550146397045271
42
0.41421356237309764
10
41.125000000000043
20
12.05014639704526
10
54.125000000000043
20
12.050146397045252
42
0.41421356237307944
10
54.625000000000057
20
12.550146397045268
0
LWPOLYLINE
5
132
100
AcDbEntity
8
0
100
AcDbPolyline
90
8
70
1
43
0.0
10
59.675000000000004
20
12.550146397045264
42
0.41421356237312884
10
60.175000000000011
20
12.050146397045253
10
73.175000000000082
20
12.05014639704526
42
0.41421356237308982
10
73.675000000000068
20
12.550146397045268
10
73.67500000000004
20
25.550146397045268
42
0.41421356237315227
10
73.175000000000026
20
26.050146397045228
10
60.17500000000004
20
26.050146397045264
42
0.41421356237307422
10
59.675000000000011
20
25.550146397045275
0
LWPOLYLINE
5
133
100
AcDbEntity
8
0
100
AcDbPolyline
90
8
70
1
43
0.0
10
79.224999999999994
20
26.050146397045264
10
92.225000000000037
20
26.050146397045282
42
-0.41421356237303519
10
92.725000000000009
20
25.550146397045271
10
92.725000000000009
20
12.55014639704525
42
-0.4142135623730534
10
92.224999999999994
20
12.05014639704525
10
79.224999999999994
20
12.05014639704526
42
-0.41421356237310414
10
78.725000000000009
20
12.550146397045266
10
78.725000000000051
20
25.550146397045275
42
-0.41421356237304302
0
LWPOLYLINE
5
134
100
AcDbEntity
8
0
100
AcDbPolyline
90
8
70
1
43
0.0
10
111.77500000000009
20
25.550146397045257
10
111.77500000000006
20
12.55014639704525
42
-0.41421356237307422
10
111.27500000000009
20
12.050146397045243
10
98.275000000000006
20
12.050146397045243
42
-0.4142135623730287
10
97.77500000000002
20
12.55014639704526
10
97.775000000000034
20
25.550146397045257
42
-0.41421356237310542
10
98.275000000000006
20
26.050146397045246
10
111.27500000000012
20
26.0501463970453
42
-0.4142135623730534
0
LWPOLYLINE
5
135
100
AcDbEntity
8
0
100
AcDbPolyline
90
8
70
1
43
0.0
10
121.58750000000003
20
12.550146397045253
42
0.41421356237308721
10
122.08749999999998
20
12.050146397045246
10
135.08750000000003
20
12.05014639704526
42
0.41421356237313667
10
135.58750000000003
20
12.55014639704525
10
135.58750000000001
20
25.55014639704526
42
0.41421356237310281
10
135.08750000000006
20
26.050146397045228
10
122.08750000000001
20
26.050146397045282
42
0.41421356237309503
10
121.58749999999998
20
25.550146397045257
0
LWPOLYLINE
5
136
100
AcDbEntity
8
0
100
AcDbPolyline
90
8
70
1
43
0.0
10
-93.012499999999989
20
6.5001463970452811
10
-93.012500000000017
20
-6.499853602954726
42
-0.4142135623730846
10
-93.512499999999989
20
-6.9998536029547154
10
-106.51250000000002
20
-6.9998536029547154
42
-0.41421356237312884
10
-107.01250000000002
20
-6.4998536029547216
10
-107.01249999999996
20
6.5001463970452811
42
-0.4142135623730846
10
-106.51249999999999
20
7.0001463970452704
10
-93.51249999999996
20
7.0001463970452704
42
-0.41421356237310542
0
LWPOLYLINE
5
137
100
AcDbEntity
8
0
100
AcDbPolyline
90
8
70
1
43
0.0
10
-73.96250000000002
20
6.5001463970452811
10
-73.962499999999977
20
-6.499853602954726
42
-0.41421356237307944
10
-74.462499999999977
20
-6.9998536029547171
10
-87.462499999999963
20
-6.9998536029547154
42
-0.41421356237309825
10
-87.962499999999949
20
-6.4998536029547207
10
-87.962499999999977
20
6.5001463970452811
42
-0.41421356237309503
10
-87.462499999999977
20
7.0001463970453024
10
-74.462499999999991
20
7.0001463970452349
42
-0.4142135623730846
0
LWPOLYLINE
5
138
100
AcDbEntity
8
0
100
AcDbPolyline
90
8
70
1
43
0.0
10
-68.412499999999994
20
7.0001463970452775
42
0.41421356237308204
10
-68.912500000000009
20
6.5001463970452757
10
-68.912500000000009
20
-6.4998536029547225
42
0.4142135623730866
10
-68.412499999999994
20
-6.9998536029547154
10
-55.41249999999998
20
-6.9998536029547243
42
0.41421356237309503
10
-54.912499999999973
20
-6.4998536029547269
10
-54.912499999999994
20
6.5001463970452802
42
0.4142135623730957
10
-55.41249999999998
20
7.0001463970452704
0
LWPOLYLINE
5
139
100
AcDbEntity
8
0
100
AcDbPolyline
90
8
70
1
43
0.0
10
-49.362499999999976
20
7.0001463970452704
10
-36.362500000000004
20
7.0001463970452837
42
-0.41421356237311779
10
-35.862499999999969
20
6.5001463970452775
10
-35.862500000000004
20
-6.499853602954726
42
-0.41421356237309503
10
-36.362500000000004
20
-6.9998536029547243
10
-49.362499999999976
20
-6.9998536029547331
42
-0.41421356237307749
10
-49.862499999999997
20
-6.4998536029547385
10
-49.862499999999997
20
6.5001463970452811
42
-0.41421356237311585
0
LWPOLYLINE
5
140
100
AcDbEntity
8
0
100
AcDbPolyline
90
8
70
1
43
0.0
10
-16.812499999999989
20
6.5001463970452802
42
0.41421356237309698
10
-17.312499999999996
20
7.0001463970452864
10
-30.312499999999993
20
7.000146397045266
42
0.41421356237310025
10
-30.812499999999972
20
6.5001463970452811
10
-30.812499999999975
20
-6.4998536029547305
42
0.41421356237307161
10
-30.3125
20
-6.9998536029547331
10
-17.312499999999993
20
-6.999853602954726
42
0.41421356237309503
10
-16.812499999999986
20
-6.4998536029547269
0
LWPOLYLINE
5
141
100
AcDbEntity
8
0
100
AcDbPolyline
90
8
70
1
43
0.0
10
1.7375000000000185
20
-6.9998536029547331
10
-11.262499999999989
20
-6.9998536029547402
42
-0.41421356237307033
10
-11.762499999999967
20
-6.4998536029547331
10
-11.762499999999957
20
6.5001463970452811
42
-0.41421356237308204
10
-11.262499999999957
20
7.000146397045266
10
1.7375000000000185
20
7.0001463970452722
42
-0.4142135623730937
10
2.2375000000000278
20
6.5001463970452651
10
2.2375000000000078
20
-6.4998536029547438
42
-0.41421356237309503
0
LWPOLYLINE
5
142
100
AcDbEntity
8
0
100
AcDbPolyline
90
8
70
1
43
0.0
10
7.2874999999999801
20
-6.4998536029547438
10
7.2875000000000245
20
6.5001463970452633
42
-0.41421356237309503
10
7.7875000000000227
20
7.0001463970452615
10
20.787499999999994
20
7.0001463970452749
42
-0.41421356237309243
10
21.287500000000005
20
6.5001463970452678
10
21.287499999999994
20
-6.4998536029547438
42
-0.41421356237309503
10
20.787499999999994
20
-6.999853602954742
10
7.7874999999999872
20
-6.9998536029547864
42
-0.41421356237307422
0
LWPOLYLINE
5
143
100
AcDbEntity
8
0
100
AcDbPolyline
90
8
70
1
43
0.0
10
26.837500000000034
20
7.000146397045274
42
0.41421356237308721
10
26.337500000000023
20
6.5001463970452757
10
26.337500000000009
20
-6.4998536029547402
42
0.4142135623730866
10
26.837500000000034
20
-6.9998536029547509
10
39.83750000000002
20
-6.9998536029547465
42
0.41421356237307422
10
40.337500000000048
20
-6.4998536029547447
10
40.337500000000006
20
6.5001463970452757
42
0.41421356237309825
10
39.837500000000006
20
7.0001463970452704
0
LWPOLYLINE
5
144
100
AcDbEntity
8
0
100
AcDbPolyline
90
8
70
1
43
0.0
10
59.387500000000045
20
6.5001463970452589
42
0.41421356237307161
10
58.887500000000024
20
7.0001463970452571
10
45.887499999999974
20
7.0001463970452527
42
0.4142135623730846
10
45.387500000000003
20
6.5001463970452624
10
45.387499999999946
20
-6.4998536029547447
42
0.41421356237308399
10
45.887499999999974
20
-6.9998536029547509
10
58.887500000000017
20
-6.999853602954742
42
0.41421356237309503
10
59.387499999999989
20
-6.4998536029547438
0
LWPOLYLINE
5
145
100
AcDbEntity
8
0
100
AcDbPolyline
90
8
70
1
43
0.0
10
64.437500000000071
20
-6.4998536029547402
42
0.41421356237309176
10
64.937500000000043
20
-6.9998536029547251
10
77.937500000000028
20
-6.999853602954742
42
0.41421356237309503
10
78.4375
20
-6.4998536029547438
10
78.437500000000071
20
6.5001463970452589
42
0.41421356237307683
10
77.937500000000028
20
7.0001463970452704
10
64.9375
20
7.0001463970452527
42
0.41421356237310025
10
64.437500000000014
20
6.5001463970452624
0
LWPOLYLINE
5
146
100
AcDbEntity
8
0
100
AcDbPolyline
90
8
70
1
43
0.0
10
96.98750000000004
20
-6.9998536029547509
10
83.987500000000068
20
-6.9998536029547331
42
-0.41421356237308982
10
83.487500000000082
20
-6.4998536029547527
10
83.487500000000068
20
6.5001463970452633
42
-0.4142135623730846
10
83.987500000000054
20
7.0001463970452704
10
96.98750000000004
20
7.0001463970452527
42
-0.41421356237302676
10
97.487500000000011
20
6.5001463970452553
10
97.48750000000004
20
-6.4998536029547438
42
-0.41421356237309503
0
LWPOLYLINE
5
147
100
AcDbEntity
8
0
100
AcDbPolyline
90
8
70
1
43
0.0
10
127.94375000000002
20
-6.9998536029547687
10
114.94375000000005
20
-6.9998536029547509
42
-0.41421356237310281
10
114.44375000000007
20
-6.4998536029547482
10
114.44375000000005
20
6.5001463970452633
42
-0.4142135623730846
10
114.94375000000004
20
7.0001463970452704
10
127.94375000000002
20
7.0001463970452704
42
-0.41421356237313273
10
128.44375000000011
20
6.5001463970452527
10
128.44375000000002
20
-6.4998536029547438
42
-0.41421356237310542
0
LWPOLYLINE
5
148
100
AcDbEntity
8
0
100
AcDbPolyline
90
8
70
1
43
0.0
10
-127.94375000000002
20
-12.049853602954705
10
-114.94375000000002
20
-12.049853602954705
42
-0.41421356237313794
10
-114.44375000000001
20
-12.549853602954714
10
-114.44374999999999
20
-25.549853602954702
42
-0.41421356237311585
10
-114.94374999999999
20
-26.049853602954709
10
-127.94375000000001
20
-26.049853602954709
42
-0.41421356237314705
10
-128.44374999999999
20
-25.549853602954702
10
-128.44374999999999
20
-12.549853602954713
42
-0.41421356237307422
0
LWPOLYLINE
5
149
100
AcDbEntity
8
0
100
AcDbPolyline
90
8
70
1
43
0.0
10
-83.487499999999983
20
-12.549853602954713
10
-83.487499999999983
20
-25.549853602954713
42
-0.41421356237311063
10
-83.987500000000011
20
-26.04985360295472
10
-96.987500000000011
20
-26.04985360295472
42
-0.41421356237307422
10
-97.487499999999983
20
-25.549853602954713
10
-97.487499999999955
20
-12.549853602954713
42
-0.4142135623730846
10
-96.987499999999983
20
-12.049853602954716
10
-83.987499999999997
20
-12.049853602954705
42
-0.41421356237309503
0
LWPOLYLINE
5
150
100
AcDbEntity
8
0
100
AcDbPolyline
90
8
70
1
43
0.0
10
-64.9375
20
-26.049853602954713
42
0.41421356237311063
10
-64.4375
20
-25.549853602954713
10
-64.437499999999972
20
-12.549853602954729
42
0.41421356237308332
10
-64.937499999999986
20
-12.049853602954741
10
-77.9375
20
-12.049853602954723
42
0.41421356237311063
10
-78.4375
20
-12.549853602954713
10
-78.437500000000014
20
-25.54985360295472
42
0.4142135623730846
10
-77.9375
20
-26.04985360295472
0
LWPOLYLINE
5
151
100
AcDbEntity
8
0
100
AcDbPolyline
90
8
70
1
43
0.0
10
-45.887500000000003
20
-26.049853602954723
42
0.41421356237307944
10
-45.387499999999989
20
-25.54985360295472
10
-45.387499999999974
20
-12.549853602954723
42
0.41421356237312235
10
-45.88750000000001
20
-12.049853602954723
10
-58.887499999999989
20
-12.049853602954721
42
0.41421356237307944
10
-59.387500000000024
20
-12.54985360295473
10
-59.387500000000003
20
-25.549853602954716
42
0.41421356237310281
10
-58.887500000000017
20
-26.04985360295472
0
LWPOLYLINE
5
152
100
AcDbEntity
8
0
100
AcDbPolyline
90
8
70
1
43
0.0
10
-26.337499999999991
20
-12.54985360295473
10
-26.337499999999995
20
-25.54985360295472
42
-0.41421356237309243
10
-26.837499999999995
20
-26.049853602954723
10
-39.837500000000006
20
-26.049853602954734
42
-0.41421356237310281
10
-40.337500000000006
20
-25.549853602954723
10
-40.337500000000013
20
-12.54985360295473
42
-0.41421356237309764
10
-39.837499999999999
20
-12.049853602954727
10
-26.837499999999999
20
-12.049853602954705
42
-0.41421356237310542
0
LWPOLYLINE
5
153
100
AcDbEntity
8
0
100
AcDbPolyline
90
8
70
1
43
0.0
10
-20.787499999999987
20
-12.04985360295473
42
0.41421356237310025
10
-21.287499999999994
20
-12.54985360295473
10
-21.287500000000001
20
-25.54985360295472
42
0.41421356237309503
10
-20.787499999999994
20
-26.049853602954727
10
-7.7874999999999837
20
-26.049853602954723
42
0.41421356237309309
10
-7.2874999999999801
20
-25.54985360295472
10
-7.2874999999999766
20
-12.549853602954729
42
0.4142135623730937
10
-7.7874999999999872
20
-12.049853602954723
0
LWPOLYLINE
5
154
100
AcDbEntity
8
0
100
AcDbPolyline
90
8
70
1
43
0.0
10
11.262500000000024
20
-26.049853602954727
10
-1.7375000000000185
20
-26.049853602954734
42
-0.41421356237309764
10
-2.2375000000000256
20
-25.549853602954723
10
-2.2375000000000123
20
-12.54985360295473
42
-0.41421356237309748
10
-1.7375000000000143
20
-12.049853602954737
10
11.262500000000024
20
-12.049853602954745
42
-0.41421356237309892
10
11.76250000000001
20
-12.549853602954737
10
11.762499999999987
20
-25.54985360295472
42
-0.41421356237307944
0
LWPOLYLINE
5
155
100
AcDbEntity
8
0
100
AcDbPolyline
90
8
70
1
43
0.0
10
16.812499999999982
20
-25.54985360295472
42
0.41421356237309503
10
17.312499999999993
20
-26.04985360295473
10
30.312500000000021
20
-26.049853602954727
42
0.41421356237308204
10
30.812500000000007
20
-25.54985360295472
10
30.812500000000036
20
-12.549853602954737
42
0.41421356237309892
10
30.312500000000036
20
-12.049853602954723
10
17.312499999999996
20
-12.049853602954725
42
0.41421356237310802
10
16.812500000000021
20
-12.54985360295473
0
LWPOLYLINE
5
156
100
AcDbEntity
8
0
100
AcDbPolyline
90
8
70
1
43
0.0
10
35.862500000000047
20
-25.549853602954727
42
0.41421356237311063
10
36.362500000000047
20
-26.049853602954741
10
49.36250000000004
20
-26.04985360295473
42
0.4142135623730846
10
49.862499999999983
20
-25.54985360295472
10
49.862500000000018
20
-12.549853602954732
42
0.41421356237309631
10
49.362500000000011
20
-12.049853602954723
10
36.362500000000047
20
-12.049853602954737
42
0.41421356237310025
10
35.862499999999997
20
-12.54985360295473
0
LWPOLYLINE
5
157
100
AcDbEntity
8
0
100
AcDbPolyline
90
8
70
1
43
0.0
10
54.912500000000016
20
-25.549853602954734
42
0.41421356237310281
10
55.412499999999987
20
-26.049853602954698
10
68.412500000000009
20
-26.049853602954734
42
0.41421356237310025
10
68.912499999999994
20
-25.549853602954727
10
68.912500000000023
20
-12.54985360295475
42
0.41421356237309631
10
68.412500000000023
20
-12.049853602954741
10
55.412500000000051
20
-12.049853602954743
42
0.41421356237310542
10
54.912500000000009
20
-12.54985360295473
0
LWPOLYLINE
5
158
100
AcDbEntity
8
0
100
AcDbPolyline
90
8
70
1
43
0.0
10
87.962500000000034
20
-12.549853602954745
42
0.41421356237310281
10
87.46250000000002
20
-12.049853602954741
10
74.462500000000006
20
-12.049853602954748
42
0.41421356237312101
10
73.96250000000002
20
-12.549853602954748
10
73.962500000000034
20
-25.549853602954734
42
0.41421356237309764
10
74.462499999999991
20
-26.049853602954698
10
87.462500000000006
20
-26.049853602954727
42
0.41421356237313145
10
87.962500000000006
20
-25.549853602954727
0
LWPOLYLINE
5
159
100
AcDbEntity
8
0
100
AcDbPolyline
90
8
70
1
43
0.0
10
73.96250000000002
20
-44.599853602954738
10
73.962499999999991
20
-31.599853602954731
42
-0.41421356237308982
10
74.462499999999991
20
-31.099853602954745
10
87.462500000000034
20
-31.099853602954724
42
-0.41421356237309503
10
87.962500000000034
20
-31.599853602954731
10
87.962500000000006
20
-44.599853602954738
42
-0.41421356237313145
10
87.462499999999977
20
-45.099853602954731
10
74.462499999999991
20
-45.099853602954703
42
-0.41421356237308982
0
LWPOLYLINE
5
160
100
AcDbEntity
8
0
100
AcDbPolyline
90
8
70
1
43
0.0
10
111.77500000000006
20
-31.599853602954742
42
0.4142135623730846
10
111.27500000000006
20
-31.099853602954745
10
98.275000000000034
20
-31.099853602954752
42
0.41421356237314705
10
97.775000000000034
20
-31.599853602954742
10
97.774999999999963
20
-44.599853602954738
42
0.414213562373069
10
98.275000000000006
20
-45.099853602954745
10
111.27500000000009
20
-45.099853602954724
42
0.41421356237307422
10
111.77500000000002
20
-44.599853602954752
0
LWPOLYLINE
5
161
100
AcDbEntity
8
0
100
AcDbPolyline
90
8
70
1
43
0.0
10
122.08750000000002
20
-31.099853602954735
10
135.08750000000006
20
-31.09985360295477
42
-0.41421356237308204
10
135.58750000000006
20
-31.599853602954738
10
135.58750000000001
20
-44.599853602954752
42
-0.41421356237313667
10
135.08750000000001
20
-45.099853602954724
10
122.08750000000002
20
-45.099853602954752
42
-0.41421356237310542
10
121.58750000000003
20
-44.599853602954752
10
121.58750000000003
20
-31.599853602954742
42
-0.41421356237310542
0
LWPOLYLINE
5
162
100
AcDbEntity
8
0
100
AcDbPolyline
90
128
70
1
43
0.0
10
-51.624999999999986
20
47.62514639704527
42
0.41421356237308116
10
-50.124999999999972
20
49.125146397045263
10
-50.124999999999993
20
50.125146397045299
42
-0.12701665379258364
10
-49.812499999999972
20
51.335453692735115
42
-0.77459666924147608
10
-48.875000000000028
20
51.09339223359715
10
-48.875000000000028
20
50.125146397045285
42
0.99999999999999989
10
-46.375000000000028
20
50.125146397045285
10
-46.375000000000036
20
51.093392233597143
42
-0.77459666924149018
10
-45.437500000000028
20
51.335453692735115
42
-0.12701665379258545
10
-45.125000000000028
20
50.125146397045285
10
-45.125
20
49.125146397045292
42
0.41421356237309503
10
-43.625000000000007
20
47.625146397045306
10
43.625000000000043
20
47.625146397045256
42
0.41421356237309503
10
45.125000000000028
20
49.125146397045256
10
45.125
20
50.125146397045263
42
-0.12701665379258195
10
45.43749999999995
20
51.335453692735101
42
-0.77459666924146187
10
46.375000000000028
20
51.093392233597129
10
46.375000000000028
20
50.12514639704527
42
0.99999999999999989
10
48.875000000000028
20
50.12514639704527
10
48.874999999999993
20
51.093392233597143
42
-0.77459666924152193
10
49.812500000000028
20
51.335453692735086
42
-0.12701665379258287
10
50.125000000000028
20
50.12514639704527
10
50.125000000000021
20
49.125146397045285
42
0.41421356237309337
10
51.625000000000014
20
47.625146397045306
10
83.100000000000037
20
47.625146397045199
42
-0.41421356237307422
10
83.599999999999994
20
47.125146397045242
10
83.599999999999994
20
45.500146397045285
42
0.99999999999999989
10
87.849999999999966
20
45.500146397045285
10
87.84999999999998
20
47.125146397045242
42
-0.41421356237313667
10
88.350000000000009
20
47.625146397045199
10
100.77500000000001
20
47.62514639704527
42
0.41421356237309159
10
102.27500000000006
20
49.125146397045256
10
102.27500000000008
20
50.12514639704527
42
-0.12701665379257293
10
102.58749999999999
20
51.335453692735094
42
-0.77459666924147452
10
103.52500000000006
20
51.093392233597129
10
103.52499999999999
20
50.12514639704527
42
0.99999999999999989
10
106.02500000000006
20
50.12514639704527
10
106.02500000000001
20
51.0933922335971
42
-0.77459666924146897
10
106.96250000000008
20
51.335453692735065
42
-0.12701665379258795
10
107.27500000000006
20
50.12514639704527
10
107.27499999999992
20
49.125146397045285
42
0.41421356237308637
10
108.77500000000005
20
47.625146397045199
10
141.37500000000011
20
47.62514639704527
42
-0.41421356237307422
10
142.87500000000009
20
46.125146397045256
10
142.87500000000006
20
-46.124853602954758
42
-0.41421356237311935
10
141.37500000000003
20
-47.624853602954772
10
120.68124999999998
20
-47.62485360295473
42
0.41421356237309159
10
119.18125000000003
20
-49.124853602954758
10
119.18125000000001
20
-50.124853602954232
42
-0.12701665379263172
10
118.86875000000005
20
-51.335160898644574
42
-0.77459666924150339
10
117.93124999999996
20
-51.093099439506574
10
117.93124999999996
20
-50.12485360295473
42
0.99999999999999989
10
115.43124999999996
20
-50.12485360295473
10
115.43124999999989
20
-51.093099439506574
42
-0.7745966692414562
10
114.49374999999996
20
-51.33516089864456
42
-0.12701665379253321
10
114.18124999999996
20
-50.124853602955227
10
114.18124999999998
20
-49.124853602954744
42
0.41421356237309159
10
112.68124999999998
20
-47.624853602954772
10
95.493749999999949
20
-47.624853602954701
42
-0.414213562373069
10
94.993750000000006
20
-47.124853602954715
10
94.993749999999991
20
-45.499853602954758
42
0.99999999999999989
10
90.743750000000034
20
-45.499853602954722
10
90.743750000000006
20
-47.124853602954715
42
-0.41421356237305862
10
90.243750000000063
20
-47.624853602954722
10
74.63437500000002
20
-47.624853602954722
42
0.41421356237308982
10
73.134374999999991
20
-49.124853602954744
10
73.134374999999963
20
-50.124853602954538
42
-0.12701665379259616
10
72.821874999999935
20
-51.335160898644531
42
-0.77459666924149029
10
71.884374999999991
20
-51.093099439506567
10
71.884374999999991
20
-50.124853602954722
42
0.99999999999999989
10
69.384374999999991
20
-50.124853602954722
10
69.38437499999992
20
-51.093099439506595
42
-0.77459666924150206
10
68.44687500000002
20
-51.335160898644531
42
-0.12701665379257046
10
68.134374999999991
20
-50.124853602954921
10
68.134374999999977
20
-49.124853602954737
42
0.41421356237309681
10
66.634375000000006
20
-47.624853602954758
10
-66.634375000000006
20
-47.624853602954715
42
0.41421356237309503
10
-68.134375000000034
20
-49.12485360295473
10
-68.134375000000034
20
-50.124853602954708
42
-0.12701665379258445
10
-68.44687500000002
20
-51.335160898644538
42
-0.77459666924146187
10
-69.384375000000034
20
-51.093099439506588
10
-69.384375000000034
20
-50.124853602954708
42
0.99999999999999989
10
-71.884375000000034
20
-50.124853602954708
10
-71.884375000000048
20
-51.093099439506574
42
-0.77459666924149584
10
-72.82187500000002
20
-51.335160898644538
42
-0.12701665379258445
10
-73.134375000000034
20
-50.124853602954708
10
-73.134375000000006
20
-49.124853602954715
42
0.41421356237309503
10
-74.634375000000006
20
-47.624853602954708
10
-90.243750000000034
20
-47.624853602954715
42
-0.414213562373069
10
-90.743750000000006
20
-47.124853602954701
10
-90.743750000000034
20
-45.499853602954701
42
0.99999997114402583
10
-94.993750000000006
20
-45.499853480316823
10
-94.99375000000002
20
-47.124853602954701
42
-0.4142135623730846
10
-95.493749999999977
20
-47.624853602954708
10
-112.68125000000001
20
-47.62485360295468
42
0.41421356237309159
10
-114.18125000000001
20
-49.124853602954715
10
-114.18124999999998
20
-50.124853602954204
42
-0.12701665379263341
10
-114.49374999999998
20
-51.335160898644517
42
-0.77459666924150339
10
-115.43125000000001
20
-51.093099439506545
10
-115.43125000000001
20
-50.124853602954701
42
0.99999999999999989
10
-117.93125000000001
20
-50.124853602954701
10
-117.93125000000001
20
-51.093099439506545
42
-0.77459666924146975
10
-118.86875000000001
20
-51.335160898644517
42
-0.12701665379253321
10
-119.18125000000001
20
-50.124853602955199
10
-119.18125000000001
20
-49.124853602954708
42
0.41421356237307944
10
-120.68125000000002
20
-47.624853602954701
10
-141.37500000000003
20
-47.624853602954708
42
-0.41421356237308293
10
-142.87499999999997
20
-46.124853602954701
10
-142.875
20
46.125146397045278
42
-0.41421356237310719
10
-141.37500000000003
20
47.625146397045306
10
-108.77500000000003
20
47.62514639704527
42
0.4142135623730846
10
-107.27499999999999
20
49.125146397045256
10
-107.27499999999999
20
50.125146397045285
42
-0.1270166537925867
10
-106.96249999999999
20
51.335453692735094
42
-0.77459666924147452
10
-106.02499999999999
20
51.09339223359715
10
-106.02499999999999
20
50.125146397045285
42
0.99999999999999989
10
-103.52499999999999
20
50.125146397045285
10
-103.52500000000006
20
51.093392233597108
42
-0.77459666924150383
10
-102.58749999999998
20
51.335453692735094
42
-0.12701665379257529
10
-102.27499999999999
20
50.125146397045285
10
-102.27500000000003
20
49.125146397045299
42
0.41421356237308982
10
-100.77500000000001
20
47.625146397045306
10
-88.349999999999994
20
47.62514639704527
42
-0.4142135623730846
10
-87.849999999999994
20
47.125146397045263
10
-87.850000000000023
20
45.500146521280058
42
1.0000000307195311
10
-83.599999999999994
20
45.500146403368475
10
-83.600000000000023
20
47.125146397045263
42
-0.41421356237309503
10
-83.100000000000023
20
47.62514639704527
0
LWPOLYLINE
5
163
100
AcDbEntity
8
0
100
AcDbPolyline
90
12
70
1
43
0.0
10
-109.6093748827319
20
-3.9943965992128661
10
-110.10937488273194
20
-3.9943965992128572
42
-0.4142135623730846
10
-110.60937488273197
20
-3.4943965992128501
10
-110.60937488273191
20
2.0056034007871504
42
0.414213562373069
10
-111.10937488273187
20
2.5056034007870953
10
-113.60937488273188
20
2.5056034007871464
42
-0.41421356237308593
10
-114.1093748827319
20
3.0056034007871379
10
-114.1093748827319
20
3.5056034007871362
42
-0.41421356237310025
10
-113.60937488273188
20
4.0056034007871517
10
-111.10937488273188
20
4.0056034007870807
42
-0.41421356237309176
10
-109.10937488273193
20
2.0056034007871459
10
-109.1093748827319
20
-3.4943965992128589
42
-0.41421356237309503
0
LWPOLYLINE
5
164
100
AcDbEntity
8
0
100
AcDbPolyline
90
12
70
1
43
0.0
10
-117.10937488273203
20
-1.9943965992128643
10
-117.10937488273196
20
3.5056034007871362
42
-0.41421356237315354
10
-116.60937488273193
20
4.0056034007871189
10
-116.10937488273188
20
4.0056034007871428
42
-0.41421356237310414
10
-115.6093748827319
20
3.5056034007871384
10
-115.60937488273191
20
-1.9943965992128643
42
0.41421356237311063
10
-115.10937488273197
20
-2.4943965992127382
10
-112.60937488273194
20
-2.494396599212827
42
-0.41421356237307422
10
-112.10937488273197
20
-2.994396599212763
10
-112.109374882732
20
-3.4943965992128589
42
-0.4142135623730534
10
-112.60937488273194
20
-3.9943965992128838
10
-115.10937488273197
20
-3.9943965992128483
42
-0.41421356237309892
0
LWPOLYLINE
5
165
100
AcDbEntity
8
0
100
AcDbPolyline
90
8
70
1
43
0.0
10
-119.20624988302855
20
6.5056034010837749
10
-119.20625
20
-6.499853602954726
42
-0.41421356237310542
10
-119.70625
20
-6.9998536029547154
10
-137.46624999999997
20
-6.9998536029547331
42
-0.41421356237306706
10
-137.96624999999997
20
-6.4998536029547562
10
-137.96624988302867
20
6.5056034010837926
42
-0.41421356237312623
10
-137.46624988302858
20
7.005603401083782
10
-119.70624988302856
20
7.0056034010837553
42
-0.4142135623730378
0
LWPOLYLINE
5
166
100
AcDbEntity
8
0
100
AcDbPolyline
90
14
70
1
43
0.0
10
140.3500001169715
20
-12.544396598916236
10
140.35000000000005
20
-25.549853602954737
42
-0.4142135623730846
10
139.85000000000008
20
-26.049853602954727
10
132.11925000000008
20
-26.049853602954684
10
132.11925000000014
20
-26.549853602954609
42
-0.4142135623730534
10
131.61925000000031
20
-27.04985360295451
10
125.61925000000016
20
-27.049853602954848
42
-0.41421356237307683
10
125.11925000000006
20
-26.549853602954784
10
125.11925011697159
20
-11.54439659891629
42
-0.4142135623730937
10
125.61925011697159
20
-11.04439659891629
10
131.61925011697147
20
-11.044396598916284
42
-0.41421356237309503
10
132.1192501169715
20
-11.544396598916292
10
132.1192501169715
20
-12.044396598916208
10
139.8500001169715
20
-12.044396598916208
42
-0.41421356237310802
0
LWPOLYLINE
5
167
100
AcDbEntity
8
0
100
AcDbPolyline
90
8
70
1
43
0.0
10
-129.88174988302862
20
-11.54439659891618
10
-129.88175000000004
20
-26.549853602954716
42
-0.41421356237310542
10
-130.38174999999998
20
-27.049853602954723
10
-136.38174999999995
20
-27.049853602954723
42
-0.41421356237305079
10
-136.88174999999998
20
-26.549853602954702
10
-136.88174988302859
20
-11.544396598916183
42
-0.41421356237309503
10
-136.38174988302859
20
-11.044396598916189
10
-130.38174988302859
20
-11.04439659891619
42
-0.41421356237309503
0
LWPOLYLINE
5
168
100
AcDbEntity
8
0
100
AcDbPolyline
90
8
70
1
43
0.0
10
-60.649999883028663
20
-45.594396598916035
10
-60.649999883028585
20
-30.594396598916191
42
-0.41421356237311846
10
-60.149999883028649
20
-30.094396598916212
10
-54.14999988302867
20
-30.094396598916255
42
-0.41421356237315748
10
-53.649999883028656
20
-30.594396598916234
10
-53.649999883028698
20
-45.594396598916134
42
-0.41421356237309503
10
-54.149999883028634
20
-46.09439659891607
10
-60.149999883028627
20
-46.09439659891607
42
-0.41421356237309503
0
LWPOLYLINE
5
169
100
AcDbEntity
8
0
100
AcDbPolyline
90
8
70
1
43
0.0
10
-106.00574988302866
20
-11.544396598916169
10
-106.00575000000003
20
-26.549853602954716
42
-0.41421356237307422
10
-106.50575000000002
20
-27.049853602954713
10
-112.50575000000001
20
-27.049853602954723
42
-0.41421356237313406
10
-113.00575000000002
20
-26.54985360295472
10
-113.00574988302856
20
-11.54439659891616
42
-0.4142135623730937
10
-112.50574988302859
20
-11.044396598916197
10
-106.50574988302864
20
-11.044396598916181
42
-0.4142135623730937
0
LWPOLYLINE
5
170
100
AcDbEntity
8
0
100
AcDbPolyline
90
8
70
1
43
0.0
10
60.650000116971469
20
-30.594396598916248
10
60.650000116971455
20
-45.594396598916099
42
-0.41421356237309503
10
60.150000116971469
20
-46.094396598916092
10
54.150000116971526
20
-46.094396598916099
42
-0.41421356237309503
10
53.650000116971469
20
-45.594396598916035
10
53.650000116971469
20
-30.594396598916276
42
-0.41421356237315227
10
54.15000011697154
20
-30.094396598916209
10
60.150000116971505
20
-30.09439659891628
42
-0.41421356237301438
0
LWPOLYLINE
5
171
100
AcDbEntity
8
0
100
AcDbPolyline
90
8
70
1
43
0.0
10
113.00575011697137
20
7.5056034010838157
10
113.00575000000003
20
-7.499853602954758
42
-0.41421356237310542
10
112.50575000000003
20
-7.9998536029547473
10
106.50575000000003
20
-7.9998536029547473
42
-0.41421356237309825
10
106.00575000000003
20
-7.4998536029547349
10
106.00575011697144
20
7.5056034010837802
42
-0.4142135623730957
10
106.50575011697157
20
8.0056034010839046
10
112.50575011697129
20
8.0056034010839099
42
-0.4142135623730937
0
ENDSEC
0
SECTION
2
OBJECTS
0
DICTIONARY
5
C
100
AcDbDictionary
3
ACAD_GROUP
350
D
3
ACAD_MLINESTYLE
350
17
0
DICTIONARY
5
D
100
AcDbDictionary
0
DICTIONARY
5
1A
330
C
100
AcDbDictionary
0
DICTIONARY
5
17
100
AcDbDictionary
0
ENDSEC
0
EOF
