0
SECTION
2
HEADER
9
$INSUNITS
70
4
9
$ACADVER
1
AC1014
9
$HANDSEED
5
FFFF
0
ENDSEC
0
SECTION
2
TABLES
0
TABLE
2
VPORT
5
8
100
AcDbSymbolTable
0
ENDTAB
0
TABLE
2
LTYPE
5
5
100
AcDbSymbolTable
0
LTYPE
5
14
100
AcDbSymbolTableRecord
100
AcDbLinetypeTableRecord
2
BYBLOCK
70
0
0
LTYPE
5
15
100
AcDbSymbolTableRecord
100
AcDbLinetypeTableRecord
2
BYLAYER
70
0
0
LTYPE
5
16
100
AcDbSymbolTableRecord
100
AcDbLinetypeTableRecord
2
DASHED
70
0
3
Dashed __ __ __ __ __ __ __ __ __ __ __ __ __ _
72
65
73
2
40
0.75
49
0.5
74
0
49
-0.25
74
0
0
ENDTAB
0
TABLE
2
LAYER
5
2
100
AcDbSymbolTable
70
2
0
LAYER
5
50
100
AcDbSymbolTableRecord
100
AcDbLayerTableRecord
2
0
70
0
62
7
6
CONTINUOUS
0
ENDTAB
0
TABLE
2
STYLE
5
3
100
AcDbSymbolTable
70
1
0
STYLE
5
11
100
AcDbSymbolTableRecord
100
AcDbTextStyleTableRecord
2
STANDARD
70
0
0
ENDTAB
0
TABLE
2
VIEW
5
6
100
AcDbSymbolTable
70
0
0
ENDTAB
0
TABLE
2
UCS
5
7
100
AcDbSymbolTable
70
0
0
ENDTAB
0
TABLE
2
APPID
5
9
100
AcDbSymbolTable
70
2
0
APPID
5
12
100
AcDbSymbolTableRecord
100
AcDbRegAppTableRecord
2
ACAD
70
0
0
ENDTAB
0
TABLE
2
DIMSTYLE
5
A
100
AcDbSymbolTable
70
1
0
ENDTAB
0
TABLE
2
BLOCK_RECORD
5
1
100
AcDbSymbolTable
70
1
0
BLOCK_RECORD
5
1F
100
AcDbSymbolTableRecord
100
AcDbBlockTableRecord
2
*MODEL_SPACE
0
BLOCK_RECORD
5
1B
100
AcDbSymbolTableRecord
100
AcDbBlockTableRecord
2
*PAPER_SPACE
0
ENDTAB
0
ENDSEC
0
SECTION
2
BLOCKS
0
BLOCK
5
20
100
AcDbEntity
100
AcDbBlockBegin
2
*MODEL_SPACE
0
ENDBLK
5
21
100
AcDbEntity
100
AcDbBlockEnd
0
BLOCK
5
1C
100
AcDbEntity
100
AcDbBlockBegin
2
*PAPER_SPACE
0
ENDBLK
5
1D
100
AcDbEntity
100
AcDbBlockEnd
0
ENDSEC
0
SECTION
2
ENTITIES
0
SPLINE
5
100
100
AcDbEntity
8
0
100
AcDbSpline
70
0
71
3
72
14
73
10
74
0
42
0.000000001
43
0.0000000001
44
0.0000000001
40
-0.062961775751077448
40
-0.062961775751077448
40
-0.062961775751077448
40
-0.062961775751077448
40
-0.050951817965374478
40
-0.050951817965374478
40
-0.038941865187715627
40
-0.038941865187715627
40
-0.019470343016236864
40
-0.019470343016236864
40
-0
40
-0
40
-0
40
-0
10
19.665931371485115
20
-35.370807570125109
30
0
10
19.665931371485115
20
-35.410840762744115
30
0
10
19.670739341018926
20
-35.450729466211506
30
0
10
19.689764470533724
20
-35.528502648085819
30
0
10
19.703912960508102
20
-35.566106425966517
30
0
10
19.752354836742512
20
-35.659194668534361
30
0
10
19.793242699599542
20
-35.710389404837713
30
0
10
19.892293032211889
20
-35.794286279971068
30
0
10
19.949513485475272
20
-35.826192524891994
30
0
10
20.011230000688908
20
-35.846273116588556
30
0
0
LINE
5
101
100
AcDbEntity
8
0
100
AcDbLine
10
19.665931371485115
20
-35.370807570125109
30
0
11
19.665931371485108
21
-31.83687443113044
31
0
0
ARC
5
102
100
AcDbEntity
8
0
100
AcDbCircle
10
20.165931371485115
20
-31.83687443113044
30
0
40
0.49999999999999822
210
0
220
-0
230
1
100
AcDbArc
50
90
51
180
0
LINE
5
103
100
AcDbEntity
8
0
100
AcDbLine
10
20.165931371485115
20
-31.33687443113044
30
0
11
40.487460434223053
21
-31.336874431130433
31
6.106226635438361e-15
0
ARC
5
104
100
AcDbEntity
8
0
100
AcDbCircle
10
40.487460434223053
20
-31.83687443113044
30
0
40
0.49999999999999822
210
0
220
0
230
1
100
AcDbArc
50
0
51
90
0
LINE
5
105
100
AcDbEntity
8
0
100
AcDbLine
10
40.987460434223053
20
-31.83687443113044
30
0
11
40.987460434223095
21
-35.375650362852618
31
2.2204460492503131e-15
0
SPLINE
5
106
100
AcDbEntity
8
0
100
AcDbSpline
70
0
71
3
72
14
73
10
74
0
42
0.000000001
43
0.0000000001
44
0.0000000001
40
-0.062957212265828344
40
-0.062957212265828344
40
-0.062957212265828344
40
-0.062957212265828344
40
-0.050949536222547082
40
-0.050949536222547082
40
-0.038941865187727444
40
-0.038941865187727444
40
-0.019470343016248774
40
-0.019470343016248774
40
-0
40
-0
40
-0
40
-0
10
40.64220504478768
20
-35.851101838295904
30
0
10
40.680265493397165
20
-35.838714350608541
30
0
10
40.716701175796999
20
-35.821801379888534
30
0
10
40.784756836297262
20
-35.779651471238282
30
0
10
40.816131281229893
20
-35.754566607675827
30
0
10
40.889658406606955
20
-35.679705390156698
30
0
10
40.925690256286209
20
-35.624984058275274
30
0
10
40.974823958984068
20
-35.504836094052123
30
0
10
40.987460434223081
20
-35.440551506240112
30
0
10
40.987460434223081
20
-35.375650362852618
30
0
0
SPLINE
5
107
100
AcDbEntity
8
0
100
AcDbSpline
70
0
71
3
72
10
73
6
74
0
42
0.000000001
43
0.0000000001
44
0.0000000001
40
-1.0499122050111453
40
-1.0499122050111453
40
-1.0499122050111453
40
-1.0499122050111453
40
-0.60483313581229536
40
-0.60483313581229536
40
-0
40
-0
40
-0
40
-0
10
30.324999999802991
20
-37.575732847214276
30
0
10
31.823051098559674
20
-37.577438971377816
30
0
10
33.295966223246715
20
-37.46520689580241
30
0
10
36.759885466457206
20
-36.956276477403286
30
0
10
38.72507966599975
20
-36.475066292013572
30
0
10
40.642205044792661
20
-35.851101838294284
30
0
0
SPLINE
5
108
100
AcDbEntity
8
0
100
AcDbSpline
70
0
71
3
72
10
73
6
74
0
42
0.000000001
43
0.0000000001
44
0.0000000001
40
-1.0517439981107373
40
-1.0517439981107373
40
-1.0517439981107373
40
-1.0517439981107373
40
-0.52609589239681798
40
-0.52609589239681798
40
-0
40
-0
40
-0
40
-0
10
20.01123000068894
20
-35.846273116588563
30
0
10
21.677400579927813
20
-36.388392045090967
30
0
10
23.375237084620167
20
-36.821058818783591
30
5.5511151231257827e-16
10
26.830404105418634
20
-37.415256826598153
30
5.5511151231257827e-16
10
28.571348162453106
20
-37.573735620432466
30
0
10
30.324999999792901
20
-37.575732847214276
30
0
0
SPLINE
5
109
100
AcDbEntity
8
0
100
AcDbSpline
70
0
71
3
72
14
73
10
74
0
42
0.000000001
43
0.0000000001
44
0.0000000001
40
-0.062957351755235758
40
-0.062957351755235758
40
-0.062957351755235758
40
-0.062957351755235758
40
-0.050949605967247888
40
-0.050949605967247888
40
-0.038941865187711033
40
-0.038941865187711033
40
-0.019470343016235889
40
-0.019470343016235889
40
-0
40
-0
40
-0
40
-0
10
-19.662583111363009
20
-41.284030872360198
30
1.1102230246251565e-15
10
-19.662583111363009
20
-41.2440050530669
30
1.1102230246251565e-15
10
-19.667389309993307
20
-41.204123643055688
30
5.5511151231257827e-16
10
-19.686407507688493
20
-41.12636394704338
30
5.5511151231257827e-16
10
-19.700550887070879
20
-41.088766209429828
30
5.5511151231257827e-16
10
-19.748981153014171
20
-40.995680237423144
30
5.5511151231257827e-16
10
-19.789864502205575
20
-40.944481896502005
30
5.5511151231257827e-16
10
-19.888907437791502
20
-40.860576289071531
30
5.5511151231257827e-16
10
-19.94612507786654
20
-40.828664999519653
30
1.1102230246251565e-15
10
-20.00783982246524
20
-40.808578966757658
30
1.1102230246251565e-15
0
LINE
5
110
100
AcDbEntity
8
0
100
AcDbLine
10
-19.662583111363009
20
-41.284030872360198
30
1.1102230246251565e-15
11
-19.662583111363006
21
-44.836874431130411
31
0
0
ARC
5
111
100
AcDbEntity
8
0
100
AcDbCircle
10
-20.162583111363013
20
-44.836874431130411
30
0
40
0.49999999999999822
210
0
220
0
230
1
100
AcDbArc
50
-90
51
0
0
LINE
5
112
100
AcDbEntity
8
0
100
AcDbLine
10
-20.162583111363013
20
-45.336874431130411
30
0
11
-40.487111180185842
21
-45.336874431130418
31
-4.4408920985006262e-15
0
ARC
5
113
100
AcDbEntity
8
0
100
AcDbCircle
10
-40.487111180185842
20
-44.836874431130411
30
0
40
0.49999999999999922
210
0
220
0
230
1
100
AcDbArc
50
179.98833644392522
51
270
0
LINE
5
114
100
AcDbEntity
8
0
100
AcDbLine
10
-40.987111169825916
20
-44.836772647403151
30
0
11
-40.986386647731479
21
-41.277647338573651
31
1.6653345369377348e-15
0
SPLINE
5
115
100
AcDbEntity
8
0
100
AcDbSpline
70
0
71
3
72
14
73
10
74
0
42
0.000000001
43
0.0000000001
44
0.0000000001
40
-0.062948452505768568
40
-0.062948452505768568
40
-0.062948452505768568
40
-0.062948452505768568
40
-0.050945156342111941
40
-0.050945156342111941
40
-0.038941865187718402
40
-0.038941865187718402
40
-0.019470343016242626
40
-0.019470343016242626
40
-0
40
-0
40
-0
40
-0
10
-40.641117481237245
20
-40.802293159704384
30
0
10
-40.679164406116058
20
-40.814675025676827
30
0
10
-40.715587931136099
20
-40.831579137281331
30
0
10
-40.783623666942191
20
-40.873705760356991
30
0
10
-40.814990595642996
20
-40.898776392428296
30
0
10
-40.888522726433905
20
-40.973612226879411
30
0
10
-40.924565714848804
20
-41.028326222715101
30
0
10
-40.973723874743833
20
-41.148464182425997
30
0
10
-40.986373435970911
20
-41.212746196530922
30
0
10
-40.986386647731472
20
-41.277647338573651
30
0
0
SPLINE
5
116
100
AcDbEntity
8
0
100
AcDbSpline
70
0
71
3
72
10
73
6
74
0
42
0.000000001
43
0.0000000001
44
0.0000000001
40
-1.049362511277824
40
-1.049362511277824
40
-1.049362511277824
40
-1.049362511277824
40
-0.52380507312725355
40
-0.52380507312725355
40
-0
40
-0
40
-0
40
-0
10
-30.324999999794858
20
-39.0780160150466
30
0
10
-32.098147980615323
20
-39.075996584188047
30
0
10
-33.836793471166239
20
-39.23416620842923
30
0
10
-37.28432132037382
20
-39.828677953017426
30
0
10
-38.980809179526148
20
-40.261967892151354
30
0
10
-40.641117481237288
20
-40.802293159704384
30
0
0
SPLINE
5
117
100
AcDbEntity
8
0
100
AcDbSpline
70
0
71
3
72
10
73
6
74
0
42
0.000000001
43
0.0000000001
44
0.0000000001
40
-1.0521035244231347
40
-1.0521035244231347
40
-1.0521035244231347
40
-1.0521035244231347
40
-0.52688663103350686
40
-0.52688663103350686
40
-0
40
-0
40
-0
40
-0
10
-20.007839822465243
20
-40.808578966757658
30
0
10
-21.67259581860997
20
-40.266757985455143
30
0
10
-23.368979260757978
20
-39.834187152346459
30
0
10
-26.825186852526144
20
-39.238968397682662
30
0
10
-28.568712368708852
20
-39.080016243722952
30
0
10
-30.324999999794851
20
-39.078016015046593
30
0
0
LINE
5
118
100
AcDbEntity
8
0
100
AcDbLine
10
-40.226915608776245
20
-37.576874391843596
30
0
11
-51.650000000000169
21
-37.576874431130435
31
0
0
LINE
5
119
100
AcDbEntity
8
0
100
AcDbLine
10
-51.650000000000169
20
-37.576874431130435
30
0
11
-51.650000000000169
21
-32.388599792414482
31
0
0
SPLINE
5
120
100
AcDbEntity
8
0
100
AcDbSpline
70
0
71
3
72
10
73
6
74
0
42
0.000000001
43
0.0000000001
44
0.0000000001
40
-0.67057104024552983
40
-0.67057104024552983
40
-0.67057104024552983
40
-0.67057104024552983
40
-0.34784891872010631
40
-0.34784891872010631
40
-0
40
-0
40
-0
40
-0
10
-40.226915608776245
20
-37.576874391843596
30
0
10
-42.215318676673178
20
-36.898555292022181
30
0
10
-43.916228858969916
20
-36.318310832354911
30
0
10
-48.739915384792226
20
-34.093027886169651
30
0
10
-50.649482350371294
20
-32.974600069318278
30
0
10
-51.649999999988701
20
-32.388599792421196
30
0
0
LINE
5
121
100
AcDbEntity
8
0
100
AcDbLine
10
-51.650000000000205
20
-44.265149069847887
30
0
11
-51.65000000000019
21
-39.076874431130442
31
0
0
LINE
5
122
100
AcDbEntity
8
0
100
AcDbLine
10
-51.65000000000019
20
-39.076874431130442
30
0
11
-40.226915482544896
21
-39.076874431130484
31
0
0
SPLINE
5
123
100
AcDbEntity
8
0
100
AcDbSpline
70
0
71
3
72
10
73
6
74
0
42
0.000000001
43
0.0000000001
44
0.0000000001
40
-1.2932573344858924
40
-1.2932573344858924
40
-1.2932573344858924
40
-1.2932573344858924
40
-0.63027591832409702
40
-0.63027591832409702
40
-0
40
-0
40
-0
40
-0
10
-51.650000000000205
20
-44.26514906984788
30
0
10
-50.20737108868132
20
-43.420205513031419
30
0
10
-48.679631065430023
20
-42.532910362513277
30
0
10
-43.91622878518853
20
-40.335437998526366
30
0
10
-42.215318583808134
20
-39.755193536952611
30
0
10
-40.226915482544918
20
-39.076874431130491
30
0
0
SPLINE
5
124
100
AcDbEntity
8
0
100
AcDbSpline
70
0
71
3
72
10
73
6
74
0
42
0.000000001
43
0.0000000001
44
0.0000000001
40
-1.0618492380746178
40
-1.0618492380746178
40
-1.0618492380746178
40
-1.0618492380746178
40
-0.53086956780664329
40
-0.53086956780664329
40
-0
40
-0
40
-0
40
-0
10
-9.3763480158836625
20
-32.609025730535919
30
0
10
-10.903195942421346
20
-33.503296119576461
30
0
10
-12.474279663823022
20
-34.338272366594737
30
0
10
-15.676788184888625
20
-35.842867573890459
30
0
10
-17.32185380872702
20
-36.518927961444952
30
0
10
-18.996648393612645
20
-37.090263403706842
30
0
0
SPLINE
5
125
100
AcDbEntity
8
0
100
AcDbSpline
70
0
71
3
72
18
73
14
74
0
42
0.000000001
43
0.0000000001
44
0.0000000001
40
-0.052662156759814158
40
-0.052662156759814158
40
-0.052662156759814158
40
-0.052662156759814158
40
-0.045872007856584567
40
-0.045872007856584567
40
-0.03907475303082681
40
-0.03907475303082681
40
-0.029293778732491199
40
-0.029293778732491199
40
-0.019513298902306533
40
-0.019513298902306533
40
-0.0097514009012414395
40
-0.0097514009012414395
40
-0
40
-0
40
-0
40
-0
10
-9.000000000000945
20
-32.824748188528794
30
0
10
-9.000000000000945
20
-32.80211508404426
30
0
10
-9.0030738737654268
20
-32.779586393774302
30
0
10
-9.0152042663484764
20
-32.735955061171929
30
0
10
-9.0242112476792045
20
-32.715054689764578
30
0
10
-9.0527433846709826
20
-32.667737169768323
30
0
10
-9.0748748523466602
20
-32.643381105628265
30
0
10
-9.1272416018389873
20
-32.604536877436288
30
0
10
-9.1569707812232579
20
-32.590422748373854
30
0
10
-9.2201147627425701
20
-32.574417200705682
30
0
10
-9.2529162709998403
20
-32.572656265031348
30
0
10
-9.317315811925619
20
-32.581797252692851
30
0
10
-9.3483000671220893
20
-32.592598128536572
30
0
10
-9.3763480160592394
20
-32.609025730638734
30
0
0
LINE
5
126
100
AcDbEntity
8
0
100
AcDbLine
10
-9.000000000000945
20
-32.824748188528794
30
0
11
-9.000000000000945
21
-37.326874431130435
31
0
0
ARC
5
127
100
AcDbEntity
8
0
100
AcDbCircle
10
-9.2500000000009663
20
-37.326874431130435
30
0
40
0.25000000000000355
210
0
220
0
230
1
100
AcDbArc
50
-90
51
0
0
LINE
5
128
100
AcDbEntity
8
0
100
AcDbLine
10
-9.2500000000009663
20
-37.576874431130435
30
0
11
-18.915931470346337
21
-37.576874431130385
31
-2.2204460492503131e-15
0
SPLINE
5
129
100
AcDbEntity
8
0
100
AcDbSpline
70
0
71
3
72
22
73
18
74
0
42
0.000000001
43
0.0000000001
44
0.0000000001
40
-0.070532653365871223
40
-0.070532653365871223
40
-0.070532653365871223
40
-0.070532653365871223
40
-0.064562819058533116
40
-0.064562819058533116
40
-0.058586472101137529
40
-0.058586472101137529
40
-0.048815666925201659
40
-0.048815666925201659
40
-0.03904561253915656
40
-0.03904561253915656
40
-0.029276309009419108
40
-0.029276309009419108
40
-0.019507756403186423
40
-0.019507756403186423
40
-0.0097540944918391107
40
-0.0097540944918391107
40
-0
40
-0
40
-0
40
-0
10
-18.996648393612642
20
-37.090263403706814
30
0
10
-19.015476279844158
20
-37.096686304045662
30
0
10
-19.033470116722462
20
-37.105333732533488
30
-3.3306690738754696e-15
10
-19.067042679564693
20
-37.126719655962575
30
-3.3306690738754696e-15
10
-19.082499336763426
20
-37.13938653709738
30
-3.3306690738754696e-15
10
-19.118834210459514
20
-37.177240377301864
30
-3.3306690738754696e-15
10
-19.13657651479593
20
-37.204907562469216
30
-2.2204460492503131e-15
10
-19.160454591062567
20
-37.265487800903074
30
-2.2204460492503131e-15
10
-19.166363061204422
20
-37.297819758285598
30
-2.2204460492503131e-15
10
-19.165450795748239
20
-37.362929723969749
30
-2.2204460492503131e-15
10
-19.158640421611658
20
-37.395083842089647
30
-2.2204460492503131e-15
10
-19.13307434862147
20
-37.454971469703395
30
-2.2204460492503131e-15
10
-19.114565127634034
20
-37.482131740284245
30
-1.1102230246251565e-15
10
-19.068207982022031
20
-37.527794020596325
30
-1.1102230246251565e-15
10
-19.04081778132813
20
-37.545873188031152
30
-1.1102230246251565e-15
10
-18.98064863081499
20
-37.570531609745082
30
-1.1102230246251565e-15
10
-18.948445118652465
20
-37.576874431130385
30
-1.1102230246251565e-15
10
-18.915931470346337
20
-37.576874431130385
30
-1.1102230246251565e-15
0
SPLINE
5
130
100
AcDbEntity
8
0
100
AcDbSpline
70
0
71
3
72
10
73
6
74
0
42
0.000000001
43
0.0000000001
44
0.0000000001
40
-1.0615651413241318
40
-1.0615651413241318
40
-1.0615651413241318
40
-1.0615651413241318
40
-0.53083760716389194
40
-0.53083760716389194
40
-0
40
-0
40
-0
40
-0
10
-18.99664829446909
20
-39.563485492460977
30
0
10
-17.321853727489543
20
-40.134820933147537
30
0
10
-15.67678812104343
20
-40.810881316539081
30
0
10
-12.474279632975819
20
-42.315476512123794
30
0
10
-10.903195927506912
20
-43.150452751461287
30
0
10
-9.3763480160562889
20
-44.044723131630903
30
0
0
SPLINE
5
131
100
AcDbEntity
8
0
100
AcDbSpline
70
0
71
3
72
22
73
18
74
0
42
0.000000001
43
0.0000000001
44
0.0000000001
40
-0.07053265321861181
40
-0.07053265321861181
40
-0.07053265321861181
40
-0.07053265321861181
40
-0.064562818981234976
40
-0.064562818981234976
40
-0.058586472093941397
40
-0.058586472093941397
40
-0.04881566691953447
40
-0.04881566691953447
40
-0.039045612535057436
40
-0.039045612535057436
40
-0.029276309006896019
40
-0.029276309006896019
40
-0.019507756402100278
40
-0.019507756402100278
40
-0.0097540944916765741
40
-0.0097540944916765741
40
-0
40
-0
40
-0
40
-0
10
-18.915931371487069
20
-39.076874465233793
30
0
10
-18.935824660291015
20
-39.076874465302197
30
0
10
-18.955646796263345
20
-39.079249144468719
30
-3.3306690738754696e-15
10
-18.994326173914928
20
-39.088650229728458
30
-3.3306690738754696e-15
10
-19.01304476255056
20
-39.095648269417843
30
-3.3306690738754696e-15
10
-19.059655471636631
20
-39.119743456451197
30
-3.3306690738754696e-15
10
-19.085380411357185
20
-39.140200483954814
30
-3.3306690738754696e-15
10
-19.127539077921554
20
-39.189826834284673
30
-3.3306690738754696e-15
10
-19.143570059238485
20
-39.218519570739723
30
-3.3306690738754696e-15
10
-19.163728555523804
20
-39.280437055231324
30
-3.3306690738754696e-15
10
-19.167664443051564
20
-39.313067980700417
30
-3.3306690738754696e-15
10
-19.162803364184676
20
-39.378002732106843
30
-3.3306690738754696e-15
10
-19.154054594987521
20
-39.409684439712144
30
-3.3306690738754696e-15
10
-19.124923022827915
20
-39.46786846067149
30
-3.3306690738754696e-15
10
-19.104836907864751
20
-39.4938227931546
30
-3.3306690738754696e-15
10
-19.055851577615861
20
-39.536587286076539
30
-3.3306690738754696e-15
10
-19.027420645366309
20
-39.552987885764978
30
-1.1102230246251565e-15
10
-18.996648294468301
20
-39.56348549246124
30
-1.1102230246251565e-15
0
LINE
5
132
100
AcDbEntity
8
0
100
AcDbLine
10
-18.915931371487069
20
-39.076874465233793
30
0
11
-9.2500000008607586
21
-39.076874431990234
31
0
0
ARC
5
133
100
AcDbEntity
8
0
100
AcDbCircle
10
-9.2500000000009663
20
-39.32687443199022
30
0
40
0.25000000000000022
210
0
220
0
230
1
100
AcDbArc
50
0
51
90.000000197049872
0
LINE
5
134
100
AcDbEntity
8
0
100
AcDbLine
10
-9.0000000000009663
20
-39.32687443199022
30
0
11
-9.000000000000945
21
-43.829000673739102
31
-1.1102230246251565e-15
0
SPLINE
5
135
100
AcDbEntity
8
0
100
AcDbSpline
70
0
71
3
72
18
73
14
74
0
42
0.000000001
43
0.0000000001
44
0.0000000001
40
-0.052662156759734659
40
-0.052662156759734659
40
-0.052662156759734659
40
-0.052662156759734659
40
-0.045872007856673232
40
-0.045872007856673232
40
-0.039074753031070109
40
-0.039074753031070109
40
-0.029293778732638925
40
-0.029293778732638925
40
-0.019513298902362038
40
-0.019513298902362038
40
-0.0097514009013069808
40
-0.0097514009013069808
40
-0
40
-0
40
-0
40
-0
10
-9.3763480160562906
20
-44.044723131630903
30
0
10
-9.3568181403403479
20
-44.05616172302576
30
0
10
-9.3358248511815276
20
-44.064895129890438
30
0
10
-9.2920452137951699
20
-44.076478866726283
30
0
10
-9.2694584389453425
20
-44.07926971597162
30
0
10
-9.214208716475305
20
-44.078563524194116
30
0
10
-9.1820070482588161
20
-44.071775867311629
30
0
10
-9.122023019113902
20
-44.046220696332348
30
0
10
-9.0948191893276302
20
-44.027700858562824
30
0
10
-9.0490956978322643
20
-43.98130363576076
30
0
10
-9.0309985823767551
20
-43.953889510741256
30
0
10
-9.0063392307560317
20
-43.893700019096016
30
0
10
-9.000000000000945
20
-43.86150534341013
30
0
10
-9.000000000000945
20
-43.829000673739102
30
0
0
LWPOLYLINE
5
136
100
AcDbEntity
8
0
100
AcDbPolyline
90
4
70
1
43
0.0
10
46.125000049021736
20
-46.099374619964806
10
49.125000049021708
20
-46.099374619964813
42
-0.99999999999999989
10
49.125000049021708
20
-47.099374619964813
10
46.125000049021736
20
-47.09937461996482
42
-0.99999999999999989
0
LWPOLYLINE
5
137
100
AcDbEntity
8
0
100
AcDbPolyline
90
4
70
1
43
0.0
10
99.022063761371726
20
-46.099374619964806
10
102.0220637613717
20
-46.099374619964813
42
-0.99999999999999989
10
102.0220637613717
20
-47.099374619964813
10
99.022063761371726
20
-47.09937461996482
42
-0.99999999999999989
0
LWPOLYLINE
5
138
100
AcDbEntity
8
0
100
AcDbPolyline
90
4
70
1
43
0.0
10
46.125001288344265
20
46.625667142517422
10
49.125001288344237
20
46.625667142517415
42
-0.99999999999999989
10
49.125001288344237
20
45.625667142517415
10
46.125001288344265
20
45.625667142517408
42
-0.99999999999999989
0
LWPOLYLINE
5
139
100
AcDbEntity
8
0
100
AcDbPolyline
90
4
70
1
43
0.0
10
-49.124998711649255
20
46.625642481417806
10
-46.124998711649248
20
46.625642481417799
42
-0.99999999999999989
10
-46.124998711649248
20
45.625642481417799
10
-49.124998711649255
20
45.625642481417792
42
-0.99999999999999989
0
LWPOLYLINE
5
140
100
AcDbEntity
8
0
100
AcDbPolyline
90
8
70
1
43
0.0
10
-45.887499950384836
20
-26.286874620558116
10
-58.887499950384878
20
-26.286874620558134
42
-0.41421356237307422
10
-59.387499950384864
20
-25.786874620558109
10
-59.387499950384814
20
-12.786874620558066
42
-0.41421356237309503
10
-58.887499950384807
20
-12.286874620558059
10
-45.887499950384836
20
-12.286874620558041
42
-0.41421356237309503
10
-45.387499950384807
20
-12.786874620558066
10
-45.3874999503849
20
-25.78687462055818
42
-0.41421356237309503
0
LWPOLYLINE
5
141
100
AcDbEntity
8
0
100
AcDbPolyline
90
8
70
1
43
0.0
10
-77.93749995038489
20
-12.28687462055813
42
0.41421356237309503
10
-78.437499950384819
20
-12.786874620558066
10
-78.437499950384876
20
-25.786874620558144
42
0.41421356237309503
10
-77.93749995038489
20
-26.286874620558152
10
-64.937499950384918
20
-26.286874620558116
42
0.41421356237309503
10
-64.437499950384804
20
-25.786874620558038
10
-64.437499950384861
20
-12.786874620558066
42
0.41421356237307422
10
-64.937499950384918
20
-12.286874620558095
0
LWPOLYLINE
5
142
100
AcDbEntity
8
0
100
AcDbPolyline
90
8
70
1
43
0.0
10
-83.987499950384787
20
-26.286874620558152
10
-96.987499950384901
20
-26.286874620558169
42
-0.41421356237307422
10
-97.487499950384858
20
-25.786874620558038
10
-97.487499950384915
20
-12.786874620558102
42
-0.41421356237309503
10
-96.987499950384901
20
-12.286874620558166
10
-83.98749995038493
20
-12.28687462055813
42
-0.41421356237307422
10
-83.487499950384773
20
-12.786874620558102
10
-83.487499950384887
20
-25.786874620558109
42
-0.41421356237309503
0
LWPOLYLINE
5
143
100
AcDbEntity
8
0
100
AcDbPolyline
90
8
70
1
43
0.0
10
-106.00574995097821
20
-11.786874619964749
42
0.41421356237309503
10
-106.5057499509782
20
-11.286874619964761
10
-112.50574995097814
20
-11.286874619964795
42
0.41421356237307422
10
-113.00574995097811
20
-11.786874619964749
10
-113.00574995097818
20
-26.786874619964891
42
0.41421356237307422
10
-112.50574995097814
20
-27.286874619964863
10
-106.50574995097813
20
-27.286874619964809
42
0.41421356237309503
10
-106.00574995097816
20
-26.78687461996482
0
LWPOLYLINE
5
144
100
AcDbEntity
8
0
100
AcDbPolyline
90
8
70
1
43
0.0
10
-129.88174995097813
20
-11.78687461996482
42
0.41421356237311585
10
-130.38174995097813
20
-11.286874619964845
10
-136.38174995097816
20
-11.286874619964813
42
0.4142135623730846
10
-136.88174995097813
20
-11.78687461996482
10
-136.88174995097813
20
-26.78687461996482
42
0.41421356237307422
10
-136.38174995097819
20
-27.286874619964863
10
-130.38174995097813
20
-27.28687461996488
42
0.41421356237306384
10
-129.88174995097819
20
-26.786874619964891
0
LWPOLYLINE
5
145
100
AcDbEntity
8
0
100
AcDbPolyline
90
8
70
1
43
0.0
10
-39.837499950384796
20
-12.286874620558059
10
-26.837499950384824
20
-12.286874620558139
42
-0.41421356237303258
10
-26.337499950384824
20
-12.786874620558173
10
-26.337499950384867
20
-25.786874620558038
42
-0.41421356237303258
10
-26.837499950384824
20
-26.286874620558102
10
-39.837499950384867
20
-26.286874620558187
42
-0.41421356237307422
10
-40.337499950384981
20
-25.78687462055818
10
-40.337499950384839
20
-12.786874620558066
42
-0.41421356237315748
0
LWPOLYLINE
5
146
100
AcDbEntity
8
0
100
AcDbPolyline
90
8
70
1
43
0.0
10
136.38175004902166
20
-8.2368746199652776
10
130.38175004902166
20
-8.2368746199651888
42
-0.41421356237309503
10
129.88175004902192
20
-7.7368746199654481
10
129.88175004902195
20
7.263125380035369
42
-0.4142135623730534
10
130.38175004902178
20
7.7631253800352873
10
136.381750049022
20
7.7631253800353406
42
-0.41421356237309503
10
136.88175004902195
20
7.2631253800354045
10
136.88175004902183
20
-7.7368746199650928
42
-0.41421356237309503
0
LWPOLYLINE
5
147
100
AcDbEntity
8
0
100
AcDbPolyline
90
8
70
1
43
0.0
10
106.50575004902208
20
7.7631253800353406
42
0.41421356237309503
10
106.00575004902194
20
7.2631253800351914
10
106.0057500490219
20
-7.7368746199648797
42
0.41421356237309503
10
106.50575004902194
20
-8.2368746199649223
10
112.50575004902167
20
-8.2368746199650111
42
0.41421356237315748
10
113.00575004902193
20
-7.7368746199647731
10
113.00575004902183
20
7.2631253800351914
42
0.41421356237311585
10
112.50575004902174
20
7.7631253800353051
0
LWPOLYLINE
5
148
100
AcDbEntity
8
0
100
AcDbPolyline
90
8
70
1
43
0.0
10
114.44375004902199
20
-6.7368746199647944
42
0.41421356237311585
10
114.94375004902182
20
-7.2368746199649383
10
127.94375004902186
20
-7.2368746199648726
42
0.41421356237292856
10
128.4437500490219
20
-6.7368746199648655
10
128.44375004902187
20
6.2631253800350351
42
0.4142135623730534
10
127.94375004902186
20
6.7631253800350777
10
114.94375004902182
20
6.7631253800354862
42
0.41421356237294937
10
114.44375004902184
20
6.263125380034964
0
LWPOLYLINE
5
149
100
AcDbEntity
8
0
100
AcDbPolyline
90
8
70
1
43
0.0
10
-128.44374995097817
20
-25.786874619964877
42
0.41421356237306384
10
-127.9437499509782
20
-26.286874619964831
10
-114.94374995097822
20
-26.286874619964848
42
0.41421356237311585
10
-114.4437499509781
20
-25.786874619964806
10
-114.4437499509782
20
-12.786874619964834
42
0.41421356237309503
10
-114.94374995097822
20
-12.286874619964863
10
-127.94374995097813
20
-12.286874619964827
42
0.41421356237311585
10
-128.44374995097817
20
-12.786874619964834
0
LWPOLYLINE
5
150
100
AcDbEntity
8
0
100
AcDbPolyline
90
8
70
1
43
0.0
10
139.85000004902196
20
30.863125380035523
42
0.4142135623730534
10
140.35000004902196
20
31.363125380034731
10
140.35000004902204
20
44.363125380034418
42
0.41421356237319906
10
139.8500000490219
20
44.863125380036273
10
126.85000004902207
20
44.86312538003682
42
0.41421356237315748
10
126.35000004902203
20
44.363125380036799
10
126.35000004902209
20
31.363125380035193
42
0.41421356237311585
10
126.85000004902207
20
30.863125380035186
0
LWPOLYLINE
5
151
100
AcDbEntity
8
0
100
AcDbPolyline
90
12
70
1
43
0.0
10
-112.10937495068153
20
-3.2368746202613607
42
0.41421356237307422
10
-112.60937495068148
20
-2.7368746202614345
10
-115.10937495068148
20
-2.7368746202614247
42
-0.41421356237315748
10
-115.60937495068153
20
-2.2368746202614886
10
-115.60937495068146
20
3.263125379738554
42
0.41421356237309503
10
-116.10937495068143
20
3.7631253797385256
10
-116.60937495068147
20
3.76312537973849
42
0.41421356237315748
10
-117.10937495068151
20
3.263125379738554
10
-117.10937495068157
20
-2.2368746202614886
42
0.41421356237311063
10
-115.10937495068148
20
-4.236874620261446
10
-112.60937495068148
20
-4.2368746202614993
42
0.41421356237303258
10
-112.10937495068158
20
-3.7368746202614744
0
SPLINE
5
152
100
AcDbEntity
8
0
100
AcDbSpline
70
0
71
3
72
10
73
6
74
0
42
0.000000001
43
0.0000000001
44
0.0000000001
40
-1.0615651414192397
40
-1.0615651414192397
40
-1.0615651414192397
40
-1.0615651414192397
40
-0.53083760720813433
40
-0.53083760720813433
40
-0
40
-0
40
-0
40
-0
10
41.653351705530071
20
-39.563485492461012
30
5.5511151231257827e-16
10
43.32814627250081
20
-40.134820933144297
30
5.5511151231257827e-16
10
44.973211878945122
20
-40.810881316534413
30
5.5511151231257827e-16
10
48.175720366998519
20
-42.315476512111772
30
5.5511151231257827e-16
10
49.746804072365023
20
-43.15045275138673
30
5.5511151231257827e-16
10
51.273651983942869
20
-44.044723131630938
30
5.5511151231257827e-16
0
SPLINE
5
153
100
AcDbEntity
8
0
100
AcDbSpline
70
0
71
3
72
22
73
18
74
0
42
0.000000001
43
0.0000000001
44
0.0000000001
40
-0.070532653218775276
40
-0.070532653218775276
40
-0.070532653218775276
40
-0.070532653218775276
40
-0.06456281898140695
40
-0.06456281898140695
40
-0.058586472094215684
40
-0.058586472094215684
40
-0.048815666919840794
40
-0.048815666919840794
40
-0.039045612535371345
40
-0.039045612535371345
40
-0.02927630900722155
40
-0.02927630900722155
40
-0.019507756402454595
40
-0.019507756402454595
40
-0.0097540944920514478
40
-0.0097540944920514478
40
-0
40
-0
40
-0
40
-0
10
41.734068628512091
20
-39.076874465233793
30
0
10
41.714175339708575
20
-39.076874465302197
30
0
10
41.694353203736696
20
-39.079249144468612
30
-2.2204460492503131e-15
10
41.655673826086137
20
-39.088650229727918
30
-2.2204460492503131e-15
10
41.636955237450657
20
-39.095648269416998
30
-2.2204460492503131e-15
10
41.590344528364653
20
-39.119743456449726
30
-2.2204460492503131e-15
10
41.564619588643893
20
-39.140200483953095
30
-2.2204460492503131e-15
10
41.522460922079027
20
-39.189826834282513
30
-2.2204460492503131e-15
10
41.506429940761763
20
-39.218519570737406
30
-2.2204460492503131e-15
10
41.486271444475761
20
-39.280437055229122
30
-2.2204460492503131e-15
10
41.482335556947739
20
-39.313067980698285
30
-2.2204460492503131e-15
10
41.487196635814058
20
-39.378002732104676
30
-2.2204460492503131e-15
10
41.495945405010907
20
-39.409684439709977
30
-2.2204460492503131e-15
10
41.525076977169846
20
-39.467868460669408
30
-2.2204460492503131e-15
10
41.545163092132825
20
-39.493822793152667
30
-2.2204460492503131e-15
10
41.594148422381366
20
-39.536587286075374
30
-2.2204460492503131e-15
10
41.622579354631675
20
-39.552987885764551
30
0
10
41.653351705530852
20
-39.563485492461261
30
0
0
LINE
5
154
100
AcDbEntity
8
0
100
AcDbLine
10
41.734068628512091
20
-39.076874465233793
30
0
11
51.399999999138402
21
-39.076874431990234
31
0
0
ARC
5
155
100
AcDbEntity
8
0
100
AcDbCircle
10
51.399999999998229
20
-39.32687443199022
30
0
40
0.25000000000000355
210
0
220
0
230
1
100
AcDbArc
50
0
51
90.000000197058014
0
LINE
5
156
100
AcDbEntity
8
0
100
AcDbLine
10
51.649999999998229
20
-39.32687443199022
30
0
11
51.649999999998215
21
-43.829000673739102
31
6.106226635438361e-15
0
SPLINE
5
157
100
AcDbEntity
8
0
100
AcDbSpline
70
0
71
3
72
18
73
14
74
0
42
0.000000001
43
0.0000000001
44
0.0000000001
40
-0.052662156760240518
40
-0.052662156760240518
40
-0.052662156760240518
40
-0.052662156760240518
40
-0.045872007857224222
40
-0.045872007857224222
40
-0.039074753031666444
40
-0.039074753031666444
40
-0.02929377873313866
40
-0.02929377873313866
40
-0.019513298902645457
40
-0.019513298902645457
40
-0.0097514009014563283
40
-0.0097514009014563283
40
-0
40
-0
40
-0
40
-0
10
51.273651983942869
20
-44.044723131630903
30
0
10
51.293181859658546
20
-44.056161723025589
30
0
10
51.31417514881705
20
-44.064895129890196
30
0
10
51.357954786202782
20
-44.076478866726063
30
0
10
51.380541561052382
20
-44.079269715971463
30
0
10
51.435791283521901
20
-44.078563524194401
30
0
10
51.467992951738459
20
-44.071775867312084
30
0
10
51.527976980883288
20
-44.046220696333506
30
0
10
51.555180810669789
20
-44.027700858564302
30
0
10
51.600904302165915
20
-43.981303635762117
30
0
10
51.619001417621718
20
-43.95388951074257
30
0
10
51.643660769242985
20
-43.893700019096769
30
0
10
51.649999999998215
20
-43.861505343410627
30
0
10
51.649999999998215
20
-43.829000673739102
30
0
0
SPLINE
5
158
100
AcDbEntity
8
0
100
AcDbSpline
70
0
71
3
72
10
73
6
74
0
42
0.000000001
43
0.0000000001
44
0.0000000001
40
-1.0615651413461351
40
-1.0615651413461351
40
-1.0615651413461351
40
-1.0615651413461351
40
-0.53083760717411999
40
-0.53083760717411999
40
-0
40
-0
40
-0
40
-0
10
18.996648294467136
20
-37.090263369799885
30
1.1102230246251565e-15
10
17.321853727484619
20
-36.518927929112245
30
1.1102230246251565e-15
10
15.676788121038355
20
-35.842867545720416
30
5.5511151231257827e-16
10
12.474279632976636
20
-34.338272350138311
30
5.5511151231257827e-16
10
10.90319592753438
20
-33.503296110816805
30
1.1102230246251565e-15
10
9.3763480160543367
20
-32.609025730629959
30
1.1102230246251565e-15
0
SPLINE
5
159
100
AcDbEntity
8
0
100
AcDbSpline
70
0
71
3
72
22
73
18
74
0
42
0.000000001
43
0.0000000001
44
0.0000000001
40
-0.070532653219300592
40
-0.070532653219300592
40
-0.070532653219300592
40
-0.070532653219300592
40
-0.064562818981984779
40
-0.064562818981984779
40
-0.058586472094784778
40
-0.058586472094784778
40
-0.048815666920271686
40
-0.048815666920271686
40
-0.039045612535766744
40
-0.039045612535766744
40
-0.029276309007547976
40
-0.029276309007547976
40
-0.019507756402667463
40
-0.019507756402667463
40
-0.0097540944921996661
40
-0.0097540944921996661
40
-0
40
-0
40
-0
40
-0
10
18.915931371485115
20
-37.576874397027069
30
0
10
18.935824660288546
20
-37.576874396958658
30
0
10
18.955646796260371
20
-37.574499717792264
30
8.8817841970012523e-15
10
18.994326173910899
20
-37.565098632533044
30
8.8817841970012523e-15
10
19.013044762546155
20
-37.558100592844042
30
8.8817841970012523e-15
10
19.059655471632169
20
-37.534005405811456
30
8.8817841970012523e-15
10
19.085380411353022
20
-37.513548378308094
30
8.8817841970012523e-15
10
19.127539077917902
20
-37.463922027978789
30
8.8817841970012523e-15
10
19.143570059235145
20
-37.435229291524095
30
9.9920072216264089e-15
10
19.163728555521232
20
-37.373311807032941
30
9.9920072216264089e-15
10
19.167664443049389
20
-37.340680881563848
30
8.8817841970012523e-15
10
19.162803364183457
20
-37.275746130157657
30
8.8817841970012523e-15
10
19.1540545949868
20
-37.244064422552299
30
8.8817841970012523e-15
10
19.124923022828206
20
-37.185880401592762
30
8.8817841970012523e-15
10
19.104836907865536
20
-37.159926069109432
30
8.8817841970012523e-15
10
19.055851577616657
20
-37.117161576185978
30
8.8817841970012523e-15
10
19.027420645365972
20
-37.100760976496524
30
5.5511151231257827e-16
10
18.996648294466347
20
-37.090263369799601
30
5.5511151231257827e-16
0
LINE
5
160
100
AcDbEntity
8
0
100
AcDbLine
10
18.915931371485115
20
-37.576874397027069
30
0
11
9.2500000008588401
21
-37.576874430270664
31
0
0
ARC
5
161
100
AcDbEntity
8
0
100
AcDbCircle
10
9.2499999999990123
20
-37.326874430270678
30
0
40
0.25000000000000022
210
0
220
0
230
1
100
AcDbArc
50
180
51
270.000000197058
0
LINE
5
162
100
AcDbEntity
8
0
100
AcDbLine
10
8.9999999999990123
20
-37.326874430270678
30
0
11
8.999999999998991
21
-32.82474818852176
31
1.1102230246251565e-15
0
SPLINE
5
163
100
AcDbEntity
8
0
100
AcDbSpline
70
0
71
3
72
18
73
14
74
0
42
0.000000001
43
0.0000000001
44
0.0000000001
40
-0.052662156760140619
40
-0.052662156760140619
40
-0.052662156760140619
40
-0.052662156760140619
40
-0.045872007856963742
40
-0.045872007856963742
40
-0.039074753031259041
40
-0.039074753031259041
40
-0.029293778732734907
40
-0.029293778732734907
40
-0.019513298902406141
40
-0.019513298902406141
40
-0.0097514009013116507
40
-0.0097514009013116507
40
-0
40
-0
40
-0
40
-0
10
9.3763480160543367
20
-32.609025730629959
30
0
10
9.356818140338417
20
-32.597587139235131
30
0
10
9.3358248511796429
20
-32.588853732370481
30
-3.3306690738754696e-15
10
9.292045213793438
20
-32.577269995534635
30
-3.3306690738754696e-15
10
9.2694584389437722
20
-32.574479146289256
30
-3.3306690738754696e-15
10
9.2142087164735749
20
-32.575185338066703
30
-3.3306690738754696e-15
10
9.182007048257109
20
-32.58197299494914
30
-3.3306690738754696e-15
10
9.122023019112234
20
-32.607528165928379
30
-3.3306690738754696e-15
10
9.0948191893259427
20
-32.626048003697804
30
-3.3306690738754696e-15
10
9.0490956978304169
20
-32.672445226499903
30
-3.3306690738754696e-15
10
9.0309985823748402
20
-32.699859351519443
30
-3.3306690738754696e-15
10
9.006339230754083
20
-32.76004884316481
30
-3.3306690738754696e-15
10
8.9999999999989928
20
-32.792243518850718
30
0
10
8.9999999999989946
20
-32.82474818852176
30
0
0
LWPOLYLINE
5
164
100
AcDbEntity
8
0
100
AcDbPolyline
90
8
70
1
43
0.0
10
-6.4999999509781503
20
-31.336874619964838
10
6.5000000490218213
20
-31.336874619964892
42
-0.41421356237307422
10
7.0000000490218799
20
-31.836874619964846
10
7.0000000490218195
20
-44.836874619964817
42
-0.41421356237307422
10
6.5000000490218568
20
-45.336874619964959
10
-6.4999999509781148
20
-45.336874619964824
42
-0.41421356237303258
10
-6.9999999509781219
20
-44.836874619964782
10
-6.9999999509781219
20
-31.836874619964846
42
-0.41421356237299095
0
LWPOLYLINE
5
165
100
AcDbEntity
8
0
100
AcDbPolyline
90
8
70
1
43
0.0
10
135.58750004902186
20
-31.836874619964703
10
135.58750004902186
20
-44.836874619964604
42
-0.41421356237309503
10
135.08750004902191
20
-45.336874619965002
10
122.08750004902186
20
-45.336874619964661
42
-0.41421356237319906
10
121.58750004902183
20
-44.836874619964746
10
121.58750004902188
20
-31.836874619964775
42
-0.41421356237297013
10
122.08750004902186
20
-31.336874619965016
10
135.08750004902191
20
-31.336874619964803
42
-0.41421356237313667
0
LWPOLYLINE
5
166
100
AcDbEntity
8
0
100
AcDbPolyline
90
8
70
1
43
0.0
10
98.275000049021983
20
-31.336874619965034
42
0.41421356237313667
10
97.775000049021955
20
-31.836874619964703
10
97.775000049021969
20
-44.836874619964817
42
0.41421356237297013
10
98.275000049021912
20
-45.336874619964789
10
111.27500004902188
20
-45.336874619965059
42
0.4142135623730534
10
111.77500004902193
20
-44.836874619964817
10
111.77500004902193
20
-31.836874619964952
42
0.41421356237315748
10
111.27500004902188
20
-31.336874619964803
0
LWPOLYLINE
5
167
100
AcDbEntity
8
0
100
AcDbPolyline
90
8
70
1
43
0.0
10
73.962500049021926
20
-44.836874619964675
10
73.962500049021941
20
-31.836874619964703
42
-0.41421356237292856
10
74.462500049021827
20
-31.33687461996481
10
87.462500049021941
20
-31.336874619964963
42
-0.4142135623731783
10
87.962500049021898
20
-31.836874619964917
10
87.962500049021926
20
-44.836874619964959
42
-0.41421356237330315
10
87.462500049021941
20
-45.336874619964874
10
74.462500049021898
20
-45.336874619964824
42
-0.41421356237311585
0
LWPOLYLINE
5
168
100
AcDbEntity
8
0
100
AcDbPolyline
90
8
70
1
43
0.0
10
60.150000049021841
20
-46.336874619965513
10
54.150000049021969
20
-46.336874619965478
42
-0.41421356237309503
10
53.650000049021926
20
-45.836874619965435
10
53.650000049021934
20
-30.836874619964831
42
-0.41421356237309503
10
54.150000049021969
20
-30.336874619964796
10
60.150000049021912
20
-30.336874619964842
42
-0.41421356237313667
10
60.650000049021941
20
-30.836874619964796
10
60.650000049021813
20
-45.836874619965542
42
-0.41421356237309503
0
LWPOLYLINE
5
169
100
AcDbEntity
8
0
100
AcDbPolyline
90
8
70
1
43
0.0
10
120.80000004902182
20
30.863125380033054
10
107.80000004902192
20
30.86312538003547
42
-0.41421356237313667
10
107.30000004902188
20
31.363125380035157
10
107.30000004902188
20
44.363125380034489
42
-0.41421356237309503
10
107.80000004902199
20
44.863125380037587
10
120.80000004902189
20
44.863125380037076
42
-0.41421356237309503
10
121.30000004902188
20
44.363125380037083
10
121.30000004902193
20
31.363125380033097
42
-0.41421356237313667
0
LWPOLYLINE
5
170
100
AcDbEntity
8
0
100
AcDbPolyline
90
8
70
1
43
0.0
10
114.15625004902196
20
-12.786874619964834
10
114.15625004902176
20
-25.786874619967932
42
-0.4142135623731783
10
113.65625004902164
20
-26.286874619967922
10
100.65625004902188
20
-26.286874619964635
42
-0.4142135623731783
10
100.15625004902191
20
-25.786874619964806
10
100.15625004902189
20
-12.786874619964905
42
-0.41421356237307422
10
100.65625004902188
20
-12.286874619964951
10
113.65625004902192
20
-12.286874619964863
42
-0.41421356237313667
0
LWPOLYLINE
5
171
100
AcDbEntity
8
0
100
AcDbPolyline
90
8
70
1
43
0.0
10
126.35000004902193
20
-25.786874619964451
42
0.41421356237309503
10
126.85000004902193
20
-26.286874619964742
10
139.85000004902196
20
-26.286874619964994
42
0.4142135623730534
10
140.35000004902187
20
-25.786874619964948
10
140.35000004902199
20
-12.786874619964763
42
0.4142135623730534
10
139.8500000490219
20
-12.286874619964721
10
126.85000004902193
20
-12.286874619964802
42
0.41421356237309503
10
126.35000004902189
20
-12.786874619964834
0
LWPOLYLINE
5
172
100
AcDbEntity
8
0
100
AcDbPolyline
90
8
70
1
43
0.0
10
-98.27499995097817
20
-45.33687461996486
10
-111.27499995097814
20
-45.336874619964803
42
-0.41421356237307422
10
-111.77499995097813
20
-44.836874619964782
10
-111.77499995097813
20
-31.83687461996481
42
-0.41421356237313667
10
-111.27499995097814
20
-31.336874619964821
10
-98.27499995097817
20
-31.336874619964838
42
-0.41421356237311585
10
-97.774999950978128
20
-31.836874619964846
10
-97.774999950978199
20
-44.836874619964817
42
-0.41421356237313667
0
LWPOLYLINE
5
173
100
AcDbEntity
8
0
100
AcDbPolyline
90
8
70
1
43
0.0
10
-87.962499950978099
20
-44.836874619964782
10
-87.962499950978156
20
-31.836874619964846
42
-0.41421356237301177
10
-87.462499950978128
20
-31.336874619964821
10
-74.462499950978085
20
-31.336874619964821
42
-0.41421356237311585
10
-73.962499950978099
20
-31.836874619964846
10
-73.962499950978099
20
-44.836874619964817
42
-0.41421356237309503
10
-74.462499950978085
20
-45.336874619964796
10
-87.462499950978128
20
-45.336874619964789
42
-0.41421356237311585
0
LWPOLYLINE
5
174
100
AcDbEntity
8
0
100
AcDbPolyline
90
8
70
1
43
0.0
10
-122.08749995097811
20
-45.33687461996486
10
-135.08749995097818
20
-45.336874619964775
42
-0.41421356237303258
10
-135.58749995097813
20
-44.836874619964782
10
-135.58749995097816
20
-31.836874619964846
42
-0.41421356237310542
10
-135.08749995097813
20
-31.336874619964842
10
-122.08749995097811
20
-31.336874619964856
42
-0.41421356237309503
10
-121.58749995097813
20
-31.836874619964846
10
-121.58749995097814
20
-44.836874619964782
42
-0.41421356237315748
0
LWPOLYLINE
5
175
100
AcDbEntity
8
0
100
AcDbPolyline
90
8
70
1
43
0.0
10
1.7375000496151571
20
-7.2368746205580692
10
-11.262499950384885
20
-7.2368746205579821
42
-0.4142135623730534
10
-11.762499950384877
20
-6.7368746205580621
10
-11.762499950384889
20
6.2631253794418384
42
-0.41421356237311585
10
-11.262499950384885
20
6.7631253794418775
10
1.7375000496151927
20
6.7631253794418633
42
-0.41421356237307422
10
2.237500049615218
20
6.263125379441874
10
2.2375000496151642
20
-6.7368746205580621
42
-0.4142135623730534
0
LWPOLYLINE
5
176
100
AcDbEntity
8
0
100
AcDbPolyline
90
8
70
1
43
0.0
10
121.58750004902188
20
12.31312538003511
10
121.58750004902191
20
25.313125380035402
42
-0.41421356237299095
10
122.08750004902186
20
25.813125380035729
10
135.08750004902191
20
25.813125380035267
42
-0.4142135623730534
10
135.58750004902191
20
25.313125380035046
10
135.58750004902186
20
12.313125380035146
42
-0.41421356237303258
10
135.08750004902191
20
11.813125380034872
10
122.08750004902186
20
11.813125380035316
42
-0.41421356237315748
0
LWPOLYLINE
5
177
100
AcDbEntity
8
0
100
AcDbPolyline
90
8
70
1
43
0.0
10
50.650000049021884
20
44.863125380035797
42
0.41421356237292856
10
50.150000049021926
20
44.363125380034134
10
50.150000049021912
20
31.363125380035193
42
0.41421356237326151
10
50.650000049021884
20
30.863125380035363
10
63.650000049021926
20
30.863125380035346
42
0.41421356237301177
10
64.150000049021898
20
31.363125380035299
10
64.150000049021898
20
44.363125380035306
42
0.41421356237311585
10
63.650000049021926
20
44.863125380034035
0
LWPOLYLINE
5
178
100
AcDbEntity
8
0
100
AcDbPolyline
90
8
70
1
43
0.0
10
21.287500049615176
20
6.263125379441874
42
0.41421356237315748
10
20.787500049615204
20
6.76312537944181
10
7.7875000496152325
20
6.7631253794419344
42
0.41421356237311585
10
7.2875000496151898
20
6.2631253794418384
10
7.2875000496151712
20
-6.7368746205580976
42
0.41421356237307422
10
7.7875000496151614
20
-7.2368746205580692
10
20.787500049615169
20
-7.236874620558118
42
0.41421356237301177
10
21.287500049615105
20
-6.7368746205580976
0
LWPOLYLINE
5
179
100
AcDbEntity
8
0
100
AcDbPolyline
90
8
70
1
43
0.0
10
-26.049999950978162
20
31.363125380035299
42
0.41421356237309503
10
-25.549999950978162
20
30.863125380035157
10
-12.54999995097819
20
30.863125380035157
42
0.41421356237307422
10
-12.049999950978147
20
31.363125380035228
10
-12.049999950978165
20
44.363125380035164
42
0.41421356237311585
10
-12.54999995097819
20
44.863125380035491
10
-25.549999950978162
20
44.86312538003537
42
0.41421356237309503
10
-26.049999950978169
20
44.36312538003552
0
LWPOLYLINE
5
180
100
AcDbEntity
8
0
100
AcDbPolyline
90
8
70
1
43
0.0
10
6.5000000490217857
20
30.863125380035115
10
-6.4999999509781858
20
30.863125380034973
42
-0.41421356237307422
10
-6.9999999509781574
20
31.363125380035122
10
-6.9999999509781397
20
44.36312538003591
42
-0.41421356237307422
10
-6.4999999509781148
20
44.863125380035612
10
6.5000000490218213
20
44.863125380035179
42
-0.41421356237309503
10
7.0000000490218017
20
44.363125380034347
10
7.0000000490217928
20
31.363125380035086
42
-0.41421356237311585
0
LWPOLYLINE
5
181
100
AcDbEntity
8
0
100
AcDbPolyline
90
8
70
1
43
0.0
10
-35.57499995038485
20
12.313125379441985
42
0.41421356237309503
10
-35.074999950384864
20
11.813125379441999
10
-22.074999950384893
20
11.813125379441907
42
0.41421356237311585
10
-21.57499995038485
20
12.313125379441985
10
-21.57499995038485
20
25.313125379441992
42
0.41421356237309503
10
-22.074999950384857
20
25.813125379441821
10
-35.074999950384864
20
25.813125379441985
42
0.41421356237311585
10
-35.574999950384907
20
25.313125379441921
0
LWPOLYLINE
5
182
100
AcDbEntity
8
0
100
AcDbPolyline
90
8
70
1
43
0.0
10
-35.862499950384894
20
6.263125379441945
10
-35.862499950384837
20
-6.7368746205580976
42
-0.41421356237309503
10
-36.362499950384866
20
-7.2368746205580559
10
-49.362499950384873
20
-7.2368746205580425
42
-0.41421356237313667
10
-49.862499950384887
20
-6.7368746205580976
10
-49.86249995038493
20
6.263125379441945
42
-0.4142135623730534
10
-49.362499950384908
20
6.7631253794418988
10
-36.362499950384866
20
6.7631253794418811
42
-0.41421356237311585
0
LWPOLYLINE
5
183
100
AcDbEntity
8
0
100
AcDbPolyline
90
8
70
1
43
0.0
10
30.812500049615252
20
-12.786874620558244
10
30.81250004961522
20
-25.786874620558002
42
-0.41421356237297013
10
30.31250004961521
20
-26.286874620558084
10
17.312500049615238
20
-26.286874620558081
42
-0.41421356237315748
10
16.812500049615231
20
-25.786874620558038
10
16.812500049615199
20
-12.786874620558173
42
-0.41421356237309503
10
17.312500049615203
20
-12.286874620558239
10
30.31250004961521
20
-12.286874620558201
42
-0.41421356237313667
0
LWPOLYLINE
5
184
100
AcDbEntity
8
0
100
AcDbPolyline
90
8
70
1
43
0.0
10
-2.5249999503849518
20
25.31312537944185
42
0.41421356237307422
10
-3.0249999503848812
20
25.813125379442027
10
-16.024999950384853
20
25.813125379441843
42
0.4142135623730534
10
-16.52499995038486
20
25.31312537944185
10
-16.524999950384839
20
12.313125379441914
42
0.41421356237303258
10
-16.024999950384888
20
11.813125379441942
10
-3.0249999503849168
20
11.813125379441871
42
0.41421356237313667
10
-2.5249999503849807
20
12.313125379441807
0
LWPOLYLINE
5
185
100
AcDbEntity
8
0
100
AcDbPolyline
90
8
70
1
43
0.0
10
-7.787499950384813
20
-26.286874620558081
10
-20.787499950384856
20
-26.286874620558116
42
-0.41421356237309503
10
-21.287499950384863
20
-25.786874620558109
10
-21.287499950384859
20
-12.786874620558137
42
-0.41421356237309503
10
-20.787499950384856
20
-12.286874620558134
10
-7.7874999503848485
20
-12.286874620558111
42
-0.41421356237303258
10
-7.2874999503848574
20
-12.786874620558066
10
-7.2874999503848414
20
-25.78687462055818
42
-0.4142135623730534
0
LWPOLYLINE
5
186
100
AcDbEntity
8
0
100
AcDbPolyline
90
8
70
1
43
0.0
10
-41.124999950384833
20
11.81312537944188
42
0.41421356237309503
10
-40.624999950384833
20
12.313125379441878
10
-40.624999950384847
20
25.313125379441885
42
0.41421356237309503
10
-41.124999950384833
20
25.813125379441928
10
-54.124999950384911
20
25.81312537944191
42
0.41421356237309503
10
-54.624999950384918
20
25.313125379441992
10
-54.624999950384918
20
12.313125379441914
42
0.41421356237309503
10
-54.124999950384911
20
11.813125379441978
0
LWPOLYLINE
5
187
100
AcDbEntity
8
0
100
AcDbPolyline
90
8
70
1
43
0.0
10
11.262500049615198
20
-26.286874620558095
42
0.41421356237309503
10
11.762500049615184
20
-25.786874620558109
10
11.76250004961517
20
-12.786874620558173
42
0.4142135623730534
10
11.262500049615163
20
-12.286874620558166
10
-1.7374999503848088
20
-12.286874620558155
42
0.41421356237309503
10
-2.2374999503848869
20
-12.786874620558066
10
-2.2374999503848221
20
-25.786874620558038
42
0.4142135623730534
10
-1.7374999503847732
20
-26.286874620558081
0
LWPOLYLINE
5
188
100
AcDbEntity
8
0
100
AcDbPolyline
90
8
70
1
43
0.0
10
-17.312499950384819
20
-7.2368746205581402
10
-30.312499950384861
20
-7.2368746205580958
42
-0.41421356237313667
10
-30.812499950384861
20
-6.7368746205580976
10
-30.812499950384868
20
6.263125379441874
42
-0.41421356237307422
10
-30.312499950384861
20
6.7631253794419166
10
-17.312499950384854
20
6.7631253794418855
42
-0.4142135623730534
10
-16.812499950384844
20
6.263125379441945
10
-16.812499950384812
20
-6.7368746205580976
42
-0.41421356237311585
0
LWPOLYLINE
5
189
100
AcDbEntity
8
0
100
AcDbPolyline
90
8
70
1
43
0.0
10
-68.912499950384898
20
-6.7368746205580976
42
0.41421356237309503
10
-68.412499950384955
20
-7.2368746205581047
10
-55.412499950384841
20
-7.2368746205580115
42
0.41421356237309503
10
-54.912499950384799
20
-6.7368746205580621
10
-54.912499950384898
20
6.263125379441945
42
0.41421356237307422
10
-55.412499950384877
20
6.7631253794419521
10
-68.412499950384884
20
6.7631253794419255
42
0.41421356237301177
10
-68.912499950384927
20
6.2631253794418384
0
LWPOLYLINE
5
190
100
AcDbEntity
8
0
100
AcDbPolyline
90
8
70
1
43
0.0
10
54.625000049615267
20
25.31312537944185
10
54.625000049615302
20
12.313125379441985
42
-0.41421356237301177
10
54.125000049615224
20
11.813125379441765
10
41.125000049615181
20
11.813125379441871
42
-0.41421356237311585
10
40.625000049615174
20
12.313125379441914
10
40.625000049615238
20
25.313125379442027
42
-0.41421356237309503
10
41.125000049615181
20
25.813125379441828
10
54.125000049615153
20
25.813125379441502
42
-0.41421356237307422
0
LWPOLYLINE
5
191
100
AcDbEntity
8
0
100
AcDbPolyline
90
8
70
1
43
0.0
10
-73.962499950384853
20
6.263125379441874
42
0.41421356237309503
10
-74.462499950384824
20
6.7631253794419166
10
-87.462499950384824
20
6.7631253794418669
42
0.41421356237307422
10
-87.962499950384796
20
6.2631253794419095
10
-87.962499950384739
20
-6.7368746205580976
42
0.4142135623730534
10
-87.462499950384824
20
-7.2368746205581047
10
-74.462499950384782
20
-7.2368746205581003
42
0.41421356237311585
10
-73.96249995038481
20
-6.7368746205580976
0
LWPOLYLINE
5
192
100
AcDbEntity
8
0
100
AcDbPolyline
90
8
70
1
43
0.0
10
54.912500049615218
20
-25.78687462055818
42
0.4142135623730534
10
55.412500049615119
20
-26.286874620558009
10
68.412500049615232
20
-26.286874620558109
42
0.4142135623730534
10
68.912500049615204
20
-25.786874620558038
10
68.912500049615261
20
-12.786874620558102
42
0.4142135623731783
10
68.41250004961509
20
-12.286874620558379
10
55.41250004961519
20
-12.286874620558086
42
0.41421356237303258
10
54.912500049615289
20
-12.786874620558208
0
LWPOLYLINE
5
193
100
AcDbEntity
8
0
100
AcDbPolyline
90
8
70
1
43
0.0
10
-50.14999995097817
20
44.363125380034916
10
-50.149999950978177
20
31.363125380035228
42
-0.41421356237309503
10
-50.649999950978177
20
30.863125380035157
10
-63.649999950978113
20
30.863125380035168
42
-0.41421356237309503
10
-64.149999950978071
20
31.363125380035193
10
-64.149999950978071
20
44.363125380035022
42
-0.4142135623730534
10
-63.649999950978113
20
44.863125380035342
10
-50.649999950978177
20
44.863125380034887
42
-0.41421356237303258
0
LWPOLYLINE
5
194
100
AcDbEntity
8
0
100
AcDbPolyline
90
8
70
1
43
0.0
10
-107.7999999509781
20
30.863125380035186
10
-120.79999995097815
20
30.863125380035203
42
-0.41421356237309503
10
-121.2999999509781
20
31.363125380035157
10
-121.29999995097816
20
44.363125380035164
42
-0.41421356237311585
10
-120.79999995097815
20
44.8631253800352
10
-107.79999995097813
20
44.863125380035186
42
-0.4142135623730534
10
-107.29999995097815
20
44.3631253800352
10
-107.29999995097813
20
31.363125380035157
42
-0.41421356237301177
0
LWPOLYLINE
5
195
100
AcDbEntity
8
0
100
AcDbPolyline
90
8
70
1
43
0.0
10
31.600000049021908
20
44.863125380033679
10
44.600000049021844
20
44.863125380035626
42
-0.41421356237311585
10
45.100000049021808
20
44.363125380034631
10
45.10000004902183
20
31.36312538003498
42
-0.41421356237311585
10
44.600000049021844
20
30.863125380034955
10
31.600000049021872
20
30.863125380035097
42
-0.41421356237311585
10
31.100000049021883
20
31.363125380035122
10
31.100000049021901
20
44.363125380035697
42
-0.41421356237311585
0
LWPOLYLINE
5
196
100
AcDbEntity
8
0
100
AcDbPolyline
90
8
70
1
43
0.0
10
60.175000049615193
20
25.813125379441757
42
0.4142135623731783
10
59.675000049615107
20
25.313125379442241
10
59.675000049615036
20
12.313125379441878
42
0.41421356237315748
10
60.175000049615193
20
11.813125379441622
10
73.175000049615235
20
11.813125379441827
42
0.41421356237301177
10
73.675000049615207
20
12.313125379441914
10
73.675000049615164
20
25.313125379441814
42
0.4142135623730534
10
73.175000049615235
20
25.813125379441857
0
LWPOLYLINE
5
197
100
AcDbEntity
8
0
100
AcDbPolyline
90
8
70
1
43
0.0
10
79.225000049615062
20
25.813125379441857
10
92.225000049615105
20
25.813125379442017
42
-0.41421356237309503
10
92.72500004961509
20
25.313125379441885
10
92.725000049615403
20
12.313125379441985
42
-0.4142135623731783
10
92.225000049615389
20
11.813125379441981
10
79.225000049615062
20
11.813125379441933
42
-0.41421356237313667
10
78.725000049615076
20
12.313125379441843
10
78.72500004961509
20
25.313125379441814
42
-0.41421356237297013
0
LWPOLYLINE
5
198
100
AcDbEntity
8
0
100
AcDbPolyline
90
8
70
1
43
0.0
10
102.25000004902185
20
44.363125380034987
10
102.25000004902191
20
31.363125380034873
42
-0.41421356237286611
10
101.75000004902188
20
30.863125380035381
10
88.750000049021907
20
30.863125380035505
42
-0.41421356237313667
10
88.250000049021821
20
31.363125380035086
10
88.250000049021708
20
44.363125380036266
42
-0.41421356237297013
10
88.750000049021835
20
44.863125380034759
10
101.75000004902188
20
44.863125380035065
42
-0.41421356237315748
0
LWPOLYLINE
5
199
100
AcDbEntity
8
0
100
AcDbPolyline
90
8
70
1
43
0.0
10
64.437500049615224
20
-6.7368746205580621
10
64.43750004961521
20
6.263125379441945
42
-0.41421356237292856
10
64.937500049615196
20
6.7631253794419335
10
77.937500049615238
20
6.7631253794419255
42
-0.41421356237307422
10
78.43750004961511
20
6.263125379441945
10
78.437500049615366
20
-6.7368746205580976
42
-0.41421356237313667
10
77.937500049615238
20
-7.2368746205580052
10
64.937500049615196
20
-7.2368746205581402
42
-0.41421356237307422
0
LWPOLYLINE
5
200
100
AcDbEntity
8
0
100
AcDbPolyline
90
8
70
1
43
0.0
10
69.700000049021895
20
44.863125380034063
42
0.4142135623730534
10
69.200000049021824
20
44.363125380035058
10
69.200000049021853
20
31.363125380034944
42
0.41421356237299095
10
69.700000049021895
20
30.863125380034795
10
82.700000049021867
20
30.863125380035168
42
0.41421356237292856
10
83.200000049021838
20
31.363125380034802
10
83.200000049021838
20
44.363125380033992
42
0.4142135623731783
10
82.700000049021867
20
44.86312538003471
0
LWPOLYLINE
5
201
100
AcDbEntity
8
0
100
AcDbPolyline
90
8
70
1
43
0.0
10
111.27500004961519
20
11.8131253794418
42
0.41421356237292856
10
111.7750000496153
20
12.313125379442198
10
111.77500004961523
20
25.31312537944153
42
0.41421356237326151
10
111.27500004961519
20
25.813125379442141
10
98.275000049615286
20
25.813125379441733
42
0.4142135623730534
10
97.775000049615244
20
25.313125379441885
10
97.775000049615258
20
12.313125379441914
42
0.41421356237311585
10
98.275000049615215
20
11.813125379441942
0
LWPOLYLINE
5
202
100
AcDbEntity
8
0
100
AcDbPolyline
90
8
70
1
43
0.0
10
-88.749999950978093
20
30.863125380035115
10
-101.74999995097821
20
30.86312538003515
42
-0.41421356237307422
10
-102.24999995097818
20
31.363125380035157
10
-102.24999995097812
20
44.363125380035129
42
-0.41421356237315748
10
-101.74999995097818
20
44.863125380035257
10
-88.749999950978122
20
44.863125380035207
42
-0.41421356237299095
10
-88.24999995097815
20
44.3631253800352
10
-88.24999995097815
20
31.363125380035086
42
-0.41421356237303258
0
LWPOLYLINE
5
203
100
AcDbEntity
8
0
100
AcDbPolyline
90
8
70
1
43
0.0
10
-97.774999950384853
20
25.313125379441885
42
0.4142135623730534
10
-98.274999950384867
20
25.813125379441825
10
-111.27499995038491
20
25.813125379441857
42
0.41421356237309503
10
-111.77499995038488
20
25.313125379441885
10
-111.77499995038482
20
12.313125379441914
42
0.41421356237315748
10
-111.27499995038484
20
11.813125379441871
10
-98.274999950384867
20
11.813125379441871
42
0.4142135623730534
10
-97.774999950384895
20
12.313125379441914
0
LWPOLYLINE
5
204
100
AcDbEntity
8
0
100
AcDbPolyline
90
8
70
1
43
0.0
10
-106.51249995038491
20
6.7631253794419166
10
-93.512499950384864
20
6.7631253794418988
42
-0.41421356237307422
10
-93.012499950384836
20
6.2631253794419095
10
-93.012499950384878
20
-6.7368746205581687
42
-0.4142135623730534
10
-93.512499950384864
20
-7.2368746205580869
10
-106.51249995038491
20
-7.2368746205581402
42
-0.41421356237313667
10
-107.01249995038488
20
-6.7368746205580976
10
-107.01249995038488
20
6.263125379441945
42
-0.41421356237309503
0
LWPOLYLINE
5
205
100
AcDbEntity
8
0
100
AcDbPolyline
90
8
70
1
43
0.0
10
45.387500049615134
20
-6.7368746205578844
42
0.41421356237309503
10
45.887500049615113
20
-7.2368746205581491
10
58.887500049615298
20
-7.2368746205580958
42
0.41421356237297013
10
59.387500049615198
20
-6.7368746205580976
10
59.387500049615198
20
6.263125379441874
42
0.41421356237319906
10
58.887500049615227
20
6.7631253794418811
10
45.887500049615184
20
6.7631253794419166
42
0.41421356237311585
10
45.387500049615142
20
6.2631253794419806
0
LWPOLYLINE
5
206
100
AcDbEntity
8
0
100
AcDbPolyline
90
8
70
1
43
0.0
10
35.075000049615142
20
11.81312537944191
42
0.4142135623730534
10
35.57500004961507
20
12.313125379441914
10
35.57500004961507
20
25.313125379441814
42
0.41421356237311585
10
35.07500004961507
20
25.813125379441999
10
22.07500004961517
20
25.813125379441889
42
0.41421356237313667
10
21.575000049615198
20
25.313125379441992
10
21.575000049615191
20
12.313125379441985
42
0.41421356237311585
10
22.07500004961517
20
11.813125379441978
0
LWPOLYLINE
5
207
100
AcDbEntity
8
0
100
AcDbPolyline
90
8
70
1
43
0.0
10
73.962500049615159
20
-25.786874620557967
10
73.962500049615301
20
-12.786874620557853
42
-0.4142135623731783
10
74.462500049615201
20
-12.286874620558095
10
87.462500049615102
20
-12.286874620557846
42
-0.41421356237313667
10
87.962500049615386
20
-12.786874620557924
10
87.962500049615215
20
-25.78687462055818
42
-0.41421356237313667
10
87.462500049615244
20
-26.286874620558081
10
74.462500049615201
20
-26.286874620557938
42
-0.41421356237313667
0
LWPOLYLINE
5
208
100
AcDbEntity
8
0
100
AcDbPolyline
90
8
70
1
43
0.0
10
49.36250004961515
20
-26.286874620557967
42
0.41421356237303258
10
49.862500049615186
20
-25.786874620558038
10
49.862500049615178
20
-12.786874620558173
42
0.41421356237319906
10
49.362500049615079
20
-12.286874620558166
10
36.362500049615107
20
-12.286874620558144
42
0.4142135623730534
10
35.862500049615136
20
-12.786874620558066
10
35.862500049615058
20
-25.78687462055818
42
0.4142135623730534
10
36.362500049615107
20
-26.286874620558152
0
LWPOLYLINE
5
209
100
AcDbEntity
8
0
100
AcDbPolyline
90
8
70
1
43
0.0
10
2.5250000496151159
20
12.313125379441949
10
2.5250000496151337
20
25.31312537944185
42
-0.41421356237309503
10
3.0250000496151586
20
25.813125379441875
10
16.02500004961513
20
25.813125379441992
42
-0.41421356237311585
10
16.525000049615237
20
25.31312537944185
10
16.525000049615201
20
12.313125379441949
42
-0.41421356237311585
10
16.025000049615166
20
11.813125379442022
10
3.0250000496151586
20
11.813125379441871
42
-0.41421356237311585
0
LWPOLYLINE
5
210
100
AcDbEntity
8
0
100
AcDbPolyline
90
8
70
1
43
0.0
10
25.550000049021868
20
30.863125380035239
42
0.41421356237292856
10
26.050000049021822
20
31.363125380035264
10
26.050000049021858
20
44.363125380035981
42
0.41421356237303258
10
25.550000049021833
20
44.86312538003542
10
12.550000049021897
20
44.863125380035555
42
0.41421356237303258
10
12.050000049021818
20
44.36312538003552
10
12.050000049021772
20
31.363125380035228
42
0.41421356237311585
10
12.550000049021861
20
30.863125380035115
0
LWPOLYLINE
5
211
100
AcDbEntity
8
0
100
AcDbPolyline
90
8
70
1
43
0.0
10
40.337500049615173
20
6.263125379441945
42
0.41421356237315748
10
39.837500049615144
20
6.7631253794419353
10
26.837500049615244
20
6.7631253794417701
42
0.41421356237315748
10
26.337500049615201
20
6.2631253794419095
10
26.337500049615198
20
-6.7368746205580621
42
0.41421356237315748
10
26.837500049615244
20
-7.2368746205582113
10
39.837500049615358
20
-7.2368746205580159
42
0.41421356237299095
10
40.337500049615187
20
-6.7368746205580621
0
LWPOLYLINE
5
212
100
AcDbEntity
8
0
100
AcDbPolyline
90
8
70
1
43
0.0
10
-135.0874999509781
20
25.81312538003516
10
-122.08749995097811
20
25.81312538003516
42
-0.41421356237307422
10
-121.5874999509781
20
25.313125380035189
10
-121.58749995097813
20
12.313125380035146
42
-0.41421356237309503
10
-122.08749995097811
20
11.813125380035157
10
-135.0874999509781
20
11.813125380035157
42
-0.41421356237309503
10
-135.58749995097816
20
12.313125380035146
10
-135.5874999509781
20
25.313125380035189
42
-0.41421356237311585
0
LWPOLYLINE
5
213
100
AcDbEntity
8
0
100
AcDbPolyline
90
8
70
1
43
0.0
10
-119.20624995097818
20
6.2631253800351772
10
-119.20624995097813
20
-6.7368746199648655
42
-0.41421356237315748
10
-119.70624995097815
20
-7.2368746199648459
10
-137.46624995097812
20
-7.2368746199648193
42
-0.41421356237309503
10
-137.96624995097815
20
-6.7368746199648655
10
-137.96624995097812
20
6.2631253800351772
42
-0.4142135623730846
10
-137.46624995097815
20
6.7631253800351718
10
-119.70624995097815
20
6.7631253800351132
42
-0.41421356237307422
0
LWPOLYLINE
5
214
100
AcDbEntity
8
0
100
AcDbPolyline
90
8
70
1
43
0.0
10
-31.599999950978166
20
30.86312538003515
10
-44.599999950978173
20
30.863125380035186
42
-0.41421356237303258
10
-45.099999950978145
20
31.363125380035193
10
-45.099999950978159
20
44.363125380035129
42
-0.41421356237307422
10
-44.599999950978173
20
44.863125380035157
10
-31.599999950978166
20
44.863125380035186
42
-0.41421356237311585
10
-31.099999950978106
20
44.363125380034951
10
-31.099999950978123
20
31.363125380035193
42
-0.41421356237309503
0
LWPOLYLINE
5
215
100
AcDbEntity
8
0
100
AcDbPolyline
90
8
70
1
43
0.0
10
83.987500049615278
20
6.7631253794418456
10
96.987500049615107
20
6.763125379442041
42
-0.4142135623730534
10
97.487500049615136
20
6.2631253794420871
10
97.48750004961515
20
-6.7368746205582397
42
-0.4142135623730534
10
96.987500049615107
20
-7.2368746205582113
10
83.987500049615207
20
-7.2368746205581402
42
-0.41421356237313667
10
83.487500049615235
20
-6.7368746205582397
10
83.487500049615235
20
6.2631253794420161
42
-0.41421356237313667
0
LWPOLYLINE
5
216
100
AcDbEntity
8
0
100
AcDbPolyline
90
8
70
1
43
0.0
10
-82.699999950978082
20
44.863125380035243
10
-69.699999950978153
20
44.863125380035022
42
-0.41421356237309503
10
-69.199999950978082
20
44.363125380035306
10
-69.199999950978111
20
31.363125380035193
42
-0.41421356237311585
10
-69.699999950978196
20
30.863125380035079
10
-82.699999950978125
20
30.863125380035168
42
-0.4142135623730534
10
-83.199999950978111
20
31.363125380035086
10
-83.199999950978167
20
44.3631253800352
42
-0.41421356237307422
0
LWPOLYLINE
5
217
100
AcDbEntity
8
0
100
AcDbPolyline
90
8
70
1
43
0.0
10
-59.674999950384908
20
25.313125379441956
42
0.41421356237307422
10
-60.174999950384951
20
25.813125379441896
10
-73.174999950384887
20
25.813125379441892
42
0.41421356237309503
10
-73.674999950384887
20
25.313125379441885
10
-73.674999950384901
20
12.313125379441914
42
0.41421356237311585
10
-73.174999950384958
20
11.813125379441871
10
-60.17499995038488
20
11.813125379441942
42
0.41421356237313667
10
-59.674999950384944
20
12.313125379441878
0
LWPOLYLINE
5
218
100
AcDbEntity
8
0
100
AcDbPolyline
90
8
70
1
43
0.0
10
-139.84999995097812
20
44.863125380035186
42
0.41421356237313667
10
-140.34999995097823
20
44.363125380035164
10
-140.34999995097812
20
31.363125380035157
42
0.41421356237310542
10
-139.84999995097812
20
30.863125380035186
10
-126.84999995097813
20
30.863125380035179
42
0.4142135623730222
10
-126.34999995097813
20
31.363125380035157
10
-126.34999995097822
20
44.3631253800352
42
0.41421356237307422
10
-126.84999995097819
20
44.863125380035207
0
LWPOLYLINE
5
219
100
AcDbEntity
8
0
100
AcDbPolyline
90
8
70
1
43
0.0
10
-92.724999950384898
20
12.313125379441914
42
0.41421356237309503
10
-92.224999950384898
20
11.813125379441907
10
-79.224999950384898
20
11.813125379441873
42
0.41421356237315748
10
-78.724999950384884
20
12.313125379441914
10
-78.724999950384927
20
25.313125379441885
42
0.41421356237307422
10
-79.224999950384898
20
25.813125379441892
10
-92.224999950384969
20
25.8131253794419
42
0.4142135623730534
10
-92.72499995038487
20
25.313125379441956
0
SPLINE
5
220
100
AcDbEntity
8
0
100
AcDbSpline
70
0
71
3
72
10
73
6
74
0
42
0.000000001
43
0.0000000001
44
0.0000000001
40
-1.061849238070506
40
-1.061849238070506
40
-1.061849238070506
40
-1.061849238070506
40
-0.5308695678048837
40
-0.5308695678048837
40
-0
40
-0
40
-0
40
-0
10
9.3763480158817085
20
-44.044723131724979
30
0
10
10.903195942431996
20
-43.150452742677047
30
0
10
12.474279663825513
20
-42.315476495663845
30
0
10
15.67678818489339
20
-40.810881288367469
30
0
10
17.32185380873063
20
-40.134820900813956
30
0
10
18.996648393610727
20
-39.56348545855402
30
0
0
SPLINE
5
221
100
AcDbEntity
8
0
100
AcDbSpline
70
0
71
3
72
18
73
14
74
0
42
0.000000001
43
0.0000000001
44
0.0000000001
40
-0.052662156759646847
40
-0.052662156759646847
40
-0.052662156759646847
40
-0.052662156759646847
40
-0.045872007856438891
40
-0.045872007856438891
40
-0.039074753030713602
40
-0.039074753030713602
40
-0.029293778732416183
40
-0.029293778732416183
40
-0.01951329890232217
40
-0.01951329890232217
40
-0.0097514009012718336
40
-0.0097514009012718336
40
-0
40
-0
40
-0
40
-0
10
8.999999999998991
20
-43.829000673732104
30
0
10
8.999999999998991
20
-43.851633778216517
30
0
10
9.0030738737634373
20
-43.874162468486347
30
4.4408920985006262e-15
10
9.0152042663463412
20
-43.917793801088472
30
4.4408920985006262e-15
10
9.0242112476769218
20
-43.938694172495687
30
4.9960036108132044e-15
10
9.0527433846685597
20
-43.986011692491978
30
4.9960036108132044e-15
10
9.0748748523441698
20
-44.010367756632107
30
3.3306690738754696e-15
10
9.127241601836273
20
-44.049211984824126
30
3.3306690738754696e-15
10
9.1569707812203873
20
-44.06332611388666
30
2.7755575615628914e-15
10
9.2201147627396924
20
-44.07933166155513
30
2.7755575615628914e-15
10
9.2529162709971651
20
-44.081092597229571
30
2.7755575615628914e-15
10
9.3173158119235744
20
-44.071951609568117
30
2.7755575615628914e-15
10
9.3483000671200358
20
-44.061150733724361
30
0
10
9.376348016057289
20
-44.044723131622163
30
0
0
LINE
5
222
100
AcDbEntity
8
0
100
AcDbLine
10
8.999999999998991
20
-43.829000673732104
30
0
11
8.9999999999990266
21
-39.326874431130463
31
0
0
ARC
5
223
100
AcDbEntity
8
0
100
AcDbCircle
10
9.2499999999990123
20
-39.326874431130463
30
0
40
0.24999999999999911
210
0
220
-0
230
1
100
AcDbArc
50
90
51
180
0
LINE
5
224
100
AcDbEntity
8
0
100
AcDbLine
10
9.2499999999990123
20
-39.076874431130463
30
0
11
18.915931470344418
21
-39.076874431130477
31
2.7755575615628914e-15
0
SPLINE
5
225
100
AcDbEntity
8
0
100
AcDbSpline
70
0
71
3
72
22
73
18
74
0
42
0.000000001
43
0.0000000001
44
0.0000000001
40
-0.070532653366616474
40
-0.070532653366616474
40
-0.070532653366616474
40
-0.070532653366616474
40
-0.064562819058982715
40
-0.064562819058982715
40
-0.058586472101334441
40
-0.058586472101334441
40
-0.048815666925206572
40
-0.048815666925206572
40
-0.039045612539109362
40
-0.039045612539109362
40
-0.029276309009309422
40
-0.029276309009309422
40
-0.019507756403003729
40
-0.019507756403003729
40
-0.0097540944916772315
40
-0.0097540944916772315
40
-0
40
-0
40
-0
40
-0
10
18.996648393610727
20
-39.563485458554027
30
0
10
19.015476279842602
20
-39.557062558215023
30
0
10
19.033470116721237
20
-39.548415129727019
30
0
10
19.067042679563968
20
-39.527029206297392
30
0
10
19.082499336762943
20
-39.514362325162253
30
0
10
19.118834210459021
20
-39.476508484957009
30
0
10
19.136576514795202
20
-39.448841299789528
30
0
10
19.160454591061207
20
-39.388261061355301
30
0
10
19.166363061202766
20
-39.355929103972883
30
0
10
19.165450795745976
20
-39.290819138288839
30
0
10
19.158640421609071
20
-39.258665020168976
30
0
10
19.133074348618358
20
-39.19877739255552
30
0
10
19.114565127630669
20
-39.171617121974826
30
0
10
19.068207982018478
20
-39.125954841663379
30
0
10
19.040817781324677
20
-39.107875674228879
30
0
10
18.98064863081229
20
-39.083217252515709
30
0
10
18.948445118649971
20
-39.076874431130477
30
0
10
18.915931470344383
20
-39.076874431130477
30
0
0
SPLINE
5
226
100
AcDbEntity
8
0
100
AcDbSpline
70
0
71
3
72
10
73
6
74
0
42
0.000000001
43
0.0000000001
44
0.0000000001
40
-1.0618492380779481
40
-1.0618492380779481
40
-1.0618492380779481
40
-1.0618492380779481
40
-0.53086956780615602
40
-0.53086956780615602
40
-0
40
-0
40
-0
40
-0
10
51.273651984115467
20
-32.609025730535883
30
0
10
49.746804057655261
20
-33.503296119531115
30
0
10
48.175720336188554
20
-34.338272366588967
30
0
10
44.973211815108414
20
-35.842867573891375
30
0
10
43.32814619127064
20
-36.518927961445478
30
0
10
41.653351606386551
20
-37.090263403706842
30
0
0
SPLINE
5
227
100
AcDbEntity
8
0
100
AcDbSpline
70
0
71
3
72
18
73
14
74
0
42
0.000000001
43
0.0000000001
44
0.0000000001
40
-0.052662156760382217
40
-0.052662156760382217
40
-0.052662156760382217
40
-0.052662156760382217
40
-0.04587200785708255
40
-0.04587200785708255
40
-0.039074753031273522
40
-0.039074753031273522
40
-0.029293778732759887
40
-0.029293778732759887
40
-0.019513298902451522
40
-0.019513298902451522
40
-0.0097514009013428739
40
-0.0097514009013428739
40
-0
40
-0
40
-0
40
-0
10
51.649999999998215
20
-32.824748188528829
30
0
10
51.649999999998215
20
-32.802115084044537
30
0
10
51.64692612623378
20
-32.779586393774821
30
0
10
51.634795733651018
20
-32.735955061172973
30
0
10
51.625788752320545
20
-32.71505468976585
30
0
10
51.597256615329101
20
-32.667737169769495
30
0
10
51.575125147653516
20
-32.643381105629238
30
0
10
51.522758398161059
20
-32.604536877436828
30
0
10
51.493029218776876
20
-32.590422748374237
30
0
10
51.429885237257352
20
-32.574417200705817
30
0
10
51.39708372900013
20
-32.572656265031384
30
0
10
51.332684188074197
20
-32.581797252692688
30
0
10
51.301699932877405
20
-32.592598128536416
30
0
10
51.273651983939956
20
-32.609025730638734
30
0
0
LINE
5
228
100
AcDbEntity
8
0
100
AcDbLine
10
51.649999999998215
20
-32.824748188528829
30
0
11
51.649999999998215
21
-37.326874431130435
31
0
0
ARC
5
229
100
AcDbEntity
8
0
100
AcDbCircle
10
51.399999999998158
20
-37.326874431130435
30
0
40
0.24999999999999911
210
0
220
0
230
1
100
AcDbArc
50
-90
51
0
0
LINE
5
230
100
AcDbEntity
8
0
100
AcDbLine
10
51.399999999998158
20
-37.576874431130435
30
0
11
41.734068529652788
21
-37.576874431130385
31
4.4408920985006262e-15
0
SPLINE
5
231
100
AcDbEntity
8
0
100
AcDbSpline
70
0
71
3
72
22
73
18
74
0
42
0.000000001
43
0.0000000001
44
0.0000000001
40
-0.070532653366331757
40
-0.070532653366331757
40
-0.070532653366331757
40
-0.070532653366331757
40
-0.064562819058891649
40
-0.064562819058891649
40
-0.058586472101417542
40
-0.058586472101417542
40
-0.048815666925453936
40
-0.048815666925453936
40
-0.039045612539366448
40
-0.039045612539366448
40
-0.02927630900962902
40
-0.02927630900962902
40
-0.019507756403347627
40
-0.019507756403347627
40
-0.0097540944918228321
40
-0.0097540944918228321
40
-0
40
-0
40
-0
40
-0
10
41.653351606386558
20
-37.090263403706814
30
0
10
41.634523720155002
20
-37.096686304045662
30
0
10
41.616529883276669
20
-37.105333732533488
30
-2.2204460492503131e-15
10
41.582957320434453
20
-37.126719655962582
30
-2.2204460492503131e-15
10
41.567500663235705
20
-37.139386537097394
30
-2.2204460492503131e-15
10
41.531165789539742
20
-37.177240377301828
30
-2.2204460492503131e-15
10
41.513423485203361
20
-37.204907562469018
30
-2.2204460492503131e-15
10
41.489545408936699
20
-37.265487800902726
30
-2.2204460492503131e-15
10
41.483636938794781
20
-37.297819758285279
30
-2.2204460492503131e-15
10
41.484549204250875
20
-37.362929723969351
30
-2.2204460492503131e-15
10
41.491359578387389
20
-37.395083842089164
30
-2.2204460492503131e-15
10
41.516925651377349
20
-37.454971469702784
30
-2.2204460492503131e-15
10
41.535434872364789
20
-37.482131740283734
30
-2.2204460492503131e-15
10
41.58179201797671
20
-37.527794020596069
30
-2.2204460492503131e-15
10
41.609182218670632
20
-37.545873188031031
30
-2.2204460492503131e-15
10
41.669351369184291
20
-37.570531609745082
30
-2.2204460492503131e-15
10
41.701554881346716
20
-37.576874431130385
30
0
10
41.734068529652788
20
-37.576874431130385
30
0
0
LWPOLYLINE
5
232
100
AcDbEntity
8
0
100
AcDbPolyline
90
12
70
1
43
0.0
10
-109.10937495068147
20
1.7631253797385327
10
-109.10937495068143
20
-3.7368746202614744
42
-0.41421356237309503
10
-109.60937495068144
20
-4.2368746202614815
10
-110.10937495068148
20
-4.2368746202614815
42
-0.41421356237307422
10
-110.60937495068153
20
-3.7368746202614744
10
-110.60937495068153
20
1.7631253797385682
42
0.41421356237303258
10
-111.10937495068143
20
2.2631253797385043
10
-113.60937495068143
20
2.263125379738522
42
-0.41421356237311585
10
-114.10937495068146
20
2.7631253797385114
10
-114.10937495068143
20
3.263125379738554
42
-0.41421356237309503
10
-113.60937495068143
20
3.7631253797385611
10
-111.10937495068143
20
3.7631253797385611
42
-0.4142135623730846
0
LWPOLYLINE
5
233
100
AcDbEntity
8
0
100
AcDbPolyline
90
8
70
1
43
0.0
10
-53.649999950978184
20
-30.836874619964796
10
-53.64999995097817
20
-45.836874619964689
42
-0.41421356237309503
10
-54.149999950978156
20
-46.336874619964675
10
-60.14999995097817
20
-46.336874619964661
42
-0.41421356237309503
10
-60.649999950978142
20
-45.836874619964689
10
-60.649999950978142
20
-30.83687461996476
42
-0.41421356237307422
10
-60.14999995097817
20
-30.336874619964828
10
-54.149999950978085
20
-30.33687461996486
42
-0.41421356237303258
0
LWPOLYLINE
5
234
100
AcDbEntity
8
0
100
AcDbPolyline
90
4
70
1
43
0.0
10
-107.15793623862811
20
-46.099374619964806
10
-104.15793623862811
20
-46.099374619964813
42
-0.99999999999999989
10
-104.15793623862811
20
-47.099374619964813
10
-107.15793623862811
20
-47.09937461996482
42
-0.99999999999999989
0
LWPOLYLINE
5
235
100
AcDbEntity
8
0
100
AcDbPolyline
90
4
70
1
43
0.0
10
-115.09165144186045
20
46.625625402045685
10
-112.09165144186045
20
46.625625402045678
42
-0.99999999999999989
10
-112.09165144186045
20
45.625625402045678
10
-115.09165144186045
20
45.625625402045671
42
-0.99999999999999989
0
LWPOLYLINE
5
236
100
AcDbEntity
8
0
100
AcDbPolyline
90
4
70
1
43
0.0
10
100.11634979746944
20
46.62568112137329
10
103.11634979746948
20
46.625681121373319
42
-0.99999999999999989
10
103.11634979746948
20
45.625681121373319
10
100.11634979746944
20
45.625681121373347
42
-0.99999999999999989
0
LWPOLYLINE
5
237
100
AcDbEntity
8
0
100
AcDbPolyline
90
4
70
1
43
0.0
10
-49.124999950978179
20
-46.099374619964813
42
0.99999999999999989
10
-49.124999950978179
20
-47.099374619964813
10
-46.124999950978172
20
-47.099374619964813
42
0.99999999999999989
10
-46.124999950978172
20
-46.099374619964806
0
LWPOLYLINE
5
238
100
AcDbEntity
8
0
100
AcDbPolyline
90
56
70
1
43
0.0
10
51.225000049021702
20
-47.861874619965057
10
96.922063761371788
20
-47.861874619965157
42
-0.41421356237314383
10
98.522063761372053
20
-49.461874619965158
10
98.522063761371825
20
-51.142258297164958
42
0.99999373347009823
10
102.52206376133245
20
-51.142258297164958
10
102.52206376137211
20
-49.461874619965158
42
-0.41421356237304624
10
104.12206376137185
20
-47.861874619965157
10
141.37499979011295
20
-47.861874619965228
42
0.41421363820583113
10
142.87499979011295
20
-46.361874231601448
10
142.87497590574083
20
45.888125777277686
42
0.41421348393989926
10
141.3749759190587
20
47.388125388913913
10
105.21634854266615
20
47.388125709950124
42
-0.41421355977267899
10
103.61634855687156
20
48.988125709950125
10
103.61634855687178
20
50.917325923225079
42
0.99999373347009823
10
99.616348556911163
20
50.917325923225079
10
99.6163485568715
20
48.988125759335794
42
-0.41421356190897995
10
98.016348559406836
20
47.388125759335793
10
51.099380349353552
20
47.388125684998776
42
-0.39137706589337989
10
49.625000049021786
20
48.983186715509923
10
49.62500004902175
20
50.912387208974828
42
0.99999373347009823
10
45.625000049060979
20
50.912387208974828
10
45.625000049021729
20
48.983186704101982
42
-0.39137706497981961
10
44.150619753744465
20
47.38812567398891
10
-44.150617704507169
20
47.388125534081126
42
-0.39137741764186079
10
-45.624999950978129
20
48.983186717860079
10
-45.624999950978165
20
50.912387211324983
42
0.99999373347009823
10
-49.624999950938935
20
50.912387211324983
10
-49.624999950978186
20
48.983186706452138
42
-0.39137741672830051
10
-51.099382192394636
20
47.388125523071245
10
-109.99165144059283
20
47.388125429760137
42
-0.41421356283721661
10
-111.59165144312821
20
48.988125429760139
10
-111.59165144312801
20
50.917325923225043
42
0.99999373346566922
10
-115.59165144308878
20
50.917325923225043
10
-115.59165144312827
20
48.988125418352197
42
-0.41421356190897346
10
-117.19165144059289
20
47.388125418352196
10
-141.37499995306442
20
47.388125380035184
42
0.41421356190809916
10
-142.87499995068777
20
45.888125380039924
10
-142.87499995097849
20
-46.361874619964745
42
0.41421356237309503
10
-141.37499995097852
20
-47.86187461996473
10
-109.25793623862816
20
-47.861874619964766
42
-0.41421356237314383
10
-107.6579362386279
20
-49.461874619964767
10
-107.65793623862812
20
-51.142258297164958
42
0.99999373346566922
10
-103.65793623866736
20
-51.142258297164958
10
-103.65793623862784
20
-49.461874619964803
42
-0.41421356237304624
10
-102.0579362386281
20
-47.861874619964802
10
-51.224999950978258
20
-47.86187461996488
42
-0.41421356237313894
10
-49.624999950978015
20
-49.461874619964881
10
-49.624999950978221
20
-50.914123030044891
42
0.99999373347009823
10
-45.62499995101745
20
-50.914123030044891
10
-45.624999950977958
20
-49.461874619964902
42
-0.41421356237305113
10
-44.024999950978199
20
-47.861874619964901
10
44.025000049021642
20
-47.861874619965043
42
-0.41421356237314544
10
45.625000049021914
20
-49.461874619965045
10
45.625000049021693
20
-50.914123030044891
42
0.99999373347009823
10
49.625000048982464
20
-50.914123030044891
10
49.62500004902197
20
-49.461874619965059
42
-0.41421356237304463
0
SPLINE
5
239
100
AcDbEntity
8
0
100
AcDbSpline
70
0
71
3
72
14
73
10
74
0
42
0.000000001
43
0.0000000001
44
0.0000000001
40
-0.062970516832536225
40
-0.062970516832536225
40
-0.062970516832536225
40
-0.062970516832536225
40
-0.050956188506503068
40
-0.050956188506503068
40
-0.038941865187715356
40
-0.038941865187715356
40
-0.019470343016236985
40
-0.019470343016236985
40
-0
40
-0
40
-0
40
-0
10
-40.985184112763015
20
-35.370342821804392
30
0
10
-40.985192265183798
20
-35.410390582061389
30
0
10
-40.980388918754649
20
-35.450294674732746
30
0
10
-40.961365927431181
20
-35.528098375156581
30
0
10
-40.947214994852374
20
-35.565716967631715
30
0
10
-40.898769128011253
20
-35.658819556507162
30
0
10
-40.857882768831388
20
-35.710015493720974
30
0
10
-40.758834900427907
20
-35.79391527806208
30
0
10
-40.701615384319325
20
-35.825823203612337
30
0
10
-40.639899458926791
20
-35.845905607998823
30
0
0
LINE
5
240
100
AcDbEntity
8
0
100
AcDbLine
10
-40.985184112763015
20
-35.370342821804392
30
0
11
-40.984464792862347
21
-31.83677264740318
31
0
0
ARC
5
241
100
AcDbEntity
8
0
100
AcDbCircle
10
-40.484464803222266
20
-31.83687443113044
30
0
40
0.49999999999999822
210
0
220
-0
230
1
100
AcDbArc
50
90
51
179.98833644392522
0
LINE
5
242
100
AcDbEntity
8
0
100
AcDbLine
10
-40.484464803222266
20
-31.33687443113044
30
0
11
-20.162583111363013
21
-31.336874431130433
31
-2.2204460492503131e-15
0
ARC
5
243
100
AcDbEntity
8
0
100
AcDbCircle
10
-20.162583111363013
20
-31.83687443113044
30
0
40
0.50000000000000044
210
0
220
0
230
1
100
AcDbArc
50
0
51
90
0
LINE
5
244
100
AcDbEntity
8
0
100
AcDbLine
10
-19.662583111363013
20
-31.83687443113044
30
0
11
-19.662583111363006
21
-35.375664535553959
31
4.4408920985006262e-15
0
SPLINE
5
245
100
AcDbEntity
8
0
100
AcDbSpline
70
0
71
3
72
14
73
10
74
0
42
0.000000001
43
0.0000000001
44
0.0000000001
40
-0.062957269743734667
40
-0.062957269743734667
40
-0.062957269743734667
40
-0.062957269743734667
40
-0.050949564961500556
40
-0.050949564961500556
40
-0.03894186518772462
40
-0.03894186518772462
40
-0.019470343016247182
40
-0.019470343016247182
40
-0
40
-0
40
-0
40
-0
10
-20.007839045403344
20
-35.851116188248824
30
0
10
-19.969778491511441
20
-35.838728714509848
30
0
10
-19.933342706752097
20
-35.821815734321845
30
0
10
-19.865286859228306
20
-35.779665763767944
30
0
10
-19.8339123314828
20
-35.754580848721773
30
0
10
-19.760385138979093
20
-35.679719562858025
30
0
10
-19.724353289299859
20
-35.624998230976594
30
0
10
-19.675219586602012
20
-35.504850266753458
30
0
10
-19.662583111363002
20
-35.440565678941446
30
0
10
-19.662583111363002
20
-35.375664535553959
30
0
0
SPLINE
5
246
100
AcDbEntity
8
0
100
AcDbSpline
70
0
71
3
72
10
73
6
74
0
42
0.000000001
43
0.0000000001
44
0.0000000001
40
-1.049469811671611
40
-1.049469811671611
40
-1.049469811671611
40
-1.049469811671611
40
-0.52385210300697038
40
-0.52385210300697038
40
-0
40
-0
40
-0
40
-0
10
-30.325000000196166
20
-37.57573284721424
30
5.5511151231257827e-16
10
-28.551609008673047
20
-37.577752554836096
30
5.5511151231257827e-16
10
-26.812784596966111
20
-37.419551436808291
30
0
10
-23.36491191474337
20
-36.824911539386434
30
0
10
-21.668281366352275
20
-36.391536217454302
30
5.5511151231257827e-16
10
-20.007839045403344
20
-35.851116188248817
30
5.5511151231257827e-16
0
SPLINE
5
247
100
AcDbEntity
8
0
100
AcDbSpline
70
0
71
3
72
10
73
6
74
0
42
0.000000001
43
0.0000000001
44
0.0000000001
40
-1.0518648341852108
40
-1.0518648341852108
40
-1.0518648341852108
40
-1.0518648341852108
40
-0.52677557032404521
40
-0.52677557032404521
40
-0
40
-0
40
-0
40
-0
10
-40.639899458926791
20
-35.84590560799883
30
5.5511151231257827e-16
10
-38.975515997953153
20
-36.387497125988055
30
5.5511151231257827e-16
10
-37.27952441819135
20
-36.819878105679976
30
0
10
-33.824081152133402
20
-37.414847105589907
30
0
10
-32.080917429167478
20
-37.573733040159546
30
0
10
-30.325000000206259
20
-37.575732847214233
30
0
0
SPLINE
5
248
100
AcDbEntity
8
0
100
AcDbSpline
70
0
71
3
72
14
73
10
74
0
42
0.000000001
43
0.0000000001
44
0.0000000001
40
-0.062957294543361811
40
-0.062957294543361811
40
-0.062957294543361811
40
-0.062957294543361811
40
-0.050949577361313447
40
-0.050949577361313447
40
-0.038941865187719464
40
-0.038941865187719464
40
-0.019470343016247536
40
-0.019470343016247536
40
-0
40
-0
40
-0
40
-0
10
40.987460434223088
20
-41.284045045357658
30
0
10
40.987460434223088
20
-41.244019321417497
30
0
10
40.982654258492282
20
-41.204138005726712
30
0
10
40.963636150432592
20
-41.126378484118923
30
0
10
40.949492837135594
20
-41.088780824622305
30
0
10
40.901062721333581
20
-40.995694881987561
30
0
10
40.860179430515807
20
-40.94449649445346
30
0
10
40.761136590594596
20
-40.860590774099578
30
0
10
40.703918986903105
20
-40.828679419311229
30
0
10
40.642204265205422
20
-40.808593316185402
30
0
0
LINE
5
249
100
AcDbEntity
8
0
100
AcDbLine
10
40.987460434223088
20
-41.284045045357658
30
0
11
40.987460434223095
21
-44.836874431130447
31
0
0
ARC
5
250
100
AcDbEntity
8
0
100
AcDbCircle
10
40.487460434223053
20
-44.836874431130447
30
0
40
0.49999999999999822
210
0
220
0
230
1
100
AcDbArc
50
-90
51
0
0
LINE
5
251
100
AcDbEntity
8
0
100
AcDbLine
10
40.487460434223053
20
-45.336874431130447
30
0
11
20.165931371485115
21
-45.336874431130454
31
3.3306690738754696e-15
0
ARC
5
252
100
AcDbEntity
8
0
100
AcDbCircle
10
20.165931371485115
20
-44.836874431130447
30
0
40
0.50000000000000044
210
0
220
0
230
1
100
AcDbArc
50
180
51
270
0
LINE
5
253
100
AcDbEntity
8
0
100
AcDbLine
10
19.665931371485115
20
-44.836874431130447
30
0
11
19.665931371485108
21
-41.276994739889119
31
1.1102230246251565e-15
0
SPLINE
5
254
100
AcDbEntity
8
0
100
AcDbSpline
70
0
71
3
72
14
73
10
74
0
42
0.000000001
43
0.0000000001
44
0.0000000001
40
-0.062961689537704257
40
-0.062961689537704257
40
-0.062961689537704257
40
-0.062961689537704257
40
-0.050951774858684927
40
-0.050951774858684927
40
-0.038941865187720928
40
-0.038941865187720928
40
-0.019470343016245402
40
-0.019470343016245402
40
-0
40
-0
40
-0
40
-0
10
20.011229183791812
20
-40.801529459218813
30
0
10
19.973160534100568
20
-40.813915859717838
30
0
10
19.936716878210756
20
-40.830829567470204
30
0
10
19.868646649136473
20
-40.872984297538764
30
0
10
19.837265753344159
20
-40.898073171326352
30
0
10
19.763733399101191
20
-40.972939712585081
30
0
10
19.727701549421962
20
-41.027661044466505
30
0
10
19.678567846724121
20
-41.147809008689642
30
0
10
19.665931371485112
20
-41.212093596501632
30
0
10
19.665931371485112
20
-41.276994739889119
30
0
0
SPLINE
5
255
100
AcDbEntity
8
0
100
AcDbSpline
70
0
71
3
72
10
73
6
74
0
42
0.000000001
43
0.0000000001
44
0.0000000001
40
-1.0495520346328995
40
-1.0495520346328995
40
-1.0495520346328995
40
-1.0495520346328995
40
-0.60460880642141657
40
-0.60460880642141657
40
-0
40
-0
40
-0
40
-0
10
30.325000000194251
20
-39.078016015046586
30
0
10
28.827412246312669
20
-39.076310418584612
30
0
10
27.354945432367948
20
-39.188471887235266
30
1.1102230246251565e-15
10
23.892191544755494
20
-39.697080511207375
30
1.1102230246251565e-15
10
21.927699156064531
20
-40.177967425538654
30
5.5511151231257827e-16
10
20.011229183791812
20
-40.801529459218813
30
5.5511151231257827e-16
0
SPLINE
5
256
100
AcDbEntity
8
0
100
AcDbSpline
70
0
71
3
72
10
73
6
74
0
42
0.000000001
43
0.0000000001
44
0.0000000001
40
-1.0521063749501816
40
-1.0521063749501816
40
-1.0521063749501816
40
-1.0521063749501816
40
-0.52627592711113258
40
-0.52627592711113258
40
-0
40
-0
40
-0
40
-0
10
40.642204265205422
20
-40.808593316185409
30
0
10
38.975504213722012
20
-40.26613750996912
30
0
10
37.277109490241983
20
-39.83318945015499
30
0
10
33.820783970163454
20
-39.238600512698532
30
0
10
32.079251952869313
20
-39.080013925297266
30
0
10
30.325000000204341
20
-39.078016015046586
30
0
0
CIRCLE
5
257
100
AcDbEntity
8
0
100
AcDbCircle
10
-47.624999950978193
20
-50.91411049693474
30
-2.7755575615628914e-13
40
1.1000000000000001
210
8.2739578991201202e-17
220
1.9174556040920113e-32
230
1
0
CIRCLE
5
258
100
AcDbEntity
8
0
100
AcDbCircle
10
-113.59165144312804
20
50.917313390115233
30
2.9420910152566648e-13
40
1.1000000000000001
210
8.2739578991201202e-17
220
1.9174556040920113e-32
230
1
0
CIRCLE
5
259
100
AcDbEntity
8
0
100
AcDbCircle
10
-47.624999950978193
20
50.912374678215144
30
0
40
1.1000000000000001
210
0
220
0
230
1
0
CIRCLE
5
260
100
AcDbEntity
8
0
100
AcDbCircle
10
101.6163485568719
20
50.917313390115268
30
2.7644553313166398e-13
40
1.1000000000000001
210
8.2739578991201202e-17
220
1.9174556040920113e-32
230
1
0
CIRCLE
5
261
100
AcDbEntity
8
0
100
AcDbCircle
10
100.52206376137171
20
-51.142245764054806
30
-2.9087843245179101e-13
40
1.1000000000000001
210
8.2739578991201202e-17
220
1.9174556040920113e-32
230
1
0
CIRCLE
5
262
100
AcDbEntity
8
0
100
AcDbCircle
10
-105.6579362386281
20
-51.142245764054806
30
-2.7533531010703882e-13
40
1.1000000000000001
210
8.2739578991201202e-17
220
1.9174556040920113e-32
230
1
0
CIRCLE
5
263
100
AcDbEntity
8
0
100
AcDbCircle
10
47.625000049021722
20
50.912374675864989
30
0
40
1.1000000000000001
210
0
220
0
230
1
0
CIRCLE
5
264
100
AcDbEntity
8
0
100
AcDbCircle
10
47.625000049021722
20
-50.91411049693474
30
-2.8643754035329039e-13
40
1.1000000000000001
210
8.2739578991201202e-17
220
1.9174556040920113e-32
230
1
0
ENDSEC
0
SECTION
2
OBJECTS
0
DICTIONARY
5
C
100
AcDbDictionary
3
ACAD_GROUP
350
D
3
ACAD_MLINESTYLE
350
17
0
DICTIONARY
5
D
100
AcDbDictionary
0
DICTIONARY
5
1A
330
C
100
AcDbDictionary
0
DICTIONARY
5
17
100
AcDbDictionary
0
ENDSEC
0
EOF
