0
SECTION
2
HEADER
9
$INSUNITS
70
4
9
$ACADVER
1
AC1014
9
$HANDSEED
5
FFFF
0
ENDSEC
0
SECTION
2
TABLES
0
TABLE
2
VPORT
5
8
100
AcDbSymbolTable
0
ENDTAB
0
TABLE
2
LTYPE
5
5
100
AcDbSymbolTable
0
LTYPE
5
14
100
AcDbSymbolTableRecord
100
AcDbLinetypeTableRecord
2
BYBLOCK
70
0
0
LTYPE
5
15
100
AcDbSymbolTableRecord
100
AcDbLinetypeTableRecord
2
BYLAYER
70
0
0
LTYPE
5
16
100
AcDbSymbolTableRecord
100
AcDbLinetypeTableRecord
2
DASHED
70
0
3
Dashed __ __ __ __ __ __ __ __ __ __ __ __ __ _
72
65
73
2
40
0.75
49
0.5
74
0
49
-0.25
74
0
0
ENDTAB
0
TABLE
2
LAYER
5
2
100
AcDbSymbolTable
70
2
0
LAYER
5
50
100
AcDbSymbolTableRecord
100
AcDbLayerTableRecord
2
0
70
0
62
7
6
CONTINUOUS
0
ENDTAB
0
TABLE
2
STYLE
5
3
100
AcDbSymbolTable
70
1
0
STYLE
5
11
100
AcDbSymbolTableRecord
100
AcDbTextStyleTableRecord
2
STANDARD
70
0
0
ENDTAB
0
TABLE
2
VIEW
5
6
100
AcDbSymbolTable
70
0
0
ENDTAB
0
TABLE
2
UCS
5
7
100
AcDbSymbolTable
70
0
0
ENDTAB
0
TABLE
2
APPID
5
9
100
AcDbSymbolTable
70
2
0
APPID
5
12
100
AcDbSymbolTableRecord
100
AcDbRegAppTableRecord
2
ACAD
70
0
0
ENDTAB
0
TABLE
2
DIMSTYLE
5
A
100
AcDbSymbolTable
70
1
0
ENDTAB
0
TABLE
2
BLOCK_RECORD
5
1
100
AcDbSymbolTable
70
1
0
BLOCK_RECORD
5
1F
100
AcDbSymbolTableRecord
100
AcDbBlockTableRecord
2
*MODEL_SPACE
0
BLOCK_RECORD
5
1B
100
AcDbSymbolTableRecord
100
AcDbBlockTableRecord
2
*PAPER_SPACE
0
ENDTAB
0
ENDSEC
0
SECTION
2
BLOCKS
0
BLOCK
5
20
100
AcDbEntity
100
AcDbBlockBegin
2
*MODEL_SPACE
0
ENDBLK
5
21
100
AcDbEntity
100
AcDbBlockEnd
0
BLOCK
5
1C
100
AcDbEntity
100
AcDbBlockBegin
2
*PAPER_SPACE
0
ENDBLK
5
1D
100
AcDbEntity
100
AcDbBlockEnd
0
ENDSEC
0
SECTION
2
ENTITIES
0
LWPOLYLINE
5
100
100
AcDbEntity
8
0
100
AcDbPolyline
90
8
70
1
43
0.0
10
160.61885043540246
20
-4.9868646157985452
42
0.41421356237308454
10
162.11885043540246
20
-3.4868646157985426
10
162.11885043540241
20
3.5131279218490077
42
0.41421356237309176
10
160.61885043540244
20
5.0131279218490121
10
129.61885845966285
20
5.0131279218490477
42
0.41421356237309159
10
128.11885845966282
20
3.5131279218490263
10
128.11885845966285
20
-3.4868646157985363
42
0.4142135623730927
10
129.61885845966287
20
-4.9868646157985097
0
LWPOLYLINE
5
101
100
AcDbEntity
8
0
100
AcDbPolyline
90
12
70
1
43
0.0
10
123.94385683496691
20
20.963141136132919
42
0.41421356237304818
10
123.44385683496695
20
21.463141136132897
10
120.94385683496689
20
21.463141136132879
42
-0.41421356237308204
10
120.44385683496687
20
21.963141136132883
10
120.44385683496687
20
22.463141136132876
42
-0.4142135623730846
10
120.94385683496688
20
22.963141136132901
10
123.44385683496689
20
22.963141136132847
42
-0.41421356237309243
10
125.44385683496685
20
20.963141136132908
10
125.44385683496692
20
15.463141136132919
42
-0.41421356237314705
10
124.94385683496694
20
14.963141136132876
10
124.44385683496684
20
14.963141136132894
42
-0.41421356237308332
10
123.94385683496681
20
15.463141136132899
0
LWPOLYLINE
5
102
100
AcDbEntity
8
0
100
AcDbPolyline
90
20
70
1
43
0.0
10
79.225106834966709
20
-12.136858863867168
10
79.81210683496667
20
-12.136858863867133
10
79.812106834966698
20
-11.63685886386709
42
-0.41421356237310542
10
80.312106834966727
20
-11.136858863867083
10
86.312106834966727
20
-11.136858863867101
42
-0.41421356237310281
10
86.812106834966713
20
-11.636858863867104
10
86.812106834966698
20
-12.136858863867133
10
101.75010683496673
20
-12.136858863867062
42
-0.41421356237309631
10
102.25010683496674
20
-12.63685886386707
10
102.25010683496674
20
-25.636858863867111
42
-0.41421356237307422
10
101.75010683496673
20
-26.136858863867083
10
86.812106834966698
20
-26.136858863868788
10
86.812106834966698
20
-26.636858863867054
42
-0.41421356237312623
10
86.312106834966698
20
-27.136858863867062
10
80.312106834966698
20
-27.136858863867133
42
-0.41421356237310281
10
79.812106834966698
20
-26.636858863867111
10
79.81210683496667
20
-26.136858863867012
10
79.225106834966709
20
-26.13685886386687
42
-0.4142135623731783
10
78.725106834966738
20
-25.63685886386704
10
78.725106834966709
20
-12.636858863867104
42
-0.4142135623730534
0
LWPOLYLINE
5
103
100
AcDbEntity
8
0
100
AcDbPolyline
90
8
70
1
43
0.0
10
91.074606834966715
20
-8.0868588638671213
10
85.074606834966715
20
-8.086858863867068
42
-0.41421356237310414
10
84.574606834966715
20
-7.5868588638670627
10
84.574606834966758
20
7.4131411361329214
42
-0.4142135623730846
10
85.07460683496673
20
7.9131411361329107
10
91.074606834966829
20
7.9131411361329462
42
-0.4142135623730378
10
91.574606834966787
20
7.413141136132948
10
91.574606834966801
20
-7.5868588638670786
42
-0.41421356237311585
0
LWPOLYLINE
5
104
100
AcDbEntity
8
0
100
AcDbPolyline
90
14
70
1
43
0.0
10
118.41885683496685
20
-26.136858863867225
42
0.41421356237304818
10
118.91885683496682
20
-25.636858863867189
10
118.91885683496687
20
-12.636858863866996
42
0.41421356237305212
10
118.41885683496677
20
-12.136858863866991
10
110.68810683496672
20
-12.136858863866991
10
110.6881068349667
20
-11.63685886386707
42
0.41421356237310414
10
110.18810683496675
20
-11.136858863867118
10
104.1881068349668
20
-11.136858863867083
42
0.41421356237309503
10
103.68810683496683
20
-11.63685886386709
10
103.68810683496679
20
-26.636858863866951
42
0.41421356237309243
10
104.1881068349668
20
-27.136858863866955
10
110.18810683496675
20
-27.136858863866919
42
0.41421356237309503
10
110.68810683496672
20
-26.636858863866912
10
110.68810683496672
20
-26.136858863867083
0
LWPOLYLINE
5
105
100
AcDbEntity
8
0
100
AcDbPolyline
90
8
70
1
43
0.0
10
108.95060683496682
20
7.913141136132964
42
0.41421356237311519
10
108.45060683496683
20
7.4131411361329755
10
108.45060683496681
20
-7.5868588638670778
42
0.41421356237311646
10
108.95060683496673
20
-8.0868588638670502
10
114.95060683496682
20
-8.0868588638670857
42
0.41421356237309503
10
115.45060683496679
20
-7.5868588638670786
10
115.45060683496686
20
7.4131411361329498
42
0.4142135623730781
10
114.95060683496682
20
7.913141136132964
0
LWPOLYLINE
5
106
100
AcDbEntity
8
0
100
AcDbPolyline
90
8
70
1
43
0.0
10
142.73135683496668
20
-12.636858863867104
10
142.7313568349667
20
-25.636858863867111
42
-0.41421356237309503
10
142.23135683496673
20
-26.136858863867101
10
129.23135683496673
20
-26.136858863867083
42
-0.41421356237310025
10
128.73135683496679
20
-25.636858863867104
10
128.73135683496679
20
-12.636858863867104
42
-0.41421356237307422
10
129.2313568349667
20
-12.136858863867133
10
142.23135683496673
20
-12.136858863867168
42
-0.41421356237307422
0
LWPOLYLINE
5
107
100
AcDbEntity
8
0
100
AcDbPolyline
90
8
70
1
43
0.0
10
107.01260683496682
20
6.4131411361329107
42
0.41421356237310347
10
106.51260683496679
20
6.913141136132916
10
93.512606834966832
20
6.9131411361329143
42
0.41421356237309503
10
93.012606834966789
20
6.4131411361329071
10
93.012606834966775
20
-6.586858863867084
42
0.41421356237304169
10
93.512606834966732
20
-7.0868588638670715
10
106.5126068349668
20
-7.0868588638670893
42
0.41421356237309503
10
107.01260683496677
20
-6.5868588638670653
0
LWPOLYLINE
5
108
100
AcDbEntity
8
0
100
AcDbPolyline
90
8
70
1
43
0.0
10
128.73135683496662
20
-44.686858863867087
10
128.73135683496673
20
-31.686858863867116
42
-0.41421356237309503
10
129.23135683496673
20
-31.186858863867108
10
142.23135683496673
20
-31.186858863867091
42
-0.41421356237310281
10
142.7313568349667
20
-31.686858863867094
10
142.7313568349667
20
-44.686858863867087
42
-0.41421356237311585
10
142.23135683496673
20
-45.186858863867116
10
129.23135683496673
20
-45.186858863867165
42
-0.41421356237315748
0
LWPOLYLINE
5
109
100
AcDbEntity
8
0
100
AcDbPolyline
90
8
70
1
43
0.0
10
123.68135683496668
20
-31.686858863867116
10
123.68135683496675
20
-44.686858863867087
42
-0.41421356237311585
10
123.18135683496666
20
-45.186858863867123
10
110.18135683496673
20
-45.18685886386713
42
-0.41421356237310025
10
109.68135683496672
20
-44.686858863867116
10
109.68135683496676
20
-31.686858863867116
42
-0.41421356237312623
10
110.18135683496672
20
-31.18685886386708
10
123.18135683496671
20
-31.186858863867144
42
-0.41421356237309503
0
LWPOLYLINE
5
110
100
AcDbEntity
8
0
100
AcDbPolyline
90
8
70
1
43
0.0
10
78.725106834966738
20
-44.686858863867087
10
78.725106834966752
20
-31.686858863867116
42
-0.41421356237311063
10
79.225106834966738
20
-31.18685886386708
10
92.225106834966766
20
-31.186858863867126
42
-0.41421356237311063
10
92.725106834966709
20
-31.686858863867108
10
92.725106834966752
20
-44.686858863867087
42
-0.41421356237304302
10
92.225106834966738
20
-45.186858863867116
10
79.225106834966709
20
-45.18685886386713
42
-0.4142135623730534
0
LWPOLYLINE
5
111
100
AcDbEntity
8
0
100
AcDbPolyline
90
8
70
1
43
0.0
10
54.912606834966731
20
-44.686858863867087
10
54.912606834966731
20
-31.686858863867116
42
-0.41421356237309503
10
55.412606834966738
20
-31.186858863867105
10
68.412606834966738
20
-31.186858863867073
42
-0.41421356237309764
10
68.912606834966752
20
-31.686858863867084
10
68.912606834966738
20
-44.686858863867087
42
-0.41421356237307422
10
68.412606834966738
20
-45.186858863867123
10
55.412606834966702
20
-45.18685886386713
42
-0.41421356237309503
0
LWPOLYLINE
5
112
100
AcDbEntity
8
0
100
AcDbPolyline
90
8
70
1
43
0.0
10
45.100106834966773
20
-31.686858863867116
10
45.100106834966766
20
-44.686858863867087
42
-0.41421356237310025
10
44.600106834966795
20
-45.186858863867123
10
31.600106834966795
20
-45.186858863867059
42
-0.41421356237310025
10
31.100106834966791
20
-44.686858863867045
10
31.10010683496677
20
-31.686858863867045
42
-0.41421356237310542
10
31.600106834966812
20
-31.18685886386702
10
44.600106834966766
20
-31.186858863867073
42
-0.41421356237311585
0
LWPOLYLINE
5
113
100
AcDbEntity
8
0
100
AcDbPolyline
90
8
70
1
43
0.0
10
-86.337393165033262
20
-30.186858863867592
42
0.414213562373069
10
-86.83739316503322
20
-30.686858863867606
10
-86.837393165033276
20
-45.686858863866995
42
0.4142135623730534
10
-86.337393165033262
20
-46.186858863867002
10
-80.337393165033262
20
-46.186858863867002
42
0.41421356237310542
10
-79.837393165033262
20
-45.68685886386703
10
-79.837393165033262
20
-30.686858863867581
42
0.41421356237307422
10
-80.337393165033276
20
-30.186858863867592
0
LWPOLYLINE
5
114
100
AcDbEntity
8
0
100
AcDbPolyline
90
8
70
1
43
0.0
10
-26.837393165033276
20
-45.186858863867059
10
-39.837393165033248
20
-45.186858863867002
42
-0.41421356237308982
10
-40.337393165033234
20
-44.686858863867023
10
-40.337393165033255
20
-31.686858863867045
42
-0.41421356237310025
10
-39.837393165033241
20
-31.186858863867037
10
-26.837393165033276
20
-31.186858863867041
42
-0.41421356237308982
10
-26.337393165033273
20
-31.686858863867037
10
-26.337393165033269
20
-44.686858863867052
42
-0.41421356237309503
0
LWPOLYLINE
5
115
100
AcDbEntity
8
0
100
AcDbPolyline
90
8
70
1
43
0.0
10
13.662606834966768
20
-30.186858863867023
42
0.41421356237309892
10
13.162606834966761
20
-30.686858863867034
10
13.162606834966759
20
-45.686858863867002
42
0.41421356237308982
10
13.662606834966766
20
-46.186858863867002
10
19.662606834966773
20
-46.18685886386703
42
0.41421356237309892
10
20.162606834966788
20
-45.68685886386703
10
20.162606834966752
20
-30.686858863866959
42
0.41421356237309503
10
19.66260683496678
20
-30.186858863866988
0
LWPOLYLINE
5
116
100
AcDbEntity
8
0
100
AcDbPolyline
90
8
70
1
43
0.0
10
-159.39989316503326
20
-44.686858863867045
42
0.414213562373069
10
-158.89989316503326
20
-45.186858863867023
10
-145.89989316503323
20
-45.186858863867059
42
0.41421356237309503
10
-145.39989316503323
20
-44.686858863867052
10
-145.39989316503323
20
-31.68685886386703
42
0.41421356237308721
10
-145.89989316503323
20
-31.186858863867037
10
-158.89989316503323
20
-31.186858863867037
42
0.41421356237312623
10
-159.39989316503323
20
-31.686858863867045
0
LWPOLYLINE
5
117
100
AcDbEntity
8
0
100
AcDbPolyline
90
8
70
1
43
0.0
10
-121.58739316503326
20
-31.686858863867023
42
0.41421356237310281
10
-122.08739316503326
20
-31.186858863867009
10
-135.08739316503326
20
-31.18685886386702
42
0.41421356237309503
10
-135.58739316503329
20
-31.686858863867045
10
-135.58739316503329
20
-44.686858863867023
42
0.41421356237310025
10
-135.08739316503326
20
-45.186858863867023
10
-122.08739316503326
20
-45.186858863867059
42
0.41421356237312623
10
-121.58739316503328
20
-44.686858863867052
0
LWPOLYLINE
5
118
100
AcDbEntity
8
0
100
AcDbPolyline
90
8
70
1
43
0.0
10
-98.274893165033248
20
-45.186858863867059
10
-111.27489316503326
20
-45.186858863867045
42
-0.41421356237311063
10
-111.77489316503326
20
-44.686858863867023
10
-111.77489316503326
20
-31.686858863867045
42
-0.4142135623730846
10
-111.27489316503328
20
-31.186858863867037
10
-98.274893165033262
20
-31.186858863867055
42
-0.41421356237309764
10
-97.774893165033276
20
-31.686858863867048
10
-97.774893165033276
20
-44.686858863867052
42
-0.41421356237307422
0
LWPOLYLINE
5
119
100
AcDbEntity
8
0
100
AcDbPolyline
90
8
70
1
43
0.0
10
-127.43689316503327
20
-11.636858863867046
42
0.414213562373069
10
-127.93689316503324
20
-11.136858863867054
10
-133.93689316503324
20
-11.13685886386703
42
0.41421356237309503
10
-134.43689316503333
20
-11.636858863867019
10
-134.43689316503333
20
-26.636858863866987
42
0.41421356237309243
10
-133.9368931650333
20
-27.136858863866991
10
-127.9368931650333
20
-27.136858863866991
42
0.41421356237307422
10
-127.43689316503328
20
-26.636858863867019
0
LWPOLYLINE
5
120
100
AcDbEntity
8
0
100
AcDbPolyline
90
8
70
1
43
0.0
10
-151.31289316503324
20
-11.636858863867017
42
0.41421356237310414
10
-151.81289316503327
20
-11.136858863867008
10
-157.81289316503324
20
-11.13685886386703
42
0.41421356237307422
10
-158.31289316503327
20
-11.636858863867019
10
-158.31289316503327
20
-26.636858863867019
42
0.41421356237310542
10
-157.81289316503324
20
-27.136858863866991
10
-151.81289316503327
20
-27.136858863866991
42
0.41421356237307422
10
-151.31289316503327
20
-26.636858863867019
0
LWPOLYLINE
5
121
100
AcDbEntity
8
0
100
AcDbPolyline
90
8
70
1
43
0.0
10
-105.41864316503323
20
-26.136858863867047
42
0.41421356237308721
10
-104.91864316503325
20
-25.636858863867037
10
-104.91864316503326
20
-12.636858863867012
42
0.41421356237309243
10
-105.41864316503323
20
-12.136858863866991
10
-118.41864316503326
20
-12.136858863867008
42
0.41421356237310542
10
-118.91864316503323
20
-12.636858863867033
10
-118.9186431650333
20
-25.636858863867033
42
0.41421356237307944
10
-118.41864316503326
20
-26.136858863867047
0
LWPOLYLINE
5
122
100
AcDbEntity
8
0
100
AcDbPolyline
90
8
70
1
43
0.0
10
-135.87489316503326
20
-12.636858863867033
42
0.41421356237309503
10
-136.37489316503326
20
-12.136858863867026
10
-149.37489316503326
20
-12.136858863867026
42
0.41421356237309503
10
-149.87489316503326
20
-12.636858863867033
10
-149.87489316503326
20
-25.636858863867026
42
0.41421356237307161
10
-149.37489316503326
20
-26.136858863867012
10
-136.37489316503326
20
-26.136858863867012
42
0.41421356237309503
10
-135.87489316503326
20
-25.636858863867005
0
LWPOLYLINE
5
123
100
AcDbEntity
8
0
100
AcDbPolyline
90
8
70
1
43
0.0
10
53.031356834966736
20
-12.136858863867062
10
66.031356834966715
20
-12.136858863867035
42
-0.41421356237312101
10
66.531356834966743
20
-12.636858863867042
10
66.531356834966715
20
-25.636858863867111
42
-0.41421356237307422
10
66.031356834966715
20
-26.136858863867083
10
53.031356834966736
20
-26.136858863867083
42
-0.41421356237309764
10
52.531356834966765
20
-25.636858863867108
10
52.531356834966694
20
-12.636858863867069
42
-0.41421356237307422
0
LWPOLYLINE
5
124
100
AcDbEntity
8
0
100
AcDbPolyline
90
8
70
1
43
0.0
10
-53.031143165033257
20
31.013141136132987
10
-66.031143165033228
20
31.013141136132969
42
-0.41421356237309764
10
-66.531143165033214
20
31.513141136132962
10
-66.531143165033313
20
44.51314113613293
42
-0.41421356237310542
10
-66.031143165033242
20
45.013141136132973
10
-53.031143165033257
20
45.013141136132958
42
-0.41421356237310025
10
-52.531143165033271
20
44.513141136132958
10
-52.531143165033285
20
31.513141136132958
42
-0.41421356237309503
0
LWPOLYLINE
5
125
100
AcDbEntity
8
0
100
AcDbPolyline
90
8
70
1
43
0.0
10
-62.056143165033255
20
25.463141136132982
42
0.41421356237310542
10
-62.556143165033269
20
25.963141136132993
10
-75.556143165033248
20
25.963141136133004
42
0.41421356237309503
10
-76.056143165033276
20
25.46314113613299
10
-76.056143165033262
20
12.463141136132954
42
0.41421356237309892
10
-75.556143165033262
20
11.963141136132975
10
-62.556143165033269
20
11.963141136132949
42
0.41421356237310025
10
-62.056143165033255
20
12.463141136132947
0
LWPOLYLINE
5
126
100
AcDbEntity
8
0
100
AcDbPolyline
90
8
70
1
43
0.0
10
-100.15614316503324
20
25.463141136132975
42
0.41421356237309243
10
-100.65614316503328
20
25.96314113613299
10
-113.65614316503328
20
25.963141136132997
42
0.41421356237304302
10
-114.15614316503328
20
25.46314113613299
10
-114.15614316503328
20
12.463141136132966
42
0.41421356237307549
10
-113.65614316503327
20
11.963141136132975
10
-100.65614316503328
20
11.96314113613294
42
0.41421356237307422
10
-100.15614316503324
20
12.463141136132947
0
LWPOLYLINE
5
127
100
AcDbEntity
8
0
100
AcDbPolyline
90
8
70
1
43
0.0
10
4.9063568349667364
20
-6.5868588638670644
10
4.9063568349666999
20
6.4131411361329071
42
-0.41421356237309503
10
5.4063568349667435
20
6.9131411361329507
10
18.406356834966786
20
6.913141136132916
42
-0.41421356237309309
10
18.906356834966797
20
6.4131411361329107
10
18.906356834966793
20
-6.5868588638670644
42
-0.41421356237309764
10
18.406356834966783
20
-7.0868588638670715
10
5.4063568349667435
20
-7.0868588638670715
42
-0.41421356237309503
0
LWPOLYLINE
5
128
100
AcDbEntity
8
0
100
AcDbPolyline
90
8
70
1
43
0.0
10
161.78135683496677
20
25.463141136132904
42
0.41421356237308204
10
161.28135683496677
20
25.963141136132954
10
148.2813568349668
20
25.963141136132872
42
0.4142135623730534
10
147.7813568349668
20
25.463141136132919
10
147.78135683496674
20
12.463141136132878
42
0.41421356237309631
10
148.28135683496674
20
11.963141136132904
10
161.28135683496683
20
11.963141136132904
42
0.41421356237307422
10
161.78135683496677
20
12.463141136132876
0
LWPOLYLINE
5
129
100
AcDbEntity
8
0
100
AcDbPolyline
90
8
70
1
43
0.0
10
61.768856834966819
20
44.513141136132937
42
0.4142135623730846
10
61.268856834966819
20
45.013141136132937
10
48.268856834966797
20
45.01314113613293
42
0.41421356237311063
10
47.768856834966762
20
44.51314113613293
10
47.768856834966762
20
31.513141136132955
42
0.41421356237309243
10
48.268856834966769
20
31.013141136132951
10
61.268856834966826
20
31.013141136132951
42
0.4142135623730846
10
61.768856834966783
20
31.513141136132958
0
LWPOLYLINE
5
130
100
AcDbEntity
8
0
100
AcDbPolyline
90
8
70
1
43
0.0
10
70.793856834966832
20
11.96314113613294
42
0.41421356237308982
10
71.293856834966817
20
12.463141136132947
10
71.293856834966789
20
25.463141136132922
42
0.41421356237307161
10
70.793856834966817
20
25.963141136132926
10
57.79385683496681
20
25.963141136132926
42
0.41421356237309503
10
57.293856834966803
20
25.463141136132919
10
57.29385683496681
20
12.463141136132956
42
0.41421356237307944
10
57.793856834966775
20
11.96314113613294
0
LWPOLYLINE
5
131
100
AcDbEntity
8
0
100
AcDbPolyline
90
8
70
1
43
0.0
10
23.168856834966718
20
31.013141136132951
10
10.168856834966746
20
31.013141136132951
42
-0.41421356237309243
10
9.6688568349667392
20
31.513141136132955
10
9.6688568349667481
20
44.51314113613293
42
-0.41421356237309892
10
10.168856834966753
20
45.01314113613293
10
23.168856834966718
20
45.013141136132937
42
-0.41421356237308982
10
23.668856834966725
20
44.513141136132937
10
23.668856834966725
20
31.513141136132958
42
-0.41421356237309503
0
LWPOLYLINE
5
132
100
AcDbEntity
8
0
100
AcDbPolyline
90
8
70
1
43
0.0
10
-23.168643165033274
20
-12.136858863867062
10
-10.168643165033231
20
-12.136858863867078
42
-0.4142135623730937
10
-9.6686431650332398
20
-12.636858863867067
10
-9.6686431650332239
20
-25.636858863867005
42
-0.4142135623730937
10
-10.168643165033229
20
-26.136858863867012
10
-23.168643165033274
20
-26.136858863867026
42
-0.41421356237308721
10
-23.668643165033295
20
-25.636858863867019
10
-23.668643165033281
20
-12.636858863867069
42
-0.41421356237309503
0
LWPOLYLINE
5
133
100
AcDbEntity
8
0
100
AcDbPolyline
90
8
70
1
43
0.0
10
-57.293643165033252
20
6.4131411361329738
42
0.41421356237310281
10
-57.793643165033266
20
6.9131411361329809
10
-70.793643165033288
20
6.9131411361329853
42
0.41421356237308982
10
-71.293643165033288
20
6.4131411361329782
10
-71.293643165033259
20
-6.58685886386706
42
0.41421356237307683
10
-70.793643165033302
20
-7.086858863867036
10
-57.793643165033266
20
-7.0868588638670627
42
0.41421356237310025
10
-57.293643165033252
20
-6.5868588638670644
0
LWPOLYLINE
5
134
100
AcDbEntity
8
0
100
AcDbPolyline
90
8
70
1
43
0.0
10
-67.318643165033279
20
-26.136858863867012
42
0.41421356237310281
10
-66.818643165033251
20
-25.636858863867008
10
-66.818643165033251
20
-12.63685886386703
42
0.41421356237310281
10
-67.318643165033279
20
-12.136858863866991
10
-80.318643165033293
20
-12.136858863867062
42
0.41421356237309503
10
-80.818643165033265
20
-12.636858863867033
10
-80.818643165033265
20
-25.636858863867037
42
0.41421356237308721
10
-80.318643165033293
20
-26.136858863867012
0
LWPOLYLINE
5
135
100
AcDbEntity
8
0
100
AcDbPolyline
90
8
70
1
43
0.0
10
-42.718643165033257
20
-25.636858863867005
42
0.41421356237310025
10
-42.218643165033242
20
-26.136858863867012
10
-29.218643165033239
20
-26.136858863867015
42
0.41421356237309243
10
-28.718643165033235
20
-25.636858863867005
10
-28.718643165033235
20
-12.636858863867069
42
0.41421356237309503
10
-29.218643165033242
20
-12.136858863867062
10
-42.218643165033257
20
-12.136858863867062
42
0.41421356237308982
10
-42.718643165033221
20
-12.636858863867033
0
LWPOLYLINE
5
136
100
AcDbEntity
8
0
100
AcDbPolyline
90
8
70
1
43
0.0
10
-89.843643165033242
20
6.9131411361329498
10
-76.843643165033214
20
6.9131411361329498
42
-0.41421356237309631
10
-76.343643165033257
20
6.4131411361329587
10
-76.343643165033228
20
-6.5868588638670644
42
-0.41421356237308982
10
-76.843643165033228
20
-7.0868588638670715
10
-89.843643165033242
20
-7.0868588638670538
42
-0.41421356237305929
10
-90.343643165033228
20
-6.5868588638670547
10
-90.343643165033228
20
6.4131411361329782
42
-0.41421356237310542
0
LWPOLYLINE
5
137
100
AcDbEntity
8
0
100
AcDbPolyline
90
8
70
1
43
0.0
10
-127.94364316503328
20
6.9131411361329498
10
-114.94364316503322
20
6.9131411361329675
42
-0.41421356237310281
10
-114.44364316503324
20
6.4131411361329649
10
-114.44364316503324
20
-6.5868588638670644
42
-0.41421356237310542
10
-114.94364316503322
20
-7.086858863867036
10
-127.94364316503328
20
-7.0868588638670538
42
-0.41421356237307294
10
-128.44364316503328
20
-6.5868588638670484
10
-128.44364316503328
20
6.4131411361329782
42
-0.41421356237306384
0
LWPOLYLINE
5
138
100
AcDbEntity
8
0
100
AcDbPolyline
90
8
70
1
43
0.0
10
-52.243643165033262
20
-6.58685886386706
42
0.41421356237310281
10
-51.743643165033248
20
-7.0868588638670671
10
-38.743643165033241
20
-7.086858863867076
42
0.41421356237309243
10
-38.243643165033241
20
-6.5868588638670653
10
-38.243643165033234
20
6.4131411361329818
42
0.41421356237309309
10
-38.743643165033248
20
6.9131411361329498
10
-51.743643165033248
20
6.9131411361329764
42
0.41421356237310025
10
-52.243643165033262
20
6.4131411361329782
0
LWPOLYLINE
5
139
100
AcDbEntity
8
0
100
AcDbPolyline
90
8
70
1
43
0.0
10
-19.19364316503323
20
6.413141136132908
42
0.41421356237309437
10
-19.693643165033237
20
6.9131411361329143
10
-32.693643165033237
20
6.9131411361329453
42
0.41421356237309764
10
-33.193643165033286
20
6.413141136132908
10
-33.193643165033258
20
-6.586858863867068
42
0.41421356237309309
10
-32.693643165033244
20
-7.0868588638670715
10
-19.69364316503324
20
-7.0868588638670698
42
0.41421356237309631
10
-19.19364316503323
20
-6.5868588638670635
0
LWPOLYLINE
5
140
100
AcDbEntity
8
0
100
AcDbPolyline
90
8
70
1
43
0.0
10
24.456356834966758
20
6.9131411361329453
42
0.41421356237309764
10
23.956356834966716
20
6.4131411361329063
10
23.956356834966751
20
-6.5868588638670609
42
0.41421356237309698
10
24.456356834966755
20
-7.0868588638670715
10
37.456356834966734
20
-7.086858863867076
42
0.41421356237309243
10
37.956356834966734
20
-6.5868588638670635
10
37.956356834966734
20
6.413141136132908
42
0.41421356237309437
10
37.456356834966726
20
6.9131411361329143
0
LWPOLYLINE
5
141
100
AcDbEntity
8
0
100
AcDbPolyline
90
8
70
1
43
0.0
10
76.05635683496682
20
6.4131411361329
42
0.41421356237309892
10
75.55635683496682
20
6.9131411361329063
10
62.556356834966813
20
6.9131411361329498
42
0.41421356237309503
10
62.056356834966735
20
6.4131411361329071
10
62.05635683496677
20
-6.5868588638670627
42
0.41421356237309631
10
62.556356834966742
20
-7.086858863867036
10
75.556356834966735
20
-7.0868588638670627
42
0.41421356237310025
10
76.056356834966749
20
-6.5868588638670644
0
LWPOLYLINE
5
142
100
AcDbEntity
8
0
100
AcDbPolyline
90
8
70
1
43
0.0
10
80.318856834966823
20
31.013141136132987
10
67.31885683496678
20
31.013141136132958
42
-0.41421356237307944
10
66.818856834966823
20
31.513141136132965
10
66.818856834966795
20
44.51314113613293
42
-0.41421356237310025
10
67.318856834966795
20
45.013141136132916
10
80.318856834966823
20
45.013141136132937
42
-0.41421356237303258
10
80.818856834966795
20
44.51314113613293
10
80.818856834966795
20
31.513141136132958
42
-0.41421356237309503
0
LWPOLYLINE
5
143
100
AcDbEntity
8
0
100
AcDbPolyline
90
8
70
1
43
0.0
10
99.868856834966778
20
44.513141136132944
42
0.41421356237307422
10
99.368856834966778
20
45.013141136132944
10
86.368856834966792
20
45.013141136132916
42
0.41421356237309503
10
85.86885683496682
20
44.51314113613293
10
85.868856834966806
20
31.513141136132976
42
0.41421356237310542
10
86.368856834966792
20
31.013141136132951
10
99.368856834966778
20
31.013141136132933
42
0.4142135623730846
10
99.868856834966806
20
31.513141136132958
0
LWPOLYLINE
5
144
100
AcDbEntity
8
0
100
AcDbPolyline
90
8
70
1
43
0.0
10
-119.20614316503324
20
25.46314113613299
10
-119.20614316503324
20
12.463141136132947
42
-0.41421356237309503
10
-119.7061431650333
20
11.963141136132958
10
-132.7061431650333
20
11.96314113613294
42
-0.41421356237309631
10
-133.20614316503332
20
12.463141136132949
10
-133.20614316503332
20
25.46314113613299
42
-0.41421356237309503
10
-132.70614316503324
20
25.963141136132979
10
-119.7061431650333
20
25.963141136132997
42
-0.4142135623730846
0
LWPOLYLINE
5
145
100
AcDbEntity
8
0
100
AcDbPolyline
90
8
70
1
43
0.0
10
-43.506143165033244
20
11.96314113613294
42
0.41421356237308982
10
-43.006143165033244
20
12.463141136132947
10
-43.006143165033272
20
25.463141136132993
42
0.41421356237307161
10
-43.506143165033251
20
25.963141136132961
10
-56.506143165033258
20
25.963141136133004
42
0.41421356237309503
10
-57.006143165033265
20
25.46314113613299
10
-57.006143165033265
20
12.463141136132943
42
0.41421356237309243
10
-56.506143165033258
20
11.963141136132975
0
LWPOLYLINE
5
146
100
AcDbEntity
8
0
100
AcDbPolyline
90
8
70
1
43
0.0
10
-90.631143165033308
20
44.513141136132937
42
0.41421356237305862
10
-91.131143165033265
20
45.013141136132937
10
-104.13114316503324
20
45.013141136132958
42
0.41421356237311585
10
-104.63114316503329
20
44.51314113613293
10
-104.63114316503321
20
31.513141136132976
42
0.41421356237309503
10
-104.13114316503324
20
31.013141136132987
10
-91.131143165033265
20
31.013141136132987
42
0.4142135623730534
10
-90.631143165033222
20
31.513141136132958
0
LWPOLYLINE
5
147
100
AcDbEntity
8
0
100
AcDbPolyline
90
8
70
1
43
0.0
10
-161.78114316503326
20
31.513141136132973
42
0.41421356237314444
10
-161.28114316503326
20
31.013141136132965
10
-148.28114316503326
20
31.013141136132951
42
0.4142135623730846
10
-147.78114316503326
20
31.513141136132958
10
-147.78114316503326
20
44.513141136132944
42
0.41421356237310542
10
-148.28114316503326
20
45.013141136132937
10
-161.28114316503326
20
45.013141136132973
42
0.41421356237309503
10
-161.78114316503328
20
44.51314113613293
0
LWPOLYLINE
5
148
100
AcDbEntity
8
0
100
AcDbPolyline
90
8
70
1
43
0.0
10
-27.931143165033241
20
45.013141136132937
10
-14.931143165033234
20
45.013141136132937
42
-0.41421356237308982
10
-14.431143165033227
20
44.513141136132937
10
-14.431143165033227
20
31.513141136132958
42
-0.41421356237309764
10
-14.931143165033237
20
31.013141136132951
10
-27.931143165033241
20
31.013141136132948
42
-0.41421356237309243
10
-28.431143165033252
20
31.513141136132955
10
-28.431143165033284
20
44.51314113613293
42
-0.41421356237311585
0
LWPOLYLINE
5
149
100
AcDbEntity
8
0
100
AcDbPolyline
90
8
70
1
43
0.0
10
-9.3811431650332722
20
31.513141136132958
10
-9.3811431650332633
20
44.51314113613293
42
-0.41421356237309892
10
-8.881143165033258
20
45.01314113613293
10
4.1188568349667776
20
45.013141136132937
42
-0.41421356237308982
10
4.6188568349667847
20
44.513141136132937
10
4.6188568349667847
20
31.513141136132958
42
-0.4142135623730937
10
4.1188568349667793
20
31.013141136132951
10
-8.8811431650332651
20
31.013141136132951
42
-0.41421356237309503
0
LWPOLYLINE
5
150
100
AcDbEntity
8
0
100
AcDbPolyline
90
8
70
1
43
0.0
10
148.28135683496674
20
-31.186858863867108
42
0.41421356237309503
10
147.78135683496674
20
-31.686858863867116
10
147.78135683496674
20
-44.686858863867094
42
0.41421356237311063
10
148.28135683496674
20
-45.18685886386713
10
161.28135683496677
20
-45.18685886386713
42
0.41421356237309503
10
161.78135683496669
20
-44.686858863867087
10
161.78135683496677
20
-31.686858863867094
42
0.41421356237310281
10
161.28135683496674
20
-31.186858863867037
0
LWPOLYLINE
5
151
100
AcDbEntity
8
0
100
AcDbPolyline
90
8
70
1
43
0.0
10
-142.23114316503327
20
45.013141136132973
42
0.41421356237310025
10
-142.73114316503333
20
44.513141136132937
10
-142.73114316503325
20
31.513141136132962
42
0.41421356237309764
10
-142.23114316503325
20
31.013141136132987
10
-129.23114316503325
20
31.013141136132951
42
0.41421356237309503
10
-128.73114316503322
20
31.513141136132958
10
-128.73114316503322
20
44.51314113613293
42
0.41421356237310542
10
-129.23114316503325
20
45.013141136132937
0
LWPOLYLINE
5
152
100
AcDbEntity
8
0
100
AcDbPolyline
90
8
70
1
43
0.0
10
-72.081143165033254
20
31.013141136132987
10
-85.081143165033254
20
31.013141136133004
42
-0.41421356237306639
10
-85.581143165033268
20
31.513141136132997
10
-85.581143165033296
20
44.51314113613293
42
-0.41421356237310542
10
-85.081143165033254
20
45.013141136132958
10
-72.081143165033268
20
45.013141136132958
42
-0.41421356237311063
10
-71.581143165033268
20
44.513141136132958
10
-71.581143165033268
20
31.513141136132958
42
-0.41421356237306384
0
LWPOLYLINE
5
153
100
AcDbEntity
8
0
100
AcDbPolyline
90
8
70
1
43
0.0
10
14.431356834966742
20
-25.636858863867005
10
14.431356834966742
20
-12.636858863867069
42
-0.4142135623730937
10
14.931356834966747
20
-12.136858863867062
10
27.931356834966792
20
-12.136858863867088
42
-0.41421356237308982
10
28.431356834966806
20
-12.636858863867095
10
28.431356834966795
20
-25.636858863867005
42
-0.41421356237310025
10
27.931356834966785
20
-26.136858863867008
10
14.931356834966749
20
-26.136858863867012
42
-0.41421356237309503
0
LWPOLYLINE
5
154
100
AcDbEntity
8
0
100
AcDbPolyline
90
8
70
1
43
0.0
10
33.981356834966761
20
-12.136858863867062
10
46.981356834966732
20
-12.136858863867062
42
-0.41421356237309243
10
47.481356834966739
20
-12.636858863867065
10
47.481356834966746
20
-25.636858863867111
42
-0.41421356237307944
10
46.981356834966725
20
-26.13685886386709
10
33.981356834966761
20
-26.136858863867008
42
-0.41421356237309764
10
33.481356834966796
20
-25.636858863867037
10
33.481356834966753
20
-12.636858863867069
42
-0.41421356237309503
0
LWPOLYLINE
5
155
100
AcDbEntity
8
0
100
AcDbPolyline
90
8
70
1
43
0.0
10
-157.0186431650333
20
12.463141136132947
10
-157.0186431650333
20
25.46314113613299
42
-0.41421356237304302
10
-156.51864316503332
20
25.963141136132997
10
-143.51864316503332
20
25.963141136132979
42
-0.41421356237310281
10
-143.0186431650333
20
25.463141136132993
10
-143.01864316503324
20
12.463141136132947
42
-0.41421356237309503
10
-143.51864316503332
20
11.963141136132958
10
-156.5186431650333
20
11.963141136132975
42
-0.41421356237306384
0
LWPOLYLINE
5
156
100
AcDbEntity
8
0
100
AcDbPolyline
90
8
70
1
43
0.0
10
-94.606143165033245
20
25.963141136132997
10
-81.606143165033259
20
25.963141136132961
42
-0.41421356237311585
10
-81.106143165033274
20
25.463141136132972
10
-81.106143165033231
20
12.463141136132947
42
-0.41421356237310542
10
-81.606143165033259
20
11.96314113613294
10
-94.606143165033231
20
11.963141136132958
42
-0.41421356237307549
10
-95.106143165033231
20
12.463141136132966
10
-95.106143165033231
20
25.46314113613299
42
-0.41421356237304302
0
LWPOLYLINE
5
157
100
AcDbEntity
8
0
100
AcDbPolyline
90
8
70
1
43
0.0
10
-5.4061431650332246
20
11.963141136132938
42
0.41421356237309176
10
-4.9061431650332192
20
12.463141136132945
10
-4.9061431650332166
20
25.463141136132922
42
0.41421356237309243
10
-5.4061431650332281
20
25.963141136132926
10
-18.406143165033271
20
25.963141136132926
42
0.41421356237309503
10
-18.906143165033278
20
25.463141136132919
10
-18.906143165033274
20
12.46314113613295
42
0.41421356237309764
10
-18.406143165033271
20
11.96314113613294
0
LWPOLYLINE
5
158
100
AcDbEntity
8
0
100
AcDbPolyline
90
8
70
1
43
0.0
10
0.6438568349667384
20
25.963141136132926
42
0.41421356237309115
10
0.1438568349667313
20
25.463141136132922
10
0.14385683496673574
20
12.463141136132949
42
0.41421356237309631
10
0.64385683496674062
20
11.96314113613294
10
13.64385683496671
20
11.96314113613294
42
0.41421356237309631
10
14.143856834966719
20
12.463141136132947
10
14.143856834966723
20
25.463141136132922
42
0.41421356237309243
10
13.643856834966712
20
25.963141136132926
0
LWPOLYLINE
5
159
100
AcDbEntity
8
0
100
AcDbPolyline
90
8
70
1
43
0.0
10
142.73135683496687
20
25.463141136132922
42
0.41421356237309243
10
142.23135683496685
20
25.963141136132929
10
129.23135683496687
20
25.963141136132908
42
0.4142135623730846
10
128.73135683496685
20
25.463141136132919
10
128.73135683496682
20
12.463141136132894
42
0.41421356237310542
10
129.23135683496682
20
11.963141136132904
10
142.23135683496685
20
11.963141136132869
42
0.41421356237309503
10
142.73135683496685
20
12.463141136132876
0
LWPOLYLINE
5
160
100
AcDbEntity
8
0
100
AcDbPolyline
90
8
70
1
43
0.0
10
28.718856834966754
20
31.513141136132962
42
0.41421356237310281
10
29.218856834966765
20
31.013141136132955
10
42.218856834966793
20
31.013141136132951
42
0.41421356237310025
10
42.718856834966807
20
31.513141136132958
10
42.718856834966765
20
44.513141136132923
42
0.41421356237310025
10
42.2188568349668
20
45.013141136132901
10
29.218856834966786
20
45.013141136132916
42
0.41421356237311063
10
28.718856834966751
20
44.51314113613293
0
LWPOLYLINE
5
161
100
AcDbEntity
8
0
100
AcDbPolyline
90
8
70
1
43
0.0
10
19.693856834966759
20
25.963141136132926
42
0.41421356237310153
10
19.193856834966748
20
25.463141136132915
10
19.193856834966745
20
12.463141136132947
42
0.41421356237309503
10
19.693856834966752
20
11.96314113613294
10
32.693856834966802
20
11.963141136132936
42
0.41421356237309243
10
33.193856834966802
20
12.463141136132947
10
33.193856834966773
20
25.463141136132915
42
0.41421356237309764
10
32.693856834966795
20
25.96314113613289
0
LWPOLYLINE
5
162
100
AcDbEntity
8
0
100
AcDbPolyline
90
8
70
1
43
0.0
10
113.65635683496677
20
11.963141136132904
10
100.65635683496673
20
11.96314113613294
42
-0.41421356237309631
10
100.15635683496672
20
12.463141136132949
10
100.15635683496672
20
25.463141136132919
42
-0.41421356237309503
10
100.65635683496673
20
25.963141136132926
10
113.65635683496677
20
25.96314113613289
42
-0.41421356237309764
10
114.15635683496674
20
25.463141136132915
10
114.15635683496674
20
12.463141136132876
42
-0.41421356237309503
0
LWPOLYLINE
5
163
100
AcDbEntity
8
0
100
AcDbPolyline
90
8
70
1
43
0.0
10
76.8438568349668
20
25.963141136132926
42
0.41421356237310281
10
76.343856834966772
20
25.463141136132922
10
76.343856834966772
20
12.463141136132943
42
0.41421356237309243
10
76.843856834966786
20
11.96314113613294
10
89.843856834966815
20
11.963141136132975
42
0.41421356237310542
10
90.3438568349668
20
12.463141136132947
10
90.343856834966815
20
25.463141136132904
42
0.41421356237310281
10
89.843856834966829
20
25.963141136132926
0
LWPOLYLINE
5
164
100
AcDbEntity
8
0
100
AcDbPolyline
90
8
70
1
43
0.0
10
-109.39364316503331
20
-6.5868588638670396
42
0.41421356237311974
10
-108.89364316503324
20
-7.0868588638670467
10
-95.893643165033282
20
-7.0868588638670538
42
0.41421356237309503
10
-95.393643165033225
20
-6.5868588638670644
10
-95.393643165033296
20
6.4131411361329409
42
0.41421356237305473
10
-95.893643165033282
20
6.9131411361329498
10
-108.89364316503324
20
6.9131411361329675
42
0.41421356237309503
10
-109.3936431650333
20
6.4131411361329782
0
LWPOLYLINE
5
165
100
AcDbEntity
8
0
100
AcDbPolyline
90
8
70
1
43
0.0
10
-48.268643165033247
20
-26.136858863867047
42
0.41421356237309243
10
-47.768643165033247
20
-25.636858863867037
10
-47.768643165033247
20
-12.636858863867037
42
0.41421356237309764
10
-48.268643165033254
20
-12.136858863866991
10
-61.268643165033261
20
-12.136858863867062
42
0.41421356237309503
10
-61.768643165033232
20
-12.636858863867033
10
-61.768643165033282
20
-25.636858863867019
42
0.41421356237308721
10
-61.268643165033261
20
-26.136858863867047
0
LWPOLYLINE
5
166
100
AcDbEntity
8
0
100
AcDbPolyline
90
8
70
1
43
0.0
10
-159.39989316503323
20
-6.5868588638670547
42
0.41421356237305929
10
-158.89989316503323
20
-7.0868588638670618
10
-141.13739316503327
20
-7.0868588638670715
42
0.41421356237316787
10
-140.63739316503327
20
-6.5868588638670644
10
-140.63739316503333
20
6.4131411361329826
42
0.41421356237306123
10
-141.13739316503327
20
6.9131411361329143
10
-158.89989316503323
20
6.9131411361329498
42
0.41421356237310542
10
-159.39989316503323
20
6.4131411361329791
0
LWPOLYLINE
5
167
100
AcDbEntity
8
0
100
AcDbPolyline
90
8
70
1
43
0.0
10
-99.368643165033291
20
-12.136858863867062
10
-86.368643165033262
20
-12.136858863867044
42
-0.41421356237309892
10
-85.868643165033262
20
-12.63685886386704
10
-85.868643165033248
20
-25.636858863867005
42
-0.4142135623730846
10
-86.368643165033262
20
-26.13685886386703
10
-99.368643165033262
20
-26.136858863867012
42
-0.41421356237307161
10
-99.868643165033262
20
-25.636858863867026
10
-99.868643165033234
20
-12.636858863867033
42
-0.4142135623730846
0
LWPOLYLINE
5
168
100
AcDbEntity
8
0
100
AcDbPolyline
90
8
70
1
43
0.0
10
-14.143643165033277
20
-6.5868588638670662
42
0.4142135623730937
10
-13.643643165033268
20
-7.0868588638670733
10
-0.64364316503322505
20
-7.0868588638670715
42
0.41421356237309492
10
-0.14364316503321817
20
-6.5868588638670653
10
-0.14364316503322039
20
6.4131411361329063
42
0.4142135623730957
10
-0.64364316503322527
20
6.9131411361329143
10
-13.643643165033266
20
6.9131411361329498
42
0.41421356237309631
10
-14.143643165033311
20
6.4131411361329071
0
LWPOLYLINE
5
169
100
AcDbEntity
8
0
100
AcDbPolyline
90
8
70
1
43
0.0
10
52.243856834966785
20
25.463141136132919
42
0.41421356237308982
10
51.743856834966813
20
25.963141136132897
10
38.743856834966763
20
25.963141136132922
42
0.41421356237309503
10
38.243856834966756
20
25.463141136132919
10
38.243856834966756
20
12.463141136132945
42
0.4142135623730937
10
38.743856834966763
20
11.96314113613294
10
51.743856834966813
20
11.96314113613294
42
0.41421356237308982
10
52.243856834966813
20
12.463141136132947
0
LWPOLYLINE
5
170
100
AcDbEntity
8
0
100
AcDbPolyline
90
8
70
1
43
0.0
10
118.41885683496677
20
31.013141136132898
42
0.41421356237308721
10
118.9188568349668
20
31.513141136132909
10
118.91885683496685
20
44.51314113613293
42
0.41421356237313667
10
118.41885683496677
20
45.013141136132901
10
105.41885683496682
20
45.013141136132916
42
0.41421356237310542
10
104.91885683496683
20
44.51314113613293
10
104.91885683496679
20
31.513141136132958
42
0.41421356237309503
10
105.4188568349668
20
31.013141136132951
0
LWPOLYLINE
5
171
100
AcDbEntity
8
0
100
AcDbPolyline
90
8
70
1
43
0.0
10
161.78135683496677
20
44.51314113613293
10
161.78135683496677
20
31.513141136132887
42
-0.41421356237309503
10
161.2813568349668
20
31.013141136132916
10
148.28135683496674
20
31.01314113613288
42
-0.41421356237309503
10
147.78135683496674
20
31.513141136132887
10
147.78135683496683
20
44.51314113613293
42
-0.4142135623730534
10
148.2813568349668
20
45.013141136132887
10
161.2813568349668
20
45.013141136132973
42
-0.4142135623730534
0
LWPOLYLINE
5
172
100
AcDbEntity
8
0
100
AcDbPolyline
90
8
70
1
43
0.0
10
128.73135683496682
20
31.513141136132901
42
0.41421356237310281
10
129.23135683496682
20
31.013141136132887
10
142.23135683496685
20
31.01314113613288
42
0.41421356237309503
10
142.73135683496685
20
31.513141136132887
10
142.73135683496687
20
44.51314113613293
42
0.41421356237309503
10
142.23135683496685
20
45.013141136132901
10
129.23135683496682
20
45.013141136132901
42
0.41421356237309503
10
128.73135683496685
20
44.51314113613293
0
LWPOLYLINE
5
173
100
AcDbEntity
8
0
100
AcDbPolyline
90
8
70
1
43
0.0
10
56.506356834966702
20
-7.0868588638670715
10
43.506356834966766
20
-7.0868588638670271
42
-0.41421356237310153
10
43.006356834966802
20
-6.5868588638670538
10
43.006356834966709
20
6.4131411361329071
42
-0.41421356237309503
10
43.506356834966766
20
6.9131411361329675
10
56.506356834966809
20
6.9131411361329054
42
-0.41421356237309892
10
57.006356834966809
20
6.4131411361329
10
57.006356834966709
20
-6.5868588638670644
42
-0.41421356237309503
0
LWPOLYLINE
5
174
100
AcDbEntity
8
0
100
AcDbPolyline
90
8
70
1
43
0.0
10
-23.956143165033229
20
25.463141136132922
42
0.41421356237308982
10
-24.456143165033236
20
25.963141136132929
10
-37.456143165033225
20
25.963141136133004
42
0.41421356237308721
10
-37.956143165033254
20
25.46314113613299
10
-37.956143165033254
20
12.463141136132949
42
0.41421356237309631
10
-37.456143165033247
20
11.963141136132975
10
-24.456143165033236
20
11.963141136132936
42
0.41421356237309243
10
-23.956143165033232
20
12.463141136132947
0
LWPOLYLINE
5
175
100
AcDbEntity
8
0
100
AcDbPolyline
90
8
70
1
43
0.0
10
-110.18114316503328
20
31.013141136132987
10
-123.18114316503326
20
31.013141136132951
42
-0.41421356237309503
10
-123.68114316503326
20
31.513141136132958
10
-123.6811431650333
20
44.51314113613293
42
-0.41421356237309503
10
-123.18114316503326
20
45.013141136132973
10
-110.18114316503329
20
45.013141136132958
42
-0.41421356237308982
10
-109.68114316503323
20
44.513141136132958
10
-109.68114316503323
20
31.513141136132958
42
-0.4142135623730534
0
LWPOLYLINE
5
176
100
AcDbEntity
8
0
100
AcDbPolyline
90
8
70
1
43
0.0
10
-46.981143165033217
20
45.013141136132973
10
-33.981143165033245
20
45.013141136132937
42
-0.41421356237308982
10
-33.481143165033238
20
44.513141136132937
10
-33.481143165033231
20
31.513141136132958
42
-0.41421356237309243
10
-33.981143165033238
20
31.013141136132948
10
-46.981143165033217
20
31.013141136132958
42
-0.41421356237310025
10
-47.481143165033217
20
31.513141136132965
10
-47.481143165033259
20
44.51314113613293
42
-0.41421356237309503
0
LWPOLYLINE
5
177
100
AcDbEntity
8
0
100
AcDbPolyline
90
8
70
1
43
0.0
10
-4.1186431650332622
20
-12.136858863867062
10
8.8813568349667804
20
-12.136858863867063
42
-0.41421356237309631
10
9.3813568349667857
20
-12.63685886386707
10
9.3813568349667911
20
-25.636858863867005
42
-0.41421356237309309
10
8.881356834966784
20
-26.136858863867015
10
-4.1186431650332622
20
-26.136858863867015
42
-0.41421356237309243
10
-4.6186431650332738
20
-25.636858863867008
10
-4.6186431650332693
20
-12.636858863867069
42
-0.41421356237309503
0
LINE
5
178
100
AcDbEntity
8
0
100
AcDbLine
10
-135.5811523251067
20
5.6131343642989151
30
0
11
-135.5811523251067
21
-5.7868588511670538
31
0
0
SPLINE
5
179
100
AcDbEntity
8
0
100
AcDbSpline
70
0
71
3
72
24
73
20
74
0
42
0.000000001
43
0.0000000001
44
0.0000000001
40
0
40
0
40
0
40
0
40
0.050300778679465516
40
0.050300778679465516
40
0.10028924965398664
40
0.10028924965398664
40
0.15170326982677113
40
0.15170326982677113
40
0.20362433174157987
40
0.20362433174157987
40
0.25385753399103289
40
0.25385753399103289
40
0.30359792369524391
40
0.30359792369524391
40
0.35477216125979383
40
0.35477216125979383
40
0.38186353653371469
40
0.38186353653371469
40
0.40981745573693712
40
0.40981745573693712
40
0.40981745573693712
40
0.40981745573693712
10
-135.5811523251067
20
-5.7868588511670538
30
0
10
-135.5811523251067
20
-5.9545281134319339
30
0
10
-135.61289374097777
20
-6.1193832250247482
30
0
10
-135.73812527331972
20
-6.4286585825553288
30
0
10
-135.82980336278285
20
-6.5693902241667246
30
0
10
-136.06380164428342
20
-6.8121063897343959
30
0
10
-136.20565212003143
20
-6.9109636150279385
30
0
10
-136.52083212095698
20
-7.0482539738991079
30
0
10
-136.69039898630572
20
-7.0844423459935513
30
0
10
-137.0309100299562
20
-7.0889786899812179
30
0
10
-137.1969775631903
20
-7.0594318034460457
30
0
10
-137.50813234000606
20
-6.9380810923205871
30
0
10
-137.64988783109115
20
-6.8483272385031313
30
0
10
-137.89545294832675
20
-6.6177006141808192
30
0
10
-137.99611842353556
20
-6.4772437847094722
30
0
10
-138.10373757613866
20
-6.2389981676751916
30
0
10
-138.13219818606683
20
-6.1529176471361069
30
0
10
-138.17128869093241
20
-5.973211522607258
30
0
10
-138.18114435597801
20
-5.8802881895586268
30
0
10
-138.18114435597801
20
-5.7868588511670538
30
0
0
LINE
5
180
100
AcDbEntity
8
0
100
AcDbLine
10
-138.18114435597801
20
-5.7868588511670538
30
0
11
-138.18114435597801
21
5.6131343642989151
31
0
0
SPLINE
5
181
100
AcDbEntity
8
0
100
AcDbSpline
70
0
71
3
72
24
73
20
74
0
42
0.000000001
43
0.0000000001
44
0.0000000001
40
0
40
0
40
0
40
0
40
0.050298373802938202
40
0.050298373802938202
40
0.10028711158617047
40
0.10028711158617047
40
0.15170244216879794
40
0.15170244216879794
40
0.20362466469176824
40
0.20362466469176824
40
0.25385950202679092
40
0.25385950202679092
40
0.30360209624732071
40
0.30360209624732071
40
0.35478106294011835
40
0.35478106294011835
40
0.38187418638588411
40
0.38187418638588411
40
0.40982957101508977
40
0.40982957101508977
40
0.40982957101508977
40
0.40982957101508977
10
-138.18114435597801
20
5.6131343642989151
30
0
10
-138.18114435597801
20
5.7807956103086866
30
0
10
-138.14940407142171
20
5.9456430936977256
30
0
10
-138.0241773085333
20
6.2549129660719416
30
0
10
-137.93249933246904
20
6.3956463442449518
30
0
10
-137.69849943096244
20
6.6383688471319147
30
0
10
-137.55664585792695
20
6.737230131226255
30
0
10
-137.24145881898878
20
6.874526401584049
30
0
10
-137.0718882879026
20
6.9107167158411187
30
0
10
-136.73136729100116
20
6.9152551292751241
30
0
10
-136.56531311060968
20
6.8857074922514272
30
0
10
-136.25416841836358
20
6.7643579586310665
30
0
10
-136.11241667022352
20
6.6746048216673159
30
0
10
-135.86685080877868
20
6.4439783048798205
30
0
10
-135.76618186124105
20
6.3035175838733437
30
0
10
-135.65856029771612
20
6.0652686659242505
30
0
10
-135.63009925692643
20
5.9791884830546849
30
0
10
-135.5910082817021
20
5.7994841849897227
30
0
10
-135.5811523251067
20
5.7065622826505091
30
0
10
-135.5811523251067
20
5.6131343642989151
30
0
0
LINE
5
182
100
AcDbEntity
8
0
100
AcDbLine
10
122.62886195360259
20
32.31314113930793
30
0
11
122.62886195360259
21
43.713134354773899
31
0
0
SPLINE
5
183
100
AcDbEntity
8
0
100
AcDbSpline
70
0
71
3
72
24
73
20
74
0
42
0.000000001
43
0.0000000001
44
0.0000000001
40
0
40
0
40
0
40
0
40
0.050298360738975055
40
0.050298360738975055
40
0.10028737765437416
40
0.10028737765437416
40
0.15170268871993164
40
0.15170268871993164
40
0.20362352681075116
40
0.20362352681075116
40
0.25385501367014068
40
0.25385501367014068
40
0.30359513396717874
40
0.30359513396717874
40
0.35477036555927122
40
0.35477036555927122
40
0.38186212344522802
40
0.38186212344522802
40
0.40981609351318993
40
0.40981609351318993
40
0.40981609351318993
40
0.40981609351318993
10
122.62886195360259
20
43.713134354773899
30
0
10
122.62886195360259
20
43.880795557237171
30
0
10
122.66060222167106
20
44.04564302127099
30
0
10
122.78582878735399
20
44.354913919901229
30
0
10
122.87750705085195
20
44.49564844668128
30
0
10
123.11150692698341
20
44.738372059975475
30
0
10
123.2533602168089
20
44.83723388668146
30
0
10
123.5685427778845
20
44.974528172189636
30
0
10
123.73810865140079
20
45.010717688784396
30
0
10
124.07861353607636
20
45.015254259569417
30
0
10
124.24467515677456
20
44.985708400468454
30
0
10
124.55582452213442
20
44.864361651008267
30
0
10
124.6975799497168
20
44.774608884890732
30
0
10
124.94314955544752
20
44.543983263984863
30
0
10
125.0438192133462
20
44.403524465248552
30
0
10
125.1514432140241
20
44.165275974131859
30
0
10
125.17990530242777
20
44.079194507604065
30
0
10
125.21899769408655
20
43.899487315680261
30
0
10
125.22885398447379
20
43.806563855174439
30
0
10
125.22885398447379
20
43.713134354773899
30
0
0
LINE
5
184
100
AcDbEntity
8
0
100
AcDbLine
10
125.22885398447379
20
43.713134354773899
30
0
11
125.22885398447379
21
32.31314113930793
31
0
0
SPLINE
5
185
100
AcDbEntity
8
0
100
AcDbSpline
70
0
71
3
72
24
73
20
74
0
42
0.000000001
43
0.0000000001
44
0.0000000001
40
0
40
0
40
0
40
0
40
0.050300791743954375
40
0.050300791743954375
40
0.10028898358973788
40
0.10028898358973788
40
0.15170302330048568
40
0.15170302330048568
40
0.20362546963290168
40
0.20362546963290168
40
0.25386202247221795
40
0.25386202247221795
40
0.30360488612862946
40
0.30360488612862946
40
0.35478285873313431
40
0.35478285873313431
40
0.38187559953185601
40
0.38187559953185601
40
0.40983093327151093
40
0.40983093327151093
40
0.40983093327151093
40
0.40983093327151093
10
125.22885398447379
20
32.31314113930793
30
0
10
125.22885398447379
20
32.14547183349481
30
0
10
125.19711255211455
20
31.980616702537716
30
0
10
125.07188082253386
20
31.671342371265254
30
0
10
124.98020302049262
20
31.530611878243562
30
0
10
124.74620471358485
20
31.287896823009618
30
0
10
124.60435395456237
20
31.189040140246931
30
0
10
124.28916947574116
20
31.051747796600253
30
0
10
124.11959795284041
20
31.01555862690148
30
0
10
123.77907079665484
20
31.011020440321815
30
0
10
123.61301070408707
20
31.040569104864559
30
0
10
123.3018606004304
20
31.16192260029905
30
0
10
123.16010878880554
20
31.251676825005319
30
0
10
122.91454741585532
20
31.482304345251535
30
0
10
122.81388265104233
20
31.62276309698413
30
0
10
122.70626593561438
20
31.861009140821324
30
0
10
122.67780637329274
20
31.947088377664628
30
0
10
122.63871728486187
20
32.12679160822681
30
0
10
122.62886195360259
20
32.21971338303625
30
0
10
122.62886195360259
20
32.31314113930793
30
0
0
LINE
5
186
100
AcDbEntity
8
0
100
AcDbLine
10
73.14885030147596
20
-24.836858846404617
30
0
11
73.14885030147596
21
-13.436865630938613
31
0
0
SPLINE
5
187
100
AcDbEntity
8
0
100
AcDbSpline
70
0
71
3
72
24
73
20
74
0
42
0.000000001
43
0.0000000001
44
0.0000000001
40
0
40
0
40
0
40
0
40
0.050298373802898991
40
0.050298373802898991
40
0.10028711158612533
40
0.10028711158612533
40
0.15170244216879744
40
0.15170244216879744
40
0.20362466469184692
40
0.20362466469184692
40
0.25385950202698948
40
0.25385950202698948
40
0.30360209624762308
40
0.30360209624762308
40
0.35478106294050493
40
0.35478106294050493
40
0.38187418638617959
40
0.38187418638617959
40
0.40982957101527051
40
0.40982957101527051
40
0.40982957101527051
40
0.40982957101527051
10
73.14885030147596
20
-13.436865630938613
30
0
10
73.14885030147596
20
-13.269204384928912
30
0
10
73.180590586032181
20
-13.104356901539838
30
0
10
73.305817348920669
20
-12.795087029165515
30
0
10
73.39749532498513
20
-12.654353650992434
30
0
10
73.631495226491353
20
-12.411631148105826
30
0
10
73.773348799526815
20
-12.312769864011379
30
0
10
74.088535838465049
20
-12.17547359365355
30
0
10
74.258106369551371
20
-12.13928327939648
30
0
10
74.598627366452604
20
-12.134744865962475
30
0
10
74.764681546844088
20
-12.164292502986136
30
0
10
75.075826239090048
20
-12.285642036606319
30
0
10
75.217577987230044
20
-12.375395173569999
30
0
10
75.463143848675116
20
-12.606021690357494
30
0
10
75.563812796212659
20
-12.746482411363971
30
0
10
75.671434359737447
20
-12.984731329312567
30
0
10
75.699895400527339
20
-13.070811512182416
30
0
10
75.738986375751864
20
-13.25051581024784
30
0
10
75.748842332347152
20
-13.343437712587267
30
0
10
75.748842332347152
20
-13.436865630938613
30
0
0
LINE
5
188
100
AcDbEntity
8
0
100
AcDbLine
10
75.748842332347152
20
-13.436865630938611
30
0
11
75.748842332347152
21
-24.836858846404617
31
0
0
SPLINE
5
189
100
AcDbEntity
8
0
100
AcDbSpline
70
0
71
3
72
24
73
20
74
0
42
0.000000001
43
0.0000000001
44
0.0000000001
40
0
40
0
40
0
40
0
40
0.050300778679421239
40
0.050300778679421239
40
0.10028924965387287
40
0.10028924965387287
40
0.15170326982648913
40
0.15170326982648913
40
0.20362433174114045
40
0.20362433174114045
40
0.2538575339904468
40
0.2538575339904468
40
0.30359792369448146
40
0.30359792369448146
40
0.3547721612588457
40
0.3547721612588457
40
0.38186353653250532
40
0.38186353653250532
40
0.40981745573540213
40
0.40981745573540213
40
0.40981745573540213
40
0.40981745573540213
10
75.748842332347152
20
-24.836858846404617
30
0
10
75.748842332347152
20
-25.004528108669355
30
0
10
75.71710091647617
20
-25.169383220262169
30
0
10
75.591869384134156
20
-25.478658577792821
30
0
10
75.500191294671055
20
-25.619390219404217
30
0
10
75.266193013170522
20
-25.862106384971888
30
0
10
75.124342537422393
20
-25.960963610265644
30
0
10
74.809162536496501
20
-26.098253969136884
30
0
10
74.639595671147589
20
-26.134442341231185
30
0
10
74.29908462749782
20
-26.138978685218746
30
0
10
74.133017094263607
20
-26.10943179868368
30
0
10
73.821862317447795
20
-25.988081087558079
30
0
10
73.680106826362646
20
-25.898327233740623
30
0
10
73.434541709126819
20
-25.667700609418027
30
0
10
73.333876233918176
20
-25.52724377994668
30
0
10
73.226257081315424
20
-25.288998162912968
30
0
10
73.197796471387051
20
-25.202917642373741
30
0
10
73.158705966521438
20
-25.023211517844608
30
0
10
73.14885030147596
20
-24.930288184795977
30
0
10
73.14885030147596
20
-24.836858846404617
30
0
0
LINE
5
190
100
AcDbEntity
8
0
100
AcDbLine
10
-49.316155161071471
20
-32.486858863866992
30
0
11
-49.316155161071507
21
-43.886858841642074
31
0
0
SPLINE
5
191
100
AcDbEntity
8
0
100
AcDbSpline
70
0
71
3
72
24
73
20
74
0
42
0.000000001
43
0.0000000001
44
0.0000000001
40
0
40
0
40
0
40
0
40
0.050300778679459972
40
0.050300778679459972
40
0.1002892496539833
40
0.1002892496539833
40
0.15170326982671362
40
0.15170326982671362
40
0.20362433174147096
40
0.20362433174147096
40
0.25385753399086713
40
0.25385753399086713
40
0.30359792369502192
40
0.30359792369502192
40
0.35477216125948136
40
0.35477216125948136
40
0.38186353653334537
40
0.38186353653334537
40
0.4098174557365209
40
0.4098174557365209
40
0.4098174557365209
40
0.4098174557365209
10
-49.316155161071507
20
-43.886858841642038
30
0
10
-49.316155161071507
20
-44.054528103906918
30
0
10
-49.347896576942532
20
-44.219383215499555
30
0
10
-49.47312810928441
20
-44.528658573029887
30
0
10
-49.564806198747355
20
-44.669390214641211
30
0
10
-49.798804480248151
20
-44.912106380209167
30
0
10
-49.940654955996244
20
-45.010963605502852
30
0
10
-50.255834956921994
20
-45.148253964374092
30
0
10
-50.425401822270821
20
-45.184442336468535
30
0
10
-50.76591286592123
20
-45.188978680456202
30
0
10
-50.931980399155279
20
-45.159431793921101
30
0
10
-51.24313517597102
20
-45.038081082795571
30
0
10
-51.384890667056169
20
-44.948327228978115
30
0
10
-51.630455784291911
20
-44.717700604655732
30
0
10
-51.731121259500767
20
-44.577243775184243
30
0
10
-51.838740412103874
20
-44.338998158149856
30
0
10
-51.867201022031963
20
-44.252917637610842
30
0
10
-51.906291526897554
20
-44.073211513082136
30
0
10
-51.916147191943089
20
-43.98028818003354
30
0
10
-51.916147191943089
20
-43.886858841642038
30
0
0
LINE
5
192
100
AcDbEntity
8
0
100
AcDbLine
10
-51.916147191943082
20
-43.886858841642038
30
0
11
-51.916155161071451
21
-32.486858863866992
31
0
0
ARC
5
193
100
AcDbEntity
8
0
100
AcDbCircle
10
-50.616155161071461
20
-32.486858863866992
30
0
40
1.2999999999999901
210
0
220
0
230
1
100
AcDbArc
50
0
51
180
0
LINE
5
194
100
AcDbEntity
8
0
100
AcDbLine
10
-19.436145029274208
20
-32.486858863867027
30
0
11
-19.436152998402605
21
-43.886858841642074
31
0
0
SPLINE
5
195
100
AcDbEntity
8
0
100
AcDbSpline
70
0
71
3
72
24
73
20
74
0
42
0.000000001
43
0.0000000001
44
0.0000000001
40
0
40
0
40
0
40
0
40
0.050300778679459972
40
0.050300778679459972
40
0.10028924965397124
40
0.10028924965397124
40
0.15170326982667484
40
0.15170326982667484
40
0.20362433174139588
40
0.20362433174139588
40
0.25385753399085248
40
0.25385753399085248
40
0.30359792369509336
40
0.30359792369509336
40
0.35477216125965194
40
0.35477216125965194
40
0.38186353653352012
40
0.38186353653352012
40
0.40981745573669009
40
0.40981745573669009
40
0.40981745573669009
40
0.40981745573669009
10
-19.436152998402605
20
-43.886858841642038
30
0
10
-19.436152998402605
20
-44.054528103906918
30
0
10
-19.46789441427363
20
-44.219383215499555
30
0
10
-19.593125946615473
20
-44.528658573029816
30
0
10
-19.684804036078418
20
-44.66939021464114
30
0
10
-19.918802317579249
20
-44.912106380209238
30
0
10
-20.060652793327378
20
-45.010963605502852
30
0
10
-20.375832794253022
20
-45.148253964374057
30
0
10
-20.545399659601813
20
-45.184442336468535
30
0
10
-20.885910703252719
20
-45.188978680456273
30
0
10
-21.051978236486555
20
-45.15943179392103
30
0
10
-21.363133013302047
20
-45.038081082795571
30
0
10
-21.504888504387196
20
-44.948327228978187
30
0
10
-21.750453621623116
20
-44.71770060465559
30
0
10
-21.851119096831866
20
-44.577243775184172
30
0
10
-21.95873824943483
20
-44.338998158150105
30
0
10
-21.987198859363062
20
-44.25291763761102
30
0
10
-22.026289364228688
20
-44.0732115130821
30
0
10
-22.036145029274188
20
-43.980288180033398
30
0
10
-22.036145029274188
20
-43.886858841642038
30
0
0
LINE
5
196
100
AcDbEntity
8
0
100
AcDbLine
10
-22.036145029274191
20
-43.886858841642038
30
0
11
-22.036145029274188
21
-32.486858863867027
31
0
0
ARC
5
197
100
AcDbEntity
8
0
100
AcDbCircle
10
-20.736145029274198
20
-32.486858863867027
30
0
40
1.2999999999999901
210
0
220
0
230
1
100
AcDbArc
50
0
51
180
0
LWPOLYLINE
5
198
100
AcDbEntity
8
0
100
AcDbPolyline
90
12
70
1
43
0.0
10
118.94385683496687
20
22.463141136132876
10
118.94385683496687
20
16.963141136132904
42
0.41421356237313667
10
119.44385683496691
20
16.463141136132986
10
121.94385683496684
20
16.46314113613295
42
-0.414213562373069
10
122.44385683496682
20
15.963141136133006
10
122.44385683496687
20
15.463141136132919
42
-0.41421356237304302
10
121.94385683496692
20
14.963141136132894
10
119.44385683496684
20
14.963141136132894
42
-0.41421356237309115
10
117.44385683496682
20
16.963141136132876
10
117.44385683496682
20
22.463141136132876
42
-0.41421356237318868
10
117.94385683496687
20
22.963141136132901
10
118.44385683496689
20
22.963141136132883
42
-0.41421356237311585
0
LINE
5
199
100
AcDbEntity
8
0
100
AcDbLine
10
-163.30643054356827
20
45.829130990254683
30
0
11
-163.3064305435683
21
-46.829936775744052
31
0
0
ARC
5
200
100
AcDbEntity
8
0
100
AcDbCircle
10
-162.2064305435683
20
-46.829936775744052
30
0
40
1.0999999999999943
210
0
220
0
230
1
100
AcDbArc
50
180
51
270
0
LINE
5
201
100
AcDbEntity
8
0
100
AcDbLine
10
-162.2064305435683
20
-47.929936775744046
30
0
11
-128.88115215723965
21
-47.929936775744082
31
0
0
SPLINE
5
202
100
AcDbEntity
8
0
100
AcDbSpline
70
0
71
3
72
24
73
20
74
0
42
0.000000001
43
0.0000000001
44
0.0000000001
40
0
40
0
40
0
40
0
40
0.038693029290739478
40
0.038693029290739478
40
0.077145406377343018
40
0.077145406377343018
40
0.11669450392901752
40
0.11669450392901752
40
0.1566347940809876
40
0.1566347940809876
40
0.19527878136660776
40
0.19527878136660776
40
0.23354416295822061
40
0.23354416295822061
40
0.27291331427391835
40
0.27291331427391835
40
0.29375335470564684
40
0.29375335470564684
40
0.31525684714589708
40
0.31525684714589708
40
0.31525684714589708
40
0.31525684714589708
10
-128.88115215723965
20
-47.929936775744082
30
0
10
-128.75217539293718
20
-47.929936775744082
30
0
10
-128.62536338828198
20
-47.954353313910048
30
0
10
-128.38746003621799
20
-48.050685630976737
30
0
10
-128.27920611732884
20
-48.121206932931813
30
0
10
-128.09250304985031
20
-48.301205294463827
30
0
10
-128.01645994552405
20
-48.410320873598813
30
0
10
-127.91085100180837
20
-48.652769910529443
30
0
10
-127.88301337864688
20
-48.783209388190798
30
0
10
-127.87952251579082
20
-49.045154791376362
30
0
10
-127.90225282551896
20
-49.172892691169778
30
0
10
-127.99560259427486
20
-49.412242994315463
30
0
10
-128.06464639733076
20
-49.52128679138049
30
0
10
-128.24205677184142
20
-49.710186054336987
30
0
10
-128.35010466705322
20
-49.787622980201363
30
0
10
-128.5333719128283
20
-49.870404742147123
30
0
10
-128.59958424489486
20
-49.89229582810637
30
0
10
-128.73781216866016
20
-49.922363144462949
30
0
10
-128.80928753919079
20
-49.92994389601229
30
0
10
-128.8811521572396
20
-49.92994389601229
30
0
0
LINE
5
203
100
AcDbEntity
8
0
100
AcDbLine
10
-128.8811521572396
20
-49.92994389601229
30
0
11
-144.38115350970173
21
-49.92994389601229
31
0
0
SPLINE
5
204
100
AcDbEntity
8
0
100
AcDbSpline
70
0
71
3
72
16
73
12
74
0
42
0.000000001
43
0.0000000001
44
0.0000000001
40
0
40
0
40
0
40
0
40
0.019344828355203191
40
0.019344828355203191
40
0.038571054711134874
40
0.038571054711134874
40
0.058345829867536884
40
0.058345829867536884
40
0.068479145042279074
40
0.068479145042279074
40
0.078928867930989563
40
0.078928867930989563
40
0.078928867930989563
40
0.078928867930989563
10
-144.38115350970173
20
-49.92994389601229
30
0
10
-144.44563627088573
20
-49.92994389601229
30
0
10
-144.50903700105653
20
-49.942151353573649
30
0
10
-144.62798435035558
20
-49.990313958394097
30
0
10
-144.68211220276254
20
-50.025574235947801
30
0
10
-144.77546584663878
20
-50.115572826805277
30
0
10
-144.81348876435283
20
-50.170130899588017
30
0
10
-144.85322500686482
20
-50.261352949049467
30
0
10
-144.86349540816514
20
-50.293515942730025
30
0
10
-144.87759242871053
20
-50.360542570810551
30
0
10
-144.88114452384511
20
-50.395150368386226
30
0
10
-144.88114452384511
20
-50.429934910155936
30
0
0
LINE
5
205
100
AcDbEntity
8
0
100
AcDbLine
10
-144.88114452384511
20
-50.429934910155936
30
0
11
-144.88114452384511
21
-52.236865960322767
31
0
0
SPLINE
5
206
100
AcDbEntity
8
0
100
AcDbSpline
70
0
71
3
72
16
73
12
74
0
42
0.000000001
43
0.0000000001
44
0.0000000001
40
0
40
0
40
0
40
0
40
0.01934576993430509
40
0.01934576993430509
40
0.038572745731288806
40
0.038572745731288806
40
0.058348339484251215
40
0.058348339484251215
40
0.06848135009508366
40
0.06848135009508366
40
0.078930410408050405
40
0.078930410408050405
40
0.078930410408050405
40
0.078930410408050405
10
-144.88114452384511
20
-52.236865960322731
30
0
10
-144.88114452384511
20
-52.301351860103793
30
0
10
-144.86893660752858
20
-52.364755467696682
30
0
10
-144.82077205915141
20
-52.483708037818388
30
0
10
-144.78551057329113
20
-52.537838138049793
30
0
10
-144.6955092333869
20
-52.631196119718808
30
0
10
-144.64094919620476
20
-52.66922145031053
30
0
10
-144.54972617733998
20
-52.708958972204982
30
0
10
-144.5175643221763
20
-52.719229430657464
30
0
10
-144.45054119445533
20
-52.733326333210755
30
0
10
-144.41593572095181
20
-52.73687850631319
30
0
10
-144.38115350970173
20
-52.73687850631319
30
0
0
LINE
5
207
100
AcDbEntity
8
0
100
AcDbLine
10
-144.38115350970173
20
-52.73687850631319
30
0
11
-105.38114385555168
21
-52.73687850631319
31
0
0
SPLINE
5
208
100
AcDbEntity
8
0
100
AcDbSpline
70
0
71
3
72
16
73
12
74
0
42
0.000000001
43
0.0000000001
44
0.0000000001
40
0
40
0
40
0
40
0
40
0.019345519283254262
40
0.019345519283254262
40
0.038570715656140363
40
0.038570715656140363
40
0.058345241434538876
40
0.058345241434538876
40
0.068479905139455607
40
0.068479905139455607
40
0.078930941800026105
40
0.078930941800026105
40
0.078930941800026105
40
0.078930941800026105
10
-105.38114385555168
20
-52.73687850631319
30
0
10
-105.31665879127416
20
-52.73687850631319
30
0
10
-105.25325629248078
20
-52.724670906335263
30
0
10
-105.1343108049337
20
-52.676507043331853
30
0
10
-105.08018687723016
20
-52.64124816804312
30
0
10
-104.98683718933769
20
-52.55125184772357
30
0
10
-104.94881526408086
20
-52.496694209273045
30
0
10
-104.90907658605295
20
-52.405469377859362
30
0
10
-104.89880459516328
20
-52.373302148624603
30
0
10
-104.88470547914794
20
-52.306266999158311
30
0
10
-104.88115284140802
20
-52.271654831836969
30
0
10
-104.88115284140802
20
-52.236865960322731
30
0
0
LINE
5
209
100
AcDbEntity
8
0
100
AcDbLine
10
-104.88115284140802
20
-52.236865960322739
30
0
11
-104.88115284140802
21
-50.429934910155971
31
0
0
SPLINE
5
210
100
AcDbEntity
8
0
100
AcDbSpline
70
0
71
3
72
16
73
12
74
0
42
0.000000001
43
0.0000000001
44
0.0000000001
40
0
40
0
40
0
40
0
40
0.019347246342939075
40
0.019347246342939075
40
0.038572926676834637
40
0.038572926676834637
40
0.058346410998600051
40
0.058346410998600051
40
0.068479792784466365
40
0.068479792784466365
40
0.078929639671590113
40
0.078929639671590113
40
0.078929639671590113
40
0.078929639671590113
10
-104.88115284140802
20
-50.429934910155936
30
0
10
-104.88115284140802
20
-50.365444089012854
30
0
10
-104.89336144677956
20
-50.302035711101567
30
0
10
-104.94152901841943
20
-50.183083903123844
30
0
10
-104.97678912184533
20
-50.128958936154149
30
0
10
-105.06678611795408
20
-50.035612740053921
30
0
10
-105.12134137682889
20
-49.997594423521932
30
0
10
-105.21256021488702
20
-49.957861695520478
30
0
10
-105.24472353730495
20
-49.947591880379818
30
0
10
-105.31175080470604
20
-49.933495714972693
30
0
10
-105.34635899317922
20
-49.92994389601229
30
0
10
-105.38114385555168
20
-49.92994389601229
30
0
0
LINE
5
211
100
AcDbEntity
8
0
100
AcDbLine
10
-105.38114385555168
20
-49.92994389601229
30
0
11
-120.88114520801348
21
-49.92994389601229
31
0
0
SPLINE
5
212
100
AcDbEntity
8
0
100
AcDbSpline
70
0
71
3
72
24
73
20
74
0
42
0.000000001
43
0.0000000001
44
0.0000000001
40
0
40
0
40
0
40
0
40
0.038691289220475052
40
0.038691289220475052
40
0.077143461354745993
40
0.077143461354745993
40
0.11669358091260799
40
0.11669358091260799
40
0.15663378959738489
40
0.15663378959738489
40
0.19527418076354719
40
0.19527418076354719
40
0.23353545325289904
40
0.23353545325289904
40
0.27289959029996602
40
0.27289959029996602
40
0.29373942222468341
40
0.29373942222468341
40
0.31524278685581492
40
0.31524278685581492
40
0.31524278685581492
40
0.31524278685581492
10
-120.88114520801348
20
-49.92994389601229
30
0
10
-121.01011617208172
20
-49.92994389601229
30
0
10
-121.13692227844766
20
-49.905528379715207
30
0
10
-121.37482033600236
20
-49.809199968351336
30
0
10
-121.48307436375701
20
-49.738679607255349
30
0
10
-121.66978203326117
20
-49.558681946998959
30
0
10
-121.74582928907327
20
-49.449564271313164
30
0
10
-121.85144316788248
20
-49.207114014104434
30
0
10
-121.87928326150809
20
-49.076674973205812
30
0
10
-121.88277527396151
20
-48.814742066861996
30
0
10
-121.86004844637651
20
-48.686996879865561
30
0
10
-121.76670465639333
20
-48.447646539793254
30
0
10
-121.69766468636541
20
-48.33860341650503
30
0
10
-121.52026233442331
20
-48.149705957796165
30
0
10
-121.41222001311753
20
-48.072270191452517
30
0
10
-121.22895397414109
20
-47.989483615887352
30
0
10
-121.16273658132158
20
-47.96758968671444
30
0
10
-121.02449745280245
20
-47.937518457325226
30
0
10
-120.95301596240375
20
-47.929936775744082
30
0
10
-120.88114520801348
20
-47.929936775744082
30
0
0
LINE
5
213
100
AcDbEntity
8
0
100
AcDbLine
10
-120.88114520801349
20
-47.929936775744075
30
0
11
-91.310706406541144
21
-47.929936775744082
31
0
0
SPLINE
5
214
100
AcDbEntity
8
0
100
AcDbSpline
70
0
71
3
72
24
73
20
74
0
42
0.000000001
43
0.0000000001
44
0.0000000001
40
0
40
0
40
0
40
0
40
0.038690611347347137
40
0.038690611347347137
40
0.077143534369345235
40
0.077143534369345235
40
0.1166939227943616
40
0.1166939227943616
40
0.15663398913285878
40
0.15663398913285878
40
0.19527626088711966
40
0.19527626088711966
40
0.23354137298274344
40
0.23354137298274344
40
0.27291151848278411
40
0.27291151848278411
40
0.29375194154491707
40
0.29375194154491707
40
0.31525548486923682
40
0.31525548486923682
40
0.31525548486923682
40
0.31525548486923682
10
-91.310706406541144
20
-47.929936775744082
30
0
10
-91.181737702049958
20
-47.929936775744082
30
0
10
-91.054933344961583
20
-47.954352166103362
30
0
10
-90.817034451810912
20
-48.050679516477111
30
0
10
-90.708777647769082
20
-48.12120099245135
30
0
10
-90.522067132625608
20
-48.301200948574774
30
0
10
-90.446019426955701
20
-48.410319341725767
30
0
10
-90.340406556531136
20
-48.65277093877296
30
0
10
-90.312567788816054
20
-48.783209424609453
30
0
10
-90.309076699098242
20
-49.045148668413994
30
0
10
-90.331805981269497
20
-49.172880656078988
30
0
10
-90.425151788207145
20
-49.412225547577009
30
0
10
-90.494194503435054
20
-49.521269280985578
30
0
10
-90.671603874427817
20
-49.710173032609859
30
0
10
-90.779653739140187
20
-49.787614141516983
30
0
10
-90.962923859194959
20
-49.870400751674566
30
0
10
-91.029137137225703
20
-49.892293316054079
30
0
10
-91.167366128399607
20
-49.922362519144983
30
0
10
-91.238841626438813
20
-49.92994389601229
30
0
10
-91.310706406541087
20
-49.92994389601229
30
0
0
LINE
5
215
100
AcDbEntity
8
0
100
AcDbLine
10
-91.310706406541087
20
-49.92994389601229
30
0
11
-94.381147757769952
21
-49.92994389601229
31
0
0
SPLINE
5
216
100
AcDbEntity
8
0
100
AcDbSpline
70
0
71
3
72
16
73
12
74
0
42
0.000000001
43
0.0000000001
44
0.0000000001
40
0
40
0
40
0
40
0
40
0.019347246342912672
40
0.019347246342912672
40
0.038572926676784372
40
0.038572926676784372
40
0.058346410998562172
40
0.058346410998562172
40
0.068479792784418445
40
0.068479792784418445
40
0.078929639671520446
40
0.078929639671520446
40
0.078929639671520446
40
0.078929639671520446
10
-94.381147757769952
20
-49.92994389601229
30
0
10
-94.44563857891302
20
-49.92994389601229
30
0
10
-94.509046956824307
20
-49.942152501383816
30
0
10
-94.627998764802172
20
-49.990320073023682
30
0
10
-94.682123731771867
20
-50.025580176449651
30
0
10
-94.775469927872024
20
-50.115577172558403
30
0
10
-94.813488244403999
20
-50.170132431433174
30
0
10
-94.853220972405396
20
-50.261351269491144
30
0
10
-94.863490787546084
20
-50.293514591909059
30
0
10
-94.877586952953266
20
-50.360541859310288
30
0
10
-94.881138771913655
20
-50.395150047783623
30
0
10
-94.881138771913655
20
-50.429934910155936
30
0
0
LINE
5
217
100
AcDbEntity
8
0
100
AcDbLine
10
-94.881138771913669
20
-50.429934910155936
30
0
11
-94.881138771913655
21
-52.236865960322767
31
0
0
SPLINE
5
218
100
AcDbEntity
8
0
100
AcDbSpline
70
0
71
3
72
16
73
12
74
0
42
0.000000001
43
0.0000000001
44
0.0000000001
40
0
40
0
40
0
40
0
40
0.019347510104003561
40
0.019347510104003561
40
0.0385746908425613
40
0.0385746908425613
40
0.058349262437738497
40
0.058349262437738497
40
0.068481943809743817
40
0.068481943809743817
40
0.078930990202216333
40
0.078930990202216333
40
0.078930990202216333
40
0.078930990202216333
10
-94.881138771913655
20
-52.236865960322731
30
0
10
-94.881138771913655
20
-52.301357660669439
30
0
10
-94.868929833659934
20
-52.364767166917972
30
0
10
-94.820761379418869
20
-52.483725031799153
30
0
10
-94.785498952685415
20
-52.537855023095617
30
0
10
-94.695496911619244
20
-52.631208402085718
30
0
10
-94.640938971367277
20
-52.669229580674113
30
0
10
-94.549718833906866
20
-52.708962533757244
30
0
10
-94.517557774863604
20
-52.719231669691808
30
0
10
-94.450535425718556
20
-52.733326891988632
30
0
10
-94.415929945250184
20
-52.73687850631319
30
0
10
-94.381147757770023
20
-52.73687850631319
30
0
0
LINE
5
219
100
AcDbEntity
8
0
100
AcDbLine
10
-94.381147757770023
20
-52.736878506313182
30
0
11
-55.381138103620238
21
-52.73687850631319
31
0
0
SPLINE
5
220
100
AcDbEntity
8
0
100
AcDbSpline
70
0
71
3
72
16
73
12
74
0
42
0.000000001
43
0.0000000001
44
0.0000000001
40
0
40
0
40
0
40
0
40
0.019343101452652924
40
0.019343101452652924
40
0.03856884354650969
40
0.03856884354650969
40
0.058344660234424098
40
0.058344660234424098
40
0.06847925735722156
40
0.06847925735722156
40
0.078930170041039999
40
0.078930170041039999
40
0.078930170041039999
40
0.078930170041039999
10
-55.381138103620273
20
-52.73687850631319
30
0
10
-55.316661098778077
20
-52.73687850631319
30
0
10
-55.253266247155572
20
-52.724672054125037
30
0
10
-55.134325219051092
20
-52.676513157592026
30
0
10
-55.080198406936063
20
-52.641254108570621
30
0
10
-54.986841271868485
20
-52.551256194105775
30
0
10
-54.9488147451153
20
-52.496695741552131
30
0
10
-54.909072552091516
20
-52.405467698612469
30
0
10
-54.898799974875843
20
-52.373300798063269
30
0
10
-54.884700003477747
20
-52.30626628780044
30
0
10
-54.881147089476592
20
-52.271654511311922
30
0
10
-54.881147089476592
20
-52.236865960322731
30
0
0
LINE
5
221
100
AcDbEntity
8
0
100
AcDbLine
10
-54.881147089476592
20
-52.236865960322739
30
0
11
-54.881147089476592
21
-48.429927789887799
31
0
0
SPLINE
5
222
100
AcDbEntity
8
0
100
AcDbSpline
70
0
71
3
72
16
73
12
74
0
42
0.000000001
43
0.0000000001
44
0.0000000001
40
0
40
0
40
0
40
0
40
0.019343088391375361
40
0.019343088391375361
40
0.038569109590213008
40
0.038569109590213008
40
0.058344906847634811
40
0.058344906847634811
40
0.068478551314521588
40
0.068478551314521588
40
0.078928288143293932
40
0.078928288143293932
40
0.078928288143293932
40
0.078928288143293932
10
-54.881147089476592
20
-48.429927789887799
30
0
10
-54.881147089476592
20
-48.365450828583221
30
0
10
-54.868940653773066
20
-48.302055996301974
30
0
10
-54.820781954360385
20
-48.183113942063258
30
0
10
-54.785522617923164
20
-48.128985981473491
30
0
10
-54.695524728709444
20
-48.035627735836357
30
0
10
-54.640964559113385
20
-47.997600666252325
30
0
10
-54.54973962839194
20
-47.957859854754545
30
0
10
-54.517575838448593
20
-47.947588130765872
30
0
10
-54.450548431609676
20
-47.933489429744469
30
0
10
-54.415940640934934
20
-47.929936775744082
30
0
10
-54.38115607533291
20
-47.929936775744082
30
0
0
LINE
5
223
100
AcDbEntity
8
0
100
AcDbLine
10
-54.38115607533291
20
-47.929936775744082
30
0
11
6.5987780931786588
21
-47.929936775744082
31
0
0
SPLINE
5
224
100
AcDbEntity
8
0
100
AcDbSpline
70
0
71
3
72
24
73
20
74
0
42
0.000000001
43
0.0000000001
44
0.0000000001
40
0
40
0
40
0
40
0
40
0.03869302929075083
40
0.03869302929075083
40
0.077145406377380182
40
0.077145406377380182
40
0.11669450392907919
40
0.11669450392907919
40
0.15663479408108152
40
0.15663479408108152
40
0.19527878136675311
40
0.19527878136675311
40
0.23354416295842145
40
0.23354416295842145
40
0.27291331427418769
40
0.27291331427418769
40
0.29375335470594333
40
0.29375335470594333
40
0.31525684714620011
40
0.31525684714620011
40
0.31525684714620011
40
0.31525684714620011
10
6.5987780931786588
20
-47.929936775744082
30
0
10
6.7277548574811874
20
-47.929936775744082
30
0
10
6.8545668621362665
20
-47.954353313910083
30
0
10
7.0924702142002616
20
-48.050685630976737
30
0
10
7.200724133089409
20
-48.121206932931813
30
0
10
7.3874272005679131
20
-48.301205294463827
30
0
10
7.4634703048942086
20
-48.410320873598813
30
0
10
7.5690792486098957
20
-48.652769910529514
30
0
10
7.5969168717713842
20
-48.783209388190869
30
0
10
7.6004077346274102
20
-49.045154791376362
30
0
10
7.5776774248992851
20
-49.172892691169778
30
0
10
7.4843276561433925
20
-49.412242994315463
30
0
10
7.4152838530874732
20
-49.52128679138049
30
0
10
7.2378734785768373
20
-49.710186054336987
30
0
10
7.1298255833650614
20
-49.787622980201363
30
0
10
6.9465583375900408
20
-49.870404742147052
30
0
10
6.8803460055234211
20
-49.89229582810637
30
0
10
6.7421180817581217
20
-49.922363144462878
30
0
10
6.6706427112274724
20
-49.92994389601229
30
0
10
6.5987780931786588
20
-49.92994389601229
30
0
0
LINE
5
225
100
AcDbEntity
8
0
100
AcDbLine
10
6.5987780931786588
20
-49.92994389601229
30
0
11
5.6188422142460581
21
-49.92994389601229
31
0
0
SPLINE
5
226
100
AcDbEntity
8
0
100
AcDbSpline
70
0
71
3
72
16
73
12
74
0
42
0.000000001
43
0.0000000001
44
0.0000000001
40
0
40
0
40
0
40
0
40
0.01934482835522074
40
0.01934482835522074
40
0.038571054711184882
40
0.038571054711184882
40
0.05834582986752701
40
0.05834582986752701
40
0.068479145042222411
40
0.068479145042222411
40
0.078928867930939159
40
0.078928867930939159
40
0.078928867930939159
40
0.078928867930939159
10
5.6188422142460581
20
-49.92994389601229
30
0
10
5.5543594530620055
20
-49.92994389601229
30
0
10
5.4909587228912926
20
-49.942151353573649
30
0
10
5.3720113735922936
20
-49.990313958394026
30
0
10
5.3178835211852515
20
-50.02557423594773
30
0
10
5.2245298773087967
20
-50.115572826805383
30
0
10
5.1865069595946522
20
-50.170130899588159
30
0
10
5.1467707170826671
20
-50.26135294904968
30
0
10
5.1365003157823708
20
-50.293515942730309
30
0
10
5.1224032952369924
20
-50.360542570810765
30
0
10
5.1188512001024833
20
-50.395150368386439
30
0
10
5.1188512001024833
20
-50.429934910155936
30
0
0
LINE
5
227
100
AcDbEntity
8
0
100
AcDbLine
10
5.1188512001024833
20
-50.429934910155936
30
0
11
5.1188512001024833
21
-52.236865960322767
31
0
0
SPLINE
5
228
100
AcDbEntity
8
0
100
AcDbSpline
70
0
71
3
72
16
73
12
74
0
42
0.000000001
43
0.0000000001
44
0.0000000001
40
0
40
0
40
0
40
0
40
0.019345769934283056
40
0.019345769934283056
40
0.038572745731289854
40
0.038572745731289854
40
0.058348339484304311
40
0.058348339484304311
40
0.068481350095144999
40
0.068481350095144999
40
0.07893041040809648
40
0.07893041040809648
40
0.07893041040809648
40
0.07893041040809648
10
5.1188512001024833
20
-52.236865960322731
30
0
10
5.1188512001024833
20
-52.301351860103722
30
0
10
5.1310591164189745
20
-52.36475546769654
30
0
10
5.1792236647961687
20
-52.483708037818211
30
0
10
5.2144851506565004
20
-52.53783813804958
30
0
10
5.3044864905604783
20
-52.631196119718524
30
0
10
5.3590465277426702
20
-52.669221450310317
30
0
10
5.4502695466075224
20
-52.708958972204911
30
0
10
5.4824314017712084
20
-52.719229430657393
30
0
10
5.5494545294925501
20
-52.733326333210826
30
0
10
5.5840600029961251
20
-52.73687850631319
30
0
10
5.6188422142460581
20
-52.73687850631319
30
0
0
LINE
5
229
100
AcDbEntity
8
0
100
AcDbLine
10
5.618842214246059
20
-52.73687850631319
30
0
11
44.618851868395879
21
-52.736878506313261
31
0
0
SPLINE
5
230
100
AcDbEntity
8
0
100
AcDbSpline
70
0
71
3
72
16
73
12
74
0
42
0.000000001
43
0.0000000001
44
0.0000000001
40
0
40
0
40
0
40
0
40
0.019345519283230032
40
0.019345519283230032
40
0.038570715656112885
40
0.038570715656112885
40
0.058345241434642953
40
0.058345241434642953
40
0.068479905139696096
40
0.068479905139696096
40
0.078930941800448282
40
0.078930941800448282
40
0.078930941800448282
40
0.078930941800448282
10
44.618851868395879
20
-52.736878506313225
30
0
10
44.683336932673292
20
-52.736878506313225
30
0
10
44.746739431466693
20
-52.724670906335369
30
0
10
44.865684919013873
20
-52.676507043331959
30
0
10
44.919808846717473
20
-52.641248168043013
30
0
10
45.013158534609801
20
-52.551251847723712
30
0
10
45.051180459866487
20
-52.496694209273329
30
0
10
45.090919137894439
20
-52.405469377859717
30
0
10
45.101191128784102
20
-52.373302148624887
30
0
10
45.115290244799553
20
-52.306266999158488
30
0
10
45.118842882539454
20
-52.271654831837111
30
0
10
45.118842882539454
20
-52.236865960322838
30
0
0
LINE
5
231
100
AcDbEntity
8
0
100
AcDbLine
10
45.118842882539454
20
-52.236865960322845
30
0
11
45.118842882539454
21
-50.429934910156042
31
0
0
SPLINE
5
232
100
AcDbEntity
8
0
100
AcDbSpline
70
0
71
3
72
16
73
12
74
0
42
0.000000001
43
0.0000000001
44
0.0000000001
40
0
40
0
40
0
40
0
40
0.019347246342957241
40
0.019347246342957241
40
0.038572926676869367
40
0.038572926676869367
40
0.058346410998642927
40
0.058346410998642927
40
0.068479792784527357
40
0.068479792784527357
40
0.078929639671721258
40
0.078929639671721258
40
0.078929639671721258
40
0.078929639671721258
10
45.118842882539454
20
-50.429934910156042
30
0
10
45.118842882539454
20
-50.365444089012819
30
0
10
45.106634277167856
20
-50.302035711101603
30
0
10
45.058466705527991
20
-50.18308390312388
30
0
10
45.023206602102235
20
-50.128958936154255
30
0
10
44.933209605993412
20
-50.035612740054027
30
0
10
44.878654347118569
20
-49.997594423521896
30
0
10
44.787435509060316
20
-49.957861695520513
30
0
10
44.755272186642259
20
-49.947591880379854
30
0
10
44.688244919241527
20
-49.9334957149728
30
0
10
44.653636730768369
20
-49.929943896012325
30
0
10
44.618851868395879
20
-49.929943896012325
30
0
0
LINE
5
233
100
AcDbEntity
8
0
100
AcDbLine
10
44.618851868395879
20
-49.929943896012325
30
0
11
29.118850515934085
21
-49.92994389601229
31
0
0
SPLINE
5
234
100
AcDbEntity
8
0
100
AcDbSpline
70
0
71
3
72
24
73
20
74
0
42
0.000000001
43
0.0000000001
44
0.0000000001
40
0
40
0
40
0
40
0
40
0.03869128922047313
40
0.03869128922047313
40
0.077143461354724802
40
0.077143461354724802
40
0.11669358091254353
40
0.11669358091254353
40
0.15663378959726304
40
0.15663378959726304
40
0.19527418076333919
40
0.19527418076333919
40
0.23353545325262226
40
0.23353545325262226
40
0.27289959029975525
40
0.27289959029975525
40
0.29373942222429994
40
0.29373942222429994
40
0.31524278685518692
40
0.31524278685518692
40
0.31524278685518692
40
0.31524278685518692
10
29.118850515934085
20
-49.92994389601229
30
0
10
28.98987955186584
20
-49.92994389601229
30
0
10
28.863073445499907
20
-49.905528379715207
30
0
10
28.625175387945241
20
-49.809199968351372
30
0
10
28.516921360190608
20
-49.73867960725542
30
0
10
28.33021369068625
20
-49.558681946998959
30
0
10
28.254166434874151
20
-49.449564271313093
30
0
10
28.148552556064992
20
-49.207114014104505
30
0
10
28.12071246243935
20
-49.076674973205883
30
0
10
28.117220449985965
20
-48.814742066862173
30
0
10
28.139947277570876
20
-48.686996879865703
30
0
10
28.233291067554092
20
-48.447646539793361
30
0
10
28.302331037582071
20
-48.338603416505066
30
0
10
28.479733389524213
20
-48.149705957796058
30
0
10
28.587775710829888
20
-48.07227019145266
30
0
10
28.771041749805413
20
-47.989483615887849
30
0
10
28.837259142625307
20
-47.967589686714511
30
0
10
28.975498271145099
20
-47.937518457325119
30
0
10
29.046979761544094
20
-47.929936775744082
30
0
10
29.118850515934014
20
-47.929936775744082
30
0
0
LINE
5
235
100
AcDbEntity
8
0
100
AcDbLine
10
29.118850515934014
20
-47.929936775744075
30
0
11
71.118849318639292
21
-47.929936775744117
31
0
0
SPLINE
5
236
100
AcDbEntity
8
0
100
AcDbSpline
70
0
71
3
72
24
73
20
74
0
42
0.000000001
43
0.0000000001
44
0.0000000001
40
0
40
0
40
0
40
0
40
0.038693029290754091
40
0.038693029290754091
40
0.077145406377364334
40
0.077145406377364334
40
0.11669450392895615
40
0.11669450392895615
40
0.15663479408083594
40
0.15663479408083594
40
0.19527878136628926
40
0.19527878136628926
40
0.2335441629577279
40
0.2335441629577279
40
0.27291331427328253
40
0.27291331427328253
40
0.29375335470489228
40
0.29375335470489228
40
0.31525684714500318
40
0.31525684714500318
40
0.31525684714500318
40
0.31525684714500318
10
71.118849318639292
20
-47.929936775744117
30
0
10
71.247826082941856
20
-47.929936775744117
30
0
10
71.374638087596935
20
-47.954353313910154
30
0
10
71.612541439660788
20
-48.050685630976808
30
0
10
71.720795358549935
20
-48.121206932931706
30
0
10
71.907498426028667
20
-48.301205294463934
30
0
10
71.983541530354927
20
-48.410320873598955
30
0
10
72.089150474070493
20
-48.65276991052955
30
0
10
72.116988097232053
20
-48.783209388190762
30
0
10
72.120478960088121
20
-49.045154791376255
30
0
10
72.097748650359989
20
-49.172892691169743
30
0
10
72.004398881604061
20
-49.412242994315605
30
0
10
71.935355078548042
20
-49.521286791380597
30
0
10
71.75794470403747
20
-49.710186054337022
30
0
10
71.64989680882573
20
-49.787622980201398
30
0
10
71.466629563050759
20
-49.870404742147088
30
0
10
71.400417230984175
20
-49.892295828106406
30
0
10
71.262189307218733
20
-49.92236314446302
30
0
10
71.190713936688041
20
-49.929943896012325
30
0
10
71.118849318639292
20
-49.929943896012325
30
0
0
LINE
5
237
100
AcDbEntity
8
0
100
AcDbLine
10
71.118849318639292
20
-49.929943896012325
30
0
11
55.618847966177505
21
-49.929943896012361
31
0
0
SPLINE
5
238
100
AcDbEntity
8
0
100
AcDbSpline
70
0
71
3
72
16
73
12
74
0
42
0.000000001
43
0.0000000001
44
0.0000000001
40
0
40
0
40
0
40
0
40
0.019347246342915687
40
0.019347246342915687
40
0.038572926676838322
40
0.038572926676838322
40
0.058346410998747503
40
0.058346410998747503
40
0.068479792784778365
40
0.068479792784778365
40
0.078929639672175103
40
0.078929639672175103
40
0.078929639672175103
40
0.078929639672175103
10
55.618847966177505
20
-49.929943896012325
30
0
10
55.554357145034494
20
-49.929943896012325
30
0
10
55.490948767123207
20
-49.942152501383852
30
0
10
55.3719969591452
20
-49.990320073023824
30
0
10
55.317871992175363
20
-50.025580176450042
30
0
10
55.224525796075525
20
-50.115577172558439
30
0
10
55.186507479543536
20
-50.170132431433139
30
0
10
55.146774751541976
20
-50.261351269491392
30
0
10
55.136504936401316
20
-50.293514591909556
30
0
10
55.122408770994262
20
-50.360541859310217
30
0
10
55.118856952033788
20
-50.395150047783446
30
0
10
55.118856952033788
20
-50.429934910156042
30
0
0
LINE
5
239
100
AcDbEntity
8
0
100
AcDbLine
10
55.118856952033788
20
-50.429934910156042
30
0
11
55.118856952033788
21
-52.236865960322731
31
0
0
SPLINE
5
240
100
AcDbEntity
8
0
100
AcDbSpline
70
0
71
3
72
16
73
12
74
0
42
0.000000001
43
0.0000000001
44
0.0000000001
40
0
40
0
40
0
40
0
40
0.01934751010401255
40
0.01934751010401255
40
0.038574690842511791
40
0.038574690842511791
40
0.058349262437563762
40
0.058349262437563762
40
0.06848194380938516
40
0.06848194380938516
40
0.078930990201545412
40
0.078930990201545412
40
0.078930990201545412
40
0.078930990201545412
10
55.118856952033788
20
-52.236865960322696
30
0
10
55.118856952033788
20
-52.301357660669403
30
0
10
55.131065890287552
20
-52.364767166918078
30
0
10
55.179234344528645
20
-52.483725031799189
30
0
10
55.214496771261885
20
-52.53785502309551
30
0
10
55.304498812328369
20
-52.631208402085967
30
0
10
55.359056752580393
20
-52.669229580674291
30
0
10
55.450276890040406
20
-52.708962533757138
30
0
10
55.482437949083341
20
-52.719231669691844
30
0
10
55.549460298229327
20
-52.733326891988845
30
0
10
55.584065778697997
20
-52.736878506313225
30
0
10
55.618847966177505
20
-52.736878506313225
30
0
0
LINE
5
241
100
AcDbEntity
8
0
100
AcDbLine
10
55.618847966177505
20
-52.736878506313218
30
0
11
94.618857620327191
21
-52.736878506313261
31
0
0
SPLINE
5
242
100
AcDbEntity
8
0
100
AcDbSpline
70
0
71
3
72
16
73
12
74
0
42
0.000000001
43
0.0000000001
44
0.0000000001
40
0
40
0
40
0
40
0
40
0.01934551928324553
40
0.01934551928324553
40
0.038570715656141855
40
0.038570715656141855
40
0.058345241434644049
40
0.058345241434644049
40
0.068479905139620337
40
0.068479905139620337
40
0.078930941800256213
40
0.078930941800256213
40
0.078930941800256213
40
0.078930941800256213
10
94.618857620327191
20
-52.736878506313225
30
0
10
94.683342684604668
20
-52.736878506313225
30
0
10
94.746745183398133
20
-52.724670906335369
30
0
10
94.865690670945384
20
-52.676507043331888
30
0
10
94.919814598648998
20
-52.641248168042942
30
0
10
95.013164286541212
20
-52.551251847723641
30
0
10
95.051186211798068
20
-52.496694209273151
30
0
10
95.090924889825999
20
-52.405469377859468
30
0
10
95.101196880715662
20
-52.37330214862471
30
0
10
95.115295996730993
20
-52.306266999158417
30
0
10
95.118848634470908
20
-52.271654831837147
30
0
10
95.118848634470908
20
-52.236865960322945
30
0
0
LINE
5
243
100
AcDbEntity
8
0
100
AcDbLine
10
95.118848634470908
20
-52.236865960322952
30
0
11
95.118848634470908
21
-50.429934910156042
31
0
0
SPLINE
5
244
100
AcDbEntity
8
0
100
AcDbSpline
70
0
71
3
72
16
73
12
74
0
42
0.000000001
43
0.0000000001
44
0.0000000001
40
0
40
0
40
0
40
0
40
0.019347246343000009
40
0.019347246343000009
40
0.038572926676999741
40
0.038572926676999741
40
0.058346410998935561
40
0.058346410998935561
40
0.068479792784910801
40
0.068479792784910801
40
0.078929639672196905
40
0.078929639672196905
40
0.078929639672196905
40
0.078929639672196905
10
95.118848634470908
20
-50.429934910156042
30
0
10
95.118848634470908
20
-50.365444089012676
30
0
10
95.10664002909931
20
-50.302035711101567
30
0
10
95.058472457459473
20
-50.18308390312388
30
0
10
95.023212354033461
20
-50.128958936154184
30
0
10
94.933215357924922
20
-50.035612740054098
30
0
10
94.878660099050165
20
-49.997594423522038
30
0
10
94.78744126099204
20
-49.957861695520585
30
0
10
94.755277938574068
20
-49.947591880379925
30
0
10
94.688250671172796
20
-49.933495714972729
30
0
10
94.653642482699354
20
-49.929943896012325
30
0
10
94.618857620327191
20
-49.929943896012325
30
0
0
LINE
5
245
100
AcDbEntity
8
0
100
AcDbLine
10
94.618857620327191
20
-49.929943896012325
30
0
11
79.118856267865453
21
-49.929943896012361
31
0
0
SPLINE
5
246
100
AcDbEntity
8
0
100
AcDbSpline
70
0
71
3
72
24
73
20
74
0
42
0.000000001
43
0.0000000001
44
0.0000000001
40
0
40
0
40
0
40
0
40
0.038691289220469036
40
0.038691289220469036
40
0.077143461354695048
40
0.077143461354695048
40
0.11669358091248795
40
0.11669358091248795
40
0.15663378959719276
40
0.15663378959719276
40
0.19527418076327774
40
0.19527418076327774
40
0.2335354532525955
40
0.2335354532525955
40
0.27289959029971989
40
0.27289959029971989
40
0.29373942222434285
40
0.29373942222434285
40
0.31524278685537288
40
0.31524278685537288
40
0.31524278685537288
40
0.31524278685537288
10
79.118856267865453
20
-49.929943896012325
30
0
10
78.989885303797223
20
-49.929943896012325
30
0
10
78.863079197431347
20
-49.905528379715314
30
0
10
78.625181139876901
20
-49.809199968351585
30
0
10
78.516927112122261
20
-49.738679607255882
30
0
10
78.330219442617619
20
-49.558681946998995
30
0
10
78.254172186805675
20
-49.4495642713132
30
0
10
78.148558307996609
20
-49.207114014104754
30
0
10
78.120718214370896
20
-49.076674973206273
30
0
10
78.117226201917418
20
-48.814742066862209
30
0
10
78.139953029502351
20
-48.686996879865845
30
0
10
78.233296819485531
20
-48.447646539793432
30
0
10
78.302336789513618
20
-48.338603416505102
30
0
10
78.479739141455525
20
-48.149705957796307
30
0
10
78.587781462761114
20
-48.072270191452766
30
0
10
78.771047501736888
20
-47.989483615887814
30
0
10
78.837264894556711
20
-47.967589686714582
30
0
10
78.975504023076553
20
-47.937518457325154
30
0
10
79.046985513475647
20
-47.929936775744117
30
0
10
79.118856267865453
20
-47.929936775744117
30
0
0
LINE
5
247
100
AcDbEntity
8
0
100
AcDbLine
10
79.118856267865453
20
-47.92993677574411
30
0
11
121.11885507057075
21
-47.929936775744117
31
0
0
SPLINE
5
248
100
AcDbEntity
8
0
100
AcDbSpline
70
0
71
3
72
24
73
20
74
0
42
0.000000001
43
0.0000000001
44
0.0000000001
40
0
40
0
40
0
40
0
40
0.038693029290731824
40
0.038693029290731824
40
0.077145406377338036
40
0.077145406377338036
40
0.11669450392900065
40
0.11669450392900065
40
0.1566347940809274
40
0.1566347940809274
40
0.19527878136643834
40
0.19527878136643834
40
0.23354416295788141
40
0.23354416295788141
40
0.27291331427338578
40
0.27291331427338578
40
0.29375335470499025
40
0.29375335470499025
40
0.31525684714509111
40
0.31525684714509111
40
0.31525684714509111
40
0.31525684714509111
10
121.11885507057075
20
-47.929936775744117
30
0
10
121.24783183487317
20
-47.929936775744117
30
0
10
121.37464383952825
20
-47.954353313910119
30
0
10
121.61254719159224
20
-48.050685630976773
30
0
10
121.72080111048139
20
-48.121206932931777
30
0
10
121.90750417796004
20
-48.301205294463863
30
0
10
121.9835472822863
20
-48.410320873598849
30
0
10
122.08915622600195
20
-48.65276991052955
30
0
10
122.11699384916351
20
-48.783209388190834
30
0
10
122.12048471201946
20
-49.045154791376184
30
0
10
122.09775440229144
20
-49.172892691169743
30
0
10
122.00440463353559
20
-49.412242994315498
30
0
10
121.93536083047967
20
-49.521286791380454
30
0
10
121.75795045596892
20
-49.710186054337129
30
0
10
121.64990256075711
20
-49.787622980201469
30
0
10
121.46663531498213
20
-49.870404742147088
30
0
10
121.40042298291554
20
-49.892295828106406
30
0
10
121.2621950591501
20
-49.92236314446302
30
0
10
121.19071968861952
20
-49.929943896012325
30
0
10
121.11885507057075
20
-49.929943896012325
30
0
0
LINE
5
249
100
AcDbEntity
8
0
100
AcDbLine
10
121.11885507057075
20
-49.929943896012325
30
0
11
105.61885371810895
21
-49.929943896012361
31
0
0
SPLINE
5
250
100
AcDbEntity
8
0
100
AcDbSpline
70
0
71
3
72
16
73
12
74
0
42
0.000000001
43
0.0000000001
44
0.0000000001
40
0
40
0
40
0
40
0
40
0.019347510103979514
40
0.019347510103979514
40
0.038574690842449633
40
0.038574690842449633
40
0.058349262437538414
40
0.058349262437538414
40
0.068481943809400439
40
0.068481943809400439
40
0.078930990201576512
40
0.078930990201576512
40
0.078930990201576512
40
0.078930990201576512
10
105.61885371810895
20
-49.929943896012325
30
0
10
105.55436201776239
20
-49.929943896012325
30
0
10
105.49095251151364
20
-49.942152834266018
30
0
10
105.37199464663253
20
-49.990321288507147
30
0
10
105.31786465533607
20
-50.025583715240423
30
0
10
105.22451127634561
20
-50.115585756307048
30
0
10
105.18649009775736
20
-50.170143696559037
30
0
10
105.14675714467451
20
-50.261363834019086
30
0
10
105.13648800873987
20
-50.293524893061985
30
0
10
105.12239278644294
20
-50.360547242207581
30
0
10
105.11884117211842
20
-50.395152722676038
30
0
10
105.11884117211842
20
-50.429934910156042
30
0
0
LINE
5
251
100
AcDbEntity
8
0
100
AcDbLine
10
105.11884117211842
20
-50.429934910156042
30
0
11
105.11884117211842
21
-52.236865960322731
31
0
0
SPLINE
5
252
100
AcDbEntity
8
0
100
AcDbSpline
70
0
71
3
72
16
73
12
74
0
42
0.000000001
43
0.0000000001
44
0.0000000001
40
0
40
0
40
0
40
0
40
0.01934578299732035
40
0.01934578299732035
40
0.038572479668054972
40
0.038572479668054972
40
0.058348092922731097
40
0.058348092922731097
40
0.06848205617364117
40
0.06848205617364117
40
0.078932292298656281
40
0.078932292298656281
40
0.078932292298656281
40
0.078932292298656281
10
105.11884117211842
20
-52.236865960322696
30
0
10
105.11884117211842
20
-52.301351903647095
30
0
10
105.13104910492153
20
-52.364755530596945
30
0
10
105.17921385049213
20
-52.483707074485118
30
0
10
105.21447504892429
20
-52.537836026135665
30
0
10
105.30447641420302
20
-52.631192897363839
30
0
10
105.3590367345425
20
-52.669217685273608
30
0
10
105.45026286580935
20
-52.708956588738154
30
0
10
105.48242783152922
20
-52.7192279003755
30
0
10
105.54945806246579
20
-52.73332607322228
30
0
10
105.58406752162867
20
-52.736878506313225
30
0
10
105.61885371810895
20
-52.736878506313225
30
0
0
LINE
5
253
100
AcDbEntity
8
0
100
AcDbLine
10
105.61885371810895
20
-52.736878506313225
30
0
11
146.81885828544557
21
-52.736878506313261
31
0
0
SPLINE
5
254
100
AcDbEntity
8
0
100
AcDbSpline
70
0
71
3
72
16
73
12
74
0
42
0.000000001
43
0.0000000001
44
0.0000000001
40
0
40
0
40
0
40
0
40
0.019345519283229941
40
0.019345519283229941
40
0.038570715656135617
40
0.038570715656135617
40
0.058345241434705652
40
0.058345241434705652
40
0.068479905139747069
40
0.068479905139747069
40
0.078930941800438442
40
0.078930941800438442
40
0.078930941800438442
40
0.078930941800438442
10
146.81885828544557
20
-52.736878506313225
30
0
10
146.88334334972302
20
-52.736878506313225
30
0
10
146.94674584851646
20
-52.724670906335369
30
0
10
147.06569133606371
20
-52.676507043331959
30
0
10
147.11981526376741
20
-52.641248168042907
30
0
10
147.21316495165956
20
-52.551251847723712
30
0
10
147.25118687691639
20
-52.496694209273294
30
0
10
147.29092555494424
20
-52.40546937785961
30
0
10
147.30119754583404
20
-52.373302148624852
30
0
10
147.31529666184935
20
-52.306266999158595
30
0
10
147.31884929958932
20
-52.27165483183736
30
0
10
147.31884929958932
20
-52.236865960322945
30
0
0
LINE
5
255
100
AcDbEntity
8
0
100
AcDbLine
10
147.31884929958932
20
-52.236865960322952
30
0
11
147.31884929958932
21
-51.23686240018877
31
0
0
SPLINE
5
256
100
AcDbEntity
8
0
100
AcDbSpline
70
0
71
3
72
24
73
20
74
0
42
0.000000001
43
0.0000000001
44
0.0000000001
40
0
40
0
40
0
40
0
40
0.10833690929058293
40
0.10833690929058293
40
0.21600349964571006
40
0.21600349964571006
40
0.32674243409775983
40
0.32674243409775983
40
0.43857466466765349
40
0.43857466466765349
40
0.54677248582379101
40
0.54677248582379101
40
0.65390887380309259
40
0.65390887380309259
40
0.76413500709472415
40
0.76413500709472415
40
0.82248681128609247
40
0.82248681128609247
40
0.88269616045007981
40
0.88269616045007981
40
0.88269616045007981
40
0.88269616045007981
10
147.31884929958932
20
-51.23686240018877
30
0
10
147.31884929958932
20
-50.875739369220163
30
0
10
147.38721370579435
20
-50.520677401889209
30
0
10
147.65693645146166
20
-49.854557663772106
30
0
10
147.85439489216094
20
-49.5514452905363
30
0
10
148.35838945020845
20
-49.028668921777374
30
0
10
148.66391595774525
20
-48.81574206541945
30
0
10
149.34277411819414
20
-48.520031028527661
30
0
10
149.70800241907517
20
-48.442083107061826
30
0
10
150.44142984982153
20
-48.432307687443448
30
0
10
150.79910523141058
20
-48.495947618814199
30
0
10
151.46928251100212
20
-48.757318266820882
30
0
10
151.77460142195122
20
-48.950634332552632
30
0
10
152.30351376449471
20
-49.447369434928561
30
0
10
152.52033497941687
20
-49.749894782861936
30
0
10
152.75213085457955
20
-50.263039896396045
30
0
10
152.81343019977135
20
-50.448441539140738
30
0
10
152.89762445671494
20
-50.835494680365052
30
0
10
152.91885201086296
20
-51.035633597778407
30
0
10
152.91885201086296
20
-51.236862400188556
30
0
0
LINE
5
257
100
AcDbEntity
8
0
100
AcDbLine
10
152.91885201086296
20
-51.236862400188549
30
0
11
152.91885201086296
21
-52.236865960322838
31
0
0
SPLINE
5
258
100
AcDbEntity
8
0
100
AcDbSpline
70
0
71
3
72
16
73
12
74
0
42
0.000000001
43
0.0000000001
44
0.0000000001
40
0
40
0
40
0
40
0
40
0.019345769934337662
40
0.019345769934337662
40
0.038572745731377117
40
0.038572745731377117
40
0.058348339484410212
40
0.058348339484410212
40
0.068481350095232069
40
0.068481350095232069
40
0.078930410408120766
40
0.078930410408120766
40
0.078930410408120766
40
0.078930410408120766
10
152.91885201086296
20
-52.236865960322838
30
0
10
152.91885201086296
20
-52.301351860103971
30
0
10
152.9310599271796
20
-52.364755467696718
30
0
10
152.97922447555658
20
-52.483708037818069
30
0
10
153.01448596141677
20
-52.537838138049402
30
0
10
153.104487301321
20
-52.631196119718702
30
0
10
153.15904733850323
20
-52.669221450310424
30
0
10
153.25027035736804
20
-52.708958972204911
30
0
10
153.28243221253155
20
-52.719229430657428
30
0
10
153.34945534025314
20
-52.733326333210861
30
0
10
153.38406081375672
20
-52.736878506313225
30
0
10
153.41884302500665
20
-52.736878506313225
30
0
0
LINE
5
259
100
AcDbEntity
8
0
100
AcDbLine
10
153.41884302500665
20
-52.736878506313225
30
0
11
155.63776443151562
21
-52.736878506313261
31
0
0
SPLINE
5
260
100
AcDbEntity
8
0
100
AcDbSpline
70
0
71
3
72
16
73
12
74
0
42
0.000000001
43
0.0000000001
44
0.0000000001
40
0
40
0
40
0
40
0
40
0.019345519283248229
40
0.019345519283248229
40
0.03857071565612491
40
0.03857071565612491
40
0.05834524143457305
40
0.05834524143457305
40
0.068479905139542011
40
0.068479905139542011
40
0.078930941800210555
40
0.078930941800210555
40
0.078930941800210555
40
0.078930941800210555
10
155.63776443151562
20
-52.736878506313225
30
0
10
155.70224949579307
20
-52.736878506313225
30
0
10
155.76565199458662
20
-52.724670906335369
30
0
10
155.88459748213376
20
-52.676507043331959
30
0
10
155.93872140983729
20
-52.641248168043084
30
0
10
156.03207109772973
20
-52.55125184772357
30
0
10
156.07009302298644
20
-52.49669420927308
30
0
10
156.1098317010144
20
-52.405469377859468
30
0
10
156.12010369190409
20
-52.37330214862471
30
0
10
156.13420280791934
20
-52.306266999158382
30
0
10
156.13775544565931
20
-52.271654831837004
30
0
10
156.13775544565931
20
-52.236865960322838
30
0
0
LINE
5
261
100
AcDbEntity
8
0
100
AcDbLine
10
156.13775544565931
20
-52.236865960322845
30
0
11
156.13775544565931
21
-48.42992778988787
31
0
0
SPLINE
5
262
100
AcDbEntity
8
0
100
AcDbSpline
70
0
71
3
72
16
73
12
74
0
42
0.000000001
43
0.0000000001
44
0.0000000001
40
0
40
0
40
0
40
0
40
0.019343101452571967
40
0.019343101452571967
40
0.038568843546290317
40
0.038568843546290317
40
0.05834466023410996
40
0.05834466023410996
40
0.068479257356846471
40
0.068479257356846471
40
0.078930170040509756
40
0.078930170040509756
40
0.078930170040509756
40
0.078930170040509756
10
156.13775544565931
20
-48.429927789887834
30
0
10
156.13775544565931
20
-48.365450785045958
30
0
10
156.14996189784739
20
-48.302055933423276
30
0
10
156.19812079438043
20
-48.183114905318654
30
0
10
156.23337984340174
20
-48.128988093203624
30
0
10
156.32337775786675
20
-48.035630958135833
30
0
10
156.37793821042033
20
-47.997604431382896
30
0
10
156.46916625335967
20
-47.957862238359219
30
0
10
156.50133315390866
20
-47.947589661143546
30
0
10
156.56836766417194
20
-47.933489689745308
30
0
10
156.60297944066053
20
-47.929936775744117
30
0
10
156.6377679916497
20
-47.929936775744117
30
0
0
LINE
5
263
100
AcDbEntity
8
0
100
AcDbLine
10
156.6377679916497
20
-47.929936775744117
30
0
11
163.20643064160981
21
-47.929936775744117
31
0
0
ARC
5
264
100
AcDbEntity
8
0
100
AcDbCircle
10
163.20643064160981
20
-46.829936775744159
30
0
40
1.0999999999999588
210
0
220
0
230
1
100
AcDbArc
50
-90
51
0
0
LINE
5
265
100
AcDbEntity
8
0
100
AcDbLine
10
164.30643064160984
20
-46.829936775744159
30
0
11
164.30643064160989
21
45.829130990254576
31
0
0
ARC
5
266
100
AcDbEntity
8
0
100
AcDbCircle
10
163.20643064160981
20
45.829130990254612
30
0
40
1.1000000000000654
210
0
220
0
230
1
100
AcDbArc
50
0
51
90
0
LINE
5
267
100
AcDbEntity
8
0
100
AcDbLine
10
163.20643064160981
20
46.929130990254642
30
0
11
124.33289230799424
21
46.929130990254606
31
0
0
SPLINE
5
268
100
AcDbEntity
8
0
100
AcDbSpline
70
0
71
3
72
24
73
20
74
0
42
0.000000001
43
0.0000000001
44
0.0000000001
40
0
40
0
40
0
40
0
40
0.038688607668030436
40
0.038688607668030436
40
0.077139825289889982
40
0.077139825289889982
40
0.11669014827127965
40
0.11669014827127965
40
0.15663074477337774
40
0.15663074477337774
40
0.19527107557464127
40
0.19527107557464127
40
0.23353247196139451
40
0.23353247196139451
40
0.27289646863682893
40
0.27289646863682893
40
0.2937357110748498
40
0.2937357110748498
40
0.31523826936609634
40
0.31523826936609634
40
0.31523826936609634
40
0.31523826936609634
10
124.33289230799424
20
46.929130990254606
30
0
10
124.20393028243417
20
46.929130990254606
30
0
10
124.07713295146543
20
46.953545025959258
30
0
10
123.83924540947184
20
47.049867588271326
30
0
10
123.73099352108319
20
47.120385800056184
30
0
10
123.54428558768014
20
47.300380009686904
30
0
10
123.46823659312243
20
47.409497817574113
30
0
10
123.36261903585914
20
47.651949024782141
30
0
10
123.33477712542624
20
47.782389275226294
30
0
10
123.33128273814872
20
48.044323632226416
30
0
10
123.3540084459478
20
48.17206939985482
30
0
10
123.44735008550735
20
48.411421726042434
30
0
10
123.51638935515886
20
48.520466492119638
30
0
10
123.69379000752055
20
48.70936655093324
30
0
10
123.80183140493187
20
48.786803819287385
30
0
10
123.98509493683328
20
48.869591226721738
30
0
10
124.05131043599951
20
48.891485187554835
30
0
10
124.18954514587689
20
48.921556371269475
30
0
10
124.26102408224104
20
48.929138110522885
30
0
10
124.33289230799424
20
48.929138110522885
30
0
0
LINE
5
269
100
AcDbEntity
8
0
100
AcDbLine
10
124.33289230799424
20
48.929138110522892
30
0
11
144.6188418404119
21
48.929138110522885
31
0
0
SPLINE
5
270
100
AcDbEntity
8
0
100
AcDbSpline
70
0
71
3
72
16
73
12
74
0
42
0.000000001
43
0.0000000001
44
0.0000000001
40
0
40
0
40
0
40
0
40
0.01934576993431656
40
0.01934576993431656
40
0.038572745731334582
40
0.038572745731334582
40
0.058348339484356228
40
0.058348339484356228
40
0.068481350095282931
40
0.068481350095282931
40
0.078930410408483143
40
0.078930410408483143
40
0.078930410408483143
40
0.078930410408483143
10
144.6188418404119
20
48.929138110522885
30
0
10
144.68332774019296
20
48.929138110522885
30
0
10
144.7467313477859
20
48.941346026839412
30
0
10
144.86568391790769
20
48.989510575216642
30
0
10
144.91981401813916
20
49.024772061077044
30
0
10
145.01317199980798
20
49.114773400981022
30
0
10
145.0511973303997
20
49.169333438163108
30
0
10
145.09093485229428
20
49.260556457028031
30
0
10
145.10120531074676
20
49.29271831219193
30
0
10
145.11530221329997
20
49.359741439912668
30
0
10
145.1188543864024
20
49.394346913416243
30
0
10
145.1188543864024
20
49.429129124666176
30
0
0
LINE
5
271
100
AcDbEntity
8
0
100
AcDbLine
10
145.11885438640243
20
49.429129124666176
30
0
11
145.1188543864024
21
51.763138252229695
31
0
0
SPLINE
5
272
100
AcDbEntity
8
0
100
AcDbSpline
70
0
71
3
72
16
73
12
74
0
42
0.000000001
43
0.0000000001
44
0.0000000001
40
0
40
0
40
0
40
0
40
0.019343101452565053
40
0.019343101452565053
40
0.0385688435462683
40
0.0385688435462683
40
0.058344660234079748
40
0.058344660234079748
40
0.06847925735683566
40
0.06847925735683566
40
0.078930170040549044
40
0.078930170040549044
40
0.078930170040549044
40
0.078930170040549044
10
145.1188543864024
20
51.763138252229695
30
0
10
145.1188543864024
20
51.827615257071571
30
0
10
145.10664793421432
20
51.891010108694289
30
0
10
145.05848903768134
20
52.00995113679884
30
0
10
145.02322998865992
20
52.064077948913905
30
0
10
144.93323207419485
20
52.157435083981696
30
0
10
144.87867162164127
20
52.195461610734668
30
0
10
144.78744357870184
20
52.235203803758381
30
0
10
144.75527667815271
20
52.245476380974054
30
0
10
144.68824216788965
20
52.259576352372221
30
0
10
144.65363039140129
20
52.263129266373411
30
0
10
144.6188418404119
20
52.263129266373411
30
0
0
LINE
5
273
100
AcDbEntity
8
0
100
AcDbLine
10
144.6188418404119
20
52.263129266373411
30
0
11
105.61885371810895
21
52.263129266373411
31
0
0
SPLINE
5
274
100
AcDbEntity
8
0
100
AcDbSpline
70
0
71
3
72
16
73
12
74
0
42
0.000000001
43
0.0000000001
44
0.0000000001
40
0
40
0
40
0
40
0
40
0.019345769934298703
40
0.019345769934298703
40
0.03857274573125849
40
0.03857274573125849
40
0.058348339484183213
40
0.058348339484183213
40
0.068481350095007831
40
0.068481350095007831
40
0.078930410407938731
40
0.078930410407938731
40
0.078930410407938731
40
0.078930410407938731
10
105.61885371810895
20
52.263129266373411
30
0
10
105.5543678183281
20
52.263129266373411
30
0
10
105.49096421073507
20
52.250921350056885
30
0
10
105.37201164061351
20
52.202756801679726
30
0
10
105.31788154038225
20
52.167495315819608
30
0
10
105.22452355871302
20
52.077493975915203
30
0
10
105.18649822812129
20
52.022933938732976
30
0
10
105.14676070622677
20
51.931710919868124
30
0
10
105.13649024777422
20
51.899549064704402
30
0
10
105.12239334522093
20
51.832525936983487
30
0
10
105.11884117211849
20
51.797920463480125
30
0
10
105.11884117211849
20
51.763138252229766
30
0
0
LINE
5
275
100
AcDbEntity
8
0
100
AcDbLine
10
105.11884117211848
20
51.763138252229766
30
0
11
105.11884117211849
21
49.429129124666247
31
0
0
SPLINE
5
276
100
AcDbEntity
8
0
100
AcDbSpline
70
0
71
3
72
16
73
12
74
0
42
0.000000001
43
0.0000000001
44
0.0000000001
40
0
40
0
40
0
40
0
40
0.019343101452593769
40
0.019343101452593769
40
0.038568843546390036
40
0.038568843546390036
40
0.058344660234378586
40
0.058344660234378586
40
0.068479257357248566
40
0.068479257357248566
40
0.078930170041126443
40
0.078930170041126443
40
0.078930170041126443
40
0.078930170041126443
10
105.11884117211849
20
49.429129124666247
30
0
10
105.11884117211849
20
49.364652119824228
30
0
10
105.13104762430665
20
49.301257268201653
30
0
10
105.17920652083966
20
49.182316240097066
30
0
10
105.21446556986128
20
49.128189427982036
30
0
10
105.30446348432569
20
49.034832292914814
30
0
10
105.35902393687927
20
48.9968057661617
30
0
10
105.45025197981886
20
48.957063573137916
30
0
10
105.48241888036806
20
48.946790995922242
30
0
10
105.54945339063103
20
48.932691024524075
30
0
10
105.58406516711962
20
48.929138110522885
30
0
10
105.61885371810895
20
48.929138110522885
30
0
0
LINE
5
277
100
AcDbEntity
8
0
100
AcDbLine
10
105.61885371810895
20
48.929138110522885
30
0
11
106.93145662983575
21
48.929138110522885
31
0
0
SPLINE
5
278
100
AcDbEntity
8
0
100
AcDbSpline
70
0
71
3
72
24
73
20
74
0
42
0.000000001
43
0.0000000001
44
0.0000000001
40
0
40
0
40
0
40
0
40
0.038693029290761204
40
0.038693029290761204
40
0.077145406377387607
40
0.077145406377387607
40
0.11669450392908325
40
0.11669450392908325
40
0.15663479408108824
40
0.15663479408108824
40
0.19527878136673826
40
0.19527878136673826
40
0.23354416295835129
40
0.23354416295835129
40
0.27291331427408322
40
0.27291331427408322
40
0.29375335470596359
40
0.29375335470596359
40
0.31525684714636892
40
0.31525684714636892
40
0.31525684714636892
40
0.31525684714636892
10
106.93145662983575
20
48.929138110522885
30
0
10
107.06043339413831
20
48.929138110522885
30
0
10
107.18724539879354
20
48.904721572356848
30
0
10
107.42514875085774
20
48.808389255290159
30
0
10
107.53340266974682
20
48.737867953335012
30
0
10
107.72010573722504
20
48.557869591803211
30
0
10
107.79614884155144
20
48.44875401266826
30
0
10
107.90175778526724
20
48.206304975737453
30
0
10
107.92959540842865
20
48.075865498076027
30
0
10
107.93308627128475
20
47.813920094890818
30
0
10
107.91035596155673
20
47.686182195097366
30
0
10
107.8170061928008
20
47.446831891951504
30
0
10
107.74796238974481
20
47.337788094886548
30
0
10
107.57055201523436
20
47.148888831930122
30
0
10
107.46250412002247
20
47.071451906065676
30
0
10
107.27923687424699
20
46.988670144119702
30
0
10
107.21302454218055
20
46.966779058160597
30
0
10
107.07479661841568
20
46.936711741804089
30
0
10
107.00332124788524
20
46.929130990254642
30
0
10
106.93145662983589
20
46.929130990254642
30
0
0
LINE
5
279
100
AcDbEntity
8
0
100
AcDbLine
10
106.93145662983589
20
46.929130990254642
30
0
11
95.618861180461394
21
46.929130990254642
31
0
0
SPLINE
5
280
100
AcDbEntity
8
0
100
AcDbSpline
70
0
71
3
72
16
73
12
74
0
42
0.000000001
43
0.0000000001
44
0.0000000001
40
0
40
0
40
0
40
0
40
0.019345782997394399
40
0.019345782997394399
40
0.03857247966825722
40
0.03857247966825722
40
0.058348092923049912
40
0.058348092923049912
40
0.068482056173947661
40
0.068482056173947661
40
0.078932292298835305
40
0.078932292298835305
40
0.078932292298835305
40
0.078932292298835305
10
95.618861180461437
20
46.929130990254642
30
0
10
95.554375237136782
20
46.929130990254642
30
0
10
95.490971610187216
20
46.941338923057785
30
0
10
95.372020066299328
20
46.989503668628316
30
0
10
95.317891114648887
20
47.024764867060185
30
0
10
95.224534243420536
20
47.114766232339065
30
0
10
95.186509455510731
20
47.169326552678612
30
0
10
95.14677055204622
20
47.26055268394532
30
0
10
95.136499240408838
20
47.292717649664979
30
0
10
95.122401067561952
20
47.359747880601901
30
0
10
95.118848634471007
20
47.394357339764852
30
0
10
95.118848634471007
20
47.4291435362451
30
0
0
LINE
5
281
100
AcDbEntity
8
0
100
AcDbLine
10
95.118848634471007
20
47.4291435362451
30
0
11
95.118848634471007
21
51.763138252229766
31
0
0
SPLINE
5
282
100
AcDbEntity
8
0
100
AcDbSpline
70
0
71
3
72
16
73
12
74
0
42
0.000000001
43
0.0000000001
44
0.0000000001
40
0
40
0
40
0
40
0
40
0.019344828355338611
40
0.019344828355338611
40
0.03857105471147361
40
0.03857105471147361
40
0.058345829868016161
40
0.058345829868016161
40
0.068479145042811329
40
0.068479145042811329
40
0.078928867931634297
40
0.078928867931634297
40
0.078928867931634297
40
0.078928867931634297
10
95.118848634471007
20
51.763138252229766
30
0
10
95.118848634471007
20
51.827621013414173
30
0
10
95.106641176909477
20
51.891021743584744
30
0
10
95.058478572089172
20
52.009969092883637
30
0
10
95.023218294535425
20
52.064096945290643
30
0
10
94.933219703677949
20
52.157450589166956
30
0
10
94.878661630895095
20
52.195473506881171
30
0
10
94.787439581433546
20
52.235209749393228
30
0
10
94.755276587752945
20
52.245480150693524
30
0
10
94.688249959672532
20
52.259577171238902
30
0
10
94.653642162096816
20
52.263129266373411
30
0
10
94.61885762032729
20
52.263129266373411
30
0
0
LINE
5
283
100
AcDbEntity
8
0
100
AcDbLine
10
94.61885762032729
20
52.263129266373419
30
0
11
55.618847966177611
21
52.263129266373411
31
0
0
SPLINE
5
284
100
AcDbEntity
8
0
100
AcDbSpline
70
0
71
3
72
16
73
12
74
0
42
0.000000001
43
0.0000000001
44
0.0000000001
40
0
40
0
40
0
40
0
40
0.01934550622091865
40
0.01934550622091865
40
0.03857098169004182
40
0.03857098169004182
40
0.058345487983551603
40
0.058345487983551603
40
0.06847919906433611
40
0.06847919906433611
40
0.078929059894769449
40
0.078929059894769449
40
0.078929059894769449
40
0.078929059894769449
10
55.618847966177611
20
52.263129266373411
30
0
10
55.554362945441227
20
52.263129266373411
30
0
10
55.490960466012709
20
52.250921682880929
30
0
10
55.372013952326711
20
52.202758017084534
30
0
10
55.317888876193706
20
52.167498854411178
30
0
10
55.224538077922105
20
52.077502559425213
30
0
10
55.186515610044751
20
52.022945204100282
30
0
10
55.146778313415865
20
51.931723484997292
30
0
10
55.136507175636531
20
51.89955936628813
30
0
10
55.122409329821522
20
51.832531320049497
30
0
10
55.118856952033894
20
51.797923138458373
30
0
10
55.118856952033894
20
51.763138252229766
30
0
0
LINE
5
285
100
AcDbEntity
8
0
100
AcDbLine
10
55.118856952033894
20
51.763138252229766
30
0
11
55.118856952033894
21
49.429129124666247
31
0
0
SPLINE
5
286
100
AcDbEntity
8
0
100
AcDbSpline
70
0
71
3
72
16
73
12
74
0
42
0.000000001
43
0.0000000001
44
0.0000000001
40
0
40
0
40
0
40
0
40
0.019344828355215497
40
0.019344828355215497
40
0.038571054711208017
40
0.038571054711208017
40
0.058345829867726011
40
0.058345829867726011
40
0.068479145042604411
40
0.068479145042604411
40
0.078928867931539484
40
0.078928867931539484
40
0.078928867931539484
40
0.078928867931539484
10
55.118856952033894
20
49.429129124666247
30
0
10
55.118856952033894
20
49.364646363482159
30
0
10
55.131064409595254
20
49.30124563331141
30
0
10
55.179227014415702
20
49.182298284012376
30
0
10
55.214487291969689
20
49.128170431605298
30
0
10
55.304485882826739
20
49.034816787729341
30
0
10
55.359043955609408
20
48.996793870015267
30
0
10
55.450266005070965
20
48.957057627503175
30
0
10
55.482428998751772
20
48.946787226202844
30
0
10
55.549455626832085
20
48.932690205657465
30
0
10
55.584063424407688
20
48.929138110522885
30
0
10
55.618847966177611
20
48.929138110522885
30
0
0
LINE
5
287
100
AcDbEntity
8
0
100
AcDbLine
10
55.618847966177611
20
48.929138110522878
30
0
11
71.118849318639406
21
48.929138110522885
31
0
0
SPLINE
5
288
100
AcDbEntity
8
0
100
AcDbSpline
70
0
71
3
72
24
73
20
74
0
42
0.000000001
43
0.0000000001
44
0.0000000001
40
0
40
0
40
0
40
0
40
0.038693029290786551
40
0.038693029290786551
40
0.077145406377467168
40
0.077145406377467168
40
0.11669450392924148
40
0.11669450392924148
40
0.15663479408129247
40
0.15663479408129247
40
0.19527878136701493
40
0.19527878136701493
40
0.23354416295877081
40
0.23354416295877081
40
0.2729133142746728
40
0.2729133142746728
40
0.29375335470664488
40
0.29375335470664488
40
0.3152568471471518
40
0.3152568471471518
40
0.3152568471471518
40
0.3152568471471518
10
71.118849318639406
20
48.929138110522885
30
0
10
71.247826082942041
20
48.929138110522885
30
0
10
71.374638087597049
20
48.904721572356848
30
0
10
71.612541439660902
20
48.808389255290265
30
0
10
71.720795358550021
20
48.737867953335225
30
0
10
71.907498426028553
20
48.557869591803176
30
0
10
71.983541530354813
20
48.44875401266826
30
0
10
72.089150474070394
20
48.206304975737737
30
0
10
72.116988097232095
20
48.075865498076524
30
0
10
72.120478960088263
20
47.813920094890285
30
0
10
72.097748650360032
20
47.686182195097047
30
0
10
72.004398881604203
20
47.446831891951362
30
0
10
71.935355078548113
20
47.337788094886442
30
0
10
71.757944704037726
20
47.148888831930122
30
0
10
71.649896808825957
20
47.071451906065604
30
0
10
71.46662956305029
20
46.988670144119666
30
0
10
71.400417230983919
20
46.966779058160597
30
0
10
71.262189307219046
20
46.936711741804089
30
0
10
71.190713936688681
20
46.929130990254642
30
0
10
71.118849318639406
20
46.929130990254642
30
0
0
LINE
5
289
100
AcDbEntity
8
0
100
AcDbLine
10
71.118849318639406
20
46.929130990254642
30
0
11
-20.881155235997397
21
46.929130990254642
31
0
0
SPLINE
5
290
100
AcDbEntity
8
0
100
AcDbSpline
70
0
71
3
72
24
73
20
74
0
42
0.000000001
43
0.0000000001
44
0.0000000001
40
0
40
0
40
0
40
0
40
0.038688871356157777
40
0.038688871356157777
40
0.077141589279600783
40
0.077141589279600783
40
0.11669299977537145
40
0.11669299977537145
40
0.15663298472165826
40
0.15663298472165826
40
0.19527166059094464
40
0.19527166059094464
40
0.23353266366381475
40
0.23353266366381475
40
0.27289779474979681
40
0.27289779474979681
40
0.29373800929874383
40
0.29373800929874383
40
0.31524142478966077
40
0.31524142478966077
40
0.31524142478966077
40
0.31524142478966077
10
-20.881155235997397
20
46.929130990254642
30
0
10
-21.010118140517946
20
46.929130990254642
30
0
10
-21.136916599613613
20
46.953545358755591
30
0
10
-21.374810197870495
20
47.049868803644301
30
0
10
-21.483067110287521
20
47.120389338577269
30
0
10
-21.669782227251702
20
47.300388593164797
30
0
10
-21.745834084669582
20
47.409509083048249
30
0
10
-21.851451890446683
20
47.651961900704833
30
0
10
-21.879293128700041
20
47.782399950066043
30
0
10
-21.88278536784459
20
48.044326698020434
30
0
10
-21.86005956754137
20
48.172065972425138
30
0
10
-21.766719738956368
20
48.411410900832372
30
0
10
-21.697680856623904
20
48.520453960365586
30
0
10
-21.520279508136682
20
48.709355907213236
30
0
10
-21.412235217595352
20
48.786795856121188
30
0
10
-21.228966304640835
20
48.869587279700966
30
0
10
-21.162747965859481
20
48.891482687375287
30
0
10
-21.024507770071885
20
48.921555803578798
30
0
10
-20.95302615230473
20
48.929138110522885
30
0
10
-20.881155235997397
20
48.929138110522885
30
0
0
LINE
5
291
100
AcDbEntity
8
0
100
AcDbLine
10
-20.881155235997397
20
48.929138110522885
30
0
11
-5.3811538835356743
21
48.929138110522885
31
0
0
SPLINE
5
292
100
AcDbEntity
8
0
100
AcDbSpline
70
0
71
3
72
16
73
12
74
0
42
0.000000001
43
0.0000000001
44
0.0000000001
40
0
40
0
40
0
40
0
40
0.0193457699343338
40
0.0193457699343338
40
0.038572745731340237
40
0.038572745731340237
40
0.058348339484275862
40
0.058348339484275862
40
0.068481350095098079
40
0.068481350095098079
40
0.078930410408137433
40
0.078930410408137433
40
0.078930410408137433
40
0.078930410408137433
10
-5.3811538835356743
20
48.929138110522885
30
0
10
-5.3166679837545416
20
48.929138110522885
30
0
10
-5.2532643761615816
20
48.941346026839412
30
0
10
-5.1343118060398041
20
48.989510575216677
30
0
10
-5.0801817058083998
20
49.024772061076831
30
0
10
-4.9868237241391355
20
49.114773400981235
30
0
10
-4.9487983935474134
20
49.169333438163463
30
0
10
-4.909060871652926
20
49.260556457028386
30
0
10
-4.8987904132004445
20
49.292718312192108
30
0
10
-4.8846935106472245
20
49.359741439912845
30
0
10
-4.8811413375448609
20
49.394346913416314
30
0
10
-4.8811413375448609
20
49.429129124666247
30
0
0
LINE
5
293
100
AcDbEntity
8
0
100
AcDbLine
10
-4.88114133754486
20
49.429129124666247
30
0
11
-4.8811413375448609
21
51.763138252229766
31
0
0
SPLINE
5
294
100
AcDbEntity
8
0
100
AcDbSpline
70
0
71
3
72
16
73
12
74
0
42
0.000000001
43
0.0000000001
44
0.0000000001
40
0
40
0
40
0
40
0
40
0.019343101452574438
40
0.019343101452574438
40
0.038568843546364855
40
0.038568843546364855
40
0.058344660234343149
40
0.058344660234343149
40
0.068479257357200674
40
0.068479257357200674
40
0.078930170041030895
40
0.078930170041030895
40
0.078930170041030895
40
0.078930170041030895
10
-4.8811413375448609
20
51.763138252229766
30
0
10
-4.8811413375448609
20
51.827615257071642
30
0
10
-4.893347789732907
20
51.891010108694218
30
0
10
-4.9415066862659529
20
52.009951136798769
30
0
10
-4.9767657352875005
20
52.064077948913834
30
0
10
-5.0667636497522039
20
52.157435083981341
30
0
10
-5.1213241023057421
20
52.195461610734455
30
0
10
-5.2125521452452972
20
52.23520380375831
30
0
10
-5.244719045794568
20
52.245476380973983
30
0
10
-5.3117535560576812
20
52.259576352372221
30
0
10
-5.3463653325463412
20
52.263129266373411
30
0
10
-5.3811538835356743
20
52.263129266373411
30
0
0
LINE
5
295
100
AcDbEntity
8
0
100
AcDbLine
10
-5.3811538835356743
20
52.263129266373411
30
0
11
-44.381142005838221
21
52.263129266373447
31
0
0
SPLINE
5
296
100
AcDbEntity
8
0
100
AcDbSpline
70
0
71
3
72
16
73
12
74
0
42
0.000000001
43
0.0000000001
44
0.0000000001
40
0
40
0
40
0
40
0
40
0.019345769934322538
40
0.019345769934322538
40
0.038572745731300741
40
0.038572745731300741
40
0.058348339484225749
40
0.058348339484225749
40
0.068481350095087448
40
0.068481350095087448
40
0.078930410408188642
40
0.078930410408188642
40
0.078930410408188642
40
0.078930410408188642
10
-44.381142005838221
20
52.263129266373447
30
0
10
-44.445627905619318
20
52.263129266373447
30
0
10
-44.509031513212278
20
52.25092135005692
30
0
10
-44.62798408333402
20
52.202756801679655
30
0
10
-44.682114183565425
20
52.167495315819465
30
0
10
-44.775472165234547
20
52.077493975915168
30
0
10
-44.813497495826269
20
52.022933938732976
30
0
10
-44.853235017720863
20
51.931710919868017
30
0
10
-44.863505476173344
20
51.899549064704154
30
0
10
-44.877602378726635
20
51.83252593698338
30
0
10
-44.881154551828999
20
51.797920463479805
30
0
10
-44.881154551828999
20
51.763138252229766
30
0
0
LINE
5
297
100
AcDbEntity
8
0
100
AcDbLine
10
-44.881154551828999
20
51.763138252229766
30
0
11
-44.881154551828999
21
49.429129124666247
31
0
0
SPLINE
5
298
100
AcDbEntity
8
0
100
AcDbSpline
70
0
71
3
72
16
73
12
74
0
42
0.000000001
43
0.0000000001
44
0.0000000001
40
0
40
0
40
0
40
0
40
0.019343101452590061
40
0.019343101452590061
40
0.038568843546347834
40
0.038568843546347834
40
0.058344660234242361
40
0.058344660234242361
40
0.06847925735705894
40
0.06847925735705894
40
0.078930170040858588
40
0.078930170040858588
40
0.078930170040858588
40
0.078930170040858588
10
-44.881154551828999
20
49.429129124666247
30
0
10
-44.881154551828999
20
49.364652119824299
30
0
10
-44.868948099640917
20
49.301257268201653
30
0
10
-44.820789203107836
20
49.182316240097208
30
0
10
-44.78553015408643
20
49.128189427982178
30
0
10
-44.695532239621727
20
49.034832292914814
30
0
10
-44.640971787068189
20
48.996805766161806
30
0
10
-44.549743744128634
20
48.957063573138022
30
0
10
-44.517576843579434
20
48.946790995922314
30
0
10
-44.45054233331625
20
48.932691024524075
30
0
10
-44.415930556827519
20
48.929138110522885
30
0
10
-44.381142005838221
20
48.929138110522885
30
0
0
LINE
5
299
100
AcDbEntity
8
0
100
AcDbLine
10
-44.381142005838228
20
48.929138110522885
30
0
11
-28.881140653376427
21
48.929138110522885
31
0
0
SPLINE
5
300
100
AcDbEntity
8
0
100
AcDbSpline
70
0
71
3
72
24
73
20
74
0
42
0.000000001
43
0.0000000001
44
0.0000000001
40
0
40
0
40
0
40
0
40
0.038690347635378347
40
0.038690347635378347
40
0.07714177031743201
40
0.07714177031743201
40
0.11669107132116052
40
0.11669107132116052
40
0.15663174919496681
40
0.15663174919496681
40
0.19527567566306173
40
0.19527567566306173
40
0.23354118055696915
40
0.23354118055696915
40
0.2729101908713113
40
0.2729101908713113
40
0.29374964151595817
40
0.29374964151595817
40
0.31525232732263792
40
0.31525232732263792
40
0.31525232732263792
40
0.31525232732263792
10
-28.881140653376427
20
48.929138110522885
30
0
10
-28.752172827925158
20
48.929138110522885
30
0
10
-28.62536959905043
20
48.904723052988963
30
0
10
-28.387476762397448
20
48.808396585202232
30
0
10
-28.279224982498263
20
48.737877432436605
30
0
10
-28.092521650661979
20
48.557882521289528
30
0
10
-28.016476807523318
20
48.44876680989465
30
0
10
-27.91086418550627
20
48.206316823100579
30
0
10
-27.883024745655973
20
48.075876136224096
30
0
10
-27.879531507912105
20
47.813929284177732
30
0
10
-27.902260697419337
20
47.686190802782384
30
0
10
-27.99560831565163
20
47.446838513103557
30
0
10
-28.064651418180588
20
47.337793073238643
30
0
10
-28.242060092729346
20
47.148891210055339
30
0
10
-28.350107063895393
20
47.071452781996612
30
0
10
-28.533371802623755
20
46.988670187961148
30
0
10
-28.599582241226855
20
46.966779070277767
30
0
10
-28.737805746842398
20
46.936711799489004
30
0
10
-28.809278563654743
20
46.929130990254642
30
0
10
-28.881140653376427
20
46.929130990254642
30
0
0
LINE
5
301
100
AcDbEntity
8
0
100
AcDbLine
10
-28.881140653376427
20
46.929130990254635
30
0
11
-120.88114520801344
21
46.929130990254677
31
0
0
SPLINE
5
302
100
AcDbEntity
8
0
100
AcDbSpline
70
0
71
3
72
24
73
20
74
0
42
0.000000001
43
0.0000000001
44
0.0000000001
40
0
40
0
40
0
40
0
40
0.03869128922047322
40
0.03869128922047322
40
0.077143461354735154
40
0.077143461354735154
40
0.11669358091258028
40
0.11669358091258028
40
0.15663378959733426
40
0.15663378959733426
40
0.19527418076346084
40
0.19527418076346084
40
0.23353545325280375
40
0.23353545325280375
40
0.2728995902998741
40
0.2728995902998741
40
0.29373942222445049
40
0.29373942222445049
40
0.31524278685541057
40
0.31524278685541057
40
0.31524278685541057
40
0.31524278685541057
10
-120.88114520801344
20
46.929130990254677
30
0
10
-121.01011617208169
20
46.929130990254677
30
0
10
-121.13692227844759
20
46.953546506551795
30
0
10
-121.37482033600223
20
47.049874917915595
30
0
10
-121.48307436375688
20
47.120395279011476
30
0
10
-121.66978203326117
20
47.300392939267937
30
0
10
-121.74582928907327
20
47.409510614953767
30
0
10
-121.85144316788246
20
47.651960872162356
30
0
10
-121.87928326150809
20
47.782399913060942
30
0
10
-121.8827752739615
20
48.044332819404545
30
0
10
-121.86004844637657
20
48.172078006401051
30
0
10
-121.76670465639342
20
48.411428346473357
30
0
10
-121.69766468636554
20
48.520471469761688
30
0
10
-121.52026233442342
20
48.709368928470766
30
0
10
-121.41222001311769
20
48.786804694814343
30
0
10
-121.22895397414185
20
48.86959127037926
30
0
10
-121.16273658132202
20
48.891485199552491
30
0
10
-121.02449745280236
20
48.921556428941884
30
0
10
-120.95301596240341
20
48.929138110522885
30
0
10
-120.88114520801348
20
48.929138110522885
30
0
0
LINE
5
303
100
AcDbEntity
8
0
100
AcDbLine
10
-120.88114520801349
20
48.929138110522892
30
0
11
-105.38114385555168
21
48.929138110522885
31
0
0
SPLINE
5
304
100
AcDbEntity
8
0
100
AcDbSpline
70
0
71
3
72
16
73
12
74
0
42
0.000000001
43
0.0000000001
44
0.0000000001
40
0
40
0
40
0
40
0
40
0.01934550622088627
40
0.01934550622088627
40
0.038570981689950969
40
0.038570981689950969
40
0.05834548798340785
40
0.05834548798340785
40
0.068479199064168245
40
0.068479199064168245
40
0.078929059894577019
40
0.078929059894577019
40
0.078929059894577019
40
0.078929059894577019
10
-105.38114385555168
20
48.929138110522885
30
0
10
-105.31665883481543
20
48.929138110522885
30
0
10
-105.25325635538678
20
48.941345694015297
30
0
10
-105.13430984170051
20
48.989509359811834
30
0
10
-105.08018476556741
20
49.024768522485367
30
0
10
-104.98683396729605
20
49.114764817471155
30
0
10
-104.94881149941872
20
49.169322172796015
30
0
10
-104.90907420278994
20
49.260543891898934
30
0
10
-104.89880306501058
20
49.292708010608166
30
0
10
-104.88470521919569
20
49.359736056846515
30
0
10
-104.88115284140802
20
49.394344238437498
30
0
10
-104.88115284140802
20
49.429129124666247
30
0
0
LINE
5
305
100
AcDbEntity
8
0
100
AcDbLine
10
-104.88115284140801
20
49.429129124666247
30
0
11
-104.88115284140802
21
51.763138252229766
31
0
0
SPLINE
5
306
100
AcDbEntity
8
0
100
AcDbSpline
70
0
71
3
72
16
73
12
74
0
42
0.000000001
43
0.0000000001
44
0.0000000001
40
0
40
0
40
0
40
0
40
0.019344828355267001
40
0.019344828355267001
40
0.038571054711309921
40
0.038571054711309921
40
0.058345829867786435
40
0.058345829867786435
40
0.068479145042540809
40
0.068479145042540809
40
0.07892886793128627
40
0.07892886793128627
40
0.07892886793128627
40
0.07892886793128627
10
-104.88115284140802
20
51.763138252229766
30
0
10
-104.88115284140802
20
51.827621013413996
30
0
10
-104.89336029896945
20
51.891021743584673
30
0
10
-104.94152290378985
20
52.009969092883708
30
0
10
-104.97678318134363
20
52.064096945290785
30
0
10
-105.0667817722011
20
52.157450589167027
30
0
10
-105.12133984498389
20
52.195473506881243
30
0
10
-105.21256189444536
20
52.235209749393192
30
0
10
-105.24472488812589
20
52.245480150693524
30
0
10
-105.31175151620644
20
52.259577171238902
30
0
10
-105.3463593137821
20
52.263129266373447
30
0
10
-105.38114385555168
20
52.263129266373447
30
0
0
LINE
5
307
100
AcDbEntity
8
0
100
AcDbLine
10
-105.38114385555168
20
52.263129266373454
30
0
11
-146.58114842288836
21
52.263129266373447
31
0
0
SPLINE
5
308
100
AcDbEntity
8
0
100
AcDbSpline
70
0
71
3
72
16
73
12
74
0
42
0.000000001
43
0.0000000001
44
0.0000000001
40
0
40
0
40
0
40
0
40
0.019345506220867125
40
0.019345506220867125
40
0.038570981689918203
40
0.038570981689918203
40
0.058345487983371212
40
0.058345487983371212
40
0.068479199064119409
40
0.068479199064119409
40
0.078929059894496736
40
0.078929059894496736
40
0.078929059894496736
40
0.078929059894496736
10
-146.58114842288836
20
52.263129266373447
30
0
10
-146.6456334436246
20
52.263129266373447
30
0
10
-146.70903592305314
20
52.250921682881071
30
0
10
-146.82798243673921
20
52.202758017084605
30
0
10
-146.88210751287227
20
52.167498854411214
30
0
10
-146.97545831114377
20
52.077502559425284
30
0
10
-147.01348077902114
20
52.022945204100353
30
0
10
-147.05321807565002
20
51.931723484997363
30
0
10
-147.06348921342942
20
51.899559366288202
30
0
10
-147.07758705924437
20
51.832531320049569
30
0
10
-147.08113943703205
20
51.797923138458444
30
0
10
-147.08113943703205
20
51.763138252229766
30
0
0
LINE
5
309
100
AcDbEntity
8
0
100
AcDbLine
10
-147.08113943703205
20
51.763138252229766
30
0
11
-147.08113943703205
21
50.763134692095662
31
0
0
SPLINE
5
310
100
AcDbEntity
8
0
100
AcDbSpline
70
0
71
3
72
24
73
20
74
0
42
0.000000001
43
0.0000000001
44
0.0000000001
40
0
40
0
40
0
40
0
40
0.10833690929061343
40
0.10833690929061343
40
0.21600349964574594
40
0.21600349964574594
40
0.32674243409783849
40
0.32674243409783849
40
0.4385746646677941
40
0.4385746646677941
40
0.54677248582399141
40
0.54677248582399141
40
0.65390887380334628
40
0.65390887380334628
40
0.76413500709501836
40
0.76413500709501836
40
0.82248681128656798
40
0.82248681128656798
40
0.8826961604508361
40
0.8826961604508361
40
0.8826961604508361
40
0.8826961604508361
10
-147.08113943703205
20
50.763134692095662
30
0
10
-147.08113943703205
20
50.402011661126949
30
0
10
-147.14950384323714
20
50.046949693796137
30
0
10
-147.41922658890428
20
49.380829955679104
30
0
10
-147.61668502960359
20
49.077717582443441
30
0
10
-148.12067958765113
20
48.554941213684302
30
0
10
-148.42620609518801
20
48.342014357326555
30
0
10
-149.10506425563676
20
48.046303320434696
30
0
10
-149.47029255651785
20
47.968355398968754
30
0
10
-150.20371998726429
20
47.95857997935034
30
0
10
-150.56139536885343
20
48.022219910721091
30
0
10
-151.23157264844491
20
48.283590558727738
30
0
10
-151.53689155939406
20
48.476906624459488
30
0
10
-152.06580390193722
20
48.973641726835169
30
0
10
-152.28262511685958
20
49.276167074768509
30
0
10
-152.51442099202239
20
49.789312188303043
30
0
10
-152.57572033721399
20
49.974713831047595
30
0
10
-152.65991459415761
20
50.361766972271909
30
0
10
-152.68114214830564
20
50.561905889685406
30
0
10
-152.68114214830564
20
50.763134692095662
30
0
0
LINE
5
311
100
AcDbEntity
8
0
100
AcDbLine
10
-152.68114214830564
20
50.763134692095655
30
0
11
-152.68114214830564
21
51.763138252229766
31
0
0
SPLINE
5
312
100
AcDbEntity
8
0
100
AcDbSpline
70
0
71
3
72
16
73
12
74
0
42
0.000000001
43
0.0000000001
44
0.0000000001
40
0
40
0
40
0
40
0
40
0.01934308839135036
40
0.01934308839135036
40
0.038569109590187535
40
0.038569109590187535
40
0.05834490684765116
40
0.05834490684765116
40
0.0684785513145241
40
0.0684785513145241
40
0.078928288143187697
40
0.078928288143187697
40
0.078928288143187697
40
0.078928288143187697
10
-152.68114214830564
20
51.763138252229766
30
0
10
-152.68114214830564
20
51.827615213534308
30
0
10
-152.69334858400919
20
51.891010045815378
30
0
10
-152.74150728342181
20
52.009952100054058
30
0
10
-152.77676661985902
20
52.064080060643789
30
0
10
-152.86676450907268
20
52.157438306280923
30
0
10
-152.92132467866875
20
52.195465375865027
30
0
10
-153.01254960939013
20
52.23520618736277
30
0
10
-153.04471339933338
20
52.245477911351514
30
0
10
-153.1117408061728
20
52.25957661237306
30
0
10
-153.14634859684764
20
52.263129266373447
30
0
10
-153.18113316244958
20
52.263129266373447
30
0
0
LINE
5
313
100
AcDbEntity
8
0
100
AcDbLine
10
-153.18113316244958
20
52.263129266373447
30
0
11
-157.19047069264275
21
52.263129266373447
31
0
0
SPLINE
5
314
100
AcDbEntity
8
0
100
AcDbSpline
70
0
71
3
72
16
73
12
74
0
42
0.000000001
43
0.0000000001
44
0.0000000001
40
0
40
0
40
0
40
0
40
0.019345769934274764
40
0.019345769934274764
40
0.038572745731240962
40
0.038572745731240962
40
0.058348339484174186
40
0.058348339484174186
40
0.068481350095013327
40
0.068481350095013327
40
0.07893041040805239
40
0.07893041040805239
40
0.07893041040805239
40
0.07893041040805239
10
-157.19047069264275
20
52.263129266373447
30
0
10
-157.2549565924237
20
52.263129266373447
30
0
10
-157.31836020001654
20
52.250921350056956
30
0
10
-157.43731277013813
20
52.202756801679726
30
0
10
-157.49144287036953
20
52.167495315819536
30
0
10
-157.58480085203857
20
52.077493975915345
30
0
10
-157.62282618263038
20
52.022933938733189
30
0
10
-157.66256370452498
20
51.931710919868195
30
0
10
-157.67283416297747
20
51.899549064704402
30
0
10
-157.68693106553081
20
51.83252593698338
30
0
10
-157.69048323863319
20
51.797920463479805
30
0
10
-157.69048323863319
20
51.763138252229766
30
0
0
LINE
5
315
100
AcDbEntity
8
0
100
AcDbLine
10
-157.69048323863322
20
51.763138252229766
30
0
11
-157.69048323863319
21
49.429129124666247
31
0
0
SPLINE
5
316
100
AcDbEntity
8
0
100
AcDbSpline
70
0
71
3
72
16
73
12
74
0
42
0.000000001
43
0.0000000001
44
0.0000000001
40
0
40
0
40
0
40
0
40
0.019343101452586012
40
0.019343101452586012
40
0.038568843546337953
40
0.038568843546337953
40
0.05834466023421455
40
0.05834466023421455
40
0.068479257357012713
40
0.068479257357012713
40
0.078930170040796097
40
0.078930170040796097
40
0.078930170040796097
40
0.078930170040796097
10
-157.69048323863319
20
49.429129124666247
30
0
10
-157.69048323863319
20
49.364652119824335
30
0
10
-157.67827678644511
20
49.301257268201653
30
0
10
-157.6301178899121
20
49.182316240097208
30
0
10
-157.59485884089062
20
49.128189427982178
30
0
10
-157.50486092642586
20
49.034832292914743
30
0
10
-157.4503004738724
20
48.9968057661617
30
0
10
-157.35907243093288
20
48.957063573137987
30
0
10
-157.32690553038367
20
48.946790995922242
30
0
10
-157.25987102012061
20
48.932691024524075
30
0
10
-157.22525924363194
20
48.929138110522885
30
0
10
-157.19047069264275
20
48.929138110522885
30
0
0
LINE
5
317
100
AcDbEntity
8
0
100
AcDbLine
10
-157.19047069264275
20
48.929138110522885
30
0
11
-154.00916186232945
21
48.929138110522885
31
0
0
SPLINE
5
318
100
AcDbEntity
8
0
100
AcDbSpline
70
0
71
3
72
24
73
20
74
0
42
0.000000001
43
0.0000000001
44
0.0000000001
40
0
40
0
40
0
40
0
40
0.038693029290825631
40
0.038693029290825631
40
0.077145406377521764
40
0.077145406377521764
40
0.11669450392929052
40
0.11669450392929052
40
0.1566347940813792
40
0.1566347940813792
40
0.19527878136715107
40
0.19527878136715107
40
0.23354416295888816
40
0.23354416295888816
40
0.27291331427472648
40
0.27291331427472648
40
0.29375335470663982
40
0.29375335470663982
40
0.31525684714706831
40
0.31525684714706831
40
0.31525684714706831
40
0.31525684714706831
10
-154.00916186232945
20
48.929138110522885
30
0
10
-153.88018509802669
20
48.929138110522885
30
0
10
-153.75337309337152
20
48.904721572356848
30
0
10
-153.51546974130747
20
48.808389255290123
30
0
10
-153.40721582241829
20
48.737867953335012
30
0
10
-153.22051275493988
20
48.557869591803069
30
0
10
-153.14446965061364
20
48.448754012668118
30
0
10
-153.03886070689794
20
48.206304975737488
30
0
10
-153.0110230837364
20
48.075865498076098
30
0
10
-153.00753222088031
20
47.813920094890321
30
0
10
-153.0302625306085
20
47.686182195096976
30
0
10
-153.12361229936442
20
47.446831891951362
30
0
10
-153.19265610242027
20
47.337788094886477
30
0
10
-153.37006647693104
20
47.148888831929909
30
0
10
-153.47811437214284
20
47.071451906065569
30
0
10
-153.66138161791824
20
46.988670144119773
30
0
10
-153.72759394998471
20
46.966779058160597
30
0
10
-153.8658218737497
20
46.936711741804125
30
0
10
-153.9372972442801
20
46.929130990254677
30
0
10
-154.00916186232939
20
46.929130990254677
30
0
0
LINE
5
319
100
AcDbEntity
8
0
100
AcDbLine
10
-154.00916186232939
20
46.929130990254677
30
0
11
-162.2064305435683
21
46.929130990254677
31
0
0
ARC
5
320
100
AcDbEntity
8
0
100
AcDbCircle
10
-162.2064305435683
20
45.829130990254683
30
0
40
1.0999999999999943
210
0
220
-0
230
1
100
AcDbArc
50
90
51
180
0
LINE
5
321
100
AcDbEntity
8
0
100
AcDbLine
10
26.118861367378479
20
-32.486865626176105
30
0
11
26.118861367378479
21
-43.886858841642074
31
0
0
SPLINE
5
322
100
AcDbEntity
8
0
100
AcDbSpline
70
0
71
3
72
11
73
7
74
0
42
0.000000001
43
0.0000000001
44
0.0000000001
40
0
40
0
40
0
40
0
40
1
40
1
40
1
40
2
40
2
40
2
40
2
10
26.118861367378479
20
-43.886858841642074
30
0
10
26.118861367378479
20
-44.604838272614877
30
0
10
25.536812485145468
20
-45.186865623001076
30
0
10
24.818854586019476
20
-45.186865623001076
30
0
10
24.100875155046566
20
-45.186865623001076
30
0
10
23.518847804660474
20
-44.604838272614877
30
0
10
23.518847804660474
20
-43.886858841642074
30
0
0
LINE
5
323
100
AcDbEntity
8
0
100
AcDbLine
10
23.518847804660474
20
-43.886858841642074
30
0
11
23.518847804660474
21
-32.486865626176105
31
0
0
SPLINE
5
324
100
AcDbEntity
8
0
100
AcDbSpline
70
0
71
3
72
11
73
7
74
0
42
0.000000001
43
0.0000000001
44
0.0000000001
40
3
40
3
40
3
40
3
40
4
40
4
40
4
40
5
40
5
40
5
40
5
10
23.518847804660474
20
-32.486865626176105
30
0
10
23.518847804660474
20
-31.768907727050006
30
0
10
24.100875155046566
20
-31.186858844817067
30
0
10
24.818854586019476
20
-31.186858844817067
30
0
10
25.536812485145468
20
-31.186858844817067
30
0
10
26.118861367378479
20
-31.768907727050006
30
0
10
26.118861367378479
20
-32.486865626176105
30
0
0
ENDSEC
0
SECTION
2
OBJECTS
0
DICTIONARY
5
C
100
AcDbDictionary
3
ACAD_GROUP
350
D
3
ACAD_MLINESTYLE
350
17
0
DICTIONARY
5
D
100
AcDbDictionary
0
DICTIONARY
5
1A
330
C
100
AcDbDictionary
0
DICTIONARY
5
17
100
AcDbDictionary
0
ENDSEC
0
EOF
