0
SECTION
2
HEADER
9
$INSUNITS
70
4
9
$ACADVER
1
AC1014
9
$HANDSEED
5
FFFF
0
ENDSEC
0
SECTION
2
TABLES
0
TABLE
2
VPORT
5
8
100
AcDbSymbolTable
0
ENDTAB
0
TABLE
2
LTYPE
5
5
100
AcDbSymbolTable
0
LTYPE
5
14
100
AcDbSymbolTableRecord
100
AcDbLinetypeTableRecord
2
BYBLOCK
70
0
0
LTYPE
5
15
100
AcDbSymbolTableRecord
100
AcDbLinetypeTableRecord
2
BYLAYER
70
0
0
LTYPE
5
16
100
AcDbSymbolTableRecord
100
AcDbLinetypeTableRecord
2
DASHED
70
0
3
Dashed __ __ __ __ __ __ __ __ __ __ __ __ __ _
72
65
73
2
40
0.75
49
0.5
74
0
49
-0.25
74
0
0
ENDTAB
0
TABLE
2
LAYER
5
2
100
AcDbSymbolTable
70
2
0
LAYER
5
50
100
AcDbSymbolTableRecord
100
AcDbLayerTableRecord
2
0
70
0
62
7
6
CONTINUOUS
0
ENDTAB
0
TABLE
2
STYLE
5
3
100
AcDbSymbolTable
70
1
0
STYLE
5
11
100
AcDbSymbolTableRecord
100
AcDbTextStyleTableRecord
2
STANDARD
70
0
0
ENDTAB
0
TABLE
2
VIEW
5
6
100
AcDbSymbolTable
70
0
0
ENDTAB
0
TABLE
2
UCS
5
7
100
AcDbSymbolTable
70
0
0
ENDTAB
0
TABLE
2
APPID
5
9
100
AcDbSymbolTable
70
2
0
APPID
5
12
100
AcDbSymbolTableRecord
100
AcDbRegAppTableRecord
2
ACAD
70
0
0
ENDTAB
0
TABLE
2
DIMSTYLE
5
A
100
AcDbSymbolTable
70
1
0
ENDTAB
0
TABLE
2
BLOCK_RECORD
5
1
100
AcDbSymbolTable
70
1
0
BLOCK_RECORD
5
1F
100
AcDbSymbolTableRecord
100
AcDbBlockTableRecord
2
*MODEL_SPACE
0
BLOCK_RECORD
5
1B
100
AcDbSymbolTableRecord
100
AcDbBlockTableRecord
2
*PAPER_SPACE
0
ENDTAB
0
ENDSEC
0
SECTION
2
BLOCKS
0
BLOCK
5
20
100
AcDbEntity
100
AcDbBlockBegin
2
*MODEL_SPACE
0
ENDBLK
5
21
100
AcDbEntity
100
AcDbBlockEnd
0
BLOCK
5
1C
100
AcDbEntity
100
AcDbBlockBegin
2
*PAPER_SPACE
0
ENDBLK
5
1D
100
AcDbEntity
100
AcDbBlockEnd
0
ENDSEC
0
SECTION
2
ENTITIES
0
LWPOLYLINE
5
100
100
AcDbEntity
8
0
100
AcDbPolyline
90
20
70
1
43
0.0
10
107.80000011697153
20
45.10560340108615
10
139.85000011697156
20
45.105603401084835
42
-0.41421356237326151
10
140.35000011697153
20
44.605603401082959
10
140.35000011697156
20
31.605603401083258
42
-0.41421356237307422
10
139.85000011697156
20
31.105603401084068
10
139.26300011697148
20
31.105603401083968
10
139.26300011697148
20
30.605603401083972
42
-0.41421356237312101
10
138.76300011697143
20
30.105603401083876
10
132.76300011697097
20
30.105603401083894
42
-0.41421356237307422
10
132.26300011697148
20
30.605603401083314
10
132.26300011697151
20
31.105603401083535
10
115.38700011697139
20
31.105603401084174
10
115.38700011697139
20
30.605603401083687
42
-0.41421356237313667
10
114.88700011697168
20
30.105603401083997
10
108.88700011697159
20
30.105603401084
42
-0.41421356237311585
10
108.38700011697149
20
30.605603401084132
10
108.38700011697148
20
31.105603401083897
10
107.80000011697155
20
31.105603401083961
42
-0.41421356237313145
10
107.3000001169715
20
31.605603401083656
10
107.30000011697152
20
44.60560340108303
42
-0.41421356237316787
0
LWPOLYLINE
5
101
100
AcDbEntity
8
0
100
AcDbPolyline
90
8
70
1
43
0.0
10
26.050000116971468
20
44.605603401084494
42
0.4142135623730846
10
25.550000116971461
20
45.105603401083982
10
12.550000116971525
20
45.10560340108411
42
0.4142135623730534
10
12.050000116971411
20
44.605603401084068
10
12.05000011697142
20
31.605603401083798
42
0.41421356237305862
10
12.550000116971525
20
31.105603401083684
10
25.550000116971479
20
31.105603401083801
42
0.41421356237288171
10
26.05000011697145
20
31.605603401083798
0
LWPOLYLINE
5
102
100
AcDbEntity
8
0
100
AcDbPolyline
90
8
70
1
43
0.0
10
-140.34999988302852
20
31.605603401083773
10
-140.34999988302852
20
44.605603401083798
42
-0.41421356237310542
10
-139.84999988302852
20
45.105603401083826
10
-126.84999988302862
20
45.105603401083805
42
-0.41421356237309503
10
-126.34999988302846
20
44.605603401083798
10
-126.3499998830285
20
31.605603401083773
42
-0.41421356237312101
10
-126.84999988302849
20
31.105603401083776
10
-139.84999988302852
20
31.105603401083766
42
-0.41421356237301177
0
LWPOLYLINE
5
103
100
AcDbEntity
8
0
100
AcDbPolyline
90
8
70
1
43
0.0
10
11.762500117564816
20
-12.544396599509593
10
11.76250011756478
20
-25.544396599509547
42
-0.41421356237310802
10
11.262500117564773
20
-26.044396599509504
10
-1.7374998824352161
20
-26.044396599509547
42
-0.41421356237306123
10
-2.2374998824352366
20
-25.544396599509476
10
-2.237499882435241
20
-12.544396599509504
42
-0.41421356237309503
10
-1.7374998824352161
20
-12.044396599509586
10
11.262500117564809
20
-12.044396599509582
42
-0.41421356237305601
0
LWPOLYLINE
5
104
100
AcDbEntity
8
0
100
AcDbPolyline
90
8
70
1
43
0.0
10
21.287500117564811
20
6.5056034004904717
42
0.41421356237314189
10
20.787500117564779
20
7.0056034004903722
10
7.7875001175647718
20
7.0056034004904966
42
0.41421356237304818
10
7.2875001175647824
20
6.5056034004904095
10
7.2875001175647736
20
-6.4943965995095265
42
0.41421356237307944
10
7.7875001175647895
20
-6.9943965995094803
10
20.787500117564779
20
-6.9943965995095603
42
0.41421356237296497
10
21.287500117564715
20
-6.4943965995095265
0
LWPOLYLINE
5
105
100
AcDbEntity
8
0
100
AcDbPolyline
90
8
70
1
43
0.0
10
2.5250001175647974
20
12.555603400490511
42
0.4142135623730846
10
3.0250001175647689
20
12.055603400490451
10
16.025000117564776
20
12.055603400490602
42
0.41421356237314189
10
16.525000117564783
20
12.555603400490511
10
16.525000117564772
20
25.555603400490405
42
0.41421356237307422
10
16.025000117564776
20
26.055603400490543
10
3.0250001175647689
20
26.055603400490426
42
0.41421356237306384
10
2.5250001175647974
20
25.555603400490405
0
LWPOLYLINE
5
106
100
AcDbEntity
8
0
100
AcDbPolyline
90
8
70
1
43
0.0
10
98.275000117564787
20
26.055603400490305
42
0.41421356237300661
10
97.775000117564758
20
25.55560340049043
10
97.775000117564758
20
12.555603400490458
42
0.41421356237310025
10
98.275000117564772
20
12.055603400490371
10
111.27500011756479
20
12.055603400490327
42
0.41421356237299095
10
111.77500011756486
20
12.555603400490734
10
111.7750001175648
20
25.555603400490092
42
0.41421356237321988
10
111.2750001175648
20
26.055603400490703
0
LWPOLYLINE
5
107
100
AcDbEntity
8
0
100
AcDbPolyline
90
8
70
1
43
0.0
10
111.2750001169715
20
-45.094396598916475
42
0.41421356237309503
10
111.77500011697151
20
-44.594396598916305
10
111.77500011697154
20
-31.594396598916411
42
0.41421356237312884
10
111.2750001169715
20
-31.094396598916241
10
98.275000116971526
20
-31.09439659891645
42
0.41421356237301959
10
97.775000116971512
20
-31.594396598916141
10
97.775000116971512
20
-44.594396598916305
42
0.41421356237299095
10
98.275000116971484
20
-45.094396598916248
0
LWPOLYLINE
5
108
100
AcDbEntity
8
0
100
AcDbPolyline
90
8
70
1
43
0.0
10
106.00575011697151
20
-7.4943965989163353
10
106.00575011697144
20
7.5056034010837802
42
-0.4142135623730957
10
106.50575011697157
20
8.0056034010839046
10
112.50575011697129
20
8.0056034010839099
42
-0.4142135623730937
10
113.00575011697137
20
7.5056034010838157
10
113.00575011697154
20
-7.4943965989162287
42
-0.4142135623730534
10
112.50575011697129
20
-7.9943965989164489
10
106.5057501169715
20
-7.994396598916369
42
-0.41421356237310025
0
LWPOLYLINE
5
109
100
AcDbEntity
8
0
100
AcDbPolyline
90
8
70
1
43
0.0
10
129.88175011697155
20
-7.4943965989168859
10
129.88175011697152
20
7.5056034010839952
42
-0.41421356237309503
10
130.38175011697146
20
8.0056034010839223
10
136.38175011697157
20
8.0056034010839277
42
-0.41421356237309503
10
136.88175011697146
20
7.5056034010840449
10
136.88175011697152
20
-7.4943965989165306
42
-0.41421356237314189
10
136.38175011697129
20
-7.994396598916703
10
130.38175011697132
20
-7.9943965989166355
42
-0.41421356237315227
0
LWPOLYLINE
5
110
100
AcDbEntity
8
0
100
AcDbPolyline
90
8
70
1
43
0.0
10
135.58750011697148
20
-31.594396598916159
10
135.58750011697148
20
-44.594396598916077
42
-0.41421356237313667
10
135.08750011697151
20
-45.094396598916475
10
122.0875001169715
20
-45.094396598916084
42
-0.41421356237311585
10
121.5875001169715
20
-44.594396598916184
10
121.5875001169715
20
-31.59439659891623
42
-0.41421356237297013
10
122.08750011697137
20
-31.094396598916457
10
135.08750011697148
20
-31.094396598916177
42
-0.41421356237310025
0
LWPOLYLINE
5
111
100
AcDbEntity
8
0
100
AcDbPolyline
90
14
70
1
43
0.0
10
125.11925011697151
20
-26.54439659891624
10
125.11925011697159
20
-11.54439659891629
42
-0.4142135623730937
10
125.61925011697159
20
-11.04439659891629
10
131.61925011697147
20
-11.044396598916284
42
-0.41421356237309503
10
132.1192501169715
20
-11.544396598916292
10
132.1192501169715
20
-12.044396598916208
10
139.85000011697156
20
-12.04439659891619
42
-0.41421356237310802
10
140.35000011697156
20
-12.544396598916236
10
140.35000011697147
20
-25.544396598916403
42
-0.41421356237311585
10
139.85000011697156
20
-26.044396598916446
10
132.11925011697153
20
-26.044396598916137
10
132.1192501169715
20
-26.544396598916062
42
-0.41421356237305079
10
131.6192501169717
20
-27.044396598915981
10
125.61925011697154
20
-27.044396598916297
42
-0.41421356237305079
0
LWPOLYLINE
5
112
100
AcDbEntity
8
0
100
AcDbPolyline
90
8
70
1
43
0.0
10
121.5875001169715
20
12.555603401083637
42
0.41421356237332396
10
122.0875001169715
20
12.055603401083879
10
135.08750011697151
20
12.055603401083379
42
0.4142135623730846
10
135.58750011697154
20
12.55560340108369
10
135.58750011697146
20
25.555603401083609
42
0.41421356237301699
10
135.08750011697151
20
26.055603401083793
10
122.0875001169715
20
26.055603401084273
42
0.41421356237300139
10
121.5875001169715
20
25.555603401083964
0
LWPOLYLINE
5
113
100
AcDbEntity
8
0
100
AcDbPolyline
90
8
70
1
43
0.0
10
114.44375011697154
20
-6.4943965989162766
42
0.41421356237312101
10
114.94375011697144
20
-6.9943965989163637
10
127.94375011697147
20
-6.9943965989163104
42
0.41421356237286611
10
128.44375011697144
20
-6.4943965989163477
10
128.44375011697144
20
6.5056034010835795
42
0.41421356237298057
10
127.94375011697143
20
7.0056034010836132
10
114.94375011697142
20
7.0056034010840129
42
0.41421356237300661
10
114.44375011697147
20
6.5056034010835262
0
LWPOLYLINE
5
114
100
AcDbEntity
8
0
100
AcDbPolyline
90
8
70
1
43
0.0
10
97.487500117564764
20
6.5056034004906138
42
0.41421356237316787
10
96.987500117564736
20
7.0056034004905499
10
83.987500117564821
20
7.0056034004903722
42
0.41421356237307422
10
83.487500117564849
20
6.5056034004905783
10
83.487500117564863
20
-6.494396599509713
42
0.41421356237316787
10
83.987500117564821
20
-6.9943965995095869
10
96.98750011756475
20
-6.9943965995096935
42
0.4142135623730222
10
97.487500117564736
20
-6.494396599509713
0
LWPOLYLINE
5
115
100
AcDbEntity
8
0
100
AcDbPolyline
90
8
70
1
43
0.0
10
59.387500117564841
20
6.5056034004904184
42
0.41421356237318346
10
58.887500117564819
20
7.0056034004904166
10
45.887500117564727
20
7.0056034004904699
42
0.4142135623730846
10
45.387500117564713
20
6.5056034004905516
10
45.387500117564663
20
-6.4943965995093311
42
0.41421356237312623
10
45.887500117564727
20
-6.9943965995095869
10
58.887500117564841
20
-6.9943965995095336
42
0.41421356237292856
10
59.387500117564841
20
-6.4943965995095265
0
LWPOLYLINE
5
116
100
AcDbEntity
8
0
100
AcDbPolyline
90
8
70
1
43
0.0
10
54.912500117564811
20
-25.5443965995096
10
54.912500117564882
20
-12.544396599509637
42
-0.41421356237301699
10
55.412500117564804
20
-12.044396599509533
10
68.412500117564747
20
-12.044396599509781
42
-0.41421356237314966
10
68.912500117564775
20
-12.544396599509543
10
68.912500117564775
20
-25.544396599509476
42
-0.41421356237295714
10
68.412500117564747
20
-26.044396599509557
10
55.412500117564747
20
-26.044396599509412
42
-0.4142135623730222
0
LWPOLYLINE
5
117
100
AcDbEntity
8
0
100
AcDbPolyline
90
8
70
1
43
0.0
10
31.600000116971518
20
45.105603401082263
42
0.41421356237313667
10
31.100000116971529
20
44.605603401084259
10
31.10000011697144
20
31.605603401083684
42
0.41421356237304818
10
31.600000116971518
20
31.105603401083648
10
44.600000116971387
20
31.105603401083492
42
0.41421356237314189
10
45.100000116971458
20
31.605603401083535
10
45.100000116971444
20
44.605603401083144
42
0.4142135623732407
10
44.600000116971387
20
45.10560340108416
0
LWPOLYLINE
5
118
100
AcDbEntity
8
0
100
AcDbPolyline
90
8
70
1
43
0.0
10
54.625000117564788
20
25.555603400490405
42
0.41421356237303258
10
54.125000117564795
20
26.055603400490071
10
41.125000117564724
20
26.055603400490426
42
0.41421356237304818
10
40.625000117564852
20
25.555603400490572
10
40.62500011756471
20
12.555603400490449
42
0.41421356237313145
10
41.125000117564724
20
12.055603400490451
10
54.125000117564795
20
12.055603400490318
42
0.4142135623730378
10
54.625000117564909
20
12.555603400490547
0
LWPOLYLINE
5
119
100
AcDbEntity
8
0
100
AcDbPolyline
90
8
70
1
43
0.0
10
16.812500117564845
20
-25.544396599509462
42
0.41421356237316009
10
17.312500117564849
20
-26.044396599509504
10
30.312500117564785
20
-26.044396599509511
42
0.41421356237297535
10
30.812500117564792
20
-25.544396599509458
10
30.812500117564788
20
-12.544396599509682
42
0.41421356237311063
10
30.312500117564785
20
-12.044396599509621
10
17.312500117564849
20
-12.044396599509643
42
0.41421356237306123
10
16.812500117564841
20
-12.544396599509593
0
LWPOLYLINE
5
120
100
AcDbEntity
8
0
100
AcDbPolyline
90
8
70
1
43
0.0
10
26.837500117564801
20
7.0056034004903367
42
0.41421356237314705
10
26.337500117564776
20
6.5056034004904717
10
26.337500117564794
20
-6.494396599509491
42
0.41421356237313145
10
26.837500117564783
20
-6.9943965995096491
10
39.8375001175649
20
-6.9943965995094448
42
0.41421356237304818
10
40.337500117564801
20
-6.4943965995095088
10
40.337500117564801
20
6.5056034004904895
42
0.41421356237320428
10
39.837500117564716
20
7.0056034004905055
0
LWPOLYLINE
5
121
100
AcDbEntity
8
0
100
AcDbPolyline
90
8
70
1
43
0.0
10
36.36250011756475
20
-12.044396599509595
42
0.41421356237307683
10
35.8625001175647
20
-12.544396599509508
10
35.862500117564707
20
-25.544396599509586
42
0.41421356237311585
10
36.36250011756475
20
-26.044396599509518
10
49.362500117564743
20
-26.04439659950938
42
0.41421356237302737
10
49.862500117564807
20
-25.544396599509476
10
49.862500117564807
20
-12.544396599509593
42
0.41421356237323809
10
49.362500117564743
20
-12.044396599509604
0
LWPOLYLINE
5
122
100
AcDbEntity
8
0
100
AcDbPolyline
90
8
70
1
43
0.0
10
35.575000117564684
20
25.555603400490405
10
35.575000117564713
20
12.555603400490476
42
-0.4142135623730534
10
35.075000117564784
20
12.055603400490478
10
22.075000117564798
20
12.055603400490513
42
-0.41421356237311585
10
21.57500011756472
20
12.55560340049052
10
21.575000117564834
20
25.555603400490547
42
-0.41421356237315748
10
22.075000117564798
20
26.055603400490401
10
35.075000117564713
20
26.055603400490543
42
-0.41421356237311063
0
LWPOLYLINE
5
123
100
AcDbEntity
8
0
100
AcDbPolyline
90
8
70
1
43
0.0
10
50.650000116971498
20
45.105603401084338
42
0.41421356237300139
10
50.150000116971526
20
44.605603401082647
10
50.150000116971526
20
31.605603401083755
42
0.4142135623732251
10
50.650000116971498
20
31.105603401083918
10
63.650000116971526
20
31.105603401083918
42
0.41421356237297013
10
64.150000116971512
20
31.605603401083862
10
64.150000116971512
20
44.605603401083854
42
0.41421356237314705
10
63.650000116971526
20
45.105603401082547
0
LWPOLYLINE
5
124
100
AcDbEntity
8
0
100
AcDbPolyline
90
8
70
1
43
0.0
10
87.962500116971526
20
-31.594396598916322
42
0.41421356237317047
10
87.462500116971555
20
-31.094396598916376
10
74.462500116971498
20
-31.094396598916248
42
0.41421356237291296
10
73.962500116971512
20
-31.594396598916159
10
73.962500116971512
20
-44.594396598916113
42
0.41421356237310025
10
74.462500116971498
20
-45.094396598916298
10
87.462500116971512
20
-45.094396598916319
42
0.41421356237329271
10
87.962500116971484
20
-44.594396598916433
0
LWPOLYLINE
5
125
100
AcDbEntity
8
0
100
AcDbPolyline
90
8
70
1
43
0.0
10
73.175000117564835
20
12.055603400490345
10
60.175000117564807
20
12.055603400490149
42
-0.41421356237312623
10
59.675000117564693
20
12.555603400490423
10
59.675000117564736
20
25.55560340049081
42
-0.41421356237313667
10
60.175000117564807
20
26.055603400490277
10
73.175000117564835
20
26.055603400490412
42
-0.41421356237305862
10
73.675000117564807
20
25.555603400490359
10
73.675000117564792
20
12.555603400490476
42
-0.41421356237307944
0
LWPOLYLINE
5
126
100
AcDbEntity
8
0
100
AcDbPolyline
90
8
70
1
43
0.0
10
64.437500117564809
20
-6.4943965995095088
42
0.41421356237310542
10
64.937500117564809
20
-6.994396599509578
10
77.937500117564767
20
-6.9943965995094803
42
0.41421356237315748
10
78.437500117564966
20
-6.4943965995095532
10
78.437500117564738
20
6.5056034004904895
42
0.414213562373069
10
77.937500117564767
20
7.0056034004905055
10
64.937500117564809
20
7.0056034004905055
42
0.41421356237287649
10
64.437500117564809
20
6.5056034004905072
0
LWPOLYLINE
5
127
100
AcDbEntity
8
0
100
AcDbPolyline
90
8
70
1
43
0.0
10
69.200000116971509
20
31.605603401083471
10
69.200000116971481
20
44.60560340108357
42
-0.41421356237306384
10
69.700000116971509
20
45.105603401082575
10
82.700000116971552
20
45.105603401083258
42
-0.41421356237315748
10
83.200000116971495
20
44.605603401082554
10
83.200000116971495
20
31.605603401083364
42
-0.41421356237293894
10
82.700000116971566
20
31.105603401083684
10
69.700000116971509
20
31.105603401083364
42
-0.41421356237288692
0
LWPOLYLINE
5
128
100
AcDbEntity
8
0
100
AcDbPolyline
90
8
70
1
43
0.0
10
87.9625001175649
20
-12.544396599509389
10
87.962500117564772
20
-25.544396599509618
42
-0.41421356237307944
10
87.462500117564758
20
-26.044396599509561
10
74.462500117564801
20
-26.044396599509323
42
-0.41421356237311063
10
73.962500117564801
20
-25.544396599509476
10
73.962500117564872
20
-12.544396599509327
42
-0.41421356237317308
10
74.462500117564787
20
-12.044396599509541
10
87.462500117564701
20
-12.044396599509293
42
-0.41421356237303258
0
LWPOLYLINE
5
129
100
AcDbEntity
8
0
100
AcDbPolyline
90
8
70
1
43
0.0
10
88.250000116971435
20
31.605603401083606
42
0.41421356237313667
10
88.750000116971464
20
31.105603401084039
10
101.75000011697158
20
31.105603401083926
42
0.41421356237288171
10
102.25000011697151
20
31.6056034010834
10
102.25000011697151
20
44.605603401083549
42
0.41421356237306384
10
101.75000011697156
20
45.105603401083627
10
88.750000116971464
20
45.105603401083314
42
0.41421356237301177
10
88.25000011697135
20
44.605603401084778
0
LWPOLYLINE
5
130
100
AcDbEntity
8
0
100
AcDbPolyline
90
8
70
1
43
0.0
10
78.725000117564733
20
12.555603400490423
42
0.4142135623731939
10
79.225000117564747
20
12.055603400490478
10
92.225000117565017
20
12.05560340049054
42
0.41421356237320428
10
92.725000117564974
20
12.555603400490547
10
92.725000117564704
20
25.555603400490476
42
0.41421356237313667
10
92.225000117564718
20
26.055603400490561
10
79.225000117564747
20
26.055603400490401
42
0.41421356237288692
10
78.725000117564747
20
25.555603400490405
0
LWPOLYLINE
5
131
100
AcDbEntity
8
0
100
AcDbPolyline
90
8
70
1
43
0.0
10
-2.5249998824353703
20
25.55560340049043
10
-2.5249998824353881
20
12.555603400490378
42
-0.41421356237312101
10
-3.0249998824352708
20
12.055603400490416
10
-16.024999882435207
20
12.055603400490504
42
-0.4142135623730222
10
-16.524999882435214
20
12.555603400490494
10
-16.524999882435214
20
25.55560340049043
42
-0.41421356237309503
10
-16.024999882435207
20
26.055603400490401
10
-3.0249998824352708
20
26.055603400490604
42
-0.41421356237311063
0
LWPOLYLINE
5
132
100
AcDbEntity
8
0
100
AcDbPolyline
90
8
70
1
43
0.0
10
-20.787499882435245
20
-12.044396599509595
10
-7.7874998824352382
20
-12.044396599509533
42
-0.41421356237304041
10
-7.2874998824352399
20
-12.544396599509508
10
-7.2874998824352666
20
-25.544396599509582
42
-0.41421356237302998
10
-7.7874998824352382
20
-26.044396599509479
10
-20.787499882435281
20
-26.044396599509536
42
-0.4142135623730534
10
-21.287499882435231
20
-25.544396599509515
10
-21.287499882435181
20
-12.544396599509566
42
-0.41421356237307422
0
LWPOLYLINE
5
133
100
AcDbEntity
8
0
100
AcDbPolyline
90
8
70
1
43
0.0
10
-136.88174988302859
20
-26.544396598916222
10
-136.88174988302859
20
-11.544396598916183
42
-0.41421356237309503
10
-136.38174988302859
20
-11.044396598916189
10
-130.38174988302859
20
-11.04439659891619
42
-0.41421356237309503
10
-129.88174988302862
20
-11.54439659891618
10
-129.88174988302862
20
-26.544396598916276
42
-0.41421356237304041
10
-130.38174988302862
20
-27.044396598916261
10
-136.38174988302848
20
-27.044396598916236
42
-0.41421356237307944
0
LWPOLYLINE
5
134
100
AcDbEntity
8
0
100
AcDbPolyline
90
8
70
1
43
0.0
10
-113.00574988302861
20
-26.544396598916258
10
-113.00574988302856
20
-11.54439659891616
42
-0.4142135623730937
10
-112.50574988302859
20
-11.044396598916197
10
-106.50574988302864
20
-11.044396598916181
42
-0.4142135623730937
10
-106.00574988302866
20
-11.544396598916169
10
-106.00574988302851
20
-26.54439659891624
42
-0.41421356237310281
10
-106.50574988302863
20
-27.044396598916226
10
-112.5057498830286
20
-27.044396598916283
42
-0.41421356237314705
0
LWPOLYLINE
5
135
100
AcDbEntity
8
0
100
AcDbPolyline
90
8
70
1
43
0.0
10
-93.01249988243525
20
6.5056034004905072
10
-93.01249988243525
20
-6.4943965995095621
42
-0.41421356237311063
10
-93.512499882435364
20
-6.9943965995094892
10
-106.51249988243534
20
-6.9943965995095514
42
-0.41421356237311585
10
-107.01249988243534
20
-6.4943965995095088
10
-107.01249988243526
20
6.5056034004905428
42
-0.41421356237315227
10
-106.51249988243534
20
7.0056034004905055
10
-93.512499882435264
20
7.0056034004905232
42
-0.41421356237310025
0
LWPOLYLINE
5
136
100
AcDbEntity
8
0
100
AcDbPolyline
90
8
70
1
43
0.0
10
-98.274999882435282
20
12.055603400490496
42
0.41421356237308982
10
-97.77499988243521
20
12.555603400490511
10
-97.77499988243521
20
25.555603400490501
42
0.41421356237315748
10
-98.274999882435296
20
26.055603400490472
10
-111.27499988243525
20
26.055603400490497
42
0.41421356237312101
10
-111.77499988243524
20
25.555603400490501
10
-111.77499988243522
20
12.555603400490511
42
0.41421356237312101
10
-111.27499988243522
20
12.055603400490478
0
LWPOLYLINE
5
137
100
AcDbEntity
8
0
100
AcDbPolyline
90
8
70
1
43
0.0
10
-120.79999988302851
20
45.105603401083805
10
-107.7999998830286
20
45.105603401083783
42
-0.41421356237310542
10
-107.29999988302852
20
44.605603401083762
10
-107.29999988302853
20
31.605603401083773
42
-0.4142135623730222
10
-107.79999988302853
20
31.105603401083776
10
-120.79999988302848
20
31.105603401083819
42
-0.41421356237312101
10
-121.29999988302851
20
31.605603401083798
10
-121.29999988302849
20
44.605603401083741
42
-0.41421356237309503
0
LWPOLYLINE
5
138
100
AcDbEntity
8
0
100
AcDbPolyline
90
8
70
1
43
0.0
10
-102.24999988302861
20
31.605603401083773
10
-102.24999988302854
20
44.605603401083741
42
-0.4142135623731783
10
-101.74999988302852
20
45.105603401083826
10
-88.749999883028593
20
45.105603401083769
42
-0.41421356237298057
10
-88.249999883028508
20
44.605603401083741
10
-88.249999883028522
20
31.605603401083684
42
-0.4142135623730222
10
-88.749999883028522
20
31.105603401083748
10
-101.74999988302852
20
31.105603401083801
42
-0.41421356237315748
0
LWPOLYLINE
5
139
100
AcDbEntity
8
0
100
AcDbPolyline
90
8
70
1
43
0.0
10
-121.58749988302856
20
25.555603401083786
42
0.4142135623730378
10
-122.08749988302854
20
26.055603401083758
10
-135.0874998830285
20
26.055603401083776
42
0.41421356237304302
10
-135.58749988302853
20
25.555603401083786
10
-135.58749988302853
20
12.555603401083779
42
0.4142135623730222
10
-135.0874998830285
20
12.055603401083754
10
-122.08749988302856
20
12.055603401083719
42
0.41421356237310025
10
-121.58749988302857
20
12.555603401083753
0
LWPOLYLINE
5
140
100
AcDbEntity
8
0
100
AcDbPolyline
90
8
70
1
43
0.0
10
-137.9662498830285
20
-6.4943965989162589
10
-137.96624988302861
20
6.5056034010837926
42
-0.41421356237312623
10
-137.46624988302852
20
7.005603401083782
10
-119.70624988302852
20
7.0056034010837553
42
-0.4142135623730378
10
-119.20624988302849
20
6.5056034010837749
10
-119.20624988302849
20
-6.4943965989162411
42
-0.41421356237311063
10
-119.70624988302848
20
-6.9943965989162216
10
-137.46624988302852
20
-6.994396598916186
42
-0.41421356237302737
0
LWPOLYLINE
5
141
100
AcDbEntity
8
0
100
AcDbPolyline
90
8
70
1
43
0.0
10
-114.44374988302863
20
-12.544396598916236
42
0.4142135623730378
10
-114.9437498830285
20
-12.044396598916256
10
-127.94374988302852
20
-12.044396598916173
42
0.41421356237305601
10
-128.44374988302863
20
-12.544396598916236
10
-128.4437498830286
20
-25.544396598916261
42
0.41421356237309243
10
-127.9437498830285
20
-26.044396598916215
10
-114.94374988302864
20
-26.044396598916254
42
0.41421356237305079
10
-114.44374988302853
20
-25.544396598916215
0
LWPOLYLINE
5
142
100
AcDbEntity
8
0
100
AcDbPolyline
90
8
70
1
43
0.0
10
-92.22499988243527
20
26.055603400490508
42
0.41421356237308982
10
-92.724999882435228
20
25.555603400490526
10
-92.724999882435242
20
12.555603400490476
42
0.41421356237301177
10
-92.224999882435256
20
12.055603400490478
10
-79.224999882435355
20
12.055603400490513
42
0.41421356237316265
10
-78.724999882435341
20
12.555603400490494
10
-78.72499988243537
20
25.555603400490501
42
0.4142135623730222
10
-79.224999882435355
20
26.055603400490497
0
LWPOLYLINE
5
143
100
AcDbEntity
8
0
100
AcDbPolyline
90
8
70
1
43
0.0
10
-45.387499882435321
20
-12.544396599509486
10
-45.387499882435321
20
-25.5443965995096
42
-0.41421356237308204
10
-45.887499882435264
20
-26.044396599509515
10
-58.887499882435336
20
-26.044396599509547
42
-0.41421356237310802
10
-59.387499882435286
20
-25.544396599509508
10
-59.387499882435137
20
-12.544396599509486
42
-0.41421356237313667
10
-58.887499882435193
20
-12.044396599509479
10
-45.887499882435264
20
-12.044396599509497
42
-0.41421356237312623
0
LWPOLYLINE
5
144
100
AcDbEntity
8
0
100
AcDbPolyline
90
8
70
1
43
0.0
10
-68.912499882435284
20
-6.4943965995095265
10
-68.912499882435327
20
6.5056034004904184
42
-0.41421356237307422
10
-68.412499882435341
20
7.0056034004905143
10
-55.41249988243527
20
7.0056034004905321
42
-0.4142135623730846
10
-54.912499882435228
20
6.5056034004905072
10
-54.912499882435185
20
-6.494396599509491
42
-0.41421356237309503
10
-55.412499882435228
20
-6.9943965995094626
10
-68.412499882435384
20
-6.9943965995095159
42
-0.41421356237314705
0
LWPOLYLINE
5
145
100
AcDbEntity
8
0
100
AcDbPolyline
90
8
70
1
43
0.0
10
-50.649999883028499
20
31.105603401083741
42
0.41421356237310542
10
-50.149999883028599
20
31.605603401083798
10
-50.149999883028599
20
44.605603401083499
42
0.41421356237304302
10
-50.649999883028599
20
45.105603401083485
10
-63.649999883028471
20
45.105603401083911
42
0.41421356237300139
10
-64.149999883028443
20
44.605603401083599
10
-64.149999883028499
20
31.605603401083798
42
0.41421356237306384
10
-63.649999883028542
20
31.105603401083755
0
LWPOLYLINE
5
146
100
AcDbEntity
8
0
100
AcDbPolyline
90
8
70
1
43
0.0
10
-49.362499882435259
20
7.0056034004904699
42
0.41421356237302737
10
-49.862499882435344
20
6.5056034004905072
10
-49.862499882435252
20
-6.4943965995095265
42
0.41421356237316265
10
-49.362499882435259
20
-6.9943965995094892
10
-36.362499882435216
20
-6.9943965995094448
42
0.41421356237311585
10
-35.862499882435245
20
-6.4943965995095088
10
-35.862499882435216
20
6.5056034004905072
42
0.41421356237314705
10
-36.362499882435216
20
7.005603400490461
0
LWPOLYLINE
5
147
100
AcDbEntity
8
0
100
AcDbPolyline
90
8
70
1
43
0.0
10
-17.312499882435208
20
-6.9943965995095692
10
-30.312499882435251
20
-6.9943965995095159
42
-0.41421356237324591
10
-30.812499882435247
20
-6.4943965995095443
10
-30.812499882435258
20
6.5056034004904362
42
-0.41421356237307944
10
-30.312499882435251
20
7.0056034004904877
10
-17.312499882435279
20
7.005603400490461
42
-0.41421356237307422
10
-16.812499882435219
20
6.5056034004905072
10
-16.812499882435201
20
-6.4943965995095265
42
-0.41421356237311585
0
LWPOLYLINE
5
148
100
AcDbEntity
8
0
100
AcDbPolyline
90
8
70
1
43
0.0
10
-26.837499882435214
20
-26.044396599509554
10
-39.837499882435253
20
-26.044396599509618
42
-0.4142135623730378
10
-40.337499882435367
20
-25.5443965995096
10
-40.337499882435225
20
-12.544396599509486
42
-0.41421356237310542
10
-39.837499882435225
20
-12.044396599509462
10
-26.837499882435214
20
-12.044396599509541
42
-0.41421356237299617
10
-26.337499882435207
20
-12.544396599509593
10
-26.337499882435292
20
-25.544396599509458
42
-0.41421356237315488
0
LWPOLYLINE
5
149
100
AcDbEntity
8
0
100
AcDbPolyline
90
8
70
1
43
0.0
10
-22.074999882435247
20
12.055603400490478
42
0.41421356237318868
10
-21.574999882435193
20
12.555603400490547
10
-21.57499988243524
20
25.555603400490554
42
0.41421356237304302
10
-22.074999882435176
20
26.055603400490401
10
-35.07499988243525
20
26.055603400490526
42
0.41421356237312623
10
-35.574999882435264
20
25.555603400490476
10
-35.574999882435264
20
12.555603400490547
42
0.41421356237314189
10
-35.07499988243525
20
12.055603400490531
0
LWPOLYLINE
5
150
100
AcDbEntity
8
0
100
AcDbPolyline
90
8
70
1
43
0.0
10
-54.124999882435233
20
26.05560340049049
10
-41.124999882435219
20
26.055603400490497
42
-0.41421356237302737
10
-40.624999882435247
20
25.55560340049043
10
-40.624999882435247
20
12.555603400490449
42
-0.41421356237308982
10
-41.124999882435219
20
12.055603400490487
10
-54.124999882435233
20
12.055603400490549
42
-0.41421356237314705
10
-54.624999882435354
20
12.555603400490476
10
-54.624999882435347
20
25.555603400490572
42
-0.41421356237310542
0
LWPOLYLINE
5
151
100
AcDbEntity
8
0
100
AcDbPolyline
90
8
70
1
43
0.0
10
-44.599999883028531
20
45.105603401083769
42
0.41421356237312623
10
-45.099999883028531
20
44.605603401083712
10
-45.099999883028531
20
31.605603401083755
42
0.41421356237292334
10
-44.599999883028531
20
31.105603401083755
10
-31.599999883028485
20
31.10560340108367
42
0.4142135623730846
10
-31.099999883028548
20
31.605603401083798
10
-31.099999883028566
20
44.605603401083528
42
0.4142135623730534
10
-31.59999988302852
20
45.105603401083769
0
LWPOLYLINE
5
152
100
AcDbEntity
8
0
100
AcDbPolyline
90
8
70
1
43
0.0
10
-59.67499988243523
20
25.555603400490526
10
-59.674999882435372
20
12.555603400490458
42
-0.4142135623732095
10
-60.174999882435273
20
12.055603400490504
10
-73.174999882435344
20
12.05560340049046
42
-0.4142135623731783
10
-73.674999882435259
20
12.555603400490511
10
-73.674999882435245
20
25.555603400490526
42
-0.41421356237304818
10
-73.174999882435245
20
26.055603400490526
10
-60.174999882435444
20
26.05560340049049
42
-0.41421356237311063
0
LWPOLYLINE
5
153
100
AcDbEntity
8
0
100
AcDbPolyline
90
8
70
1
43
0.0
10
-69.699999883028539
20
31.105603401083684
42
0.41421356237310025
10
-69.199999883028539
20
31.605603401083773
10
-69.199999883028468
20
44.605603401083883
42
0.4142135623730846
10
-69.699999883028511
20
45.105603401083627
10
-82.699999883028553
20
45.105603401083826
42
0.41421356237306384
10
-83.199999883028482
20
44.605603401083798
10
-83.199999883028482
20
31.605603401083719
42
0.41421356237302737
10
-82.699999883028553
20
31.105603401083755
0
LWPOLYLINE
5
154
100
AcDbEntity
8
0
100
AcDbPolyline
90
8
70
1
43
0.0
10
-77.937499882435205
20
-12.044396599509524
42
0.41421356237318868
10
-78.437499882435219
20
-12.544396599509486
10
-78.437499882435219
20
-25.544396599509533
42
0.41421356237313406
10
-77.937499882435205
20
-26.044396599509536
10
-64.937499882435347
20
-26.044396599509547
42
0.41421356237306384
10
-64.437499882435191
20
-25.544396599509458
10
-64.437499882435333
20
-12.544396599509486
42
0.41421356237307422
10
-64.937499882435347
20
-12.044396599509515
0
LWPOLYLINE
5
155
100
AcDbEntity
8
0
100
AcDbPolyline
90
8
70
1
43
0.0
10
-83.987499882435216
20
-26.044396599509554
10
-96.987499882435259
20
-26.04439659950954
42
-0.41421356237315748
10
-97.48749988243523
20
-25.544396599509462
10
-97.487499882435259
20
-12.544396599509486
42
-0.414213562373069
10
-96.987499882435273
20
-12.044396599509506
10
-83.987499882435358
20
-12.044396599509515
42
-0.41421356237312623
10
-83.48749988243523
20
-12.544396599509486
10
-83.487499882435344
20
-25.544396599509529
42
-0.41421356237306639
0
LWPOLYLINE
5
156
100
AcDbEntity
8
0
100
AcDbPolyline
90
8
70
1
43
0.0
10
-73.962499882435239
20
6.5056034004904717
10
-73.962499882435239
20
-6.4943965995095088
42
-0.41421356237311063
10
-74.46249988243521
20
-6.994396599509507
10
-87.462499882435196
20
-6.9943965995094715
42
-0.41421356237308982
10
-87.962499882435196
20
-6.494396599509491
10
-87.962499882435225
20
6.5056034004905072
42
-0.41421356237315227
10
-87.462499882435225
20
7.0056034004904877
10
-74.46249988243521
20
7.0056034004905232
42
-0.41421356237305862
0
LWPOLYLINE
5
157
100
AcDbEntity
8
0
100
AcDbPolyline
90
8
70
1
43
0.0
10
7.0000001169714388
20
44.605603401082874
10
7.0000001169714388
20
31.605603401083631
42
-0.41421356237312623
10
6.5000001169714849
20
31.105603401083659
10
-6.4999998830285399
20
31.105603401083535
42
-0.41421356237309503
10
-6.9999998830285115
20
31.605603401083684
10
-6.9999998830285115
20
44.605603401084473
42
-0.41421356237303258
10
-6.4999998830285399
20
45.10560340108416
10
6.5000001169714849
20
45.105603401083805
42
-0.41421356237314705
0
LWPOLYLINE
5
158
100
AcDbEntity
8
0
100
AcDbPolyline
90
8
70
1
43
0.0
10
1.737500117564803
20
-6.9943965995094981
42
0.4142135623730846
10
2.2375001175648279
20
-6.494396599509491
10
2.2375001175647835
20
6.5056034004904362
42
0.414213562373069
10
1.737500117564803
20
7.0056034004904433
10
-11.262499882435257
20
7.0056034004904522
42
0.4142135623730846
10
-11.762499882435247
20
6.5056034004904095
10
-11.762499882435247
20
-6.494396599509491
42
0.41421356237311585
10
-11.262499882435257
20
-6.9943965995094093
0
LWPOLYLINE
5
159
100
AcDbEntity
8
0
100
AcDbPolyline
90
8
70
1
43
0.0
10
-26.049999883028523
20
31.605603401083862
10
-26.049999883028558
20
44.605603401084139
42
-0.41421356237314705
10
-25.549999883028587
20
45.105603401083911
10
-12.549999883028615
20
45.105603401084089
42
-0.41421356237306384
10
-12.049999883028573
20
44.605603401083712
10
-12.049999883028555
20
31.605603401083798
42
-0.41421356237311063
10
-12.549999883028615
20
31.105603401083712
10
-25.549999883028551
20
31.105603401083741
42
-0.41421356237305862
0
LWPOLYLINE
5
160
100
AcDbEntity
8
0
100
AcDbPolyline
90
8
70
1
43
0.0
10
-136.2871029316845
20
47.630603402440741
10
-133.28710293168447
20
47.630603402440741
42
-0.41421356237304302
10
-132.78710293168447
20
47.130603402440755
10
-132.78710293168447
20
46.630603402440741
42
-0.4142135623730846
10
-133.28710293168447
20
46.130603402440755
10
-136.28710293168447
20
46.130603402440741
42
-0.41421356237314705
10
-136.78710293168447
20
46.630603402440741
10
-136.78710293168447
20
47.130603402440755
42
-0.41421356237310542
0
LWPOLYLINE
5
161
100
AcDbEntity
8
0
100
AcDbPolyline
90
8
70
1
43
0.0
10
14.51289706830952
20
46.130605715092763
10
11.512897068309531
20
46.130605715092784
42
-0.41421356237312623
10
11.012897068309524
20
46.63060571509277
10
11.012897068309524
20
47.130605715092777
42
-0.41421356237312623
10
11.512897068309531
20
47.63060571509277
10
14.51289706830952
20
47.63060571509277
42
-0.41421356237314705
10
15.012897068309528
20
47.130605715092777
10
15.012897068309492
20
46.63060571509277
42
-0.41421356237307422
0
LWPOLYLINE
5
162
100
AcDbEntity
8
0
100
AcDbPolyline
90
8
70
1
43
0.0
10
135.7128970683095
20
47.130607547614787
42
0.41421356237311585
10
135.21289706830947
20
47.630607547614794
10
132.2128970683095
20
47.630607547614794
42
0.41421356237310542
10
131.7128970683095
20
47.130607547614773
10
131.7128970683095
20
46.630607547614801
42
0.41421356237309503
10
132.2128970683095
20
46.130607547614758
10
135.21289706830947
20
46.130607547614787
42
0.41421356237307422
10
135.7128970683095
20
46.630607547614801
0
LWPOLYLINE
5
163
100
AcDbEntity
8
0
100
AcDbPolyline
90
8
70
1
43
0.0
10
-79.687622964890281
20
-46.619396598916282
42
0.41421356237305862
10
-80.187622964890309
20
-46.119396598916239
10
-83.18762296489021
20
-46.119396598916268
42
0.41421356237309503
10
-83.687622964890224
20
-46.619396598916282
10
-83.687622964890224
20
-47.119396598916282
42
0.41421356237313145
10
-83.18762296489021
20
-47.619396598916296
10
-80.187622964890281
20
-47.619396598916268
42
0.41421356237312101
10
-79.687622964890267
20
-47.119396598916282
0
LWPOLYLINE
5
164
100
AcDbEntity
8
0
100
AcDbPolyline
90
8
70
1
43
0.0
10
83.187426610497113
20
-47.619396598916452
10
80.187426610497127
20
-47.619396598916445
42
-0.41421356237307422
10
79.687426610497127
20
-47.119396598916445
10
79.687426610497113
20
-46.619396598916438
42
-0.4142135623730846
10
80.187426610497127
20
-46.119396598916452
10
83.187426610497113
20
-46.11939659891646
42
-0.41421356237309503
10
83.687426610497099
20
-46.619396598916445
10
83.687426610497113
20
-47.119396598916445
42
-0.41421356237309503
0
LWPOLYLINE
5
165
100
AcDbEntity
8
0
100
AcDbPolyline
90
8
70
1
43
0.0
10
60.650000116971526
20
-30.594396598916251
10
60.650000116971455
20
-45.594396598916099
42
-0.41421356237309503
10
60.150000116971469
20
-46.094396598916092
10
54.150000116971526
20
-46.094396598916099
42
-0.41421356237309503
10
53.650000116971469
20
-45.594396598916035
10
53.650000116971519
20
-30.594396598916287
42
-0.41421356237315748
10
54.150000116971597
20
-30.094396598916209
10
60.150000116971576
20
-30.094396598916269
42
-0.41421356237300661
0
LWPOLYLINE
5
166
100
AcDbEntity
8
0
100
AcDbPolyline
90
8
70
1
43
0.0
10
7.0000001169714388
20
-31.594396598916283
10
7.0000001169714388
20
-44.59439659891629
42
-0.41421356237307422
10
6.5000001169714317
20
-45.094396598916369
10
-6.4999998830285399
20
-45.094396598916248
42
-0.41421356237297535
10
-6.9999998830285382
20
-44.594396598916205
10
-6.9999998830285115
20
-31.594396598916283
42
-0.41421356237304302
10
-6.4999998830285399
20
-31.094396598916259
10
6.5000001169713428
20
-31.094396598916294
42
-0.41421356237307422
0
LWPOLYLINE
5
167
100
AcDbEntity
8
0
100
AcDbPolyline
90
8
70
1
43
0.0
10
-53.649999883028613
20
-30.594396598916234
10
-53.649999883028698
20
-45.594396598916134
42
-0.41421356237309503
10
-54.149999883028634
20
-46.09439659891607
10
-60.149999883028627
20
-46.09439659891607
42
-0.41421356237309503
10
-60.649999883028663
20
-45.594396598916035
10
-60.649999883028528
20
-30.59439659891618
42
-0.41421356237311324
10
-60.149999883028599
20
-30.094396598916212
10
-54.149999883028613
20
-30.094396598916262
42
-0.41421356237315748
0
LWPOLYLINE
5
168
100
AcDbEntity
8
0
100
AcDbPolyline
90
8
70
1
43
0.0
10
-74.462499883028514
20
-45.094396598916205
42
0.41421356237308982
10
-73.96249988302857
20
-44.594396598916276
10
-73.962499883028542
20
-31.594396598916266
42
0.41421356237305862
10
-74.462499883028514
20
-31.094396598916205
10
-87.462499883028514
20
-31.094396598916223
42
0.41421356237311063
10
-87.962499883028528
20
-31.594396598916266
10
-87.962499883028485
20
-44.594396598916184
42
0.41421356237312623
10
-87.462499883028514
20
-45.094396598916276
0
LWPOLYLINE
5
169
100
AcDbEntity
8
0
100
AcDbPolyline
90
8
70
1
43
0.0
10
-111.27499988302853
20
-31.094396598916212
42
0.41421356237316009
10
-111.77499988302854
20
-31.594396598916195
10
-111.77499988302854
20
-44.594396598916184
42
0.41421356237304302
10
-111.27499988302853
20
-45.094396598916177
10
-98.274999883028599
20
-45.094396598916276
42
0.4142135623730846
10
-97.774999883028627
20
-44.594396598916276
10
-97.774999883028627
20
-31.594396598916266
42
0.41421356237305601
10
-98.274999883028599
20
-31.094396598916223
0
LWPOLYLINE
5
170
100
AcDbEntity
8
0
100
AcDbPolyline
90
8
70
1
43
0.0
10
-122.08749988302857
20
-45.094396598916276
10
-135.08749988302856
20
-45.094396598916219
42
-0.41421356237301699
10
-135.58749988302858
20
-44.594396598916205
10
-135.58749988302853
20
-31.594396598916248
42
-0.41421356237310542
10
-135.08749988302858
20
-31.094396598916223
10
-122.08749988302857
20
-31.094396598916234
42
-0.41421356237308204
10
-121.58749988302853
20
-31.594396598916251
10
-121.58749988302858
20
-44.594396598916184
42
-0.41421356237315227
0
LWPOLYLINE
5
171
100
AcDbEntity
8
0
100
AcDbPolyline
90
68
70
1
43
0.0
10
136.21289704129259
20
49.630603844073221
10
136.21289704129259
20
50.630603646810783
42
0.12701665379258906
10
135.90039704129259
20
51.840910942500635
42
0.77459666924148307
10
134.96289704129256
20
51.598849483362663
10
134.96289704129271
20
50.630603646810854
42
-0.99999999999999989
10
132.46289704129259
20
50.630603646810783
10
132.46289704129259
20
51.598849483362642
42
0.77459666924145743
10
131.52539704129259
20
51.840910942500642
42
0.12701665379258453
10
131.21289704129259
20
50.630603646810783
10
131.21289704129259
20
49.630603433317262
42
-0.41421356237309243
10
129.21289704129259
20
47.63060343331729
10
17.512897041292579
20
47.63060343331729
42
-0.41421356237309503
10
15.512897041292604
20
49.630603433317262
10
15.512897041292604
20
50.630603646810783
42
0.1270166537925948
10
15.2003970412926
20
51.840910942500642
42
0.77459666924146275
10
14.262897041292568
20
51.598849483362642
10
14.262897041292906
20
50.630603646810926
42
-0.99999999999999989
10
11.762897041292586
20
50.630603646810783
10
11.762897041292586
20
51.598849483362642
42
0.77459666924143344
10
10.825397041292561
20
51.840910942500642
42
0.12701665379257857
10
10.512897041292565
20
50.630603646810783
10
10.512897041292586
20
49.630603433317262
42
-0.41421356237309764
10
8.5128970412925931
20
47.63060343331729
10
-130.28710295870749
20
47.63060343331729
42
-0.41421356237310542
10
-132.28710295870746
20
49.630603433317262
10
-132.28710295870749
20
50.630603646810783
42
0.12701665379260252
10
-132.59960295870749
20
51.840910942500571
42
0.77459666924144144
10
-133.53710295870749
20
51.598849483362628
10
-133.53710295870664
20
50.630603646810961
42
-0.99999999999999989
10
-136.03710295870749
20
50.630603646810783
10
-136.03710295870749
20
51.598849483362628
42
0.77459666924149551
10
-136.97460295870752
20
51.840910942500578
42
0.12701665379256052
10
-137.28710295870749
20
50.630603646810783
10
-137.28710295870749
20
49.630603433317262
42
-0.41421356237308721
10
-139.28710295870741
20
47.630603433317248
10
-141.37499988302855
20
47.630603401083761
42
0.41421356237309503
10
-142.87499988302852
20
46.130603401083775
10
-142.87499988302548
20
-46.119396598916111
42
0.41421356237307599
10
-141.37499988302889
20
-47.61939659891614
10
-86.187622964890238
20
-47.619396598916268
42
-0.41421356237310936
10
-84.187622964890181
20
-49.619396598916268
10
-84.187622964890195
20
-50.619396596566361
42
0.1270166537925996
10
-83.875122964890195
20
-51.829703892256155
42
0.77459666924145654
10
-82.93762296489021
20
-51.587642433118177
10
-82.937622964890906
20
-50.61939659656651
42
-0.99999999999999989
10
-80.437622964890195
20
-50.619396596566347
10
-80.437622964890195
20
-51.587642433118184
42
0.77459666924147341
10
-79.500122964890181
20
-51.829703892256163
42
0.12701665379256588
10
-79.187622964890181
20
-50.619396596566347
10
-79.187622964890195
20
-49.619396598916282
42
-0.4142135623730937
10
-77.187622964890267
20
-47.619396598916303
10
77.187426511059073
20
-47.619396598916602
42
-0.41421356237309631
10
79.187426511059073
20
-49.619396598916609
10
79.187426511059073
20
-50.619396643620149
42
0.12701665379258414
10
79.499926511059101
20
-51.829703939309972
42
0.77459666924148607
10
80.437426511059087
20
-51.587642480172001
10
80.437426511059101
20
-50.619396444744027
42
-0.99999992044957109
10
82.937426511059087
20
-50.619396643620142
10
82.937426511059087
20
-51.587642480172008
42
0.77459666924146897
10
83.874926511059073
20
-51.829703939309972
42
0.12701665379258503
10
84.187426511059073
20
-50.619396643620142
10
84.187426511059087
20
-49.619396598916623
42
-0.41421356237309503
10
86.187426511059101
20
-47.619396598916623
10
141.37499985806249
20
-47.619396598916737
42
0.41421363820585533
10
142.87499985806249
20
-46.119396210552907
10
142.87497597369045
20
46.130603798326213
42
0.41421348393989926
10
141.3749759870083
20
47.630603409962468
10
138.21289704446147
20
47.630603844073235
42
-0.41421356283716132
0
LWPOLYLINE
5
172
100
AcDbEntity
8
0
100
AcDbPolyline
90
12
70
1
43
0.0
10
-109.10937488273193
20
2.0056034007871459
10
-109.1093748827319
20
-3.4943965992128589
42
-0.41421356237309503
10
-109.6093748827319
20
-3.9943965992128661
10
-110.10937488273194
20
-3.9943965992128572
42
-0.4142135623730846
10
-110.60937488273197
20
-3.4943965992128501
10
-110.60937488273191
20
2.0056034007871504
42
0.414213562373069
10
-111.10937488273187
20
2.5056034007870953
10
-113.60937488273188
20
2.5056034007871464
42
-0.41421356237308593
10
-114.1093748827319
20
3.0056034007871379
10
-114.1093748827319
20
3.5056034007871362
42
-0.41421356237310025
10
-113.60937488273188
20
4.0056034007871517
10
-111.10937488273188
20
4.0056034007870807
42
-0.41421356237309176
0
LWPOLYLINE
5
173
100
AcDbEntity
8
0
100
AcDbPolyline
90
12
70
1
43
0.0
10
-112.60937488273194
20
-3.9943965992128838
10
-115.10937488273197
20
-3.9943965992128483
42
-0.41421356237309892
10
-117.10937488273203
20
-1.9943965992128643
10
-117.10937488273196
20
3.5056034007871362
42
-0.41421356237315354
10
-116.60937488273193
20
4.0056034007871189
10
-116.10937488273188
20
4.0056034007871428
42
-0.41421356237310414
10
-115.6093748827319
20
3.5056034007871384
10
-115.60937488273191
20
-1.9943965992128643
42
0.41421356237311063
10
-115.10937488273197
20
-2.4943965992127382
10
-112.60937488273194
20
-2.494396599212827
42
-0.41421356237307422
10
-112.10937488273197
20
-2.994396599212763
10
-112.109374882732
20
-3.4943965992128589
42
-0.4142135623730534
0
LWPOLYLINE
5
174
100
AcDbEntity
8
0
100
AcDbPolyline
90
20
70
1
43
0.0
10
108.24325011697148
20
-11.544396598916203
10
108.24325011697148
20
-12.044396598916292
10
123.1812501169715
20
-12.044396598916215
42
-0.41421356237316265
10
123.68125011697148
20
-12.544396598916322
10
123.68125011697151
20
-25.544396598916297
42
-0.41421356237314705
10
123.18125011697154
20
-26.04439659891629
10
108.24325011697148
20
-26.044396598916109
10
108.24325011697148
20
-26.544396598916382
42
-0.41421356237309243
10
107.74325011697152
20
-27.044396598916297
10
101.74325011697157
20
-27.044396598916286
42
-0.41421356237314705
10
101.2432501169715
20
-26.544396598916155
10
101.24325011697151
20
-26.044396598916215
10
100.65625011697156
20
-26.044396598916023
42
-0.41421356237324852
10
100.15625011697148
20
-25.544396598916286
10
100.15625011697156
20
-12.54439659891637
42
-0.4142135623730378
10
100.65625011697158
20
-12.044396598916389
10
101.2432501169715
20
-12.044396598916354
10
101.2432501169715
20
-11.544396598916205
42
-0.41421356237309503
10
101.7432501169715
20
-11.044396598916205
10
107.74325011697147
20
-11.044396598916196
42
-0.41421356237309503
0
ENDSEC
0
SECTION
2
OBJECTS
0
DICTIONARY
5
C
100
AcDbDictionary
3
ACAD_GROUP
350
D
3
ACAD_MLINESTYLE
350
17
0
DICTIONARY
5
D
100
AcDbDictionary
0
DICTIONARY
5
1A
330
C
100
AcDbDictionary
0
DICTIONARY
5
17
100
AcDbDictionary
0
ENDSEC
0
EOF
