0
SECTION
2
HEADER
9
$INSUNITS
70
4
9
$ACADVER
1
AC1014
9
$HANDSEED
5
FFFF
0
ENDSEC
0
SECTION
2
TABLES
0
TABLE
2
VPORT
5
8
100
AcDbSymbolTable
0
ENDTAB
0
TABLE
2
LTYPE
5
5
100
AcDbSymbolTable
0
LTYPE
5
14
100
AcDbSymbolTableRecord
100
AcDbLinetypeTableRecord
2
BYBLOCK
70
0
0
LTYPE
5
15
100
AcDbSymbolTableRecord
100
AcDbLinetypeTableRecord
2
BYLAYER
70
0
0
LTYPE
5
16
100
AcDbSymbolTableRecord
100
AcDbLinetypeTableRecord
2
DASHED
70
0
3
Dashed __ __ __ __ __ __ __ __ __ __ __ __ __ _
72
65
73
2
40
0.75
49
0.5
74
0
49
-0.25
74
0
0
ENDTAB
0
TABLE
2
LAYER
5
2
100
AcDbSymbolTable
70
2
0
LAYER
5
50
100
AcDbSymbolTableRecord
100
AcDbLayerTableRecord
2
0
70
0
62
7
6
CONTINUOUS
0
ENDTAB
0
TABLE
2
STYLE
5
3
100
AcDbSymbolTable
70
1
0
STYLE
5
11
100
AcDbSymbolTableRecord
100
AcDbTextStyleTableRecord
2
STANDARD
70
0
0
ENDTAB
0
TABLE
2
VIEW
5
6
100
AcDbSymbolTable
70
0
0
ENDTAB
0
TABLE
2
UCS
5
7
100
AcDbSymbolTable
70
0
0
ENDTAB
0
TABLE
2
APPID
5
9
100
AcDbSymbolTable
70
2
0
APPID
5
12
100
AcDbSymbolTableRecord
100
AcDbRegAppTableRecord
2
ACAD
70
0
0
ENDTAB
0
TABLE
2
DIMSTYLE
5
A
100
AcDbSymbolTable
70
1
0
ENDTAB
0
TABLE
2
BLOCK_RECORD
5
1
100
AcDbSymbolTable
70
1
0
BLOCK_RECORD
5
1F
100
AcDbSymbolTableRecord
100
AcDbBlockTableRecord
2
*MODEL_SPACE
0
BLOCK_RECORD
5
1B
100
AcDbSymbolTableRecord
100
AcDbBlockTableRecord
2
*PAPER_SPACE
0
ENDTAB
0
ENDSEC
0
SECTION
2
BLOCKS
0
BLOCK
5
20
100
AcDbEntity
100
AcDbBlockBegin
2
*MODEL_SPACE
0
ENDBLK
5
21
100
AcDbEntity
100
AcDbBlockEnd
0
BLOCK
5
1C
100
AcDbEntity
100
AcDbBlockBegin
2
*PAPER_SPACE
0
ENDBLK
5
1D
100
AcDbEntity
100
AcDbBlockEnd
0
ENDSEC
0
SECTION
2
ENTITIES
0
LWPOLYLINE
5
100
100
AcDbEntity
8
0
100
AcDbPolyline
90
12
70
1
43
0.0
10
-112.60937488273194
20
-3.9943965992128838
10
-115.10937488273193
20
-3.9943965992128483
42
-0.41421356237310153
10
-117.10937488273203
20
-1.9943965992128643
10
-117.10937488273196
20
3.5056034007871362
42
-0.41421356237315354
10
-116.60937488273193
20
4.0056034007871189
10
-116.10937488273188
20
4.0056034007871428
42
-0.41421356237310414
10
-115.6093748827319
20
3.5056034007871384
10
-115.60937488273191
20
-1.9943965992128643
42
0.41421356237312101
10
-115.10937488273194
20
-2.4943965992127559
10
-112.60937488273194
20
-2.494396599212827
42
-0.41421356237307422
10
-112.10937488273197
20
-2.994396599212763
10
-112.109374882732
20
-3.4943965992128589
42
-0.4142135623730534
0
LWPOLYLINE
5
101
100
AcDbEntity
8
0
100
AcDbPolyline
90
8
70
1
43
0.0
10
-118.53117506109325
20
48.330612783452537
42
0.41421356237330315
10
-118.33117506109325
20
48.130612783452534
10
-93.731372964890269
20
48.130612783452534
42
0.41421356237288692
10
-93.531372964890267
20
48.330612783452537
10
-93.531372964890267
20
48.930612783452538
42
0.41421356237330315
10
-93.731372964890269
20
49.130612783452534
10
-118.33117506109325
20
49.130612783452534
42
0.41421356237288692
10
-118.53117506109325
20
48.930612783452538
0
LWPOLYLINE
5
102
100
AcDbEntity
8
0
100
AcDbPolyline
90
8
70
1
43
0.0
10
98.27500011756473
20
26.055603400490305
42
0.41421356237300661
10
97.775000117564716
20
25.55560340049043
10
97.77500011756473
20
12.555603400490458
42
0.41421356237310025
10
98.27500011756473
20
12.055603400490371
10
111.27500011756473
20
12.055603400490327
42
0.41421356237299095
10
111.77500011756482
20
12.555603400490734
10
111.77500011756476
20
25.555603400490092
42
0.41421356237321988
10
111.27500011756474
20
26.055603400490703
0
LWPOLYLINE
5
103
100
AcDbEntity
8
0
100
AcDbPolyline
90
8
70
1
43
0.0
10
106.00575011697146
20
-7.4943965989163353
10
106.00575011697144
20
7.5056034010837802
42
-0.4142135623730957
10
106.50575011697157
20
8.0056034010839046
10
112.50575011697129
20
8.0056034010839099
42
-0.4142135623730937
10
113.00575011697137
20
7.5056034010838157
10
113.00575011697148
20
-7.4943965989162287
42
-0.4142135623730534
10
112.50575011697123
20
-7.9943965989164489
10
106.50575011697146
20
-7.994396598916369
42
-0.41421356237311063
0
LWPOLYLINE
5
104
100
AcDbEntity
8
0
100
AcDbPolyline
90
32
70
1
43
0.0
10
108.38700011697142
20
45.105603401086128
10
108.38700011697142
20
45.605603401084082
42
-0.41421356237309503
10
108.88700011697142
20
46.105603401084075
10
114.88700011697136
20
46.105603401084075
42
-0.41421356237309503
10
115.38700011697138
20
45.605603401084068
10
115.38700011697138
20
45.105603401085844
10
132.26300011697148
20
45.105603401085176
10
132.26300011697148
20
45.60560340108394
42
-0.41421356237309503
10
132.76300011697148
20
46.105603401083933
10
138.76300011697145
20
46.105603401083954
42
-0.41421356237309503
10
139.26300011697148
20
45.605603401083947
10
139.26300011697148
20
45.105603401084892
10
139.8500001169715
20
45.105603401084835
42
-0.41421356237326151
10
140.35000011697147
20
44.605603401082959
10
140.3500001169715
20
31.605603401083258
42
-0.41421356237307422
10
139.8500001169715
20
31.105603401084068
10
139.26300011697145
20
31.105603401083968
10
139.26300011697145
20
30.605603401083972
42
-0.41421356237311063
10
138.7630001169714
20
30.105603401083876
10
132.76300011697091
20
30.105603401083911
42
-0.41421356237307422
10
132.26300011697145
20
30.605603401083314
10
132.26300011697145
20
31.105603401083535
10
115.38700011697134
20
31.105603401084174
10
115.38700011697134
20
30.605603401083687
42
-0.41421356237313667
10
114.88700011697162
20
30.105603401083997
10
108.88700011697154
20
30.105603401084
42
-0.41421356237311585
10
108.38700011697144
20
30.605603401084132
10
108.38700011697142
20
31.105603401083897
10
107.80000011697147
20
31.105603401083961
42
-0.41421356237314189
10
107.30000011697143
20
31.605603401083656
10
107.30000011697146
20
44.60560340108303
42
-0.41421356237316787
10
107.80000011697147
20
45.10560340108615
0
LWPOLYLINE
5
105
100
AcDbEntity
8
0
100
AcDbPolyline
90
14
70
1
43
0.0
10
125.11925011697144
20
-26.54439659891624
10
125.11925011697159
20
-11.54439659891629
42
-0.4142135623730937
10
125.61925011697159
20
-11.04439659891629
10
131.61925011697147
20
-11.044396598916284
42
-0.41421356237309503
10
132.1192501169715
20
-11.544396598916292
10
132.1192501169715
20
-12.044396598916208
10
139.8500001169715
20
-12.044396598916208
42
-0.41421356237310802
10
140.3500001169715
20
-12.544396598916236
10
140.35000011697144
20
-25.544396598916403
42
-0.41421356237311585
10
139.8500001169715
20
-26.044396598916446
10
132.11925011697147
20
-26.044396598916137
10
132.11925011697147
20
-26.544396598916062
42
-0.41421356237305079
10
131.61925011697167
20
-27.044396598915981
10
125.61925011697149
20
-27.044396598916297
42
-0.41421356237306123
0
LWPOLYLINE
5
106
100
AcDbEntity
8
0
100
AcDbPolyline
90
8
70
1
43
0.0
10
135.58750011697143
20
25.555603401083609
42
0.41421356237301699
10
135.08750011697146
20
26.055603401083793
10
122.08750011697146
20
26.055603401084273
42
0.41421356237300139
10
121.58750011697144
20
25.555603401083964
10
121.58750011697144
20
12.555603401083637
42
0.41421356237332396
10
122.08750011697146
20
12.055603401083879
10
135.08750011697146
20
12.055603401083379
42
0.4142135623730846
10
135.58750011697151
20
12.55560340108369
0
LWPOLYLINE
5
107
100
AcDbEntity
8
0
100
AcDbPolyline
90
20
70
1
43
0.0
10
101.2432501169715
20
-12.044396598916354
10
101.2432501169715
20
-11.544396598916205
42
-0.41421356237309503
10
101.7432501169715
20
-11.044396598916205
10
107.74325011697147
20
-11.044396598916196
42
-0.41421356237309503
10
108.24325011697148
20
-11.544396598916203
10
108.24325011697148
20
-12.044396598916292
10
123.18125011697146
20
-12.044396598916215
42
-0.41421356237316265
10
123.68125011697144
20
-12.544396598916322
10
123.68125011697146
20
-25.544396598916297
42
-0.41421356237314705
10
123.18125011697148
20
-26.04439659891629
10
108.24325011697144
20
-26.044396598916109
10
108.24325011697144
20
-26.544396598916382
42
-0.41421356237309243
10
107.7432501169715
20
-27.044396598916297
10
101.7432501169715
20
-27.044396598916268
42
-0.41421356237313667
10
101.24325011697145
20
-26.544396598916155
10
101.24325011697145
20
-26.044396598916215
10
100.65625011697151
20
-26.044396598916023
42
-0.41421356237323809
10
100.15625011697145
20
-25.544396598916286
10
100.15625011697151
20
-12.54439659891637
42
-0.4142135623730378
10
100.65625011697151
20
-12.044396598916389
0
LWPOLYLINE
5
108
100
AcDbEntity
8
0
100
AcDbPolyline
90
8
70
1
43
0.0
10
127.94375011697142
20
-6.9943965989163104
10
114.94375011697137
20
-6.9943965989163637
42
-0.41421356237312101
10
114.44375011697147
20
-6.4943965989162766
10
114.44375011697144
20
6.5056034010835262
42
-0.41421356237301699
10
114.94375011697137
20
7.0056034010840129
10
127.94375011697139
20
7.0056034010836044
42
-0.41421356237298057
10
128.44375011697139
20
6.5056034010835795
10
128.44375011697139
20
-6.4943965989163477
42
-0.41421356237287649
0
LWPOLYLINE
5
109
100
AcDbEntity
8
0
100
AcDbPolyline
90
8
70
1
43
0.0
10
83.987500117564764
20
7.0056034004903722
42
0.41421356237307422
10
83.487500117564792
20
6.5056034004905783
10
83.487500117564792
20
-6.494396599509713
42
0.41421356237316787
10
83.987500117564764
20
-6.9943965995095869
10
96.987500117564707
20
-6.9943965995096935
42
0.4142135623730222
10
97.487500117564707
20
-6.494396599509713
10
97.487500117564721
20
6.5056034004906138
42
0.41421356237316787
10
96.987500117564707
20
7.0056034004905499
0
LWPOLYLINE
5
110
100
AcDbEntity
8
0
100
AcDbPolyline
90
8
70
1
43
0.0
10
59.387500117564791
20
6.5056034004904184
42
0.41421356237318346
10
58.88750011756477
20
7.0056034004904166
10
45.88750011756467
20
7.0056034004904699
42
0.4142135623730846
10
45.387500117564663
20
6.5056034004905516
10
45.387500117564613
20
-6.4943965995093311
42
0.41421356237312623
10
45.88750011756467
20
-6.9943965995095869
10
58.887500117564784
20
-6.9943965995095336
42
0.41421356237292856
10
59.387500117564791
20
-6.4943965995095265
0
LWPOLYLINE
5
111
100
AcDbEntity
8
0
100
AcDbPolyline
90
8
70
1
43
0.0
10
68.41250011756469
20
-26.044396599509554
10
55.412500117564711
20
-26.044396599509412
42
-0.41421356237303258
10
54.912500117564761
20
-25.5443965995096
10
54.912500117564832
20
-12.544396599509637
42
-0.41421356237301699
10
55.412500117564747
20
-12.044396599509533
10
68.41250011756469
20
-12.044396599509781
42
-0.41421356237316009
10
68.912500117564718
20
-12.544396599509543
10
68.912500117564718
20
-25.544396599509476
42
-0.41421356237296236
0
LWPOLYLINE
5
112
100
AcDbEntity
8
0
100
AcDbPolyline
90
8
70
1
43
0.0
10
-12.549999883028669
20
31.105603401083712
10
-25.549999883028605
20
31.105603401083748
42
-0.41421356237305862
10
-26.049999883028569
20
31.605603401083862
10
-26.049999883028612
20
44.605603401084139
42
-0.41421356237314705
10
-25.54999988302864
20
45.105603401083911
10
-12.549999883028669
20
45.105603401084089
42
-0.41421356237306384
10
-12.049999883028626
20
44.605603401083712
10
-12.049999883028608
20
31.605603401083798
42
-0.41421356237311063
0
LWPOLYLINE
5
113
100
AcDbEntity
8
0
100
AcDbPolyline
90
8
70
1
43
0.0
10
7.7875001175647185
20
7.0056034004904966
10
20.787500117564726
20
7.0056034004903722
42
-0.41421356237314189
10
21.287500117564761
20
6.5056034004904717
10
21.287500117564662
20
-6.4943965995095265
42
-0.41421356237296497
10
20.787500117564726
20
-6.9943965995095603
10
7.7875001175647363
20
-6.9943965995094803
42
-0.41421356237307944
10
7.2875001175647203
20
-6.4943965995095265
10
7.2875001175647292
20
6.5056034004904095
42
-0.41421356237304818
0
LWPOLYLINE
5
114
100
AcDbEntity
8
0
100
AcDbPolyline
90
8
70
1
43
0.0
10
-11.262499882435311
20
7.0056034004904522
42
0.4142135623730846
10
-11.7624998824353
20
6.5056034004904095
10
-11.7624998824353
20
-6.494396599509491
42
0.41421356237311585
10
-11.262499882435311
20
-6.9943965995094093
10
1.7375001175647498
20
-6.9943965995094981
42
0.4142135623730846
10
2.2375001175647746
20
-6.494396599509491
10
2.2375001175647302
20
6.5056034004904362
42
0.414213562373069
10
1.7375001175647498
20
7.0056034004904433
0
LWPOLYLINE
5
115
100
AcDbEntity
8
0
100
AcDbPolyline
90
8
70
1
43
0.0
10
11.762500117564763
20
-12.544396599509593
10
11.762500117564731
20
-25.544396599509547
42
-0.41421356237312623
10
11.26250011756472
20
-26.044396599509504
10
-1.7374998824352694
20
-26.04439659950955
42
-0.41421356237308204
10
-2.2374998824352943
20
-25.544396599509476
10
-2.2374998824352943
20
-12.544396599509504
42
-0.41421356237308982
10
-1.7374998824352694
20
-12.044396599509595
10
11.262500117564755
20
-12.044396599509604
42
-0.4142135623730222
0
LWPOLYLINE
5
116
100
AcDbEntity
8
0
100
AcDbPolyline
90
8
70
1
43
0.0
10
6.5000001169714317
20
31.105603401083659
42
0.41421356237312623
10
7.0000001169713855
20
31.605603401083631
10
7.0000001169713855
20
44.605603401082874
42
0.41421356237314705
10
6.5000001169714317
20
45.105603401083805
10
-6.4999998830285932
20
45.10560340108416
42
0.41421356237303258
10
-6.9999998830285648
20
44.605603401084473
10
-6.9999998830285648
20
31.605603401083684
42
0.41421356237309503
10
-6.4999998830285932
20
31.105603401083535
0
LWPOLYLINE
5
117
100
AcDbEntity
8
0
100
AcDbPolyline
90
8
70
1
43
0.0
10
31.600000116971465
20
45.105603401082263
42
0.41421356237313667
10
31.100000116971476
20
44.605603401084259
10
31.100000116971387
20
31.605603401083684
42
0.41421356237304818
10
31.600000116971465
20
31.105603401083648
10
44.60000011697133
20
31.105603401083492
42
0.41421356237314189
10
45.100000116971408
20
31.605603401083535
10
45.100000116971387
20
44.605603401083144
42
0.4142135623732407
10
44.60000011697133
20
45.10560340108416
0
LWPOLYLINE
5
118
100
AcDbEntity
8
0
100
AcDbPolyline
90
8
70
1
43
0.0
10
41.125000117564667
20
26.055603400490426
42
0.41421356237304818
10
40.625000117564802
20
25.555603400490572
10
40.62500011756466
20
12.555603400490449
42
0.41421356237313145
10
41.125000117564667
20
12.055603400490451
10
54.125000117564745
20
12.055603400490318
42
0.4142135623730378
10
54.625000117564859
20
12.555603400490547
10
54.625000117564738
20
25.555603400490405
42
0.41421356237303258
10
54.125000117564745
20
26.055603400490071
0
LWPOLYLINE
5
119
100
AcDbEntity
8
0
100
AcDbPolyline
90
8
70
1
43
0.0
10
30.812500117564735
20
-12.544396599509682
42
0.41421356237311063
10
30.312500117564731
20
-12.044396599509618
10
17.312500117564795
20
-12.044396599509643
42
0.41421356237306123
10
16.812500117564788
20
-12.544396599509593
10
16.812500117564792
20
-25.544396599509462
42
0.41421356237316009
10
17.312500117564795
20
-26.044396599509501
10
30.312500117564731
20
-26.044396599509511
42
0.41421356237297535
10
30.812500117564738
20
-25.544396599509458
0
LWPOLYLINE
5
120
100
AcDbEntity
8
0
100
AcDbPolyline
90
8
70
1
43
0.0
10
39.837500117564844
20
-6.9943965995094448
10
26.83750011756473
20
-6.9943965995096491
42
-0.41421356237313145
10
26.337500117564741
20
-6.494396599509491
10
26.337500117564723
20
6.5056034004904717
42
-0.41421356237314705
10
26.837500117564748
20
7.0056034004903367
10
39.837500117564666
20
7.0056034004905055
42
-0.41421356237320428
10
40.337500117564744
20
6.5056034004904895
10
40.337500117564751
20
-6.4943965995095088
42
-0.41421356237304818
0
LWPOLYLINE
5
121
100
AcDbEntity
8
0
100
AcDbPolyline
90
8
70
1
43
0.0
10
49.362500117564693
20
-26.04439659950938
42
0.41421356237302737
10
49.86250011756475
20
-25.544396599509476
10
49.86250011756475
20
-12.544396599509593
42
0.41421356237324852
10
49.362500117564672
20
-12.044396599509604
10
36.3625001175647
20
-12.044396599509595
42
0.41421356237307422
10
35.862500117564657
20
-12.544396599509504
10
35.862500117564657
20
-25.544396599509586
42
0.41421356237311585
10
36.3625001175647
20
-26.044396599509518
0
LWPOLYLINE
5
122
100
AcDbEntity
8
0
100
AcDbPolyline
90
8
70
1
43
0.0
10
21.575000117564667
20
12.55560340049052
42
0.41421356237311585
10
22.075000117564745
20
12.055603400490513
10
35.075000117564734
20
12.055603400490478
42
0.4142135623730534
10
35.57500011756467
20
12.555603400490476
10
35.575000117564635
20
25.555603400490405
42
0.41421356237311063
10
35.075000117564663
20
26.055603400490543
10
22.075000117564745
20
26.055603400490401
42
0.41421356237315748
10
21.575000117564791
20
25.555603400490547
0
LWPOLYLINE
5
123
100
AcDbEntity
8
0
100
AcDbPolyline
90
8
70
1
43
0.0
10
26.050000116971415
20
44.605603401084494
42
0.4142135623730846
10
25.550000116971407
20
45.105603401083982
10
12.550000116971471
20
45.10560340108416
42
0.41421356237301177
10
12.05000011697134
20
44.605603401084068
10
12.050000116971367
20
31.605603401083798
42
0.41421356237305862
10
12.550000116971471
20
31.105603401083684
10
25.550000116971425
20
31.105603401083801
42
0.41421356237288171
10
26.050000116971397
20
31.605603401083798
0
LWPOLYLINE
5
124
100
AcDbEntity
8
0
100
AcDbPolyline
90
8
70
1
43
0.0
10
16.52500011756473
20
25.555603400490405
10
16.52500011756473
20
12.555603400490511
42
-0.41421356237314189
10
16.025000117564723
20
12.055603400490602
10
3.0250001175647157
20
12.055603400490451
42
-0.4142135623730846
10
2.5250001175647441
20
12.555603400490511
10
2.5250001175647441
20
25.555603400490405
42
-0.41421356237306384
10
3.0250001175647157
20
26.055603400490426
10
16.025000117564723
20
26.055603400490554
42
-0.41421356237307422
0
LWPOLYLINE
5
125
100
AcDbEntity
8
0
100
AcDbPolyline
90
8
70
1
43
0.0
10
-87.962499882435282
20
-6.494396599509491
42
0.41421356237308982
10
-87.462499882435267
20
-6.9943965995094803
10
-74.462499882435253
20
-6.994396599509507
42
0.41421356237311063
10
-73.962499882435282
20
-6.4943965995095088
10
-73.96249988243531
20
6.5056034004904717
42
0.41421356237305862
10
-74.462499882435253
20
7.0056034004905055
10
-87.462499882435267
20
7.0056034004904877
42
0.41421356237316265
10
-87.962499882435282
20
6.5056034004905072
0
LWPOLYLINE
5
126
100
AcDbEntity
8
0
100
AcDbPolyline
90
8
70
1
43
0.0
10
-83.487499882435287
20
-12.544396599509486
10
-83.487499882435401
20
-25.544396599509529
42
-0.41421356237306639
10
-83.987499882435259
20
-26.044396599509557
10
-96.987499882435316
20
-26.04439659950954
42
-0.41421356237315748
10
-97.487499882435287
20
-25.544396599509462
10
-97.487499882435316
20
-12.544396599509486
42
-0.41421356237307944
10
-96.987499882435316
20
-12.044396599509506
10
-83.987499882435401
20
-12.044396599509533
42
-0.41421356237312623
0
LWPOLYLINE
5
127
100
AcDbEntity
8
0
100
AcDbPolyline
90
8
70
1
43
0.0
10
-74.462499883028556
20
-45.094396598916227
10
-87.46249988302857
20
-45.094396598916262
42
-0.41421356237312623
10
-87.962499883028528
20
-44.594396598916184
10
-87.962499883028585
20
-31.594396598916266
42
-0.41421356237305601
10
-87.462499883028528
20
-31.094396598916219
10
-74.462499883028556
20
-31.094396598916234
42
-0.41421356237304818
10
-73.962499883028585
20
-31.594396598916266
10
-73.962499883028585
20
-44.594396598916276
42
-0.4142135623730846
0
LWPOLYLINE
5
128
100
AcDbEntity
8
0
100
AcDbPolyline
90
8
70
1
43
0.0
10
-64.43749988243539
20
-12.544396599509486
10
-64.437499882435262
20
-25.544396599509458
42
-0.41421356237306384
10
-64.93749988243539
20
-26.044396599509547
10
-77.937499882435262
20
-26.044396599509536
42
-0.41421356237313406
10
-78.437499882435276
20
-25.544396599509533
10
-78.437499882435276
20
-12.544396599509486
42
-0.41421356237318868
10
-77.937499882435262
20
-12.044396599509524
10
-64.93749988243539
20
-12.044396599509515
42
-0.41421356237307422
0
LWPOLYLINE
5
129
100
AcDbEntity
8
0
100
AcDbPolyline
90
8
70
1
43
0.0
10
-82.699999883028596
20
45.105603401083826
10
-69.699999883028568
20
45.105603401083627
42
-0.4142135623730846
10
-69.199999883028511
20
44.605603401083883
10
-69.199999883028596
20
31.605603401083773
42
-0.41421356237310025
10
-69.699999883028596
20
31.105603401083684
10
-82.699999883028596
20
31.105603401083755
42
-0.41421356237302737
10
-83.199999883028539
20
31.605603401083719
10
-83.199999883028539
20
44.605603401083798
42
-0.41421356237306384
0
LWPOLYLINE
5
130
100
AcDbEntity
8
0
100
AcDbPolyline
90
8
70
1
43
0.0
10
-59.674999882435301
20
25.555603400490526
42
0.41421356237311063
10
-60.1749998824355
20
26.055603400490472
10
-73.174999882435287
20
26.055603400490526
42
0.41421356237304818
10
-73.674999882435301
20
25.555603400490526
10
-73.674999882435316
20
12.555603400490511
42
0.4142135623731783
10
-73.174999882435401
20
12.05560340049046
10
-60.174999882435323
20
12.055603400490504
42
0.4142135623732095
10
-59.674999882435422
20
12.555603400490458
0
LWPOLYLINE
5
131
100
AcDbEntity
8
0
100
AcDbPolyline
90
8
70
1
43
0.0
10
-31.599999883028538
20
31.10560340108367
10
-44.59999988302858
20
31.105603401083755
42
-0.41421356237292334
10
-45.099999883028588
20
31.605603401083755
10
-45.099999883028588
20
44.605603401083712
42
-0.41421356237312623
10
-44.59999988302858
20
45.105603401083769
10
-31.599999883028573
20
45.105603401083769
42
-0.4142135623730534
10
-31.09999988302862
20
44.605603401083528
10
-31.099999883028602
20
31.605603401083798
42
-0.4142135623730846
0
LWPOLYLINE
5
132
100
AcDbEntity
8
0
100
AcDbPolyline
90
8
70
1
43
0.0
10
-54.124999882435283
20
26.05560340049049
10
-41.124999882435276
20
26.055603400490497
42
-0.41421356237302737
10
-40.624999882435304
20
25.55560340049043
10
-40.624999882435304
20
12.555603400490449
42
-0.41421356237308982
10
-41.124999882435276
20
12.055603400490487
10
-54.124999882435283
20
12.055603400490549
42
-0.41421356237314705
10
-54.624999882435404
20
12.555603400490476
10
-54.624999882435397
20
25.555603400490572
42
-0.41421356237310542
0
LWPOLYLINE
5
133
100
AcDbEntity
8
0
100
AcDbPolyline
90
8
70
1
43
0.0
10
-35.574999882435314
20
12.555603400490547
42
0.41421356237314189
10
-35.074999882435307
20
12.055603400490531
10
-22.0749998824353
20
12.055603400490478
42
0.41421356237318868
10
-21.574999882435257
20
12.555603400490547
10
-21.574999882435293
20
25.555603400490554
42
0.41421356237304302
10
-22.074999882435229
20
26.055603400490401
10
-35.074999882435307
20
26.055603400490526
42
0.41421356237312623
10
-35.574999882435314
20
25.555603400490476
0
LWPOLYLINE
5
134
100
AcDbEntity
8
0
100
AcDbPolyline
90
8
70
1
43
0.0
10
-26.33749988243526
20
-12.544396599509593
10
-26.337499882435349
20
-25.544396599509458
42
-0.41421356237315488
10
-26.837499882435267
20
-26.04439659950955
10
-39.83749988243531
20
-26.044396599509618
42
-0.4142135623730378
10
-40.337499882435424
20
-25.5443965995096
10
-40.337499882435282
20
-12.544396599509486
42
-0.41421356237310542
10
-39.837499882435274
20
-12.044396599509462
10
-26.837499882435267
20
-12.044396599509541
42
-0.41421356237299617
0
LWPOLYLINE
5
135
100
AcDbEntity
8
0
100
AcDbPolyline
90
8
70
1
43
0.0
10
-17.312499882435262
20
-6.9943965995095692
10
-30.312499882435304
20
-6.9943965995095159
42
-0.41421356237324591
10
-30.812499882435304
20
-6.4943965995095443
10
-30.812499882435311
20
6.5056034004904362
42
-0.41421356237307944
10
-30.312499882435304
20
7.0056034004904877
10
-17.312499882435333
20
7.005603400490461
42
-0.41421356237307422
10
-16.812499882435272
20
6.5056034004905072
10
-16.812499882435255
20
-6.4943965995095265
42
-0.41421356237311585
0
LWPOLYLINE
5
136
100
AcDbEntity
8
0
100
AcDbPolyline
90
8
70
1
43
0.0
10
-49.862499882435323
20
-6.4943965995095265
10
-49.862499882435394
20
6.5056034004905072
42
-0.41421356237302737
10
-49.362499882435316
20
7.0056034004904699
10
-36.362499882435273
20
7.005603400490461
42
-0.41421356237314705
10
-35.862499882435266
20
6.5056034004905072
10
-35.862499882435301
20
-6.4943965995095088
42
-0.41421356237311585
10
-36.362499882435273
20
-6.9943965995094448
10
-49.362499882435316
20
-6.994396599509507
42
-0.41421356237316265
0
LWPOLYLINE
5
137
100
AcDbEntity
8
0
100
AcDbPolyline
90
8
70
1
43
0.0
10
-50.149999883028649
20
44.605603401083499
10
-50.149999883028649
20
31.605603401083798
42
-0.41421356237310542
10
-50.649999883028549
20
31.105603401083741
10
-63.649999883028592
20
31.105603401083755
42
-0.41421356237306384
10
-64.149999883028542
20
31.605603401083798
10
-64.149999883028499
20
44.605603401083599
42
-0.41421356237300139
10
-63.649999883028521
20
45.105603401083911
10
-50.649999883028656
20
45.105603401083485
42
-0.41421356237304302
0
LWPOLYLINE
5
138
100
AcDbEntity
8
0
100
AcDbPolyline
90
8
70
1
43
0.0
10
-68.912499882435327
20
-6.4943965995095265
10
-68.912499882435384
20
6.5056034004904184
42
-0.41421356237307422
10
-68.412499882435398
20
7.0056034004905143
10
-55.41249988243532
20
7.0056034004905321
42
-0.4142135623730846
10
-54.912499882435277
20
6.5056034004905072
10
-54.912499882435242
20
-6.494396599509491
42
-0.41421356237309503
10
-55.412499882435284
20
-6.9943965995094626
10
-68.412499882435441
20
-6.9943965995095159
42
-0.41421356237314705
0
LWPOLYLINE
5
139
100
AcDbEntity
8
0
100
AcDbPolyline
90
8
70
1
43
0.0
10
-59.387499882435328
20
-25.544396599509511
10
-59.387499882435186
20
-12.544396599509486
42
-0.41421356237313667
10
-58.88749988243525
20
-12.044396599509479
10
-45.887499882435314
20
-12.044396599509515
42
-0.41421356237312623
10
-45.387499882435392
20
-12.544396599509486
10
-45.387499882435378
20
-25.5443965995096
42
-0.41421356237308204
10
-45.887499882435314
20
-26.044396599509515
10
-58.887499882435392
20
-26.044396599509536
42
-0.41421356237310542
0
LWPOLYLINE
5
140
100
AcDbEntity
8
0
100
AcDbPolyline
90
8
70
1
43
0.0
10
-92.224999882435299
20
26.055603400490508
10
-79.224999882435412
20
26.055603400490497
42
-0.4142135623730222
10
-78.724999882435426
20
25.555603400490501
10
-78.724999882435398
20
12.555603400490494
42
-0.41421356237316265
10
-79.224999882435412
20
12.055603400490513
10
-92.224999882435299
20
12.055603400490469
42
-0.41421356237301177
10
-92.724999882435313
20
12.555603400490476
10
-92.72499988243527
20
25.555603400490526
42
-0.41421356237310025
0
LWPOLYLINE
5
141
100
AcDbEntity
8
0
100
AcDbPolyline
90
8
70
1
43
0.0
10
-114.94374988302869
20
-26.044396598916251
10
-127.94374988302856
20
-26.044396598916229
42
-0.41421356237309243
10
-128.44374988302866
20
-25.544396598916261
10
-128.44374988302866
20
-12.544396598916236
42
-0.41421356237306639
10
-127.94374988302856
20
-12.044396598916173
10
-114.94374988302854
20
-12.044396598916256
42
-0.4142135623730378
10
-114.44374988302869
20
-12.544396598916236
10
-114.44374988302857
20
-25.544396598916215
42
-0.41421356237305079
0
LWPOLYLINE
5
142
100
AcDbEntity
8
0
100
AcDbPolyline
90
8
70
1
43
0.0
10
-119.70624988302856
20
-6.9943965989162216
42
0.41421356237312101
10
-119.20624988302855
20
-6.4943965989162411
10
-119.20624988302855
20
6.5056034010837749
42
0.4142135623730378
10
-119.70624988302856
20
7.0056034010837553
10
-137.46624988302858
20
7.005603401083782
42
0.41421356237312623
10
-137.96624988302867
20
6.5056034010837926
10
-137.96624988302855
20
-6.4943965989162589
42
0.41421356237302737
10
-137.46624988302858
20
-6.9943965989161949
0
LWPOLYLINE
5
143
100
AcDbEntity
8
0
100
AcDbPolyline
90
8
70
1
43
0.0
10
-135.58749988302856
20
12.555603401083779
42
0.4142135623730222
10
-135.08749988302856
20
12.055603401083754
10
-122.08749988302863
20
12.055603401083719
42
0.41421356237311063
10
-121.58749988302861
20
12.555603401083753
10
-121.58749988302858
20
25.555603401083786
42
0.4142135623730378
10
-122.08749988302858
20
26.055603401083758
10
-135.08749988302856
20
26.055603401083776
42
0.41421356237304302
10
-135.58749988302856
20
25.555603401083786
0
LWPOLYLINE
5
144
100
AcDbEntity
8
0
100
AcDbPolyline
90
8
70
1
43
0.0
10
-101.74999988302858
20
45.105603401083826
42
0.4142135623731783
10
-102.24999988302858
20
44.605603401083741
10
-102.24999988302866
20
31.605603401083773
42
0.41421356237315748
10
-101.74999988302858
20
31.105603401083801
10
-88.749999883028579
20
31.105603401083748
42
0.4142135623730222
10
-88.249999883028607
20
31.605603401083684
10
-88.249999883028565
20
44.605603401083741
42
0.41421356237298057
10
-88.749999883028636
20
45.105603401083769
0
LWPOLYLINE
5
145
100
AcDbEntity
8
0
100
AcDbPolyline
90
8
70
1
43
0.0
10
-107.79999988302859
20
31.105603401083776
42
0.4142135623730222
10
-107.29999988302862
20
31.605603401083773
10
-107.29999988302858
20
44.605603401083762
42
0.41421356237310542
10
-107.79999988302865
20
45.105603401083783
10
-120.79999988302856
20
45.105603401083805
42
0.41421356237309503
10
-121.29999988302853
20
44.605603401083741
10
-121.29999988302856
20
31.605603401083798
42
0.41421356237312101
10
-120.79999988302856
20
31.105603401083819
0
LWPOLYLINE
5
146
100
AcDbEntity
8
0
100
AcDbPolyline
90
8
70
1
43
0.0
10
-111.27499988243528
20
26.055603400490497
10
-98.274999882435338
20
26.055603400490472
42
-0.41421356237315748
10
-97.774999882435267
20
25.555603400490501
10
-97.774999882435267
20
12.555603400490511
42
-0.41421356237310025
10
-98.274999882435338
20
12.055603400490496
10
-111.27499988243528
20
12.055603400490478
42
-0.41421356237312101
10
-111.77499988243527
20
12.555603400490511
10
-111.77499988243528
20
25.555603400490501
42
-0.41421356237313145
0
LWPOLYLINE
5
147
100
AcDbEntity
8
0
100
AcDbPolyline
90
8
70
1
43
0.0
10
-93.512499882435407
20
-6.9943965995094892
10
-106.51249988243538
20
-6.9943965995095514
42
-0.41421356237311585
10
-107.01249988243539
20
-6.4943965995095088
10
-107.01249988243532
20
6.5056034004905428
42
-0.41421356237315227
10
-106.51249988243538
20
7.0056034004905055
10
-93.512499882435307
20
7.0056034004905232
42
-0.41421356237310025
10
-93.012499882435293
20
6.5056034004905072
10
-93.012499882435293
20
-6.4943965995095621
42
-0.41421356237311063
0
LWPOLYLINE
5
148
100
AcDbEntity
8
0
100
AcDbPolyline
90
8
70
1
43
0.0
10
-113.00574988302867
20
-26.544396598916258
10
-113.00574988302856
20
-11.54439659891616
42
-0.4142135623730937
10
-112.50574988302859
20
-11.044396598916197
10
-106.50574988302864
20
-11.044396598916181
42
-0.4142135623730937
10
-106.00574988302866
20
-11.544396598916169
10
-106.00574988302856
20
-26.54439659891624
42
-0.41421356237310281
10
-106.50574988302867
20
-27.044396598916226
10
-112.50574988302866
20
-27.044396598916283
42
-0.41421356237314705
0
LWPOLYLINE
5
149
100
AcDbEntity
8
0
100
AcDbPolyline
90
8
70
1
43
0.0
10
-98.274999883028642
20
-45.094396598916276
42
0.4142135623730846
10
-97.774999883028698
20
-44.594396598916276
10
-97.77499988302867
20
-31.594396598916266
42
0.41421356237305601
10
-98.274999883028642
20
-31.094396598916223
10
-111.27499988302858
20
-31.094396598916212
42
0.41421356237316009
10
-111.77499988302858
20
-31.594396598916195
10
-111.77499988302858
20
-44.594396598916184
42
0.41421356237304302
10
-111.27499988302858
20
-45.094396598916177
0
LWPOLYLINE
5
150
100
AcDbEntity
8
0
100
AcDbPolyline
90
8
70
1
43
0.0
10
-122.08749988302863
20
-45.094396598916276
10
-135.08749988302864
20
-45.094396598916205
42
-0.41421356237298057
10
-135.58749988302861
20
-44.594396598916205
10
-135.58749988302864
20
-31.594396598916255
42
-0.41421356237310542
10
-135.08749988302864
20
-31.094396598916234
10
-122.08749988302863
20
-31.094396598916209
42
-0.41421356237313667
10
-121.58749988302858
20
-31.594396598916251
10
-121.5874998830287
20
-44.594396598916184
42
-0.41421356237310542
0
LWPOLYLINE
5
151
100
AcDbEntity
8
0
100
AcDbPolyline
90
8
70
1
43
0.0
10
-139.84999988302857
20
45.105603401083805
10
-126.84999988302856
20
45.105603401083805
42
-0.41421356237313667
10
-126.34999988302854
20
44.605603401083798
10
-126.34999988302857
20
31.605603401083773
42
-0.41421356237314189
10
-126.84999988302856
20
31.105603401083776
10
-139.84999988302857
20
31.105603401083783
42
-0.41421356237304302
10
-140.34999988302857
20
31.605603401083773
10
-140.34999988302854
20
44.605603401083798
42
-0.41421356237310542
0
LWPOLYLINE
5
152
100
AcDbEntity
8
0
100
AcDbPolyline
90
8
70
1
43
0.0
10
-136.88174988302865
20
-26.544396598916222
10
-136.88174988302859
20
-11.544396598916183
42
-0.41421356237309503
10
-136.38174988302859
20
-11.044396598916189
10
-130.38174988302859
20
-11.04439659891619
42
-0.41421356237309503
10
-129.88174988302862
20
-11.54439659891618
10
-129.88174988302865
20
-26.544396598916276
42
-0.41421356237304041
10
-130.38174988302868
20
-27.044396598916261
10
-136.38174988302853
20
-27.044396598916236
42
-0.41421356237307944
0
LWPOLYLINE
5
153
100
AcDbEntity
8
0
100
AcDbPolyline
90
8
70
1
43
0.0
10
-20.787499882435299
20
-12.044396599509595
10
-7.7874998824352915
20
-12.044396599509533
42
-0.41421356237304041
10
-7.2874998824352932
20
-12.544396599509508
10
-7.2874998824353199
20
-25.544396599509582
42
-0.41421356237302998
10
-7.7874998824352915
20
-26.044396599509479
10
-20.787499882435334
20
-26.044396599509536
42
-0.4142135623730534
10
-21.287499882435284
20
-25.544396599509515
10
-21.287499882435235
20
-12.544396599509566
42
-0.41421356237307422
0
LWPOLYLINE
5
154
100
AcDbEntity
8
0
100
AcDbPolyline
90
8
70
1
43
0.0
10
-16.02499988243526
20
26.055603400490401
10
-3.0249998824353241
20
26.055603400490597
42
-0.41421356237311063
10
-2.5249998824354325
20
25.55560340049043
10
-2.5249998824354414
20
12.555603400490378
42
-0.41421356237312101
10
-3.0249998824353241
20
12.055603400490416
10
-16.02499988243526
20
12.055603400490504
42
-0.4142135623730222
10
-16.524999882435267
20
12.555603400490494
10
-16.524999882435267
20
25.55560340049043
42
-0.41421356237309503
0
LWPOLYLINE
5
155
100
AcDbEntity
8
0
100
AcDbPolyline
90
8
70
1
43
0.0
10
50.150000116971469
20
31.605603401083755
42
0.4142135623732251
10
50.650000116971441
20
31.105603401083918
10
63.650000116971476
20
31.105603401083918
42
0.41421356237297013
10
64.150000116971455
20
31.605603401083862
10
64.150000116971469
20
44.605603401083854
42
0.41421356237314189
10
63.650000116971484
20
45.105603401082547
10
50.650000116971441
20
45.105603401084338
42
0.41421356237300139
10
50.150000116971469
20
44.605603401082647
0
LWPOLYLINE
5
156
100
AcDbEntity
8
0
100
AcDbPolyline
90
8
70
1
43
0.0
10
59.675000117564636
20
12.555603400490423
42
0.41421356237312623
10
60.17500011756475
20
12.055603400490149
10
73.175000117564778
20
12.055603400490345
42
0.41421356237307944
10
73.675000117564736
20
12.555603400490476
10
73.67500011756475
20
25.555603400490359
42
0.4142135623730534
10
73.175000117564792
20
26.055603400490412
10
60.17500011756475
20
26.055603400490277
42
0.41421356237313667
10
59.675000117564672
20
25.55560340049081
0
LWPOLYLINE
5
157
100
AcDbEntity
8
0
100
AcDbPolyline
90
8
70
1
43
0.0
10
77.937500117564724
20
-6.9943965995094803
10
64.937500117564753
20
-6.994396599509578
42
-0.41421356237310542
10
64.437500117564753
20
-6.4943965995095088
10
64.437500117564753
20
6.5056034004905072
42
-0.41421356237287649
10
64.937500117564753
20
7.0056034004905055
10
77.937500117564724
20
7.0056034004905055
42
-0.41421356237306384
10
78.437500117564682
20
6.5056034004904895
10
78.437500117564909
20
-6.4943965995095532
42
-0.41421356237315227
0
LWPOLYLINE
5
158
100
AcDbEntity
8
0
100
AcDbPolyline
90
8
70
1
43
0.0
10
82.700000116971495
20
31.105603401083684
42
0.41421356237293894
10
83.200000116971438
20
31.605603401083364
10
83.200000116971466
20
44.605603401082554
42
0.41421356237315748
10
82.700000116971495
20
45.105603401083272
10
69.700000116971452
20
45.105603401082575
42
0.41421356237306384
10
69.200000116971438
20
44.60560340108357
10
69.200000116971452
20
31.605603401083471
42
0.41421356237288692
10
69.700000116971452
20
31.105603401083364
0
LWPOLYLINE
5
159
100
AcDbEntity
8
0
100
AcDbPolyline
90
8
70
1
43
0.0
10
73.962500117564758
20
-25.544396599509476
42
0.41421356237311063
10
74.462500117564744
20
-26.044396599509323
10
87.46250011756473
20
-26.044396599509561
42
0.414213562373069
10
87.96250011756473
20
-25.544396599509618
10
87.962500117564858
20
-12.544396599509389
42
0.4142135623730534
10
87.462500117564616
20
-12.044396599509302
10
74.462500117564744
20
-12.044396599509541
42
0.41421356237317308
10
73.962500117564815
20
-12.544396599509327
0
LWPOLYLINE
5
160
100
AcDbEntity
8
0
100
AcDbPolyline
90
8
70
1
43
0.0
10
102.25000011697145
20
44.605603401083549
42
0.4142135623730534
10
101.75000011697151
20
45.105603401083627
10
88.750000116971407
20
45.105603401083314
42
0.41421356237301177
10
88.250000116971307
20
44.605603401084778
10
88.250000116971393
20
31.605603401083606
42
0.41421356237314705
10
88.750000116971421
20
31.105603401084039
10
101.75000011697151
20
31.105603401083926
42
0.41421356237289214
10
102.25000011697148
20
31.6056034010834
0
LWPOLYLINE
5
161
100
AcDbEntity
8
0
100
AcDbPolyline
90
8
70
1
43
0.0
10
92.225000117564946
20
12.05560340049054
42
0.41421356237320428
10
92.725000117564917
20
12.555603400490547
10
92.725000117564633
20
25.555603400490476
42
0.41421356237312623
10
92.225000117564662
20
26.055603400490561
10
79.22500011756469
20
26.055603400490401
42
0.41421356237288692
10
78.72500011756469
20
25.555603400490405
10
78.72500011756469
20
12.555603400490423
42
0.4142135623731939
10
79.22500011756469
20
12.055603400490478
0
LWPOLYLINE
5
162
100
AcDbEntity
8
0
100
AcDbPolyline
90
8
70
1
43
0.0
10
-47.843675061093229
20
48.330612783452537
42
0.41421356237330315
10
-47.643675061093234
20
48.130612783452534
10
-23.043872964890255
20
48.130612783452534
42
0.41421356237288692
10
-22.843872964890259
20
48.330612783452537
10
-22.843872964890259
20
48.930612783452538
42
0.41421356237330315
10
-23.043872964890255
20
49.130612783452534
10
-47.643675061093234
20
49.130612783452534
42
0.41421356237288692
10
-47.843675061093229
20
48.930612783452538
0
LWPOLYLINE
5
163
100
AcDbEntity
8
0
100
AcDbPolyline
90
8
70
1
43
0.0
10
23.043824938906834
20
49.130612783452534
42
0.41421356237309503
10
22.843824938906838
20
48.930612783452538
10
22.843824938906838
20
48.330612783452537
42
0.41421356237314705
10
23.043824938906834
20
48.130612783452534
10
47.643627035109773
20
48.130612783452534
42
0.41421356237314705
10
47.843627035109755
20
48.330612783452537
10
47.843627035109776
20
48.930612783452538
42
0.414213562373069
10
47.643627035109795
20
49.130612783452534
0
LWPOLYLINE
5
164
100
AcDbEntity
8
0
100
AcDbPolyline
90
8
70
1
43
0.0
10
93.531324938906835
20
48.330612783452516
10
93.531324938906835
20
48.930612783452538
42
-0.41421356237304302
10
93.731324938906809
20
49.130612783452527
10
118.33112703510977
20
49.130612783452534
42
-0.41421356237304302
10
118.53112703510976
20
48.930612783452538
10
118.53112703510976
20
48.330612783452537
42
-0.41421356237309503
10
118.33112703510977
20
48.130612783452534
10
93.731324938906823
20
48.130612783452555
42
-0.41421356237314705
0
LWPOLYLINE
5
165
100
AcDbEntity
8
0
100
AcDbPolyline
90
8
70
1
43
0.0
10
93.531324938906764
20
-48.919397098476942
42
0.41421356237308204
10
93.731324938906766
20
-49.119397098476938
10
118.33112703510969
20
-49.119397098476938
42
0.41421356237309503
10
118.53112703510971
20
-48.919397098476942
10
118.53112703510971
20
-48.319397098476927
42
0.41421356237309503
10
118.3311270351097
20
-48.119397098476938
10
93.731324938906766
20
-48.119397098476931
42
0.41421356237312101
10
93.531324938906764
20
-48.319397098476941
0
LWPOLYLINE
5
166
100
AcDbEntity
8
0
100
AcDbPolyline
90
8
70
1
43
0.0
10
20.043824938906702
20
-48.119397098476938
42
0.41421356237309503
10
19.843824938906742
20
-48.319397098476941
10
19.843824938906739
20
-48.919397098476942
42
0.41421356237309503
10
20.043824938906702
20
-49.119397098476938
10
44.643627035109681
20
-49.119397098476945
42
0.41421356237305601
10
44.843627035109677
20
-48.919397098476942
10
44.84362703510967
20
-48.319397098476941
42
0.41421356237305601
10
44.643627035109681
20
-48.119397098476938
0
LWPOLYLINE
5
167
100
AcDbEntity
8
0
100
AcDbPolyline
90
8
70
1
43
0.0
10
-44.843675061093251
20
-48.919397098476942
42
0.41421356237305601
10
-44.643675061093298
20
-49.119397098476938
10
-20.043872964890319
20
-49.119397098476966
42
0.41421356237313406
10
-19.843872964890323
20
-48.919397098476942
10
-19.843872964890345
20
-48.319397098476941
42
0.41421356237312101
10
-20.043872964890319
20
-48.119397098476938
10
-44.643675061093298
20
-48.119397098476952
42
0.41421356237313406
10
-44.843675061093258
20
-48.319397098476941
0
LWPOLYLINE
5
168
100
AcDbEntity
8
0
100
AcDbPolyline
90
8
70
1
43
0.0
10
-118.53117506109331
20
-48.919397098476942
10
-118.53117506109331
20
-48.319397098476941
42
-0.41421356237319906
10
-118.33117506109332
20
-48.119397098476938
10
-93.731372964890369
20
-48.119397098476959
42
-0.41421356237313406
10
-93.531372964890409
20
-48.319397098476948
10
-93.531372964890409
20
-48.919397098476942
42
-0.41421356237305601
10
-93.731372964890369
20
-49.119397098476945
10
-118.33117506109332
20
-49.119397098476931
42
-0.41421356237329016
0
LWPOLYLINE
5
169
100
AcDbEntity
8
0
100
AcDbPolyline
90
8
70
1
43
0.0
10
87.962500116971469
20
-31.594396598916326
10
87.962500116971427
20
-44.594396598916433
42
-0.41421356237329271
10
87.462500116971455
20
-45.094396598916319
10
74.462500116971455
20
-45.094396598916298
42
-0.41421356237310542
10
73.962500116971469
20
-44.594396598916113
10
73.962500116971455
20
-31.594396598916148
42
-0.41421356237290774
10
74.462500116971441
20
-31.094396598916248
10
87.462500116971498
20
-31.094396598916365
42
-0.41421356237317308
0
LWPOLYLINE
5
170
100
AcDbEntity
8
0
100
AcDbPolyline
90
8
70
1
43
0.0
10
-6.9999998830286003
20
-44.594396598916205
10
-6.9999998830286003
20
-31.594396598916283
42
-0.41421356237306384
10
-6.4999998830285932
20
-31.094396598916259
10
6.5000001169713251
20
-31.09439659891629
42
-0.4142135623730534
10
7.0000001169713855
20
-31.59439659891628
10
7.0000001169713855
20
-44.59439659891629
42
-0.41421356237309503
10
6.5000001169713784
20
-45.094396598916369
10
-6.4999998830285932
20
-45.094396598916248
42
-0.41421356237299095
0
LWPOLYLINE
5
171
100
AcDbEntity
8
0
100
AcDbPolyline
90
8
70
1
43
0.0
10
111.77500011697148
20
-31.594396598916418
10
111.77500011697147
20
-44.594396598916305
42
-0.41421356237309503
10
111.27500011697144
20
-45.094396598916475
10
98.275000116971427
20
-45.094396598916248
42
-0.41421356237299095
10
97.775000116971455
20
-44.594396598916305
10
97.775000116971455
20
-31.594396598916141
42
-0.41421356237301959
10
98.275000116971455
20
-31.09439659891645
10
111.27500011697144
20
-31.094396598916241
42
-0.41421356237313145
0
LWPOLYLINE
5
172
100
AcDbEntity
8
0
100
AcDbPolyline
90
8
70
1
43
0.0
10
135.58750011697143
20
-31.594396598916159
10
135.58750011697143
20
-44.594396598916077
42
-0.41421356237313667
10
135.08750011697146
20
-45.094396598916475
10
122.08750011697146
20
-45.094396598916084
42
-0.41421356237311585
10
121.58750011697144
20
-44.594396598916184
10
121.58750011697144
20
-31.59439659891623
42
-0.41421356237297013
10
122.08750011697133
20
-31.094396598916457
10
135.08750011697146
20
-31.094396598916177
42
-0.41421356237310025
0
LWPOLYLINE
5
173
100
AcDbEntity
8
0
100
AcDbPolyline
90
72
70
1
43
0.0
10
142.87499985806247
20
-46.119396210552907
10
142.8749759736904
20
46.130603798326213
42
0.41421348393989926
10
141.37497598700827
20
47.630603409962468
10
122.03112703510979
20
47.63060359284998
42
-0.41421356237307944
10
121.03112703510976
20
48.630603592849972
10
121.03112703510976
20
51.630612783452534
42
0.41421356237310025
10
119.03112703510976
20
53.630612783452534
10
93.031324938906749
20
53.630612783452548
42
0.41421356237309764
10
91.031324938906721
20
51.630612783452534
10
91.031324938906721
20
48.630603433317283
42
-0.41421356237310542
10
90.031324938906735
20
47.630603433317297
10
51.343627035109769
20
47.63060359284998
42
-0.41421356237310025
10
50.343627035109776
20
48.630603592849994
10
50.343627035109755
20
51.630612783452534
42
0.41421356237309764
10
48.343627035109776
20
53.630612783452548
10
22.343824938906742
20
53.630612783452548
42
0.41421356237309764
10
20.343824938906749
20
51.630612783452534
10
20.343824938906732
20
48.630603433317283
42
-0.41421356237313145
10
19.343824938906753
20
47.63060343331729
10
-19.343872964890245
20
47.630603592849923
42
-0.41421356237311063
10
-20.343872964890259
20
48.630603592849994
10
-20.343872964890259
20
51.630612783452534
42
0.41421356237309503
10
-22.343872964890252
20
53.630612783452527
10
-48.343675061093272
20
53.630612783452548
42
0.41421356237309764
10
-50.343675061093265
20
51.630612783452534
10
-50.343675061093265
20
48.630603433317283
42
-0.41421356237307422
10
-51.343675061093279
20
47.630603433317269
10
-90.031372964890267
20
47.630603592849923
42
-0.41421356237311063
10
-91.031372964890267
20
48.630603592849994
10
-91.031372964890267
20
51.630612783452534
42
0.41421356237309503
10
-93.031372964890267
20
53.630612783452527
10
-119.03117506109325
20
53.630612783452548
42
0.41421356237307683
10
-121.03117506109325
20
51.630612783452534
10
-121.03117506109331
20
48.630603433317283
42
-0.41421356237307422
10
-122.03117506109325
20
47.630603433317269
10
-141.37499988302861
20
47.630603401083761
42
0.4142135623730846
10
-142.87499988302861
20
46.130603401083818
10
-142.87499988302554
20
-46.119396598916111
42
0.41421356237307599
10
-141.37499988302895
20
-47.61939659891614
10
-122.03117506109325
20
-47.619387907874362
42
-0.41421356237309503
10
-121.03117506109325
20
-48.619387907874376
10
-121.03117506109325
20
-51.619397098476938
42
0.41421356237310414
10
-119.03117506109328
20
-53.619397098476959
10
-93.031372964890267
20
-53.619397098476931
42
0.41421356237307422
10
-91.031372964890267
20
-51.619397098476945
10
-91.031372964890267
20
-48.619387748341687
42
-0.41421356237309503
10
-90.031372964890267
20
-47.619387748341673
10
-48.343675061093272
20
-47.619387907874362
42
-0.41421356237309503
10
-47.343675061093258
20
-48.619387907874376
10
-47.343675061093258
20
-51.619397098476938
42
0.41421356237309764
10
-45.343675061093265
20
-53.619397098476952
10
-19.343872964890245
20
-53.619397098476931
42
0.41421356237309764
10
-17.343872964890267
20
-51.619397098476938
10
-17.343872964890252
20
-48.619387748341687
42
-0.41421356237309764
10
-16.343872964890256
20
-47.61938774834168
10
16.343824938906728
20
-47.619387907874383
42
-0.41421356237309764
10
17.343824938906717
20
-48.619387907874376
10
17.343824938906742
20
-51.619397098476938
42
0.41421356237309503
10
19.343824938906735
20
-53.619397098476931
10
45.343627035109755
20
-53.619397098476931
42
0.41421356237309243
10
47.343627035109733
20
-51.619397098476945
10
47.343627035109762
20
-48.619387748341687
42
-0.41421356237310542
10
48.343627035109748
20
-47.619387748341673
10
90.031324938906749
20
-47.619387907874383
42
-0.41421356237309503
10
91.031324938906749
20
-48.619387907874376
10
91.031324938906764
20
-51.619397098476938
42
0.41421356237309115
10
93.031324938906735
20
-53.619397098476931
10
119.03112703510978
20
-53.619397098476931
42
0.4142135623730937
10
121.03112703510976
20
-51.619397098476938
10
121.03112703510979
20
-48.619387748341687
42
-0.41421356237310025
10
122.03112703510979
20
-47.619387748341673
10
141.37499985806244
20
-47.619396598916737
42
0.41421363820585366
0
LWPOLYLINE
5
174
100
AcDbEntity
8
0
100
AcDbPolyline
90
8
70
1
43
0.0
10
53.650000116971469
20
-45.594396598916035
10
53.650000116971469
20
-30.594396598916276
42
-0.41421356237315227
10
54.15000011697154
20
-30.094396598916209
10
60.150000116971505
20
-30.09439659891628
42
-0.41421356237301438
10
60.650000116971469
20
-30.594396598916248
10
60.650000116971455
20
-45.594396598916099
42
-0.41421356237309503
10
60.150000116971469
20
-46.094396598916092
10
54.150000116971526
20
-46.094396598916099
42
-0.41421356237309503
0
LWPOLYLINE
5
175
100
AcDbEntity
8
0
100
AcDbPolyline
90
8
70
1
43
0.0
10
-54.149999883028634
20
-46.09439659891607
10
-60.149999883028627
20
-46.09439659891607
42
-0.41421356237309503
10
-60.649999883028663
20
-45.594396598916035
10
-60.649999883028585
20
-30.594396598916191
42
-0.41421356237311846
10
-60.149999883028649
20
-30.094396598916212
10
-54.14999988302867
20
-30.094396598916255
42
-0.41421356237315748
10
-53.649999883028656
20
-30.594396598916234
10
-53.649999883028698
20
-45.594396598916134
42
-0.41421356237309503
0
LWPOLYLINE
5
176
100
AcDbEntity
8
0
100
AcDbPolyline
90
8
70
1
43
0.0
10
136.88175011697146
20
7.5056034010840449
10
136.88175011697149
20
-7.4943965989165306
42
-0.41421356237313145
10
136.38175011697126
20
-7.994396598916703
10
130.38175011697123
20
-7.9943965989166532
42
-0.41421356237314189
10
129.88175011697149
20
-7.4943965989168859
10
129.88175011697152
20
7.5056034010839952
42
-0.41421356237309503
10
130.38175011697146
20
8.0056034010839223
10
136.38175011697157
20
8.0056034010839277
42
-0.41421356237309503
0
LWPOLYLINE
5
177
100
AcDbEntity
8
0
100
AcDbPolyline
90
12
70
1
43
0.0
10
-109.10937488273193
20
2.0056034007871459
10
-109.1093748827319
20
-3.4943965992128589
42
-0.41421356237309503
10
-109.6093748827319
20
-3.9943965992128661
10
-110.10937488273194
20
-3.9943965992128572
42
-0.4142135623730846
10
-110.60937488273197
20
-3.4943965992128501
10
-110.60937488273191
20
2.0056034007871504
42
0.41421356237307944
10
-111.10937488273188
20
2.5056034007871308
10
-113.60937488273188
20
2.5056034007871464
42
-0.41421356237308593
10
-114.1093748827319
20
3.0056034007871379
10
-114.1093748827319
20
3.5056034007871362
42
-0.41421356237310025
10
-113.60937488273188
20
4.0056034007871517
10
-111.10937488273188
20
4.0056034007870807
42
-0.41421356237309176
0
ENDSEC
0
SECTION
2
OBJECTS
0
DICTIONARY
5
C
100
AcDbDictionary
3
ACAD_GROUP
350
D
3
ACAD_MLINESTYLE
350
17
0
DICTIONARY
5
D
100
AcDbDictionary
0
DICTIONARY
5
1A
330
C
100
AcDbDictionary
0
DICTIONARY
5
17
100
AcDbDictionary
0
ENDSEC
0
EOF
