0
SECTION
2
HEADER
9
$INSUNITS
70
4
9
$ACADVER
1
AC1014
9
$HANDSEED
5
FFFF
0
ENDSEC
0
SECTION
2
TABLES
0
TABLE
2
VPORT
5
8
100
AcDbSymbolTable
0
ENDTAB
0
TABLE
2
LTYPE
5
5
100
AcDbSymbolTable
0
LTYPE
5
14
100
AcDbSymbolTableRecord
100
AcDbLinetypeTableRecord
2
BYBLOCK
70
0
0
LTYPE
5
15
100
AcDbSymbolTableRecord
100
AcDbLinetypeTableRecord
2
BYLAYER
70
0
0
LTYPE
5
16
100
AcDbSymbolTableRecord
100
AcDbLinetypeTableRecord
2
DASHED
70
0
3
Dashed __ __ __ __ __ __ __ __ __ __ __ __ __ _
72
65
73
2
40
0.75
49
0.5
74
0
49
-0.25
74
0
0
ENDTAB
0
TABLE
2
LAYER
5
2
100
AcDbSymbolTable
70
2
0
LAYER
5
50
100
AcDbSymbolTableRecord
100
AcDbLayerTableRecord
2
0
70
0
62
7
6
CONTINUOUS
0
ENDTAB
0
TABLE
2
STYLE
5
3
100
AcDbSymbolTable
70
1
0
STYLE
5
11
100
AcDbSymbolTableRecord
100
AcDbTextStyleTableRecord
2
STANDARD
70
0
0
ENDTAB
0
TABLE
2
VIEW
5
6
100
AcDbSymbolTable
70
0
0
ENDTAB
0
TABLE
2
UCS
5
7
100
AcDbSymbolTable
70
0
0
ENDTAB
0
TABLE
2
APPID
5
9
100
AcDbSymbolTable
70
2
0
APPID
5
12
100
AcDbSymbolTableRecord
100
AcDbRegAppTableRecord
2
ACAD
70
0
0
ENDTAB
0
TABLE
2
DIMSTYLE
5
A
100
AcDbSymbolTable
70
1
0
ENDTAB
0
TABLE
2
BLOCK_RECORD
5
1
100
AcDbSymbolTable
70
1
0
BLOCK_RECORD
5
1F
100
AcDbSymbolTableRecord
100
AcDbBlockTableRecord
2
*MODEL_SPACE
0
BLOCK_RECORD
5
1B
100
AcDbSymbolTableRecord
100
AcDbBlockTableRecord
2
*PAPER_SPACE
0
ENDTAB
0
ENDSEC
0
SECTION
2
BLOCKS
0
BLOCK
5
20
100
AcDbEntity
100
AcDbBlockBegin
2
*MODEL_SPACE
0
ENDBLK
5
21
100
AcDbEntity
100
AcDbBlockEnd
0
BLOCK
5
1C
100
AcDbEntity
100
AcDbBlockBegin
2
*PAPER_SPACE
0
ENDBLK
5
1D
100
AcDbEntity
100
AcDbBlockEnd
0
ENDSEC
0
SECTION
2
ENTITIES
0
LWPOLYLINE
5
100
100
AcDbEntity
8
0
100
AcDbPolyline
90
12
70
1
43
0.0
10
-122.13437500000006
20
-15.906423144934386
10
-124.63437500000005
20
-15.906423144934351
42
-0.41421356237310153
10
-126.63437500000015
20
-13.906423144934369
10
-126.63437500000008
20
-8.4064231449343669
42
-0.41421356237315354
10
-126.13437500000005
20
-7.9064231449343847
10
-125.63437500000001
20
-7.9064231449343598
42
-0.41421356237310414
10
-125.13437500000002
20
-8.4064231449343652
10
-125.13437500000003
20
-13.906423144934369
42
0.41421356237312101
10
-124.63437500000006
20
-14.406423144934259
10
-122.13437500000006
20
-14.40642314493433
42
-0.41421356237307422
10
-121.63437500000009
20
-14.906423144934266
10
-121.63437500000012
20
-15.406423144934362
42
-0.4142135623730534
0
LWPOLYLINE
5
101
100
AcDbEntity
8
0
100
AcDbPolyline
90
8
70
1
43
0.0
10
116.82499999999999
20
-37.456423144934362
10
116.82500000000003
20
-24.456423144934352
42
-0.41421356237307422
10
117.32499999999996
20
-23.95642314493438
10
130.32499999999996
20
-23.956423144934345
42
-0.41421356237312623
10
130.82499999999999
20
-24.456423144934334
10
130.82499999999999
20
-37.456423144934362
42
-0.41421356237313667
10
130.32499999999996
20
-37.956423144934362
10
117.32499999999996
20
-37.956423144934362
42
-0.41421356237311585
0
LWPOLYLINE
5
102
100
AcDbEntity
8
0
100
AcDbPolyline
90
8
70
1
43
0.0
10
104.63124999999992
20
-24.456423144934352
10
104.63124999999999
20
-37.456423144934362
42
-0.41421356237307422
10
104.13124999999995
20
-37.956423144934362
10
91.13124999999998
20
-37.956423144934362
42
-0.41421356237307422
10
90.631249999999937
20
-37.456423144934362
10
90.631249999999937
20
-24.456423144934352
42
-0.41421356237311585
10
91.13124999999998
20
-23.956423144934345
10
104.13124999999995
20
-23.95642314493438
42
-0.41421356237309503
0
LWPOLYLINE
5
103
100
AcDbEntity
8
0
100
AcDbPolyline
90
106
70
1
43
0.0
10
151.87500000000006
20
-57.406423144934365
10
151.87500000000003
20
57.406076855065642
42
0.41421356237309503
10
150.27500000000001
20
59.006076855065643
10
143.71291552526768
20
59.006076855065643
42
-0.19891236737967405
10
142.5815446753692
20
59.474706005167178
10
138.06966991410999
20
63.986580766426385
42
0.19891236737967258
10
137.53933982822016
20
64.206250680536513
10
135.34999999999994
20
64.206250680536513
42
0.41421356237314189
10
134.84999999999997
20
63.706250680536513
10
134.84999999999988
20
59.706076855065639
42
-0.99999999999999989
10
131.84999999999997
20
59.706076855065582
10
131.84999999999994
20
63.706076855065646
42
0.41421356237312623
10
131.34999999999994
20
64.206076855065646
10
129.16066017177971
20
64.206076855065646
42
0.19891236737969781
10
128.63033008588974
20
63.98640694095554
10
124.11862915010146
20
59.474706005167164
42
-0.19891236737966583
10
122.98725830020297
20
59.00607685506565
10
54.812915525267712
20
59.006076855065643
42
-0.19891236737965201
10
53.681544675369196
20
59.474706005167164
10
49.169669914110031
20
63.986580766426385
42
0.19891236737967111
10
48.639339828220059
20
64.206250680536513
10
46.449999999999946
20
64.206250680536513
42
0.41421356237314189
10
45.949999999999953
20
63.706250680536513
10
45.949999999999932
20
59.706076855065639
42
-0.99999999999999989
10
42.949999999999889
20
59.706076855065689
10
42.949999999999932
20
63.706076855065646
42
0.41421356237312623
10
42.449999999999918
20
64.206076855065646
10
40.260660171779691
20
64.206076855065646
42
0.19891236737971524
10
39.730330085889776
20
63.98640694095554
10
35.218629150101478
20
59.474706005167164
42
-0.19891236737965201
10
34.087258300202961
20
59.006076855065643
10
-34.087084474732251
20
59.006076855065636
42
-0.19891236737966503
10
-35.218455324630739
20
59.474706005167164
10
-39.730330085890003
20
63.986580766426435
42
0.19891236737967902
10
-40.260660171779946
20
64.206250680536527
10
-42.45000000000006
20
64.206250680536513
42
0.41421356237308982
10
-42.950000000000074
20
63.706250680536513
10
-42.950000000000074
20
59.706076855065646
42
-0.99999999999999989
10
-45.950000000000045
20
59.706076855065646
10
-45.950000000000074
20
63.706076855065646
42
0.41421356237307422
10
-46.450000000000067
20
64.20607685506566
10
-48.639339828220201
20
64.206076855065646
42
0.19891236737968956
10
-49.169669914110145
20
63.986406940955547
10
-53.681370849898556
20
59.474706005167157
42
-0.19891236737966123
10
-54.812741699797002
20
59.006076855065629
10
-122.98708447473226
20
59.006076855065636
42
-0.19891236737966297
10
-124.11845532463074
20
59.474706005167164
10
-128.63033008589002
20
63.986580766426414
42
0.19891236737966236
10
-129.16066017177994
20
64.206250680536513
10
-131.35000000000011
20
64.206250680536513
42
0.41421356237309503
10
-131.85000000000008
20
63.70625068053652
10
-131.85000000000008
20
59.706163777872838
42
-0.99999999999999989
10
-134.85000000000011
20
59.706163777872838
10
-134.85000000000008
20
63.706076855065646
42
0.41421356237309503
10
-135.35000000000008
20
64.206076855065646
10
-137.53933982822028
20
64.206076855065646
42
0.19891236737966234
10
-138.06966991411019
20
63.986406940955547
10
-142.58137084989855
20
59.474706005167157
42
-0.19891236737965304
10
-143.71274169979702
20
59.006076855065643
10
-150.27500000000006
20
59.006076855065643
42
0.41421356237309825
10
-151.87500000000006
20
57.406076855065642
10
-151.87500000000009
20
-57.406423144934365
42
0.41421356237308526
10
-150.27500000000006
20
-59.006423144934345
10
-115.14250274820058
20
-59.006423144934317
42
-0.19891236737965914
10
-114.01113189830212
20
-59.475052295035852
10
-109.49966991411019
20
-63.986514279227805
42
0.1989123673796257
10
-108.96933982822027
20
-64.20618419333789
10
-106.78000000000006
20
-64.206184193337862
42
0.41421356237309503
10
-106.28000000000006
20
-63.706184193337862
10
-106.28000000000006
20
-59.706184193337876
42
-0.99999999999999989
10
-103.28000000000004
20
-59.706184193337876
10
-103.28000000000004
20
-63.706250680536499
42
0.4142135623730846
10
-102.78000000000006
20
-64.206250680536513
10
-100.59066017177989
20
-64.206250680536513
42
0.19891236737965359
10
-100.06033008588999
20
-63.986580766426435
10
-95.548801614499425
20
-59.475052295035852
42
-0.19891236737966214
10
-94.417430764600937
20
-59.006423144934317
10
75.367497251799364
20
-59.006423144934331
42
-0.19891236737965592
10
76.498868101697909
20
-59.47505229503588
10
81.010330085889834
20
-63.986514279227734
42
0.19891236737966314
10
81.540660171779692
20
-64.206184193337862
10
83.729999999999919
20
-64.206184193337862
42
0.41421356237310542
10
84.229999999999905
20
-63.706184193337876
10
84.230000000000004
20
-59.706184193337876
42
-0.99999999999999989
10
87.229999999999976
20
-59.706184193337876
10
87.229999999999933
20
-63.706250680536499
42
0.41421356237313667
10
87.729999999999947
20
-64.206250680536513
10
89.919339828220203
20
-64.206250680536513
42
0.19891236737967763
10
90.449669914110032
20
-63.986580766426407
10
94.961198385500609
20
-59.475052295035873
42
-0.19891236737965223
10
96.092569235399083
20
-59.006423144934331
10
122.9874972517994
20
-59.006423144934331
42
-0.19891236737964035
10
124.11886810169788
20
-59.475052295035873
10
128.63033008588982
20
-63.986514279227734
42
0.19891236737966314
10
129.16066017177971
20
-64.206184193337862
10
131.34999999999994
20
-64.206184193337862
42
0.41421356237310542
10
131.84999999999991
20
-63.706184193337876
10
131.84999999999999
20
-59.706184193337876
42
-0.99999999999999989
10
134.84999999999997
20
-59.706184193337876
10
134.84999999999994
20
-63.706250680536499
42
0.41421356237313667
10
135.34999999999994
20
-64.206250680536513
10
137.53933982822016
20
-64.206250680536513
42
0.19891236737959425
10
138.06966991411008
20
-63.986580766426435
10
142.58119838550061
20
-59.475052295035852
42
-0.1989123673796564
10
143.71256923539906
20
-59.006423144934317
10
150.27500000000001
20
-59.006423144934331
42
0.41421356237310802
0
LWPOLYLINE
5
104
100
AcDbEntity
8
0
100
AcDbPolyline
90
8
70
1
43
0.0
10
-55.175000000000068
20
-51.006423144934359
42
0.41421356237311585
10
-54.675000000000047
20
-51.506423144934352
10
-25.025000000000066
20
-51.506423144934331
42
0.41421356237311585
10
-24.525000000000059
20
-51.006423144934359
10
-24.525000000000059
20
-49.006423144934331
42
0.41421356237310542
10
-25.025000000000066
20
-48.506423144934359
10
-54.675000000000047
20
-48.506423144934345
42
0.41421356237304302
10
-55.175000000000068
20
-49.006423144934331
0
LWPOLYLINE
5
105
100
AcDbEntity
8
0
100
AcDbPolyline
90
8
70
1
43
0.0
10
5.9749999999999659
20
-48.506423144934359
10
35.624999999999986
20
-48.506423144934359
42
-0.41421356237312623
10
36.124999999999986
20
-49.006423144934352
10
36.124999999999957
20
-51.006423144934359
42
-0.41421356237309503
10
35.624999999999986
20
-51.506423144934331
10
5.9749999999999659
20
-51.506423144934352
42
-0.41421356237311585
10
5.474999999999941
20
-51.006423144934359
10
5.474999999999941
20
-49.006423144934331
42
-0.4142135623730846
0
LWPOLYLINE
5
106
100
AcDbEntity
8
0
100
AcDbPolyline
90
8
70
1
43
0.0
10
-16.025000000000063
20
-43.006423144934338
42
0.41421356237307422
10
-16.52500000000007
20
-43.506423144934345
10
-16.52500000000007
20
-56.506423144934374
42
0.41421356237304302
10
-16.02500000000008
20
-57.006423144934374
10
-3.0250000000000732
20
-57.006423144934359
42
0.4142135623730846
10
-2.5250000000000661
20
-56.506423144934331
10
-2.5250000000000661
20
-43.506423144934359
42
0.41421356237309503
10
-3.0250000000000732
20
-43.006423144934359
0
LWPOLYLINE
5
107
100
AcDbEntity
8
0
100
AcDbPolyline
90
8
70
1
43
0.0
10
-70.175000000000097
20
-56.506423144934352
42
0.41421356237309503
10
-69.67500000000004
20
-57.006423144934359
10
-63.675000000000082
20
-57.006423144934359
42
0.41421356237315748
10
-63.175000000000111
20
-56.506423144934331
10
-63.175000000000097
20
-42.506423144934345
42
0.41421356237312623
10
-63.675000000000054
20
-42.006423144934374
10
-69.67500000000004
20
-42.006423144934324
42
0.41421356237310542
10
-70.175000000000068
20
-42.506423144934345
0
LWPOLYLINE
5
108
100
AcDbEntity
8
0
100
AcDbPolyline
90
4
70
1
43
0.0
10
81.980000000000018
20
-59.706184193337833
10
78.979999999999947
20
-59.706184193337876
42
-0.99999999999999989
10
78.980000000000018
20
-58.20618419333789
10
81.979999999999947
20
-58.206184193337918
42
-0.99999999999999989
0
LWPOLYLINE
5
109
100
AcDbEntity
8
0
100
AcDbPolyline
90
4
70
1
43
0.0
10
126.60000000000002
20
59.706076855065653
42
0.99999999999999989
10
126.59999999999995
20
58.206076855065653
10
129.59999999999997
20
58.206076855065653
42
0.99999999999999989
10
129.59999999999997
20
59.706076855065646
0
LWPOLYLINE
5
110
100
AcDbEntity
8
0
100
AcDbPolyline
90
4
70
1
43
0.0
10
-40.70000000000006
20
59.706076855065653
42
0.99999999999999989
10
-40.70000000000006
20
58.206076855065653
10
-37.700000000000045
20
58.206076855065653
42
0.99999999999999989
10
-37.700000000000088
20
59.70607685506566
0
LWPOLYLINE
5
111
100
AcDbEntity
8
0
100
AcDbPolyline
90
4
70
1
43
0.0
10
51.199999999999918
20
58.206076855065646
10
48.199999999999946
20
58.206076855065653
42
-0.99999999999999989
10
48.199999999999946
20
59.706076855065653
10
51.199999999999918
20
59.70607685506566
42
-0.99999999999999989
0
LWPOLYLINE
5
112
100
AcDbEntity
8
0
100
AcDbPolyline
90
4
70
1
43
0.0
10
137.09999999999988
20
-58.20618419333789
42
0.99999999999999989
10
137.09999999999997
20
-59.706184193337876
10
140.09999999999999
20
-59.706184193337876
42
0.99999999999999989
10
140.09999999999994
20
-58.206184193337847
0
LWPOLYLINE
5
113
100
AcDbEntity
8
0
100
AcDbPolyline
90
4
70
1
43
0.0
10
-98.030000000000058
20
-59.706184193337833
10
-101.03000000000006
20
-59.706184193337876
42
-0.99999999999999989
10
-101.03000000000006
20
-58.20618419333789
10
-98.03000000000003
20
-58.206184193337918
42
-0.99999999999999989
0
LWPOLYLINE
5
114
100
AcDbEntity
8
0
100
AcDbPolyline
90
4
70
1
43
0.0
10
92.47999999999999
20
-59.706184193337833
10
89.479999999999947
20
-59.706184193337876
42
-0.99999999999999989
10
89.479999999999876
20
-58.20618419333789
10
92.479999999999919
20
-58.206184193337918
42
-0.99999999999999989
0
LWPOLYLINE
5
115
100
AcDbEntity
8
0
100
AcDbPolyline
90
4
70
1
43
0.0
10
137.09999999999997
20
59.706076855065646
10
140.09999999999994
20
59.706076855065653
42
-0.99999999999999989
10
140.09999999999994
20
58.206076855065653
10
137.09999999999997
20
58.20607685506566
42
-0.99999999999999989
0
LWPOLYLINE
5
116
100
AcDbEntity
8
0
100
AcDbPolyline
90
4
70
1
43
0.0
10
-51.199999999999989
20
59.70607685506566
10
-48.20000000000006
20
59.706076855065653
42
-0.99999999999999989
10
-48.20000000000006
20
58.206076855065653
10
-51.200000000000102
20
58.206076855065646
42
-0.99999999999999989
0
LWPOLYLINE
5
117
100
AcDbEntity
8
0
100
AcDbPolyline
90
4
70
1
43
0.0
10
40.699999999999946
20
58.206076855065646
10
37.700000000000017
20
58.206076855065653
42
-0.99999999999999989
10
37.699999999999946
20
59.706076855065653
10
40.699999999999946
20
59.70607685506566
42
-0.99999999999999989
0
LWPOLYLINE
5
118
100
AcDbEntity
8
0
100
AcDbPolyline
90
4
70
1
43
0.0
10
129.60000000000002
20
-59.706184193337876
42
0.99999999999999989
10
129.59999999999997
20
-58.20618419333789
10
126.60000000000002
20
-58.20618419333789
42
0.99999999999999989
10
126.59999999999995
20
-59.706184193337833
0
LWPOLYLINE
5
119
100
AcDbEntity
8
0
100
AcDbPolyline
90
4
70
1
43
0.0
10
-108.53000000000003
20
-59.706184193337833
10
-111.53000000000006
20
-59.706184193337876
42
-0.99999999999999989
10
-111.53000000000006
20
-58.20618419333789
10
-108.53000000000007
20
-58.206184193337918
42
-0.99999999999999989
0
LWPOLYLINE
5
120
100
AcDbEntity
8
0
100
AcDbPolyline
90
8
70
1
43
0.0
10
49.862499999999912
20
56.506076855065643
42
0.41421356237314705
10
49.362499999999926
20
57.00607685506565
10
36.362499999999912
20
57.006076855065629
42
0.41421356237312623
10
35.862499999999912
20
56.506076855065643
10
35.862499999999883
20
43.506076855065643
42
0.41421356237312101
10
36.362499999999912
20
43.006076855065643
10
49.362499999999926
20
43.006076855065629
42
0.41421356237310542
10
49.862499999999926
20
43.506076855065658
0
LWPOLYLINE
5
121
100
AcDbEntity
8
0
100
AcDbPolyline
90
8
70
1
43
0.0
10
50.624999999999986
20
-57.006423144934345
42
0.41421356237309503
10
51.124999999999986
20
-56.506423144934331
10
51.124999999999972
20
-42.506423144934345
42
0.41421356237313667
10
50.624999999999986
20
-42.006423144934374
10
44.624999999999929
20
-42.006423144934345
42
0.41421356237307422
10
44.124999999999957
20
-42.506423144934345
10
44.124999999999957
20
-56.506423144934331
42
0.41421356237309503
10
44.624999999999929
20
-57.006423144934303
0
LWPOLYLINE
5
122
100
AcDbEntity
8
0
100
AcDbPolyline
90
8
70
1
43
0.0
10
-131.61250000000007
20
-57.006423144934359
42
0.41421356237307422
10
-131.11250000000007
20
-56.506423144934352
10
-131.11250000000007
20
-43.506423144934381
42
0.41421356237311585
10
-131.61250000000007
20
-43.006423144934359
10
-144.61250000000007
20
-43.006423144934359
42
0.41421356237309503
10
-145.1125000000001
20
-43.506423144934359
10
-145.11250000000007
20
-56.506423144934352
42
0.41421356237306384
10
-144.6125000000001
20
-57.006423144934374
0
LWPOLYLINE
5
123
100
AcDbEntity
8
0
100
AcDbPolyline
90
8
70
1
43
0.0
10
-120.80000000000007
20
-43.006423144934359
42
0.41421356237309503
10
-121.30000000000008
20
-43.506423144934359
10
-121.30000000000008
20
-56.506423144934352
42
0.41421356237307422
10
-120.80000000000007
20
-57.006423144934374
10
-107.80000000000007
20
-57.006423144934359
42
0.4142135623730846
10
-107.30000000000005
20
-56.506423144934331
10
-107.30000000000007
20
-43.506423144934359
42
0.4142135623730846
10
-107.80000000000007
20
-43.006423144934359
0
LWPOLYLINE
5
124
100
AcDbEntity
8
0
100
AcDbPolyline
90
8
70
1
43
0.0
10
-96.987500000000068
20
-43.006423144934367
42
0.41421356237309503
10
-97.487500000000082
20
-43.506423144934359
10
-97.487500000000068
20
-56.506423144934374
42
0.41421356237306384
10
-96.987500000000054
20
-57.006423144934374
10
-83.987500000000068
20
-57.006423144934374
42
0.41421356237307422
10
-83.48750000000004
20
-56.506423144934331
10
-83.487500000000082
20
-43.506423144934359
42
0.41421356237309503
10
-83.987500000000082
20
-43.006423144934359
0
LWPOLYLINE
5
125
100
AcDbEntity
8
0
100
AcDbPolyline
90
8
70
1
43
0.0
10
126.85674999999995
20
-19.906423144934369
10
120.85674999999996
20
-19.906423144934386
42
-0.41421356237312623
10
120.35674999999995
20
-19.406423144934379
10
120.35674999999996
20
-4.4064231449343616
42
-0.41421356237313667
10
120.85674999999996
20
-3.9064231449343545
10
126.85674999999995
20
-3.9064231449343723
42
-0.41421356237314705
10
127.35674999999993
20
-4.4064231449343794
10
127.35674999999995
20
-19.406423144934362
42
-0.41421356237309503
0
LWPOLYLINE
5
126
100
AcDbEntity
8
0
100
AcDbPolyline
90
8
70
1
43
0.0
10
102.98074999999999
20
-19.906423144934404
10
96.980749999999944
20
-19.906423144934351
42
-0.41421356237314705
10
96.480749999999944
20
-19.406423144934344
10
96.480749999999929
20
-4.4064231449343616
42
-0.41421356237309503
10
96.980749999999944
20
-3.9064231449343545
10
102.98074999999997
20
-3.9064231449344078
42
-0.41421356237310025
10
103.48074999999994
20
-4.4064231449343705
10
103.48074999999996
20
-19.406423144934362
42
-0.4142135623730534
0
LWPOLYLINE
5
127
100
AcDbEntity
8
0
100
AcDbPolyline
90
8
70
1
43
0.0
10
104.91874999999996
20
-18.406423144934358
42
0.41421356237311063
10
105.41874999999996
20
-18.906423144934372
10
118.41874999999999
20
-18.906423144934354
42
0.41421356237312623
10
118.91874999999997
20
-18.406423144934347
10
118.91874999999996
20
-5.406423144934358
42
0.4142135623730222
10
118.41874999999996
20
-4.9064231449343687
10
105.41874999999993
20
-4.9064231449343332
42
0.4142135623730846
10
104.91874999999995
20
-5.4064231449343403
0
LWPOLYLINE
5
128
100
AcDbEntity
8
0
100
AcDbPolyline
90
8
70
1
43
0.0
10
149.87499999999991
20
32.693576855065643
10
149.87499999999991
20
19.69357685506564
42
-0.41421356237303258
10
149.37499999999994
20
19.19357685506565
10
136.37499999999991
20
19.193576855065686
42
-0.41421356237310281
10
135.87499999999994
20
19.693576855065654
10
135.87499999999994
20
32.693576855065643
42
-0.41421356237307422
10
136.37499999999991
20
33.193576855065658
10
149.37499999999991
20
33.193576855065672
42
-0.41421356237314705
0
LWPOLYLINE
5
129
100
AcDbEntity
8
0
100
AcDbPolyline
90
8
70
1
43
0.0
10
129.73799999999991
20
33.693576855065629
10
129.73799999999991
20
18.693576855065626
42
-0.41421356237307422
10
129.23799999999989
20
18.193576855065619
10
123.23799999999997
20
18.193576855065636
42
-0.4142135623730846
10
122.73799999999994
20
18.693576855065643
10
122.73799999999993
20
33.693576855065643
42
-0.41421356237307422
10
123.23799999999997
20
34.19357685506565
10
129.23800000000003
20
34.193576855065601
42
-0.41421356237309503
0
LWPOLYLINE
5
130
100
AcDbEntity
8
0
100
AcDbPolyline
90
8
70
1
43
0.0
10
105.36200000000001
20
18.193576855065636
42
0.41421356237312101
10
105.86199999999999
20
18.693576855065636
10
105.86199999999994
20
33.693576855065672
42
0.41421356237306639
10
105.36199999999999
20
34.19357685506565
10
99.361999999999924
20
34.193576855065629
42
0.41421356237311585
10
98.861999999999938
20
33.693576855065643
10
98.86199999999991
20
18.693576855065661
42
0.41421356237312623
10
99.361999999999938
20
18.193576855065654
0
LWPOLYLINE
5
131
100
AcDbEntity
8
0
100
AcDbPolyline
90
8
70
1
43
0.0
10
-122.53075000000007
20
-38.456423144934377
42
0.41421356237311585
10
-122.03075000000007
20
-38.956423144934398
10
-116.03075000000007
20
-38.956423144934362
42
0.4142135623730846
10
-115.53075000000005
20
-38.456423144934334
10
-115.53075000000007
20
-23.456423144934391
42
0.41421356237306384
10
-116.03075000000005
20
-22.956423144934366
10
-122.03075000000007
20
-22.95642314493438
42
0.41421356237311585
10
-122.53075000000008
20
-23.456423144934337
0
LWPOLYLINE
5
132
100
AcDbEntity
8
0
100
AcDbPolyline
90
8
70
1
43
0.0
10
-139.90675000000007
20
-38.956423144934362
42
0.41421356237307422
10
-139.40675000000007
20
-38.456423144934355
10
-139.40675000000007
20
-23.456423144934391
42
0.41421356237307422
10
-139.90675000000007
20
-22.956423144934366
10
-145.90675000000007
20
-22.95642314493438
42
0.41421356237311585
10
-146.40675000000007
20
-23.456423144934337
10
-146.40675000000007
20
-38.45642314493432
42
0.41421356237311585
10
-145.90675000000007
20
-38.956423144934348
0
LWPOLYLINE
5
133
100
AcDbEntity
8
0
100
AcDbPolyline
90
8
70
1
43
0.0
10
-137.96875000000006
20
-37.456423144934362
10
-137.96875000000006
20
-24.456423144934352
42
-0.41421356237310542
10
-137.46875000000009
20
-23.956423144934391
10
-124.46875000000007
20
-23.956423144934345
42
-0.4142135623730846
10
-123.96875000000006
20
-24.456423144934316
10
-123.96875000000007
20
-37.456423144934362
42
-0.41421356237312623
10
-124.46875000000007
20
-37.956423144934384
10
-137.46875000000009
20
-37.956423144934384
42
-0.41421356237310542
0
LWPOLYLINE
5
134
100
AcDbEntity
8
0
100
AcDbPolyline
90
8
70
1
43
0.0
10
120.79999999999993
20
19.19357685506565
10
107.79999999999993
20
19.19357685506565
42
-0.41421356237313667
10
107.29999999999993
20
19.69357685506564
10
107.29999999999991
20
32.693576855065643
42
-0.4142135623730846
10
107.7999999999999
20
33.193576855065658
10
120.79999999999991
20
33.193576855065636
42
-0.41421356237310025
10
121.29999999999993
20
32.693576855065636
10
121.29999999999994
20
19.69357685506564
42
-0.41421356237312623
0
LWPOLYLINE
5
135
100
AcDbEntity
8
0
100
AcDbPolyline
90
8
70
1
43
0.0
10
-128.73125000000005
20
-5.4064231449343403
42
0.41421356237309503
10
-129.23125000000005
20
-4.9064231449343421
10
-146.99125000000004
20
-4.9064231449343367
42
0.41421356237310542
10
-147.49125000000009
20
-5.4064231449343403
10
-147.49125000000004
20
-18.406423144934401
42
0.41421356237309503
10
-146.99125000000004
20
-18.906423144934354
10
-129.23125000000007
20
-18.906423144934369
42
0.4142135623730846
10
-128.73125000000007
20
-18.406423144934347
0
LWPOLYLINE
5
136
100
AcDbEntity
8
0
100
AcDbPolyline
90
8
70
1
43
0.0
10
135.87500000000003
20
43.506076855065643
42
0.41421356237312101
10
136.37500000000006
20
43.006076855065643
10
149.37500000000003
20
43.006076855065665
42
0.41421356237312623
10
149.87500000000003
20
43.506076855065658
10
149.875
20
56.50607685506565
42
0.41421356237310025
10
149.37500000000003
20
57.00607685506565
10
136.37500000000006
20
57.006076855065629
42
0.41421356237311585
10
135.87500000000003
20
56.506076855065658
0
LWPOLYLINE
5
137
100
AcDbEntity
8
0
100
AcDbPolyline
90
8
70
1
43
0.0
10
-135.87500000000009
20
56.506076855065643
10
-135.87500000000009
20
43.506076855065658
42
-0.41421356237309503
10
-136.37500000000009
20
43.006076855065658
10
-149.37500000000009
20
43.006076855065643
42
-0.4142135623730846
10
-149.87500000000009
20
43.506076855065658
10
-149.87500000000009
20
56.506076855065643
42
-0.41421356237309503
10
-149.37500000000006
20
57.00607685506565
10
-136.37500000000009
20
57.006076855065629
42
-0.41421356237310542
0
LWPOLYLINE
5
138
100
AcDbEntity
8
0
100
AcDbPolyline
90
8
70
1
43
0.0
10
-125.56250000000007
20
57.00607685506565
10
-112.56250000000009
20
57.00607685506565
42
-0.41421356237308982
10
-112.06250000000006
20
56.50607685506565
10
-112.06250000000009
20
43.506076855065658
42
-0.41421356237310542
10
-112.56250000000007
20
43.006076855065643
10
-125.56250000000007
20
43.006076855065643
42
-0.41421356237309503
10
-126.06250000000006
20
43.506076855065636
10
-126.06250000000009
20
56.506076855065643
42
-0.41421356237309503
0
LWPOLYLINE
5
139
100
AcDbEntity
8
0
100
AcDbPolyline
90
8
70
1
43
0.0
10
-93.012500000000045
20
56.506076855065643
42
0.41421356237310542
10
-93.512500000000045
20
57.006076855065643
10
-106.51250000000007
20
57.006076855065643
42
0.41421356237309503
10
-107.01250000000007
20
56.506076855065643
10
-107.01250000000005
20
43.506076855065636
42
0.41421356237307422
10
-106.51250000000006
20
43.006076855065643
10
-93.51250000000006
20
43.006076855065643
42
0.41421356237310542
10
-93.012500000000045
20
43.506076855065658
0
LWPOLYLINE
5
140
100
AcDbEntity
8
0
100
AcDbPolyline
90
8
70
1
43
0.0
10
-74.462500000000077
20
43.006076855065658
42
0.41421356237310025
10
-73.962500000000077
20
43.506076855065665
10
-73.962500000000077
20
56.506076855065643
42
0.41421356237307944
10
-74.462500000000077
20
57.00607685506565
10
-87.462500000000063
20
57.00607685506565
42
0.41421356237309503
10
-87.962500000000063
20
56.506076855065643
10
-87.962500000000063
20
43.506076855065636
42
0.41421356237310542
10
-87.462500000000048
20
43.006076855065643
0
LWPOLYLINE
5
141
100
AcDbEntity
8
0
100
AcDbPolyline
90
8
70
1
43
0.0
10
-68.412500000000094
20
57.00607685506565
42
0.41421356237308982
10
-68.91250000000008
20
56.506076855065636
10
-68.912500000000051
20
43.506076855065643
42
0.41421356237305862
10
-68.412500000000108
20
43.006076855065643
10
-55.412500000000065
20
43.006076855065643
42
0.41421356237309503
10
-54.912500000000065
20
43.506076855065658
10
-54.912500000000065
20
56.506076855065643
42
0.41421356237309503
10
-55.412500000000065
20
57.00607685506565
0
LWPOLYLINE
5
142
100
AcDbEntity
8
0
100
AcDbPolyline
90
8
70
1
43
0.0
10
-31.100000000000065
20
56.506076855065643
42
0.41421356237307422
10
-31.600000000000072
20
57.00607685506565
10
-44.600000000000065
20
57.00607685506565
42
0.41421356237309503
10
-45.100000000000065
20
56.506076855065643
10
-45.100000000000065
20
43.506076855065636
42
0.41421356237309503
10
-44.600000000000065
20
43.006076855065643
10
-31.600000000000055
20
43.006076855065643
42
0.41421356237307422
10
-31.100000000000083
20
43.506076855065658
0
LWPOLYLINE
5
143
100
AcDbEntity
8
0
100
AcDbPolyline
90
8
70
1
43
0.0
10
-25.550000000000086
20
57.00607685506565
10
-12.550000000000079
20
57.00607685506565
42
-0.41421356237309503
10
-12.050000000000072
20
56.506076855065643
10
-12.050000000000072
20
43.506076855065658
42
-0.41421356237309503
10
-12.550000000000079
20
43.006076855065643
10
-25.550000000000086
20
43.006076855065629
42
-0.41421356237306384
10
-26.050000000000075
20
43.506076855065636
10
-26.050000000000075
20
56.506076855065643
42
-0.41421356237306384
0
LWPOLYLINE
5
144
100
AcDbEntity
8
0
100
AcDbPolyline
90
8
70
1
43
0.0
10
-7.0000000000000622
20
43.506076855065636
42
0.41421356237307422
10
-6.5000000000000568
20
43.006076855065629
10
6.4999999999999325
20
43.006076855065643
42
0.41421356237309503
10
6.9999999999999396
20
43.506076855065658
10
6.9999999999999405
20
56.506076855065643
42
0.41421356237309503
10
6.4999999999999325
20
57.00607685506565
10
-6.5000000000000568
20
57.00607685506565
42
0.41421356237307422
10
-7.0000000000000639
20
56.506076855065643
0
LWPOLYLINE
5
145
100
AcDbEntity
8
0
100
AcDbPolyline
90
8
70
1
43
0.0
10
12.04999999999993
20
43.506076855065658
10
12.04999999999993
20
56.506076855065643
42
-0.41421356237307422
10
12.549999999999972
20
57.00607685506565
10
25.549999999999908
20
57.00607685506565
42
-0.41421356237314705
10
26.049999999999901
20
56.506076855065643
10
26.049999999999915
20
43.506076855065658
42
-0.41421356237310542
10
25.549999999999908
20
43.006076855065629
10
12.549999999999972
20
43.006076855065643
42
-0.41421356237307422
0
LWPOLYLINE
5
146
100
AcDbEntity
8
0
100
AcDbPolyline
90
8
70
1
43
0.0
10
55.412499999999923
20
57.006076855065686
42
0.4142135623730534
10
54.912499999999952
20
56.506076855065643
10
54.912499999999952
20
43.506076855065636
42
0.41421356237309503
10
55.412499999999923
20
43.006076855065686
10
68.412499999999937
20
43.006076855065629
42
0.41421356237310542
10
68.912499999999937
20
43.506076855065658
10
68.912499999999923
20
56.506076855065643
42
0.41421356237314705
10
68.412499999999937
20
57.00607685506565
0
LWPOLYLINE
5
147
100
AcDbEntity
8
0
100
AcDbPolyline
90
8
70
1
43
0.0
10
73.962499999999963
20
43.506076855065658
10
73.962499999999963
20
56.506076855065643
42
-0.4142135623730534
10
74.462499999999935
20
57.006076855065686
10
87.462499999999949
20
57.00607685506565
42
-0.41421356237314705
10
87.962499999999935
20
56.506076855065643
10
87.962499999999949
20
43.506076855065658
42
-0.41421356237310542
10
87.462499999999949
20
43.006076855065629
10
74.462499999999935
20
43.006076855065665
42
-0.41421356237310542
0
LWPOLYLINE
5
148
100
AcDbEntity
8
0
100
AcDbPolyline
90
8
70
1
43
0.0
10
93.012499999999932
20
43.506076855065643
42
0.41421356237312101
10
93.512499999999946
20
43.006076855065643
10
106.51249999999996
20
43.006076855065629
42
0.41421356237310542
10
107.01249999999996
20
43.506076855065658
10
107.01249999999995
20
56.506076855065643
42
0.41421356237314705
10
106.51249999999996
20
57.00607685506565
10
93.512499999999946
20
57.006076855065629
42
0.41421356237312623
10
93.012499999999946
20
56.506076855065643
0
LWPOLYLINE
5
149
100
AcDbEntity
8
0
100
AcDbPolyline
90
8
70
1
43
0.0
10
130.82499999999996
20
56.506076855065643
42
0.41421356237314705
10
130.32499999999996
20
57.00607685506565
10
117.32499999999996
20
57.006076855065629
42
0.41421356237312623
10
116.82499999999996
20
56.506076855065643
10
116.82499999999993
20
43.506076855065643
42
0.41421356237312101
10
117.32499999999996
20
43.006076855065643
10
130.32499999999996
20
43.006076855065629
42
0.41421356237310542
10
130.82499999999999
20
43.506076855065658
0
LWPOLYLINE
5
150
100
AcDbEntity
8
0
100
AcDbPolyline
90
8
70
1
43
0.0
10
-135.87500000000009
20
32.693576855065643
10
-135.87500000000009
20
19.69357685506564
42
-0.4142135623730846
10
-136.37500000000006
20
19.193576855065633
10
-149.37500000000009
20
19.193576855065633
42
-0.41421356237308721
10
-149.87500000000009
20
19.693576855065643
10
-149.87500000000009
20
32.693576855065643
42
-0.41421356237309503
10
-149.37500000000006
20
33.193576855065658
10
-136.37500000000009
20
33.193576855065636
42
-0.41421356237310542
0
LWPOLYLINE
5
151
100
AcDbEntity
8
0
100
AcDbPolyline
90
8
70
1
43
0.0
10
-117.32500000000007
20
19.193576855065633
10
-130.32500000000005
20
19.19357685506565
42
-0.41421356237307944
10
-130.82500000000007
20
19.69357685506565
10
-130.82500000000007
20
32.693576855065643
42
-0.41421356237309503
10
-130.32500000000007
20
33.193576855065658
10
-117.32500000000007
20
33.193576855065658
42
-0.41421356237309243
10
-116.82500000000006
20
32.69357685506565
10
-116.82500000000006
20
19.69357685506564
42
-0.41421356237309503
0
LWPOLYLINE
5
152
100
AcDbEntity
8
0
100
AcDbPolyline
90
8
70
1
43
0.0
10
-111.27500000000006
20
33.193576855065658
10
-98.275000000000063
20
33.193576855065636
42
-0.41421356237311585
10
-97.775000000000063
20
32.693576855065643
10
-97.775000000000063
20
19.69357685506564
42
-0.4142135623730846
10
-98.275000000000063
20
19.193576855065622
10
-111.27500000000005
20
19.19357685506565
42
-0.41421356237310025
10
-111.77500000000009
20
19.69357685506565
10
-111.77500000000009
20
32.693576855065643
42
-0.41421356237310542
0
LWPOLYLINE
5
153
100
AcDbEntity
8
0
100
AcDbPolyline
90
8
70
1
43
0.0
10
-92.22500000000008
20
33.193576855065658
42
0.41421356237309764
10
-92.72500000000008
20
32.693576855065643
10
-92.72500000000008
20
19.693576855065636
42
0.41421356237310281
10
-92.225000000000051
20
19.19357685506565
10
-79.22500000000008
20
19.193576855065633
42
0.41421356237308982
10
-78.72500000000008
20
19.69357685506564
10
-78.725000000000094
20
32.693576855065643
42
0.41421356237309764
10
-79.22500000000008
20
33.193576855065658
0
LWPOLYLINE
5
154
100
AcDbEntity
8
0
100
AcDbPolyline
90
8
70
1
43
0.0
10
-73.675000000000082
20
19.69357685506565
42
0.41421356237308982
10
-73.175000000000082
20
19.193576855065654
10
-60.175000000000068
20
19.193576855065633
42
0.41421356237310542
10
-59.675000000000026
20
19.69357685506564
10
-59.675000000000082
20
32.69357685506565
42
0.41421356237311324
10
-60.175000000000068
20
33.193576855065636
10
-73.175000000000082
20
33.193576855065658
42
0.41421356237308982
10
-73.675000000000082
20
32.693576855065643
0
LWPOLYLINE
5
155
100
AcDbEntity
8
0
100
AcDbPolyline
90
8
70
1
43
0.0
10
-54.625000000000043
20
19.69357685506564
42
0.4142135623730846
10
-54.125000000000071
20
19.193576855065647
10
-41.125000000000057
20
19.193576855065633
42
0.41421356237309503
10
-40.625000000000057
20
19.69357685506564
10
-40.625000000000057
20
32.69357685506565
42
0.41421356237309243
10
-41.125000000000057
20
33.193576855065658
10
-54.125000000000071
20
33.193576855065636
42
0.41421356237311585
10
-54.625000000000071
20
32.693576855065643
0
LWPOLYLINE
5
156
100
AcDbEntity
8
0
100
AcDbPolyline
90
8
70
1
43
0.0
10
-35.575000000000045
20
19.693576855065643
42
0.41421356237310802
10
-35.07500000000006
20
19.193576855065633
10
-22.075000000000085
20
19.193576855065633
42
0.41421356237309503
10
-21.575000000000077
20
19.69357685506564
10
-21.575000000000074
20
32.69357685506565
42
0.41421356237309243
10
-22.075000000000085
20
33.193576855065658
10
-35.07500000000006
20
33.193576855065636
42
0.41421356237311585
10
-35.57500000000006
20
32.693576855065643
0
LWPOLYLINE
5
157
100
AcDbEntity
8
0
100
AcDbPolyline
90
8
70
1
43
0.0
10
-16.02500000000008
20
33.193576855065658
10
-3.0250000000000732
20
33.193576855065658
42
-0.41421356237309243
10
-2.5250000000000616
20
32.69357685506565
10
-2.5250000000000661
20
19.69357685506564
42
-0.41421356237309503
10
-3.0250000000000732
20
19.193576855065633
10
-16.02500000000008
20
19.193576855065643
42
-0.41421356237305079
10
-16.525000000000063
20
19.693576855065654
10
-16.52500000000007
20
32.693576855065643
42
-0.41421356237306384
0
LWPOLYLINE
5
158
100
AcDbEntity
8
0
100
AcDbPolyline
90
8
70
1
43
0.0
10
3.0249999999999488
20
33.193576855065658
42
0.41421356237307161
10
2.5249999999999417
20
32.69357685506565
10
2.5249999999999506
20
19.693576855065654
42
0.41421356237306123
10
3.0249999999999488
20
19.193576855065633
10
16.024999999999938
20
19.19357685506565
42
0.41421356237312623
10
16.524999999999945
20
19.69357685506564
10
16.524999999999935
20
32.693576855065636
42
0.41421356237310025
10
16.024999999999938
20
33.193576855065658
0
LWPOLYLINE
5
159
100
AcDbEntity
8
0
100
AcDbPolyline
90
8
70
1
43
0.0
10
35.074999999999918
20
19.19357685506565
10
22.074999999999978
20
19.193576855065629
42
-0.41421356237301177
10
21.574999999999967
20
19.69357685506564
10
21.574999999999971
20
32.693576855065643
42
-0.41421356237309503
10
22.074999999999978
20
33.193576855065658
10
35.074999999999918
20
33.193576855065658
42
-0.41421356237314444
10
35.57499999999991
20
32.69357685506565
10
35.574999999999918
20
19.69357685506564
42
-0.41421356237304302
0
LWPOLYLINE
5
160
100
AcDbEntity
8
0
100
AcDbPolyline
90
8
70
1
43
0.0
10
41.124999999999986
20
33.193576855065658
42
0.41421356237310025
10
40.624999999999986
20
32.693576855065636
10
40.624999999999986
20
19.69357685506564
42
0.41421356237301177
10
41.124999999999986
20
19.193576855065633
10
54.124999999999957
20
19.19357685506565
42
0.41421356237312623
10
54.624999999999972
20
19.69357685506564
10
54.624999999999929
20
32.69357685506565
42
0.41421356237309243
10
54.124999999999957
20
33.193576855065615
0
LWPOLYLINE
5
161
100
AcDbEntity
8
0
100
AcDbPolyline
90
8
70
1
43
0.0
10
59.674999999999926
20
19.69357685506564
42
0.41421356237301177
10
60.174999999999926
20
19.193576855065629
10
73.17499999999994
20
19.19357685506565
42
0.41421356237304302
10
73.67499999999994
20
19.69357685506564
10
73.674999999999926
20
32.69357685506565
42
0.41421356237314444
10
73.17499999999994
20
33.193576855065658
10
60.174999999999926
20
33.193576855065658
42
0.41421356237309503
10
59.674999999999926
20
32.693576855065643
0
LWPOLYLINE
5
162
100
AcDbEntity
8
0
100
AcDbPolyline
90
8
70
1
43
0.0
10
92.724999999999937
20
32.693576855065643
42
0.4142135623730846
10
92.22499999999998
20
33.193576855065658
10
79.224999999999937
20
33.193576855065658
42
0.41421356237309503
10
78.724999999999937
20
32.693576855065643
10
78.724999999999937
20
19.69357685506564
42
0.41421356237301177
10
79.224999999999937
20
19.193576855065633
10
92.22499999999998
20
19.193576855065597
42
0.4142135623730534
10
92.724999999999952
20
19.69357685506564
0
LWPOLYLINE
5
163
100
AcDbEntity
8
0
100
AcDbPolyline
90
8
70
1
43
0.0
10
-131.61250000000007
20
0.14357685506564799
42
0.41421356237310025
10
-131.1125000000001
20
0.64357685506563733
10
-131.11250000000007
20
13.643576855065653
42
0.41421356237310542
10
-131.61250000000007
20
14.143576855065643
10
-144.61250000000007
20
14.143576855065652
42
0.4142135623730846
10
-145.11250000000007
20
13.643576855065636
10
-145.11250000000007
20
0.64357685506562845
42
0.41421356237309503
10
-144.6125000000001
20
0.14357685506563911
0
LWPOLYLINE
5
164
100
AcDbEntity
8
0
100
AcDbPolyline
90
8
70
1
43
0.0
10
125.56249999999993
20
0.14357685506562134
10
112.56249999999993
20
0.14357685506562134
42
-0.41421356237314705
10
112.06249999999994
20
0.64357685506562845
10
112.06249999999991
20
13.643576855065636
42
-0.41421356237309503
10
112.56249999999989
20
14.143576855065678
10
125.56249999999991
20
14.143576855065607
42
-0.41421356237310025
10
126.06249999999989
20
13.643576855065644
10
126.06249999999997
20
0.64357685506562845
42
-0.41421356237307422
0
LWPOLYLINE
5
165
100
AcDbEntity
8
0
100
AcDbPolyline
90
8
70
1
43
0.0
10
149.87499999999991
20
13.643576855065636
10
149.87499999999991
20
0.64357685506562845
42
-0.41421356237310542
10
149.37499999999994
20
0.14357685506565687
10
136.37499999999991
20
0.14357685506567464
42
-0.41421356237310025
10
135.87499999999994
20
0.64357685506563733
10
135.87499999999994
20
13.643576855065636
42
-0.41421356237304302
10
136.37499999999989
20
14.143576855065678
10
149.37499999999991
20
14.143576855065643
42
-0.41421356237313667
0
LWPOLYLINE
5
166
100
AcDbEntity
8
0
100
AcDbPolyline
90
8
70
1
43
0.0
10
149.87499999999989
20
-5.4064231449343492
42
0.41421356237314189
10
149.37499999999991
20
-4.9064231449343509
10
136.37499999999991
20
-4.9064231449343332
42
0.41421356237307422
10
135.87499999999994
20
-5.4064231449343403
10
135.87499999999994
20
-18.406423144934372
42
0.41421356237310025
10
136.37499999999991
20
-18.906423144934319
10
149.37499999999994
20
-18.90642314493439
42
0.41421356237309503
10
149.87499999999991
20
-18.406423144934347
0
LWPOLYLINE
5
167
100
AcDbEntity
8
0
100
AcDbPolyline
90
8
70
1
43
0.0
10
149.87499999999991
20
-24.456423144934352
10
149.87499999999991
20
-37.456423144934362
42
-0.41421356237313667
10
149.37499999999991
20
-37.956423144934362
10
136.37499999999991
20
-37.956423144934348
42
-0.41421356237311585
10
135.87499999999994
20
-37.456423144934362
10
135.87499999999994
20
-24.456423144934352
42
-0.41421356237309503
10
136.37499999999991
20
-23.95642314493438
10
149.37499999999991
20
-23.956423144934345
42
-0.41421356237313667
0
LWPOLYLINE
5
168
100
AcDbEntity
8
0
100
AcDbPolyline
90
8
70
1
43
0.0
10
64.937499999999929
20
-43.006423144934317
10
77.937499999999943
20
-43.006423144934338
42
-0.4142135623730846
10
78.437499999999972
20
-43.506423144934345
10
78.437499999999986
20
-56.506423144934331
42
-0.41421356237303258
10
77.937499999999943
20
-57.006423144934345
10
64.937499999999929
20
-57.006423144934303
42
-0.41421356237309503
10
64.437499999999957
20
-56.506423144934331
10
64.437499999999929
20
-43.506423144934359
42
-0.41421356237307422
0
LWPOLYLINE
5
169
100
AcDbEntity
8
0
100
AcDbPolyline
90
8
70
1
43
0.0
10
97.77499999999992
20
-56.506423144934352
42
0.4142135623730846
10
98.274999999999949
20
-57.006423144934359
10
111.27499999999996
20
-57.006423144934345
42
0.41421356237303258
10
111.77500000000001
20
-56.506423144934331
10
111.77499999999998
20
-43.506423144934345
42
0.4142135623730846
10
111.27499999999996
20
-43.006423144934359
10
98.274999999999949
20
-43.006423144934359
42
0.41421356237309503
10
97.774999999999949
20
-43.506423144934359
0
LWPOLYLINE
5
170
100
AcDbEntity
8
0
100
AcDbPolyline
90
8
70
1
43
0.0
10
117.32499999999996
20
-43.006423144934317
10
130.32499999999996
20
-43.006423144934338
42
-0.41421356237314705
10
130.82499999999996
20
-43.506423144934345
10
130.82499999999999
20
-56.506423144934331
42
-0.41421356237309503
10
130.32499999999996
20
-57.006423144934345
10
117.32499999999996
20
-57.006423144934359
42
-0.4142135623730846
10
116.82499999999993
20
-56.506423144934352
10
116.82499999999992
20
-43.506423144934359
42
-0.41421356237309503
0
LWPOLYLINE
5
171
100
AcDbEntity
8
0
100
AcDbPolyline
90
8
70
1
43
0.0
10
149.87499999999991
20
-43.506423144934359
10
149.87499999999991
20
-56.506423144934331
42
-0.41421356237309503
10
149.37499999999991
20
-57.006423144934345
10
136.37499999999991
20
-57.006423144934303
42
-0.41421356237309503
10
135.87499999999994
20
-56.506423144934331
10
135.87499999999994
20
-43.506423144934359
42
-0.41421356237307422
10
136.37499999999991
20
-43.006423144934359
10
149.37499999999991
20
-43.006423144934317
42
-0.41421356237315748
0
LWPOLYLINE
5
172
100
AcDbEntity
8
0
100
AcDbPolyline
90
4
70
1
43
0.0
10
-126.60000000000012
20
58.206076855065646
10
-129.60000000000011
20
58.206076855065653
42
-0.99999999999999989
10
-129.60000000000011
20
59.706076855065653
10
-126.60000000000012
20
59.70607685506566
42
-0.99999999999999989
0
LWPOLYLINE
5
173
100
AcDbEntity
8
0
100
AcDbPolyline
90
4
70
1
43
0.0
10
-137.10000000000008
20
58.206076855065653
42
0.99999999999999989
10
-137.10000000000008
20
59.706076855065653
10
-140.10000000000008
20
59.706076855065653
42
0.99999999999999989
10
-140.10000000000011
20
58.206076855065646
0
LWPOLYLINE
5
174
100
AcDbEntity
8
0
100
AcDbPolyline
90
12
70
1
43
0.0
10
35.625000000000014
20
-46.005923144933959
42
0.41421356237306384
10
36.124999999999957
20
-45.505923144933931
10
36.124999999999972
20
-43.505923144934009
42
0.4142135623730846
10
35.624999999999986
20
-43.005923144933945
10
4.4749999999999259
20
-43.005923144933931
42
0.41421356237309609
10
-0.52500000000007319
20
-48.005923144933945
10
-0.52500000000007319
20
-56.505923144934002
42
0.41421356237312623
10
-0.02500000000006608
20
-57.005923144934002
10
1.9749999999999268
20
-57.005923144933931
42
0.41421356237311585
10
2.4749999999999339
20
-56.505923144933959
10
2.4749999999999517
20
-48.005923144933931
42
-0.41421356237309503
10
4.4749999999999268
20
-46.005923144933988
0
LWPOLYLINE
5
175
100
AcDbEntity
8
0
100
AcDbPolyline
90
12
70
1
43
0.0
10
37.124999999999929
20
-57.005923144933931
10
5.9749999999999659
20
-57.005923144933973
42
-0.4142135623730222
10
5.474999999999941
20
-56.505923144933959
10
5.474999999999941
20
-54.505923144933931
42
-0.41421356237310542
10
5.9749999999999304
20
-54.005923144933959
10
37.124999999999929
20
-54.005923144933959
42
0.41421356237307944
10
39.124999999999957
20
-52.005923144933931
10
39.124999999999929
20
-43.505923144933988
42
-0.41421356237307422
10
39.624999999999929
20
-43.005923144933945
10
41.624999999999957
20
-43.005923144933945
42
-0.41421356237311585
10
42.124999999999972
20
-43.505923144933988
10
42.124999999999972
20
-52.005923144933931
42
-0.41421356237308876
0
LWPOLYLINE
5
176
100
AcDbEntity
8
0
100
AcDbPolyline
90
12
70
1
43
0.0
10
-56.175000000000082
20
-54.006423144934331
10
-25.025000000000066
20
-54.006423144934352
42
-0.41421356237307422
10
-24.525000000000059
20
-54.506423144934359
10
-24.525000000000059
20
-56.506423144934331
42
-0.4142135623730846
10
-25.025000000000066
20
-57.006423144934359
10
-56.175000000000082
20
-57.006423144934359
42
-0.41421356237309193
10
-61.175000000000068
20
-52.006423144934359
10
-61.175000000000068
20
-43.506423144934359
42
-0.41421356237312623
10
-60.675000000000082
20
-43.006423144934359
10
-58.675000000000082
20
-43.006423144934374
42
-0.41421356237311585
10
-58.175000000000082
20
-43.506423144934381
10
-58.175000000000082
20
-52.006423144934374
42
0.4142135623730846
0
LWPOLYLINE
5
177
100
AcDbEntity
8
0
100
AcDbPolyline
90
12
70
1
43
0.0
10
-19.025000000000052
20
-57.006423144934374
10
-21.025000000000045
20
-57.006423144934374
42
-0.41421356237306384
10
-21.52500000000007
20
-56.506423144934374
10
-21.525000000000052
20
-48.006423144934359
42
0.41421356237309503
10
-23.525000000000063
20
-46.006423144934359
10
-54.675000000000026
20
-46.006423144934381
42
-0.41421356237313667
10
-55.175000000000068
20
-45.506423144934374
10
-55.175000000000054
20
-43.506423144934359
42
-0.4142135623730534
10
-54.675000000000047
20
-43.006423144934359
10
-23.52500000000008
20
-43.006423144934359
42
-0.41421356237309709
10
-18.525000000000063
20
-48.006423144934374
10
-18.525000000000063
20
-56.506423144934402
42
-0.41421356237310542
0
LWPOLYLINE
5
178
100
AcDbEntity
8
0
100
AcDbPolyline
90
8
70
1
43
0.0
10
64.937499999999915
20
-23.956423144934398
10
77.937499999999915
20
-23.95642314493438
42
-0.41421356237309503
10
78.437499999999929
20
-24.456423144934387
10
78.437499999999915
20
-37.456423144934391
42
-0.41421356237309503
10
77.937499999999915
20
-37.956423144934391
10
64.937499999999915
20
-37.956423144934362
42
-0.41421356237309503
10
64.437499999999943
20
-37.456423144934391
10
64.437499999999929
20
-24.456423144934387
42
-0.41421356237309503
0
LWPOLYLINE
5
179
100
AcDbEntity
8
0
100
AcDbPolyline
90
8
70
1
43
0.0
10
45.887499999999903
20
-23.956423144934398
10
58.88749999999991
20
-23.95642314493438
42
-0.41421356237309503
10
59.387499999999918
20
-24.456423144934387
10
59.38749999999991
20
-37.456423144934391
42
-0.41421356237309503
10
58.88749999999991
20
-37.956423144934391
10
45.887499999999903
20
-37.956423144934362
42
-0.41421356237309503
10
45.387499999999932
20
-37.456423144934391
10
45.387499999999918
20
-24.456423144934387
42
-0.41421356237309503
0
LWPOLYLINE
5
180
100
AcDbEntity
8
0
100
AcDbPolyline
90
8
70
1
43
0.0
10
26.837499999999928
20
-23.95642314493438
10
39.837499999999935
20
-23.95642314493438
42
-0.41421356237309503
10
40.337499999999942
20
-24.456423144934387
10
40.337499999999935
20
-37.456423144934391
42
-0.41421356237309503
10
39.837499999999935
20
-37.956423144934391
10
26.837499999999928
20
-37.956423144934405
42
-0.41421356237309503
10
26.33749999999992
20
-37.456423144934391
10
26.33749999999992
20
-24.456423144934387
42
-0.41421356237309503
0
LWPOLYLINE
5
181
100
AcDbEntity
8
0
100
AcDbPolyline
90
8
70
1
43
0.0
10
7.7874999999999339
20
-23.95642314493438
10
20.787499999999923
20
-23.95642314493438
42
-0.41421356237309503
10
21.28749999999993
20
-24.456423144934387
10
21.287499999999923
20
-37.456423144934391
42
-0.41421356237309503
10
20.787499999999923
20
-37.956423144934391
10
7.7874999999999339
20
-37.956423144934405
42
-0.41421356237309503
10
7.2874999999999268
20
-37.456423144934391
10
7.2874999999999268
20
-24.456423144934387
42
-0.41421356237309503
0
LWPOLYLINE
5
182
100
AcDbEntity
8
0
100
AcDbPolyline
90
8
70
1
43
0.0
10
-11.262500000000077
20
-23.95642314493438
10
1.7374999999999297
20
-23.956423144934398
42
-0.41421356237309503
10
2.2374999999999186
20
-24.456423144934387
10
2.2374999999999101
20
-37.456423144934391
42
-0.41421356237309503
10
1.7374999999999119
20
-37.956423144934391
10
-11.262500000000095
20
-37.956423144934405
42
-0.41421356237309503
10
-11.762500000000102
20
-37.456423144934391
10
-11.762500000000085
20
-24.456423144934387
42
-0.41421356237309503
0
LWPOLYLINE
5
183
100
AcDbEntity
8
0
100
AcDbPolyline
90
8
70
1
43
0.0
10
-30.312500000000053
20
-23.95642314493438
10
-17.312500000000064
20
-23.95642314493438
42
-0.41421356237309503
10
-16.812500000000057
20
-24.456423144934387
10
-16.812500000000085
20
-37.456423144934391
42
-0.41421356237309503
10
-17.312500000000082
20
-37.956423144934391
10
-30.312500000000071
20
-37.956423144934405
42
-0.41421356237309503
10
-30.812500000000078
20
-37.456423144934391
10
-30.81250000000006
20
-24.456423144934387
42
-0.41421356237309503
0
LWPOLYLINE
5
184
100
AcDbEntity
8
0
100
AcDbPolyline
90
8
70
1
43
0.0
10
-49.362500000000068
20
-23.95642314493438
10
-36.362500000000075
20
-23.95642314493438
42
-0.41421356237309503
10
-35.862500000000068
20
-24.456423144934387
10
-35.862500000000097
20
-37.456423144934391
42
-0.41421356237309503
10
-36.362500000000097
20
-37.956423144934391
10
-49.362500000000082
20
-37.956423144934384
42
-0.41421356237309503
10
-49.86250000000009
20
-37.456423144934377
10
-49.862500000000068
20
-24.456423144934387
42
-0.41421356237309503
0
LWPOLYLINE
5
185
100
AcDbEntity
8
0
100
AcDbPolyline
90
8
70
1
43
0.0
10
-68.41250000000008
20
-23.95642314493438
10
-55.412500000000065
20
-23.95642314493438
42
-0.41421356237309503
10
-54.912500000000065
20
-24.456423144934387
10
-54.912500000000087
20
-37.456423144934377
42
-0.41421356237309503
10
-55.412500000000087
20
-37.956423144934377
10
-68.412500000000094
20
-37.956423144934362
42
-0.41421356237309503
10
-68.91250000000008
20
-37.456423144934377
10
-68.91250000000008
20
-24.456423144934387
42
-0.41421356237309503
0
LWPOLYLINE
5
186
100
AcDbEntity
8
0
100
AcDbPolyline
90
8
70
1
43
0.0
10
-87.462500000000063
20
-23.95642314493438
10
-74.462500000000077
20
-23.956423144934391
42
-0.41421356237309503
10
-73.962500000000077
20
-24.456423144934387
10
-73.962500000000077
20
-37.456423144934377
42
-0.41421356237309503
10
-74.462500000000077
20
-37.956423144934377
10
-87.462500000000063
20
-37.956423144934362
42
-0.41421356237309503
10
-87.962500000000063
20
-37.456423144934377
10
-87.962500000000077
20
-24.456423144934387
42
-0.41421356237309503
0
LWPOLYLINE
5
187
100
AcDbEntity
8
0
100
AcDbPolyline
90
8
70
1
43
0.0
10
-106.51250000000007
20
-23.95642314493438
10
-93.512500000000074
20
-23.956423144934398
42
-0.41421356237309503
10
-93.012500000000088
20
-24.456423144934387
10
-93.012500000000074
20
-37.456423144934377
42
-0.41421356237309503
10
-93.512500000000074
20
-37.956423144934377
10
-106.51250000000007
20
-37.956423144934362
42
-0.41421356237309503
10
-107.01250000000007
20
-37.456423144934377
10
-107.01250000000009
20
-24.456423144934387
42
-0.41421356237309503
0
LWPOLYLINE
5
188
100
AcDbEntity
8
0
100
AcDbPolyline
90
8
70
1
43
0.0
10
74.46249999999992
20
-4.9064231449344042
10
87.46249999999992
20
-4.9064231449343865
42
-0.41421356237309503
10
87.962499999999935
20
-5.4064231449343936
10
87.962499999999935
20
-18.406423144934401
42
-0.41421356237309503
10
87.46249999999992
20
-18.906423144934401
10
74.46249999999992
20
-18.906423144934372
42
-0.41421356237309503
10
73.962499999999949
20
-18.406423144934401
10
73.962499999999935
20
-5.4064231449343936
42
-0.41421356237309503
0
LWPOLYLINE
5
189
100
AcDbEntity
8
0
100
AcDbPolyline
90
8
70
1
43
0.0
10
55.412499999999909
20
-4.9064231449344042
10
68.412499999999909
20
-4.9064231449343865
42
-0.41421356237309503
10
68.912499999999923
20
-5.4064231449343936
10
68.912499999999909
20
-18.406423144934401
42
-0.41421356237309503
10
68.412499999999909
20
-18.906423144934401
10
55.412499999999909
20
-18.906423144934372
42
-0.41421356237309503
10
54.912499999999937
20
-18.406423144934401
10
54.912499999999923
20
-5.4064231449343936
42
-0.41421356237309503
0
LWPOLYLINE
5
190
100
AcDbEntity
8
0
100
AcDbPolyline
90
8
70
1
43
0.0
10
36.362499999999898
20
-4.9064231449344042
10
49.362499999999905
20
-4.9064231449343865
42
-0.41421356237309503
10
49.862499999999912
20
-5.4064231449343936
10
49.862499999999905
20
-18.406423144934401
42
-0.41421356237309503
10
49.362499999999905
20
-18.906423144934401
10
36.362499999999898
20
-18.906423144934408
42
-0.41421356237309503
10
35.862499999999891
20
-18.406423144934401
10
35.862499999999912
20
-5.4064231449343936
42
-0.41421356237309503
0
LWPOLYLINE
5
191
100
AcDbEntity
8
0
100
AcDbPolyline
90
8
70
1
43
0.0
10
17.312499999999922
20
-4.9064231449343865
10
30.312499999999929
20
-4.9064231449343865
42
-0.41421356237309503
10
30.812499999999936
20
-5.4064231449343936
10
30.812499999999929
20
-18.406423144934401
42
-0.41421356237309503
10
30.312499999999929
20
-18.906423144934401
10
17.312499999999922
20
-18.90642314493439
42
-0.41421356237309503
10
16.812499999999915
20
-18.406423144934383
10
16.812499999999932
20
-5.4064231449343758
42
-0.41421356237309503
0
LWPOLYLINE
5
192
100
AcDbEntity
8
0
100
AcDbPolyline
90
8
70
1
43
0.0
10
-1.7375000000000718
20
-4.9064231449343865
10
11.262499999999918
20
-4.9064231449343687
42
-0.41421356237309503
10
11.762499999999925
20
-5.4064231449343758
10
11.762499999999916
20
-18.406423144934383
42
-0.41421356237309503
10
11.262499999999918
20
-18.906423144934379
10
-1.7375000000000718
20
-18.90642314493439
42
-0.41421356237309503
10
-2.2375000000000789
20
-18.406423144934383
10
-2.2375000000000611
20
-5.4064231449343758
42
-0.41421356237309503
0
LWPOLYLINE
5
193
100
AcDbEntity
8
0
100
AcDbPolyline
90
8
70
1
43
0.0
10
-20.787500000000048
20
-4.9064231449343865
10
-7.7875000000000583
20
-4.9064231449343687
42
-0.41421356237309503
10
-7.2875000000000512
20
-5.4064231449343758
10
-7.28750000000006
20
-18.406423144934383
42
-0.41421356237309503
10
-7.7875000000000583
20
-18.906423144934379
10
-20.787500000000048
20
-18.90642314493439
42
-0.41421356237309503
10
-21.287500000000055
20
-18.406423144934383
10
-21.287500000000037
20
-5.4064231449343758
42
-0.41421356237309503
0
LWPOLYLINE
5
194
100
AcDbEntity
8
0
100
AcDbPolyline
90
8
70
1
43
0.0
10
-39.837500000000063
20
-4.9064231449343865
10
-26.83750000000007
20
-4.9064231449343687
42
-0.41421356237309503
10
-26.337500000000063
20
-5.4064231449343758
10
-26.33750000000007
20
-18.406423144934383
42
-0.41421356237309503
10
-26.83750000000007
20
-18.906423144934379
10
-39.837500000000063
20
-18.90642314493439
42
-0.41421356237309503
10
-40.337500000000063
20
-18.406423144934383
10
-40.337500000000048
20
-5.4064231449343758
42
-0.41421356237309503
0
LWPOLYLINE
5
195
100
AcDbEntity
8
0
100
AcDbPolyline
90
8
70
1
43
0.0
10
-58.887500000000074
20
-4.9064231449343687
10
-45.88750000000006
20
-4.9064231449343687
42
-0.41421356237309503
10
-45.38750000000006
20
-5.4064231449343758
10
-45.387500000000067
20
-18.406423144934383
42
-0.41421356237309503
10
-45.88750000000006
20
-18.906423144934379
10
-58.887500000000074
20
-18.906423144934372
42
-0.41421356237309503
10
-59.38750000000006
20
-18.406423144934383
10
-59.387500000000074
20
-5.4064231449343758
42
-0.41421356237309503
0
LWPOLYLINE
5
196
100
AcDbEntity
8
0
100
AcDbPolyline
90
8
70
1
43
0.0
10
-77.937500000000071
20
-4.9064231449343687
10
-64.937500000000057
20
-4.9064231449343865
42
-0.41421356237309503
10
-64.437500000000071
20
-5.4064231449343758
10
-64.437500000000057
20
-18.406423144934383
42
-0.41421356237309503
10
-64.937500000000057
20
-18.906423144934379
10
-77.937500000000071
20
-18.906423144934379
42
-0.41421356237309503
10
-78.437500000000071
20
-18.406423144934383
10
-78.437500000000085
20
-5.4064231449343758
42
-0.41421356237309503
0
LWPOLYLINE
5
197
100
AcDbEntity
8
0
100
AcDbPolyline
90
8
70
1
43
0.0
10
-96.987500000000068
20
-4.9064231449343687
10
-83.987500000000082
20
-4.9064231449343865
42
-0.41421356237309503
10
-83.487500000000097
20
-5.4064231449343758
10
-83.487500000000097
20
-18.406423144934383
42
-0.41421356237309503
10
-83.987500000000082
20
-18.906423144934379
10
-96.987500000000068
20
-18.906423144934372
42
-0.41421356237309503
10
-97.487500000000068
20
-18.406423144934383
10
-97.487500000000082
20
-5.4064231449343758
42
-0.41421356237309503
0
LWPOLYLINE
5
198
100
AcDbEntity
8
0
100
AcDbPolyline
90
8
70
1
43
0.0
10
-116.03750000000008
20
-4.9064231449343687
10
-103.03750000000008
20
-4.9064231449343865
42
-0.41421356237309503
10
-102.53750000000009
20
-5.4064231449343758
10
-102.53750000000008
20
-18.406423144934383
42
-0.41421356237309503
10
-103.03750000000008
20
-18.906423144934379
10
-116.03750000000008
20
-18.90642314493439
42
-0.41421356237309503
10
-116.53750000000009
20
-18.406423144934383
10
-116.53750000000009
20
-5.4064231449343758
42
-0.41421356237309503
0
LWPOLYLINE
5
199
100
AcDbEntity
8
0
100
AcDbPolyline
90
8
70
1
43
0.0
10
88.749999999999929
20
14.143576855065607
10
101.74999999999994
20
14.143576855065607
42
-0.41421356237309503
10
102.24999999999994
20
13.6435768550656
10
102.24999999999994
20
0.64357685506559292
42
-0.41421356237309503
10
101.74999999999994
20
0.14357685506558993
10
88.749999999999929
20
0.14357685506558582
42
-0.41421356237309515
10
88.249999999999915
20
0.64357685506559303
10
88.249999999999915
20
13.6435768550656
42
-0.41421356237309503
0
LWPOLYLINE
5
200
100
AcDbEntity
8
0
100
AcDbPolyline
90
8
70
1
43
0.0
10
69.699999999999918
20
14.143576855065607
10
82.699999999999932
20
14.143576855065607
42
-0.41421356237309503
10
83.199999999999932
20
13.6435768550656
10
83.199999999999932
20
0.64357685506559292
42
-0.41421356237309503
10
82.699999999999932
20
0.14357685506558993
10
69.699999999999918
20
0.14357685506558582
42
-0.41421356237309515
10
69.199999999999903
20
0.64357685506559303
10
69.199999999999903
20
13.6435768550656
42
-0.41421356237309503
0
LWPOLYLINE
5
201
100
AcDbEntity
8
0
100
AcDbPolyline
90
8
70
1
43
0.0
10
50.649999999999942
20
14.143576855065607
10
63.649999999999949
20
14.143576855065572
42
-0.41421356237309503
10
64.14999999999992
20
13.6435768550656
10
64.149999999999949
20
0.64357685506559292
42
-0.41421356237309503
10
63.649999999999949
20
0.14357685506558993
10
50.649999999999942
20
0.14357685506558582
42
-0.41421356237309515
10
50.149999999999935
20
0.64357685506559303
10
50.149999999999935
20
13.6435768550656
42
-0.41421356237309503
0
LWPOLYLINE
5
202
100
AcDbEntity
8
0
100
AcDbPolyline
90
8
70
1
43
0.0
10
31.59999999999993
20
14.143576855065607
10
44.599999999999937
20
14.143576855065572
42
-0.41421356237309503
10
45.099999999999909
20
13.6435768550656
10
45.099999999999945
20
0.64357685506559292
42
-0.41421356237309503
10
44.599999999999937
20
0.14357685506558993
10
31.59999999999993
20
0.14357685506558582
42
-0.41421356237309515
10
31.099999999999923
20
0.64357685506559303
10
31.099999999999923
20
13.6435768550656
42
-0.41421356237309503
0
LWPOLYLINE
5
203
100
AcDbEntity
8
0
100
AcDbPolyline
90
8
70
1
43
0.0
10
12.549999999999919
20
14.143576855065607
10
25.549999999999891
20
14.143576855065607
42
-0.41421356237309503
10
26.049999999999898
20
13.6435768550656
10
26.049999999999894
20
0.64357685506559292
42
-0.41421356237309503
10
25.549999999999891
20
0.14357685506558993
10
12.549999999999919
20
0.14357685506558582
42
-0.41421356237309515
10
12.049999999999912
20
0.64357685506559303
10
12.049999999999912
20
13.6435768550656
42
-0.41421356237309503
0
LWPOLYLINE
5
204
100
AcDbEntity
8
0
100
AcDbPolyline
90
8
70
1
43
0.0
10
-6.5000000000000568
20
14.143576855065607
10
6.4999999999999325
20
14.143576855065607
42
-0.41421356237309503
10
6.9999999999999396
20
13.6435768550656
10
6.9999999999999352
20
0.64357685506562845
42
-0.41421356237309503
10
6.4999999999999325
20
0.14357685506562545
10
-6.5000000000000568
20
0.14357685506562134
42
-0.41421356237309515
10
-7.0000000000000639
20
0.64357685506562856
10
-7.0000000000000639
20
13.6435768550656
42
-0.41421356237309503
0
LWPOLYLINE
5
205
100
AcDbEntity
8
0
100
AcDbPolyline
90
8
70
1
43
0.0
10
-25.550000000000068
20
14.143576855065607
10
-12.550000000000079
20
14.143576855065607
42
-0.41421356237309503
10
-12.050000000000072
20
13.6435768550656
10
-12.050000000000075
20
0.64357685506562845
42
-0.41421356237309503
10
-12.550000000000079
20
0.14357685506562545
10
-25.550000000000068
20
0.14357685506562134
42
-0.41421356237309515
10
-26.050000000000075
20
0.64357685506562856
10
-26.050000000000075
20
13.6435768550656
42
-0.41421356237309503
0
LWPOLYLINE
5
206
100
AcDbEntity
8
0
100
AcDbPolyline
90
8
70
1
43
0.0
10
-44.600000000000065
20
14.143576855065607
10
-31.600000000000072
20
14.143576855065607
42
-0.41421356237309503
10
-31.100000000000065
20
13.6435768550656
10
-31.100000000000069
20
0.64357685506562845
42
-0.41421356237309503
10
-31.600000000000072
20
0.14357685506562545
10
-44.600000000000065
20
0.14357685506562134
42
-0.41421356237309515
10
-45.100000000000065
20
0.64357685506562856
10
-45.100000000000065
20
13.6435768550656
42
-0.41421356237309503
0
LWPOLYLINE
5
207
100
AcDbEntity
8
0
100
AcDbPolyline
90
8
70
1
43
0.0
10
-63.650000000000077
20
14.143576855065607
10
-50.650000000000063
20
14.143576855065607
42
-0.41421356237309503
10
-50.150000000000063
20
13.6435768550656
10
-50.150000000000063
20
0.64357685506562845
42
-0.41421356237309503
10
-50.650000000000063
20
0.14357685506562545
10
-63.650000000000077
20
0.14357685506563911
42
-0.41421356237309515
10
-64.150000000000063
20
0.64357685506562856
10
-64.150000000000048
20
13.643576855065636
42
-0.41421356237309503
0
LWPOLYLINE
5
208
100
AcDbEntity
8
0
100
AcDbPolyline
90
8
70
1
43
0.0
10
-82.700000000000074
20
14.143576855065607
10
-69.70000000000006
20
14.143576855065625
42
-0.41421356237309503
10
-69.200000000000074
20
13.643576855065636
10
-69.200000000000045
20
0.64357685506562845
42
-0.41421356237309503
10
-69.70000000000006
20
0.14357685506562545
10
-82.700000000000074
20
0.14357685506563911
42
-0.41421356237309515
10
-83.20000000000006
20
0.64357685506562856
10
-83.200000000000045
20
13.643576855065636
42
-0.41421356237309503
0
LWPOLYLINE
5
209
100
AcDbEntity
8
0
100
AcDbPolyline
90
8
70
1
43
0.0
10
-101.75000000000009
20
14.143576855065643
10
-88.750000000000071
20
14.143576855065643
42
-0.41421356237309503
10
-88.250000000000057
20
13.643576855065636
10
-88.250000000000057
20
0.64357685506562845
42
-0.41421356237309503
10
-88.750000000000071
20
0.14357685506562545
10
-101.75000000000009
20
0.14357685506563911
42
-0.41421356237309515
10
-102.25000000000007
20
0.64357685506562856
10
-102.25000000000009
20
13.643576855065636
42
-0.41421356237309503
0
LWPOLYLINE
5
210
100
AcDbEntity
8
0
100
AcDbPolyline
90
8
70
1
43
0.0
10
-120.80000000000007
20
14.143576855065643
10
-107.80000000000008
20
14.143576855065643
42
-0.41421356237309503
10
-107.30000000000007
20
13.643576855065636
10
-107.30000000000007
20
0.64357685506562845
42
-0.41421356237309503
10
-107.80000000000008
20
0.14357685506562545
10
-120.80000000000007
20
0.14357685506563911
42
-0.41421356237309515
10
-121.30000000000007
20
0.64357685506562856
10
-121.30000000000008
20
13.643576855065636
42
-0.41421356237309503
0
LWPOLYLINE
5
211
100
AcDbEntity
8
0
100
AcDbPolyline
90
12
70
1
43
0.0
10
-118.63437500000005
20
-9.906423144934358
10
-118.63437500000002
20
-15.406423144934362
42
-0.41421356237309503
10
-119.13437500000002
20
-15.906423144934369
10
-119.63437500000006
20
-15.906423144934362
42
-0.4142135623730846
10
-120.13437500000009
20
-15.406423144934354
10
-120.13437500000003
20
-9.9064231449343527
42
0.41421356237307944
10
-120.63437500000001
20
-9.4064231449343723
10
-123.13437500000001
20
-9.406423144934358
42
-0.41421356237308593
10
-123.63437500000002
20
-8.9064231449343652
10
-123.63437500000002
20
-8.4064231449343669
42
-0.41421356237310025
10
-123.13437500000001
20
-7.9064231449343509
10
-120.63437500000001
20
-7.906423144934422
42
-0.41421356237309176
0
ENDSEC
0
SECTION
2
OBJECTS
0
DICTIONARY
5
C
100
AcDbDictionary
3
ACAD_GROUP
350
D
3
ACAD_MLINESTYLE
350
17
0
DICTIONARY
5
D
100
AcDbDictionary
0
DICTIONARY
5
1A
330
C
100
AcDbDictionary
0
DICTIONARY
5
17
100
AcDbDictionary
0
ENDSEC
0
EOF
