0
SECTION
2
HEADER
9
$INSUNITS
70
4
9
$ACADVER
1
AC1014
9
$HANDSEED
5
FFFF
0
ENDSEC
0
SECTION
2
TABLES
0
TABLE
2
VPORT
5
8
100
AcDbSymbolTable
0
ENDTAB
0
TABLE
2
LTYPE
5
5
100
AcDbSymbolTable
0
LTYPE
5
14
100
AcDbSymbolTableRecord
100
AcDbLinetypeTableRecord
2
BYBLOCK
70
0
0
LTYPE
5
15
100
AcDbSymbolTableRecord
100
AcDbLinetypeTableRecord
2
BYLAYER
70
0
0
LTYPE
5
16
100
AcDbSymbolTableRecord
100
AcDbLinetypeTableRecord
2
DASHED
70
0
3
Dashed __ __ __ __ __ __ __ __ __ __ __ __ __ _
72
65
73
2
40
0.75
49
0.5
74
0
49
-0.25
74
0
0
ENDTAB
0
TABLE
2
LAYER
5
2
100
AcDbSymbolTable
70
2
0
LAYER
5
50
100
AcDbSymbolTableRecord
100
AcDbLayerTableRecord
2
0
70
0
62
7
6
CONTINUOUS
0
ENDTAB
0
TABLE
2
STYLE
5
3
100
AcDbSymbolTable
70
1
0
STYLE
5
11
100
AcDbSymbolTableRecord
100
AcDbTextStyleTableRecord
2
STANDARD
70
0
0
ENDTAB
0
TABLE
2
VIEW
5
6
100
AcDbSymbolTable
70
0
0
ENDTAB
0
TABLE
2
UCS
5
7
100
AcDbSymbolTable
70
0
0
ENDTAB
0
TABLE
2
APPID
5
9
100
AcDbSymbolTable
70
2
0
APPID
5
12
100
AcDbSymbolTableRecord
100
AcDbRegAppTableRecord
2
ACAD
70
0
0
ENDTAB
0
TABLE
2
DIMSTYLE
5
A
100
AcDbSymbolTable
70
1
0
ENDTAB
0
TABLE
2
BLOCK_RECORD
5
1
100
AcDbSymbolTable
70
1
0
BLOCK_RECORD
5
1F
100
AcDbSymbolTableRecord
100
AcDbBlockTableRecord
2
*MODEL_SPACE
0
BLOCK_RECORD
5
1B
100
AcDbSymbolTableRecord
100
AcDbBlockTableRecord
2
*PAPER_SPACE
0
ENDTAB
0
ENDSEC
0
SECTION
2
BLOCKS
0
BLOCK
5
20
100
AcDbEntity
100
AcDbBlockBegin
2
*MODEL_SPACE
0
ENDBLK
5
21
100
AcDbEntity
100
AcDbBlockEnd
0
BLOCK
5
1C
100
AcDbEntity
100
AcDbBlockBegin
2
*PAPER_SPACE
0
ENDBLK
5
1D
100
AcDbEntity
100
AcDbBlockEnd
0
ENDSEC
0
SECTION
2
ENTITIES
0
SPLINE
5
100
100
AcDbEntity
8
0
100
AcDbSpline
70
0
71
3
72
10
73
6
74
0
42
0.000000001
43
0.0000000001
44
0.0000000001
40
-1.474371042395284
40
-1.474371042395284
40
-1.474371042395284
40
-1.474371042395284
40
-0.85881557304983613
40
-0.85881557304983613
40
-0.17935298515449161
40
-0.17935298515449161
40
-0.17935298515449161
40
-0.17935298515449161
10
30.324999999792951
20
-37.338858418000441
30
3.334210102646425e-15
10
26.760174031292099
20
-37.334798452535665
30
2.897644831462232e-15
10
23.280490259704827
20
-36.684131557339292
30
2.3609211029344603e-15
10
16.159971979383709
20
-34.343756301008767
30
1.4889091109079128e-15
10
13.25980950431145
20
-32.851043776172091
30
1.3921878917322262e-15
10
10.986306331560222
20
-31.567709990940163
30
1.1137640533961119e-15
0
SPLINE
5
101
100
AcDbEntity
8
0
100
AcDbSpline
70
0
71
3
72
20
73
16
74
0
42
0.000000001
43
0.0000000001
44
0.0000000001
40
0
40
0
40
0
40
0
40
0.0097661118346732689
40
0.0097661118346732689
40
0.019532223669346337
40
0.019532223669346337
40
0.029298335504019481
40
0.029298335504019481
40
0.039064447338692701
40
0.039064447338692701
40
0.04883055917336597
40
0.04883055917336597
40
0.057358696296093276
40
0.057358696296093276
40
0.06588683341882054
40
0.06588683341882054
40
0.06588683341882054
40
0.06588683341882054
10
11.109197993927381
20
-31.100000001916609
30
1.0835507230830062e-15
10
11.076644287811806
20
-31.100000001916609
30
1.0795640438835234e-15
10
11.044401812869832
20
-31.106358464607766
30
1.1604051653062348e-15
10
10.984168989799288
20
-31.131076517775238
30
1.1530287719085398e-15
10
10.956754500288696
20
-31.149199790190892
30
1.1356489012950901e-15
10
10.910415524137317
20
-31.194934617365373
30
1.1299740134131353e-15
10
10.891934063365234
20
-31.222108922248999
30
1.1076156020372909e-15
10
10.866427728446006
20
-31.282012194333468
30
1.1044919768956098e-15
10
10.859646708762716
20
-31.314168453603376
30
1.0805029713584192e-15
10
10.858792331477979
20
-31.379270259775648
30
1.0803983403177175e-15
10
10.864727142189041
20
-31.411593397927792
30
1.0583708522500424e-15
10
10.887136230387785
20
-31.468307544102018
30
1.0611151740634829e-15
10
10.902015809926633
20
-31.492771301542785
30
1.0460677828045607e-15
10
10.939359168214269
20
-31.535641793129304
30
1.0506410252241969e-15
10
10.96155085636849
20
-31.553736164968068
30
1.1454268515701546e-15
10
10.986306331560227
20
-31.567709990940163
30
1.148458522915648e-15
0
LINE
5
102
100
AcDbEntity
8
0
100
AcDbLine
10
11.109197993927381
20
-31.100000001916609
30
1.0835507230830062e-15
11
49.54095062669245
21
-31.100000001916598
31
7.6319357440224427e-15
0
SPLINE
5
103
100
AcDbEntity
8
0
100
AcDbSpline
70
0
71
3
72
20
73
16
74
0
42
0.000000001
43
0.0000000001
44
0.0000000001
40
0
40
0
40
0
40
0
40
0.0097661118346740183
40
0.0097661118346740183
40
0.019532223669346961
40
0.019532223669346961
40
0.029298335504020456
40
0.029298335504020456
40
0.03906444733869336
40
0.03906444733869336
40
0.048830559173367323
40
0.048830559173367323
40
0.057355441414345669
40
0.057355441414345669
40
0.065880323655323592
40
0.065880323655323592
40
0.065880323655323592
40
0.065880323655323592
10
49.663898569096233
20
-31.567678212720246
30
5.7963275134901468e-15
10
49.692243499105302
20
-31.551668567982134
30
5.7997987662709136e-15
10
49.717190396515392
20
-31.53027558904536
30
5.4134112621821466e-15
10
49.757479754037313
20
-31.479131256046394
30
5.4183452854550397e-15
10
49.772437025931843
20
-31.449868869683499
30
5.4147849134372365e-15
10
49.790292956019073
20
-31.387257841196838
30
5.4169716341999497e-15
10
49.793020901787912
20
-31.354507794631058
30
5.416322284382019e-15
10
49.785769659001261
20
-31.289805440690213
30
5.4154342632551664e-15
10
49.775859796279036
20
-31.258471723084327
30
5.41779316922313e-15
10
49.744587181091198
20
-31.201366568616876
30
5.4139633784140554e-15
10
49.723523411871675
20
-31.17614108815674
30
5.4189773177906665e-15
10
49.676128414601152
20
-31.137786782978864
30
5.4131731046203715e-15
10
49.651152076249538
20
-31.123807329286997
30
5.4191588447560397e-15
10
49.597576287054956
20
-31.104844909731433
30
5.4125977028811457e-15
10
49.569366900829039
20
-31.100000001916598
30
5.0377190990202027e-15
10
49.54095062669245
20
-31.100000001916598
30
5.0342391091036952e-15
0
SPLINE
5
104
100
AcDbEntity
8
0
100
AcDbSpline
70
0
71
3
72
10
73
6
74
0
42
0.000000001
43
0.0000000001
44
0.0000000001
40
0
40
0
40
0
40
0
40
0.74612171975901764
40
0.74612171975901764
40
1.3716516342964955
40
1.3716516342964955
40
1.3716516342964955
40
1.3716516342964955
10
30.32499999980304
20
-37.338858418000441
30
3.334210102646425e-15
10
32.812070786030759
20
-37.34169093257109
30
3.6387884304070913e-15
10
36.31977205429785
20
-37.035570001156017
30
3.9009389238536447e-15
10
44.478420267520903
20
-34.353128930314405
30
4.900085165822933e-15
10
47.369979440630118
20
-32.863318395742652
30
6.3839551047040003e-15
10
49.663898569096247
20
-31.567678212720232
30
6.6648791765218938e-15
0
SPLINE
5
105
100
AcDbEntity
8
0
100
AcDbSpline
70
0
71
3
72
10
73
6
74
0
42
0.000000001
43
0.0000000001
44
0.0000000001
40
-1.3748852829631804
40
-1.3748852829631804
40
-1.3748852829631804
40
-1.3748852829631804
40
-0.74612171975743213
40
-0.74612171975743213
40
-0
40
-0
40
-0
40
-0
10
10.95057629669585
20
-44.632402255683459
30
1.1137640533961119e-15
10
13.249931768318859
20
-43.331707054336526
30
1.3953538852386188e-15
10
16.15234583861707
20
-41.833194889118161
30
1.7659795668149146e-15
10
24.330227945704355
20
-39.144430002675598
30
2.7674812814398001e-15
10
27.837929213971844
20
-38.83830907126211
30
3.0296317748864052e-15
10
30.325000000194279
20
-38.841141585832759
30
3.334210102646425e-15
0
SPLINE
5
106
100
AcDbEntity
8
0
100
AcDbSpline
70
0
71
3
72
10
73
6
74
0
42
0.000000001
43
0.0000000001
44
0.0000000001
40
-1.4743710423967333
40
-1.4743710423967333
40
-1.4743710423967333
40
-1.4743710423967333
40
-0.85881557305065137
40
-0.85881557305065137
40
-0.17580621195750903
40
-0.17580621195750903
40
-0.17580621195750903
40
-0.17580621195750903
10
30.325000000204369
20
-38.841141585832759
30
3.334210102646425e-15
10
33.889825968705225
20
-38.845201551297535
30
3.7707753738306188e-15
10
37.369509740292514
20
-39.495868446493901
30
4.3074991023583873e-15
10
44.509529573696156
20
-41.842653482351366
30
5.1818993458410261e-15
10
47.42066498356948
20
-43.344154456070065
30
5.5531665400736963e-15
10
49.699243331004944
20
-44.632372634083062
30
5.8322119080530264e-15
0
SPLINE
5
107
100
AcDbEntity
8
0
100
AcDbSpline
70
0
71
3
72
20
73
16
74
0
42
0.000000001
43
0.0000000001
44
0.0000000001
40
0
40
0
40
0
40
0
40
0.0097661118346732429
40
0.0097661118346732429
40
0.019532223669346233
40
0.019532223669346233
40
0.029298335504020147
40
0.029298335504020147
40
0.039064447338692861
40
0.039064447338692861
40
0.04883055917336615
40
0.04883055917336615
40
0.05735023695986971
40
0.05735023695986971
40
0.065869914746373825
40
0.065869914746373825
40
0.065869914746373825
40
0.065869914746373825
10
49.576205415020269
20
-45.100000001916591
30
5.6028284370158779e-15
10
49.608759121135847
20
-45.100000001916591
30
5.6068151162153601e-15
10
49.641001596077814
20
-45.09364153922543
30
5.8285237113541788e-15
10
49.701234419148363
20
-45.068923486057962
30
5.8359001047518741e-15
10
49.728648908658954
20
-45.050800213642297
30
5.829374464112049e-15
10
49.774987884810329
20
-45.00506538646782
30
5.8350493519940039e-15
10
49.793469345582409
20
-44.97789108158419
30
5.8306500954821859e-15
10
49.818975680501644
20
-44.917987809499721
30
5.833773720623867e-15
10
49.825756700184925
20
-44.885831550229824
30
5.8321595925326756e-15
10
49.826611077469671
20
-44.820729744057537
30
5.8322642235733773e-15
10
49.820676266758603
20
-44.788406605905408
30
5.8336769233046941e-15
10
49.798277540614734
20
-44.73171868458644
30
5.8309338704769867e-15
10
49.783417038110301
20
-44.707277045627862
30
5.8344953799335808e-15
10
49.746125112272679
20
-44.66443654786098
30
5.8299284361724729e-15
10
49.723964865024499
20
-44.646349212745889
30
5.8005449532841968e-15
10
49.699243331004944
20
-44.632372634083062
30
5.7975174385334903e-15
0
LINE
5
108
100
AcDbEntity
8
0
100
AcDbLine
10
49.576205415020269
20
-45.100000001916591
30
5.6028284370158779e-15
11
11.073666592147031
21
-45.100000001916598
31
2.8340788980121122e-15
0
SPLINE
5
109
100
AcDbEntity
8
0
100
AcDbSpline
70
0
71
3
72
20
73
16
74
0
42
0.000000001
43
0.0000000001
44
0.0000000001
40
0
40
0
40
0
40
0
40
0.0097661118346735534
40
0.0097661118346735534
40
0.019532223669346822
40
0.019532223669346822
40
0.029298335504019238
40
0.029298335504019238
40
0.039064447338693159
40
0.039064447338693159
40
0.048830559173365956
40
0.048830559173365956
40
0.057347206569356581
40
0.057347206569356581
40
0.065863853965347177
40
0.065863853965347177
40
0.065863853965347177
40
0.065863853965347177
10
10.950576296695857
20
-44.632402255683459
30
1.0443751143570396e-15
10
10.922241844366713
20
-44.64843043689865
30
1.0409051447219917e-15
10
10.897308945050387
20
-44.669839728569798
30
1.1162290161253682e-15
10
10.857053048722197
20
-44.721010403162296
30
1.1112990906668556e-15
10
10.842114920020389
20
-44.750282566544371
30
1.1148549059119937e-15
10
10.824299946484485
20
-44.812905260875993
30
1.1126732008802299e-15
10
10.821593422507302
20
-44.845657084735741
30
1.1133174515364874e-15
10
10.828886984372414
20
-44.910354681930357
30
1.1142106552557362e-15
10
10.838817339787974
20
-44.941681910973152
30
1.1118468712851219e-15
10
10.87012729972621
20
-44.998766598377948
30
1.1156812355071015e-15
10
10.891207563966629
20
-45.02397829601481
30
1.1106633697185608e-15
10
10.938606288812169
20
-45.06228433913509
30
1.1164680393851365e-15
10
10.963565002237059
20
-45.076237853003668
30
1.1104862722271278e-15
10
11.017095231055134
20
-45.095164449725431
30
1.1170418345650958e-15
10
11.045277767493731
20
-45.100000001916605
30
1.0408984860327174e-15
10
11.073666592147033
20
-45.100000001916605
30
1.0443751143570396e-15
0
SPLINE
5
110
100
AcDbEntity
8
0
100
AcDbSpline
70
0
71
3
72
10
73
6
74
0
42
0.000000001
43
0.0000000001
44
0.0000000001
40
-1.3755579052604707
40
-1.3755579052604707
40
-1.3755579052604707
40
-1.3755579052604707
40
-0.74566916942979666
40
-0.74566916942979666
40
-0
40
-0
40
-0
40
-0
10
-49.699423703303282
20
-44.632402255683445
30
-6.3802413628236955e-15
10
-47.405507934533247
20
-43.334784175505874
30
-6.0993177024499104e-15
10
-44.495253402150695
20
-41.831537105650355
30
-5.7287199786298548e-15
10
-36.315608004405412
20
-39.144091050929653
30
-4.7270023231789415e-15
10
-32.810562285913534
20
-38.838310789286602
30
-4.4641889033498149e-15
10
-30.324999999804891
20
-38.841141585832744
30
-4.1597953135733817e-15
0
SPLINE
5
111
100
AcDbEntity
8
0
100
AcDbSpline
70
0
71
3
72
10
73
6
74
0
42
0.000000001
43
0.0000000001
44
0.0000000001
40
-1.4633391309445458
40
-1.4633391309445458
40
-1.4633391309445458
40
-1.4633391309445458
40
-0.85274272444652155
40
-0.85274272444652155
40
-0.17371784098398874
40
-0.17371784098398874
40
-0.17371784098398874
40
-0.17371784098398874
10
-30.324999999794802
20
-38.841141585832744
30
-3.8822395574170925e-15
10
-26.763040359016991
20
-38.845198286848806
30
-3.446025310140032e-15
10
-23.286056687162553
20
-39.494821067467498
30
-3.1862021566859547e-15
10
-16.14286804967621
20
-41.840997537728867
30
-2.3114138466256155e-15
10
-13.22389682027935
20
-43.347228997327029
30
-1.9401728891952471e-15
10
-10.950756668994213
20
-44.632372634083055
30
-1.6617935081667794e-15
0
SPLINE
5
112
100
AcDbEntity
8
0
100
AcDbSpline
70
0
71
3
72
20
73
16
74
0
42
0.000000001
43
0.0000000001
44
0.0000000001
40
0
40
0
40
0
40
0
40
0.0097661118346734632
40
0.0097661118346734632
40
0.019532223669347128
40
0.019532223669347128
40
0.029298335504020299
40
0.029298335504020299
40
0.039064447338692923
40
0.039064447338692923
40
0.048830559173366199
40
0.048830559173366199
40
0.057350236959870064
40
0.057350236959870064
40
0.065869914746374381
40
0.065869914746374381
40
0.065869914746374381
40
0.065869914746374381
10
-11.073794584978899
20
-45.100000001916584
30
-1.1156672062539368e-15
10
-11.041240878863318
20
-45.100000001916584
30
-1.111680527054454e-15
10
-11.008998403921346
20
-45.09364153922543
30
-1.110370192553049e-15
10
-10.9487655808508
20
-45.068923486057948
30
-1.1029937991553535e-15
10
-10.92135109134021
20
-45.05080021364229
30
-1.109519439795179e-15
10
-10.875012115188831
20
-45.005065386467805
30
-1.1038445519132237e-15
10
-10.856530654416748
20
-44.977891081584175
30
-1.1082438084250421e-15
10
-10.831024319497519
20
-44.917987809499714
30
-1.1051201832833606e-15
10
-10.824243299814231
20
-44.885831550229803
30
-1.1067343113745522e-15
10
-10.823388922529492
20
-44.82072974405753
30
-1.1066296803338503e-15
10
-10.829323733240557
20
-44.788406605905394
30
-1.1052169806025339e-15
10
-10.85172245938443
20
-44.731718684586433
30
-1.1079600334302413e-15
10
-10.866582961888865
20
-44.707277045627848
30
-1.1043985239736472e-15
10
-10.903874887726488
20
-44.664436547860973
30
-1.1089654677347557e-15
10
-10.926035134974668
20
-44.646349212745882
30
-1.2424323591816396e-15
10
-10.950756668994224
20
-44.632372634083055
30
-1.2454598739323457e-15
0
LINE
5
113
100
AcDbEntity
8
0
100
AcDbLine
10
-11.073794584978899
20
-45.100000001916584
30
-1.1156672062539368e-15
11
-49.576333407852104
21
-45.100000001916584
31
-4.9555460990357151e-15
0
SPLINE
5
114
100
AcDbEntity
8
0
100
AcDbSpline
70
0
71
3
72
20
73
16
74
0
42
0.000000001
43
0.0000000001
44
0.0000000001
40
0
40
0
40
0
40
0
40
0.0097661118346737512
40
0.0097661118346737512
40
0.019532223669346767
40
0.019532223669346767
40
0.029298335504019231
40
0.029298335504019231
40
0.039064447338693215
40
0.039064447338693215
40
0.048830559173365817
40
0.048830559173365817
40
0.057347206569356421
40
0.057347206569356421
40
0.065863853965347288
40
0.065863853965347288
40
0.065863853965347288
40
0.065863853965347288
10
-49.699423703303282
20
-44.632402255683424
30
-6.3802413628236955e-15
10
-49.727758155632422
20
-44.648430436898614
30
-6.3837113324587433e-15
10
-49.752691054948748
20
-44.669839728569762
30
-6.3777764000944384e-15
10
-49.792946951276946
20
-44.721010403162261
30
-6.3827063255529519e-15
10
-49.807885079978746
20
-44.750282566544335
30
-6.379150510307813e-15
10
-49.825700053514652
20
-44.812905260875965
30
-6.3813322153395773e-15
10
-49.828406577491833
20
-44.845657084735706
30
-6.38068796468332e-15
10
-49.821113015626722
20
-44.910354681930329
30
-6.3797947609640711e-15
10
-49.811182660211159
20
-44.941681910973116
30
-6.3821585449346845e-15
10
-49.779872700272925
20
-44.998766598377912
30
-6.3783241807127058e-15
10
-49.758792436032515
20
-45.023978296014775
30
-6.3833420465012462e-15
10
-49.711393711186965
20
-45.062284339135054
30
-6.3775373768346707e-15
10
-49.686434997762078
20
-45.076237853003633
30
-6.38351914399268e-15
10
-49.632904768944002
20
-45.095164449725395
30
-6.376963581654711e-15
10
-49.604722232505409
20
-45.10000000191657
30
-6.3837179911480173e-15
10
-49.576333407852104
20
-45.10000000191657
30
-6.3802413628236955e-15
0
SPLINE
5
115
100
AcDbEntity
8
0
100
AcDbSpline
70
0
71
3
72
10
73
6
74
0
42
0.000000001
43
0.0000000001
44
0.0000000001
40
-1.4743710423956555
40
-1.4743710423956555
40
-1.4743710423956555
40
-1.4743710423956555
40
-0.85881557305005907
40
-0.85881557305005907
40
-0.17935298515451903
40
-0.17935298515451903
40
-0.17935298515451903
40
-0.17935298515451903
10
-30.32500000020622
20
-37.338858418000427
30
-3.8822395574170925e-15
10
-33.889825968707079
20
-37.334798452535651
30
-4.3188048286012871e-15
10
-37.369509740294376
20
-36.684131557339278
30
-5.1330843132853495e-15
10
-44.490028020615625
20
-34.343756301008689
30
-6.0050963053119136e-15
10
-47.390190495687541
20
-32.851043776172197
30
-6.1018175244875598e-15
10
-49.663693668438938
20
-31.567709990940166
30
-6.3802413628236955e-15
0
SPLINE
5
116
100
AcDbEntity
8
0
100
AcDbSpline
70
0
71
3
72
20
73
16
74
0
42
0.000000001
43
0.0000000001
44
0.0000000001
40
0
40
0
40
0
40
0
40
0.0097661118346733002
40
0.0097661118346733002
40
0.019532223669346357
40
0.019532223669346357
40
0.029298335504019349
40
0.029298335504019349
40
0.03906444733869259
40
0.03906444733869259
40
0.048830559173365873
40
0.048830559173365873
40
0.057358696296093414
40
0.057358696296093414
40
0.065886833418819638
40
0.065886833418819638
40
0.065886833418819638
40
0.065886833418819638
10
-49.540802006071786
20
-31.100000001916598
30
-6.3981659196494203e-15
10
-49.573355712187357
20
-31.100000001916598
30
-6.4021525988489025e-15
10
-49.605598187129331
20
-31.106358464607755
30
-6.7234978613202093e-15
10
-49.665831010199881
20
-31.131076517775227
30
-6.7308742547179046e-15
10
-49.693245499710471
20
-31.149199790190885
30
-6.7243486140780795e-15
10
-49.739584475861847
20
-31.194934617365362
30
-6.7300235019600344e-15
10
-49.758065936633926
20
-31.222108922248992
30
-6.7256242454482164e-15
10
-49.783572271553155
20
-31.282012194333461
30
-6.7287478705898975e-15
10
-49.790353291236443
20
-31.314168453603365
30
-6.7271337424987061e-15
10
-49.791207668521189
20
-31.379270259775641
30
-6.7272383735394078e-15
10
-49.785272857810121
20
-31.411593397927785
30
-6.7286510732707246e-15
10
-49.762863769611378
20
-31.468307544102011
30
-6.7259067514572835e-15
10
-49.747984190072529
20
-31.492771301542778
30
-6.7294726792288754e-15
10
-49.710640831784893
20
-31.535641793129294
30
-6.7248994368092393e-15
10
-49.688449143630677
20
-31.553736164968058
30
-6.6608287903254769e-15
10
-49.663693668438938
20
-31.567709990940148
30
-6.6577971189799847e-15
0
LINE
5
117
100
AcDbEntity
8
0
100
AcDbLine
10
-49.540802006071786
20
-31.100000001916598
30
-6.3981659196494203e-15
11
-11.109049373306728
21
-31.100000001916591
31
-6.7810629581842826e-16
0
SPLINE
5
118
100
AcDbEntity
8
0
100
AcDbSpline
70
0
71
3
72
20
73
16
74
0
42
0.000000001
43
0.0000000001
44
0.0000000001
40
0
40
0
40
0
40
0
40
0.0097661118346731458
40
0.0097661118346731458
40
0.01953222366934685
40
0.01953222366934685
40
0.029298335504020306
40
0.029298335504020306
40
0.039064447338693332
40
0.039064447338693332
40
0.048830559173366914
40
0.048830559173366914
40
0.057355441414344746
40
0.057355441414344746
40
0.065880323655322981
40
0.065880323655322981
40
0.065880323655322981
40
0.065880323655322981
10
-10.986101430902931
20
-31.567678212720235
30
-1.314848812971418e-15
10
-10.957756500893865
20
-31.551668567982123
30
-1.3113775601906524e-15
10
-10.932809603483783
20
-31.530275589045349
30
-1.7336494588422979e-15
10
-10.892520245961864
20
-31.479131256046387
30
-1.7287154355694058e-15
10
-10.877562974067335
20
-31.449868869683485
30
-1.7322758075872084e-15
10
-10.859707043980098
20
-31.387257841196824
30
-1.7300890868244951e-15
10
-10.856979098211259
20
-31.354507794631044
30
-1.7307384366424258e-15
10
-10.864230340997915
20
-31.289805440690195
30
-1.7316264577692778e-15
10
-10.874140203720138
20
-31.258471723084313
30
-1.7292675518013144e-15
10
-10.905412818907973
20
-31.201366568616862
30
-1.7330973426103894e-15
10
-10.9264765881275
20
-31.176141088156722
30
-1.7280834032337783e-15
10
-10.973871585398022
20
-31.137786782978853
30
-1.7338876164040725e-15
10
-10.998847923749633
20
-31.12380732928699
30
-1.7279018762684047e-15
10
-11.052423712944222
20
-31.104844909731426
30
-1.7344630181432991e-15
10
-11.080633099170134
20
-31.100000001916591
30
-1.3113688230549109e-15
10
-11.109049373306728
20
-31.100000001916591
30
-1.314848812971418e-15
0
SPLINE
5
119
100
AcDbEntity
8
0
100
AcDbSpline
70
0
71
3
72
10
73
6
74
0
42
0.000000001
43
0.0000000001
44
0.0000000001
40
0
40
0
40
0
40
0
40
0.74612171975729003
40
0.74612171975729003
40
1.3716516342926108
40
1.3716516342926108
40
1.3716516342926108
40
1.3716516342926108
10
-30.32500000019613
20
-37.338858418000427
30
-3.8822395574170925e-15
10
-27.837929213974171
20
-37.341690932571076
30
-3.5776612296571315e-15
10
-24.330227945706582
20
-37.035570001157716
30
-3.3155107362105197e-15
10
-16.171579732478044
20
-34.35312893031432
30
-2.3163644942405593e-15
10
-13.280020559369447
20
-32.863318395742866
30
-1.9427175799847196e-15
10
-10.986101430902934
20
-31.567678212720235
30
-1.6617935081667794e-15
0
LWPOLYLINE
5
120
100
AcDbEntity
8
0
100
AcDbPolyline
90
8
70
1
43
0.0
10
-45.387499950384793
20
-12.550000191344246
10
-45.387499950384807
20
-25.550000191344338
42
-0.41421356237309243
10
-45.887499950384779
20
-26.050000191344267
10
-58.887499950384807
20
-26.050000191344289
42
-0.41421356237310281
10
-59.387499950384814
20
-25.550000191344267
10
-59.387499950384743
20
-12.550000191344219
42
-0.41421356237311063
10
-58.887499950384722
20
-12.050000191344202
10
-45.8874999503848
20
-12.05000019134423
42
-0.41421356237310025
0
LWPOLYLINE
5
121
100
AcDbEntity
8
0
100
AcDbPolyline
90
8
70
1
43
0.0
10
-64.437499950384804
20
-12.550000191344246
10
-64.437499950384762
20
-25.550000191344214
42
-0.41421356237310025
10
-64.937499950384861
20
-26.050000191344299
10
-77.937499950384819
20
-26.050000191344264
42
-0.41421356237309764
10
-78.437499950384804
20
-25.550000191344282
10
-78.437499950384762
20
-12.550000191344219
42
-0.41421356237312362
10
-77.937499950384804
20
-12.050000191344248
10
-64.937499950384847
20
-12.050000191344264
42
-0.41421356237310153
0
LWPOLYLINE
5
122
100
AcDbEntity
8
0
100
AcDbPolyline
90
8
70
1
43
0.0
10
-83.487499950384745
20
-12.550000191344246
10
-83.48749995038483
20
-25.550000191344267
42
-0.41421356237309503
10
-83.987499950384787
20
-26.050000191344292
10
-96.98749995038483
20
-26.050000191344303
42
-0.41421356237309243
10
-97.487499950384787
20
-25.550000191344214
10
-97.48749995038483
20
-12.550000191344246
42
-0.41421356237314316
10
-96.987499950384844
20
-12.050000191344282
10
-83.987499950384858
20
-12.050000191344282
42
-0.41421356237309115
0
LWPOLYLINE
5
123
100
AcDbEntity
8
0
100
AcDbPolyline
90
8
70
1
43
0.0
10
-106.00574995097814
20
-11.550000190750918
10
-106.00574995097807
20
-26.550000190750971
42
-0.41421356237308721
10
-106.50574995097804
20
-27.050000190750968
10
-112.5057499509781
20
-27.050000190751
42
-0.41421356237311063
10
-113.00574995097813
20
-26.550000190751017
10
-113.00574995097807
20
-11.550000190750913
42
-0.4142135623730937
10
-112.5057499509781
20
-11.05000019075095
10
-106.50574995097813
20
-11.05000019075093
42
-0.4142135623730937
0
LWPOLYLINE
5
124
100
AcDbEntity
8
0
100
AcDbPolyline
90
8
70
1
43
0.0
10
-129.8817499509781
20
-11.550000190750946
10
-129.88174995097813
20
-26.550000190751021
42
-0.41421356237308721
10
-130.3817499509781
20
-27.050000190751014
10
-136.38174995097813
20
-27.05000019075101
42
-0.41421356237305601
10
-136.8817499509781
20
-26.550000190750964
10
-136.8817499509781
20
-11.550000190750954
42
-0.41421356237309503
10
-136.3817499509781
20
-11.050000190750959
10
-130.38174995097808
20
-11.050000190750975
42
-0.41421356237309503
0
LWPOLYLINE
5
125
100
AcDbEntity
8
0
100
AcDbPolyline
90
8
70
1
43
0.0
10
-40.33749995038491
20
-25.550000191344338
10
-40.337499950384768
20
-12.550000191344246
42
-0.41421356237314705
10
-39.837499950384768
20
-12.050000191344218
10
-26.837499950384789
20
-12.050000191344282
42
-0.41421356237303392
10
-26.337499950384782
20
-12.550000191344326
10
-26.337499950384796
20
-25.550000191344214
42
-0.4142135623730534
10
-26.837499950384789
20
-26.050000191344278
10
-39.837499950384796
20
-26.050000191344338
42
-0.41421356237307161
0
LWPOLYLINE
5
126
100
AcDbEntity
8
0
100
AcDbPolyline
90
8
70
1
43
0.0
10
136.881750049022
20
7.4999998092492248
10
136.88175004902192
20
-7.5000001907512441
42
-0.41421356237308593
10
136.38175004902175
20
-8.0000001907514289
10
130.38175004902172
20
-8.0000001907513614
42
-0.41421356237309764
10
129.88175004902195
20
-7.5000001907515994
10
129.88175004902195
20
7.4999998092491875
42
-0.41421356237309437
10
130.38175004902189
20
7.9999998092491129
10
136.38175004902209
20
7.9999998092491253
42
-0.41421356237309503
0
LWPOLYLINE
5
127
100
AcDbEntity
8
0
100
AcDbPolyline
90
8
70
1
43
0.0
10
113.00575004902188
20
7.4999998092490365
10
113.00575004902197
20
-7.500000190750951
42
-0.41421356237309892
10
112.50575004902174
20
-8.0000001907511713
10
106.50575004902201
20
-8.0000001907511074
42
-0.41421356237308915
10
106.00575004902196
20
-7.5000001907510576
10
106.00575004902197
20
7.4999998092490117
42
-0.4142135623730957
10
106.5057500490221
20
7.999999809249136
10
112.5057500490218
20
7.9999998092491298
42
-0.4142135623730937
0
LWPOLYLINE
5
128
100
AcDbEntity
8
0
100
AcDbPolyline
90
9
70
1
43
0.0
10
142.87499979011295
20
-46.124999802387627
10
142.87497590574091
20
46.125000206491507
42
0.41421348393989227
10
141.37497591905878
20
47.624999818127726
10
99.406000049022083
20
47.625000190751415
10
-141.37499995097809
20
47.624999809249069
42
0.41421356237309681
10
-142.87499995068768
20
46.124999809249076
10
-142.87499995097843
20
-46.125000190750889
42
0.41421356237309503
10
-141.37499995097843
20
-47.625000190750868
10
141.37499979011295
20
-47.6250001907514
42
0.41421363820583457
0
LWPOLYLINE
5
129
100
AcDbEntity
8
0
100
AcDbPolyline
90
8
70
1
43
0.0
10
114.44375004902206
20
-6.500000190750991
10
114.4437500490219
20
6.4999998092488118
42
-0.41421356237296497
10
114.94375004902187
20
6.9999998092492994
10
127.94375004902193
20
6.9999998092489033
42
-0.41421356237297668
10
128.44375004902187
20
6.4999998092488678
10
128.44375004902193
20
-6.5000001907510709
42
-0.41421356237291751
10
127.94375004902193
20
-7.0000001907510425
10
114.94375004902189
20
-7.0000001907511189
42
-0.41421356237310347
0
LWPOLYLINE
5
130
100
AcDbEntity
8
0
100
AcDbPolyline
90
8
70
1
43
0.0
10
-128.44374995097812
20
-25.550000190751
10
-128.44374995097812
20
-12.550000190750987
42
-0.41421356237311324
10
-127.9437499509781
20
-12.05000019075098
10
-114.94374995097814
20
-12.050000190750982
42
-0.41421356237308332
10
-114.44374995097812
20
-12.550000190750987
10
-114.44374995097806
20
-25.550000190750968
42
-0.41421356237309503
10
-114.94374995097813
20
-26.050000190751
10
-127.94374995097812
20
-26.050000190750964
42
-0.41421356237307161
0
LWPOLYLINE
5
131
100
AcDbEntity
8
0
100
AcDbPolyline
90
8
70
1
43
0.0
10
126.8500000490221
20
45.099999809250633
10
139.85000004902196
20
45.0999998092501
42
-0.41421356237321472
10
140.35000004902207
20
44.599999809248239
10
140.35000004902204
20
31.599999809248544
42
-0.41421356237306123
10
139.85000004902199
20
31.099999809249361
10
126.85000004902207
20
31.099999809249006
42
-0.4142135623730846
10
126.35000004902209
20
31.599999809249013
10
126.3500000490221
20
44.599999809250633
42
-0.41421356237310542
0
LWPOLYLINE
5
132
100
AcDbEntity
8
0
100
AcDbPolyline
90
12
70
1
43
0.0
10
-112.60937495068146
20
-4.000000191047639
10
-115.10937495068146
20
-4.0000001910476035
42
-0.41421356237310153
10
-117.10937495068153
20
-2.0000001910476195
10
-117.10937495068146
20
3.4999998089523809
42
-0.41421356237315354
10
-116.60937495068143
20
3.9999998089523636
10
-116.1093749506814
20
3.999999808952388
42
-0.41421356237310414
10
-115.6093749506814
20
3.4999998089523832
10
-115.60937495068143
20
-2.0000001910476195
42
0.41421356237312101
10
-115.10937495068146
20
-2.5000001910475111
10
-112.60937495068146
20
-2.5000001910475822
42
-0.41421356237307422
10
-112.10937495068148
20
-3.0000001910475182
10
-112.1093749506815
20
-3.5000001910476142
42
-0.4142135623730534
0
LINE
5
133
100
AcDbEntity
8
0
100
AcDbLine
10
41.734068628512169
20
-38.840000036019958
30
2.2613858980328142e-15
11
51.399999999138444
21
-38.840000002776385
31
6.0499106538715806e-15
0
ARC
5
134
100
AcDbEntity
8
0
100
AcDbCircle
10
51.399999999998258
20
-39.090000002776385
30
-2.7401472738533392e-16
40
0.25000000000000355
210
-3.58690744400955e-17
220
0
230
1
100
AcDbArc
50
0
51
90.00000019705476
0
LINE
5
135
100
AcDbEntity
8
0
100
AcDbLine
10
51.649999999998258
20
-39.090000002776385
30
-2.6504745877530991e-16
11
51.649999999998258
21
-43.592126244525282
31
2.8831819988924559e-15
0
SPLINE
5
136
100
AcDbEntity
8
0
100
AcDbSpline
70
0
71
3
72
18
73
14
74
0
42
0.000000001
43
0.0000000001
44
0.0000000001
40
0
40
0
40
0
40
0
40
0.0097661118346730035
40
0.0097661118346730035
40
0.019532223669346968
40
0.019532223669346968
40
0.029298335504019661
40
0.029298335504019661
40
0.039064447338692063
40
0.039064447338692063
40
0.045861841708544231
40
0.045861841708544231
40
0.052659236078396267
40
0.052659236078396267
40
0.052659236078396267
40
0.052659236078396267
10
51.273651983942926
20
-43.807848702417076
30
5.8657839287259097e-15
10
51.30174224592988
20
-43.824301087148882
30
5.8692239936688639e-15
10
51.332777466286629
20
-43.835109525314813
30
6.0364312844969559e-15
10
51.397244064754624
20
-43.844221759365965
30
6.0443261658435314e-15
10
51.430059107047519
20
-43.842438437327104
30
6.0365149981943453e-15
10
51.493158557086296
20
-43.826393670820813
30
6.0442424521461404e-15
10
51.522839699697954
20
-43.812285623066252
30
6.0371772660375964e-15
10
51.575123495072681
20
-43.773486397962522
30
6.0435801843028902e-15
10
51.597226286255101
20
-43.749166162352545
30
6.0383189200966813e-15
10
51.625752613062375
20
-43.70189482749997
30
6.0418123875782773e-15
10
51.634767895912432
20
-43.680993669162106
30
6.0396346420580109e-15
10
51.646919695316967
20
-43.637337395553111
30
6.0411228082824764e-15
10
51.649999999998258
20
-43.614784225758129
30
6.1791566032483878e-15
10
51.649999999998258
20
-43.592126244525282
30
6.1791566032483878e-15
0
SPLINE
5
137
100
AcDbEntity
8
0
100
AcDbSpline
70
4
71
5
72
14
73
8
74
0
42
0.000000001
43
0.0000000001
44
0.0000000001
40
-0.99117589645802673
40
-0.99117589645802673
40
-0.99117589645802673
40
-0.99117589645802673
40
-0.99117589645802673
40
-0.99117589645802673
40
-0.8999999999999998
40
-0.79999999999999982
40
-0.76561199778231925
40
-0.76561199778231925
40
-0.76561199778231925
40
-0.76561199778231925
40
-0.76561199778231925
40
-0.76561199778231925
41
1
41
1
41
1
41
1
41
1
41
1
41
1
41
1
10
51.273651983942941
20
-43.80784870241709
30
-2.7401472738533392e-16
10
50.495921587175772
20
-43.352334271431168
30
-2.7401472738533392e-16
10
48.865191190425335
20
-42.435847392347824
30
-2.7401472738533392e-16
10
46.941131134752226
20
-41.450192305546061
30
-2.7401472738533392e-16
10
45.017071079064941
20
-40.579361701325347
30
-2.7401472738533392e-16
10
43.093011023365491
20
-39.829203206927382
30
-2.7401472738533392e-16
10
41.9466813644475
20
-39.42667684638748
30
-2.7401472738533392e-16
10
41.653351705530142
20
-39.32661106324715
30
-2.7401472738533392e-16
0
SPLINE
5
138
100
AcDbEntity
8
0
100
AcDbSpline
70
0
71
3
72
22
73
18
74
0
42
0.000000001
43
0.0000000001
44
0.0000000001
40
0
40
0
40
0
40
0
40
0.0097661118346730452
40
0.0097661118346730452
40
0.019532223669346566
40
0.019532223669346566
40
0.029298335504019637
40
0.029298335504019637
40
0.039064447338692791
40
0.039064447338692791
40
0.048830559173366629
40
0.048830559173366629
40
0.058596671008039225
40
0.058596671008039225
40
0.064557756848397707
40
0.064557756848397707
40
0.070518842688755398
40
0.070518842688755398
40
0.070518842688755398
40
0.070518842688755398
10
41.734068628512169
20
-38.840000036019958
30
4.316803808810701e-15
10
41.701514922396598
20
-38.840000036131919
30
4.3128171296112188e-15
10
41.669272447476487
20
-38.846358498933959
30
4.9338438972387287e-15
10
41.609039624490961
20
-38.871076552308594
30
4.9264675038514448e-15
10
41.581625135042692
20
-38.889199824818533
30
4.932993144476433e-15
10
41.53528615904861
20
-38.934934652152386
30
4.9273182566137405e-15
10
41.516804698369981
20
-38.962108957099574
30
4.9317175131033126e-15
10
41.491298363656774
20
-39.022012229271766
30
4.9285938879868617e-15
10
41.484517344084075
20
-39.05416848856499
30
4.930208016051728e-15
10
41.483662967023243
20
-39.119270294740211
30
4.9301033850384455e-15
10
41.489597777845475
20
-39.151593432871941
30
4.9286906852806671e-15
10
41.513523292784797
20
-39.212145434179291
30
4.9316207158095063e-15
10
41.531285255938641
20
-39.239795387219033
30
4.9273927257696025e-15
10
41.56761779261128
20
-39.277587208323212
30
4.9318421782437074e-15
10
41.583047710952187
20
-39.29021869266991
30
4.9281029773405306e-15
10
41.616571224931675
20
-39.311560836300281
30
4.9322084237496437e-15
10
41.634545590276545
20
-39.320195589756942
30
4.7196857985428035e-15
10
41.653351705530916
20
-39.326611063247427
30
4.7219888834278699e-15
0
LINE
5
139
100
AcDbEntity
8
0
100
AcDbLine
10
18.915931371485154
20
-37.339999967813242
30
9.2095670736214388e-16
11
9.2500000008588721
21
-37.340000001056808
31
8.6280401168900287e-16
0
ARC
5
140
100
AcDbEntity
8
0
100
AcDbCircle
10
9.2499999999990585
20
-37.090000001056808
30
-2.7401472738533392e-16
40
0.25000000000000022
210
-3.5869074440097213e-17
220
6.3716275704623335e-31
230
1
100
AcDbArc
50
180
51
270.00000019705476
0
LINE
5
141
100
AcDbEntity
8
0
100
AcDbLine
10
8.9999999999990585
20
-37.090000001056808
30
-2.8298199599535821e-16
11
8.9999999999990532
21
-32.587873759307918
31
2.4640231540770905e-16
0
SPLINE
5
142
100
AcDbEntity
8
0
100
AcDbSpline
70
0
71
3
72
18
73
14
74
0
42
0.000000001
43
0.0000000001
44
0.0000000001
40
0
40
0
40
0
40
0
40
0.0097661118346730174
40
0.0097661118346730174
40
0.01953222366934617
40
0.01953222366934617
40
0.029298335504019554
40
0.029298335504019554
40
0.039064447338692326
40
0.039064447338692326
40
0.045861841708544467
40
0.045861841708544467
40
0.052659236078396461
40
0.052659236078396461
40
0.052659236078396461
40
0.052659236078396461
10
9.3763480160543917
20
-32.372151301416118
30
1.4957773677265602e-15
10
9.3482577540674345
20
-32.355698916684311
30
1.4923373027836061e-15
10
9.3172225337106891
20
-32.34489047851838
30
1.3258783111866163e-15
10
9.2527559352426874
20
-32.335778244467228
30
1.317983429840041e-15
10
9.219940892949797
20
-32.337561566506082
30
1.3257945974892259e-15
10
9.1568414429110199
20
-32.35360633301238
30
1.3180671435374312e-15
10
9.1271603002993622
20
-32.367714380766941
30
1.3251323296459757e-15
10
9.0748765049246316
20
-32.406513605870678
30
1.3187294113806819e-15
10
9.0527737137422086
20
-32.430833841480656
30
1.3239906755868907e-15
10
9.0242473869349364
20
-32.47810517633323
30
1.3204972081052951e-15
10
9.0152321040848822
20
-32.499006334671094
30
1.3226749536255615e-15
10
9.0030803046803385
20
-32.542662608280082
30
1.3211867874010958e-15
10
8.9999999999990532
20
-32.565215778075078
30
1.0790695838765758e-15
10
8.9999999999990532
20
-32.587873759307918
30
1.0790695838765758e-15
0
SPLINE
5
143
100
AcDbEntity
8
0
100
AcDbSpline
70
4
71
5
72
14
73
8
74
0
42
0.000000001
43
0.0000000001
44
0.0000000001
40
-0.99117589645802662
40
-0.99117589645802662
40
-0.99117589645802662
40
-0.99117589645802662
40
-0.99117589645802662
40
-0.99117589645802662
40
-0.8999999999999998
40
-0.79999999999999982
40
-0.76561199778231892
40
-0.76561199778231892
40
-0.76561199778231892
40
-0.76561199778231892
40
-0.76561199778231892
40
-0.76561199778231892
41
1
41
1
41
1
41
1
41
1
41
1
41
1
41
1
10
9.3763480160543988
20
-32.372151301416118
30
-2.7401472738533392e-16
10
10.154078412821534
20
-32.827665732402011
30
-2.7401472738533392e-16
10
11.784808809571983
20
-33.744152611485376
30
-2.7401472738533392e-16
10
13.708868865245094
20
-34.729807698287139
30
-2.7401472738533392e-16
10
15.632928920932379
20
-35.600638302507861
30
-2.7401472738533392e-16
10
17.556988976631835
20
-36.350796796905811
30
-2.7401472738533392e-16
10
18.703318635549838
20
-36.753323157445713
30
-2.7401472738533392e-16
10
18.996648294467192
20
-36.853388940586044
30
-2.7401472738533392e-16
0
SPLINE
5
144
100
AcDbEntity
8
0
100
AcDbSpline
70
0
71
3
72
22
73
18
74
0
42
0.000000001
43
0.0000000001
44
0.0000000001
40
0
40
0
40
0
40
0
40
0.0097661118346731805
40
0.0097661118346731805
40
0.019532223669346177
40
0.019532223669346177
40
0.029298335504019595
40
0.029298335504019595
40
0.03906444733869277
40
0.03906444733869277
40
0.048830559173365998
40
0.048830559173365998
40
0.058596671008039378
40
0.058596671008039378
40
0.064557756848397083
40
0.064557756848397083
40
0.070518842688755037
40
0.070518842688755037
40
0.070518842688755037
40
0.070518842688755037
10
18.915931371485154
20
-37.339999967813242
30
1.9464313218649793e-15
10
18.948485077600733
20
-37.339999967701289
30
1.9504180010644615e-15
10
18.980727552520836
20
-37.333641504899241
30
2.1166327829401041e-15
10
19.040960375506369
20
-37.308923451524606
30
2.124009176327388e-15
10
19.068374864954631
20
-37.290800179014674
30
2.0749908207757927e-15
10
19.114713840948717
20
-37.245065351680815
30
2.0806657086384852e-15
10
19.133195301627339
20
-37.217891046733627
30
2.0244886640531714e-15
10
19.158701636340545
20
-37.157987774561434
30
2.0276122891696219e-15
10
19.165482655913241
20
-37.12583151526821
30
1.9726885013867579e-15
10
19.166337032974077
20
-37.060729709092996
30
1.9727931324000396e-15
10
19.160402222151845
20
-37.028406570961266
30
1.9273468846897215e-15
10
19.136476707212534
20
-36.967854569653909
30
1.9244168541608827e-15
10
19.118714744058682
20
-36.940204616614167
30
1.8952532637559277e-15
10
19.082382207386043
20
-36.902412795509989
30
1.8908038112818224e-15
10
19.06695228904513
20
-36.889781311163297
30
1.883012368562653e-15
10
19.033428775065651
20
-36.868439167532919
30
1.8789069221535392e-15
10
19.015454409720782
20
-36.859804414076265
30
2.7814016752189131e-15
10
18.996648294466407
20
-36.853388940585781
30
2.7790985903338467e-15
0
LINE
5
145
100
AcDbEntity
8
0
100
AcDbLine
10
-9.2500000000009148
20
-37.340000001916579
30
-1.399548826829102e-15
11
-18.915931470346294
21
-37.340000001916543
31
-1.4633438484235612e-15
0
SPLINE
5
146
100
AcDbEntity
8
0
100
AcDbSpline
70
0
71
3
72
22
73
18
74
0
42
0.000000001
43
0.0000000001
44
0.0000000001
40
0
40
0
40
0
40
0
40
0.0097661118346732689
40
0.0097661118346732689
40
0.019532223669346389
40
0.019532223669346389
40
0.02929833550401937
40
0.02929833550401937
40
0.039064447338692659
40
0.039064447338692659
40
0.048830559173365803
40
0.048830559173365803
40
0.058596671008038628
40
0.058596671008038628
40
0.064557756921953605
40
0.064557756921953605
40
0.07051884283586804
40
0.07051884283586804
40
0.07051884283586804
40
0.07051884283586804
10
-18.996648393613683
20
-36.853388974493377
30
-2.6951952209374268e-15
10
-19.02745865701544
20
-36.863899514487777
30
-2.6989683899830115e-15
10
-19.055921415325617
20
-36.880327497551889
30
-2.5608477181691026e-15
10
-19.10494775512754
20
-36.92316898600717
30
-2.5668517131803361e-15
10
-19.12504261808936
20
-36.949172903418287
30
-2.5620684085579872e-15
10
-19.15413357097426
20
-37.007419719534589
30
-2.5656310227914514e-15
10
-19.162851535531967
20
-37.03910574693073
30
-2.5635558317216938e-15
10
-19.167651024710889
20
-37.104036017460423
30
-2.5641435996277445e-15
10
-19.163686663599631
20
-37.136659491817973
30
-2.5650872610433109e-15
10
-19.14347601397472
20
-37.198550563623016
30
-2.5626121703061274e-15
10
-19.127422950287141
20
-37.227226448690807
30
-2.5664333804276174e-15
10
-19.085228502799147
20
-37.276810757989416
30
-2.5612660509218209e-15
10
-19.059490520914462
20
-37.297245129197798
30
-2.5673926220735059e-15
10
-19.01290204735842
20
-37.321282373650199
30
-2.5616871795717488e-15
10
-18.994220193602168
20
-37.328255545591347
30
-2.5662144364811289e-15
10
-18.955601372109214
20
-37.33763103223167
30
-2.5614849948683098e-15
10
-18.935801756726008
20
-37.340000001916543
30
-2.4275052458578807e-15
10
-18.915931470346294
20
-37.340000001916543
30
-2.4250718375965746e-15
0
SPLINE
5
147
100
AcDbEntity
8
0
100
AcDbSpline
70
4
71
5
72
14
73
8
74
0
42
0.000000001
43
0.0000000001
44
0.0000000001
40
-0.23438800454215797
40
-0.23438800454215797
40
-0.23438800454215797
40
-0.23438800454215797
40
-0.23438800454215797
40
-0.23438800454215797
40
-0.20000000000000001
40
-0.10000000000000001
40
-0.0088241035379152122
40
-0.0088241035379152122
40
-0.0088241035379152122
40
-0.0088241035379152122
40
-0.0088241035379152122
40
-0.0088241035379152122
41
1
41
1
41
1
41
1
41
1
41
1
41
1
41
1
10
-18.996648393612606
20
-36.853388974493008
30
-2.7401472738533392e-16
10
-18.703318714867553
20
-36.753323185382641
30
-2.7401472738533392e-16
10
-17.556989036122093
20
-36.350796820185487
30
-2.7401472738533392e-16
10
-15.632928960560477
20
-35.600638320527203
30
-2.7401472738533392e-16
10
-13.708868885010233
20
-34.729807708485403
30
-2.7401472738533392e-16
10
-11.784808809473091
20
-33.744152611481596
30
-2.7401472738533392e-16
10
-10.154078412686292
20
-32.827665732346318
30
-2.7401472738533392e-16
10
-9.376348015883627
20
-32.372151301322063
30
-2.7401472738533392e-16
0
SPLINE
5
148
100
AcDbEntity
8
0
100
AcDbSpline
70
0
71
3
72
18
73
14
74
0
42
0.000000001
43
0.0000000001
44
0.0000000001
40
0
40
0
40
0
40
0
40
0.0097661118346732932
40
0.0097661118346732932
40
0.019532223669346413
40
0.019532223669346413
40
0.029298335504019512
40
0.029298335504019512
40
0.03906444733869275
40
0.03906444733869275
40
0.045861841708715927
40
0.045861841708715927
40
0.052659236078739104
40
0.052659236078739104
40
0.052659236078739104
40
0.052659236078739104
10
-9.0000000000009077
20
-32.587873759314952
30
-1.8882429340846827e-15
10
-9.0000000000009077
20
-32.555320053199374
30
-1.8882429340846827e-15
10
-9.0063584626920647
20
-32.5230775782574
30
-1.5908910248930722e-15
10
-9.0310765158595387
20
-32.462844755186858
30
-1.5939181133623423e-15
10
-9.049199788275196
20
-32.435430265676267
30
-1.5896041186422679e-15
10
-9.0949346154496737
20
-32.389091289524885
30
-1.5952050196131466e-15
10
-9.1221089203333037
20
-32.370609828752805
30
-1.5887365516068727e-15
10
-9.1820121924177709
20
-32.345103493833577
30
-1.596072586648542e-15
10
-9.2141684516876747
20
-32.338322474150289
30
-1.5884182332003276e-15
10
-9.2693753850469207
20
-32.33759795431596
30
-1.5951791326232417e-15
10
-9.2919670344543377
20
-32.340382037973093
30
-1.5897218592230956e-15
10
-9.3357790120217388
20
-32.351959908067712
30
-1.5950872790323189e-15
10
-9.3567966744491962
20
-32.360700137517966
30
-1.6247046898550718e-15
10
-9.3763480160591897
20
-32.372151301424871
30
-1.6270990386472433e-15
0
LINE
5
149
100
AcDbEntity
8
0
100
AcDbLine
10
-9.0000000000009077
20
-32.587873759314952
30
-1.8882429340846827e-15
11
-9.000000000000913
21
-37.090000001916579
31
-1.3842377520104937e-15
0
ARC
5
150
100
AcDbEntity
8
0
100
AcDbCircle
10
-9.250000000000913
20
-37.090000001916579
30
-2.7401472738533392e-16
40
0.24999999999999911
210
-1.9993501955251536e-29
220
-4.5021363977750889e-15
230
1
100
AcDbArc
50
-90.000000000000398
51
0
0
LINE
5
151
100
AcDbEntity
8
0
100
AcDbLine
10
-51.400000000000112
20
-38.8400000019166
30
-6.6092247446156966e-15
11
-41.734068529654721
21
-38.840000001916636
31
-2.8844466037232432e-15
0
SPLINE
5
152
100
AcDbEntity
8
0
100
AcDbSpline
70
0
71
3
72
22
73
18
74
0
42
0.000000001
43
0.0000000001
44
0.0000000001
40
0
40
0
40
0
40
0
40
0.0097661118346735135
40
0.0097661118346735135
40
0.019532223669346406
40
0.019532223669346406
40
0.029298335504019397
40
0.029298335504019397
40
0.039064447338692715
40
0.039064447338692715
40
0.048830559173366005
40
0.048830559173366005
40
0.058596671008038927
40
0.058596671008038927
40
0.064557756921953965
40
0.064557756921953965
40
0.070518842835868206
40
0.070518842835868206
40
0.070518842835868206
40
0.070518842835868206
10
-41.653351606387332
20
-39.326611029339801
30
-5.4379164061846408e-15
10
-41.622541342985578
20
-39.316100489345402
30
-5.4341432371390569e-15
10
-41.594078584675394
20
-39.299672506281283
30
-5.3424092747432275e-15
10
-41.545052244873474
20
-39.256831017826002
30
-5.3364052797319943e-15
10
-41.524957381911662
20
-39.230827100414885
30
-5.3411885843543432e-15
10
-41.495866429026755
20
-39.17258028429859
30
-5.3376259701208794e-15
10
-41.487148464469044
20
-39.140894256902442
30
-5.3397011611906366e-15
10
-41.482348975290122
20
-39.075963986372756
30
-5.3391133932845859e-15
10
-41.486313336401388
20
-39.043340512015206
30
-5.3381697318690195e-15
10
-41.506523986026302
20
-38.981449440210156
30
-5.340644822606203e-15
10
-41.522577049713874
20
-38.952773555142372
30
-5.336823612484713e-15
10
-41.564771497201882
20
-38.903189245843762
30
-5.3419909419905095e-15
10
-41.590509479086549
20
-38.882754874635374
30
-5.3358643708388249e-15
10
-41.637097952642598
20
-38.858717630182973
30
-5.3415698133405812e-15
10
-41.655779806398847
20
-38.851744458241832
30
-5.3370425564312011e-15
10
-41.6943986278918
20
-38.842368971601509
30
-5.3417719980440206e-15
10
-41.714198243275007
20
-38.840000001916636
30
-5.2328904604176968e-15
10
-41.734068529654721
20
-38.840000001916636
30
-5.2353238686790028e-15
0
SPLINE
5
153
100
AcDbEntity
8
0
100
AcDbSpline
70
4
71
5
72
14
73
8
74
0
42
0.000000001
43
0.0000000001
44
0.0000000001
40
-0.23438800454215813
40
-0.23438800454215813
40
-0.23438800454215813
40
-0.23438800454215813
40
-0.23438800454215813
40
-0.23438800454215813
40
-0.20000000000000001
40
-0.10000000000000001
40
-0.0088241035379149901
40
-0.0088241035379149901
40
-0.0088241035379149901
40
-0.0088241035379149901
40
-0.0088241035379149901
40
-0.0088241035379149901
41
1
41
1
41
1
41
1
41
1
41
1
41
1
41
1
10
-41.653351606388412
20
-39.326611029340171
30
-2.7401472738533392e-16
10
-41.946681285133465
20
-39.426676818450545
30
-2.7401472738533392e-16
10
-43.093010963878918
20
-39.829203183647685
30
-2.7401472738533392e-16
10
-45.017071039440538
20
-40.579361683305976
30
-2.7401472738533392e-16
10
-46.941131114990789
20
-41.450192295347776
30
-2.7401472738533392e-16
10
-48.865191190527923
20
-42.43584739235159
30
-2.7401472738533392e-16
10
-50.495921587314747
20
-43.352334271486875
30
-2.7401472738533392e-16
10
-51.273651984117421
20
-43.807848702511151
30
-2.7401472738533392e-16
0
SPLINE
5
154
100
AcDbEntity
8
0
100
AcDbSpline
70
0
71
3
72
18
73
14
74
0
42
0.000000001
43
0.0000000001
44
0.0000000001
40
0
40
0
40
0
40
0
40
0.009766111834673229
40
0.009766111834673229
40
0.019532223669346892
40
0.019532223669346892
40
0.029298335504019925
40
0.029298335504019925
40
0.039064447338692625
40
0.039064447338692625
40
0.045861841708715705
40
0.045861841708715705
40
0.052659236078739201
40
0.052659236078739201
40
0.052659236078739201
40
0.052659236078739201
10
-51.650000000000126
20
-43.592126244518226
30
-6.5716221696056955e-15
10
-51.650000000000126
20
-43.624679950633805
30
-6.5716221696056955e-15
10
-51.643641537308966
20
-43.656922425575779
30
-6.5011098582690621e-15
10
-51.61892348414149
20
-43.717155248646328
30
-6.4980827697997914e-15
10
-51.600800211725833
20
-43.744569738156912
30
-6.5560194633268817e-15
10
-51.555065384551355
20
-43.790908714308294
30
-6.550418562356004e-15
10
-51.527891079667718
20
-43.809390175080374
30
-6.6053886582534273e-15
10
-51.467987807583256
20
-43.834896509999609
30
-6.5980526232117583e-15
10
-51.435831548313359
20
-43.84167752968289
30
-6.6418249040363159e-15
10
-51.380624614954115
20
-43.842402049517219
30
-6.6350640046134024e-15
10
-51.358032965546691
20
-43.8396179658601
30
-6.6553971144219422e-15
10
-51.314220987979297
20
-43.828040095765466
30
-6.65003169461272e-15
10
-51.293203325551829
20
-43.81929986631522
30
-6.4173301811354032e-15
10
-51.273651983941839
20
-43.807848702408307
30
-6.4149358323432317e-15
0
LINE
5
155
100
AcDbEntity
8
0
100
AcDbLine
10
-51.650000000000126
20
-43.592126244518226
30
-6.5716221696056955e-15
11
-51.650000000000119
21
-39.0900000019166
31
-6.6577971189799886e-15
0
ARC
5
156
100
AcDbEntity
8
0
100
AcDbCircle
10
-51.400000000000112
20
-39.0900000019166
30
-2.7401472738533392e-16
40
0.24999999999999911
210
0
220
2.534084006892154e-14
230
1
100
AcDbArc
50
90
51
180
0
LWPOLYLINE
5
157
100
AcDbEntity
8
0
100
AcDbPolyline
90
8
70
1
43
0.0
10
-60.649999950978071
20
-45.600000190750848
42
0.41421356237309503
10
-60.149999950978113
20
-46.100000190750805
10
-54.149999950978085
20
-46.100000190750841
42
0.41421356237309503
10
-53.649999950978113
20
-45.600000190750869
10
-53.64999995097812
20
-30.600000190750961
42
0.41421356237307422
10
-54.149999950978049
20
-30.100000190751
10
-60.149999950978128
20
-30.100000190750986
42
0.41421356237306639
10
-60.649999950978071
20
-30.600000190750933
0
LWPOLYLINE
5
158
100
AcDbEntity
8
0
100
AcDbPolyline
90
8
70
1
43
0.0
10
-6.9999999509780864
20
-44.600000190750947
42
0.4142135623730222
10
-6.4999999509780615
20
-45.100000190750947
10
6.5000000490219145
20
-45.100000190751111
42
0.41421356237305079
10
7.0000000490218639
20
-44.600000190750997
10
7.0000000490219172
20
-31.60000019075099
42
0.41421356237305079
10
6.5000000490218932
20
-31.100000190751039
10
-6.4999999509780784
20
-31.100000190751
42
0.41421356237300982
10
-6.9999999509780864
20
-31.600000190751004
0
LWPOLYLINE
5
159
100
AcDbEntity
8
0
100
AcDbPolyline
90
8
70
1
43
0.0
10
135.08750004902197
20
-45.100000190751189
10
122.08750004902193
20
-45.100000190750819
42
-0.41421356237318346
10
121.58750004902188
20
-44.600000190750904
10
121.58750004902195
20
-31.600000190750947
42
-0.41421356237294155
10
122.08750004902187
20
-31.100000190751182
10
135.08750004902197
20
-31.100000190750908
42
-0.41421356237312362
10
135.58750004902191
20
-31.60000019075089
10
135.58750004902194
20
-44.600000190750755
42
-0.41421356237311585
0
LWPOLYLINE
5
160
100
AcDbEntity
8
0
100
AcDbPolyline
90
8
70
1
43
0.0
10
111.27500004902195
20
-45.100000190751189
10
98.275000049021983
20
-45.100000190750947
42
-0.41421356237299095
10
97.775000049021997
20
-44.600000190750997
10
97.775000049022012
20
-31.600000190750865
42
-0.41421356237311324
10
98.275000049022026
20
-31.100000190751182
10
111.27500004902195
20
-31.100000190750965
42
-0.41421356237317569
10
111.77500004902198
20
-31.600000190751128
10
111.77500004902197
20
-44.600000190750997
42
-0.4142135623730378
0
LWPOLYLINE
5
161
100
AcDbEntity
8
0
100
AcDbPolyline
90
8
70
1
43
0.0
10
87.462500049022012
20
-45.100000190751032
10
74.462500049021969
20
-45.100000190750976
42
-0.41421356237312623
10
73.962500049022026
20
-44.600000190750833
10
73.962500049022012
20
-31.60000019075089
42
-0.41421356237292595
10
74.46250004902187
20
-31.100000190750979
10
87.462500049022012
20
-31.100000190751118
42
-0.41421356237318868
10
87.962500049021941
20
-31.600000190751068
10
87.962500049021969
20
-44.600000190751111
42
-0.4142135623732407
0
LWPOLYLINE
5
162
100
AcDbEntity
8
0
100
AcDbPolyline
90
8
70
1
43
0.0
10
53.65000004902199
20
-45.600000190751587
10
53.650000049022012
20
-30.600000190751018
42
-0.41421356237309764
10
54.15000004902204
20
-30.100000190750986
10
60.150000049021983
20
-30.100000190751
42
-0.41421356237313667
10
60.650000049022019
20
-30.600000190750961
10
60.650000049021884
20
-45.600000190751693
42
-0.41421356237310025
10
60.150000049021877
20
-46.100000190751693
10
54.15000004902204
20
-46.100000190751651
42
-0.41421356237308982
0
LWPOLYLINE
5
163
100
AcDbEntity
8
0
100
AcDbPolyline
90
8
70
1
43
0.0
10
120.80000004902183
20
31.09999980924691
10
107.80000004902199
20
31.099999809249272
42
-0.41421356237311324
10
107.30000004902192
20
31.599999809248956
10
107.30000004902197
20
44.599999809248317
42
-0.41421356237308982
10
107.80000004902203
20
45.099999809251408
10
120.80000004902195
20
45.099999809250889
42
-0.4142135623730846
10
121.30000004902193
20
44.599999809250889
10
121.30000004902193
20
31.59999980924691
42
-0.41421356237314705
0
LWPOLYLINE
5
164
100
AcDbEntity
8
0
100
AcDbPolyline
90
8
70
1
43
0.0
10
114.15625004902198
20
-12.550000190751012
10
114.15625004902182
20
-25.550000190754119
42
-0.41421356237316526
10
113.65625004902169
20
-26.050000190754115
10
100.65625004902195
20
-26.050000190750776
42
-0.41421356237314705
10
100.15625004902198
20
-25.550000190751
10
100.15625004902196
20
-12.550000190751094
42
-0.41421356237307683
10
100.65625004902193
20
-12.050000190751122
10
113.65625004902198
20
-12.050000190750998
42
-0.41421356237309892
0
LWPOLYLINE
5
165
100
AcDbEntity
8
0
100
AcDbPolyline
90
8
70
1
43
0.0
10
139.85000004902199
20
-26.050000190751199
42
0.41421356237305601
10
140.35000004902196
20
-25.550000190751124
10
140.35000004902204
20
-12.550000190750946
42
0.41421356237307422
10
139.85000004902196
20
-12.050000190750922
10
126.85000004902199
20
-12.050000190750991
42
0.41421356237309503
10
126.35000004902197
20
-12.550000190750993
10
126.35000004902197
20
-25.550000190750609
42
0.4142135623730846
10
126.85000004902196
20
-26.050000190750904
0
LWPOLYLINE
5
166
100
AcDbEntity
8
0
100
AcDbPolyline
90
8
70
1
43
0.0
10
-111.77499995097807
20
-44.600000190750947
10
-111.77499995097807
20
-31.600000190750947
42
-0.41421356237311846
10
-111.27499995097807
20
-31.100000190750968
10
-98.274999950978099
20
-31.100000190750979
42
-0.41421356237310542
10
-97.774999950978099
20
-31.600000190751004
10
-97.774999950978128
20
-44.600000190750997
42
-0.41421356237312623
10
-98.274999950978099
20
-45.100000190751018
10
-111.27499995097807
20
-45.100000190750961
42
-0.41421356237305862
0
LWPOLYLINE
5
167
100
AcDbEntity
8
0
100
AcDbPolyline
90
8
70
1
43
0.0
10
-73.962499950978071
20
-31.600000190751004
10
-73.962499950978071
20
-44.600000190750997
42
-0.41421356237307422
10
-74.462499950978042
20
-45.100000190750947
10
-87.462499950978057
20
-45.10000019075099
42
-0.41421356237311585
10
-87.962499950978071
20
-44.600000190750947
10
-87.962499950978099
20
-31.600000190751004
42
-0.41421356237305601
10
-87.462499950978057
20
-31.100000190750954
10
-74.462499950978014
20
-31.100000190750965
42
-0.41421356237311324
0
LWPOLYLINE
5
168
100
AcDbEntity
8
0
100
AcDbPolyline
90
8
70
1
43
0.0
10
-135.08749995097807
20
-31.100000190750961
42
0.41421356237312362
10
-135.5874999509781
20
-31.600000190751004
10
-135.58749995097807
20
-44.600000190750947
42
0.4142135623730534
10
-135.0874999509781
20
-45.100000190750933
10
-122.0874999509781
20
-45.100000190751032
42
0.41421356237314189
10
-121.5874999509781
20
-44.600000190750947
10
-121.58749995097806
20
-31.600000190751004
42
0.41421356237313928
10
-122.08749995097807
20
-31.100000190750976
0
LWPOLYLINE
5
169
100
AcDbEntity
8
0
100
AcDbPolyline
90
8
70
1
43
0.0
10
-11.262499950384814
20
6.999999808655712
42
0.4142135623731113
10
-11.762499950384822
20
6.4999998086556774
10
-11.762499950384806
20
-6.5000001913442231
42
0.41421356237305729
10
-11.262499950384814
20
-7.0000001913441503
10
1.7375000496152277
20
-7.0000001913442471
42
0.41421356237305956
10
2.2375000496152353
20
-6.5000001913442222
10
2.2375000496152886
20
6.499999808655696
42
0.4142135623730846
10
1.7375000496152637
20
6.9999998086557031
0
LWPOLYLINE
5
170
100
AcDbEntity
8
0
100
AcDbPolyline
90
8
70
1
43
0.0
10
135.58750004902194
20
25.549999809248874
10
135.58750004902194
20
12.549999809248986
42
-0.41421356237305473
10
135.08750004902194
20
12.049999809248689
10
122.08750004902193
20
12.049999809249163
42
-0.41421356237320039
10
121.58750004902191
20
12.549999809248924
10
121.58750004902194
20
25.549999809249243
42
-0.41421356237301959
10
122.08750004902191
20
26.049999809249549
10
135.08750004902197
20
26.049999809249115
42
-0.41421356237300139
0
LWPOLYLINE
5
171
100
AcDbEntity
8
0
100
AcDbPolyline
90
8
70
1
43
0.0
10
64.150000049021969
20
44.599999809249127
10
64.150000049021955
20
31.599999809249137
42
-0.414213562373004
10
63.65000004902199
20
31.099999809249201
10
50.650000049021955
20
31.099999809249205
42
-0.41421356237326934
10
50.15000004902199
20
31.599999809249042
10
50.150000049022012
20
44.599999809247947
42
-0.41421356237294416
10
50.650000049021955
20
45.099999809249624
10
63.650000049021997
20
45.099999809247883
42
-0.41421356237313145
0
LWPOLYLINE
5
172
100
AcDbEntity
8
0
100
AcDbPolyline
90
8
70
1
43
0.0
10
7.7875000496153035
20
6.9999998086557653
10
20.787500049615275
20
6.999999808655649
42
-0.41421356237314638
10
21.287500049615247
20
6.4999998086557316
10
21.287500049615183
20
-6.5000001913442489
42
-0.41421356237301765
10
20.78750004961524
20
-7.0000001913442746
10
7.7875000496152325
20
-7.0000001913442125
42
-0.41421356237307944
10
7.2875000496152431
20
-6.5000001913442498
10
7.2875000496152431
20
6.4999998086556774
42
-0.4142135623731113
0
LWPOLYLINE
5
173
100
AcDbEntity
8
0
100
AcDbPolyline
90
8
70
1
43
0.0
10
-12.549999950978119
20
31.099999809248988
10
-25.549999950978091
20
31.099999809249006
42
-0.41421356237307422
10
-26.049999950978091
20
31.599999809249113
10
-26.04999995097808
20
44.599999809249368
42
-0.41421356237308982
10
-25.549999950978098
20
45.099999809249212
10
-12.549999950978119
20
45.099999809249319
42
-0.41421356237310542
10
-12.049999950978103
20
44.599999809248999
10
-12.049999950978094
20
31.599999809249081
42
-0.41421356237309243
0
LWPOLYLINE
5
174
100
AcDbEntity
8
0
100
AcDbPolyline
90
8
70
1
43
0.0
10
7.0000000490218639
20
44.599999809248175
10
7.0000000490218683
20
31.599999809248921
42
-0.4142135623731113
10
6.5000000490218603
20
31.099999809248949
10
-6.4999999509781148
20
31.099999809248821
42
-0.414213562373069
10
-6.9999999509780872
20
31.59999980924896
10
-6.9999999509780775
20
44.599999809249738
42
-0.41421356237305212
10
-6.4999999509780544
20
45.099999809249425
10
6.5000000490218923
20
45.099999809248999
42
-0.41421356237309503
0
LWPOLYLINE
5
175
100
AcDbEntity
8
0
100
AcDbPolyline
90
8
70
1
43
0.0
10
-21.574999950384779
20
25.549999808655826
10
-21.574999950384775
20
12.549999808655814
42
-0.41421356237310936
10
-22.074999950384829
20
12.049999808655752
10
-35.074999950384793
20
12.049999808655814
42
-0.41421356237310153
10
-35.574999950384779
20
12.549999808655814
10
-35.574999950384822
20
25.549999808655755
42
-0.41421356237310281
10
-35.0749999503848
20
26.049999808655798
10
-22.074999950384786
20
26.049999808655645
42
-0.41421356237311063
0
LWPOLYLINE
5
176
100
AcDbEntity
8
0
100
AcDbPolyline
90
8
70
1
43
0.0
10
-49.862499950384809
20
-6.5000001913442755
10
-49.862499950384873
20
6.4999998086557671
42
-0.41421356237305668
10
-49.362499950384809
20
6.999999808655712
10
-36.362499950384795
20
6.9999998086557138
42
-0.41421356237311391
10
-35.862499950384809
20
6.4999998086557671
10
-35.862499950384773
20
-6.5000001913442498
42
-0.41421356237309048
10
-36.362499950384773
20
-7.0000001913442125
10
-49.362499950384802
20
-7.0000001913442293
42
-0.41421356237314705
0
LWPOLYLINE
5
177
100
AcDbEntity
8
0
100
AcDbPolyline
90
8
70
1
43
0.0
10
16.812500049615267
20
-25.550000191344214
10
16.81250004961527
20
-12.550000191344326
42
-0.41421356237309764
10
17.312500049615277
20
-12.05000019134439
10
30.312500049615281
20
-12.050000191344362
42
-0.41421356237311974
10
30.812500049615284
20
-12.550000191344406
10
30.812500049615288
20
-25.550000191344175
42
-0.41421356237297796
10
30.312500049615274
20
-26.050000191344257
10
17.312500049615309
20
-26.05000019134426
42
-0.41421356237318085
0
LWPOLYLINE
5
178
100
AcDbEntity
8
0
100
AcDbPolyline
90
8
70
1
43
0.0
10
-16.524999950384768
20
12.549999808655761
42
0.41421356237304563
10
-16.024999950384807
20
12.049999808655762
10
-3.0249999503848457
20
12.049999808655683
42
0.41421356237315093
10
-2.5249999503849097
20
12.549999808655647
10
-2.5249999503848781
20
25.549999808655684
42
0.41421356237307161
10
-3.0249999503848102
20
26.049999808655858
10
-16.024999950384782
20
26.049999808655684
42
0.41421356237305862
10
-16.524999950384789
20
25.549999808655684
0
LWPOLYLINE
5
179
100
AcDbEntity
8
0
100
AcDbPolyline
90
8
70
1
43
0.0
10
-21.287499950384795
20
-25.550000191344267
42
0.41421356237307161
10
-20.787499950384802
20
-26.050000191344257
10
-7.787499950384758
20
-26.050000191344239
42
0.41421356237306511
10
-7.2874999503847704
20
-25.550000191344317
10
-7.2874999503847881
20
-12.550000191344239
42
0.41421356237303908
10
-7.7874999503847775
20
-12.050000191344274
10
-20.787499950384788
20
-12.050000191344319
42
0.41421356237307549
10
-21.287499950384792
20
-12.550000191344289
0
LWPOLYLINE
5
180
100
AcDbEntity
8
0
100
AcDbPolyline
90
8
70
1
43
0.0
10
-54.12499995038484
20
26.049999808655752
10
-41.124999950384762
20
26.04999980865578
42
-0.41421356237309243
10
-40.624999950384776
20
25.549999808655723
10
-40.624999950384762
20
12.549999808655718
42
-0.41421356237309892
10
-41.124999950384762
20
12.049999808655713
10
-54.12499995038484
20
12.049999808655802
42
-0.41421356237311846
10
-54.624999950384883
20
12.549999808655743
10
-54.62499995038484
20
25.549999808655826
42
-0.41421356237309503
0
LWPOLYLINE
5
181
100
AcDbEntity
8
0
100
AcDbPolyline
90
8
70
1
43
0.0
10
11.762500049615241
20
-12.550000191344326
42
0.41421356237304818
10
11.262500049615236
20
-12.050000191344326
10
-1.7374999503847408
20
-12.050000191344328
42
0.41421356237310758
10
-2.2374999503848159
20
-12.550000191344239
10
-2.2374999503847834
20
-25.550000191344214
42
0.41421356237307161
10
-1.7374999503847022
20
-26.050000191344257
10
11.262500049615253
20
-26.050000191344239
42
0.4142135623730937
10
11.762500049615241
20
-25.550000191344271
0
LWPOLYLINE
5
182
100
AcDbEntity
8
0
100
AcDbPolyline
90
8
70
1
43
0.0
10
-16.812499950384776
20
6.4999998086557671
10
-16.812499950384776
20
-6.5000001913442489
42
-0.41421356237310542
10
-17.312499950384765
20
-7.0000001913442915
10
-30.31249995038479
20
-7.0000001913442471
42
-0.4142135623731204
10
-30.81249995038479
20
-6.5000001913442764
10
-30.812499950384797
20
6.4999998086556952
42
-0.4142135623730866
10
-30.312499950384794
20
6.9999998086557635
10
-17.312499950384783
20
6.9999998086557245
42
-0.41421356237306578
0
LWPOLYLINE
5
183
100
AcDbEntity
8
0
100
AcDbPolyline
90
8
70
1
43
0.0
10
-68.412499950384827
20
6.9999998086557742
42
0.41421356237303586
10
-68.912499950384856
20
6.4999998086556774
10
-68.912499950384841
20
-6.5000001913442764
42
0.41421356237311519
10
-68.412499950384884
20
-7.0000001913442738
10
-55.412499950384806
20
-7.0000001913441681
42
0.41421356237312235
10
-54.912499950384763
20
-6.5000001913442222
10
-54.912499950384834
20
6.4999998086557671
42
0.41421356237308721
10
-55.412499950384806
20
6.9999998086557973
0
LWPOLYLINE
5
184
100
AcDbEntity
8
0
100
AcDbPolyline
90
8
70
1
43
0.0
10
41.125000049615252
20
26.049999808655681
10
54.125000049615224
20
26.049999808655325
42
-0.41421356237309503
10
54.625000049615295
20
25.549999808655684
10
54.625000049615373
20
12.549999808655814
42
-0.41421356237303519
10
54.125000049615259
20
12.049999808655594
10
41.125000049615252
20
12.04999980865572
42
-0.41421356237310675
10
40.625000049615267
20
12.549999808655731
10
40.625000049615295
20
25.549999808655862
42
-0.41421356237310281
0
LWPOLYLINE
5
185
100
AcDbEntity
8
0
100
AcDbPolyline
90
8
70
1
43
0.0
10
-74.462499950384753
20
-7.0000001913442498
42
0.41421356237312235
10
-73.962499950384782
20
-6.5000001913442498
10
-73.962499950384768
20
6.4999998086557396
42
0.41421356237308915
10
-74.462499950384739
20
6.9999998086557742
10
-87.462499950384796
20
6.9999998086557351
42
0.41421356237312429
10
-87.962499950384796
20
6.4999998086557662
10
-87.962499950384711
20
-6.5000001913442231
42
0.41421356237305212
10
-87.462499950384824
20
-7.000000191344248
0
LWPOLYLINE
5
186
100
AcDbEntity
8
0
100
AcDbPolyline
90
8
70
1
43
0.0
10
68.912500049615275
20
-12.550000191344271
10
68.912500049615289
20
-25.550000191344214
42
-0.41421356237308204
10
68.412500049615261
20
-26.050000191344289
10
55.41250004961519
20
-26.050000191344147
42
-0.41421356237304041
10
54.912500049615289
20
-25.550000191344338
10
54.912500049615325
20
-12.550000191344362
42
-0.41421356237304169
10
55.412500049615268
20
-12.050000191344241
10
68.412500049615161
20
-12.05000019134452
42
-0.41421356237313273
0
LWPOLYLINE
5
187
100
AcDbEntity
8
0
100
AcDbPolyline
90
8
70
1
43
0.0
10
-63.649999950978042
20
45.099999809249184
10
-50.649999950978106
20
45.099999809248743
42
-0.41421356237302737
10
-50.149999950978085
20
44.599999809248764
10
-50.149999950978106
20
31.599999809249056
42
-0.41421356237309503
10
-50.649999950978106
20
31.099999809248988
10
-63.649999950978042
20
31.09999980924902
42
-0.41421356237308721
10
-64.149999950978
20
31.599999809249042
10
-64.149999950978
20
44.599999809248871
42
-0.41421356237305862
0
LWPOLYLINE
5
188
100
AcDbEntity
8
0
100
AcDbPolyline
90
8
70
1
43
0.0
10
-107.29999995097806
20
44.599999809249027
42
0.41421356237306384
10
-107.79999995097808
20
45.099999809249056
10
-120.79999995097808
20
45.099999809249034
42
0.41421356237309503
10
-121.29999995097808
20
44.599999809249027
10
-121.29999995097806
20
31.599999809249042
42
0.41421356237309503
10
-120.79999995097808
20
31.099999809249049
10
-107.79999995097808
20
31.099999809249027
42
0.41421356237305601
10
-107.2999999509781
20
31.599999809249031
0
LWPOLYLINE
5
189
100
AcDbEntity
8
0
100
AcDbPolyline
90
8
70
1
43
0.0
10
45.10000004902188
20
44.599999809248459
42
0.41421356237313667
10
44.600000049021872
20
45.099999809249447
10
31.600000049021975
20
45.099999809247507
42
0.41421356237311324
10
31.100000049021972
20
44.599999809249518
10
31.100000049021954
20
31.59999980924896
42
0.41421356237310802
10
31.600000049021943
20
31.099999809248949
10
44.60000004902188
20
31.099999809248775
42
0.41421356237315227
10
45.100000049021887
20
31.599999809248807
0
LWPOLYLINE
5
190
100
AcDbEntity
8
0
100
AcDbPolyline
90
8
70
1
43
0.0
10
73.175000049615306
20
12.049999808655635
10
60.175000049615264
20
12.049999808655446
42
-0.41421356237316137
10
59.675000049615115
20
12.549999808655709
10
59.675000049615178
20
25.549999808656089
42
-0.41421356237315227
10
60.175000049615264
20
26.049999808655564
10
73.175000049615306
20
26.049999808655663
42
-0.414213562373069
10
73.67500004961525
20
25.549999808655631
10
73.67500004961525
20
12.549999808655743
42
-0.41421356237302998
0
LWPOLYLINE
5
191
100
AcDbEntity
8
0
100
AcDbPolyline
90
8
70
1
43
0.0
10
92.725000049615133
20
25.549999808655738
42
0.41421356237309764
10
92.225000049615176
20
26.049999808655837
10
79.225000049615133
20
26.049999808655663
42
0.41421356237297274
10
78.725000049615161
20
25.549999808655642
10
78.725000049615147
20
12.549999808655683
42
0.41421356237315876
10
79.225000049615133
20
12.049999808655738
10
92.225000049615431
20
12.049999808655796
42
0.41421356237315876
10
92.725000049615431
20
12.549999808655823
0
LWPOLYLINE
5
192
100
AcDbEntity
8
0
100
AcDbPolyline
90
8
70
1
43
0.0
10
88.750000049021907
20
45.099999809248594
42
0.41421356237299617
10
88.250000049021793
20
44.599999809250065
10
88.250000049021878
20
31.599999809248875
42
0.41421356237311324
10
88.750000049021978
20
31.099999809249322
10
101.75000004902196
20
31.099999809249201
42
0.41421356237286872
10
102.25000004902192
20
31.599999809248679
10
102.25000004902192
20
44.599999809248828
42
0.41421356237316265
10
101.75000004902195
20
45.099999809248899
0
LWPOLYLINE
5
193
100
AcDbEntity
8
0
100
AcDbPolyline
90
8
70
1
43
0.0
10
64.937500049615252
20
6.9999998086557822
42
0.41421356237291812
10
64.437500049615267
20
6.499999808655784
10
64.437500049615295
20
-6.5000001913442231
42
0.41421356237308071
10
64.937500049615267
20
-7.0000001913443102
10
77.937500049615267
20
-7.000000191344208
42
0.41421356237316592
10
78.437500049615423
20
-6.5000001913442755
10
78.437500049615181
20
6.4999998086557671
42
0.41421356237307749
10
77.937500049615309
20
6.9999998086557476
0
LWPOLYLINE
5
194
100
AcDbEntity
8
0
100
AcDbPolyline
90
8
70
1
43
0.0
10
69.700000049021966
20
45.099999809247898
10
82.700000049021938
20
45.09999980924853
42
-0.41421356237318868
10
83.200000049021924
20
44.599999809247812
10
83.200000049021867
20
31.599999809248615
42
-0.41421356237294676
10
82.700000049021895
20
31.099999809248963
10
69.700000049021966
20
31.099999809248629
42
-0.41421356237298579
10
69.200000049021909
20
31.599999809248779
10
69.200000049021909
20
44.599999809248885
42
-0.41421356237306384
0
LWPOLYLINE
5
195
100
AcDbEntity
8
0
100
AcDbPolyline
90
8
70
1
43
0.0
10
97.775000049615315
20
12.549999808655743
10
97.775000049615301
20
25.549999808655738
42
-0.41421356237302481
10
98.275000049615329
20
26.049999808655571
10
111.27500004961526
20
26.049999808655965
42
-0.41421356237324852
10
111.7750000496153
20
25.549999808655379
10
111.77500004961537
20
12.549999808656032
42
-0.41421356237296236
10
111.27500004961522
20
12.049999808655611
10
98.275000049615286
20
12.049999808655736
42
-0.41421356237311585
0
LWPOLYLINE
5
196
100
AcDbEntity
8
0
100
AcDbPolyline
90
8
70
1
43
0.0
10
-88.249999950978051
20
44.599999809249027
10
-88.249999950978108
20
31.59999980924896
42
-0.41421356237306639
10
-88.749999950978065
20
31.099999809248988
10
-101.74999995097814
20
31.099999809249034
42
-0.414213562373069
10
-102.24999995097811
20
31.599999809249031
10
-102.24999995097804
20
44.599999809248992
42
-0.41421356237315748
10
-101.74999995097808
20
45.099999809249091
10
-88.749999950978065
20
45.099999809249063
42
-0.414213562373069
0
LWPOLYLINE
5
197
100
AcDbEntity
8
0
100
AcDbPolyline
90
8
70
1
43
0.0
10
-98.274999950384796
20
12.049999808655723
10
-111.2749999503848
20
12.049999808655745
42
-0.41421356237312101
10
-111.77499995038477
20
12.549999808655761
10
-111.77499995038482
20
25.549999808655759
42
-0.41421356237308982
10
-111.27499995038484
20
26.049999808655741
10
-98.274999950384796
20
26.049999808655706
42
-0.41421356237306123
10
-97.774999950384796
20
25.549999808655755
10
-97.774999950384824
20
12.549999808655761
42
-0.41421356237305079
0
LWPOLYLINE
5
198
100
AcDbEntity
8
0
100
AcDbPolyline
90
8
70
1
43
0.0
10
-107.01249995038481
20
-6.5000001913442498
10
-107.01249995038479
20
6.4999998086557751
42
-0.41421356237311713
10
-106.51249995038484
20
6.9999998086557671
10
-93.512499950384793
20
6.9999998086557707
42
-0.41421356237309243
10
-93.012499950384779
20
6.4999998086557671
10
-93.012499950384807
20
-6.5000001913443022
42
-0.41421356237307355
10
-93.512499950384793
20
-7.0000001913442542
10
-106.51249995038484
20
-7.0000001913442649
42
-0.4142135623731204
0
LWPOLYLINE
5
199
100
AcDbEntity
8
0
100
AcDbPolyline
90
8
70
1
43
0.0
10
58.887500049615326
20
-7.0000001913442391
42
0.41421356237299684
10
59.387500049615284
20
-6.5000001913442489
10
59.387500049615262
20
6.499999808655696
42
0.41421356237320817
10
58.887500049615298
20
6.999999808655712
10
45.88750004961522
20
6.9999998086557413
42
0.41421356237308138
10
45.387500049615213
20
6.4999998086558284
10
45.387500049615198
20
-6.5000001913440366
42
0.41421356237308915
10
45.887500049615184
20
-7.0000001913443013
0
LWPOLYLINE
5
200
100
AcDbEntity
8
0
100
AcDbPolyline
90
8
70
1
43
0.0
10
22.075000049615241
20
26.049999808655731
10
35.075000049615142
20
26.049999808655826
42
-0.41421356237312101
10
35.575000049615127
20
25.549999808655652
10
35.575000049615149
20
12.549999808655743
42
-0.4142135623730443
10
35.075000049615205
20
12.049999808655754
10
22.075000049615241
20
12.049999808655812
42
-0.41421356237310542
10
21.575000049615255
20
12.549999808655814
10
21.575000049615269
20
25.549999808655826
42
-0.41421356237313928
0
LWPOLYLINE
5
201
100
AcDbEntity
8
0
100
AcDbPolyline
90
8
70
1
43
0.0
10
73.96250004961523
20
-25.550000191344175
10
73.962500049615386
20
-12.55000019134406
42
-0.41421356237319779
10
74.462500049615258
20
-12.050000191344276
10
87.462500049615173
20
-12.050000191344019
42
-0.41421356237309243
10
87.962500049615414
20
-12.550000191344111
10
87.962500049615286
20
-25.550000191344338
42
-0.41421356237317308
10
87.462500049615272
20
-26.050000191344264
10
74.462500049615272
20
-26.050000191344104
42
-0.41421356237311324
0
LWPOLYLINE
5
202
100
AcDbEntity
8
0
100
AcDbPolyline
90
8
70
1
43
0.0
10
35.862500049615136
20
-25.550000191344338
10
35.862500049615178
20
-12.550000191344246
42
-0.4142135623730534
10
36.362500049615178
20
-12.050000191344319
10
49.36250004961515
20
-12.05000019134433
42
-0.41421356237319779
10
49.862500049615257
20
-12.550000191344326
10
49.86250004961525
20
-25.550000191344214
42
-0.41421356237305079
10
49.362500049615164
20
-26.050000191344111
10
36.362500049615178
20
-26.050000191344324
42
-0.41421356237306123
0
LWPOLYLINE
5
203
100
AcDbEntity
8
0
100
AcDbPolyline
90
8
70
1
43
0.0
10
3.0250000496152185
20
26.049999808655706
42
0.41421356237308854
10
2.5250000496152114
20
25.549999808655684
10
2.5250000496151892
20
12.54999980865578
42
0.41421356237310936
10
3.0250000496152296
20
12.049999808655716
10
16.025000049615237
20
12.04999980865586
42
0.41421356237309503
10
16.525000049615244
20
12.54999980865578
10
16.525000049615297
20
25.549999808655684
42
0.41421356237312101
10
16.025000049615201
20
26.049999808655823
0
LWPOLYLINE
5
204
100
AcDbEntity
8
0
100
AcDbPolyline
90
8
70
1
43
0.0
10
26.050000049021911
20
44.599999809249795
42
0.41421356237302737
10
25.550000049021904
20
45.099999809249255
10
12.550000049021957
20
45.099999809249383
42
0.41421356237302609
10
12.050000049021889
20
44.59999980924934
10
12.05000004902184
20
31.599999809249056
42
0.41421356237310281
10
12.550000049021932
20
31.099999809248953
10
25.550000049021939
20
31.099999809249073
42
0.41421356237290513
10
26.050000049021875
20
31.599999809249098
0
LWPOLYLINE
5
205
100
AcDbEntity
8
0
100
AcDbPolyline
90
8
70
1
43
0.0
10
26.837500049615315
20
6.9999998086555966
10
39.837500049615215
20
6.9999998086557813
42
-0.41421356237316659
10
40.337500049615251
20
6.4999998086557671
10
40.337500049615265
20
-6.5000001913442222
42
-0.41421356237300466
10
39.8375000496154
20
-7.0000001913441592
10
26.837500049615315
20
-7.0000001913443626
42
-0.41421356237314899
10
26.337500049615269
20
-6.5000001913442231
10
26.337500049615272
20
6.4999998086557396
42
-0.41421356237315293
0
LWPOLYLINE
5
206
100
AcDbEntity
8
0
100
AcDbPolyline
90
8
70
1
43
0.0
10
-121.58749995097807
20
25.549999809249044
10
-121.58749995097807
20
12.549999809249021
42
-0.41421356237311063
10
-122.08749995097807
20
12.049999809248995
10
-135.08749995097804
20
12.049999809249019
42
-0.41421356237311324
10
-135.5874999509781
20
12.549999809249021
10
-135.58749995097807
20
25.549999809249023
42
-0.41421356237311063
10
-135.08749995097804
20
26.049999809249009
10
-122.08749995097804
20
26.049999809249023
42
-0.41421356237305862
0
LWPOLYLINE
5
207
100
AcDbEntity
8
0
100
AcDbPolyline
90
8
70
1
43
0.0
10
-137.9662499509781
20
-6.5000001907509901
42
0.41421356237310736
10
-137.46624995097807
20
-7.0000001907509644
10
-119.70624995097809
20
-7.0000001907509892
42
0.41421356237313078
10
-119.2062499509781
20
-6.500000190750991
10
-119.2062499509781
20
6.4999998092490072
42
0.41421356237307161
10
-119.70624995097808
20
6.9999998092490099
10
-137.4662499509781
20
6.999999809249033
42
0.4142135623730957
10
-137.96624995097807
20
6.4999998092490348
0
LWPOLYLINE
5
208
100
AcDbEntity
8
0
100
AcDbPolyline
90
8
70
1
43
0.0
10
-44.599999950978109
20
45.099999809248999
42
0.41421356237308982
10
-45.099999950978109
20
44.599999809248992
10
-45.099999950978059
20
31.599999809249031
42
0.41421356237304302
10
-44.599999950978102
20
31.099999809249024
10
-31.599999950978081
20
31.099999809248985
42
0.41421356237309503
10
-31.099999950978052
20
31.599999809249042
10
-31.099999950978045
20
44.599999809248786
42
0.41421356237313145
10
-31.599999950978095
20
45.099999809249042
0
LWPOLYLINE
5
209
100
AcDbEntity
8
0
100
AcDbPolyline
90
8
70
1
43
0.0
10
96.987500049615178
20
-7.000000191344407
10
83.987500049615278
20
-7.0000001913443155
42
-0.41421356237309892
10
83.487500049615278
20
-6.5000001913444443
10
83.487500049615306
20
6.499999808655847
42
-0.41421356237311846
10
83.987500049615335
20
6.9999998086556676
10
96.987500049615178
20
6.9999998086558337
42
-0.41421356237305668
10
97.487500049615193
20
6.4999998086558914
10
97.487500049615221
20
-6.5000001913444452
42
-0.41421356237305079
0
LWPOLYLINE
5
210
100
AcDbEntity
8
0
100
AcDbPolyline
90
8
70
1
43
0.0
10
-82.699999950978025
20
45.09999980924907
42
0.41421356237311585
10
-83.199999950978096
20
44.599999809249042
10
-83.199999950978039
20
31.59999980924896
42
0.41421356237306639
10
-82.699999950978054
20
31.09999980924902
10
-69.699999950978096
20
31.099999809248935
42
0.4142135623730846
10
-69.199999950978039
20
31.599999809249031
10
-69.199999950978025
20
44.599999809249162
42
0.41421356237310025
10
-69.699999950978082
20
45.099999809248871
0
LWPOLYLINE
5
211
100
AcDbEntity
8
0
100
AcDbPolyline
90
8
70
1
43
0.0
10
-73.67499995038483
20
12.54999980865578
10
-73.674999950384816
20
25.54999980865577
42
-0.41421356237308982
10
-73.174999950384802
20
26.049999808655741
10
-60.17499995038488
20
26.049999808655713
42
-0.414213562373069
10
-59.674999950384837
20
25.549999808655784
10
-59.674999950384866
20
12.549999808655718
42
-0.41421356237314055
10
-60.174999950384802
20
12.049999808655759
10
-73.174999950384887
20
12.049999808655731
42
-0.41421356237311974
0
LWPOLYLINE
5
212
100
AcDbEntity
8
0
100
AcDbPolyline
90
8
70
1
43
0.0
10
-126.34999995097812
20
44.59999980924907
42
0.41421356237306384
10
-126.84999995097812
20
45.099999809249034
10
-139.84999995097809
20
45.099999809249063
42
0.41421356237313145
10
-140.34999995097814
20
44.599999809249027
10
-140.34999995097809
20
31.599999809249031
42
0.41421356237309243
10
-139.84999995097809
20
31.099999809249042
10
-126.8499999509781
20
31.099999809249027
42
0.41421356237307161
10
-126.34999995097807
20
31.599999809249031
0
LWPOLYLINE
5
213
100
AcDbEntity
8
0
100
AcDbPolyline
90
8
70
1
43
0.0
10
-92.724999950384841
20
12.549999808655743
42
0.41421356237307294
10
-92.22499995038487
20
12.049999808655738
10
-79.224999950384813
20
12.049999808655752
42
0.41421356237313794
10
-78.724999950384813
20
12.549999808655761
10
-78.724999950384856
20
25.549999808655755
42
0.41421356237307683
10
-79.224999950384813
20
26.049999808655755
10
-92.224999950384898
20
26.049999808655755
42
0.41421356237311585
10
-92.724999950384799
20
25.549999808655784
0
LINE
5
214
100
AcDbEntity
8
0
100
AcDbLine
10
-41.734068628514009
20
-37.339999967813235
30
-2.8788042949390287e-15
11
-51.399999999140306
21
-37.340000001056801
31
-6.5979401148351999e-15
0
ARC
5
215
100
AcDbEntity
8
0
100
AcDbCircle
10
-51.400000000000112
20
-37.090000001056801
30
-2.7401472738533392e-16
40
0.25000000000000355
210
-3.58690744400955e-17
220
-6.3716275704619446e-31
230
1
100
AcDbArc
50
180
51
270.00000019705311
0
LINE
5
216
100
AcDbEntity
8
0
100
AcDbLine
10
-51.650000000000119
20
-37.090000001056808
30
-2.8298199599535792e-16
11
-51.650000000000119
21
-32.587873759307911
31
-3.4312114536631219e-15
0
SPLINE
5
217
100
AcDbEntity
8
0
100
AcDbSpline
70
0
71
3
72
18
73
14
74
0
42
0.000000001
43
0.0000000001
44
0.0000000001
40
0
40
0
40
0
40
0
40
0.0097661118346727572
40
0.0097661118346727572
40
0.019532223669346552
40
0.019532223669346552
40
0.029298335504019855
40
0.029298335504019855
40
0.039064447338692659
40
0.039064447338692659
40
0.045861841708544897
40
0.045861841708544897
40
0.052659236078396426
40
0.052659236078396426
40
0.052659236078396426
40
0.052659236078396426
10
-51.273651983944781
20
-32.37215130141611
30
-6.6936140373461682e-15
10
-51.301742245931734
20
-32.355698916684304
30
-6.6970541022891224e-15
10
-51.332777466288483
20
-32.344890478518373
30
-6.515071800228552e-15
10
-51.397244064756478
20
-32.335778244467221
30
-6.5229666815751274e-15
10
-51.430059107049374
20
-32.337561566506075
30
-6.5151555139259422e-15
10
-51.493158557088151
20
-32.353606333012372
30
-6.5228829678777372e-15
10
-51.522839699699816
20
-32.367714380766934
30
-6.5158177817691932e-15
10
-51.575123495074536
20
-32.406513605870678
30
-6.522220700034487e-15
10
-51.597226286256955
20
-32.430833841480656
30
-6.5169594358282781e-15
10
-51.625752613064229
20
-32.47810517633323
30
-6.5204529033098733e-15
10
-51.634767895914287
20
-32.499006334671094
30
-6.518275157789607e-15
10
-51.646919695318829
20
-32.542662608280082
30
-6.5197633240140724e-15
10
-51.650000000000119
20
-32.565215778075071
30
-6.3802413628236955e-15
10
-51.650000000000119
20
-32.587873759307911
30
-6.3802413628236955e-15
0
SPLINE
5
218
100
AcDbEntity
8
0
100
AcDbSpline
70
4
71
5
72
14
73
8
74
0
42
0.000000001
43
0.0000000001
44
0.0000000001
40
-0.99117589645802662
40
-0.99117589645802662
40
-0.99117589645802662
40
-0.99117589645802662
40
-0.99117589645802662
40
-0.99117589645802662
40
-0.8999999999999998
40
-0.79999999999999982
40
-0.7656119977823187
40
-0.7656119977823187
40
-0.7656119977823187
40
-0.7656119977823187
40
-0.7656119977823187
40
-0.7656119977823187
41
1
41
1
41
1
41
1
41
1
41
1
41
1
41
1
10
-51.273651983944788
20
-32.37215130141611
30
-2.7401472738533392e-16
10
-50.495921587177634
20
-32.827665732401996
30
-2.7401472738533392e-16
10
-48.865191190427183
20
-33.744152611485369
30
-2.7401472738533392e-16
10
-46.941131134754094
20
-34.729807698287132
30
-2.7401472738533392e-16
10
-45.017071079066795
20
-35.600638302507846
30
-2.7401472738533392e-16
10
-43.093011023367325
20
-36.350796796905804
30
-2.7401472738533392e-16
10
-41.946681364449326
20
-36.753323157445699
30
-2.7401472738533392e-16
10
-41.653351705531961
20
-36.853388940586036
30
-2.7401472738533392e-16
0
SPLINE
5
219
100
AcDbEntity
8
0
100
AcDbSpline
70
0
71
3
72
22
73
18
74
0
42
0.000000001
43
0.0000000001
44
0.0000000001
40
0
40
0
40
0
40
0
40
0.0097661118346730452
40
0.0097661118346730452
40
0.019532223669346566
40
0.019532223669346566
40
0.029298335504019637
40
0.029298335504019637
40
0.039064447338692791
40
0.039064447338692791
40
0.048830559173366629
40
0.048830559173366629
40
0.058596671008039225
40
0.058596671008039225
40
0.064557756848397707
40
0.064557756848397707
40
0.070518842688755398
40
0.070518842688755398
40
0.070518842688755398
40
0.070518842688755398
10
-41.734068628514009
20
-37.339999967813235
30
-5.6826357858938847e-15
10
-41.701514922398431
20
-37.339999967701274
30
-5.6786491066944025e-15
10
-41.669272447478328
20
-37.333641504899234
30
-5.4467615723187753e-15
10
-41.609039624492794
20
-37.308923451524606
30
-5.4393851789314914e-15
10
-41.581625135044533
20
-37.29080017901466
30
-5.488403534483087e-15
10
-41.53528615905045
20
-37.245065351680807
30
-5.4827286466203945e-15
10
-41.516804698371821
20
-37.217891046733619
30
-5.5389056912057075e-15
10
-41.491298363658615
20
-37.157987774561427
30
-5.5357820660892566e-15
10
-41.484517344085916
20
-37.125831515268203
30
-5.5907058538721218e-15
10
-41.483662967025083
20
-37.060729709092982
30
-5.5906012228588394e-15
10
-41.489597777847315
20
-37.028406570961259
30
-5.636047470569157e-15
10
-41.51352329278663
20
-36.967854569653902
30
-5.6389775010979962e-15
10
-41.531285255940482
20
-36.94020461661416
30
-5.6681410915029516e-15
10
-41.56761779261312
20
-36.902412795509981
30
-5.6725905439770565e-15
10
-41.583047710954027
20
-36.889781311163283
30
-5.6803819866962267e-15
10
-41.616571224933516
20
-36.868439167532912
30
-5.6844874331053398e-15
10
-41.634545590278378
20
-36.859804414076251
30
-4.9901594971571827e-15
10
-41.653351705532756
20
-36.853388940585774
30
-4.9924625820422499e-15
0
LINE
5
220
100
AcDbEntity
8
0
100
AcDbLine
10
-18.915931371487002
20
-38.840000036019944
30
-1.4689861652292865e-15
11
-9.2500000008607266
21
-38.840000002776378
31
-1.4108334726526212e-15
0
ARC
5
221
100
AcDbEntity
8
0
100
AcDbCircle
10
-9.250000000000913
20
-39.090000002776378
30
-2.7401472738533392e-16
40
0.25000000000000022
210
-3.586907444009709e-17
220
0
230
1
100
AcDbArc
50
0
51
90.00000019705476
0
LINE
5
222
100
AcDbEntity
8
0
100
AcDbLine
10
-9.000000000000913
20
-39.090000002776378
30
-2.6504745877530967e-16
11
-9.0000000000009095
21
-43.592126244525275
31
-8.2912623969791115e-16
0
SPLINE
5
223
100
AcDbEntity
8
0
100
AcDbSpline
70
0
71
3
72
18
73
14
74
0
42
0.000000001
43
0.0000000001
44
0.0000000001
40
0
40
0
40
0
40
0
40
0.0097661118346732776
40
0.0097661118346732776
40
0.01953222366934643
40
0.01953222366934643
40
0.0292983355040193
40
0.0292983355040193
40
0.039064447338693069
40
0.039064447338693069
40
0.045861841708545237
40
0.045861841708545237
40
0.052659236078397204
40
0.052659236078397204
40
0.052659236078397204
40
0.052659236078397204
10
-9.3763480160562533
20
-43.807848702417076
30
-1.1066819958542012e-15
10
-9.3482577540692962
20
-43.824301087148882
30
-1.1032419309112474e-15
10
-9.3172225337125507
20
-43.835109525314813
30
-1.1106294365274893e-15
10
-9.252755935244549
20
-43.844221759365965
30
-1.1027345551809137e-15
10
-9.2199408929516586
20
-43.842438437327104
30
-1.1105457228300987e-15
10
-9.1568414429128815
20
-43.826393670820813
30
-1.102818268878304e-15
10
-9.1271603003012221
20
-43.812285623066252
30
-1.1098834549868485e-15
10
-9.0748765049264897
20
-43.773486397962522
30
-1.1034805367215543e-15
10
-9.0527737137440702
20
-43.749166162352537
30
-1.1087418009277636e-15
10
-9.0242473869367945
20
-43.701894827499963
30
-1.1052483334461677e-15
10
-9.0152321040867385
20
-43.680993669162092
30
-1.1074260789664341e-15
10
-9.0030803046821966
20
-43.637337395553104
30
-1.1059379127419688e-15
10
-9.0000000000009095
20
-43.614784225758115
30
-1.1066819958542012e-15
10
-9.0000000000009095
20
-43.592126244525275
30
-1.1066819958542012e-15
0
SPLINE
5
224
100
AcDbEntity
8
0
100
AcDbSpline
70
4
71
5
72
14
73
8
74
0
42
0.000000001
43
0.0000000001
44
0.0000000001
40
-0.99117589645802662
40
-0.99117589645802662
40
-0.99117589645802662
40
-0.99117589645802662
40
-0.99117589645802662
40
-0.99117589645802662
40
-0.8999999999999998
40
-0.79999999999999982
40
-0.76561199778231925
40
-0.76561199778231925
40
-0.76561199778231925
40
-0.76561199778231925
40
-0.76561199778231925
40
-0.76561199778231925
41
1
41
1
41
1
41
1
41
1
41
1
41
1
41
1
10
-9.3763480160562551
20
-43.807848702417076
30
-2.7401472738533392e-16
10
-10.154078412823392
20
-43.352334271431161
30
-2.7401472738533392e-16
10
-11.784808809573835
20
-42.43584739234781
30
-2.7401472738533392e-16
10
-13.708868865246945
20
-41.450192305546061
30
-2.7401472738533392e-16
10
-15.63292892093423
20
-40.57936170132534
30
-2.7401472738533392e-16
10
-17.556988976633683
20
-39.829203206927374
30
-2.7401472738533392e-16
10
-18.703318635551682
20
-39.42667684638748
30
-2.7401472738533392e-16
10
-18.996648294469036
20
-39.326611063247142
30
-2.7401472738533392e-16
0
SPLINE
5
225
100
AcDbEntity
8
0
100
AcDbSpline
70
0
71
3
72
22
73
18
74
0
42
0.000000001
43
0.0000000001
44
0.0000000001
40
0
40
0
40
0
40
0
40
0.0097661118346726253
40
0.0097661118346726253
40
0.019532223669345622
40
0.019532223669345622
40
0.02929833550401904
40
0.02929833550401904
40
0.039064447338692208
40
0.039064447338692208
40
0.048830559173365436
40
0.048830559173365436
40
0.058596671008038809
40
0.058596671008038809
40
0.0645577568483965
40
0.0645577568483965
40
0.070518842688753941
40
0.070518842688753941
40
0.070518842688753941
40
0.070518842688753941
10
-18.915931371487005
20
-38.840000036019951
30
-2.3922354613465824e-15
10
-18.94848507760258
20
-38.840000036131912
30
-2.396222140546065e-15
10
-18.980727552522684
20
-38.846358498933959
30
-2.5601615189810772e-15
10
-19.040960375508213
20
-38.871076552308587
30
-2.5675379123683611e-15
10
-19.068374864956475
20
-38.889199824818526
30
-2.5610122717433729e-15
10
-19.114713840950561
20
-38.934934652152378
30
-2.5666871596060654e-15
10
-19.133195301629186
20
-38.962108957099566
30
-2.5622879031164937e-15
10
-19.158701636342389
20
-39.022012229271759
30
-2.5654115282329442e-15
10
-19.165482655915088
20
-39.054168488564983
30
-2.5637974001680787e-15
10
-19.166337032975925
20
-39.119270294740204
30
-2.56390203118136e-15
10
-19.160402222153692
20
-39.151593432871927
30
-2.5653147309391383e-15
10
-19.136476707214378
20
-39.212145434179291
30
-2.5623847004103003e-15
10
-19.118714744060526
20
-39.239795387219026
30
-2.5666126904502041e-15
10
-19.082382207387887
20
-39.277587208323212
30
-2.5621632379760989e-15
10
-19.066952289046974
20
-39.290218692669903
30
-2.5659024388792761e-15
10
-19.033428775067499
20
-39.311560836300274
30
-2.5617969924701626e-15
10
-19.015454409722633
20
-39.320195589756935
30
-2.4620693920011775e-15
10
-18.996648294468258
20
-39.326611063247412
30
-2.4597663071161107e-15
0
LINE
5
226
100
AcDbEntity
8
0
100
AcDbLine
10
9.2499999999990621
20
-38.840000001916607
30
8.5151938190850637e-16
11
18.915931470344454
21
-38.840000001916643
31
8.459254595388577e-16
0
SPLINE
5
227
100
AcDbEntity
8
0
100
AcDbSpline
70
0
71
3
72
22
73
18
74
0
42
0.000000001
43
0.0000000001
44
0.0000000001
40
0
40
0
40
0
40
0
40
0.0097661118346734042
40
0.0097661118346734042
40
0.019532223669346503
40
0.019532223669346503
40
0.029298335504019557
40
0.029298335504019557
40
0.039064447338692861
40
0.039064447338692861
40
0.048830559173365887
40
0.048830559173365887
40
0.058596671008039058
40
0.058596671008039058
40
0.064557756921953813
40
0.064557756921953813
40
0.070518842835869011
40
0.070518842835869011
40
0.070518842835869011
40
0.070518842835869011
10
18.996648393611835
20
-39.326611029339809
30
3.0126694109513057e-15
10
19.027458657013593
20
-39.316100489345409
30
3.0164425799968904e-15
10
19.055921415323773
20
-39.299672506281297
30
2.7067076537891575e-15
10
19.1049477551257
20
-39.256831017826016
30
2.712711648800391e-15
10
19.125042618087516
20
-39.230827100414899
30
2.7079283441780421e-15
10
19.154133570972419
20
-39.172580284298604
30
2.7114909584115063e-15
10
19.162851535530127
20
-39.140894256902456
30
2.7094157673417491e-15
10
19.167651024709048
20
-39.07596398637277
30
2.7100035352477998e-15
10
19.16368666359779
20
-39.04334051201522
30
2.7109471966633662e-15
10
19.143476013972879
20
-38.981449440210177
30
2.7084721059261827e-15
10
19.1274229502853
20
-38.952773555142386
30
2.7122933160476727e-15
10
19.085228502797307
20
-38.903189245843777
30
2.7071259865418762e-15
10
19.059490520912625
20
-38.882754874635388
30
2.7132525576935608e-15
10
19.012902047356583
20
-38.858717630182987
30
2.7075471151918038e-15
10
18.994220193600331
20
-38.851744458241846
30
2.7120743721011842e-15
10
18.955601372107374
20
-38.842368971601516
30
2.7073449304883647e-15
10
18.935801756724167
20
-38.840000001916643
30
2.6774485900365444e-15
10
18.91593147034445
20
-38.840000001916643
30
2.6750151817752383e-15
0
SPLINE
5
228
100
AcDbEntity
8
0
100
AcDbSpline
70
4
71
5
72
14
73
8
74
0
42
0.000000001
43
0.0000000001
44
0.0000000001
40
-0.23438800454215827
40
-0.23438800454215827
40
-0.23438800454215827
40
-0.23438800454215827
40
-0.23438800454215827
40
-0.23438800454215827
40
-0.20000000000000001
40
-0.10000000000000001
40
-0.0088241035379149069
40
-0.0088241035379149069
40
-0.0088241035379149069
40
-0.0088241035379149069
40
-0.0088241035379149069
40
-0.0088241035379149069
41
1
41
1
41
1
41
1
41
1
41
1
41
1
41
1
10
18.996648393610759
20
-39.326611029340171
30
-2.7401472738533392e-16
10
18.703318714865702
20
-39.426676818450545
30
-2.7401472738533392e-16
10
17.55698903612025
20
-39.829203183647692
30
-2.7401472738533392e-16
10
15.63292896055863
20
-40.579361683305976
30
-2.7401472738533392e-16
10
13.708868885008377
20
-41.450192295347783
30
-2.7401472738533392e-16
10
11.784808809471237
20
-42.435847392351604
30
-2.7401472738533392e-16
10
10.154078412684429
20
-43.352334271486896
30
-2.7401472738533392e-16
10
9.3763480158817583
20
-43.807848702511137
30
-2.7401472738533392e-16
0
SPLINE
5
229
100
AcDbEntity
8
0
100
AcDbSpline
70
0
71
3
72
18
73
14
74
0
42
0.000000001
43
0.0000000001
44
0.0000000001
40
0
40
0
40
0
40
0
40
0.0097661118346732759
40
0.0097661118346732759
40
0.019532223669346392
40
0.019532223669346392
40
0.029298335504019491
40
0.029298335504019491
40
0.039064447338692729
40
0.039064447338692729
40
0.045861841708715809
40
0.045861841708715809
40
0.052659236078739298
40
0.052659236078739298
40
0.052659236078739298
40
0.052659236078739298
10
8.999999999999055
20
-43.592126244518255
30
5.5790424185079901e-16
10
8.999999999999055
20
-43.624679950633833
30
5.5790424185079901e-16
10
9.0063584626902085
20
-43.6569224255758
30
6.9591687492704303e-16
10
9.0310765158576842
20
-43.71715524864635
30
6.9894396339631298e-16
10
9.0491997882733397
20
-43.74456973815694
30
6.9462996867623876e-16
10
9.0949346154478192
20
-43.790908714308323
30
7.0023086964711716e-16
10
9.1221089203314492
20
-43.809390175080402
30
6.9376240164084342e-16
10
9.1820121924159164
20
-43.834896509999631
30
7.0109843668251279e-16
10
9.2141684516858202
20
-43.841677529682919
30
6.9344408323429849e-16
10
9.2693753850450644
20
-43.84240204951724
30
7.0020498265721239e-16
10
9.2919670344524832
20
-43.839617965860128
30
6.9474770925706649e-16
10
9.3357790120198842
20
-43.828040095765495
30
7.0011312906628972e-16
10
9.3567966744473416
20
-43.819299866315248
30
1.319536521721157e-15
10
9.3763480160573369
20
-43.807848702408336
30
1.3219308705133288e-15
0
LINE
5
230
100
AcDbEntity
8
0
100
AcDbLine
10
8.999999999999055
20
-43.592126244518255
30
5.5790424185079901e-16
11
8.9999999999990621
21
-39.090000001916607
31
8.3620829723981873e-16
0
ARC
5
231
100
AcDbEntity
8
0
100
AcDbCircle
10
9.2499999999990621
20
-39.090000001916607
30
-2.7401472738533392e-16
40
0.24999999999999911
210
-1.9993502130223965e-29
220
-4.5021364371753771e-15
230
1
100
AcDbArc
50
90
51
180
0
LINE
5
232
100
AcDbEntity
8
0
100
AcDbLine
10
51.399999999998244
20
-37.340000001916586
30
6.0611952996950966e-15
11
41.734068529652873
21
-37.34000000191655
31
2.2670282148385391e-15
0
SPLINE
5
233
100
AcDbEntity
8
0
100
AcDbSpline
70
0
71
3
72
22
73
18
74
0
42
0.000000001
43
0.0000000001
44
0.0000000001
40
0
40
0
40
0
40
0
40
0.0097661118346732845
40
0.0097661118346732845
40
0.019532223669345802
40
0.019532223669345802
40
0.029298335504019671
40
0.029298335504019671
40
0.039064447338692451
40
0.039064447338692451
40
0.048830559173365672
40
0.048830559173365672
40
0.058596671008038559
40
0.058596671008038559
40
0.064557756921953507
40
0.064557756921953507
40
0.070518842835868831
40
0.070518842835868831
40
0.070518842835868831
40
0.070518842835868831
10
41.653351606385492
20
-36.853388974493384
30
4.1489057404304891e-15
10
41.622541342983737
20
-36.863899514487784
30
4.1451325713849044e-15
10
41.594078584673554
20
-36.880327497551896
30
4.9331576980507037e-15
10
41.545052244871634
20
-36.92316898600717
30
4.9271537030394705e-15
10
41.524957381909822
20
-36.949172903418287
30
4.9319370076618186e-15
10
41.495866429024915
20
-37.007419719534589
30
4.9283743934283548e-15
10
41.487148464467197
20
-37.03910574693073
30
4.9304495844981121e-15
10
41.482348975288275
20
-37.104036017460423
30
4.9298618165920614e-15
10
41.48631333639954
20
-37.13665949181798
30
4.928918155176495e-15
10
41.506523986024455
20
-37.198550563623016
30
4.9313932459136785e-15
10
41.522577049712019
20
-37.227226448690807
30
4.9275720357921885e-15
10
41.564771497200013
20
-37.276810757989416
30
4.932739365297985e-15
10
41.590509479084695
20
-37.297245129197812
30
4.9266127941463003e-15
10
41.637097952640744
20
-37.321282373650213
30
4.9323182366480566e-15
10
41.655779806396993
20
-37.328255545591354
30
4.9277909797386774e-15
10
41.694398627889953
20
-37.337631032231677
30
4.9325204213514969e-15
10
41.71419824327316
20
-37.34000000191655
30
4.7542499446860999e-15
10
41.734068529652873
20
-37.34000000191655
30
4.756683352947406e-15
0
SPLINE
5
234
100
AcDbEntity
8
0
100
AcDbSpline
70
4
71
5
72
14
73
8
74
0
42
0.000000001
43
0.0000000001
44
0.0000000001
40
-0.23438800454215794
40
-0.23438800454215794
40
-0.23438800454215794
40
-0.23438800454215794
40
-0.23438800454215794
40
-0.23438800454215794
40
-0.20000000000000001
40
-0.10000000000000001
40
-0.0088241035379150456
40
-0.0088241035379150456
40
-0.0088241035379150456
40
-0.0088241035379150456
40
-0.0088241035379150456
40
-0.0088241035379150456
41
1
41
1
41
1
41
1
41
1
41
1
41
1
41
1
10
41.653351606386565
20
-36.853388974493015
30
-2.7401472738533392e-16
10
41.946681285131611
20
-36.753323185382648
30
-2.7401472738533392e-16
10
43.09301096387707
20
-36.350796820185494
30
-2.7401472738533392e-16
10
45.01707103943869
20
-35.60063832052721
30
-2.7401472738533392e-16
10
46.941131114988934
20
-34.72980770848541
30
-2.7401472738533392e-16
10
48.865191190526083
20
-33.744152611481596
30
-2.7401472738533392e-16
10
50.495921587312864
20
-32.827665732346318
30
-2.7401472738533392e-16
10
51.273651984115531
20
-32.372151301322042
30
-2.7401472738533392e-16
0
SPLINE
5
235
100
AcDbEntity
8
0
100
AcDbSpline
70
0
71
3
72
18
73
14
74
0
42
0.000000001
43
0.0000000001
44
0.0000000001
40
0
40
0
40
0
40
0
40
0.0097661118346732221
40
0.0097661118346732221
40
0.019532223669346878
40
0.019532223669346878
40
0.029298335504019897
40
0.029298335504019897
40
0.03906444733869259
40
0.03906444733869259
40
0.045861841708715781
40
0.045861841708715781
40
0.052659236078738153
40
0.052659236078738153
40
0.052659236078738153
40
0.052659236078738153
10
51.649999999998258
20
-32.587873759314981
30
5.9016008470920987e-15
10
51.649999999998258
20
-32.555320053199409
30
5.9016008470920987e-15
10
51.643641537307097
20
-32.523077578257428
30
5.7643365132485899e-15
10
51.618923484139628
20
-32.462844755186886
30
5.7613094247793192e-15
10
51.600800211723971
20
-32.435430265676295
30
5.765623419499393e-15
10
51.555065384549494
20
-32.38909128952492
30
5.7600225185285153e-15
10
51.527891079665849
20
-32.370609828752833
30
5.766490986534789e-15
10
51.467987807581395
20
-32.345103493833612
30
5.7591549514931192e-15
10
51.435831548311491
20
-32.338322474150317
30
5.7668093049413336e-15
10
51.380624614952247
20
-32.337597954315996
30
5.7600484055184201e-15
10
51.358032965544822
20
-32.340382037973121
30
5.7655056789185656e-15
10
51.314220987977428
20
-32.351959908067741
30
5.7601402591093434e-15
10
51.293203325549975
20
-32.360700137517995
30
5.9039951958842702e-15
10
51.273651983939985
20
-32.3721513014249
30
5.9016008470920987e-15
0
LINE
5
236
100
AcDbEntity
8
0
100
AcDbLine
10
51.649999999998258
20
-32.587873759314981
30
5.9016008470920987e-15
11
51.649999999998251
21
-37.090000001916586
31
6.1097676642093124e-15
0
ARC
5
237
100
AcDbEntity
8
0
100
AcDbCircle
10
51.399999999998244
20
-37.090000001916586
30
-2.7401472738533392e-16
40
0.24999999999999911
210
0
220
2.5340840108321816e-14
230
1
100
AcDbArc
50
-90
51
0
0
LWPOLYLINE
5
238
100
AcDbEntity
8
0
100
AcDbPolyline
90
12
70
1
43
0.0
10
-109.10937495068143
20
1.9999998089523907
10
-109.1093749506814
20
-3.5000001910476142
42
-0.41421356237309503
10
-109.6093749506814
20
-4.0000001910476213
10
-110.10937495068146
20
-4.0000001910476124
42
-0.4142135623730846
10
-110.60937495068147
20
-3.5000001910476053
10
-110.60937495068143
20
1.9999998089523952
42
0.41421356237307944
10
-111.1093749506814
20
2.4999998089523756
10
-113.6093749506814
20
2.4999998089523912
42
-0.41421356237308593
10
-114.1093749506814
20
2.9999998089523827
10
-114.1093749506814
20
3.4999998089523809
42
-0.41421356237310025
10
-113.6093749506814
20
3.9999998089523969
10
-111.1093749506814
20
3.9999998089523259
42
-0.41421356237309176
0
ENDSEC
0
SECTION
2
OBJECTS
0
DICTIONARY
5
C
100
AcDbDictionary
3
ACAD_GROUP
350
D
3
ACAD_MLINESTYLE
350
17
0
DICTIONARY
5
D
100
AcDbDictionary
0
DICTIONARY
5
1A
330
C
100
AcDbDictionary
0
DICTIONARY
5
17
100
AcDbDictionary
0
ENDSEC
0
EOF
