0
SECTION
2
HEADER
9
$INSUNITS
70
4
9
$ACADVER
1
AC1014
9
$HANDSEED
5
FFFF
0
ENDSEC
0
SECTION
2
TABLES
0
TABLE
2
VPORT
5
8
100
AcDbSymbolTable
0
ENDTAB
0
TABLE
2
LTYPE
5
5
100
AcDbSymbolTable
0
LTYPE
5
14
100
AcDbSymbolTableRecord
100
AcDbLinetypeTableRecord
2
BYBLOCK
70
0
0
LTYPE
5
15
100
AcDbSymbolTableRecord
100
AcDbLinetypeTableRecord
2
BYLAYER
70
0
0
LTYPE
5
16
100
AcDbSymbolTableRecord
100
AcDbLinetypeTableRecord
2
DASHED
70
0
3
Dashed __ __ __ __ __ __ __ __ __ __ __ __ __ _
72
65
73
2
40
0.75
49
0.5
74
0
49
-0.25
74
0
0
ENDTAB
0
TABLE
2
LAYER
5
2
100
AcDbSymbolTable
70
2
0
LAYER
5
50
100
AcDbSymbolTableRecord
100
AcDbLayerTableRecord
2
0
70
0
62
7
6
CONTINUOUS
0
ENDTAB
0
TABLE
2
STYLE
5
3
100
AcDbSymbolTable
70
1
0
STYLE
5
11
100
AcDbSymbolTableRecord
100
AcDbTextStyleTableRecord
2
STANDARD
70
0
0
ENDTAB
0
TABLE
2
VIEW
5
6
100
AcDbSymbolTable
70
0
0
ENDTAB
0
TABLE
2
UCS
5
7
100
AcDbSymbolTable
70
0
0
ENDTAB
0
TABLE
2
APPID
5
9
100
AcDbSymbolTable
70
2
0
APPID
5
12
100
AcDbSymbolTableRecord
100
AcDbRegAppTableRecord
2
ACAD
70
0
0
ENDTAB
0
TABLE
2
DIMSTYLE
5
A
100
AcDbSymbolTable
70
1
0
ENDTAB
0
TABLE
2
BLOCK_RECORD
5
1
100
AcDbSymbolTable
70
1
0
BLOCK_RECORD
5
1F
100
AcDbSymbolTableRecord
100
AcDbBlockTableRecord
2
*MODEL_SPACE
0
BLOCK_RECORD
5
1B
100
AcDbSymbolTableRecord
100
AcDbBlockTableRecord
2
*PAPER_SPACE
0
ENDTAB
0
ENDSEC
0
SECTION
2
BLOCKS
0
BLOCK
5
20
100
AcDbEntity
100
AcDbBlockBegin
2
*MODEL_SPACE
0
ENDBLK
5
21
100
AcDbEntity
100
AcDbBlockEnd
0
BLOCK
5
1C
100
AcDbEntity
100
AcDbBlockBegin
2
*PAPER_SPACE
0
ENDBLK
5
1D
100
AcDbEntity
100
AcDbBlockEnd
0
ENDSEC
0
SECTION
2
ENTITIES
0
LWPOLYLINE
5
100
100
AcDbEntity
8
0
100
AcDbPolyline
90
12
70
1
43
0.0
10
136.88143973718857
20
-7.5174651488395359
42
0.0088078225500903343
10
136.88175000000001
20
-7.4998536029550333
10
136.88175000000001
20
7.5001463970454907
42
0.41421356237309825
10
136.38175000000015
20
8.0001463970453965
10
130.38174999999995
20
8.0001463970453823
42
0.41421356237307161
10
129.88175000000001
20
7.5001463970454552
10
129.88175000000007
20
5.4657592638761807
42
0.0088078225519296529
10
129.88143973718846
20
5.4481477179880056
10
129.88143973718846
20
-7.5518522820128275
42
0.41421356237314705
10
130.38143973718829
20
-8.0518522820126037
10
136.38143973718829
20
-8.0518522820126393
42
0.41421356237317308
10
136.88143973718857
20
-7.5518522820124812
0
LWPOLYLINE
5
101
100
AcDbEntity
8
0
100
AcDbPolyline
90
12
70
1
43
0.0
10
-109.60924999999996
20
-3.999853602954726
10
-110.10925
20
-3.9998536029547518
42
-0.41421356237309437
10
-110.60925
20
-3.4998536029547456
10
-110.60924999999997
20
2.0001463970452527
42
0.41421356237309731
10
-111.10924999999996
20
2.500146397045246
10
-113.60924999999996
20
2.5001463970452447
42
-0.41421356237303619
10
-114.10924999999997
20
3.0001463970451514
10
-114.10924999999997
20
3.5001463970452473
42
-0.41421356237306184
10
-113.60924999999996
20
4.0001463970452686
10
-111.10924999999996
20
4.0001463970452491
42
-0.41421356237309559
10
-109.10924999999997
20
2.0001463970452527
10
-109.10924999999997
20
-3.4998536029547456
42
-0.41421356237313145
0
LWPOLYLINE
5
102
100
AcDbEntity
8
0
100
AcDbPolyline
90
12
70
1
43
0.0
10
-116.60925
20
4.0001463970452544
10
-116.10924999999996
20
4.0001463970452367
42
-0.41421356237311552
10
-115.60924999999997
20
3.5001463970452478
10
-115.60924999999997
20
-1.9998536029547505
42
0.41421356237311191
10
-115.10925
20
-2.4998536029547154
10
-112.60925
20
-2.499853602954766
42
-0.4142135623731012
10
-112.10925000000003
20
-2.9998536029547478
10
-112.10925000000002
20
-3.4998536029547456
42
-0.41421356237312007
10
-112.60925
20
-3.999853602954742
10
-115.10925
20
-3.9998536029547367
42
-0.4142135623730992
10
-117.10925
20
-1.9998536029547509
10
-117.10925000000002
20
3.5001463970452473
42
-0.41421356237307422
0
LWPOLYLINE
5
103
100
AcDbEntity
8
0
100
AcDbPolyline
90
222
70
1
43
0.0
10
19.557115021164453
20
-52.699419176316233
42
0.41421356237267359
10
20.557115021163508
20
-51.699419176315132
10
20.557115021163543
20
-50.699419176314336
42
0.41421356237325113
10
19.557115021163849
20
-49.699419176315246
10
10.057115021162701
20
-49.699419176315786
42
-0.41421356237312623
10
9.557115021162641
20
-49.199419176315814
10
9.557115021162641
20
-48.699114239732225
42
-0.41421356237309503
10
10.057115021162648
20
-48.199114239732225
10
26.257112029930259
20
-48.199114239732182
42
-0.41421356237292334
10
27.257112029929917
20
-49.19911423973339
10
27.25711202993045
20
-52.268356181566332
42
0.41421356237332396
10
28.757112029930259
20
-53.768356181566247
10
31.757112029929804
20
-53.768356181566119
42
0.41421356237309503
10
33.257112029930731
20
-52.268356181566332
10
33.25711202993061
20
-49.19911423973339
42
-0.41421356237326673
10
34.2571120299298
20
-48.199114239732324
10
95.04524450959336
20
-48.199114239732324
42
-0.41421356237314705
10
95.545244509593346
20
-48.699114239732339
10
95.54524450959336
20
-49.199220660690685
42
-0.4142135623730846
10
95.045244509593388
20
-49.699220660690706
10
85.545244509593076
20
-49.699220660691296
42
0.41421356237333434
10
84.545244509593417
20
-50.699220660690628
10
84.545244509593417
20
-51.699220660690592
42
0.41421356237283491
10
85.545244509593076
20
-52.699220660691708
10
98.545244509593402
20
-52.699220660691694
42
0.41421356237310025
10
99.545244509593402
20
-51.69922066069168
10
99.545244509593417
20
-48.699114239732339
42
-0.4142135623730846
10
100.04524450959339
20
-48.19911423973231
10
110.04524450958756
20
-48.199114239732324
42
-0.41421356237310542
10
110.54524450958755
20
-48.699114239732339
10
110.5452445095876
20
-51.69922066069168
42
0.41421356237311585
10
111.54524450958762
20
-52.699220660691694
10
124.54524450958944
20
-52.699220660691694
42
0.4142135623726424
10
125.54524450958853
20
-51.699220660690592
10
125.54524450958864
20
-50.699220660689818
42
0.41421356237329271
10
124.54524450958891
20
-49.699220660690685
10
115.0452445095877
20
-49.699220660691225
42
-0.41421356237309503
10
114.54524450958773
20
-49.199220660691253
10
114.54524450958773
20
-48.699114239732339
42
-0.4142135623730846
10
115.0452445095877
20
-48.19911423973231
10
131.94244934151175
20
-48.199114239732324
42
-0.4142135623733656
10
132.94244934151186
20
-49.19911423973339
10
132.94244934151189
20
-52.268356181566347
42
0.41421356237295631
10
134.44244934151175
20
-53.768356181566261
10
137.44244934151291
20
-53.768356181566276
42
0.41421356237314017
10
138.94244934151268
20
-52.268356181566347
10
138.94244934151257
20
-49.19911423973339
42
-0.41421356237329271
10
139.94244934151178
20
-48.19911423973231
10
140.94969280013376
20
-48.199114239732182
42
0.41421356237325629
10
142.9496928001337
20
-46.199114239733404
10
142.9496928001337
20
46.14748157794358
42
0.41421356237276202
10
140.94969280013376
20
48.14748157794574
10
139.94244934151121
20
48.147481577946003
42
-0.41421356237318346
10
138.94244934151268
20
49.147481577943694
10
138.94244934151268
20
52.164651818564693
42
0.41421356237336909
10
137.44244934151303
20
53.664651818564764
10
134.44244934151175
20
53.664651818565034
42
0.4142135623727482
10
132.94244934151189
20
52.164651818564693
10
132.94244934151217
20
49.147481577943694
42
-0.41421356237332918
10
131.94244934151175
20
48.147481577945719
10
115.04524450958891
20
48.147481577945697
42
-0.41421356237277246
10
114.54524450958893
20
48.647481577945285
10
114.5452445095892
20
49.147446297267621
42
-0.41421356237313667
10
115.0452445095892
20
49.647446297267628
10
124.54524450958955
20
49.647446297268232
42
0.41421356237335516
10
125.54524450958921
20
50.647446297267571
10
125.54524450958921
20
51.647446297267564
42
0.41421356237286611
10
124.54524450958955
20
52.647446297268573
10
111.54524450958922
20
52.647446297268594
42
0.41421356237310025
10
110.54524450958924
20
51.647446297268601
10
110.54524450958888
20
48.647481577946095
42
-0.41421356237333956
10
110.04524450958888
20
48.147481577945676
10
100.0452445095946
20
48.147481577945626
42
-0.41421356237288692
10
99.545244509594568
20
48.647481577945229
10
99.54524450959498
20
51.647446297268601
42
0.41421356237310281
10
98.545244509594966
20
52.647446297268566
10
85.545244509593189
20
52.647446297268594
42
0.41421356237267359
10
84.545244509594085
20
51.647446297267585
10
84.545244509594099
20
50.64744629726674
42
0.41421356237324591
10
85.545244509593758
20
49.647446297267628
10
95.045244509594923
20
49.647446297268196
42
-0.41421356237314705
10
95.545244509594909
20
49.147446297268189
10
95.545244509594497
20
48.647481577946024
42
-0.41421356237330836
10
95.045244509594525
20
48.147481577945619
10
34.2571120299298
20
48.147481577945456
42
-0.41421356237315227
10
33.257112029930752
20
49.147481577943708
10
33.25711202993071
20
52.164651818564707
42
0.41421356237314538
10
31.757112029929839
20
53.664651818564771
10
28.757112029929726
20
53.664651818564764
42
0.41421356237247764
10
27.257112029929917
20
52.164651818564707
10
27.257112029929633
20
49.147481577943708
42
-0.41421356237268919
10
26.257112029930294
20
48.147481577945754
10
10.057115021164176
20
48.147481577945825
42
-0.41421356237286611
10
9.5571150211641651
20
48.647481577945406
10
9.5571150211644884
20
49.147446297268083
42
-0.41421356237316787
10
10.057115021164496
20
49.647446297268075
10
19.557115021164808
20
49.647446297268644
42
0.41421356237335777
10
20.557115021164506
20
50.647446297268033
10
20.557115021164503
20
51.647446297267976
42
0.41421356237282447
10
19.557115021164879
20
52.64744629726902
10
6.5571150211645168
20
52.647446297269042
42
0.41421356237306384
10
5.5571150211644866
20
51.647446297269042
10
5.5571150211640585
20
48.647481577946294
42
-0.41421356237334994
10
5.0571150211640692
20
48.147481577945868
10
-5.4428849788296851
20
48.147481577945932
10
-5.4428849788297384
20
51.647446297269042
42
0.41421356237308204
10
-6.4428849788296816
20
52.647446297269049
10
-19.442884978831554
20
52.647446297269042
42
0.41421356237265539
10
-20.44288497883063
20
51.647446297267976
10
-20.442884978830627
20
50.647446297267194
42
0.41421356237330054
10
-19.442884978830985
20
49.647446297268061
10
-9.9428849788298201
20
49.647446297268623
42
-0.41421356237315227
10
-9.4428849788297367
20
49.147446297268615
10
-9.442884978829742
20
48.147481577945953
10
-26.142887970066475
20
48.147481577946039
42
-0.4142135623728479
10
-27.14288797006499
20
49.147481577943708
10
-27.142887970064411
20
52.164651818564707
42
0.41421356237342455
10
-28.642887970066422
20
53.664651818564749
10
-31.642887970066589
20
53.664651818564494
42
0.41421356237309681
10
-33.142887970066333
20
52.164651818564707
10
-33.142887970066624
20
49.147481577943708
42
-0.4142135623730222
10
-34.142887970064862
20
48.14748157794579
10
-84.931014467259459
20
48.147481577945769
42
-0.41421356237283491
10
-85.431014467259445
20
48.647481577945356
10
-85.431014467259075
20
49.147644812893191
42
-0.41421356237313667
10
-84.931014467259075
20
49.647644812893205
10
-75.431014467258763
20
49.647644812893788
42
0.41421356237331874
10
-74.431014467259075
20
50.647644812893162
10
-74.431014467259061
20
51.647644812893091
42
0.4142135623728635
10
-75.431014467258763
20
52.647644812894185
10
-88.431014467259089
20
52.647644812894185
42
0.41421356237306384
10
-89.431014467259104
20
51.647644812894171
10
-89.431014467259473
20
48.647481577946209
42
-0.41421356237334478
10
-89.931014467259473
20
48.147481577945783
10
-99.931014467253277
20
48.147481577945811
42
-0.41421356237309503
10
-100.43101446725328
20
48.647481577945797
10
-100.43101446725329
20
51.647644812894171
42
0.41421356237310542
10
-101.43101446725325
20
52.647644812894185
10
-114.43101446725512
20
52.647644812894185
42
0.41421356237269441
10
-115.43101446725423
20
51.647644812893105
10
-115.43101446725422
20
50.64764481289231
42
0.41421356237323553
10
-114.43101446725456
20
49.647644812893233
10
-104.93101446725348
20
49.647644812893716
42
-0.41421356237314189
10
-104.43101446725339
20
49.147644812893752
10
-104.43101446725338
20
48.647481577945797
42
-0.41421356237307944
10
-104.93101446725336
20
48.147481577945797
10
-131.94382511512651
20
48.147481577945769
42
-0.41421356237297013
10
-132.94382511512626
20
49.147481577943722
10
-132.94382511512669
20
52.164651818564721
42
0.41421356237328583
10
-134.44382511512649
20
53.664651818564799
10
-137.44382511512663
20
53.664651818564778
42
0.41421356237249152
10
-138.94382511512643
20
52.164651818564721
10
-138.94382511512663
20
49.147481577943722
42
-0.41421356237266838
10
-139.94382511512609
20
48.147481577945769
10
-140.95031342379764
20
48.147481577944106
42
0.41421356237324852
10
-142.95031342379914
20
46.147481577943608
10
-142.95031342379917
20
-14.549564659488308
42
0.4142135623743749
10
-142.45031342379909
20
-15.049564659488269
10
-141.45031343371809
20
-15.049564659488572
42
-0.41421356237295193
10
-140.450313433719
20
-16.049564659488365
10
-140.45031343371869
20
-22.049564659488308
42
-0.41421356237297274
10
-141.45031343371807
20
-23.049564659488389
10
-142.45031342379963
20
-23.049564659488535
42
0.41421356237192958
10
-142.95031342379914
20
-23.549564659488354
10
-142.95031342379821
20
-46.199114239733383
42
0.41421356237301959
10
-140.95031342379764
20
-48.199114239732296
10
-139.94382511512609
20
-48.199114239732133
42
-0.41421356237288171
10
-138.9438251151264
20
-49.19911423973339
10
-138.94382511512583
20
-52.268356181566332
42
0.41421356237330315
10
-137.44382511512609
20
-53.768356181566254
10
-134.44382511512651
20
-53.768356181566674
42
0.41421356237264068
10
-132.9438251151262
20
-52.268356181566332
10
-132.94382511512629
20
-49.19911423973339
42
-0.41421356237282447
10
-131.94382511512651
20
-48.19911423973231
10
-114.93101446725548
20
-48.199114239732225
42
-0.41421356237312623
10
-114.43101446725548
20
-48.699114239732246
10
-114.43101446725551
20
-49.199419176315246
42
-0.41421356237311585
10
-114.93101446725552
20
-49.699419176315246
10
-124.43101446725576
20
-49.6994191763158
42
0.41421356237334994
10
-125.43101446725544
20
-50.699419176315175
10
-125.43101446725542
20
-51.699419176315118
42
0.41421356237282447
10
-124.43101446725581
20
-52.699419176316262
10
-111.43101446725544
20
-52.699419176316198
42
0.41421356237310542
10
-110.43101446725542
20
-51.699419176316184
10
-110.43101446725547
20
-48.699114239732197
42
-0.4142135623730846
10
-109.93101446725549
20
-48.199114239732232
10
-99.931014467261235
20
-48.199114239732133
42
-0.41421356237311585
10
-99.431014467261249
20
-48.699114239732125
10
-99.431014467261235
20
-51.699419176316184
42
0.41421356237310025
10
-98.431014467261221
20
-52.699419176316184
10
-85.431014467259402
20
-52.699419176316198
42
0.41421356237268403
10
-84.431014467260312
20
-51.699419176315132
10
-84.431014467260312
20
-50.699419176314308
42
0.41421356237325113
10
-85.431014467260042
20
-49.699419176315246
10
-94.931014467261136
20
-49.699419176315764
42
-0.4142135623730846
10
-95.431014467261235
20
-49.199419176315793
10
-95.43101446726115
20
-48.699114239732125
42
-0.4142135623730534
10
-94.931014467261164
20
-48.199114239732125
10
-34.142887970064862
20
-48.199114239731848
42
-0.414213562372658
10
-33.142887970066312
20
-49.19911423973339
10
-33.142887970066894
20
-52.268356181566332
42
0.41421356237323381
10
-31.642887970066589
20
-53.768356181566247
10
-28.642887970066475
20
-53.768356181565963
42
0.41421356237341073
10
-27.142887970064944
20
-52.268356181566332
10
-27.142887970064695
20
-49.19911423973339
42
-0.41421356237293372
10
-26.142887970066475
20
-48.199114239732275
10
-9.9428849788317031
20
-48.199114239732275
42
-0.41421356237312623
10
-9.442884978831696
20
-48.699114239732268
10
-9.4428849788315894
20
-49.199419176315246
42
-0.41421356237312623
10
-9.9428849788316143
20
-49.699419176315246
10
-19.442884978831909
20
-49.6994191763158
42
0.41421356237334478
10
-20.442884978831568
20
-50.699419176315175
10
-20.442884978831568
20
-51.699419176315118
42
0.41421356237281409
10
-19.442884978831945
20
-52.699419176316269
10
-6.4428849788315823
20
-52.699419176316233
42
0.41421356237311585
10
-5.4428849788315681
20
-51.699419176316184
10
-5.4428849788316391
20
-48.699114239732268
42
-0.41421356237309503
10
-4.9428849788316498
20
-48.199114239732239
10
5.0571150211626126
20
-48.199114239732225
42
-0.41421356237312623
10
5.5571150211626197
20
-48.699114239732246
10
5.5571150211626197
20
-51.699419176316241
42
0.41421356237310025
10
6.5571150211626161
20
-52.699419176316184
0
LWPOLYLINE
5
104
100
AcDbEntity
8
0
100
AcDbPolyline
90
4
70
1
43
0.0
10
136.94244934151138
20
47.147481577945882
42
0.99999999999999989
10
136.94244934151146
20
48.147481577945896
10
134.94244934151143
20
48.147481577945911
42
0.99999999999999989
10
134.94244934151149
20
47.147481577945868
0
LWPOLYLINE
5
105
100
AcDbEntity
8
0
100
AcDbPolyline
90
4
70
1
43
0.0
10
29.257112029930017
20
48.147481577945612
10
31.257112029930081
20
48.147481577945626
42
-0.99999999999999989
10
31.25711202993001
20
47.147481577945612
10
29.257112029930017
20
47.147481577945634
42
-0.99999999999999989
0
LWPOLYLINE
5
106
100
AcDbEntity
8
0
100
AcDbPolyline
90
4
70
1
43
0.0
10
-31.142887970065587
20
48.147481577945953
42
0.99999999999999989
10
-31.142887970065622
20
47.147481577945882
10
-29.142887970065559
20
47.147481577945918
42
0.99999999999999989
10
-29.142887970065594
20
48.147481577945911
0
LWPOLYLINE
5
107
100
AcDbEntity
8
0
100
AcDbPolyline
90
4
70
1
43
0.0
10
-136.94382511512626
20
48.14748157794579
10
-134.94382511512623
20
48.14748157794579
42
-0.99999999999999989
10
-134.94382511512623
20
47.147481577945776
10
-136.94382511512626
20
47.147481577945776
42
-0.99999999999999989
0
LWPOLYLINE
5
108
100
AcDbEntity
8
0
100
AcDbPolyline
90
4
70
1
43
0.0
10
-31.142887970065622
20
-47.199114239732097
42
0.99999999999999989
10
-31.142887970065658
20
-48.199114239732083
10
-29.142887970065594
20
-48.199114239732097
42
0.99999999999999989
10
-29.142887970065594
20
-47.199114239732083
0
LWPOLYLINE
5
109
100
AcDbEntity
8
0
100
AcDbPolyline
90
4
70
1
43
0.0
10
31.257112029930045
20
-48.199114239732275
10
29.257112029930017
20
-48.199114239732225
42
-0.99999999999999989
10
29.257112029930017
20
-47.199114239732239
10
31.257112029930116
20
-47.199114239732261
42
-0.99999999999999989
0
LWPOLYLINE
5
110
100
AcDbEntity
8
0
100
AcDbPolyline
90
4
70
1
43
0.0
10
-136.94382511512626
20
-47.199114239732225
10
-134.94382511512623
20
-47.199114239732225
42
-0.99999999999999989
10
-134.94382511512623
20
-48.199114239732239
10
-136.94382511512626
20
-48.199114239732239
42
-0.99999999999999989
0
LWPOLYLINE
5
111
100
AcDbEntity
8
0
100
AcDbPolyline
90
4
70
1
43
0.0
10
136.94244934151183
20
-48.199114239732346
42
0.99999999999999989
10
136.94244934151178
20
-47.199114239732332
10
134.94244934151172
20
-47.199114239732353
42
0.99999999999999989
10
134.94244934151172
20
-48.199114239732296
0
LWPOLYLINE
5
112
100
AcDbEntity
8
0
100
AcDbPolyline
90
12
70
1
43
0.0
10
-140.34948600100643
20
44.576845843321578
10
-140.34948600100643
20
44.600146397046636
42
-0.41421356237341761
10
-139.84948600100626
20
45.100146397045023
10
-126.85051399899378
20
45.100146397045577
42
-0.41421356237419804
10
-126.35051399899565
20
44.600146397046636
10
-126.35051399899537
20
44.562419882340052
42
-0.0071371727678617653
10
-126.35031026281153
20
44.548147717987888
10
-126.35031026281155
20
31.548147717987867
42
-0.41421356237314189
10
-126.85031026281153
20
31.048147717987867
10
-139.85031026281152
20
31.048147717987867
42
-0.41421356237313145
10
-140.35031026281155
20
31.548147717987867
10
-140.35031026281155
20
44.548147717987888
42
-0.014357939301749433
0
LWPOLYLINE
5
113
100
AcDbEntity
8
0
100
AcDbPolyline
90
8
70
1
43
0.0
10
-74.462810262811544
20
-45.15185228201215
42
0.41421356237308982
10
-73.962810262811558
20
-44.6518522820122
10
-73.962810262811573
20
-31.6518522820122
42
0.4142135623730534
10
-74.462810262811544
20
-31.151852282012172
10
-87.462810262811544
20
-31.151852282012101
42
0.41421356237307944
10
-87.962810262811558
20
-31.6518522820122
10
-87.962810262811502
20
-44.651852282012108
42
0.41421356237314705
10
-87.462810262811544
20
-45.151852282012172
0
LWPOLYLINE
5
114
100
AcDbEntity
8
0
100
AcDbPolyline
90
8
70
1
43
0.0
10
87.962189737188481
20
-31.651852282012271
42
0.41421356237315227
10
87.462189737188481
20
-31.151852282012314
10
74.462189737188439
20
-31.1518522820122
42
0.41421356237287649
10
73.962189737188467
20
-31.651852282012083
10
73.962189737188453
20
-44.651852282012037
42
0.41421356237314705
10
74.46218973718851
20
-45.151852282012257
10
87.462189737188481
20
-45.151852282012257
42
0.41421356237326151
10
87.962189737188496
20
-44.651852282012392
0
LWPOLYLINE
5
115
100
AcDbEntity
8
0
100
AcDbPolyline
90
8
70
1
43
0.0
10
83.487189737781776
20
-6.5518522826056458
10
83.487189737781762
20
6.4481477173946455
42
-0.41421356237310542
10
83.987189737781748
20
6.9481477173944306
10
96.987189737781719
20
6.9481477173946171
42
-0.41421356237315748
10
97.487189737781762
20
6.4481477173946811
10
97.487189737781748
20
-6.5518522826056458
42
-0.41421356237305862
10
96.987189737781762
20
-7.0518522826056351
10
83.987189737781748
20
-7.0518522826055463
42
-0.4142135623731783
0
LWPOLYLINE
5
116
100
AcDbEntity
8
0
100
AcDbPolyline
90
8
70
1
43
0.0
10
45.387189737781682
20
-6.5518522826052639
10
45.387189737781725
20
6.4481477173946189
42
-0.41421356237310542
10
45.887189737781654
20
6.9481477173945017
10
58.887189737781839
20
6.9481477173944839
42
-0.41421356237311063
10
59.38718973778181
20
6.4481477173944857
10
59.38718973778181
20
-6.5518522826054681
42
-0.41421356237293372
10
58.887189737781839
20
-7.0518522826054486
10
45.887189737781725
20
-7.0518522826055285
42
-0.41421356237314189
0
LWPOLYLINE
5
117
100
AcDbEntity
8
0
100
AcDbPolyline
90
8
70
1
43
0.0
10
7.7871897377817412
20
6.9481477173945727
10
20.787189737781748
20
6.9481477173944661
42
-0.41421356237314189
10
21.287189737781791
20
6.4481477173945567
10
21.287189737781731
20
-6.5518522826054415
42
-0.41421356237292856
10
20.787189737781748
20
-7.051852282605493
10
7.7871897377817767
20
-7.0518522826054042
42
-0.41421356237308982
10
7.2871897377817341
20
-6.5518522826054415
10
7.2871897377817696
20
6.4481477173944857
42
-0.4142135623730378
0
LWPOLYLINE
5
118
100
AcDbEntity
8
0
100
AcDbPolyline
90
8
70
1
43
0.0
10
-30.812810262218289
20
-6.551852282605477
10
-30.812810262218289
20
6.4481477173945034
42
-0.41421356237308982
10
-30.312810262218282
20
6.9481477173945727
10
-17.312810262218221
20
6.9481477173945283
42
-0.41421356237307944
10
-16.812810262218242
20
6.4481477173945745
10
-16.812810262218232
20
-6.5518522826054415
42
-0.41421356237312101
10
-17.312810262218203
20
-7.051852282605493
10
-30.312810262218282
20
-7.0518522826054397
42
-0.41421356237323553
0
LWPOLYLINE
5
119
100
AcDbEntity
8
0
100
AcDbPolyline
90
8
70
1
43
0.0
10
-59.387810262218331
20
-25.601852282605453
42
0.41421356237310542
10
-58.887810262218352
20
-26.101852282605449
10
-45.887810262218295
20
-26.101852282605471
42
0.414213562373069
10
-45.387810262218338
20
-25.601852282605524
10
-45.387810262218331
20
-12.60185228260541
42
0.41421356237305862
10
-45.887810262218224
20
-12.101852282605439
10
-58.88781026221821
20
-12.101852282605403
42
0.41421356237312623
10
-59.387810262218167
20
-12.60185228260541
0
LWPOLYLINE
5
120
100
AcDbEntity
8
0
100
AcDbPolyline
90
8
70
1
43
0.0
10
-107.01281026221834
20
-6.5518522826054237
42
0.41421356237298579
10
-106.51281026221837
20
-7.0518522826054886
10
-93.512810262218395
20
-7.0518522826054131
42
0.41421356237304818
10
-93.01281026221838
20
-6.551852282605477
10
-93.012810262218295
20
6.4481477173945922
42
0.41421356237313145
10
-93.512810262218281
20
6.9481477173945816
10
-106.51281026221835
20
6.9481477173946171
42
0.41421356237312101
10
-107.0128102622183
20
6.4481477173946189
0
LWPOLYLINE
5
121
100
AcDbEntity
8
0
100
AcDbPolyline
90
8
70
1
43
0.0
10
-119.70656026281154
20
-7.0518522820121365
10
-137.46656026281156
20
-7.0518522820120833
42
-0.41421356237302737
10
-137.96656026281153
20
-6.5518522820121738
10
-137.96656026281164
20
6.4481477179878777
42
-0.41421356237312623
10
-137.46656026281156
20
6.9481477179878688
10
-119.70656026281154
20
6.9481477179878492
42
-0.41421356237301177
10
-119.20656026281154
20
6.4481477179878599
10
-119.20656026281152
20
-6.5518522820121472
42
-0.41421356237310542
0
LWPOLYLINE
5
122
100
AcDbEntity
8
0
100
AcDbPolyline
90
8
70
1
43
0.0
10
-73.675310262218318
20
12.498147717394597
42
0.41421356237302737
10
-73.175310262218417
20
11.998147717394531
10
-60.175310262218304
20
11.998147717394581
42
0.41421356237319906
10
-59.675310262218417
20
12.498147717394534
10
-59.675310262218282
20
25.498147717394616
42
0.41421356237318607
10
-60.175310262218389
20
25.998147717394559
10
-73.175310262218275
20
25.998147717394616
42
0.41421356237305601
10
-73.675310262218275
20
25.498147717394612
0
LWPOLYLINE
5
123
100
AcDbEntity
8
0
100
AcDbPolyline
90
8
70
1
43
0.0
10
2.5246897377817845
20
12.498147717394588
42
0.41421356237309243
10
3.0246897377817739
20
11.998147717394531
10
16.024689737781781
20
11.998147717394673
42
0.41421356237316265
10
16.524689737781788
20
12.498147717394588
10
16.524689737781788
20
25.498147717394474
42
0.414213562373069
10
16.024689737781781
20
25.99814771739462
10
3.0246897377817739
20
25.998147717394502
42
0.4142135623730378
10
2.5246897377817845
20
25.49814771739447
0
LWPOLYLINE
5
124
100
AcDbEntity
8
0
100
AcDbPolyline
90
8
70
1
43
0.0
10
79.224689737781674
20
25.998147717394463
42
0.41421356237290252
10
78.724689737781702
20
25.498147717394467
10
78.724689737781716
20
12.498147717394499
42
0.41421356237313928
10
79.224689737781745
20
11.998147717394527
10
92.224689737782043
20
11.998147717394625
42
0.4142135623732251
10
92.724689737782015
20
12.498147717394605
10
92.724689737781674
20
25.498147717394538
42
0.41421356237315748
10
92.224689737781688
20
25.998147717394637
0
LWPOLYLINE
5
125
100
AcDbEntity
8
0
100
AcDbPolyline
90
8
70
1
43
0.0
10
88.74968973718849
20
45.048147717987376
42
0.41421356237302737
10
88.249689737188334
20
44.548147717988833
10
88.249689737188461
20
31.548147717987661
42
0.41421356237314705
10
88.74968973718849
20
31.048147717988108
10
101.74968973718849
20
31.048147717987959
42
0.41421356237290252
10
102.24968973718846
20
31.548147717987458
10
102.24968973718846
20
44.548147717987604
42
0.41421356237311585
10
101.74968973718849
20
45.048147717987689
0
LWPOLYLINE
5
126
100
AcDbEntity
8
0
100
AcDbPolyline
90
8
70
1
43
0.0
10
12.549689737188547
20
45.048147717988186
10
25.549689737188448
20
45.048147717988044
42
-0.41421356237315748
10
26.049689737188455
20
44.54814771798857
10
26.049689737188402
20
31.548147717987867
42
-0.41421356237290774
10
25.549689737188448
20
31.048147717987877
10
12.549689737188547
20
31.048147717987757
42
-0.41421356237305601
10
12.049689737188398
20
31.548147717987874
10
12.049689737188398
20
44.548147717988144
42
-0.4142135623730534
0
LWPOLYLINE
5
127
100
AcDbEntity
8
0
100
AcDbPolyline
90
8
70
1
43
0.0
10
-50.650310262811544
20
31.048147717987824
42
0.41421356237311585
10
-50.15031026281163
20
31.548147717987884
10
-50.150310262811637
20
44.548147717987575
42
0.41421356237291296
10
-50.650310262811544
20
45.048147717987561
10
-63.65031026281148
20
45.048147717987995
42
0.41421356237299617
10
-64.150310262811445
20
44.548147717987675
10
-64.150310262811544
20
31.548147717987884
42
0.41421356237306384
10
-63.650310262811573
20
31.048147717987824
0
LWPOLYLINE
5
128
100
AcDbEntity
8
0
100
AcDbPolyline
90
8
70
1
43
0.0
10
-69.70031026281157
20
31.048147717987771
10
-82.700310262811584
20
31.048147717987856
42
-0.41421356237313406
10
-83.200310262811499
20
31.548147717987803
10
-83.200310262811541
20
44.548147717987888
42
-0.41421356237310025
10
-82.70031026281157
20
45.048147717987931
10
-69.70031026281157
20
45.048147717987703
42
-0.41421356237310542
10
-69.200310262811499
20
44.548147717987959
10
-69.20031026281157
20
31.548147717987849
42
-0.41421356237309503
0
LWPOLYLINE
5
129
100
AcDbEntity
8
0
100
AcDbPolyline
90
8
70
1
43
0.0
10
-7.0003102628115244
20
31.54814771798776
42
0.41421356237309503
10
-6.5003102628115528
20
31.048147717987611
10
6.4996897371885076
20
31.048147717987746
42
0.41421356237311063
10
6.9996897371884437
20
31.548147717987707
10
6.9996897371884348
20
44.54814771798695
42
0.41421356237311063
10
6.4996897371885076
20
45.048147717987902
10
-6.5003102628115528
20
45.048147717988243
42
0.4142135623730378
10
-7.0003102628115244
20
44.548147717988549
0
LWPOLYLINE
5
130
100
AcDbEntity
8
0
100
AcDbPolyline
90
8
70
1
43
0.0
10
69.699689737188478
20
45.048147717986666
42
0.41421356237297535
10
69.199689737188464
20
44.548147717987646
10
69.199689737188436
20
31.54814771798754
42
0.41421356237296497
10
69.699689737188478
20
31.048147717987433
10
82.699689737188478
20
31.04814771798776
42
0.41421356237295454
10
83.199689737188521
20
31.548147717987423
10
83.199689737188436
20
44.548147717986609
42
0.4142135623731939
10
82.699689737188478
20
45.048147717987312
0
LWPOLYLINE
5
131
100
AcDbEntity
8
0
100
AcDbPolyline
90
8
70
1
43
0.0
10
98.274689737781756
20
25.998147717394374
42
0.41421356237291812
10
97.774689737781785
20
25.498147717394492
10
97.774689737781785
20
12.498147717394525
42
0.41421356237310025
10
98.274689737781799
20
11.998147717394438
10
111.2746897377818
20
11.998147717394367
42
0.41421356237299095
10
111.77468973778191
20
12.498147717394801
10
111.77468973778176
20
25.498147717394147
42
0.4142135623731783
10
111.2746897377818
20
25.998147717394744
0
LWPOLYLINE
5
132
100
AcDbEntity
8
0
100
AcDbPolyline
90
8
70
1
43
0.0
10
35.074689737781753
20
11.998147717394527
10
22.074689737781821
20
11.998147717394581
42
-0.41421356237310025
10
21.574689737781672
20
12.498147717394597
10
21.574689737781824
20
25.498147717394612
42
-0.41421356237313406
10
22.07468973778175
20
25.998147717394463
10
35.074689737781725
20
25.998147717394616
42
-0.41421356237313667
10
35.574689737781654
20
25.498147717394467
10
35.574689737781689
20
12.498147717394534
42
-0.41421356237301438
0
LWPOLYLINE
5
133
100
AcDbEntity
8
0
100
AcDbPolyline
90
8
70
1
43
0.0
10
-54.625310262218377
20
12.498147717394552
10
-54.625310262218377
20
25.498147717394659
42
-0.41421356237312884
10
-54.125310262218278
20
25.998147717394563
10
-41.125310262218271
20
25.998147717394588
42
-0.41421356237304302
10
-40.625310262218278
20
25.498147717394509
10
-40.625310262218278
20
12.498147717394534
42
-0.41421356237308204
10
-41.125310262218271
20
11.998147717394566
10
-54.125310262218278
20
11.998147717394648
42
-0.41421356237312884
0
LWPOLYLINE
5
134
100
AcDbEntity
8
0
100
AcDbPolyline
90
8
70
1
43
0.0
10
-121.58781026281156
20
25.498147717987877
42
0.41421356237304302
10
-122.08781026281156
20
25.998147717987852
10
-135.08781026281153
20
25.998147717987873
42
0.41421356237304302
10
-135.58781026281156
20
25.49814771798788
10
-135.58781026281156
20
12.498147717987873
42
0.41421356237301699
10
-135.08781026281153
20
11.998147717987857
10
-122.0878102628116
20
11.998147717987809
42
0.41421356237310802
10
-121.5878102628116
20
12.498147717987838
0
LWPOLYLINE
5
135
100
AcDbEntity
8
0
100
AcDbPolyline
90
12
70
1
43
0.0
10
-113.00575000000002
20
-13.584240736125095
10
-113.00575000000003
20
-11.549853602954752
42
-0.41421356237308332
10
-112.50575000000005
20
-11.049853602954782
10
-106.50575000000009
20
-11.0498536029548
42
-0.41421356237307294
10
-106.00575000000008
20
-11.549853602954805
10
-106.00575000000005
20
-26.549853602954805
42
-0.0088078225506672096
10
-106.00606026281154
20
-26.567465148840455
10
-106.00606026281154
20
-26.601852282012128
42
-0.41421356237311585
10
-106.50606026281166
20
-27.101852282012135
10
-112.50606026281162
20
-27.101852282012182
42
-0.41421356237313145
10
-113.00606026281162
20
-26.601852282012164
10
-113.00606026281157
20
-13.601852282012141
42
-0.0088078225513653716
0
LWPOLYLINE
5
136
100
AcDbEntity
8
0
100
AcDbPolyline
90
8
70
1
43
0.0
10
-68.912810262218315
20
-6.5518522826054415
10
-68.912810262218386
20
6.4481477173945034
42
-0.41421356237302737
10
-68.412810262218372
20
6.9481477173946171
10
-55.412810262218301
20
6.9481477173946793
42
-0.41421356237317308
10
-54.912810262218272
20
6.4481477173945922
10
-54.912810262218237
20
-6.551852282605406
42
-0.41421356237310542
10
-55.412810262218258
20
-7.0518522826053776
10
-68.412810262218414
20
-7.0518522826054308
42
-0.41421356237310542
0
LWPOLYLINE
5
137
100
AcDbEntity
8
0
100
AcDbPolyline
90
8
70
1
43
0.0
10
-39.837810262218255
20
-12.101852282605376
10
-26.837810262218227
20
-12.101852282605465
42
-0.41421356237307422
10
-26.337810262218248
20
-12.601852282605517
10
-26.337810262218344
20
-25.601852282605382
42
-0.41421356237302737
10
-26.837810262218209
20
-26.101852282605485
10
-39.837810262218284
20
-26.10185228260552
42
-0.41421356237305862
10
-40.337810262218383
20
-25.601852282605524
10
-40.337810262218277
20
-12.60185228260541
42
-0.41421356237307944
0
LWPOLYLINE
5
138
100
AcDbEntity
8
0
100
AcDbPolyline
90
8
70
1
43
0.0
10
11.26218973778176
20
-26.101852282605435
42
0.41421356237310542
10
11.762189737781767
20
-25.601852282605478
10
11.76218973778183
20
-12.601852282605517
42
0.414213562373069
10
11.262189737781814
20
-12.10185228260551
10
-1.737810262218229
20
-12.101852282605519
42
0.4142135623730846
10
-2.2378102622182716
20
-12.601852282605437
10
-2.2378102622182716
20
-25.601852282605392
42
0.41421356237307944
10
-1.7378102622182645
20
-26.101852282605478
0
LWPOLYLINE
5
139
100
AcDbEntity
8
0
100
AcDbPolyline
90
8
70
1
43
0.0
10
36.362189737781719
20
-12.101852282605545
42
0.41421356237299095
10
35.862189737781726
20
-12.601852282605437
10
35.862189737781719
20
-25.601852282605524
42
0.41421356237309503
10
36.362189737781719
20
-26.10185228260546
10
49.362189737781691
20
-26.101852282605307
42
0.41421356237296497
10
49.862189737781776
20
-25.601852282605392
10
49.862189737781776
20
-12.601852282605517
42
0.4142135623732251
10
49.362189737781733
20
-12.101852282605536
0
LWPOLYLINE
5
140
100
AcDbEntity
8
0
100
AcDbPolyline
90
8
70
1
43
0.0
10
74.462189737781785
20
-12.101852282605474
42
0.41421356237306384
10
73.96218973778187
20
-12.601852282605268
10
73.96218973778177
20
-25.601852282605392
42
0.41421356237310542
10
74.462189737781742
20
-26.101852282605236
10
87.462189737781785
20
-26.101852282605496
42
0.41421356237303258
10
87.962189737781756
20
-25.601852282605549
10
87.962189737781827
20
-12.601852282605321
42
0.41421356237302737
10
87.462189737781713
20
-12.101852282605252
0
LWPOLYLINE
5
141
100
AcDbEntity
8
0
100
AcDbPolyline
90
8
70
1
43
0.0
10
111.2746897371885
20
-45.151852282012435
42
0.4142135623730846
10
111.77468973718848
20
-44.65185228201225
10
111.77468973718847
20
-31.651852282012356
42
0.41421356237308982
10
111.2746897371885
20
-31.151852282012182
10
98.274689737188496
20
-31.151852282012385
42
0.41421356237307944
10
97.774689737188481
20
-31.651852282012083
10
97.774689737188481
20
-44.65185228201225
42
0.41421356237297013
10
98.274689737188496
20
-45.151852282012186
0
LWPOLYLINE
5
142
100
AcDbEntity
8
0
100
AcDbPolyline
90
12
70
1
43
0.0
10
-60.649999999999977
20
-30.634240736123989
10
-60.64999999999997
20
-30.59985360295471
42
-0.41421356237309503
10
-60.15000000000002
20
-30.099853602954745
10
-54.149999999999999
20
-30.099853602954735
42
-0.41421356237311063
10
-53.65000000000002
20
-30.599853602954706
10
-53.650000000000006
20
-45.599853602954639
42
-0.41421356237306384
10
-54.149999999999991
20
-46.09985360295461
10
-60.150000000000048
20
-46.099853602954603
42
-0.41421356237307944
10
-60.650000000000013
20
-45.599853602954646
10
-60.650000000000013
20
-43.669463827899932
42
-0.0088078225521959937
10
-60.650310262811615
20
-43.65185228201122
10
-60.650310262811558
20
-30.651852282012086
42
-0.0088078225518918793
0
LWPOLYLINE
5
143
100
AcDbEntity
8
0
100
AcDbPolyline
90
8
70
1
43
0.0
10
-98.275310262811615
20
-45.151852282012221
42
0.41421356237307422
10
-97.775310262811658
20
-44.6518522820122
10
-97.775310262811644
20
-31.6518522820122
42
0.41421356237305862
10
-98.275310262811558
20
-31.151852282012172
10
-111.27531026281156
20
-31.151852282012147
42
0.41421356237312101
10
-111.77531026281157
20
-31.651852282012083
10
-111.77531026281159
20
-44.651852282012108
42
0.4142135623730534
10
-111.27531026281156
20
-45.151852282012101
0
LWPOLYLINE
5
144
100
AcDbEntity
8
0
100
AcDbPolyline
90
12
70
1
43
0.0
10
53.650000000000013
20
-30.634240736125228
10
53.65000000000002
20
-30.599853602954799
42
-0.4142135623730846
10
54.150000000000098
20
-30.09985360295472
10
60.150000000000112
20
-30.099853602954738
42
-0.41421356237310281
10
60.650000000000084
20
-30.599853602954706
10
60.650000000000013
20
-45.599853602954987
42
-0.41421356237311063
10
60.150000000000013
20
-46.099853602954973
10
54.150000000000105
20
-46.099853602955001
42
-0.41421356237309503
10
53.650000000000013
20
-45.599853602954923
10
53.650000000000013
20
-43.669463827898987
42
-0.0088078225510666974
10
53.649689737188488
20
-43.651852282012541
10
53.649689737188467
20
-30.6518522820122
42
-0.0088078225513283977
0
LWPOLYLINE
5
145
100
AcDbEntity
8
0
100
AcDbPolyline
90
12
70
1
43
0.0
10
106.00575000000003
20
5.4657592638749977
10
106.00575000000001
20
7.5001463970452331
42
-0.41421356237310802
10
106.50575000000015
20
8.0001463970453557
10
112.50574999999986
20
8.0001463970453486
42
-0.41421356237311391
10
113.00574999999998
20
7.5001463970452376
10
113.00575000000023
20
-7.4998536029547402
42
-0.0088078225539651601
10
113.00543973718851
20
-7.5174651488469912
10
113.00543973718851
20
-7.5518522820121525
42
-0.41421356237304818
10
112.50543973718831
20
-8.0518522820123817
10
106.50543973718848
20
-8.0518522820122929
42
-0.41421356237299095
10
106.0054397371885
20
-7.551852282012268
10
106.00543973718848
20
5.4481477179878084
42
-0.0088078225514355429
0
LWPOLYLINE
5
146
100
AcDbEntity
8
0
100
AcDbPolyline
90
8
70
1
43
0.0
10
78.437189737781679
20
6.4481477173945567
10
78.437189737781921
20
-6.5518522826054948
42
-0.41421356237317308
10
77.937189737781708
20
-7.0518522826054131
10
64.937189737781779
20
-7.0518522826055285
42
-0.41421356237305862
10
64.437189737781765
20
-6.5518522826054415
10
64.437189737781765
20
6.4481477173945745
42
-0.41421356237290252
10
64.937189737781736
20
6.9481477173945727
10
77.937189737781708
20
6.9481477173946082
42
-0.41421356237305862
0
LWPOLYLINE
5
147
100
AcDbEntity
8
0
100
AcDbPolyline
90
8
70
1
43
0.0
10
39.837189737781827
20
-7.0518522826053776
10
26.837189737781824
20
-7.0518522826055818
42
-0.41421356237320428
10
26.33718973778177
20
-6.5518522826054149
10
26.337189737781781
20
6.4481477173945567
42
-0.41421356237312101
10
26.837189737781788
20
6.9481477173943951
10
39.837189737781685
20
6.9481477173945638
42
-0.41421356237325113
10
40.337189737781785
20
6.4481477173945567
10
40.33718973778177
20
-6.5518522826054415
42
-0.41421356237301177
0
LWPOLYLINE
5
148
100
AcDbEntity
8
0
100
AcDbPolyline
90
8
70
1
43
0.0
10
2.237189737781744
20
6.4481477173945034
10
2.2371897377818151
20
-6.5518522826054149
42
-0.41421356237311585
10
1.7371897377817547
20
-7.0518522826054042
10
-11.26281026221827
20
-7.0518522826053331
42
-0.41421356237314705
10
-11.762810262218277
20
-6.5518522826054149
10
-11.762810262218277
20
6.4481477173944857
42
-0.41421356237311585
10
-11.26281026221827
20
6.9481477173945283
10
1.7371897377817547
20
6.9481477173945017
42
-0.41421356237305862
0
LWPOLYLINE
5
149
100
AcDbEntity
8
0
100
AcDbPolyline
90
8
70
1
43
0.0
10
-36.362810262218233
20
-7.0518522826053776
10
-49.362810262218311
20
-7.0518522826054131
42
-0.41421356237318346
10
-49.862810262218311
20
-6.5518522826054415
10
-49.862810262218375
20
6.4481477173945922
42
-0.41421356237298057
10
-49.362810262218311
20
6.9481477173945638
10
-36.362810262218233
20
6.9481477173945372
42
-0.41421356237318868
10
-35.862810262218254
20
6.4481477173945745
10
-35.862810262218261
20
-6.5518522826054415
42
-0.41421356237311585
0
LWPOLYLINE
5
150
100
AcDbEntity
8
0
100
AcDbPolyline
90
8
70
1
43
0.0
10
-83.987810262218247
20
-26.101852282605478
42
0.41421356237304302
10
-83.487810262218375
20
-25.601852282605453
10
-83.487810262218261
20
-12.60185228260541
42
0.41421356237312623
10
-83.987810262218389
20
-12.101852282605439
10
-96.987810262218304
20
-12.101852282605412
42
0.41421356237306384
10
-97.487810262218289
20
-12.601852282605384
10
-97.487810262218261
20
-25.601852282605382
42
0.41421356237315748
10
-96.987810262218289
20
-26.10185228260546
0
LWPOLYLINE
5
151
100
AcDbEntity
8
0
100
AcDbPolyline
90
8
70
1
43
0.0
10
-114.44406026281166
20
-12.601852282012151
42
0.4142135623730378
10
-114.94406026281153
20
-12.101852282012171
10
-127.94406026281153
20
-12.101852282012091
42
0.41421356237304302
10
-128.44406026281166
20
-12.601852282012143
10
-128.44406026281166
20
-25.60185228201216
42
0.41421356237309503
10
-127.94406026281153
20
-26.101852282012132
10
-114.94406026281166
20
-26.101852282012153
42
0.4142135623730378
10
-114.44406026281156
20
-25.601852282012114
0
LWPOLYLINE
5
152
100
AcDbEntity
8
0
100
AcDbPolyline
90
8
70
1
43
0.0
10
-92.725310262218287
20
12.498147717394552
10
-92.725310262218244
20
25.498147717394612
42
-0.4142135623730846
10
-92.225310262218287
20
25.998147717394588
10
-79.225310262218315
20
25.998147717394584
42
-0.41421356237311063
10
-78.725310262218372
20
25.498147717394588
10
-78.725310262218372
20
12.49814771739457
42
-0.41421356237315227
10
-79.225310262218386
20
11.998147717394598
10
-92.225310262218287
20
11.998147717394549
42
-0.41421356237302998
0
LWPOLYLINE
5
153
100
AcDbEntity
8
0
100
AcDbPolyline
90
8
70
1
43
0.0
10
-2.5253102622184009
20
25.498147717394506
10
-2.5253102622184009
20
12.498147717394454
42
-0.41421356237313928
10
-3.0253102622182837
20
11.998147717394495
10
-16.025310262218238
20
11.998147717394566
42
-0.4142135623730222
10
-16.525310262218223
20
12.49814771739457
10
-16.525310262218227
20
25.498147717394506
42
-0.41421356237308204
10
-16.025310262218238
20
25.998147717394474
10
-3.0253102622182837
20
25.998147717394666
42
-0.41421356237311063
0
LWPOLYLINE
5
154
100
AcDbEntity
8
0
100
AcDbPolyline
90
8
70
1
43
0.0
10
59.674689737781691
20
12.498147717394499
42
0.41421356237319906
10
60.174689737781776
20
11.998147717394243
10
73.174689737781776
20
11.998147717394421
42
0.41421356237310025
10
73.674689737781748
20
12.498147717394534
10
73.674689737781748
20
25.498147717394421
42
0.4142135623730534
10
73.174689737781776
20
25.99814771739446
10
60.174689737781776
20
25.998147717394332
42
0.41421356237316009
10
59.674689737781804
20
25.498147717394879
0
LWPOLYLINE
5
155
100
AcDbEntity
8
0
100
AcDbPolyline
90
20
70
1
43
0.0
10
132.26268973718848
20
30.548147717987369
42
0.41421356237304041
10
132.76268973718797
20
30.048147717987952
10
138.76268973718848
20
30.048147717987916
42
0.41421356237309503
10
139.26268973718854
20
30.54814771798803
10
139.26268973718854
20
31.048147717988019
10
139.84968973718853
20
31.048147717988101
42
0.41421356237308982
10
140.34968973718853
20
31.548147717987316
10
140.3496897371885
20
44.548147717987021
42
0.41421356237316265
10
139.84968973718853
20
45.048147717988897
10
107.79968973718853
20
45.048147717990219
42
0.41421356237317308
10
107.29968973718853
20
44.548147717987092
10
107.29968973718847
20
31.54814771798771
42
0.41421356237323292
10
107.7996897371885
20
31.048147717988019
10
108.38668973718848
20
31.048147717987966
10
108.3866897371885
20
30.54814771798819
42
0.41421356237310025
10
108.88668973718859
20
30.048147717988076
10
114.88668973718868
20
30.048147717988073
42
0.41421356237314966
10
115.38668973718833
20
30.548147717987746
10
115.38668973718833
20
31.048147717988233
10
132.26268973718848
20
31.048147717987593
0
LWPOLYLINE
5
156
100
AcDbEntity
8
0
100
AcDbPolyline
90
8
70
1
43
0.0
10
45.09968973718847
20
44.54814771798722
10
45.09968973718847
20
31.5481477179876
42
-0.41421356237313928
10
44.599689737188427
20
31.048147717987554
10
31.599689737188452
20
31.0481477179877
42
-0.41421356237309243
10
31.099689737188459
20
31.54814771798776
10
31.099689737188481
20
44.548147717988336
42
-0.41421356237312623
10
31.599689737188488
20
45.048147717986339
10
44.599689737188427
20
45.048147717988201
42
-0.41421356237327195
0
LWPOLYLINE
5
157
100
AcDbEntity
8
0
100
AcDbPolyline
90
8
70
1
43
0.0
10
-44.600310262811561
20
45.048147717987845
42
0.41421356237313145
10
-45.100310262811554
20
44.548147717987788
10
-45.100310262811547
20
31.548147717987838
42
0.41421356237291812
10
-44.600310262811561
20
31.048147717987824
10
-31.600310262811515
20
31.048147717987746
42
0.41421356237306639
10
-31.100310262811597
20
31.548147717987867
10
-31.100310262811597
20
44.548147717987604
42
0.4142135623730534
10
-31.600310262811551
20
45.048147717987845
0
LWPOLYLINE
5
158
100
AcDbEntity
8
0
100
AcDbPolyline
90
8
70
1
43
0.0
10
-120.80031026281154
20
45.048147717987916
10
-107.80031026281164
20
45.048147717987916
42
-0.41421356237316787
10
-107.30031026281155
20
44.54814771798786
10
-107.30031026281155
20
31.548147717987849
42
-0.41421356237313667
10
-107.80031026281158
20
31.048147717987863
10
-120.80031026281151
20
31.048147717987877
42
-0.41421356237299617
10
-121.30031026281151
20
31.548147717987895
10
-121.30031026281154
20
44.548147717987838
42
-0.41421356237309503
0
LWPOLYLINE
5
159
100
AcDbEntity
8
0
100
AcDbPolyline
90
8
70
1
43
0.0
10
-101.75031026281155
20
45.048147717987916
42
0.41421356237309503
10
-102.25031026281157
20
44.548147717987838
10
-102.25031026281164
20
31.548147717987852
42
0.41421356237312884
10
-101.75031026281162
20
31.04814771798786
10
-88.750310262811553
20
31.048147717987806
42
0.41421356237306384
10
-88.250310262811539
20
31.54814771798776
10
-88.250310262811595
20
44.548147717987838
42
0.41421356237308982
10
-88.750310262811624
20
45.048147717987902
0
LWPOLYLINE
5
160
100
AcDbEntity
8
0
100
AcDbPolyline
90
8
70
1
43
0.0
10
-25.550310262811617
20
45.048147717987995
42
0.41421356237313145
10
-26.050310262811589
20
44.548147717988215
10
-26.050310262811564
20
31.548147717987938
42
0.4142135623730534
10
-25.550310262811546
20
31.048147717987806
10
-12.550310262811628
20
31.048147717987785
42
0.41421356237310802
10
-12.050310262811532
20
31.548147717987867
10
-12.050310262811518
20
44.548147717987788
42
0.41421356237304302
10
-12.550310262811628
20
45.048147717988165
0
LWPOLYLINE
5
161
100
AcDbEntity
8
0
100
AcDbPolyline
90
8
70
1
43
0.0
10
50.649689737188496
20
45.048147717988414
42
0.41421356237297535
10
50.149689737188517
20
44.548147717986723
10
50.149689737188496
20
31.548147717987817
42
0.41421356237324852
10
50.649689737188496
20
31.048147717987966
10
63.649689737188467
20
31.048147717987984
42
0.41421356237293894
10
64.149689737188481
20
31.54814771798792
10
64.149689737188481
20
44.548147717987931
42
0.41421356237311585
10
63.649689737188467
20
45.048147717986623
0
LWPOLYLINE
5
162
100
AcDbEntity
8
0
100
AcDbPolyline
90
8
70
1
43
0.0
10
121.5871897371885
20
12.498147717987695
10
121.58718973718854
20
25.498147717988022
42
-0.41421356237298318
10
122.08718973718845
20
25.998147717988353
10
135.08718973718848
20
25.998147717987866
42
-0.4142135623730534
10
135.58718973718845
20
25.498147717987663
10
135.58718973718857
20
12.498147717987749
42
-0.41421356237307422
10
135.08718973718848
20
11.998147717987422
10
122.08718973718847
20
11.998147717987937
42
-0.41421356237338641
0
LWPOLYLINE
5
163
100
AcDbEntity
8
0
100
AcDbPolyline
90
8
70
1
43
0.0
10
41.124689737781694
20
25.998147717394499
42
0.41421356237303258
10
40.624689737781793
20
25.498147717394634
10
40.624689737781701
20
12.498147717394517
42
0.41421356237313928
10
41.124689737781694
20
11.998147717394518
10
54.124689737781765
20
11.998147717394385
42
0.41421356237303258
10
54.624689737781878
20
12.498147717394605
10
54.624689737781758
20
25.498147717394467
42
0.41421356237286872
10
54.124689737781765
20
25.99814771739414
0
LWPOLYLINE
5
164
100
AcDbEntity
8
0
100
AcDbPolyline
90
8
70
1
43
0.0
10
-22.075310262218277
20
11.998147717394563
10
-35.075310262218281
20
11.99814771739462
42
-0.41421356237314189
10
-35.575310262218274
20
12.49814771739462
10
-35.575310262218295
20
25.498147717394541
42
-0.41421356237308982
10
-35.075310262218323
20
25.998147717394616
10
-22.075310262218242
20
25.998147717394477
42
-0.41421356237306384
10
-21.57531026221827
20
25.49814771739463
10
-21.575310262218231
20
12.498147717394623
42
-0.41421356237318607
0
LWPOLYLINE
5
165
100
AcDbEntity
8
0
100
AcDbPolyline
90
8
70
1
43
0.0
10
-111.77531026221827
20
12.498147717394605
10
-111.77531026221827
20
25.498147717394595
42
-0.41421356237312101
10
-111.27531026221828
20
25.998147717394588
10
-98.275310262218326
20
25.998147717394563
42
-0.41421356237317047
10
-97.775310262218227
20
25.498147717394588
10
-97.775310262218255
20
12.498147717394597
42
-0.41421356237310025
10
-98.275310262218341
20
11.998147717394572
10
-111.27531026221837
20
11.998147717394559
42
-0.41421356237303519
0
LWPOLYLINE
5
166
100
AcDbEntity
8
0
100
AcDbPolyline
90
12
70
1
43
0.0
10
-136.88175000000001
20
-13.584240736126191
10
-136.88175000000001
20
-11.549853602954663
42
-0.41421356237308854
10
-136.38175000000001
20
-11.049853602954649
10
-130.38175000000001
20
-11.049853602954698
42
-0.41421356237310025
10
-129.88175000000001
20
-11.549853602954679
10
-129.88175000000007
20
-26.549853602954805
42
-0.0088078225516869165
10
-129.88206026281165
20
-26.567465148842501
10
-129.88206026281165
20
-26.601852282012189
42
-0.41421356237313667
10
-130.38206026281165
20
-27.10185228201216
10
-136.38206026281151
20
-27.10185228201216
42
-0.414213562373069
10
-136.88206026281168
20
-26.601852282012128
10
-136.88206026281151
20
-13.601852282012139
42
-0.0088078225508153238
0
LWPOLYLINE
5
167
100
AcDbEntity
8
0
100
AcDbPolyline
90
8
70
1
43
0.0
10
-73.962810262218269
20
6.4481477173945567
10
-73.962810262218255
20
-6.5518522826054237
42
-0.41421356237311585
10
-74.462810262218227
20
-7.0518522826054308
10
-87.462810262218241
20
-7.0518522826054131
42
-0.41421356237307422
10
-87.962810262218255
20
-6.551852282605406
10
-87.962810262218255
20
6.4481477173945922
42
-0.41421356237315748
10
-87.462810262218241
20
6.9481477173945638
10
-74.462810262218227
20
6.9481477173945994
42
-0.41421356237307422
0
LWPOLYLINE
5
168
100
AcDbEntity
8
0
100
AcDbPolyline
90
8
70
1
43
0.0
10
-64.937810262218377
20
-26.101852282605449
10
-77.937810262218235
20
-26.101852282605478
42
-0.41421356237312101
10
-78.43781026221825
20
-25.601852282605453
10
-78.43781026221825
20
-12.60185228260541
42
-0.41421356237318346
10
-77.937810262218235
20
-12.101852282605439
10
-64.937810262218377
20
-12.101852282605474
42
-0.41421356237303258
10
-64.437810262218363
20
-12.60185228260541
10
-64.437810262218264
20
-25.601852282605382
42
-0.41421356237305862
0
LWPOLYLINE
5
169
100
AcDbEntity
8
0
100
AcDbPolyline
90
8
70
1
43
0.0
10
-7.787810262218251
20
-26.101852282605389
10
-20.787810262218311
20
-26.101852282605485
42
-0.41421356237301699
10
-21.287810262218265
20
-25.601852282605453
10
-21.287810262218201
20
-12.60185228260549
42
-0.41421356237309503
10
-20.787810262218258
20
-12.10185228260551
10
-7.787810262218251
20
-12.101852282605465
42
-0.41421356237303258
10
-7.2878102622182439
20
-12.601852282605437
10
-7.2878102622183061
20
-25.601852282605524
42
-0.41421356237300661
0
LWPOLYLINE
5
170
100
AcDbEntity
8
0
100
AcDbPolyline
90
8
70
1
43
0.0
10
16.812189737781829
20
-25.601852282605392
42
0.41421356237316265
10
17.312189737781818
20
-26.101852282605424
10
30.312189737781789
20
-26.101852282605449
42
0.41421356237301177
10
30.812189737781726
20
-25.601852282605392
10
30.812189737781761
20
-12.601852282605623
42
0.41421356237312101
10
30.312189737781789
20
-12.101852282605536
10
17.312189737781818
20
-12.101852282605581
42
0.41421356237308982
10
16.812189737781811
20
-12.601852282605517
0
LWPOLYLINE
5
171
100
AcDbEntity
8
0
100
AcDbPolyline
90
8
70
1
43
0.0
10
54.912189737781787
20
-25.601852282605524
42
0.41421356237302737
10
55.412189737781731
20
-26.101852282605353
10
68.412189737781702
20
-26.101852282605485
42
0.41421356237300139
10
68.912189737781674
20
-25.601852282605392
10
68.912189737781688
20
-12.601852282605481
42
0.41421356237312623
10
68.412189737781702
20
-12.101852282605723
10
55.412189737781773
20
-12.101852282605474
42
0.41421356237300661
10
54.912189737781873
20
-12.601852282605579
0
LWPOLYLINE
5
172
100
AcDbEntity
8
0
100
AcDbPolyline
90
8
70
1
43
0.0
10
114.94343973718843
20
6.9481477179880535
10
127.94343973718838
20
6.9481477179876716
42
-0.41421356237290252
10
128.44343973718841
20
6.4481477179876379
10
128.44343973718841
20
-6.5518522820122893
42
-0.41421356237288171
10
127.9434397371885
20
-7.0518522820122342
10
114.94343973718843
20
-7.0518522820123142
42
-0.41421356237311585
10
114.44343973718851
20
-6.5518522820122183
10
114.44343973718846
20
6.4481477179875757
42
-0.41421356237297535
0
LWPOLYLINE
5
173
100
AcDbEntity
8
0
100
AcDbPolyline
90
8
70
1
43
0.0
10
122.08718973718837
20
-31.151852282012413
10
135.08718973718848
20
-31.151852282012147
42
-0.4142135623731783
10
135.58718973718848
20
-31.651852282012083
10
135.58718973718848
20
-44.651852282012015
42
-0.41421356237309503
10
135.08718973718848
20
-45.151852282012456
10
122.08718973718847
20
-45.151852282012008
42
-0.41421356237306384
10
121.58718973718848
20
-44.651852282012143
10
121.5871897371885
20
-31.651852282012172
42
-0.41421356237294937
0
LWPOLYLINE
5
174
100
AcDbEntity
8
0
100
AcDbPolyline
90
8
70
1
43
0.0
10
6.4996897371884366
20
-45.151852282012314
10
-6.5003102628115528
20
-45.151852282012172
42
-0.41421356237298057
10
-7.0003102628115599
20
-44.651852282012143
10
-7.0003102628115421
20
-31.6518522820122
42
-0.41421356237301699
10
-6.5003102628115528
20
-31.1518522820122
10
6.4996897371884366
20
-31.151852282012193
42
-0.41421356237301177
10
6.9996897371884437
20
-31.6518522820122
10
6.9996897371884614
20
-44.651852282012229
42
-0.41421356237306384
0
LWPOLYLINE
5
175
100
AcDbEntity
8
0
100
AcDbPolyline
90
8
70
1
43
0.0
10
-135.08781026281162
20
-31.151852282012147
42
0.41421356237310542
10
-135.58781026281162
20
-31.651852282012172
10
-135.58781026281159
20
-44.651852282012108
42
0.41421356237298057
10
-135.08781026281162
20
-45.151852282012101
10
-122.0878102628116
20
-45.151852282012179
42
0.41421356237315748
10
-121.58781026281167
20
-44.651852282012108
10
-121.58781026281154
20
-31.651852282012172
42
0.41421356237314189
10
-122.0878102628116
20
-31.151852282012147
0
LWPOLYLINE
5
176
100
AcDbEntity
8
0
100
AcDbPolyline
90
20
70
1
43
0.0
10
140.34968973718853
20
-25.562011463302838
42
0.0088094829603235416
10
140.35000011697147
20
-25.544396598916403
10
140.35000011697156
20
-12.544396598916236
42
0.41421356237310802
10
139.85000011697156
20
-12.04439659891619
10
132.1192501169715
20
-12.044396598916208
10
132.1192501169715
20
-11.544396598916292
42
0.41421356237309503
10
131.61925011697147
20
-11.044396598916284
10
125.61925011697159
20
-11.04439659891629
42
0.4142135623730937
10
125.11925011697159
20
-11.54439659891629
10
125.11925011697159
20
-12.58423741762368
42
0.0088094829613564862
10
125.11893973718854
20
-12.601852282012178
10
125.11893973718847
20
-26.601852282012189
42
0.4142135623730846
10
125.61893973718854
20
-27.101852282012253
10
131.6189397371887
20
-27.101852282011933
42
0.41421356237311585
10
132.11893973718853
20
-26.601852282011986
10
132.11893973718853
20
-26.562011463303065
42
0.0088094829606095489
10
132.1192501169715
20
-26.544396598916062
10
132.11925011697153
20
-26.101852282012086
10
139.84968973718853
20
-26.101852282012388
42
0.41421356237310542
10
140.34968973718853
20
-25.601852282012363
0
LWPOLYLINE
5
177
100
AcDbEntity
8
0
100
AcDbPolyline
90
26
70
1
43
0.0
10
108.24293973718846
20
-26.562011463304231
42
0.0088094829610318674
10
108.24325011697148
20
-26.544396598916382
10
108.24325011697148
20
-26.10185228201205
10
123.18093973718857
20
-26.101852282012281
42
0.41421356237310025
10
123.68093973718848
20
-25.601852282012246
10
123.68093973718848
20
-25.562011463304852
42
0.0088094829613864258
10
123.68125011697151
20
-25.544396598916297
10
123.68125011697148
20
-12.544396598916322
42
0.41421356237314189
10
123.18125011697154
20
-12.044396598916215
10
108.24325011697148
20
-12.044396598916292
10
108.24325011697148
20
-11.544396598916203
42
0.41421356237309503
10
107.74325011697147
20
-11.044396598916196
10
101.7432501169715
20
-11.044396598916205
42
0.41421356237309503
10
101.2432501169715
20
-11.544396598916205
10
101.2432501169715
20
-12.044396598916354
10
100.65625011697158
20
-12.044396598916389
42
0.4142135623730378
10
100.15625011697156
20
-12.54439659891637
10
100.15625011697156
20
-12.584237417623431
42
0.0088094829615392792
10
100.15593973718852
20
-12.601852282012294
10
100.15593973718849
20
-25.601852282012246
42
0.41421356237321472
10
100.65593973718849
20
-26.101852282011961
10
101.24293973718848
20
-26.101852282012157
10
101.24293973718849
20
-26.601852282012093
42
0.414213562373069
10
101.74293973718848
20
-27.101852282012189
10
107.74293973718848
20
-27.101852282012224
42
0.41421356237310025
10
108.24293973718846
20
-26.601852282012331
0
CIRCLE
5
178
100
AcDbEntity
8
0
100
AcDbCircle
10
-135.94382511512629
20
51.41465181856455
30
0
40
1.1000000000001364
210
0
220
0
230
1
0
CIRCLE
5
179
100
AcDbEntity
8
0
100
AcDbCircle
10
-30.14288797006623
20
51.414651818564536
30
0
40
1.1000000000001364
210
0
220
0
230
1
0
CIRCLE
5
180
100
AcDbEntity
8
0
100
AcDbCircle
10
30.257112029930031
20
51.414651818564536
30
0
40
1.1000000000001364
210
0
220
0
230
1
0
CIRCLE
5
181
100
AcDbEntity
8
0
100
AcDbCircle
10
135.942449341512
20
51.414651818564522
30
0
40
1.1000000000001364
210
0
220
0
230
1
0
CIRCLE
5
182
100
AcDbEntity
8
0
100
AcDbCircle
10
135.942449341512
20
-51.518356181566332
30
0
40
1.1000000000001364
210
0
220
0
230
1
0
CIRCLE
5
183
100
AcDbEntity
8
0
100
AcDbCircle
10
30.257112029930031
20
-51.518356181566318
30
0
40
1.1000000000001364
210
0
220
0
230
1
0
CIRCLE
5
184
100
AcDbEntity
8
0
100
AcDbCircle
10
-30.14288797006623
20
-51.518356181566318
30
0
40
1.1000000000001364
210
0
220
0
230
1
0
CIRCLE
5
185
100
AcDbEntity
8
0
100
AcDbCircle
10
-135.94382511512629
20
-51.518356181566318
30
0
40
1.1000000000001364
210
0
220
0
230
1
0
ENDSEC
0
SECTION
2
OBJECTS
0
DICTIONARY
5
C
100
AcDbDictionary
3
ACAD_GROUP
350
D
3
ACAD_MLINESTYLE
350
17
0
DICTIONARY
5
D
100
AcDbDictionary
0
DICTIONARY
5
1A
330
C
100
AcDbDictionary
0
DICTIONARY
5
17
100
AcDbDictionary
0
ENDSEC
0
EOF
