0
SECTION
2
HEADER
9
$INSUNITS
70
4
9
$ACADVER
1
AC1014
9
$HANDSEED
5
FFFF
0
ENDSEC
0
SECTION
2
TABLES
0
TABLE
2
VPORT
5
8
100
AcDbSymbolTable
0
ENDTAB
0
TABLE
2
LTYPE
5
5
100
AcDbSymbolTable
0
LTYPE
5
14
100
AcDbSymbolTableRecord
100
AcDbLinetypeTableRecord
2
BYBLOCK
70
0
0
LTYPE
5
15
100
AcDbSymbolTableRecord
100
AcDbLinetypeTableRecord
2
BYLAYER
70
0
0
LTYPE
5
16
100
AcDbSymbolTableRecord
100
AcDbLinetypeTableRecord
2
DASHED
70
0
3
Dashed __ __ __ __ __ __ __ __ __ __ __ __ __ _
72
65
73
2
40
0.75
49
0.5
74
0
49
-0.25
74
0
0
ENDTAB
0
TABLE
2
LAYER
5
2
100
AcDbSymbolTable
70
2
0
LAYER
5
50
100
AcDbSymbolTableRecord
100
AcDbLayerTableRecord
2
0
70
0
62
7
6
CONTINUOUS
0
ENDTAB
0
TABLE
2
STYLE
5
3
100
AcDbSymbolTable
70
1
0
STYLE
5
11
100
AcDbSymbolTableRecord
100
AcDbTextStyleTableRecord
2
STANDARD
70
0
0
ENDTAB
0
TABLE
2
VIEW
5
6
100
AcDbSymbolTable
70
0
0
ENDTAB
0
TABLE
2
UCS
5
7
100
AcDbSymbolTable
70
0
0
ENDTAB
0
TABLE
2
APPID
5
9
100
AcDbSymbolTable
70
2
0
APPID
5
12
100
AcDbSymbolTableRecord
100
AcDbRegAppTableRecord
2
ACAD
70
0
0
ENDTAB
0
TABLE
2
DIMSTYLE
5
A
100
AcDbSymbolTable
70
1
0
ENDTAB
0
TABLE
2
BLOCK_RECORD
5
1
100
AcDbSymbolTable
70
1
0
BLOCK_RECORD
5
1F
100
AcDbSymbolTableRecord
100
AcDbBlockTableRecord
2
*MODEL_SPACE
0
BLOCK_RECORD
5
1B
100
AcDbSymbolTableRecord
100
AcDbBlockTableRecord
2
*PAPER_SPACE
0
ENDTAB
0
ENDSEC
0
SECTION
2
BLOCKS
0
BLOCK
5
20
100
AcDbEntity
100
AcDbBlockBegin
2
*MODEL_SPACE
0
ENDBLK
5
21
100
AcDbEntity
100
AcDbBlockEnd
0
BLOCK
5
1C
100
AcDbEntity
100
AcDbBlockBegin
2
*PAPER_SPACE
0
ENDBLK
5
1D
100
AcDbEntity
100
AcDbBlockEnd
0
ENDSEC
0
SECTION
2
ENTITIES
0
LWPOLYLINE
5
100
100
AcDbEntity
8
0
100
AcDbPolyline
90
8
70
1
43
0.0
10
-133.86281599567371
20
26.09999199632291
10
-123.31281599567369
20
26.099991996322874
42
-0.41421356237309814
10
-121.23781599567371
20
24.024991996322875
10
-121.23781499567372
20
14.074991996322868
42
-0.41421356237309759
10
-123.31281599567369
20
11.999990996322879
10
-133.86281599567371
20
11.99999199632289
42
-0.41421356237310325
10
-135.9378149956737
20
14.074990996322896
10
-135.9378149956737
20
24.02499299632289
42
-0.41421356237309503
0
LWPOLYLINE
5
101
100
AcDbEntity
8
0
100
AcDbPolyline
90
8
70
1
43
0.0
10
-21.776315995673716
20
-41.100008003677132
10
-39.623815995717848
20
-41.100008003677132
42
-0.41421356237309503
10
-40.698815995717851
20
-40.025008003677129
10
-40.698815995717851
20
-36.175008003677121
42
-0.41421356237309503
10
-39.623815995717848
20
-35.100008003677125
10
-21.776315995673716
20
-35.100008003677125
42
-0.41421356237309503
10
-20.701315995673717
20
-36.175008003677121
10
-20.701315995673717
20
-40.025008003677129
42
-0.41421356237309503
0
LWPOLYLINE
5
102
100
AcDbEntity
8
0
100
AcDbPolyline
90
8
70
1
43
0.0
10
-111.60969099567373
20
5.9749919963228972
10
-111.60969099567373
20
-5.9750080036771056
42
-0.41421356237309476
10
-112.68469099567372
20
-7.050008003677104
10
-113.53469099567374
20
-7.0500080036771031
42
-0.41421356237309503
10
-114.60969099567373
20
-5.9750080036771038
10
-114.60969099567373
20
5.974991996322899
42
-0.41421356237309476
10
-113.53469099567374
20
7.0499919963228974
10
-112.68469099567372
20
7.0499919963228965
42
-0.41421356237309503
0
LWPOLYLINE
5
103
100
AcDbEntity
8
0
100
AcDbPolyline
90
8
70
1
43
0.0
10
20.574184004282149
20
-41.100008003677132
10
2.7256840043262898
20
-41.100008003677132
42
-0.41421356237309503
10
1.65068400432629
20
-40.025008003677129
10
1.6506840043262916
20
-36.175008003677121
42
-0.41421356237309503
10
2.7256840043262907
20
-35.100008003677125
10
20.574184004282149
20
-35.100008003677125
42
-0.41421356237309503
10
21.649184004282148
20
-36.175008003677121
10
21.649184004282148
20
-40.025008003677129
42
-0.41421356237309503
0
LWPOLYLINE
5
104
100
AcDbEntity
8
0
100
AcDbPolyline
90
8
70
1
43
0.0
10
115.18093400432632
20
13.075000178813934
10
115.18093400432632
20
25.024991996322861
42
-0.41421356237309503
10
116.25593400432632
20
26.09999199632286
10
117.10593400432631
20
26.09999199632286
42
-0.41421356237309503
10
118.18093400432632
20
25.024991996322861
10
118.18093400432632
20
13.075000178813934
42
-0.41421356237309503
10
117.10593400432631
20
12.000000178813934
10
116.25593400432632
20
12.000000178813934
42
-0.41421356237309503
0
LWPOLYLINE
5
105
100
AcDbEntity
8
0
100
AcDbPolyline
90
12
70
1
43
0.0
10
95.05905900432569
20
-22.050008253677102
42
0.41421356237307161
10
94.559059004325704
20
-21.55000825367711
10
92.05905900432569
20
-21.550008253677063
42
-0.41421356237306384
10
91.559059004325718
20
-21.050008253677145
10
91.559059004325775
20
-15.55000825367711
42
0.41421356237308854
10
91.059059004325746
20
-15.050008253677113
10
90.559059004325704
20
-15.050008253677113
42
0.41421356237310542
10
90.059059004325661
20
-15.550008253677138
10
90.059059004325718
20
-21.050008253677145
42
0.41421356237308721
10
92.05905900432569
20
-23.050008253677067
10
94.559059004325718
20
-23.050008253677138
42
0.4142135623730534
10
95.059059004325732
20
-22.550008253677131
0
LWPOLYLINE
5
106
100
AcDbEntity
8
0
100
AcDbPolyline
90
8
70
1
43
0.0
10
89.974684004326235
20
45.14999199632291
10
100.5246840043263
20
45.149991996322868
42
-0.41421356237309503
10
102.59968400432626
20
43.074991996322908
10
102.59968400432632
20
33.124991996322876
42
-0.41421356237309004
10
100.52468400432632
20
31.049991996322884
10
89.974684004326235
20
31.049991996322884
42
-0.41421356237309631
10
87.899684004326247
20
33.12499199632289
10
87.899684004326247
20
43.074991996322908
42
-0.41421356237309503
0
LWPOLYLINE
5
107
100
AcDbEntity
8
0
100
AcDbPolyline
90
8
70
1
43
0.0
10
26.399684004326289
20
43.0749919963229
42
0.4142135623730907
10
24.324684004326297
20
45.149991996322868
10
13.774684004326279
20
45.149991996322861
42
0.41421356237309254
10
11.699684004326301
20
43.074991996322908
10
11.699684004326297
20
33.124991996322862
42
0.41421356237309503
10
13.774684004326296
20
31.049991996322866
10
24.324684004326294
20
31.049991996322859
42
0.41421356237309503
10
26.399684004326289
20
33.124991996322862
0
LWPOLYLINE
5
108
100
AcDbEntity
8
0
100
AcDbPolyline
90
8
70
1
43
0.0
10
-64.500315995673731
20
33.124991996322869
42
0.41421356237309881
10
-62.425315995673678
20
31.04999199632287
10
-51.875315995673745
20
31.049991996322856
42
0.41421356237309381
10
-49.800315995673756
20
33.124991996322862
10
-49.800315995673692
20
43.074991996322908
42
0.41421356237309004
10
-51.875315995673716
20
45.14999199632291
10
-62.425315995673706
20
45.149991996322882
42
0.41421356237309631
10
-64.500315995673745
20
43.074991996322879
0
LWPOLYLINE
5
109
100
AcDbEntity
8
0
100
AcDbPolyline
90
8
70
1
43
0.0
10
-99.500315995673745
20
11.999991996322873
10
-110.05031599567374
20
11.999991996322873
42
-0.41421356237309315
10
-112.12531599567376
20
14.074991996322872
10
-112.12531599567376
20
24.024991996322878
42
-0.41421356237309004
10
-110.05031599567376
20
26.099991996322874
10
-99.500315995673674
20
26.09999199632291
42
-0.41421356237309503
10
-97.425315995673714
20
24.024991996322878
10
-97.425315995673728
20
14.074991996322868
42
-0.41421356237309254
0
LWPOLYLINE
5
110
100
AcDbEntity
8
0
100
AcDbPolyline
90
8
70
1
43
0.0
10
-59.325315995673762
20
24.024991996322914
10
-59.325315995673705
20
14.074991996322904
42
-0.41421356237309381
10
-61.400315995673715
20
11.99999199632289
10
-71.950315995673719
20
11.999991996322855
42
-0.41421356237309814
10
-74.025315995673694
20
14.074991996322854
10
-74.025315995673694
20
24.024991996322861
42
-0.41421356237309004
10
-71.950315995673719
20
26.099991996322863
10
-61.400315995673722
20
26.099991996322856
42
-0.41421356237309254
0
LWPOLYLINE
5
111
100
AcDbEntity
8
0
100
AcDbPolyline
90
8
70
1
43
0.0
10
-33.850315995673697
20
26.099991996322892
10
-23.300315995673699
20
26.099991996322878
42
-0.41421356237309503
10
-21.225315995673718
20
24.024991996322896
10
-21.225315995673689
20
14.074991996322886
42
-0.41421356237309193
10
-23.300315995673696
20
11.999991996322894
10
-33.850315995673697
20
11.99999199632289
42
-0.41421356237309537
10
-35.925315995673692
20
14.074991996322888
10
-35.925315995673692
20
24.024991996322896
42
-0.41421356237309503
0
LWPOLYLINE
5
112
100
AcDbEntity
8
0
100
AcDbPolyline
90
8
70
1
43
0.0
10
16.87468400432628
20
24.024991996322889
42
0.41421356237309659
10
14.799684004326281
20
26.099991996322885
10
4.2496840043262951
20
26.099991996322892
42
0.4142135623730957
10
2.1746840043262949
20
24.024991996322896
10
2.1746840043262949
20
14.074991996322888
42
0.41421356237309537
10
4.2496840043262907
20
11.99999199632289
10
14.799684004326291
20
11.999991996322883
42
0.41421356237309442
10
16.874684004326319
20
14.074991996322886
0
LWPOLYLINE
5
113
100
AcDbEntity
8
0
100
AcDbPolyline
90
8
70
1
43
0.0
10
45.037184004326264
20
-4.9750080036770878
42
0.41421356237309159
10
47.112184004326274
20
-7.0500080036770836
10
57.662184004326271
20
-7.0500080036770951
42
0.41421356237309631
10
59.737184004326309
20
-4.9750080036770905
10
59.737184004326295
20
4.9749919963228848
42
0.41421356237309737
10
57.662184004326278
20
7.0499919963229152
10
47.112184004326288
20
7.0499919963228797
42
0.41421356237309631
10
45.037184004326321
20
4.9749919963228839
0
LWPOLYLINE
5
114
100
AcDbEntity
8
0
100
AcDbPolyline
90
8
70
1
43
0.0
10
83.137184004326315
20
-4.9750080036771047
42
0.41421356237309048
10
85.212184004326275
20
-7.0500080036771005
10
95.762184004326315
20
-7.050008003677104
42
0.41421356237309004
10
97.837184004326332
20
-4.9750080036771083
10
97.837184004326318
20
4.9749919963228795
42
0.41421356237309315
10
95.762184004326301
20
7.0499919963228619
10
85.212184004326247
20
7.0499919963228974
42
0.41421356237309004
10
83.137184004326343
20
4.9749919963228662
0
LWPOLYLINE
5
115
100
AcDbEntity
8
0
100
AcDbPolyline
90
8
70
1
43
0.0
10
16.462184004326271
20
-24.025008003677094
42
0.41421356237309659
10
18.537184004326267
20
-26.100008003677093
10
29.087184004326293
20
-26.100008003677093
42
0.4142135623730957
10
31.162184004326292
20
-24.025008003677101
10
31.162184004326264
20
-14.075008003677141
42
0.41421356237309442
10
29.087184004326296
20
-12.000008003677166
10
18.537184004326257
20
-12.000008003677118
42
0.41421356237309415
10
16.462184004326268
20
-14.075008003677127
0
LWPOLYLINE
5
116
100
AcDbEntity
8
0
100
AcDbPolyline
90
8
70
1
43
0.0
10
-45.037815995673682
20
-14.075008003677127
10
-45.037815995673718
20
-24.025008003677101
42
-0.41421356237309631
10
-47.112815995673721
20
-26.100008003677097
10
-57.662815995673711
20
-26.100008003677097
42
-0.41421356237309503
10
-59.737815995673706
20
-24.025008003677101
10
-59.737815995673728
20
-14.075008003677127
42
-0.41421356237309503
10
-57.662815995673711
20
-12.000008003677113
10
-47.112815995673714
20
-12.00000800367706
42
-0.41421356237309004
0
LWPOLYLINE
5
117
100
AcDbEntity
8
0
100
AcDbPolyline
90
8
70
1
43
0.0
10
-78.787815995673682
20
-24.025008003677101
10
-78.787815995673725
20
-14.075008003677127
42
-0.41421356237309881
10
-76.712815995673708
20
-12.000008003677113
10
-66.162815995673725
20
-12.000008003677124
42
-0.41421356237310158
10
-64.087815995673708
20
-14.075008003677121
10
-64.087815995673722
20
-24.025008003677101
42
-0.41421356237309254
10
-66.162815995673725
20
-26.10000800367709
10
-76.712815995673722
20
-26.100008003677061
42
-0.41421356237309503
0
LWPOLYLINE
5
118
100
AcDbEntity
8
0
100
AcDbPolyline
90
8
70
1
43
0.0
10
10.037184004326283
20
-26.100008003677093
42
0.41421356237309598
10
12.112184004326277
20
-24.025008003677097
10
12.1121840043263
20
-14.07500800367713
42
0.41421356237309537
10
10.037184004326285
20
-12.000008003677113
10
-0.51281599567371283
20
-12.000008003677124
42
0.41421356237309498
10
-2.5878159956737079
20
-14.075008003677127
10
-2.5878159956737079
20
-24.025008003677101
42
0.41421356237309503
10
-0.51281599567371217
20
-26.100008003677097
0
LWPOLYLINE
5
119
100
AcDbEntity
8
0
100
AcDbPolyline
90
8
70
1
43
0.0
10
73.612184004326338
20
-24.025008003677101
10
73.612184004326309
20
-14.075008003677127
42
-0.41421356237309631
10
75.687184004326312
20
-12.000008003677131
10
86.237184004326295
20
-12.000008003677131
42
-0.41421356237309848
10
88.312184004326269
20
-14.075008003677134
10
88.312184004326241
20
-24.025008003677101
42
-0.41421356237309254
10
86.237184004326238
20
-26.100008003677114
10
75.687184004326298
20
-26.100008003677132
42
-0.41421356237308499
0
LWPOLYLINE
5
120
100
AcDbEntity
8
0
100
AcDbPolyline
90
8
70
1
43
0.0
10
99.499684004326241
20
26.099991996322892
10
110.04968400432631
20
26.099991996322856
42
-0.41421356237309503
10
112.12468400432627
20
24.024991996322896
10
112.12468400432633
20
14.074991996322904
42
-0.41421356237309004
10
110.04968400432632
20
11.999991996322908
10
99.499684004326241
20
11.999991996322926
42
-0.41421356237309692
10
97.424684004326267
20
14.074991996322916
10
97.424684004326252
20
24.024991996322896
42
-0.41421356237309503
0
LWPOLYLINE
5
121
100
AcDbEntity
8
0
100
AcDbPolyline
90
8
70
1
43
0.0
10
71.949684004326301
20
11.99999199632288
42
0.41421356237309193
10
74.024684004326289
20
14.074991996322881
10
74.024684004326261
20
24.024991996322896
42
0.41421356237309759
10
71.949684004326286
20
26.099991996322892
10
61.399684004326296
20
26.099991996322881
42
0.41421356237309381
10
59.324684004326258
20
24.024991996322896
10
59.324684004326294
20
14.074991996322888
42
0.41421356237309537
10
61.399684004326289
20
11.99999199632289
0
LWPOLYLINE
5
122
100
AcDbEntity
8
0
100
AcDbPolyline
90
8
70
1
43
0.0
10
33.849684004326257
20
11.99999199632289
42
0.41421356237309659
10
35.924684004326259
20
14.074991996322888
10
35.924684004326295
20
24.0249919963229
42
0.41421356237309442
10
33.849684004326264
20
26.099991996322927
10
23.299684004326302
20
26.099991996322899
42
0.41421356237309503
10
21.224684004326306
20
24.024991996322896
10
21.224684004326306
20
14.074991996322888
42
0.41421356237309537
10
23.299684004326302
20
11.99999199632289
0
LWPOLYLINE
5
123
100
AcDbEntity
8
0
100
AcDbPolyline
90
8
70
1
43
0.0
10
-12.112815995673714
20
-4.9750080036770905
10
-12.112815995673722
20
4.9749919963228839
42
-0.4142135623730947
10
-10.03781599567372
20
7.0499919963228885
10
0.51218400432631483
20
7.0499919963228619
42
-0.41421356237309509
10
2.5871840043262928
20
4.974991996322883
10
2.5871840043263195
20
-4.9750080036770896
42
-0.41421356237309509
10
0.51218400432631472
20
-7.0500080036770951
10
-10.037815995673718
20
-7.0500080036770862
42
-0.41421356237309503
0
LWPOLYLINE
5
124
100
AcDbEntity
8
0
100
AcDbPolyline
90
8
70
1
43
0.0
10
-48.137815995673741
20
7.0499919963228797
10
-37.587815995673708
20
7.0499919963228974
42
-0.41421356237309503
10
-35.512815995673691
20
4.9749919963228839
10
-35.512815995673698
20
-4.9750080036770905
42
-0.41421356237309503
10
-37.587815995673708
20
-7.0500080036770996
10
-48.137815995673741
20
-7.0500080036770862
42
-0.41421356237309537
10
-50.212815995673736
20
-4.9750080036770878
10
-50.212815995673736
20
4.9749919963228839
42
-0.41421356237309503
0
LWPOLYLINE
5
125
100
AcDbEntity
8
0
100
AcDbPolyline
90
8
70
1
43
0.0
10
-73.612815995673742
20
4.974991996322899
42
0.41421356237309537
10
-75.687815995673731
20
7.0499919963228947
10
-86.237815995673728
20
7.0499919963228974
42
0.41421356237309759
10
-88.312815995673688
20
4.9749919963229026
10
-88.312815995673702
20
-4.9750080036771163
42
0.41421356237309637
10
-86.237815995673728
20
-7.050008003677104
10
-75.687815995673716
20
-7.0500080036771307
42
0.41421356237309381
10
-73.612815995673742
20
-4.975008003677126
0
LWPOLYLINE
5
126
100
AcDbEntity
8
0
100
AcDbPolyline
90
8
70
1
43
0.0
10
-81.475315995673725
20
45.149991996322839
10
-70.925315995673728
20
45.149991996322825
42
-0.41421356237309254
10
-68.850315995673711
20
43.074991996322893
10
-68.850315995673725
20
33.124991996322862
42
-0.41421356237309503
10
-70.925315995673742
20
31.049991996322873
10
-81.475315995673725
20
31.049991996322866
42
-0.41421356237309631
10
-83.550315995673714
20
33.124991996322869
10
-83.550315995673756
20
43.074991996322879
42
-0.41421356237308499
0
LWPOLYLINE
5
127
100
AcDbEntity
8
0
100
AcDbPolyline
90
8
70
1
43
0.0
10
5.2746840043262893
20
31.049991996322852
42
0.41421356237309287
10
7.3496840043262903
20
33.124991996322855
10
7.3496840043262868
20
43.074991996322922
42
0.41421356237308876
10
5.2746840043262821
20
45.149991996322868
10
-5.2753159956737194
20
45.149991996322868
42
0.41421356237308693
10
-7.3503159956737463
20
43.074991996322908
10
-7.3503159956737152
20
33.124991996322862
42
0.41421356237309503
10
-5.275315995673715
20
31.049991996322866
0
LWPOLYLINE
5
128
100
AcDbEntity
8
0
100
AcDbPolyline
90
8
70
1
43
0.0
10
81.474684004326292
20
31.049991996322866
10
70.924684004326295
20
31.049991996322856
42
-0.41421356237309692
10
68.849684004326306
20
33.124991996322855
10
68.849684004326292
20
43.074991996322908
42
-0.41421356237308626
10
70.924684004326281
20
45.149991996322861
10
81.474684004326278
20
45.149991996322868
42
-0.41421356237308626
10
83.549684004326323
20
43.0749919963229
10
83.549684004326281
20
33.124991996322898
42
-0.41421356237310003
0
LWPOLYLINE
5
129
100
AcDbEntity
8
0
100
AcDbPolyline
90
8
70
1
43
0.0
10
121.64968400432635
20
43.074991996322893
10
121.64968400432636
20
33.124991996322876
42
-0.41421356237310258
10
119.57468400432633
20
31.049991996322902
10
109.02468400432625
20
31.049991996323122
42
-0.41421370352652209
10
106.9496840043263
20
33.1249909963229
10
106.94968400432656
20
43.074991996322908
42
-0.4142137035265252
10
109.02468300432629
20
45.149991996322896
10
119.57468400432631
20
45.149991996322925
42
-0.41421356237309503
0
LWPOLYLINE
5
130
100
AcDbEntity
8
0
100
AcDbPolyline
90
8
70
1
43
0.0
10
32.824684004326308
20
45.149991996322868
42
0.41421356237309004
10
30.749684004326312
20
43.074991996322908
10
30.749684004326316
20
33.124991996322855
42
0.41421356237309631
10
32.824684004326308
20
31.049991996322866
10
43.374684004326276
20
31.049991996322856
42
0.41421356237309381
10
45.44968400432623
20
33.124991996322862
10
45.449684004326308
20
43.074991996322908
42
0.41421356237309004
10
43.374684004326269
20
45.14999199632291
0
LWPOLYLINE
5
131
100
AcDbEntity
8
0
100
AcDbPolyline
90
8
70
1
43
0.0
10
-43.375315995673702
20
45.149991996322868
10
-32.825315995673705
20
45.149991996322846
42
-0.41421356237309004
10
-30.750315995673738
20
43.074991996322908
10
-30.750315995673692
20
33.124991996322862
42
-0.41421356237309126
10
-32.825315995673698
20
31.049991996322866
10
-43.375315995673702
20
31.049991996322866
42
-0.4142135623731007
10
-45.450315995673733
20
33.124991996322862
10
-45.450315995673719
20
43.074991996322908
42
-0.41421356237309759
0
LWPOLYLINE
5
132
100
AcDbEntity
8
0
100
AcDbPolyline
90
8
70
1
43
0.0
10
-106.95031599567372
20
43.074991996322893
42
0.41421356237309004
10
-109.02531599567371
20
45.149991996322854
10
-119.57531599567375
20
45.149991996322854
42
0.41421356237309004
10
-121.65031599567374
20
43.074991996322893
10
-121.65031599567371
20
33.124991996322862
42
0.41421356237310569
10
-119.57531599567372
20
31.049991996322866
10
-109.02531599567374
20
31.049991996322884
42
0.41421356237309004
10
-106.95031599567372
20
33.124991996322876
0
LWPOLYLINE
5
133
100
AcDbEntity
8
0
100
AcDbPolyline
90
8
70
1
43
0.0
10
-92.662815995673711
20
4.9749919963229017
10
-92.662815995673711
20
-4.9750080036771074
42
-0.41421356237309759
10
-94.737815995673728
20
-7.050008003677104
10
-105.28781599567374
20
-7.0500080036771218
42
-0.4142135623730957
10
-107.36281599567374
20
-4.9750080036771216
10
-107.3628159956737
20
4.9749919963229017
42
-0.41421356237309004
10
-105.28781599567374
20
7.0499919963228974
10
-94.737815995673742
20
7.0499919963229152
42
-0.41421356237309254
0
LWPOLYLINE
5
134
100
AcDbEntity
8
0
100
AcDbPolyline
90
8
70
1
43
0.0
10
-69.262815995673719
20
-4.975008003677118
42
0.4142135623731012
10
-67.187815995673674
20
-7.0500080036771218
10
-56.637815995673726
20
-7.0500080036770862
42
0.41421356237309631
10
-54.562815995673724
20
-4.9750080036770905
10
-54.562815995673681
20
4.9749919963228928
42
0.41421356237309381
10
-56.637815995673719
20
7.0499919963229152
10
-67.187815995673731
20
7.0499919963228885
42
0.41421356237309254
10
-69.262815995673719
20
4.974991996322883
0
LWPOLYLINE
5
135
100
AcDbEntity
8
0
100
AcDbPolyline
90
8
70
1
43
0.0
10
-18.537815995673697
20
-7.0500080036770978
42
0.4142135623730947
10
-16.46281599567369
20
-4.9750080036770932
10
-16.462815995673701
20
4.9749919963228848
42
0.41421356237309492
10
-18.537815995673697
20
7.0499919963228797
10
-29.087815995673687
20
7.0499919963228797
42
0.41421356237309631
10
-31.162815995673725
20
4.9749919963228839
10
-31.162815995673686
20
-4.975008003677087
42
0.41421356237309553
10
-29.087815995673694
20
-7.0500080036770862
0
LWPOLYLINE
5
136
100
AcDbEntity
8
0
100
AcDbPolyline
90
8
70
1
43
0.0
10
9.0121840043262935
20
7.0499919963228841
42
0.41421356237309503
10
6.9371840043262933
20
4.9749919963228839
10
6.9371840043262996
20
-4.9750080036770878
42
0.41421356237309537
10
9.0121840043262935
20
-7.0500080036770862
10
19.562184004326291
20
-7.0500080036770889
42
0.41421356237309503
10
21.637184004326286
20
-4.9750080036770905
10
21.637184004326304
20
4.9749919963228812
42
0.41421356237309537
10
19.562184004326291
20
7.0499919963228974
0
LWPOLYLINE
5
137
100
AcDbEntity
8
0
100
AcDbPolyline
90
8
70
1
43
0.0
10
42.349684004326271
20
26.099991996322892
42
0.41421356237309381
10
40.274684004326282
20
24.024991996322896
10
40.274684004326282
20
14.074991996322888
42
0.41421356237309537
10
42.349684004326278
20
11.99999199632289
10
52.899684004326275
20
11.99999199632288
42
0.41421356237309254
10
54.974684004326306
20
14.074991996322886
10
54.974684004326292
20
24.024991996322889
42
0.41421356237309315
10
52.899684004326275
20
26.099991996322892
0
LWPOLYLINE
5
138
100
AcDbEntity
8
0
100
AcDbPolyline
90
8
70
1
43
0.0
10
90.999684004326298
20
11.999991996322908
42
0.41421356237309792
10
93.074684004326272
20
14.074991996322906
10
93.074684004326286
20
24.024991996322886
42
0.41421356237309631
10
90.999684004326298
20
26.099991996322892
10
80.449684004326315
20
26.099991996322892
42
0.41421356237309503
10
78.374684004326269
20
24.024991996322896
10
78.374684004326284
20
14.074991996322872
42
0.41421356237309315
10
80.449684004326301
20
11.99999199632289
0
LWPOLYLINE
5
139
100
AcDbEntity
8
0
100
AcDbPolyline
90
8
70
1
43
0.0
10
37.587184004326275
20
-12.000008003677131
10
48.137184004326343
20
-12.000008003677166
42
-0.41421356237309537
10
50.212184004326303
20
-14.07500800367713
10
50.212184004326346
20
-24.025008003677101
42
-0.41421356237309503
10
48.137184004326343
20
-26.100008003677107
10
37.587184004326275
20
-26.100008003677093
42
-0.4142135623730957
10
35.512184004326286
20
-24.025008003677097
10
35.512184004326279
20
-14.075008003677127
42
-0.41421356237309503
0
LWPOLYLINE
5
140
100
AcDbEntity
8
0
100
AcDbPolyline
90
8
70
1
43
0.0
10
-40.687815995673695
20
-24.025008003677101
10
-40.687815995673716
20
-14.075008003677127
42
-0.4142135623730957
10
-38.612815995673692
20
-12.000008003677118
10
-28.062815995673702
20
-12.000008003677141
42
-0.41421356237308909
10
-25.987815995673749
20
-14.075008003677121
10
-25.98781599567371
20
-24.025008003677101
42
-0.4142135623730957
10
-28.062815995673706
20
-26.100008003677093
10
-38.612815995673699
20
-26.100008003677097
42
-0.41421356237309503
0
LWPOLYLINE
5
141
100
AcDbEntity
8
0
100
AcDbPolyline
90
8
70
1
43
0.0
10
-95.762815995673733
20
-12.000008003677095
10
-85.212815995673736
20
-12.000008003677078
42
-0.41421356237309598
10
-83.137815995673705
20
-14.075008003677116
10
-83.137815995673719
20
-24.025008003677101
42
-0.41421356237309004
10
-85.212815995673722
20
-26.100008003677097
10
-95.762815995673733
20
-26.100008003677079
42
-0.41421356237309381
10
-97.837815995673736
20
-24.025008003677094
10
-97.837815995673765
20
-14.075008003677109
42
-0.41421356237309254
0
LWPOLYLINE
5
142
100
AcDbEntity
8
0
100
AcDbPolyline
90
8
70
1
43
0.0
10
-6.9378159956737111
20
-14.07500800367713
42
0.41421356237309503
10
-9.0128159956736891
20
-12.000008003677147
10
-19.562815995673727
20
-12.000008003677113
42
0.41421356237309442
10
-21.637815995673719
20
-14.075008003677127
10
-21.637815995673716
20
-24.025008003677097
42
0.4142135623730957
10
-19.562815995673724
20
-26.100008003677097
10
-9.0128159956736926
20
-26.100008003677093
42
0.41421356237309537
10
-6.9378159956736951
20
-24.025008003677101
0
LWPOLYLINE
5
143
100
AcDbEntity
8
0
100
AcDbPolyline
90
8
70
1
43
0.0
10
69.262184004326315
20
-14.075008003677127
10
69.262184004326286
20
-24.025008003677101
42
-0.41421356237309254
10
67.187184004326298
20
-26.100008003677107
10
56.637184004326286
20
-26.100008003677097
42
-0.41421356237309442
10
54.562184004326291
20
-24.025008003677108
10
54.562184004326284
20
-14.075008003677127
42
-0.41421356237309631
10
56.637184004326294
20
-12.000008003677124
10
67.187184004326355
20
-12.000008003677095
42
-0.41421356237308499
0
LWPOLYLINE
5
144
100
AcDbEntity
8
0
100
AcDbPolyline
90
8
70
1
43
0.0
10
123.31218300432631
20
26.099991996322874
10
133.86218400432625
20
26.099991996322874
42
-0.41421356237309315
10
135.93718400432627
20
24.024991996322875
10
135.9371840043263
20
14.074991996322904
42
-0.41421356237309004
10
133.86218400432628
20
11.999991996322873
10
123.31218400432633
20
11.999991996322631
42
-0.4142134212197382
10
121.23718400432625
20
14.074990996322899
10
121.23718400432611
20
24.024991996322896
42
-0.41421342121974197
0
LWPOLYLINE
5
145
100
AcDbEntity
8
0
100
AcDbPolyline
90
8
70
1
43
0.0
10
64.087184004326303
20
-4.9750080036771056
42
0.41421356237310036
10
66.162184004326321
20
-7.0500080036771013
10
76.712184004326275
20
-7.050008003677104
42
0.41421356237309631
10
78.787184004326321
20
-4.9750080036771083
10
78.787184004326292
20
4.9749919963228812
42
0.41421356237309537
10
76.712184004326289
20
7.0499919963228797
10
66.162184004326292
20
7.0499919963228708
42
0.41421356237309004
10
64.087184004326332
20
4.9749919963228839
0
LWPOLYLINE
5
146
100
AcDbEntity
8
0
100
AcDbPolyline
90
8
70
1
43
0.0
10
28.062184004326266
20
7.0499919963228885
42
0.41421356237309381
10
25.987184004326267
20
4.9749919963228884
10
25.987184004326267
20
-4.9750080036770967
42
0.41421356237309415
10
28.062184004326269
20
-7.0500080036770862
10
38.61218400432633
20
-7.050008003677104
42
0.41421356237309881
10
40.687184004326298
20
-4.9750080036770905
10
40.687184004326298
20
4.9749919963228866
42
0.4142135623730947
10
38.612184004326338
20
7.0499919963228441
0
LWPOLYLINE
5
147
100
AcDbEntity
8
0
100
AcDbPolyline
90
8
70
1
43
0.0
10
-2.1753159956737145
20
24.024991996322886
42
0.41421356237309659
10
-4.2503159956737253
20
26.099991996322906
10
-14.800315995673714
20
26.099991996322885
42
0.41421356237309598
10
-16.875315995673716
20
24.024991996322896
10
-16.87531599567372
20
14.074991996322886
42
0.41421356237309503
10
-14.800315995673721
20
11.99999199632289
10
-4.2503159956737226
20
11.999991996322885
42
0.41421356237309492
10
-2.1753159956736923
20
14.074991996322886
0
LWPOLYLINE
5
148
100
AcDbEntity
8
0
100
AcDbPolyline
90
8
70
1
43
0.0
10
-54.975315995673739
20
14.074991996322904
10
-54.975315995673739
20
24.024991996322914
42
-0.41421356237309631
10
-52.900315995673736
20
26.09999199632291
10
-42.350315995673711
20
26.09999199632291
42
-0.41421356237309442
10
-40.275315995673694
20
24.0249919963229
10
-40.275315995673708
20
14.074991996322886
42
-0.41421356237309381
10
-42.350315995673704
20
11.99999199632288
10
-52.900315995673708
20
11.99999199632289
42
-0.41421356237310258
0
LWPOLYLINE
5
149
100
AcDbEntity
8
0
100
AcDbPolyline
90
8
70
1
43
0.0
10
-93.075315995673705
20
14.074991996322872
42
0.4142135623730907
10
-91.000315995673716
20
11.999991996322874
10
-80.450315995673733
20
11.999991996322873
42
0.41421356237309503
10
-78.375315995673731
20
14.074991996322851
10
-78.375315995673731
20
24.024991996322875
42
0.4142135623730957
10
-80.450315995673733
20
26.099991996322874
10
-91.000315995673716
20
26.099991996322874
42
0.41421356237309004
10
-93.075315995673691
20
24.024991996322878
0
LWPOLYLINE
5
150
100
AcDbEntity
8
0
100
AcDbPolyline
90
8
70
1
43
0.0
10
-87.900315995673679
20
43.074991996322879
10
-87.900315995673722
20
33.124991996322862
42
-0.41421356237308754
10
-89.975315995673725
20
31.049991996322884
10
-100.52531599567374
20
31.049991996322866
42
-0.41421356237309631
10
-102.60031599567372
20
33.124991996322869
10
-102.60031599567377
20
43.074991996322879
42
-0.41421356237308254
10
-100.52531599567375
20
45.149991996322839
10
-89.975315995673739
20
45.149991996322854
42
-0.41421356237310258
0
LWPOLYLINE
5
151
100
AcDbEntity
8
0
100
AcDbPolyline
90
8
70
1
43
0.0
10
-11.700315995673725
20
43.074991996322922
42
0.41421356237308782
10
-13.775315995673722
20
45.149991996322882
10
-24.325315995673709
20
45.149991996322868
42
0.41421356237309503
10
-26.400315995673687
20
43.074991996322908
10
-26.400315995673683
20
33.124991996322869
42
0.41421356237309631
10
-24.325315995673691
20
31.049991996322866
10
-13.775315995673722
20
31.049991996322856
42
0.41421356237309415
10
-11.700315995673698
20
33.124991996322862
0
LWPOLYLINE
5
152
100
AcDbEntity
8
0
100
AcDbPolyline
90
8
70
1
43
0.0
10
62.424684004326281
20
31.049991996322849
10
51.874684004326284
20
31.049991996322866
42
-0.41421356237309503
10
49.799684004326288
20
33.124991996322862
10
49.799684004326295
20
43.074991996322908
42
-0.41421356237309254
10
51.874684004326298
20
45.149991996322861
10
62.424684004326281
20
45.149991996322861
42
-0.41421356237308876
10
64.499684004326284
20
43.0749919963229
10
64.499684004326298
20
33.124991996322862
42
-0.41421356237309503
0
LWPOLYLINE
5
153
100
AcDbEntity
8
0
100
AcDbPolyline
90
8
70
1
43
0.0
10
125.9996840043263
20
33.1249909963229
42
0.4142137035265252
10
128.07468400432629
20
31.049991996323129
10
138.62468400432633
20
31.049991996322866
42
0.41421356237309254
10
140.69968400432634
20
33.124991996322876
10
140.69968400432631
20
43.074991996322893
42
0.41421356237309503
10
138.62468400432633
20
45.14999199632291
10
128.0746830043264
20
45.149991996322917
42
0.4142137035265277
10
125.99968400432658
20
43.074991996322893
0
LWPOLYLINE
5
154
100
AcDbEntity
8
0
100
AcDbPolyline
90
8
70
1
43
0.0
10
80.449684004326301
20
-31.050008003677117
10
90.999684004326298
20
-31.050008003677117
42
-0.41421356237309814
10
93.074684004326272
20
-33.125008003677117
10
93.074684004326372
20
-43.075008003677127
42
-0.41220481992710378
10
91.013914120032112
20
-45.150008003677151
10
80.449684004076829
20
-45.150000670224429
42
-0.41366727286151933
10
78.374684004326298
20
-43.078927883664086
10
78.374684004326312
20
-33.12500800367711
42
-0.41421356237309631
0
LWPOLYLINE
5
155
100
AcDbEntity
8
0
100
AcDbPolyline
90
8
70
1
43
0.0
10
-62.875315995673731
20
-31.150008003677097
10
-51.425315995673735
20
-31.150008003677122
42
-0.41421356237310469
10
-50.350315995673718
20
-32.225008003677104
10
-50.350315995673689
20
-43.975008003677146
42
-0.41142498802480848
10
-51.415081937018947
20
-45.050008003677036
10
-62.875315996134198
20
-45.050000670113313
42
-0.41345691928620981
10
-63.950315995673741
20
-43.977834766371693
10
-63.950315995673719
20
-32.225008003677097
42
-0.41421356237309742
0
LWPOLYLINE
5
156
100
AcDbEntity
8
0
100
AcDbPolyline
90
8
70
1
43
0.0
10
-73.612815995673742
20
-33.125057003806987
42
0.41421356237309381
10
-75.687815995673716
20
-31.050057003806984
10
-86.237815996205825
20
-31.050057003806984
42
0.41421511500823882
10
-88.312815995673688
20
-33.125008003677131
10
-88.312815995673702
20
-43.078927883667191
42
0.41366727286108074
10
-86.237815995923199
20
-45.150000670224429
10
-75.673585879968002
20
-45.150008003677115
42
0.41220481993492314
10
-73.612815995673699
20
-43.075008003621619
0
LWPOLYLINE
5
157
100
AcDbEntity
8
0
100
AcDbPolyline
90
8
70
1
43
0.0
10
54.562184004326326
20
-43.078927883664093
10
54.562184004326291
20
-33.12500800367711
42
-0.41421356237309254
10
56.637184004326279
20
-31.050008003677121
10
67.187184004326355
20
-31.050008003677117
42
-0.41421356237308377
10
69.262184004326286
20
-33.12500800367711
10
69.262184004326286
20
-43.075008003621633
42
-0.41220481993492192
10
67.201414120032041
20
-45.150008003677144
10
56.637184004087757
20
-45.150000670224408
42
-0.41366727286306454
0
LWPOLYLINE
5
158
100
AcDbEntity
8
0
100
AcDbPolyline
90
8
70
1
43
0.0
10
-2.1753159956736909
20
-33.125008003677102
42
0.41421356237309537
10
-4.2503159956736898
20
-31.050008003677107
10
-14.800315995673721
20
-31.050008003677114
42
0.41421356237309503
10
-16.875315995673716
20
-33.125008003677102
10
-16.87531599567372
20
-43.07892788366339
42
0.41366727286315608
10
-14.800315995912285
20
-45.150000670224429
10
-4.2360858799679804
20
-45.150008003677129
42
0.41220481992710178
10
-2.1753159956737278
20
-43.075008003677112
0
LWPOLYLINE
5
159
100
AcDbEntity
8
0
100
AcDbPolyline
90
8
70
1
43
0.0
10
-99.486085879968002
20
-45.150008003677144
42
0.41220481992710878
10
-97.425315995673714
20
-43.075008003677112
10
-97.425315995673742
20
-33.12505700380698
42
0.41421356237309442
10
-99.500315995673745
20
-31.05005700380698
10
-110.05031599620582
20
-31.050057003806984
42
0.41421511500823505
10
-112.1253159956737
20
-33.125008003677124
10
-112.12531599567377
20
-43.078927883665095
42
0.41366727286137395
10
-110.05031599592317
20
-45.150000670224415
0
LWPOLYLINE
5
160
100
AcDbEntity
8
0
100
AcDbPolyline
90
8
70
1
43
0.0
10
44.899684004326289
20
-32.225057003903842
42
0.41421356236657575
10
43.824684004350217
20
-31.150057003903843
10
32.374636684715547
20
-31.15005700364874
42
0.41420366653370161
10
31.299684004326274
20
-32.225008003677104
10
31.299684004326274
20
-43.977834766374777
42
0.41345691929932149
10
32.374684003916983
20
-45.05000067011332
10
43.834918062981018
20
-45.050008003677043
42
0.41142498802481575
10
44.899684004326303
20
-43.975008003677161
0
LWPOLYLINE
5
161
100
AcDbEntity
8
0
100
AcDbPolyline
90
12
70
1
43
0.0
10
93.559059004325746
20
-15.050008253677095
10
96.059059004325746
20
-15.050008253677149
42
-0.41421356237311552
10
98.05905900432586
20
-17.050008253677124
10
98.059059004325775
20
-22.550008253677131
42
-0.41421356237313667
10
97.559059004325746
20
-23.05000825367712
10
97.05905900432569
20
-23.050008253677102
42
-0.41421356237310281
10
96.559059004325704
20
-22.550008253677099
10
96.559059004325718
20
-17.050008253677124
42
0.41421356237319906
10
96.059059004325718
20
-16.550008253677223
10
93.559059004325746
20
-16.550008253677134
42
-0.41421356237307033
10
93.059059004325775
20
-16.050008253677206
10
93.059059004325775
20
-15.550008253677138
42
-0.4142135623730534
0
LWPOLYLINE
5
162
100
AcDbEntity
8
0
100
AcDbPolyline
90
8
70
1
43
0.0
10
120.26045790394427
20
47.398779893658713
10
120.53479915836967
20
47.721520669506745
42
-0.37436653062571795
10
122.48281142218184
20
48.015637124944526
42
0.29111905687536316
10
125.16655398910589
20
48.015635472681311
42
-0.37436609210245986
10
127.11456439614459
20
47.721518376938342
10
127.38890377309836
20
47.39878001067629
42
-0.63931613016853184
10
127.00794096771688
20
46.574947737862303
10
120.64142080879493
20
46.574947737862296
42
-0.63931602199158433
0
LWPOLYLINE
5
163
100
AcDbEntity
8
0
100
AcDbPolyline
90
8
70
1
43
0.0
10
45.007953468081482
20
46.574947737862303
10
38.641416308435694
20
46.574947737862303
42
-0.63931602199158166
10
38.260453403585032
20
47.398779893658691
10
38.534803158369684
20
47.721530669506755
42
-0.3743665306257164
10
40.482815422181858
20
48.015647124944536
42
0.2911190568753621
10
43.166557989105918
20
48.0156454726813
42
-0.37436609210246691
10
45.11456839614462
20
47.721528376938352
10
45.388916273462961
20
47.39878001067629
42
-0.63931613016853661
0
LWPOLYLINE
5
164
100
AcDbEntity
8
0
100
AcDbPolyline
90
8
70
1
43
0.0
10
-45.43954459641504
20
47.398779893658691
10
-45.165194841630324
20
47.721530669506755
42
-0.37436653062571595
10
-43.21718257781815
20
48.015647124944536
42
0.2911190568753621
10
-40.533440010894097
20
48.015645472681321
42
-0.37436609210246635
10
-38.585429603855403
20
47.721528376938366
10
-38.311081726537054
20
47.398780010676276
42
-0.63931613016853595
10
-38.692044531918533
20
46.574947737862296
10
-45.058581691564385
20
46.574947737862303
42
-0.63931602199158377
0
LWPOLYLINE
5
165
100
AcDbEntity
8
0
100
AcDbPolyline
90
8
70
1
43
0.0
10
-127.38954209605581
20
47.398779893658691
42
0.63931602199157966
10
-127.00857919120514
20
46.574947737862296
10
-120.6420590322831
20
46.574947737862288
42
0.63931613016853661
10
-120.2610962269016
20
47.398780010676276
10
-120.53543667655974
20
47.721519638889319
42
0.37436607587408005
10
-122.4834470115417
20
48.015636780471276
42
-0.29111902599584494
10
-125.16718757717031
20
48.015638432734136
42
0.37436651439751378
10
-127.11519976892666
20
47.721521931457822
0
LWPOLYLINE
5
166
100
AcDbEntity
8
0
100
AcDbPolyline
90
8
70
1
43
0.0
10
-89.304874146766196
20
-47.398841489374988
10
-89.57918514980534
20
-47.721546676861038
42
-0.37436653062571884
10
-91.527197413617515
20
-48.015663132298826
42
0.29111905687536371
10
-94.210939980541596
20
-48.015661480035597
42
-0.3743660921024653
10
-96.158950387580276
20
-47.721544384292628
10
-96.433259513126629
20
-47.398841606395294
42
-0.63931613016838162
10
-96.052296707745356
20
-46.57500933358132
10
-89.685837051617071
20
-46.575009333578564
42
-0.63931602199173931
0
LWPOLYLINE
5
167
100
AcDbEntity
8
0
100
AcDbPolyline
90
8
70
1
43
0.0
10
70.635215792557915
20
-46.575009333509257
10
77.001658448084953
20
-46.5750093335065
42
-0.63931602199173454
10
77.382621352935828
20
-47.39884148930291
10
77.108318850194678
20
-47.721536676861049
42
-0.37436653062571745
10
75.16030658638249
20
-48.015653132298837
42
0.29111905687536421
10
72.476564019458408
20
-48.015651480035622
42
-0.37436609210246546
10
70.528553612419714
20
-47.721534384292667
10
70.254252987176656
20
-47.398841606323231
42
-0.63931613016838162
0
LWPOLYLINE
5
168
100
AcDbEntity
8
0
100
AcDbPolyline
90
8
70
1
43
0.0
10
-131.48156699567375
20
7.0499919963228788
42
0.4142122919958876
10
-133.5565659956759
20
4.9749919963229079
10
-133.55656599567371
20
-4.97500900367712
42
0.4142128566071609
10
-131.48156599567369
20
-7.0500080036783297
10
-120.93156599567372
20
-7.050008003677104
42
0.41421356237309254
10
-118.85656599567369
20
-4.9750080036771083
10
-118.85656599567372
20
4.9749919963228919
42
0.41421356237309392
10
-120.93156599567372
20
7.0499919963228974
0
LWPOLYLINE
5
169
100
AcDbEntity
8
0
100
AcDbPolyline
90
8
70
1
43
0.0
10
-128.07531599567372
20
31.049991996322884
10
-138.62531599576195
20
31.049991996322884
42
-0.41421384465506544
10
-140.70031599567372
20
33.124991996234606
10
-140.70031599567372
20
43.074991996411157
42
-0.41421384465505351
10
-138.62531599576201
20
45.149991996322889
10
-128.07531599567372
20
45.149991996322854
42
-0.41421356237309004
10
-126.00031599567373
20
43.074991996322893
10
-126.00031599567373
20
33.124991996322876
42
-0.41421356237309004
0
LWPOLYLINE
5
170
100
AcDbEntity
8
0
100
AcDbPolyline
90
8
70
1
43
0.0
10
128.07468300432632
20
-12.000008003677117
42
0.41421229199589016
10
125.99968400432411
20
-14.075008003677139
10
125.9996840043263
20
-24.025009003677141
42
0.41421285660715457
10
128.07468400432626
20
-26.100008003678322
10
138.6246840043263
20
-26.100008003677114
42
0.41421356237309254
10
140.69968400432643
20
-24.025008003677119
10
140.69968400432629
20
-14.075008003677148
42
0.41421356237309537
10
138.62468400432633
20
-12.000008003677184
0
LWPOLYLINE
5
171
100
AcDbEntity
8
0
100
AcDbPolyline
90
44
70
1
43
0.0
10
79.918331085945354
20
-47.625009333504963
10
141.37471550456075
20
-47.625009333480705
42
0.41421356237301699
10
142.87471550456019
20
-46.125009333480513
10
142.87471550454879
20
46.124947737862463
42
0.41421356237306212
10
141.37471550454876
20
47.6249477378623
10
129.9246137374343
20
47.6249477378623
42
-0.22002093628785463
10
128.78172532128988
20
48.153450919420344
10
125.72949000428217
20
51.744161996322831
42
0.46242438204787245
10
121.91986556303584
20
51.74415677160794
10
118.86763688548552
20
48.153451270470804
42
-0.22002101679538427
10
117.72474817093547
20
47.6249477378623
10
47.924626237798918
20
47.6249477378623
42
-0.22002093628785463
10
46.781737821654481
20
48.153450919420344
10
43.729494004282188
20
51.744171996322841
42
0.46242438204787245
10
39.91986956303586
20
51.744166771607951
10
36.86763238512625
20
48.153451270470804
42
-0.22002101679538427
10
35.724743670576217
20
47.6249477378623
10
-35.775371762201104
20
47.624947737862307
42
-0.22002093628785627
10
-36.918260178345548
20
48.153450919420344
10
-39.970503995717834
20
51.744171996322841
42
0.46242438204787245
10
-43.780128436964162
20
51.744166771607951
10
-46.832365614873765
20
48.153451270470796
42
-0.22002101679538602
10
-47.975254329423805
20
47.6249477378623
10
-117.72538626256564
20
47.6249477378623
42
-0.22002093628785777
10
-118.86827467871009
20
48.153450919420344
10
-121.92050999571784
20
51.744161996322866
42
0.46242438204787245
10
-125.73013443696416
20
51.744156771607976
10
-128.78236311451451
20
48.153451270470804
42
-0.22002101679538427
10
-129.92525182906456
20
47.6249477378623
10
-141.37528449544865
20
47.624947737862342
42
0.41421356237309503
10
-142.87528449544865
20
46.1249477378623
10
-142.87528449544865
20
-46.125009333592303
42
0.41421356237321122
10
-141.37528449544806
20
-47.625009333592317
10
-98.96896947746805
20
-47.625009333575576
42
-0.22002093628795708
10
-97.826081061323023
20
-48.15351251513362
10
-94.773875995717844
20
-51.744188003677124
42
0.46242438204787245
10
-90.964251554471517
20
-51.744182778962234
10
-87.912053128300784
20
-48.153512866179256
42
-0.22002101679528185
10
-86.769164413751341
20
-47.625009333570759
10
67.718543022840549
20
-47.62500933350978
42
-0.22002093628795708
10
68.861431438985576
20
-48.153512515067824
10
71.91362800428216
20
-51.744178003677142
42
0.46242438204787245
10
75.723252445528487
20
-51.744172778962252
10
78.775442371395911
20
-48.153512866113459
42
-0.22002101679528033
0
LWPOLYLINE
5
172
100
AcDbEntity
8
0
100
AcDbPolyline
90
8
70
1
43
0.0
10
101.88093300432627
20
-12.000008003677113
10
112.43093400432628
20
-12.000008003677131
42
-0.41421356237309631
10
114.50593400432626
20
-14.075008003677137
10
114.50593400432629
20
-24.025008003677119
42
-0.41421356237309004
10
112.43093400432629
20
-26.100008003677114
10
101.88093400432628
20
-26.100008003678354
42
-0.41421285660715834
10
99.805934004326303
20
-24.02500900367713
10
99.805934004324087
20
-14.075008003677144
42
-0.4142122919958936
0
LWPOLYLINE
5
173
100
AcDbEntity
8
0
100
AcDbPolyline
90
23
70
1
43
0.0
10
-110.56876596641688
20
-26.061850293116954
10
-132.31961596655518
20
-26.061848320642142
42
-0.31269366156759681
10
-134.07544660625356
20
-24.844928243502551
42
0.31268021564693488
10
-135.69061596659094
20
-23.725378003642742
10
-136.09471596651889
20
-23.725378003642696
42
-0.41421109590996319
10
-137.5197059666331
20
-22.300378003703955
10
-137.51970602471431
20
-14.699638003650293
42
-0.41669298652265097
10
-136.082678966591
20
-13.274498003642689
10
-135.229115966591
20
-13.274498003642705
10
-135.229115966591
20
-13.274486003642672
42
0.30563932784211473
10
-134.36842579223219
20
-12.694218074127754
42
-0.30564902910975872
10
-133.37181596659102
20
-12.022349003642717
10
-133.37181596659102
20
-12.022338003642687
10
-109.51661596661609
20
-12.022338003642744
42
-0.30560868445811679
10
-108.52010428832932
20
-12.694217324832916
42
0.3056063310332835
10
-107.65941596686078
20
-13.274507853070858
10
-106.79381596655517
20
-13.274498003642721
42
-0.41421870106895714
10
-105.36885096637165
20
-14.699438003642717
10
-105.36882596659112
20
-14.699438003642697
10
-105.36882596659103
20
-22.300338003604985
42
-0.41662887630313167
10
-106.80573293598584
20
-23.725374300695655
10
-107.19786596659105
20
-23.725378003642703
42
0.3126811336832987
10
-108.81307596683823
20
-24.844938004302403
42
-0.31265464049187364
0
LWPOLYLINE
5
174
100
AcDbEntity
8
0
100
AcDbPolyline
90
23
70
1
43
0.0
10
136.08176706401423
20
-4.6753743006956228
42
0.41662887630313172
10
137.51867403340901
20
-3.2503380036049734
10
137.51867403340901
20
4.3505619963573139
10
137.51864903362841
20
4.3505619963573201
42
0.41421870106897368
10
136.09368403344484
20
5.775501996357308
10
135.22808403313928
20
5.7754921469291576
42
-0.30560633103328699
10
134.36739571167089
20
6.3557826751671165
42
0.30560868445813322
10
133.37088403338399
20
7.0276619963573523
10
109.515684033409
20
7.0276619963573239
10
109.515684033409
20
7.027650996357294
42
0.30564902910973207
10
108.5190742077678
20
6.3557819258722956
42
-0.30563932784214271
10
107.65838403340901
20
5.7755139963573399
10
107.65838403340901
20
5.7755019963573062
10
106.804821033409
20
5.775501996357292
42
0.41669298652265852
10
105.36779397528575
20
4.3503619963497178
10
105.36779403336689
20
-3.250378003703938
42
0.41421109591000094
10
106.79278403348114
20
-4.6753780036426864
10
107.19688403340895
20
-4.675378003642626
42
-0.31268021564693654
10
108.81205339374648
20
-5.7949282435025742
42
0.31269366156762307
10
110.56788403344484
20
-7.0118483206421409
10
132.31873403358318
20
-7.0118502931169466
42
0.31265464049188746
10
134.07442403316179
20
-5.7949380043023444
42
-0.31268113368329759
10
135.68963403340911
20
-4.675378003642674
0
CIRCLE
5
175
100
AcDbEntity
8
0
100
AcDbCircle
10
76.199688004282137
20
-38.099998003677143
30
0
40
0.99999999999999645
210
0
220
0
230
1
0
CIRCLE
5
176
100
AcDbEntity
8
0
100
AcDbCircle
10
-92.869069995717837
20
-50.125018003677141
30
0
40
1.4499999999999957
210
0
220
0
230
1
0
CIRCLE
5
177
100
AcDbEntity
8
0
100
AcDbCircle
10
123.82468400428216
20
50.124991996322841
30
0
40
1.4499999999999957
210
0
220
0
230
1
0
CIRCLE
5
178
100
AcDbEntity
8
0
100
AcDbCircle
10
-41.875309995717842
20
50.125001996322851
30
0
40
1.4499999999999957
210
0
220
0
230
1
0
CIRCLE
5
179
100
AcDbEntity
8
0
100
AcDbCircle
10
-123.82531599571784
20
50.124991996322876
30
0
40
1.4499999999999957
210
0
220
0
230
1
0
CIRCLE
5
180
100
AcDbEntity
8
0
100
AcDbCircle
10
41.82468800428218
20
50.125001996322851
30
0
40
1.4499999999999957
210
0
220
0
230
1
0
CIRCLE
5
181
100
AcDbEntity
8
0
100
AcDbCircle
10
73.818434004282167
20
-50.125008003677152
30
0
40
1.4499999999999957
210
0
220
0
230
1
0
CIRCLE
5
182
100
AcDbEntity
8
0
100
AcDbCircle
10
80.962184004282136
20
-8.0036771876734747e-06
30
0
40
0.99999999999999645
210
0
220
0
230
1
0
CIRCLE
5
183
100
AcDbEntity
8
0
100
AcDbCircle
10
33.337184004282143
20
-19.050008003677146
30
0
40
1.0000000000000009
210
0
220
0
230
1
0
CIRCLE
5
184
100
AcDbEntity
8
0
100
AcDbCircle
10
-95.250315995717827
20
-38.100008003677139
30
0
40
0.99999999999999645
210
0
220
0
230
1
0
CIRCLE
5
185
100
AcDbEntity
8
0
100
AcDbCircle
10
-90.487815995717824
20
-8.0036771521463379e-06
30
0
40
0.99999999999999645
210
0
220
0
230
1
0
CIRCLE
5
186
100
AcDbEntity
8
0
100
AcDbCircle
10
-47.625315995717834
20
38.099991996322856
30
0
40
0.99999999999999645
210
0
220
0
230
1
0
CIRCLE
5
187
100
AcDbEntity
8
0
100
AcDbCircle
10
-0.00031599571784113323
20
19.049991996322859
30
0
40
1
210
0
220
0
230
1
0
CIRCLE
5
188
100
AcDbEntity
8
0
100
AcDbCircle
10
47.624684004282187
20
38.099991996322856
30
0
40
0.99999999999999645
210
0
220
0
230
1
0
CIRCLE
5
189
100
AcDbEntity
8
0
100
AcDbCircle
10
139.68343400428216
20
7.4799919963228412
30
0
40
0.99999999999999645
210
0
220
0
230
1
0
CIRCLE
5
190
100
AcDbEntity
8
0
100
AcDbCircle
10
26.475184004282148
20
-38.100008003677139
30
0
40
1.0000000000000009
210
0
220
0
230
1
0
CIRCLE
5
191
100
AcDbEntity
8
0
100
AcDbCircle
10
-45.524815995717844
20
-38.100008003677139
30
0
40
0.99999999999999645
210
0
220
0
230
1
0
CIRCLE
5
192
100
AcDbEntity
8
0
100
AcDbCircle
10
-123.82531599571784
20
38.099991996322871
30
0
40
0.99999999999999645
210
0
220
0
230
1
0
CIRCLE
5
193
100
AcDbEntity
8
0
100
AcDbCircle
10
-42.862815995717831
20
-19.050008003677146
30
0
40
0.99999999999999645
210
0
220
0
230
1
0
CIRCLE
5
194
100
AcDbEntity
8
0
100
AcDbCircle
10
-4.762815995717844
20
-19.050008003677146
30
0
40
0.99999999999999978
210
0
220
0
230
1
0
CIRCLE
5
195
100
AcDbEntity
8
0
100
AcDbCircle
10
123.82468400428216
20
38.099991996322835
30
0
40
0.99999999999999645
210
0
220
0
230
1
0
CIRCLE
5
196
100
AcDbEntity
8
0
100
AcDbCircle
10
-139.33323299571785
20
7.4240419963228632
30
0
40
0.99999999999999645
210
0
220
0
230
1
0
CIRCLE
5
197
100
AcDbEntity
8
0
100
AcDbCircle
10
-137.74465599571784
20
-26.350765003677132
30
0
40
0.99999999999999645
210
0
220
0
230
1
0
CIRCLE
5
198
100
AcDbEntity
8
0
100
AcDbCircle
10
123.82468800428217
20
-19.049998003677153
30
0
40
0.99999999999999645
210
0
220
0
230
1
0
ENDSEC
0
SECTION
2
OBJECTS
0
DICTIONARY
5
C
100
AcDbDictionary
3
ACAD_GROUP
350
D
3
ACAD_MLINESTYLE
350
17
0
DICTIONARY
5
D
100
AcDbDictionary
0
DICTIONARY
5
1A
330
C
100
AcDbDictionary
0
DICTIONARY
5
17
100
AcDbDictionary
0
ENDSEC
0
EOF
