0
SECTION
2
HEADER
9
$INSUNITS
70
4
9
$ACADVER
1
AC1014
9
$HANDSEED
5
FFFF
0
ENDSEC
0
SECTION
2
TABLES
0
TABLE
2
VPORT
5
8
100
AcDbSymbolTable
0
ENDTAB
0
TABLE
2
LTYPE
5
5
100
AcDbSymbolTable
0
LTYPE
5
14
100
AcDbSymbolTableRecord
100
AcDbLinetypeTableRecord
2
BYBLOCK
70
0
0
LTYPE
5
15
100
AcDbSymbolTableRecord
100
AcDbLinetypeTableRecord
2
BYLAYER
70
0
0
LTYPE
5
16
100
AcDbSymbolTableRecord
100
AcDbLinetypeTableRecord
2
DASHED
70
0
3
Dashed __ __ __ __ __ __ __ __ __ __ __ __ __ _
72
65
73
2
40
0.75
49
0.5
74
0
49
-0.25
74
0
0
ENDTAB
0
TABLE
2
LAYER
5
2
100
AcDbSymbolTable
70
2
0
LAYER
5
50
100
AcDbSymbolTableRecord
100
AcDbLayerTableRecord
2
0
70
0
62
7
6
CONTINUOUS
0
ENDTAB
0
TABLE
2
STYLE
5
3
100
AcDbSymbolTable
70
1
0
STYLE
5
11
100
AcDbSymbolTableRecord
100
AcDbTextStyleTableRecord
2
STANDARD
70
0
0
ENDTAB
0
TABLE
2
VIEW
5
6
100
AcDbSymbolTable
70
0
0
ENDTAB
0
TABLE
2
UCS
5
7
100
AcDbSymbolTable
70
0
0
ENDTAB
0
TABLE
2
APPID
5
9
100
AcDbSymbolTable
70
2
0
APPID
5
12
100
AcDbSymbolTableRecord
100
AcDbRegAppTableRecord
2
ACAD
70
0
0
ENDTAB
0
TABLE
2
DIMSTYLE
5
A
100
AcDbSymbolTable
70
1
0
ENDTAB
0
TABLE
2
BLOCK_RECORD
5
1
100
AcDbSymbolTable
70
1
0
BLOCK_RECORD
5
1F
100
AcDbSymbolTableRecord
100
AcDbBlockTableRecord
2
*MODEL_SPACE
0
BLOCK_RECORD
5
1B
100
AcDbSymbolTableRecord
100
AcDbBlockTableRecord
2
*PAPER_SPACE
0
ENDTAB
0
ENDSEC
0
SECTION
2
BLOCKS
0
BLOCK
5
20
100
AcDbEntity
100
AcDbBlockBegin
2
*MODEL_SPACE
0
ENDBLK
5
21
100
AcDbEntity
100
AcDbBlockEnd
0
BLOCK
5
1C
100
AcDbEntity
100
AcDbBlockBegin
2
*PAPER_SPACE
0
ENDBLK
5
1D
100
AcDbEntity
100
AcDbBlockEnd
0
ENDSEC
0
SECTION
2
ENTITIES
0
LWPOLYLINE
5
100
100
AcDbEntity
8
0
100
AcDbPolyline
90
88
70
1
43
0.0
10
93.675866074315962
20
52.742787084164497
42
0.28229128058110897
10
95.102181256876506
20
51.867787084165286
10
120.26910367847016
20
51.867787084164476
42
-0.19891236737938792
10
121.40047452836761
20
51.399157934063354
10
123.70585691528412
20
49.093775547147132
42
0.19891236737988893
10
124.83722776518327
20
48.625146397045228
10
141.37497561112806
20
48.625146405923587
42
-0.41421348393988189
10
142.87497559780985
20
47.125146794287723
10
142.87500000000054
20
-47.124853214591404
42
-0.41421363820584495
10
141.3750000000006
20
-48.624853602955156
10
122.83568844088215
20
-48.624853602954772
42
0.19891236737974932
10
121.70431759098393
20
-49.093482753055966
10
119.39893520406778
20
-51.398865139971647
42
-0.19891236737970716
10
118.26756435416904
20
-51.867494290073154
10
93.7703537356699
20
-51.867494290073459
42
0.28229128058200498
10
92.344038553109229
20
-52.742494290077872
42
-0.28229128058200259
10
90.9177233705568
20
-53.617494290074994
10
88.517723370526014
20
-53.617494290074994
42
-0.41421356237291812
10
88.017723370526198
20
-53.11749429007488
10
88.017723370527023
20
-52.117494290059874
42
0.99999999999999989
10
85.017723370526909
20
-52.117494290059874
10
85.01772337052607
20
-53.11749429007488
42
-0.41421356237276202
10
84.517723370527094
20
-53.617494290074994
10
82.117723370496009
20
-53.617494290074958
42
-0.28229128058161251
10
80.691408187981551
20
-52.742494290103934
42
0.28229128058105779
10
79.265093005420979
20
-51.867494290103565
10
54.767882386917321
20
-51.867494290103878
42
-0.1989123673795179
10
53.636511537017881
20
-51.398865140002776
10
51.331129150102228
20
-49.093482753087123
42
0.19891236737969947
10
50.199758300202788
20
-48.624853602984608
10
-50.199758300203214
20
-48.624853602984608
42
0.19891236737989074
10
-51.331129150100935
20
-49.093482753085702
10
-53.636511537017775
20
-51.398865140002748
42
-0.1989123673797232
10
-54.767882386916042
20
-51.86749429010387
10
-79.265093005420582
20
-51.86749429010387
42
0.28229128058107145
10
-80.691408187980031
20
-52.74249429010392
42
-0.28229128058178488
10
-82.117723370495867
20
-53.617494290074994
10
-84.517723370525815
20
-53.617494290075022
42
-0.41421356237241347
10
-85.017723370525943
20
-53.11749429007488
10
-85.017723370525928
20
-52.117494290059874
42
0.99999999999999989
10
-88.017723370526056
20
-52.117494290059305
10
-88.017723370526042
20
-53.11749429007488
42
-0.41421356237292856
10
-88.517723370525886
20
-53.617494290075015
10
-90.917723370556942
20
-53.617494290075101
42
-0.28229128058176189
10
-92.344038553108945
20
-52.742494290077779
42
0.28229128058180231
10
-93.770353735669772
20
-51.867494290073459
10
-118.26756435416976
20
-51.867494290073573
42
-0.19891236737968604
10
-119.39893520406807
20
-51.398865139973218
10
-121.704317590984
20
-49.093482753055859
42
0.19891236737962442
10
-122.83568844088202
20
-48.624853602954765
10
-141.3750000000002
20
-48.624853602954197
42
-0.41421356237309853
10
-142.87499999999974
20
-47.124853602954637
10
-142.87499999999989
20
47.125146397045299
42
-0.41421356237309503
10
-141.37499999999986
20
48.62514639704527
10
-124.83722776518313
20
48.625146397045185
42
0.19891236737999593
10
-123.70585691528534
20
49.093775547147061
10
-121.40047452836809
20
51.399157934063389
42
-0.1989123673795001
10
-120.26910367847003
20
51.867787084165293
10
-95.102181256875795
20
51.867787084164441
42
0.28229128058094283
10
-93.67586607431619
20
52.742787084164824
42
-0.28229128058160918
10
-92.249550891801078
20
53.617787084135585
10
-89.849550891769979
20
53.617787084135024
42
-0.41421356237343843
10
-89.349550891770107
20
53.117787084135173
10
-89.34955089177015
20
52.11778708412016
42
0.99999999999999989
10
-86.349550891770036
20
52.117787084120728
10
-86.349550891770036
20
53.117787084135173
42
-0.41421356237289214
10
-85.849550891769951
20
53.617787084135017
10
-83.449550891740003
20
53.617787084135259
42
-0.28229128058183167
10
-82.023235709187418
20
52.742787084138349
42
0.28229128058169078
10
-80.596920526627201
20
51.867787084134434
10
-55.429998105071057
20
51.867787084134029
42
-0.19891236737977941
10
-54.29862725517161
20
51.399157934033212
10
-51.993244868255957
20
49.093775547116145
42
0.1989123673794882
10
-50.861874018357099
20
48.625146397015371
10
50.861874018356943
20
48.625146397015342
42
0.1989123673794681
10
51.993244868255282
20
49.093775547116103
10
54.298627255170842
20
51.399157934032438
42
-0.19891236737953116
10
55.429998105070347
20
51.867787084134029
10
80.596920526625922
20
51.867787084134029
42
0.28229128058207115
10
82.023235709186295
20
52.742787084137142
42
-0.28229128058156328
10
83.449550891739293
20
53.617787084134704
10
85.849550891769795
20
53.617787084135003
42
-0.41421356237290774
10
86.349550891769951
20
53.117787084135173
10
86.349550891768757
20
52.11778708412016
42
0.99999999999999989
10
89.349550891770036
20
52.117787084120692
10
89.349550891769738
20
53.117787084135173
42
-0.41421356237226259
10
89.849550891769013
20
53.617787084134704
10
92.249550891801206
20
53.617787084134896
42
-0.28229128058149527
0
LWPOLYLINE
5
101
100
AcDbEntity
8
0
100
AcDbPolyline
90
12
70
1
43
0.0
10
-114.10924999999997
20
3.0001463970451514
10
-114.10924999999997
20
3.5001463970452473
42
-0.41421356237306184
10
-113.60924999999996
20
4.0001463970452686
10
-111.10924999999996
20
4.0001463970452491
42
-0.41421356237309559
10
-109.10924999999997
20
2.0001463970452527
10
-109.10924999999997
20
-3.4998536029547456
42
-0.41421356237313145
10
-109.60924999999996
20
-3.999853602954726
10
-110.10925000000002
20
-3.9998536029547518
42
-0.41421356237308399
10
-110.60925
20
-3.4998536029547456
10
-110.60924999999999
20
2.0001463970452527
42
0.41421356237309731
10
-111.10924999999996
20
2.5001463970452198
10
-113.60924999999996
20
2.5001463970452447
42
-0.41421356237303619
0
LWPOLYLINE
5
102
100
AcDbEntity
8
0
100
AcDbPolyline
90
12
70
1
43
0.0
10
-112.10925000000005
20
-2.9998536029547473
10
-112.10925000000002
20
-3.4998536029547456
42
-0.41421356237312007
10
-112.60925
20
-3.999853602954742
10
-115.10925000000002
20
-3.9998536029547367
42
-0.41421356237309659
10
-117.10925
20
-1.9998536029547509
10
-117.10925000000002
20
3.5001463970452473
42
-0.41421356237307422
10
-116.60925
20
4.0001463970452544
10
-116.10924999999996
20
4.0001463970452367
42
-0.41421356237311552
10
-115.60924999999997
20
3.5001463970452478
10
-115.60924999999999
20
-1.9998536029547509
42
0.41421356237311163
10
-115.10925
20
-2.4998536029547251
10
-112.60925000000002
20
-2.4998536029547838
42
-0.4142135623731113
0
LWPOLYLINE
5
103
100
AcDbEntity
8
0
100
AcDbPolyline
90
8
70
1
43
0.0
10
136.88175000000001
20
7.5001463970454907
10
136.88175000000001
20
-7.4998536029550333
42
-0.41421356237311391
10
136.38175000000001
20
-7.9998536029552048
10
130.38175000000001
20
-7.9998536029546674
42
-0.41421356237311063
10
129.8817500000003
20
-7.4998536029553797
10
129.88175000000001
20
7.5001463970454552
42
-0.41421356237307161
10
130.38174999999995
20
8.0001463970453788
10
136.38175000000012
20
8.0001463970453965
42
-0.41421356237310869
0
LWPOLYLINE
5
104
100
AcDbEntity
8
0
100
AcDbPolyline
90
8
70
1
43
0.0
10
106.50575000000015
20
8.0001463970453521
42
0.41421356237310608
10
106.00575000000001
20
7.5001463970452367
10
106.00574999999999
20
-7.4998536029548388
42
0.41421356237310025
10
106.50575000000003
20
-7.9998536029548806
10
112.50575000000001
20
-7.9998536029549498
42
0.41421356237310936
10
113.00575000000023
20
-7.4998536029547402
10
113.00574999999998
20
7.5001463970452376
42
0.41421356237311391
10
112.50574999999986
20
8.0001463970453557
0
LWPOLYLINE
5
105
100
AcDbEntity
8
0
100
AcDbPolyline
90
8
70
1
43
0.0
10
39.837500000593508
20
-6.9998536035479422
42
0.41421356237301765
10
40.337500000593366
20
-6.4998536035480097
10
40.337500000593408
20
6.5001463964519797
42
0.41421356237316981
10
39.837500000593295
20
7.0001463964520383
10
26.837500000593408
20
7.0001463964518118
42
0.41421356237312884
10
26.337500000593401
20
6.5001463964519601
10
26.337500000593362
20
-6.4998536035480114
42
0.41421356237313989
10
26.837500000593408
20
-6.9998536035481429
0
LWPOLYLINE
5
106
100
AcDbEntity
8
0
100
AcDbPolyline
90
8
70
1
43
0.0
10
58.887500000593398
20
-6.999853603548015
42
0.41421356237298901
10
59.387500000593391
20
-6.4998536035480292
10
59.387500000593398
20
6.5001463964519113
42
0.41421356237320106
10
58.887500000593398
20
7.0001463964519317
10
45.887500000593306
20
7.0001463964519512
42
0.41421356237312756
10
45.387500000593221
20
6.5001463964520401
10
45.387500000593207
20
-6.4998536035478205
42
0.4142135623731204
10
45.887500000593306
20
-6.9998536035481518
0
LWPOLYLINE
5
107
100
AcDbEntity
8
0
100
AcDbPolyline
90
8
70
1
43
0.0
10
78.437500000593246
20
6.5001463964519797
42
0.41421356237307488
10
77.937500000593403
20
7.0001463964519672
10
64.937500000593388
20
7.0001463964519868
42
0.41421356237295587
10
64.43750000059336
20
6.5001463964519957
10
64.437500000593374
20
-6.4998536035480114
42
0.41421356237312557
10
64.937500000593417
20
-6.9998536035480541
10
77.937500000593403
20
-6.999853603547991
42
0.41421356237313078
10
78.437500000593474
20
-6.4998536035480647
0
LWPOLYLINE
5
108
100
AcDbEntity
8
0
100
AcDbPolyline
90
8
70
1
43
0.0
10
114.44375000000002
20
-6.4998536029547704
42
0.41421356237318996
10
114.94374999999999
20
-6.9998536029548717
10
127.94375000000001
20
-6.9998536029548175
42
0.41421356237299878
10
128.44375000000014
20
-6.4998536029548504
10
128.44375000000002
20
6.5001463970450812
42
0.41421356237306123
10
127.94375000000001
20
7.0001463970449951
10
114.94374999999999
20
7.0001463970455138
42
0.41421356237318541
10
114.44374999999971
20
6.5001463970450324
0
LWPOLYLINE
5
109
100
AcDbEntity
8
0
100
AcDbPolyline
90
8
70
1
43
0.0
10
-112.50575000000006
20
-11.04985360295478
10
-106.50575000000009
20
-11.0498536029548
42
-0.41421356237307422
10
-106.00575000000008
20
-11.549853602954807
10
-106.00575000000005
20
-26.549853602954805
42
-0.41421356237313145
10
-106.50575000000003
20
-27.049853602954784
10
-112.50574999999999
20
-27.049853602954791
42
-0.41421356237311324
10
-113.00575000000002
20
-26.549853602954805
10
-113.00575000000003
20
-11.549853602954752
42
-0.41421356237307294
0
LWPOLYLINE
5
110
100
AcDbEntity
8
0
100
AcDbPolyline
90
8
70
1
43
0.0
10
-136.88175000000004
20
-26.549853602954698
10
-136.88175000000001
20
-11.549853602954663
42
-0.41421356237308854
10
-136.38175000000001
20
-11.049853602954649
10
-130.38175000000007
20
-11.049853602954698
42
-0.41421356237311063
10
-129.88175000000001
20
-11.549853602954679
10
-129.88175000000007
20
-26.549853602954805
42
-0.414213562373069
10
-130.38175000000001
20
-27.049853602954784
10
-136.38175000000001
20
-27.04985360295472
42
-0.41421356237308204
0
LWPOLYLINE
5
111
100
AcDbEntity
8
0
100
AcDbPolyline
90
8
70
1
43
0.0
10
-128.44375000000002
20
-25.549853602954808
10
-128.44374999999999
20
-12.549853602954801
42
-0.41421356237309892
10
-127.94375000000001
20
-12.049853602954805
10
-114.94374999999999
20
-12.04985360295481
42
-0.41421356237311713
10
-114.44375000000001
20
-12.549853602954801
10
-114.44374999999994
20
-25.549853602954702
42
-0.41421356237307422
10
-114.94374999999999
20
-26.049853602954762
10
-127.94375000000001
20
-26.049853602954695
42
-0.41421356237302481
0
LWPOLYLINE
5
112
100
AcDbEntity
8
0
100
AcDbPolyline
90
8
70
1
43
0.0
10
83.4875000005934
20
-6.4998536035482335
10
83.487500000593386
20
6.5001463964520578
42
-0.41421356237310542
10
83.9875000005934
20
7.0001463964518873
10
96.987500000593329
20
7.0001463964520481
42
-0.41421356237308526
10
97.487500000593315
20
6.5001463964521111
10
97.487500000593243
20
-6.4998536035482246
42
-0.41421356237299295
10
96.987500000593329
20
-6.999853603548182
10
83.9875000005934
20
-6.999853603548055
42
-0.41421356237313212
0
LWPOLYLINE
5
113
100
AcDbEntity
8
0
100
AcDbPolyline
90
8
70
1
43
0.0
10
107.8
20
45.100146397047652
10
120.79999999999998
20
45.100146397047084
42
-0.41421356237305862
10
121.30000000000001
20
44.60014639704707
10
121.30000000000236
20
31.600146397045499
42
-0.41421356237308204
10
120.79999999999998
20
31.100146397043154
10
107.80000000000001
20
31.100146397045542
42
-0.41421356237295454
10
107.30000000000018
20
31.600146397045204
10
107.30000000000045
20
44.600146397044497
42
-0.41421356237284007
0
LWPOLYLINE
5
114
100
AcDbEntity
8
0
100
AcDbPolyline
90
8
70
1
43
0.0
10
-60.650000000000013
20
-45.599853602954646
42
0.41421356237307944
10
-60.150000000000048
20
-46.099853602954603
10
-54.149999999999991
20
-46.099853602954617
42
0.41421356237306384
10
-53.650000000000006
20
-45.599853602954639
10
-53.65000000000002
20
-30.599853602954706
42
0.41421356237311585
10
-54.150000000000006
20
-30.099853602954738
10
-60.15000000000002
20
-30.099853602954745
42
0.41421356237309503
10
-60.649999999999963
20
-30.59985360295471
0
LWPOLYLINE
5
115
100
AcDbEntity
8
0
100
AcDbPolyline
90
8
70
1
43
0.0
10
-6.4999999999999698
20
-31.099853602954827
42
0.41421356237299617
10
-6.9999999999999822
20
-31.599853602954802
10
-6.9999999999999982
20
-44.599853602954703
42
0.41421356237306511
10
-6.499999999999968
20
-45.099853602954774
10
6.4999999999999991
20
-45.099853602954909
42
0.41421356237303131
10
7.0000000000000107
20
-44.599853602954802
10
7.0000000000000053
20
-31.599853602954802
42
0.41421356237305079
10
6.4999999999999503
20
-31.099853602954806
0
LWPOLYLINE
5
116
100
AcDbEntity
8
0
100
AcDbPolyline
90
16
70
1
43
0.0
10
135.08750000000001
20
-45.099853602954987
10
122.08750000000002
20
-45.09985360295466
42
-0.41421356237310542
10
121.58750000000009
20
-44.599853602954703
10
121.58749999999992
20
-39.249853602952776
10
119.68749999999993
20
-39.249853602952768
42
-0.99999999999999989
10
119.68749999999993
20
-36.949853602952601
10
121.58749999999992
20
-36.949853602952594
10
121.58750000000009
20
-31.599853602954706
42
-0.41421356237298579
10
122.08750000000002
20
-31.099853602954958
10
135.08750000000001
20
-31.099853602954685
42
-0.41421356237316526
10
135.58749999999992
20
-31.599853602954706
10
135.58750000000001
20
-36.949853602954704
10
137.48750000000169
20
-36.949853602954981
42
-0.99999999999999989
10
137.48750000000169
20
-39.249853602954602
10
135.58750000000001
20
-39.249853602954602
10
135.5875000000002
20
-44.599853602954624
42
-0.41421356237320428
0
LWPOLYLINE
5
117
100
AcDbEntity
8
0
100
AcDbPolyline
90
8
70
1
43
0.0
10
111.77500000000009
20
-31.599853602954909
42
0.41421356237315227
10
111.27500000000001
20
-31.099853602954735
10
98.275000000000148
20
-31.099853602954973
42
0.41421356237308982
10
97.775000000000091
20
-31.5998536029546
10
97.775000000000063
20
-44.599853602954795
42
0.41421356237299095
10
98.275000000000006
20
-45.099853602954738
10
111.27500000000001
20
-45.099853602955008
42
0.41421356237315748
10
111.77500000000015
20
-44.599853602954802
0
LWPOLYLINE
5
118
100
AcDbEntity
8
0
100
AcDbPolyline
90
8
70
1
43
0.0
10
74.462500000000006
20
-31.099853602954759
42
0.41421356237300139
10
73.962500000000063
20
-31.599853602954706
10
73.962500000000077
20
-44.599853602954617
42
0.41421356237313667
10
74.462500000000006
20
-45.099853602954809
10
87.462500000000091
20
-45.099853602954802
42
0.41421356237320428
10
87.962500000000006
20
-44.599853602954909
10
87.962500000000063
20
-31.599853602954909
42
0.41421356237322771
10
87.462500000000091
20
-31.09985360295493
0
LWPOLYLINE
5
119
100
AcDbEntity
8
0
100
AcDbPolyline
90
8
70
1
43
0.0
10
60.650000000000084
20
-30.599853602954706
42
0.41421356237310281
10
60.150000000000112
20
-30.099853602954735
10
54.150000000000098
20
-30.09985360295472
42
0.4142135623730846
10
53.65000000000002
20
-30.599853602954799
10
53.650000000000013
20
-45.599853602954923
42
0.41421356237309503
10
54.150000000000105
20
-46.099853602955001
10
60.150000000000013
20
-46.099853602954973
42
0.41421356237310542
10
60.650000000000013
20
-45.599853602954994
0
LWPOLYLINE
5
120
100
AcDbEntity
8
0
100
AcDbPolyline
90
16
70
1
43
0.0
10
-135.08750000000001
20
-31.099853602954791
42
0.41421356237310802
10
-135.58750000000003
20
-31.599853602954802
10
-135.58750000000001
20
-36.949853602954796
10
-137.48750000000169
20
-36.949853602955102
42
0.99999999999999989
10
-137.48750000000169
20
-39.249853602954694
10
-135.58750000000001
20
-39.249853602954694
10
-135.58750000000009
20
-44.599853602954703
42
0.41421356237311063
10
-135.08750000000001
20
-45.099853602954738
10
-122.08750000000002
20
-45.099853602954823
42
0.41421356237312623
10
-121.58749999999999
20
-44.599853602954695
10
-121.58750000000032
20
-39.249853602954765
10
-119.68749999999865
20
-39.249853602954772
42
0.99999999999999989
10
-119.68749999999866
20
-36.949853602955152
10
-121.58750000000032
20
-36.949853602954867
10
-121.58750000000001
20
-31.599853602954802
42
0.41421356237313406
10
-122.08750000000003
20
-31.099853602954788
0
LWPOLYLINE
5
121
100
AcDbEntity
8
0
100
AcDbPolyline
90
8
70
1
43
0.0
10
-79.224999999406705
20
12.050146396451931
42
0.41421356237317047
10
-78.72499999940672
20
12.550146396452
10
-78.724999999406791
20
25.550146396452007
42
0.41421356237304302
10
-79.224999999406705
20
26.050146396451996
10
-92.22499999940672
20
26.050146396451971
42
0.41421356237309243
10
-92.724999999406691
20
25.550146396452007
10
-92.72499999940672
20
12.550146396452
42
0.41421356237307294
10
-92.22499999940672
20
12.050146396451993
0
LWPOLYLINE
5
122
100
AcDbEntity
8
0
100
AcDbPolyline
90
8
70
1
43
0.0
10
-126.35000000000004
20
44.600146397045314
42
0.41421356237310542
10
-126.85000000000001
20
45.1001463970453
10
-139.84999999999999
20
45.1001463970453
42
0.41421356237310025
10
-140.34999999999999
20
44.600146397045314
10
-140.34999999999999
20
31.600146397045204
42
0.41421356237309503
10
-139.85000000000002
20
31.100146397045215
10
-126.85000000000001
20
31.100146397045219
42
0.41421356237308204
10
-126.34999999999999
20
31.600146397045204
0
LWPOLYLINE
5
123
100
AcDbEntity
8
0
100
AcDbPolyline
90
8
70
1
43
0.0
10
-73.174999999406694
20
26.050146396451982
42
0.41421356237308721
10
-73.674999999406708
20
25.550146396452007
10
-73.674999999406694
20
12.550146396452
42
0.41421356237306639
10
-73.174999999406808
20
12.050146396451904
10
-60.174999999406715
20
12.050146396451989
42
0.41421356237309503
10
-59.674999999406779
20
12.550146396451902
10
-59.674999999406708
20
25.550146396452007
42
0.41421356237309243
10
-60.174999999406822
20
26.050146396451904
0
LWPOLYLINE
5
124
100
AcDbEntity
8
0
100
AcDbPolyline
90
8
70
1
43
0.0
10
-83.200000000000017
20
31.600146397045204
10
-83.200000000000045
20
44.600146397045314
42
-0.41421356237310025
10
-82.700000000000031
20
45.100146397045329
10
-69.700000000000003
20
45.100146397045108
42
-0.41421356237309503
10
-69.199999999999889
20
44.6001463970454
10
-69.199999999999932
20
31.600146397045204
42
-0.41421356237310025
10
-69.700000000000003
20
31.100146397045144
10
-82.700000000000017
20
31.100146397045197
42
-0.41421356237311585
0
LWPOLYLINE
5
125
100
AcDbEntity
8
0
100
AcDbPolyline
90
8
70
1
43
0.0
10
-64.437499999406711
20
-12.549853603548
42
0.41421356237309764
10
-64.937499999406697
20
-12.049853603548002
10
-77.937499999406711
20
-12.049853603548069
42
0.41421356237308071
10
-78.43749999940664
20
-12.549853603547998
10
-78.437499999406697
20
-25.549853603548101
42
0.41421356237307944
10
-77.937499999406711
20
-26.049853603548083
10
-64.937499999406697
20
-26.049853603548087
42
0.41421356237304563
10
-64.437499999406711
20
-25.549853603548005
0
LWPOLYLINE
5
126
100
AcDbEntity
8
0
100
AcDbPolyline
90
8
70
1
43
0.0
10
-31.600000000000001
20
31.100146397045165
10
-44.599999999999994
20
31.100146397045194
42
-0.41421356237309764
10
-45.100000000000016
20
31.600146397045204
10
-45.100000000000009
20
44.600146397045215
42
-0.41421356237311063
10
-44.600000000000001
20
45.100146397045229
10
-31.600000000000001
20
45.100146397045215
42
-0.41421356237308721
10
-31.099999999999998
20
44.600146397045002
10
-31.099999999999962
20
31.600146397045307
42
-0.41421356237316526
0
LWPOLYLINE
5
127
100
AcDbEntity
8
0
100
AcDbPolyline
90
8
70
1
43
0.0
10
-119.70625
20
-6.9998536029547775
10
-137.46625000000003
20
-6.9998536029547589
42
-0.4142135623731048
10
-137.96625
20
-6.4998536029547704
10
-137.96625000000003
20
6.5001463970452455
42
-0.41421356237307422
10
-137.46625
20
7.0001463970452349
10
-119.70625
20
7.0001463970452207
42
-0.41421356237310153
10
-119.20625000000001
20
6.5001463970452198
10
-119.20625000000001
20
-6.4998536029547704
42
-0.4142135623730846
0
LWPOLYLINE
5
128
100
AcDbEntity
8
0
100
AcDbPolyline
90
8
70
1
43
0.0
10
-122.08750000000002
20
12.050146397045193
42
0.41421356237309503
10
-121.58750000000001
20
12.5501463970452
10
-121.58750000000001
20
25.550146397045307
42
0.41421356237311846
10
-122.08750000000003
20
26.05014639704531
10
-135.08750000000001
20
26.050146397045207
42
0.41421356237307161
10
-135.58750000000001
20
25.550146397045204
10
-135.58750000000001
20
12.5501463970452
42
0.41421356237307549
10
-135.08750000000001
20
12.050146397045189
0
LWPOLYLINE
5
129
100
AcDbEntity
8
0
100
AcDbPolyline
90
8
70
1
43
0.0
10
12.550000000000001
20
45.10014639704562
42
0.41421356237303908
10
12.050000000000001
20
44.600146397045492
10
12.050000000000004
20
31.600146397045307
42
0.41421356237303519
10
12.550000000000008
20
31.100146397045201
10
25.550000000000001
20
31.100146397045325
42
0.41421356237285312
10
26.050000000000004
20
31.600146397045307
10
26.050000000000004
20
44.600146397046004
42
0.41421356237304302
10
25.549999999999997
20
45.100146397045499
0
LWPOLYLINE
5
130
100
AcDbEntity
8
0
100
AcDbPolyline
90
8
70
1
43
0.0
10
2.5250000005933271
20
12.550146396452
42
0.41421356237307616
10
3.0250000005933408
20
12.050146396451957
10
16.025000000593302
20
12.050146396452046
42
0.41421356237315227
10
16.525000000593302
20
12.550146396452
10
16.525000000593387
20
25.5501463964519
42
0.41421356237315227
10
16.025000000593302
20
26.050146396451996
10
3.0250000005933408
20
26.050146396451925
42
0.41421356237309115
10
2.5250000005933337
20
25.5501463964519
0
LWPOLYLINE
5
131
100
AcDbEntity
8
0
100
AcDbPolyline
90
8
70
1
43
0.0
10
49.862500000593364
20
-12.549853603548105
10
49.86250000059335
20
-25.549853603548005
42
-0.41421356237299095
10
49.362500000593307
20
-26.049853603547852
10
36.362500000593286
20
-26.049853603548009
42
-0.41421356237314966
10
35.862500000593229
20
-25.549853603548101
10
35.862500000593293
20
-12.549853603547998
42
-0.41421356237303519
10
36.362500000593293
20
-12.049853603548099
10
49.362500000593307
20
-12.049853603548099
42
-0.41421356237314577
0
LWPOLYLINE
5
132
100
AcDbEntity
8
0
100
AcDbPolyline
90
8
70
1
43
0.0
10
87.962500000593508
20
-12.5498536035479
10
87.962500000593394
20
-25.549853603548101
42
-0.41421356237318346
10
87.462500000593394
20
-26.049853603548087
10
74.462500000593394
20
-26.049853603547838
42
-0.41421356237308721
10
73.962500000593366
20
-25.549853603548005
10
73.962500000593508
20
-12.549853603547803
42
-0.41421356237321472
10
74.462500000593394
20
-12.049853603548053
10
87.462500000593323
20
-12.049853603547815
42
-0.41421356237305729
0
LWPOLYLINE
5
133
100
AcDbEntity
8
0
100
AcDbPolyline
90
8
70
1
43
0.0
10
35.075000000593299
20
12.050146396451993
10
22.075000000593299
20
12.050146396452012
42
-0.41421356237308854
10
21.57500000059331
20
12.550146396452
10
21.575000000593398
20
25.550146396452007
42
-0.41421356237309764
10
22.075000000593295
20
26.050146396451908
10
35.075000000593292
20
26.050146396452014
42
-0.41421356237310025
10
35.575000000593207
20
25.5501463964519
10
35.575000000593306
20
12.550146396452
42
-0.41421356237308854
0
LWPOLYLINE
5
134
100
AcDbEntity
8
0
100
AcDbPolyline
90
8
70
1
43
0.0
10
-107.01249999940705
20
-6.4998536035480292
10
-107.01249999940703
20
6.5001463964519957
42
-0.41421356237312951
10
-106.51249999940703
20
7.0001463964519859
10
-93.512499999406714
20
7.0001463964519779
42
-0.41421356237313212
10
-93.012499999406714
20
6.5001463964519788
10
-93.012499999406685
20
-6.4998536035480914
42
-0.41421356237308005
10
-93.5124999994067
20
-6.9998536035480292
10
-106.51249999940704
20
-6.9998536035480754
42
-0.41421356237307616
0
LWPOLYLINE
5
135
100
AcDbEntity
8
0
100
AcDbPolyline
90
8
70
1
43
0.0
10
-111.774999999407
20
12.550146396452
42
0.41421356237308982
10
-111.27499999940703
20
12.050146396452002
10
-98.274999999406816
20
12.050146396451964
42
0.41421356237310936
10
-97.774999999406745
20
12.550146396452
10
-97.774999999406731
20
25.550146396452007
42
0.4142135623730378
10
-98.274999999406717
20
26.0501463964519
10
-111.27499999940703
20
26.050146396452014
42
0.41421356237308982
10
-111.77499999940702
20
25.550146396452007
0
LWPOLYLINE
5
136
100
AcDbEntity
8
0
100
AcDbPolyline
90
8
70
1
43
0.0
10
-102.25000000000001
20
31.600146397045204
42
0.41421356237306123
10
-101.75
20
31.10014639704529
10
-88.75
20
31.100146397045219
42
0.41421356237311324
10
-88.250000000000014
20
31.600146397045204
10
-88.250000000000028
20
44.600146397045215
42
0.41421356237316787
10
-88.750000000000014
20
45.1001463970453
10
-101.75
20
45.1001463970453
42
0.41421356237314189
10
-102.25000000000003
20
44.600146397045215
0
LWPOLYLINE
5
137
100
AcDbEntity
8
0
100
AcDbPolyline
90
8
70
1
43
0.0
10
-83.487499999406708
20
-12.549853603548
42
0.41421356237309503
10
-83.987499999406779
20
-12.049853603548099
10
-96.987499999406737
20
-12.049853603548028
42
0.41421356237307683
10
-97.487499999406722
20
-12.549853603547998
10
-97.487499999406694
20
-25.549853603548005
42
0.41421356237307161
10
-96.987499999406822
20
-26.049853603548119
10
-83.987499999406694
20
-26.049853603548073
42
0.41421356237315488
10
-83.487499999406737
20
-25.549853603548005
0
LWPOLYLINE
5
138
100
AcDbEntity
8
0
100
AcDbPolyline
90
8
70
1
43
0.0
10
97.775000000593352
20
12.550146396452
42
0.4142135623731783
10
98.275000000593423
20
12.050146396451904
10
111.275000000593
20
12.050146396451824
42
0.41421356237310936
10
111.775000000593
20
12.550146396452204
10
111.77500000059318
20
25.550146396451602
42
0.41421356237335255
10
111.275000000593
20
26.050146396452192
10
98.275000000593423
20
26.050146396451783
42
0.41421356237298318
10
97.775000000593337
20
25.550146396452007
0
LWPOLYLINE
5
139
100
AcDbEntity
8
0
100
AcDbPolyline
90
8
70
1
43
0.0
10
83.200000000000003
20
44.600146397044
42
0.41421356237325113
10
82.700000000000017
20
45.100146397044782
10
69.700000000000003
20
45.100146397044085
42
0.41421356237298579
10
69.200000000000031
20
44.600146397045101
10
69.200000000000003
20
31.600146397045002
42
0.41421356237298057
10
69.700000000000003
20
31.10014639704481
10
82.700000000000017
20
31.100146397045172
42
0.4142135623729884
10
83.200000000000045
20
31.600146397044803
0
LWPOLYLINE
5
140
100
AcDbEntity
8
0
100
AcDbPolyline
90
8
70
1
43
0.0
10
88.75
20
45.100146397044789
10
101.75
20
45.100146397045073
42
-0.41421356237306384
10
102.24999999999996
20
44.600146397045101
10
102.25000000000001
20
31.600146397044906
42
-0.4142135623728479
10
101.75
20
31.100146397045396
10
88.75
20
31.100146397045492
42
-0.41421356237316265
10
88.249999999999901
20
31.600146397045101
10
88.249999999999886
20
44.600146397046309
42
-0.41421356237301699
0
LWPOLYLINE
5
141
100
AcDbEntity
8
0
100
AcDbPolyline
90
8
70
1
43
0.0
10
92.725000000593212
20
25.550146396452007
42
0.41421356237308204
10
92.225000000593241
20
26.050146396452099
10
79.225000000593184
20
26.050146396451911
42
0.41421356237290252
10
78.725000000593312
20
25.5501463964519
10
78.725000000593312
20
12.550146396451902
42
0.41421356237310153
10
79.225000000593184
20
12.050146396452002
10
92.225000000593496
20
12.050146396452037
42
0.41421356237317047
10
92.725000000593511
20
12.550146396452
0
LWPOLYLINE
5
142
100
AcDbEntity
8
0
100
AcDbPolyline
90
8
70
1
43
0.0
10
60.175000000593393
20
26.050146396451737
10
73.1750000005934
20
26.0501463964519
42
-0.41421356237316787
10
73.6750000005934
20
25.550146396451801
10
73.6750000005934
20
12.550146396452
42
-0.41421356237309243
10
73.1750000005934
20
12.050146396451799
10
60.175000000593393
20
12.050146396451652
42
-0.41421356237313928
10
59.675000000593251
20
12.550146396451902
10
59.6750000005933
20
25.550146396452298
42
-0.41421356237314705
0
LWPOLYLINE
5
143
100
AcDbEntity
8
0
100
AcDbPolyline
90
8
70
1
43
0.0
10
31.600000000000001
20
45.100146397043702
10
44.600000000000001
20
45.100146397045677
42
-0.41421356237315748
10
45.099999999999966
20
44.600146397044611
10
45.099999999999973
20
31.600146397045002
42
-0.41421356237309764
10
44.600000000000009
20
31.100146397045037
10
31.600000000000001
20
31.100146397045215
42
-0.4142135623730846
10
31.100000000000012
20
31.600146397045204
10
31.100000000000012
20
44.600146397045691
42
-0.41421356237310025
0
LWPOLYLINE
5
144
100
AcDbEntity
8
0
100
AcDbPolyline
90
8
70
1
43
0.0
10
-121.30000000000001
20
31.600146397045307
10
-121.30000000000001
20
44.600146397045215
42
-0.414213562373069
10
-120.80000000000001
20
45.100146397045229
10
-107.80000000000003
20
45.100146397045307
42
-0.41421356237313667
10
-107.30000000000001
20
44.600146397045215
10
-107.30000000000001
20
31.600146397045204
42
-0.41421356237310802
10
-107.80000000000001
20
31.100146397045208
10
-120.8
20
31.100146397045286
42
-0.41421356237312362
0
LWPOLYLINE
5
145
100
AcDbEntity
8
0
100
AcDbPolyline
90
8
70
1
43
0.0
10
-64.149999999999906
20
31.600146397045307
10
-64.149999999999906
20
44.600146397045101
42
-0.41421356237315227
10
-63.649999999999913
20
45.100146397045442
10
-50.650000000000013
20
45.100146397045002
42
-0.41421356237297535
10
-50.150000000000041
20
44.600146397045002
10
-50.14999999999997
20
31.600146397045307
42
-0.41421356237316526
10
-50.650000000000013
20
31.100146397045162
10
-63.649999999999913
20
31.100146397045208
42
-0.41421356237315748
0
LWPOLYLINE
5
146
100
AcDbEntity
8
0
100
AcDbPolyline
90
8
70
1
43
0.0
10
68.912500000593326
20
-12.549853603548101
42
0.41421356237307683
10
68.412500000593312
20
-12.049853603548302
10
55.412500000593397
20
-12.049853603548012
42
0.41421356237303131
10
54.91250000059339
20
-12.549853603548105
10
54.912500000593305
20
-25.549853603548101
42
0.4142135623730534
10
55.412500000593212
20
-26.049853603547906
10
68.412500000593397
20
-26.049853603548058
42
0.4142135623730222
10
68.912500000593411
20
-25.549853603548005
0
LWPOLYLINE
5
147
100
AcDbEntity
8
0
100
AcDbPolyline
90
8
70
1
43
0.0
10
-87.462499999406717
20
7.0001463964519495
10
-74.462499999406702
20
7.0001463964519886
42
-0.41421356237311258
10
-73.962499999406702
20
6.5001463964519601
10
-73.962499999406717
20
-6.4998536035480292
42
-0.41421356237318541
10
-74.462499999406702
20
-6.9998536035480328
10
-87.462499999406717
20
-6.9998536035480399
42
-0.41421356237304563
10
-87.962499999406617
20
-6.4998536035480106
10
-87.962499999406702
20
6.5001463964519779
42
-0.4142135623731269
0
LWPOLYLINE
5
148
100
AcDbEntity
8
0
100
AcDbPolyline
90
8
70
1
43
0.0
10
54.62500000059336
20
25.5501463964519
42
0.41421356237302737
10
54.125000000593396
20
26.05014639645157
10
41.125000000593303
20
26.050146396451879
42
0.41421356237309503
10
40.625000000593317
20
25.550146396452096
10
40.625000000593332
20
12.550146396451902
42
0.41421356237309631
10
41.125000000593303
20
12.050146396451931
10
54.125000000593396
20
12.050146396451796
42
0.41421356237296625
10
54.625000000593396
20
12.550146396452
0
LWPOLYLINE
5
149
100
AcDbEntity
8
0
100
AcDbPolyline
90
8
70
1
43
0.0
10
-68.412499999406705
20
7.0001463964519868
42
0.41421356237309631
10
-68.912499999406819
20
6.5001463964518891
10
-68.912499999406805
20
-6.4998536035480603
42
0.41421356237314577
10
-68.412499999406805
20
-6.999853603548063
10
-55.412499999406712
20
-6.9998536035479688
42
0.41421356237313861
10
-54.91249999940662
20
-6.4998536035480114
10
-54.912499999406712
20
6.5001463964519797
42
0.41421356237311258
10
-55.412499999406712
20
7.0001463964520116
0
LWPOLYLINE
5
150
100
AcDbEntity
8
0
100
AcDbPolyline
90
8
70
1
43
0.0
10
-17.3124999994067
20
-6.9998536035480772
42
0.41421356237312168
10
-16.8124999994067
20
-6.499853603548031
10
-16.812499999406686
20
6.5001463964519797
42
0.41421356237307549
10
-17.312499999406707
20
7.0001463964519495
10
-30.312499999406704
20
7.0001463964519841
42
0.41421356237305273
10
-30.812499999406704
20
6.5001463964519068
10
-30.812499999406672
20
-6.4998536035480603
42
0.41421356237310281
10
-30.312499999406697
20
-6.9998536035480363
0
LWPOLYLINE
5
151
100
AcDbEntity
8
0
100
AcDbPolyline
90
8
70
1
43
0.0
10
-1.7374999994066442
20
-12.049853603548115
10
11.26250000059331
20
-12.04985360354816
42
-0.41421356237302737
10
11.762500000593349
20
-12.549853603548101
10
11.762500000593398
20
-25.549853603548005
42
-0.41421356237315354
10
11.262500000593301
20
-26.049853603548002
10
-1.7374999994066442
20
-26.049853603548101
42
-0.41421356237309698
10
-2.2374999994067437
20
-25.549853603548005
10
-2.2374999994067504
20
-12.549853603547998
42
-0.41421356237310109
0
LWPOLYLINE
5
152
100
AcDbEntity
8
0
100
AcDbPolyline
90
8
70
1
43
0.0
10
-26.337499999406724
20
-12.549853603548105
10
-26.337499999406731
20
-25.549853603548005
42
-0.41421356237304302
10
-26.837499999406695
20
-26.049853603548073
10
-39.837499999406702
20
-26.049853603548101
42
-0.41421356237304302
10
-40.337499999406759
20
-25.549853603548101
10
-40.337499999406702
20
-12.549853603547998
42
-0.41421356237310153
10
-39.837499999406702
20
-12.049853603548009
10
-26.837499999406695
20
-12.049853603548094
42
-0.41421356237302998
0
LWPOLYLINE
5
153
100
AcDbEntity
8
0
100
AcDbPolyline
90
8
70
1
43
0.0
10
-40.62499999940664
20
25.5501463964519
10
-40.62499999940669
20
12.550146396451902
42
-0.4142135623730846
10
-41.124999999406697
20
12.050146396451913
10
-54.124999999406697
20
12.05014639645203
42
-0.41421356237315615
10
-54.624999999406789
20
12.550146396452
10
-54.62499999940669
20
25.550146396452007
42
-0.41421356237316009
10
-54.124999999406704
20
26.050146396451964
10
-41.124999999406683
20
26.050146396452007
42
-0.41421356237314189
0
LWPOLYLINE
5
154
100
AcDbEntity
8
0
100
AcDbPolyline
90
8
70
1
43
0.0
10
-20.787499999406695
20
-12.049853603548115
42
0.41421356237309503
10
-21.287499999406691
20
-12.549853603548101
10
-21.287499999406705
20
-25.549853603548005
42
0.41421356237309503
10
-20.787499999406691
20
-26.049853603548012
10
-7.7874999994066707
20
-26.049853603548002
42
0.41421356237304818
10
-7.2874999994066592
20
-25.549853603548101
10
-7.2874999994066849
20
-12.549853603548
42
0.41421356237303197
10
-7.7874999994067018
20
-12.04985360354808
0
LWPOLYLINE
5
155
100
AcDbEntity
8
0
100
AcDbPolyline
90
8
70
1
43
0.0
10
-2.5249999994068233
20
25.5501463964519
42
0.41421356237306611
10
-3.0249999994067589
20
26.050146396452082
10
-16.024999999406699
20
26.050146396451904
42
0.41421356237309115
10
-16.524999999406713
20
25.5501463964519
10
-16.524999999406724
20
12.550146396452
42
0.41421356237309115
10
-16.024999999406706
20
12.050146396451975
10
-3.0249999994067602
20
12.050146396451895
42
0.41421356237317797
10
-2.5249999994068162
20
12.550146396451902
0
LWPOLYLINE
5
156
100
AcDbEntity
8
0
100
AcDbPolyline
90
8
70
1
43
0.0
10
16.812500000593349
20
-25.549853603548016
42
0.41421356237321472
10
17.312500000593399
20
-26.049853603548058
10
30.312500000593303
20
-26.049853603548048
42
0.41421356237296497
10
30.812500000593353
20
-25.549853603548005
10
30.812500000593303
20
-12.549853603548202
42
0.41421356237316009
10
30.312500000593303
20
-12.049853603548097
10
17.312500000593399
20
-12.049853603548204
42
0.41421356237315227
10
16.812500000593403
20
-12.549853603548105
0
LWPOLYLINE
5
157
100
AcDbEntity
8
0
100
AcDbPolyline
90
8
70
1
43
0.0
10
-49.362499999406708
20
7.0001463964519228
10
-36.362499999406722
20
7.0001463964519663
42
-0.41421356237309825
10
-35.862499999406708
20
6.5001463964519797
10
-35.862499999406722
20
-6.4998536035480292
42
-0.41421356237308138
10
-36.362499999406708
20
-6.999853603547991
10
-49.362499999406708
20
-6.9998536035480283
42
-0.4142135623731607
10
-49.862499999406744
20
-6.4998536035480603
10
-49.862499999406744
20
6.5001463964519779
42
-0.41421356237303325
0
LWPOLYLINE
5
158
100
AcDbEntity
8
0
100
AcDbPolyline
90
8
70
1
43
0.0
10
-22.0749999994067
20
12.050146396451957
42
0.41421356237309764
10
-21.574999999406653
20
12.550146396452
10
-21.5749999994067
20
25.550146396452007
42
0.41421356237315748
10
-22.07499999940671
20
26.050146396451904
10
-35.0749999994067
20
26.050146396452032
42
0.41421356237309243
10
-35.574999999406707
20
25.550146396452007
10
-35.574999999406685
20
12.550146396452
42
0.41421356237309892
10
-35.0749999994067
20
12.050146396452002
0
LWPOLYLINE
5
159
100
AcDbEntity
8
0
100
AcDbPolyline
90
8
70
1
43
0.0
10
-6.9999999999999929
20
31.600146397045204
10
-6.9999999999999982
20
44.600146397046004
42
-0.41421356237299811
10
-6.4999999999999698
20
45.100146397045613
10
6.5000000000000036
20
45.100146397045286
42
-0.41421356237305795
10
7.0000000000000098
20
44.600146397044398
10
7.0000000000000018
20
31.600146397045101
42
-0.41421356237311258
10
6.5
20
31.10014639704513
10
-6.5000000000000036
20
31.100146397045016
42
-0.4142135623731022
0
LWPOLYLINE
5
160
100
AcDbEntity
8
0
100
AcDbPolyline
90
8
70
1
43
0.0
10
-12.050000000000036
20
44.600146397045222
10
-12.050000000000038
20
31.600146397045307
42
-0.41421356237304563
10
-12.550000000000001
20
31.10014639704524
10
-25.549999999999997
20
31.100146397045201
42
-0.4142135623730378
10
-26.049999999999986
20
31.600146397045307
10
-26.050000000000001
20
44.600146397045606
42
-0.41421356237309503
10
-25.550000000000001
20
45.100146397045428
10
-12.550000000000008
20
45.100146397045506
42
-0.41421356237311324
0
LWPOLYLINE
5
161
100
AcDbEntity
8
0
100
AcDbPolyline
90
8
70
1
43
0.0
10
21.287500000593301
20
6.5001463964519512
42
0.41421356237309503
10
20.787500000593401
20
7.0001463964518695
10
7.7875000005933606
20
7.0001463964519806
42
0.41421356237308204
10
7.2875000005933543
20
6.5001463964518891
10
7.2875000005933508
20
-6.4998536035480292
42
0.41421356237308526
10
7.7875000005933437
20
-6.9998536035480008
10
20.787500000593401
20
-6.999853603548063
42
0.4142135623730287
10
21.287500000593298
20
-6.4998536035480292
0
LWPOLYLINE
5
162
100
AcDbEntity
8
0
100
AcDbPolyline
90
8
70
1
43
0.0
10
-58.887499999406607
20
-12.049853603547991
10
-45.887499999406685
20
-12.049853603547994
42
-0.4142135623730937
10
-45.3874999994067
20
-12.549853603548
10
-45.387499999406799
20
-25.549853603548101
42
-0.41421356237308204
10
-45.887499999406685
20
-26.049853603548009
10
-58.887499999406714
20
-26.049853603548101
42
-0.41421356237316787
10
-59.3874999994067
20
-25.549853603548005
10
-59.387499999406614
20
-12.549853603547998
42
-0.41421356237310281
0
LWPOLYLINE
5
163
100
AcDbEntity
8
0
100
AcDbPolyline
90
8
70
1
43
0.0
10
50.150000000000041
20
31.600146397045307
42
0.41421356237326934
10
50.650000000000013
20
31.100146397045449
10
63.650000000000105
20
31.100146397045449
42
0.41421356237292856
10
64.150000000000048
20
31.600146397045307
10
64.150000000000006
20
44.600146397045314
42
0.41421356237315748
10
63.650000000000105
20
45.100146397044114
10
50.650000000000013
20
45.100146397045783
42
0.41421356237295975
10
50.150000000000112
20
44.600146397044107
0
LWPOLYLINE
5
164
100
AcDbEntity
8
0
100
AcDbPolyline
90
8
70
1
43
0.0
10
122.08750000000002
20
26.050146397045701
42
0.41421356237311063
10
121.58749999999982
20
25.550146397045506
10
121.58750000000001
20
12.550146397045101
42
0.41421356237301438
10
122.08750000000002
20
12.050146397045189
10
135.08750000000001
20
12.050146397044909
42
0.41421356237314444
10
135.5875000000002
20
12.550146397045197
10
135.58750000000018
20
25.550146397045101
42
0.41421356237311063
10
135.08750000000001
20
26.05014639704525
0
LWPOLYLINE
5
165
100
AcDbEntity
8
0
100
AcDbPolyline
90
8
70
1
43
0.0
10
-11.262499999406703
20
7.0001463964519317
10
1.7375000005933394
20
7.0001463964519219
42
-0.41421356237307161
10
2.2375000005933456
20
6.5001463964519113
10
2.2375000005933514
20
-6.4998536035480114
42
-0.41421356237306023
10
1.7375000005933305
20
-6.9998536035480319
10
-11.262499999406703
20
-6.9998536035479288
42
-0.41421356237305273
10
-11.762499999406693
20
-6.4998536035480114
10
-11.762499999406707
20
6.5001463964518891
42
-0.4142135623731113
0
LWPOLYLINE
5
166
100
AcDbEntity
8
0
100
AcDbPolyline
90
8
70
1
43
0.0
10
-73.962499999999935
20
-31.599853602954795
10
-73.96250000000002
20
-44.599853602954802
42
-0.4142135623730222
10
-74.462499999999906
20
-45.099853602954802
10
-87.462500000000034
20
-45.099853602954809
42
-0.41421356237304818
10
-87.96249999999992
20
-44.599853602954703
10
-87.962500000000006
20
-31.599853602954795
42
-0.41421356237306639
10
-87.462499999999906
20
-31.099853602954752
10
-74.462499999999906
20
-31.099853602954703
42
-0.41421356237315488
0
LWPOLYLINE
5
167
100
AcDbEntity
8
0
100
AcDbPolyline
90
8
70
1
43
0.0
10
-98.27500000000002
20
-45.099853602954809
10
-111.27499999999998
20
-45.099853602954724
42
-0.41421356237311063
10
-111.77500000000002
20
-44.599853602954703
10
-111.77500000000002
20
-31.599853602954706
42
-0.41421356237309243
10
-111.27500000000001
20
-31.099853602954703
10
-98.27500000000002
20
-31.099853602954809
42
-0.41421356237312884
10
-97.77500000000002
20
-31.599853602954802
10
-97.775000000000034
20
-44.599853602954802
42
-0.414213562373069
0
LWPOLYLINE
5
168
100
AcDbEntity
8
0
100
AcDbPolyline
90
8
70
1
43
0.0
10
140.35000000000008
20
-12.549853602954704
42
0.41421356237304952
10
139.84999999999999
20
-12.049853602954723
10
126.85000000000009
20
-12.049853602954794
42
0.41421356237310025
10
126.35000000000008
20
-12.549853602954775
10
126.35000000000005
20
-25.549853602954364
42
0.41421356237308982
10
126.85000000000004
20
-26.049853602954371
10
139.84999999999999
20
-26.049853602954947
42
0.41421356237310025
10
140.35000000000002
20
-25.549853602954897
0
LWPOLYLINE
5
169
100
AcDbEntity
8
0
100
AcDbPolyline
90
8
70
1
43
0.0
10
114.15625
20
-12.549853602954785
42
0.41421356237310281
10
113.65625000000001
20
-12.049853602954776
10
100.65625
20
-12.04985360295488
42
0.41421356237312362
10
100.15625
20
-12.549853602954899
10
100.15625000000016
20
-25.549853602954805
42
0.41421356237300139
10
100.65625
20
-26.049853602954531
10
113.65625000000001
20
-26.049853602958024
42
0.41421356237311063
10
114.15625000000334
20
-25.549853602954666
0
LWPOLYLINE
5
170
100
AcDbEntity
8
0
100
AcDbPolyline
90
8
70
1
43
0.0
10
139.84999999999999
20
31.100146397045538
42
0.41421356237285828
10
140.34999999999962
20
31.600146397044803
10
140.34999999999985
20
44.600146397044497
42
0.4142135623730846
10
139.84999999999997
20
45.100146397046359
10
126.84999999999988
20
45.100146397046821
42
0.41421356237308982
10
126.34999999999988
20
44.600146397046821
10
126.34999999999988
20
31.600146397043218
42
0.41421356237314444
10
126.84999999999997
20
31.100146397043211
0
LWPOLYLINE
5
171
100
AcDbEntity
8
0
100
AcDbPolyline
90
20
70
1
43
0.0
10
-93.903352322074682
20
47.978551381638013
42
0.23370471187810732
10
-94.241967603567005
20
48.083689276095292
42
-0.039548659664733962
10
-94.304949313339037
20
48.078699787644332
10
-119.19939187537986
20
48.078699787644332
10
-119.24906491824069
20
48.081796035063249
42
-0.93960824022892764
10
-119.19939187537985
20
48.878699787644173
10
-93.819475307624685
20
48.878699787644251
42
-0.22956876562131706
10
-93.505490424449903
20
48.726517246951069
42
0.22956876561857775
10
-92.249550891734273
20
48.117787084177394
10
-83.449550891749965
20
48.117787084170971
42
0.22956876561992839
10
-82.193611359034435
20
48.726517246957712
42
-0.2295687656230343
10
-81.879626475860988
20
48.878699787659244
10
-56.499709908125979
20
48.878699787658952
42
-0.92616814640569789
10
-56.438650055946766
20
48.083387639554402
10
-56.499709908126547
20
48.078699787675028
10
-81.394152470167938
20
48.078699787676186
42
-0.039548659649801463
10
-81.457134179920303
20
48.083689276123103
42
0.23370471186935049
10
-81.795749461399012
20
47.978551381660203
42
-0.19237795889568182
10
-83.449550891745972
20
47.317787084188183
10
-92.249550891734287
20
47.31778708418819
42
-0.19237795889328446
0
LWPOLYLINE
5
172
100
AcDbEntity
8
0
100
AcDbPolyline
90
20
70
1
43
0.0
10
-117.86756435416899
20
-48.078406993542835
10
-92.973121792129035
20
-48.078406993542806
42
-0.039548659653657739
10
-92.910140082375733
20
-48.083396481990626
42
0.2337047118691738
10
-92.57152480089708
20
-47.978258587527158
42
-0.19237795889521497
10
-90.917723370550959
20
-47.31749429005599
10
-82.117723370563226
20
-47.317494290055947
42
-0.19237795889286513
10
-80.463921940221695
20
-47.978258587504683
42
0.23370471187736322
10
-80.125306658728803
20
-48.08339648196192
42
-0.039548659664595191
10
-80.062324948956771
20
-48.078406993511003
10
-55.167882386916531
20
-48.078406993511003
10
-55.080941762081878
20
-48.087969639056347
42
-0.89604024178512587
10
-55.167882386916531
20
-48.878406993533012
10
-80.54779895467172
20
-48.878406993532899
42
-0.2295687656210576
10
-80.861783837847057
20
-48.726224452839908
42
0.22956876562061146
10
-82.117723370563226
20
-48.117494290059959
10
-90.917723370546128
20
-48.117494290060101
42
0.22956876562212342
10
-92.173662903256556
20
-48.726224452850815
42
-0.22956876562361445
10
-92.487647786435161
20
-48.878406993547792
10
-117.86756435416899
20
-48.878406993547792
42
-0.89604024179658348
10
-117.95450497899195
20
-48.08796963908577
0
LWPOLYLINE
5
173
100
AcDbEntity
8
0
100
AcDbPolyline
90
20
70
1
43
0.0
10
82.117723370562814
20
-48.117494290079712
42
0.2295687656203006
10
80.861783837847184
20
-48.72622445285981
42
-0.22956876562003076
10
80.547798954670981
20
-48.8784069935529
10
55.167882386917242
20
-48.878406993552908
42
-0.89604024179118658
10
55.08094176208904
20
-48.087969639086872
10
55.167882386917242
20
-48.078406993542835
10
80.062324948957183
20
-48.078406993542828
42
-0.039548659664352788
10
80.125306658728903
20
-48.083396481993752
42
0.23370471187790159
10
80.463921940223628
20
-47.978258587538079
42
-0.19237795889354592
10
82.117723370562814
20
-47.317494290086692
10
90.91772337055113
20
-47.317494290084106
42
-0.19237795889581377
10
92.571524800897222
20
-47.978258587557832
42
0.23370471186880851
10
92.910140082375904
20
-48.083396482021968
42
-0.03954865965307796
10
92.973121792129149
20
-48.07840699357353
10
117.86756435416912
20
-48.078406993573246
10
117.95450497898599
20
-48.087969639115002
42
-0.89604024180208353
10
117.86756435416912
20
-48.878406993566834
10
92.487647786434962
20
-48.878406993566408
42
-0.22956876562398285
10
92.173662903257082
20
-48.726224452870603
42
0.22956876562188883
10
90.917723370545716
20
-48.117494290079605
0
LWPOLYLINE
5
174
100
AcDbEntity
8
0
100
AcDbPolyline
90
20
70
1
43
0.0
10
92.249550891733833
20
47.317787084144982
10
83.449550891745261
20
47.317787084147028
42
-0.19237795889499448
10
81.795749461398586
20
47.978551381618395
42
0.23370471186972869
10
81.457134179919919
20
48.083689276081081
42
-0.039548659654697643
10
81.394152470168066
20
48.078699787633248
10
56.499709908128111
20
48.078699787632964
10
56.422891662053175
20
48.086145387492046
42
-0.90776134899868688
10
56.499709908128111
20
48.878699787639064
10
81.879626475861102
20
48.878699787638922
42
-0.22956876562344825
10
82.193611359039878
20
48.726517246941974
42
0.22956876562162315
10
83.449550891750093
20
48.117787084151189
10
92.249550891733833
20
48.11778708415136
42
0.22956876562062634
10
93.505490424449903
20
48.726517246931287
42
-0.22956876562121703
10
93.819475307624799
20
48.878699787624285
10
119.19939187537913
20
48.878699787624299
42
-0.90776134898975658
10
119.27621012146329
20
48.086145387462977
10
119.19939187537913
20
48.078699787602268
10
94.304949313340316
20
48.078699787602297
42
-0.039548659663666372
10
94.241967603567488
20
48.083689276053185
42
0.23370471187720646
10
93.903352322076202
20
47.978551381593661
42
-0.19237795889276624
0
ENDSEC
0
SECTION
2
OBJECTS
0
DICTIONARY
5
C
100
AcDbDictionary
3
ACAD_GROUP
350
D
3
ACAD_MLINESTYLE
350
17
0
DICTIONARY
5
D
100
AcDbDictionary
0
DICTIONARY
5
1A
330
C
100
AcDbDictionary
0
DICTIONARY
5
17
100
AcDbDictionary
0
ENDSEC
0
EOF
