0
SECTION
2
HEADER
9
$INSUNITS
70
4
9
$ACADVER
1
AC1014
9
$HANDSEED
5
FFFF
0
ENDSEC
0
SECTION
2
TABLES
0
TABLE
2
VPORT
5
8
100
AcDbSymbolTable
0
ENDTAB
0
TABLE
2
LTYPE
5
5
100
AcDbSymbolTable
0
LTYPE
5
14
100
AcDbSymbolTableRecord
100
AcDbLinetypeTableRecord
2
BYBLOCK
70
0
0
LTYPE
5
15
100
AcDbSymbolTableRecord
100
AcDbLinetypeTableRecord
2
BYLAYER
70
0
0
LTYPE
5
16
100
AcDbSymbolTableRecord
100
AcDbLinetypeTableRecord
2
DASHED
70
0
3
Dashed __ __ __ __ __ __ __ __ __ __ __ __ __ _
72
65
73
2
40
0.75
49
0.5
74
0
49
-0.25
74
0
0
ENDTAB
0
TABLE
2
LAYER
5
2
100
AcDbSymbolTable
70
2
0
LAYER
5
50
100
AcDbSymbolTableRecord
100
AcDbLayerTableRecord
2
0
70
0
62
7
6
CONTINUOUS
0
ENDTAB
0
TABLE
2
STYLE
5
3
100
AcDbSymbolTable
70
1
0
STYLE
5
11
100
AcDbSymbolTableRecord
100
AcDbTextStyleTableRecord
2
STANDARD
70
0
0
ENDTAB
0
TABLE
2
VIEW
5
6
100
AcDbSymbolTable
70
0
0
ENDTAB
0
TABLE
2
UCS
5
7
100
AcDbSymbolTable
70
0
0
ENDTAB
0
TABLE
2
APPID
5
9
100
AcDbSymbolTable
70
2
0
APPID
5
12
100
AcDbSymbolTableRecord
100
AcDbRegAppTableRecord
2
ACAD
70
0
0
ENDTAB
0
TABLE
2
DIMSTYLE
5
A
100
AcDbSymbolTable
70
1
0
ENDTAB
0
TABLE
2
BLOCK_RECORD
5
1
100
AcDbSymbolTable
70
1
0
BLOCK_RECORD
5
1F
100
AcDbSymbolTableRecord
100
AcDbBlockTableRecord
2
*MODEL_SPACE
0
BLOCK_RECORD
5
1B
100
AcDbSymbolTableRecord
100
AcDbBlockTableRecord
2
*PAPER_SPACE
0
ENDTAB
0
ENDSEC
0
SECTION
2
BLOCKS
0
BLOCK
5
20
100
AcDbEntity
100
AcDbBlockBegin
2
*MODEL_SPACE
0
ENDBLK
5
21
100
AcDbEntity
100
AcDbBlockEnd
0
BLOCK
5
1C
100
AcDbEntity
100
AcDbBlockBegin
2
*PAPER_SPACE
0
ENDBLK
5
1D
100
AcDbEntity
100
AcDbBlockEnd
0
ENDSEC
0
SECTION
2
ENTITIES
0
LWPOLYLINE
5
100
100
AcDbEntity
8
0
100
AcDbPolyline
90
88
70
1
43
0.0
10
-51.993244868254465
20
49.093775547116252
42
0.19891236737943568
10
-50.861874018357298
20
48.625146397015442
10
50.861874018357298
20
48.625146397014028
42
0.19891236737954007
10
51.993244868255097
20
49.093775547115911
10
54.298627255171112
20
51.399157934032331
42
-0.1989123673798931
10
55.429998105069551
20
51.867787084134427
10
80.596920526626263
20
51.867787084134143
42
0.28229128058145359
10
82.023235709187361
20
52.742787084137305
42
-0.28229128058177422
10
83.449550891739364
20
53.617787084133965
10
85.84955089177015
20
53.617787084134534
42
-0.41421356237409396
10
86.349550891770264
20
53.117787084134989
10
86.349550891769127
20
52.117787084120259
42
0.99999999999999989
10
89.349550891770946
20
52.117787084120238
10
89.349550891770377
20
53.117787084134989
42
-0.41421356237376622
10
89.849550891769354
20
53.617787084133973
10
92.24955089180186
20
53.617787084135109
42
-0.28229128058137809
10
93.675866074318051
20
52.742787084164611
42
0.28229128058128011
10
95.102181256875724
20
51.867787084164796
10
120.26910367846995
20
51.86778708416427
42
-0.19891236737976695
10
121.40047452836941
20
51.399157934063453
10
123.7058569152839
20
49.093775547146102
42
0.198912367379766
10
124.83722776518334
20
48.625146397045292
10
141.37497561112806
20
48.625146405923601
42
-0.41421348393988189
10
142.87497559780988
20
47.125146794287723
10
142.87500000000054
20
-47.124853214591404
42
-0.41421363820584495
10
141.3750000000006
20
-48.624853602955156
10
122.83568844088279
20
-48.624853602954943
42
0.19891236737889997
10
121.70431759098385
20
-49.093482753056605
10
119.39893520406829
20
-51.398865139973118
42
-0.19891236737976292
10
118.26756435416885
20
-51.867494290073921
10
93.77035373567081
20
-51.867494290074781
42
0.28229128058152342
10
92.344038553109741
20
-52.742494290078241
42
-0.28229128058197633
10
90.917723370557155
20
-53.617494290076024
10
88.517723370526937
20
-53.617494290075747
42
-0.41421356237239265
10
88.017723370526795
20
-53.117494290075626
10
88.017723370528529
20
-52.11749429006062
42
0.99999999999999989
10
85.017723370528984
20
-52.11749429006062
10
85.01772337052671
20
-53.117494290075626
42
-0.41421356237158619
10
84.517723370528898
20
-53.61749429007547
10
82.117723370497501
20
-53.617494290075612
42
-0.28229128058144737
10
80.691408187981096
20
-52.742494290103366
42
0.28229128058092867
10
79.265093005421349
20
-51.867494290105043
10
54.767882386917677
20
-51.867494290105036
42
-0.19891236738010928
10
53.636511537017661
20
-51.39886514000267
10
51.331129150103152
20
-49.093482753087024
42
0.19891236737977558
10
50.199758300202582
20
-48.624853602985638
10
-50.199758300202582
20
-48.624853602985922
42
0.198912367379771
10
-51.331129150101269
20
-49.09348275308691
10
-53.636511537017228
20
-51.398865140002563
42
-0.1989123673798153
10
-54.767882386915971
20
-51.867494290104617
10
-79.265093005419658
20
-51.867494290104901
42
0.28229128058145814
10
-80.691408187979533
20
-52.7424942901036
42
-0.28229128058193259
10
-82.117723370494673
20
-53.617494290075456
10
-84.517723370525999
20
-53.617494290075733
42
-0.41421356237243429
10
-85.017723370526141
20
-53.117494290075626
10
-85.017723370526141
20
-52.11749429006062
42
0.99999999999999989
10
-88.017723370526824
20
-52.117494290061174
10
-88.017723370526255
20
-53.117494290075626
42
-0.41421356237307944
10
-88.5177233705258
20
-53.617494290076309
10
-90.917723370556004
20
-53.617494290075982
42
-0.28229128058165942
10
-92.344038553108604
20
-52.742494290077964
42
0.28229128058184033
10
-93.770353735669687
20
-51.867494290074049
10
-118.26756435416884
20
-51.867494290074738
42
-0.19891236737980886
10
-119.39893520406771
20
-51.398865139973111
10
-121.70431759098392
20
-49.093482753056612
42
0.1989123673797259
10
-122.83568844088222
20
-48.624853602954943
10
-141.3750000000002
20
-48.624853602954175
42
-0.41421356237309853
10
-142.87499999999972
20
-47.124853602954637
10
-142.87499999999989
20
47.125146397045299
42
-0.41421356237309853
10
-141.37499999999986
20
48.62514639704527
10
-124.83722776518277
20
48.625146397045285
42
0.1989123673793613
10
-123.70585691528501
20
49.093775547145775
10
-121.40047452836832
20
51.399157934063524
42
-0.19891236737955459
10
-120.26910367846995
20
51.86778708416427
10
-95.102181256875724
20
51.867787084164263
42
0.28229128058126285
10
-93.675866074316104
20
52.742787084164526
42
-0.28229128058172293
10
-92.249550891800723
20
53.617787084135102
10
-89.849550891768786
20
53.617787084134818
42
-0.41421356237292856
10
-89.349550891769809
20
53.117787084134989
10
-89.349550891769809
20
52.117787084120259
42
0.99999999999999989
10
-86.349550891769127
20
52.11778708412141
10
-86.349550891769695
20
53.117787084134989
42
-0.41421356237344881
10
-85.849550891769582
20
53.617787084134534
10
-83.449550891739364
20
53.61778708413447
42
-0.28229128058171205
10
-82.023235709188498
20
52.742787084137326
42
0.28229128058209824
10
-80.596920526625695
20
51.867787084133568
10
-55.429998105070133
20
51.867787084134029
42
-0.19891236737944171
10
-54.298627255171816
20
51.399157934032182
0
LWPOLYLINE
5
101
100
AcDbEntity
8
0
100
AcDbPolyline
90
5
70
1
43
0.0
10
119.27621012148414
20
48.086145387533605
10
119.19939187541331
20
48.078699787675141
10
95.249550891769005
20
48.078699787667176
42
-0.99999999999999989
10
95.249550891769005
20
48.878699787658491
10
119.19939187541331
20
48.878699787658491
42
-0.90776134900087879
0
LWPOLYLINE
5
102
100
AcDbEntity
8
0
100
AcDbPolyline
90
5
70
1
43
0.0
10
56.49970990815973
20
48.87869978764428
42
0.90776134900260053
10
56.422891662087622
20
48.086145387502896
10
56.4997099081586
20
48.078699787644439
10
80.449550891776767
20
48.078699787652397
42
0.99999999999999989
10
80.449550891777903
20
48.878699787635185
0
LWPOLYLINE
5
103
100
AcDbEntity
8
0
100
AcDbPolyline
90
5
70
1
43
0.0
10
93.917723370518615
20
-48.07840699359275
10
117.86756435413736
20
-48.078406993583656
10
117.95450497895295
20
-48.087969639124992
42
-0.89604024180453501
10
117.86756435413736
20
-48.878406993584633
10
93.917723370518587
20
-48.878406993576107
42
-0.99999999999999989
0
LWPOLYLINE
5
104
100
AcDbEntity
8
0
100
AcDbPolyline
90
5
70
1
43
0.0
10
79.117723370528083
20
-48.878406993598844
10
55.167882386884905
20
-48.878406993598567
42
-0.89604024180328146
10
55.080941762070232
20
-48.087969639157116
10
55.167882386884905
20
-48.078406993615772
10
79.117723370528111
20
-48.078406993606393
42
-0.99999999999999989
0
LWPOLYLINE
5
105
100
AcDbEntity
8
0
100
AcDbPolyline
90
5
70
1
43
0.0
10
-119.19939187537921
20
48.078699787643302
10
-119.27621012145664
20
48.086145387502903
42
-0.90776134899520766
10
-119.19939187537921
20
48.87869978764428
10
-95.24955089176045
20
48.878699787635185
42
-0.99999999999999989
10
-95.24955089176045
20
48.078699787652397
0
LWPOLYLINE
5
106
100
AcDbEntity
8
0
100
AcDbPolyline
90
5
70
1
43
0.0
10
-56.499709908126761
20
48.078699787675141
10
-80.449550891769377
20
48.078699787666039
42
-0.99999999999999989
10
-80.449550891769377
20
48.878699787658491
10
-56.499709908126761
20
48.878699787658491
42
-0.90776134900553218
10
-56.422891662059904
20
48.086145387532824
0
LWPOLYLINE
5
107
100
AcDbEntity
8
0
100
AcDbPolyline
90
5
70
1
43
0.0
10
-55.167882386915608
20
-48.078406993583371
10
-55.080941762095755
20
-48.087969639125781
42
-0.89604024179955022
10
-55.167882386916745
20
-48.878406993583781
10
-79.117723370534918
20
-48.878406993575538
42
-0.99999999999999989
10
-79.117723370533781
20
-48.078406993591614
0
LWPOLYLINE
5
108
100
AcDbEntity
8
0
100
AcDbPolyline
90
5
70
1
43
0.0
10
-117.8675643541692
20
-48.078406993615772
10
-93.917723370525437
20
-48.078406993606386
42
-0.99999999999999989
10
-93.917723370525437
20
-48.878406993598851
10
-117.8675643541692
20
-48.87840699359856
42
-0.89604024180865116
10
-117.95450497897926
20
-48.087969639156107
0
LWPOLYLINE
5
109
100
AcDbEntity
8
0
100
AcDbPolyline
90
12
70
1
43
0.0
10
-114.10924999999997
20
3.0001463970451514
42
0.41421356237303619
10
-113.60924999999996
20
2.5001463970452416
10
-111.10924999999996
20
2.500146397045246
42
-0.41421356237309731
10
-110.60924999999997
20
2.0001463970452527
10
-110.60925
20
-3.4998536029547456
42
0.41421356237309437
10
-110.10925
20
-3.9998536029547527
10
-109.60924999999996
20
-3.999853602954726
42
0.41421356237313145
10
-109.10924999999997
20
-3.4998536029547456
10
-109.10924999999997
20
2.0001463970452527
42
0.41421356237309559
10
-111.10924999999996
20
4.0001463970452455
10
-113.60924999999996
20
4.0001463970452686
42
0.41421356237306184
10
-114.10924999999997
20
3.5001463970452473
0
LWPOLYLINE
5
110
100
AcDbEntity
8
0
100
AcDbPolyline
90
12
70
1
43
0.0
10
-112.10925000000003
20
-2.9998536029547478
42
0.4142135623731012
10
-112.60925
20
-2.4998536029547584
10
-115.10925
20
-2.4998536029547154
42
-0.41421356237311163
10
-115.60924999999997
20
-1.9998536029547505
10
-115.60924999999997
20
3.5001463970452478
42
0.41421356237311552
10
-116.10924999999996
20
4.0001463970452367
10
-116.60925
20
4.0001463970452544
42
0.41421356237307422
10
-117.10925000000002
20
3.5001463970452473
10
-117.10925
20
-1.9998536029547509
42
0.4142135623730992
10
-115.10925
20
-3.9998536029547438
10
-112.60925
20
-3.999853602954742
42
0.41421356237312007
10
-112.10925000000002
20
-3.4998536029547456
0
LWPOLYLINE
5
111
100
AcDbEntity
8
0
100
AcDbPolyline
90
8
70
1
43
0.0
10
130.38174999999995
20
8.0001463970453823
10
136.38175000000015
20
8.0001463970453965
42
-0.41421356237309825
10
136.88175000000001
20
7.5001463970454907
10
136.88175000000001
20
-7.4998536029550333
42
-0.41421356237311391
10
136.38175000000001
20
-7.9998536029552048
10
130.38175000000001
20
-7.9998536029546674
42
-0.41421356237311063
10
129.8817500000003
20
-7.4998536029553797
10
129.88175000000001
20
7.5001463970454552
42
-0.41421356237307161
0
LWPOLYLINE
5
112
100
AcDbEntity
8
0
100
AcDbPolyline
90
8
70
1
43
0.0
10
106.50575000000015
20
8.0001463970453557
10
112.50574999999986
20
8.0001463970453486
42
-0.41421356237311391
10
113.00574999999998
20
7.5001463970452376
10
113.00575000000023
20
-7.4998536029547402
42
-0.41421356237310936
10
112.50575000000001
20
-7.9998536029549498
10
106.50575000000003
20
-7.9998536029548903
42
-0.41421356237310025
10
106.00574999999999
20
-7.4998536029548388
10
106.00575000000001
20
7.5001463970452331
42
-0.41421356237310802
0
LWPOLYLINE
5
113
100
AcDbEntity
8
0
100
AcDbPolyline
90
8
70
1
43
0.0
10
40.337500000593408
20
6.5001463964519797
42
0.4142135623731672
10
39.837500000593295
20
7.0001463964520427
10
26.837500000593408
20
7.0001463964518118
42
0.41421356237312884
10
26.337500000593401
20
6.5001463964519601
10
26.337500000593362
20
-6.4998536035480114
42
0.41421356237313989
10
26.837500000593408
20
-6.9998536035481429
10
39.837500000593508
20
-6.9998536035479422
42
0.41421356237301632
10
40.33750000059338
20
-6.4998536035480114
0
LWPOLYLINE
5
114
100
AcDbEntity
8
0
100
AcDbPolyline
90
8
70
1
43
0.0
10
58.887500000593398
20
-6.999853603548015
42
0.41421356237298901
10
59.387500000593391
20
-6.4998536035480292
10
59.387500000593398
20
6.5001463964519113
42
0.41421356237320106
10
58.887500000593398
20
7.0001463964519317
10
45.887500000593306
20
7.0001463964519512
42
0.41421356237312756
10
45.387500000593228
20
6.5001463964520401
10
45.387500000593207
20
-6.4998536035478205
42
0.4142135623731204
10
45.887500000593306
20
-6.9998536035481518
0
LWPOLYLINE
5
115
100
AcDbEntity
8
0
100
AcDbPolyline
90
8
70
1
43
0.0
10
64.937500000593388
20
7.0001463964519868
42
0.41421356237295326
10
64.43750000059336
20
6.5001463964520001
10
64.437500000593374
20
-6.4998536035480114
42
0.41421356237312557
10
64.937500000593417
20
-6.9998536035480541
10
77.937500000593403
20
-6.999853603547991
42
0.41421356237313078
10
78.437500000593474
20
-6.4998536035480647
10
78.437500000593246
20
6.5001463964519797
42
0.41421356237308005
10
77.937500000593388
20
7.0001463964519672
0
LWPOLYLINE
5
116
100
AcDbEntity
8
0
100
AcDbPolyline
90
8
70
1
43
0.0
10
114.94375000000002
20
7.0001463970455102
10
127.94375000000002
20
7.0001463970449951
42
-0.41421356237305079
10
128.44375000000002
20
6.5001463970450812
10
128.44375000000014
20
-6.4998536029548504
42
-0.41421356237299878
10
127.94375000000001
20
-6.9998536029548175
10
114.94375000000002
20
-6.9998536029548681
42
-0.41421356237320039
10
114.44375000000002
20
-6.4998536029547704
10
114.44374999999971
20
6.5001463970450324
42
-0.41421356237319584
0
LWPOLYLINE
5
117
100
AcDbEntity
8
0
100
AcDbPolyline
90
8
70
1
43
0.0
10
-106.00575000000008
20
-11.549853602954805
10
-106.00575000000005
20
-26.549853602954805
42
-0.41421356237313145
10
-106.50575000000003
20
-27.049853602954784
10
-112.50575000000001
20
-27.049853602954791
42
-0.41421356237310281
10
-113.00575000000002
20
-26.549853602954805
10
-113.00575000000003
20
-11.549853602954752
42
-0.41421356237308332
10
-112.50575000000005
20
-11.049853602954782
10
-106.50575000000009
20
-11.0498536029548
42
-0.41421356237307294
0
LWPOLYLINE
5
118
100
AcDbEntity
8
0
100
AcDbPolyline
90
8
70
1
43
0.0
10
-136.88175000000004
20
-26.549853602954698
42
0.41421356237308204
10
-136.38175000000001
20
-27.049853602954727
10
-130.38175000000001
20
-27.049853602954784
42
0.414213562373069
10
-129.88175000000007
20
-26.549853602954805
10
-129.88175000000001
20
-11.549853602954679
42
0.41421356237310025
10
-130.38175000000001
20
-11.049853602954691
10
-136.38175000000001
20
-11.049853602954649
42
0.41421356237308854
10
-136.88175000000001
20
-11.549853602954663
0
LWPOLYLINE
5
119
100
AcDbEntity
8
0
100
AcDbPolyline
90
8
70
1
43
0.0
10
-128.44375000000002
20
-25.549853602954808
10
-128.44374999999999
20
-12.549853602954801
42
-0.41421356237309892
10
-127.94375000000001
20
-12.049853602954805
10
-114.94374999999999
20
-12.04985360295481
42
-0.41421356237311713
10
-114.44375000000001
20
-12.549853602954801
10
-114.44374999999994
20
-25.549853602954702
42
-0.41421356237307422
10
-114.94374999999999
20
-26.049853602954762
10
-127.94375000000001
20
-26.049853602954713
42
-0.41421356237302481
0
LWPOLYLINE
5
120
100
AcDbEntity
8
0
100
AcDbPolyline
90
8
70
1
43
0.0
10
83.9875000005934
20
7.0001463964518873
42
0.41421356237310347
10
83.487500000593386
20
6.5001463964520614
10
83.4875000005934
20
-6.4998536035482299
42
0.41421356237313406
10
83.9875000005934
20
-6.999853603548063
10
96.987500000593329
20
-6.999853603548182
42
0.41421356237299295
10
97.487500000593243
20
-6.4998536035482246
10
97.487500000593315
20
6.5001463964521111
42
0.41421356237307488
10
96.987500000593343
20
7.0001463964520472
0
LWPOLYLINE
5
121
100
AcDbEntity
8
0
100
AcDbPolyline
90
8
70
1
43
0.0
10
121.30000000000003
20
44.60014639704707
10
121.30000000000236
20
31.600146397045499
42
-0.41421356237308204
10
120.79999999999998
20
31.100146397043154
10
107.80000000000001
20
31.100146397045542
42
-0.41421356237295454
10
107.30000000000018
20
31.600146397045204
10
107.30000000000045
20
44.600146397044497
42
-0.41421356237285051
10
107.80000000000001
20
45.100146397047652
10
120.80000000000001
20
45.100146397047105
42
-0.41421356237304818
0
LWPOLYLINE
5
122
100
AcDbEntity
8
0
100
AcDbPolyline
90
8
70
1
43
0.0
10
-54.149999999999991
20
-46.09985360295461
10
-60.150000000000048
20
-46.099853602954603
42
-0.41421356237307944
10
-60.650000000000013
20
-45.599853602954646
10
-60.64999999999997
20
-30.59985360295471
42
-0.41421356237309503
10
-60.15000000000002
20
-30.099853602954745
10
-54.149999999999999
20
-30.099853602954735
42
-0.41421356237311063
10
-53.65000000000002
20
-30.599853602954706
10
-53.650000000000006
20
-45.599853602954639
42
-0.41421356237306384
0
LWPOLYLINE
5
123
100
AcDbEntity
8
0
100
AcDbPolyline
90
8
70
1
43
0.0
10
-6.499999999999968
20
-31.099853602954823
10
6.4999999999999503
20
-31.099853602954806
42
-0.41421356237305079
10
7.0000000000000053
20
-31.599853602954802
10
7.0000000000000124
20
-44.599853602954802
42
-0.41421356237303131
10
6.4999999999999991
20
-45.099853602954909
10
-6.4999999999999769
20
-45.099853602954781
42
-0.4142135623730599
10
-6.9999999999999982
20
-44.599853602954703
10
-6.9999999999999858
20
-31.599853602954795
42
-0.41421356237299228
0
LWPOLYLINE
5
124
100
AcDbEntity
8
0
100
AcDbPolyline
90
8
70
1
43
0.0
10
111.27500000000001
20
-45.099853602955008
42
0.41421356237316265
10
111.77500000000015
20
-44.599853602954795
10
111.77500000000009
20
-31.599853602954909
42
0.41421356237315227
10
111.27500000000001
20
-31.099853602954735
10
98.275000000000148
20
-31.099853602954973
42
0.41421356237308982
10
97.775000000000105
20
-31.5998536029546
10
97.775000000000063
20
-44.599853602954795
42
0.41421356237299095
10
98.275000000000006
20
-45.099853602954738
0
LWPOLYLINE
5
125
100
AcDbEntity
8
0
100
AcDbPolyline
90
8
70
1
43
0.0
10
87.462500000000105
20
-45.099853602954809
10
74.46250000000002
20
-45.099853602954816
42
-0.41421356237314189
10
73.962500000000077
20
-44.599853602954617
10
73.962500000000063
20
-31.599853602954706
42
-0.41421356237300139
10
74.462500000000006
20
-31.099853602954759
10
87.462500000000105
20
-31.099853602954926
42
-0.41421356237321727
10
87.962500000000063
20
-31.599853602954909
10
87.962500000000006
20
-44.599853602954909
42
-0.4142135623731939
0
LWPOLYLINE
5
126
100
AcDbEntity
8
0
100
AcDbPolyline
90
8
70
1
43
0.0
10
60.150000000000013
20
-46.099853602954973
42
0.41421356237311063
10
60.650000000000013
20
-45.599853602954987
10
60.650000000000084
20
-30.599853602954706
42
0.41421356237310802
10
60.150000000000105
20
-30.099853602954738
10
54.150000000000098
20
-30.09985360295472
42
0.4142135623730846
10
53.650000000000013
20
-30.599853602954799
10
53.650000000000013
20
-45.599853602954923
42
0.41421356237309503
10
54.150000000000105
20
-46.099853602955001
0
LWPOLYLINE
5
127
100
AcDbEntity
8
0
100
AcDbPolyline
90
8
70
1
43
0.0
10
-92.22499999940672
20
26.050146396451971
42
0.41421356237309243
10
-92.724999999406691
20
25.550146396452007
10
-92.72499999940672
20
12.550146396452
42
0.41421356237307294
10
-92.22499999940672
20
12.050146396451993
10
-79.224999999406705
20
12.050146396451931
42
0.41421356237317047
10
-78.72499999940672
20
12.550146396452
10
-78.724999999406791
20
25.550146396452007
42
0.41421356237304302
10
-79.224999999406705
20
26.050146396451996
0
LWPOLYLINE
5
128
100
AcDbEntity
8
0
100
AcDbPolyline
90
8
70
1
43
0.0
10
-140.34999999999999
20
31.600146397045204
42
0.41421356237310542
10
-139.84999999999999
20
31.100146397045215
10
-126.85000000000001
20
31.100146397045219
42
0.41421356237308204
10
-126.34999999999999
20
31.600146397045204
10
-126.35000000000004
20
44.600146397045314
42
0.41421356237310542
10
-126.85000000000001
20
45.1001463970453
10
-139.84999999999999
20
45.1001463970453
42
0.41421356237310025
10
-140.34999999999999
20
44.600146397045314
0
LWPOLYLINE
5
129
100
AcDbEntity
8
0
100
AcDbPolyline
90
8
70
1
43
0.0
10
-73.174999999406694
20
26.050146396451982
10
-60.174999999406822
20
26.050146396451904
42
-0.41421356237309243
10
-59.674999999406708
20
25.550146396452007
10
-59.674999999406779
20
12.550146396451902
42
-0.41421356237309503
10
-60.174999999406715
20
12.050146396451989
10
-73.174999999406793
20
12.0501463964519
42
-0.41421356237307683
10
-73.674999999406694
20
12.550146396452
10
-73.674999999406708
20
25.550146396452007
42
-0.41421356237308721
0
LWPOLYLINE
5
130
100
AcDbEntity
8
0
100
AcDbPolyline
90
8
70
1
43
0.0
10
-69.199999999999889
20
44.6001463970454
42
0.41421356237309503
10
-69.700000000000003
20
45.100146397045108
10
-82.700000000000031
20
45.100146397045329
42
0.41421356237310025
10
-83.200000000000045
20
44.600146397045314
10
-83.200000000000003
20
31.600146397045204
42
0.41421356237311585
10
-82.700000000000017
20
31.100146397045215
10
-69.700000000000003
20
31.100146397045144
42
0.41421356237310025
10
-69.199999999999932
20
31.600146397045204
0
LWPOLYLINE
5
131
100
AcDbEntity
8
0
100
AcDbPolyline
90
8
70
1
43
0.0
10
-78.437499999406697
20
-25.549853603548101
10
-78.43749999940664
20
-12.549853603547998
42
-0.41421356237308071
10
-77.937499999406711
20
-12.049853603548069
10
-64.937499999406697
20
-12.049853603548007
42
-0.41421356237309764
10
-64.437499999406711
20
-12.549853603548
10
-64.437499999406711
20
-25.549853603548005
42
-0.41421356237304563
10
-64.937499999406697
20
-26.049853603548087
10
-77.937499999406697
20
-26.049853603548083
42
-0.4142135623730846
0
LWPOLYLINE
5
132
100
AcDbEntity
8
0
100
AcDbPolyline
90
8
70
1
43
0.0
10
-45.100000000000016
20
31.600146397045204
10
-45.100000000000009
20
44.600146397045215
42
-0.41421356237311063
10
-44.600000000000001
20
45.100146397045229
10
-31.600000000000001
20
45.100146397045215
42
-0.41421356237308721
10
-31.099999999999998
20
44.600146397045002
10
-31.099999999999962
20
31.600146397045307
42
-0.41421356237316526
10
-31.600000000000001
20
31.100146397045165
10
-44.599999999999994
20
31.100146397045194
42
-0.41421356237309243
0
LWPOLYLINE
5
133
100
AcDbEntity
8
0
100
AcDbPolyline
90
8
70
1
43
0.0
10
-119.20625000000001
20
6.5001463970452189
10
-119.20625000000001
20
-6.4998536029547704
42
-0.4142135623730846
10
-119.70625
20
-6.9998536029547775
10
-137.46625
20
-6.9998536029547589
42
-0.41421356237311519
10
-137.96625
20
-6.4998536029547704
10
-137.96625000000003
20
6.5001463970452455
42
-0.41421356237307422
10
-137.46625
20
7.0001463970452349
10
-119.70625
20
7.0001463970452207
42
-0.4142135623731022
0
LWPOLYLINE
5
134
100
AcDbEntity
8
0
100
AcDbPolyline
90
8
70
1
43
0.0
10
-122.08750000000002
20
12.050146397045193
42
0.41421356237309503
10
-121.58750000000001
20
12.5501463970452
10
-121.58750000000001
20
25.550146397045307
42
0.41421356237310802
10
-122.08750000000002
20
26.05014639704531
10
-135.08750000000001
20
26.050146397045207
42
0.41421356237307161
10
-135.58750000000001
20
25.550146397045204
10
-135.58750000000001
20
12.5501463970452
42
0.41421356237308593
10
-135.08749999999998
20
12.050146397045193
0
LWPOLYLINE
5
135
100
AcDbEntity
8
0
100
AcDbPolyline
90
8
70
1
43
0.0
10
12.550000000000001
20
45.10014639704562
42
0.41421356237303908
10
12.050000000000001
20
44.600146397045492
10
12.050000000000004
20
31.600146397045307
42
0.41421356237302998
10
12.549999999999999
20
31.100146397045201
10
25.550000000000001
20
31.100146397045325
42
0.41421356237285312
10
26.050000000000004
20
31.600146397045307
10
26.050000000000004
20
44.600146397046004
42
0.4142135623730378
10
25.550000000000004
20
45.100146397045499
0
LWPOLYLINE
5
136
100
AcDbEntity
8
0
100
AcDbPolyline
90
8
70
1
43
0.0
10
3.0250000005933408
20
26.050146396451925
10
16.025000000593302
20
26.050146396451996
42
-0.41421356237315227
10
16.525000000593387
20
25.5501463964519
10
16.525000000593302
20
12.550146396452
42
-0.41421356237315227
10
16.025000000593302
20
12.050146396452046
10
3.0250000005933408
20
12.050146396451957
42
-0.41421356237307616
10
2.5250000005933271
20
12.550146396452
10
2.5250000005933315
20
25.5501463964519
42
-0.41421356237309115
0
LWPOLYLINE
5
137
100
AcDbEntity
8
0
100
AcDbPolyline
90
8
70
1
43
0.0
10
49.362500000593307
20
-26.049853603547852
10
36.3625000005933
20
-26.049853603548009
42
-0.41421356237315488
10
35.862500000593229
20
-25.549853603548101
10
35.862500000593293
20
-12.549853603547998
42
-0.41421356237303519
10
36.362500000593293
20
-12.049853603548099
10
49.362500000593307
20
-12.049853603548099
42
-0.41421356237314316
10
49.862500000593364
20
-12.549853603548101
10
49.86250000059335
20
-25.549853603548005
42
-0.41421356237299095
0
LWPOLYLINE
5
138
100
AcDbEntity
8
0
100
AcDbPolyline
90
8
70
1
43
0.0
10
74.462500000593394
20
-12.049853603548053
42
0.41421356237321599
10
73.962500000593508
20
-12.549853603547804
10
73.962500000593366
20
-25.549853603548005
42
0.41421356237308204
10
74.462500000593394
20
-26.049853603547835
10
87.462500000593394
20
-26.049853603548087
42
0.41421356237318346
10
87.962500000593423
20
-25.549853603548101
10
87.962500000593508
20
-12.5498536035479
42
0.41421356237304691
10
87.462500000593337
20
-12.049853603547813
0
LWPOLYLINE
5
139
100
AcDbEntity
8
0
100
AcDbPolyline
90
8
70
1
43
0.0
10
35.575000000593199
20
25.5501463964519
10
35.575000000593306
20
12.550146396452
42
-0.41421356237308854
10
35.075000000593299
20
12.050146396451991
10
22.075000000593292
20
12.050146396452012
42
-0.41421356237308332
10
21.57500000059331
20
12.550146396452
10
21.575000000593398
20
25.550146396452007
42
-0.41421356237309764
10
22.075000000593295
20
26.050146396451908
10
35.075000000593299
20
26.050146396452007
42
-0.41421356237309503
0
LWPOLYLINE
5
140
100
AcDbEntity
8
0
100
AcDbPolyline
90
8
70
1
43
0.0
10
-93.012499999406714
20
6.5001463964519788
42
0.41421356237312168
10
-93.5124999994067
20
7.0001463964519779
10
-106.51249999940703
20
7.0001463964519859
42
0.41421356237312951
10
-107.01249999940703
20
6.5001463964519948
10
-107.01249999940705
20
-6.4998536035480301
42
0.41421356237308593
10
-106.51249999940703
20
-6.9998536035480718
10
-93.5124999994067
20
-6.9998536035480292
42
0.41421356237308005
10
-93.012499999406685
20
-6.4998536035480905
0
LWPOLYLINE
5
141
100
AcDbEntity
8
0
100
AcDbPolyline
90
8
70
1
43
0.0
10
-98.274999999406816
20
12.050146396451966
10
-111.27499999940703
20
12.050146396452002
42
-0.41421356237308982
10
-111.774999999407
20
12.550146396452
10
-111.774999999407
20
25.550146396452007
42
-0.41421356237308982
10
-111.27499999940703
20
26.050146396452014
10
-98.274999999406702
20
26.0501463964519
42
-0.41421356237302737
10
-97.774999999406731
20
25.550146396452007
10
-97.774999999406731
20
12.550146396452
42
-0.41421356237310936
0
LWPOLYLINE
5
142
100
AcDbEntity
8
0
100
AcDbPolyline
90
8
70
1
43
0.0
10
-102.25000000000001
20
31.600146397045204
42
0.41421356237306123
10
-101.75
20
31.10014639704529
10
-88.75
20
31.100146397045219
42
0.41421356237311324
10
-88.250000000000014
20
31.600146397045204
10
-88.250000000000028
20
44.600146397045215
42
0.41421356237315748
10
-88.75
20
45.1001463970453
10
-101.75
20
45.1001463970453
42
0.41421356237314189
10
-102.25000000000001
20
44.600146397045215
0
LWPOLYLINE
5
143
100
AcDbEntity
8
0
100
AcDbPolyline
90
8
70
1
43
0.0
10
-83.987499999406694
20
-26.049853603548073
42
0.41421356237315488
10
-83.487499999406722
20
-25.549853603548005
10
-83.487499999406708
20
-12.549853603548
42
0.41421356237309503
10
-83.987499999406779
20
-12.049853603548097
10
-96.987499999406737
20
-12.049853603548028
42
0.41421356237307683
10
-97.487499999406737
20
-12.549853603547998
10
-97.487499999406694
20
-25.549853603548005
42
0.41421356237308204
10
-96.987499999406808
20
-26.049853603548119
0
LWPOLYLINE
5
144
100
AcDbEntity
8
0
100
AcDbPolyline
90
8
70
1
43
0.0
10
98.275000000593423
20
26.050146396451783
42
0.41421356237298318
10
97.775000000593337
20
25.550146396452007
10
97.775000000593352
20
12.550146396452
42
0.4142135623731783
10
98.275000000593423
20
12.050146396451904
10
111.275000000593
20
12.050146396451824
42
0.41421356237310936
10
111.775000000593
20
12.550146396452204
10
111.77500000059318
20
25.550146396451602
42
0.41421356237335255
10
111.275000000593
20
26.050146396452192
0
LWPOLYLINE
5
145
100
AcDbEntity
8
0
100
AcDbPolyline
90
8
70
1
43
0.0
10
82.700000000000031
20
31.100146397045172
10
69.700000000000017
20
31.10014639704481
42
-0.41421356237298579
10
69.200000000000003
20
31.600146397045002
10
69.200000000000031
20
44.600146397045101
42
-0.41421356237298579
10
69.700000000000003
20
45.100146397044085
10
82.700000000000031
20
45.100146397044789
42
-0.4142135623732407
10
83.200000000000003
20
44.600146397044
10
83.200000000000045
20
31.600146397044803
42
-0.41421356237297796
0
LWPOLYLINE
5
146
100
AcDbEntity
8
0
100
AcDbPolyline
90
8
70
1
43
0.0
10
88.75
20
45.100146397044789
10
101.75
20
45.100146397045073
42
-0.41421356237306384
10
102.24999999999996
20
44.600146397045101
10
102.25000000000001
20
31.600146397044906
42
-0.4142135623728479
10
101.75
20
31.100146397045396
10
88.75
20
31.100146397045492
42
-0.41421356237316265
10
88.249999999999901
20
31.600146397045101
10
88.249999999999886
20
44.600146397046309
42
-0.41421356237301699
0
LWPOLYLINE
5
147
100
AcDbEntity
8
0
100
AcDbPolyline
90
8
70
1
43
0.0
10
92.225000000593525
20
12.050146396452037
10
79.225000000593184
20
12.050146396452
42
-0.41421356237309631
10
78.725000000593312
20
12.550146396451902
10
78.725000000593312
20
25.5501463964519
42
-0.41421356237290252
10
79.225000000593184
20
26.050146396451911
10
92.225000000593241
20
26.050146396452099
42
-0.41421356237308204
10
92.725000000593212
20
25.550146396452007
10
92.725000000593511
20
12.550146396452
42
-0.41421356237316009
0
LWPOLYLINE
5
148
100
AcDbEntity
8
0
100
AcDbPolyline
90
8
70
1
43
0.0
10
59.675000000593251
20
12.550146396451902
42
0.41421356237313928
10
60.175000000593393
20
12.050146396451652
10
73.1750000005934
20
12.050146396451799
42
0.41421356237309243
10
73.6750000005934
20
12.550146396452
10
73.6750000005934
20
25.550146396451801
42
0.41421356237317308
10
73.175000000593386
20
26.0501463964519
10
60.175000000593393
20
26.050146396451737
42
0.41421356237314705
10
59.675000000593307
20
25.550146396452298
0
LWPOLYLINE
5
149
100
AcDbEntity
8
0
100
AcDbPolyline
90
8
70
1
43
0.0
10
31.600000000000001
20
45.100146397043702
42
0.41421356237310025
10
31.100000000000012
20
44.600146397045691
10
31.100000000000012
20
31.600146397045204
42
0.41421356237307944
10
31.599999999999994
20
31.100146397045215
10
44.600000000000009
20
31.100146397045037
42
0.41421356237309764
10
45.099999999999973
20
31.600146397045002
10
45.099999999999966
20
44.600146397044611
42
0.41421356237315748
10
44.600000000000001
20
45.100146397045677
0
LWPOLYLINE
5
150
100
AcDbEntity
8
0
100
AcDbPolyline
90
8
70
1
43
0.0
10
-121.30000000000001
20
31.600146397045307
10
-121.30000000000001
20
44.600146397045215
42
-0.414213562373069
10
-120.80000000000001
20
45.100146397045229
10
-107.80000000000001
20
45.100146397045307
42
-0.41421356237312623
10
-107.30000000000001
20
44.600146397045215
10
-107.30000000000001
20
31.600146397045204
42
-0.41421356237310802
10
-107.80000000000001
20
31.100146397045208
10
-120.8
20
31.100146397045286
42
-0.41421356237312362
0
LWPOLYLINE
5
151
100
AcDbEntity
8
0
100
AcDbPolyline
90
8
70
1
43
0.0
10
-50.150000000000041
20
44.600146397045002
42
0.41421356237297535
10
-50.650000000000013
20
45.100146397045002
10
-63.649999999999913
20
45.100146397045442
42
0.41421356237315227
10
-64.149999999999906
20
44.600146397045101
10
-64.149999999999906
20
31.600146397045307
42
0.41421356237315748
10
-63.649999999999913
20
31.100146397045201
10
-50.650000000000013
20
31.100146397045162
42
0.41421356237316526
10
-50.14999999999997
20
31.600146397045307
0
LWPOLYLINE
5
152
100
AcDbEntity
8
0
100
AcDbPolyline
90
8
70
1
43
0.0
10
68.912500000593326
20
-12.549853603548105
10
68.912500000593411
20
-25.549853603548005
42
-0.4142135623730222
10
68.412500000593397
20
-26.049853603548058
10
55.412500000593205
20
-26.049853603547906
42
-0.41421356237304818
10
54.912500000593305
20
-25.549853603548101
10
54.91250000059339
20
-12.549853603548105
42
-0.41421356237303131
10
55.412500000593397
20
-12.049853603548012
10
68.412500000593312
20
-12.049853603548311
42
-0.41421356237307422
0
LWPOLYLINE
5
153
100
AcDbEntity
8
0
100
AcDbPolyline
90
8
70
1
43
0.0
10
-87.462499999406717
20
7.0001463964519495
10
-74.462499999406702
20
7.0001463964519886
42
-0.41421356237311258
10
-73.962499999406702
20
6.5001463964519601
10
-73.962499999406717
20
-6.4998536035480292
42
-0.41421356237318541
10
-74.462499999406702
20
-6.9998536035480328
10
-87.462499999406717
20
-6.9998536035480399
42
-0.41421356237304563
10
-87.962499999406617
20
-6.4998536035480106
10
-87.962499999406702
20
6.5001463964519779
42
-0.4142135623731269
0
LWPOLYLINE
5
154
100
AcDbEntity
8
0
100
AcDbPolyline
90
8
70
1
43
0.0
10
40.625000000593332
20
12.550146396451902
42
0.41421356237309631
10
41.125000000593303
20
12.050146396451931
10
54.125000000593396
20
12.050146396451796
42
0.41421356237296625
10
54.625000000593388
20
12.550146396452
10
54.62500000059336
20
25.5501463964519
42
0.41421356237302737
10
54.125000000593396
20
26.05014639645157
10
41.125000000593303
20
26.050146396451879
42
0.41421356237309503
10
40.625000000593332
20
25.550146396452096
0
LWPOLYLINE
5
155
100
AcDbEntity
8
0
100
AcDbPolyline
90
8
70
1
43
0.0
10
-55.412499999406712
20
-6.9998536035479688
42
0.41421356237313989
10
-54.91249999940662
20
-6.4998536035480097
10
-54.912499999406712
20
6.5001463964519797
42
0.41421356237311258
10
-55.412499999406712
20
7.0001463964520116
10
-68.412499999406705
20
7.0001463964519868
42
0.41421356237309631
10
-68.912499999406819
20
6.5001463964518891
10
-68.912499999406805
20
-6.4998536035480603
42
0.41421356237313534
10
-68.412499999406833
20
-6.999853603548063
0
LWPOLYLINE
5
156
100
AcDbEntity
8
0
100
AcDbPolyline
90
8
70
1
43
0.0
10
-17.312499999406697
20
-6.9998536035480807
10
-30.3124999994067
20
-6.9998536035480319
42
-0.41421356237310025
10
-30.812499999406672
20
-6.4998536035480603
10
-30.812499999406704
20
6.5001463964519068
42
-0.41421356237305273
10
-30.312499999406704
20
7.0001463964519841
10
-17.312499999406697
20
7.0001463964519495
42
-0.41421356237307033
10
-16.812499999406686
20
6.5001463964519797
10
-16.812499999406697
20
-6.4998536035480292
42
-0.41421356237312168
0
LWPOLYLINE
5
157
100
AcDbEntity
8
0
100
AcDbPolyline
90
8
70
1
43
0.0
10
11.262500000593301
20
-26.049853603548002
10
-1.7374999994066531
20
-26.049853603548101
42
-0.41421356237309176
10
-2.2374999994067437
20
-25.549853603548005
10
-2.2374999994067482
20
-12.549853603547998
42
-0.41421356237309781
10
-1.7374999994066498
20
-12.049853603548117
10
11.262500000593301
20
-12.04985360354816
42
-0.41421356237303258
10
11.762500000593349
20
-12.549853603548101
10
11.762500000593398
20
-25.549853603548005
42
-0.41421356237315354
0
LWPOLYLINE
5
158
100
AcDbEntity
8
0
100
AcDbPolyline
90
8
70
1
43
0.0
10
-26.837499999406695
20
-26.049853603548073
10
-39.837499999406702
20
-26.049853603548101
42
-0.41421356237304302
10
-40.337499999406759
20
-25.549853603548101
10
-40.337499999406702
20
-12.549853603547998
42
-0.41421356237310153
10
-39.837499999406702
20
-12.049853603548009
10
-26.837499999406695
20
-12.049853603548097
42
-0.41421356237302737
10
-26.337499999406727
20
-12.549853603548101
10
-26.337499999406731
20
-25.549853603548005
42
-0.41421356237304302
0
LWPOLYLINE
5
159
100
AcDbEntity
8
0
100
AcDbPolyline
90
8
70
1
43
0.0
10
-54.124999999406704
20
26.050146396451964
42
0.41421356237316009
10
-54.62499999940669
20
25.550146396452007
10
-54.624999999406789
20
12.550146396452
42
0.41421356237315093
10
-54.124999999406704
20
12.050146396452028
10
-41.124999999406697
20
12.050146396451913
42
0.4142135623730846
10
-40.62499999940669
20
12.550146396451902
10
-40.624999999406654
20
25.5501463964519
42
0.41421356237314705
10
-41.124999999406697
20
26.050146396451996
0
LWPOLYLINE
5
160
100
AcDbEntity
8
0
100
AcDbPolyline
90
8
70
1
43
0.0
10
-21.287499999406705
20
-25.549853603548005
10
-21.287499999406691
20
-12.549853603548105
42
-0.41421356237309764
10
-20.787499999406695
20
-12.049853603548115
10
-7.7874999994066929
20
-12.049853603548076
42
-0.41421356237302676
10
-7.2874999994066849
20
-12.549853603548
10
-7.2874999994066547
20
-25.549853603548101
42
-0.41421356237304818
10
-7.7874999994066707
20
-26.049853603548002
10
-20.787499999406695
20
-26.049853603548012
42
-0.41421356237309243
0
LWPOLYLINE
5
161
100
AcDbEntity
8
0
100
AcDbPolyline
90
8
70
1
43
0.0
10
-2.5249999994068233
20
25.5501463964519
42
0.41421356237306611
10
-3.0249999994067589
20
26.050146396452082
10
-16.024999999406699
20
26.050146396451904
42
0.41421356237309115
10
-16.524999999406702
20
25.5501463964519
10
-16.524999999406724
20
12.550146396452
42
0.41421356237309115
10
-16.024999999406706
20
12.050146396451975
10
-3.0249999994067602
20
12.050146396451895
42
0.41421356237317797
10
-2.5249999994068162
20
12.550146396451902
0
LWPOLYLINE
5
162
100
AcDbEntity
8
0
100
AcDbPolyline
90
8
70
1
43
0.0
10
30.312500000593303
20
-26.049853603548048
42
0.41421356237296497
10
30.812500000593353
20
-25.549853603548005
10
30.812500000593303
20
-12.549853603548202
42
0.41421356237316526
10
30.312500000593296
20
-12.049853603548097
10
17.312500000593399
20
-12.049853603548204
42
0.41421356237315227
10
16.812500000593403
20
-12.549853603548105
10
16.812500000593349
20
-25.549853603548016
42
0.41421356237321599
10
17.312500000593403
20
-26.049853603548058
0
LWPOLYLINE
5
163
100
AcDbEntity
8
0
100
AcDbPolyline
90
8
70
1
43
0.0
10
-49.362499999406708
20
7.0001463964519228
10
-36.362499999406708
20
7.0001463964519663
42
-0.41421356237309309
10
-35.862499999406708
20
6.5001463964519797
10
-35.862499999406722
20
-6.4998536035480292
42
-0.41421356237308138
10
-36.362499999406708
20
-6.999853603547991
10
-49.362499999406708
20
-6.9998536035480283
42
-0.4142135623731607
10
-49.862499999406744
20
-6.4998536035480603
10
-49.862499999406744
20
6.5001463964519779
42
-0.41421356237303325
0
LWPOLYLINE
5
164
100
AcDbEntity
8
0
100
AcDbPolyline
90
8
70
1
43
0.0
10
-21.5749999994067
20
25.550146396452007
10
-21.574999999406653
20
12.550146396452
42
-0.41421356237309764
10
-22.0749999994067
20
12.050146396451957
10
-35.0749999994067
20
12.050146396452003
42
-0.41421356237309892
10
-35.574999999406685
20
12.550146396452
10
-35.5749999994067
20
25.550146396452007
42
-0.41421356237309243
10
-35.0749999994067
20
26.050146396452032
10
-22.0749999994067
20
26.050146396451904
42
-0.41421356237315227
0
LWPOLYLINE
5
165
100
AcDbEntity
8
0
100
AcDbPolyline
90
8
70
1
43
0.0
10
7.0000000000000107
20
44.600146397044398
10
7.0000000000000018
20
31.600146397045101
42
-0.41421356237311258
10
6.5
20
31.10014639704513
10
-6.5000000000000124
20
31.10014639704502
42
-0.41421356237309698
10
-6.9999999999999876
20
31.600146397045204
10
-6.9999999999999982
20
44.600146397046004
42
-0.41421356237299811
10
-6.4999999999999698
20
45.100146397045613
10
6.5000000000000036
20
45.100146397045286
42
-0.41421356237305795
0
LWPOLYLINE
5
166
100
AcDbEntity
8
0
100
AcDbPolyline
90
8
70
1
43
0.0
10
-12.550000000000001
20
31.10014639704524
42
0.41421356237304563
10
-12.050000000000038
20
31.600146397045307
10
-12.050000000000036
20
44.600146397045222
42
0.41421356237310802
10
-12.549999999999999
20
45.100146397045506
10
-25.550000000000001
20
45.100146397045428
42
0.41421356237309503
10
-26.050000000000001
20
44.600146397045606
10
-26.049999999999986
20
31.600146397045307
42
0.41421356237303519
10
-25.550000000000001
20
31.100146397045201
0
LWPOLYLINE
5
167
100
AcDbEntity
8
0
100
AcDbPolyline
90
8
70
1
43
0.0
10
7.2875000005933543
20
-6.4998536035480292
10
7.2875000005933508
20
6.5001463964518891
42
-0.41421356237308204
10
7.7875000005933606
20
7.0001463964519806
10
20.787500000593397
20
7.0001463964518695
42
-0.41421356237309764
10
21.287500000593301
20
6.5001463964519512
10
21.287500000593298
20
-6.4998536035480292
42
-0.4142135623730287
10
20.787500000593401
20
-6.999853603548063
10
7.7875000005933348
20
-6.9998536035479972
42
-0.41421356237308005
0
LWPOLYLINE
5
168
100
AcDbEntity
8
0
100
AcDbPolyline
90
8
70
1
43
0.0
10
-59.3874999994067
20
-25.549853603548005
10
-59.387499999406614
20
-12.549853603547998
42
-0.41421356237310281
10
-58.887499999406607
20
-12.049853603547994
10
-45.8874999994067
20
-12.049853603547994
42
-0.41421356237309892
10
-45.3874999994067
20
-12.549853603548
10
-45.387499999406799
20
-25.549853603548101
42
-0.41421356237308204
10
-45.887499999406685
20
-26.049853603548009
10
-58.887499999406714
20
-26.049853603548101
42
-0.41421356237316787
0
LWPOLYLINE
5
169
100
AcDbEntity
8
0
100
AcDbPolyline
90
8
70
1
43
0.0
10
50.150000000000034
20
31.600146397045307
10
50.150000000000112
20
44.600146397044107
42
-0.41421356237295975
10
50.650000000000013
20
45.100146397045783
10
63.650000000000119
20
45.100146397044114
42
-0.41421356237315227
10
64.150000000000006
20
44.600146397045314
10
64.150000000000048
20
31.600146397045307
42
-0.41421356237292856
10
63.650000000000105
20
31.100146397045449
10
50.650000000000013
20
31.100146397045435
42
-0.41421356237326412
0
LWPOLYLINE
5
170
100
AcDbEntity
8
0
100
AcDbPolyline
90
8
70
1
43
0.0
10
135.08750000000003
20
12.050146397044909
10
122.08750000000002
20
12.050146397045197
42
-0.41421356237301438
10
121.58750000000001
20
12.550146397045101
10
121.58749999999982
20
25.550146397045506
42
-0.41421356237311063
10
122.08750000000002
20
26.050146397045701
10
135.08750000000003
20
26.05014639704526
42
-0.41421356237310025
10
135.58750000000018
20
25.550146397045101
10
135.5875000000002
20
12.5501463970452
42
-0.41421356237313667
0
LWPOLYLINE
5
171
100
AcDbEntity
8
0
100
AcDbPolyline
90
8
70
1
43
0.0
10
2.2375000005933456
20
6.5001463964519113
42
0.41421356237307683
10
1.7375000005933305
20
7.0001463964519219
10
-11.262499999406701
20
7.0001463964519273
42
0.41421356237311258
10
-11.762499999406701
20
6.5001463964518891
10
-11.762499999406693
20
-6.4998536035480114
42
0.41421356237305273
10
-11.262499999406703
20
-6.9998536035479297
10
1.7375000005933305
20
-6.9998536035480319
42
0.41421356237306023
10
2.2375000005933554
20
-6.4998536035480114
0
LWPOLYLINE
5
172
100
AcDbEntity
8
0
100
AcDbPolyline
90
8
70
1
43
0.0
10
-87.96249999999992
20
-44.599853602954703
42
0.41421356237305862
10
-87.462500000000034
20
-45.099853602954809
10
-74.462499999999906
20
-45.099853602954802
42
0.4142135623730222
10
-73.96250000000002
20
-44.599853602954802
10
-73.96249999999992
20
-31.599853602954802
42
0.41421356237316009
10
-74.462499999999906
20
-31.099853602954699
10
-87.462499999999906
20
-31.099853602954752
42
0.41421356237306639
10
-87.962500000000006
20
-31.599853602954795
0
LWPOLYLINE
5
173
100
AcDbEntity
8
0
100
AcDbPolyline
90
8
70
1
43
0.0
10
-97.77500000000002
20
-31.599853602954795
10
-97.775000000000034
20
-44.599853602954802
42
-0.41421356237305862
10
-98.275000000000006
20
-45.099853602954816
10
-111.27500000000001
20
-45.099853602954724
42
-0.41421356237310025
10
-111.77500000000002
20
-44.599853602954703
10
-111.77500000000002
20
-31.599853602954706
42
-0.41421356237309243
10
-111.27500000000001
20
-31.099853602954703
10
-98.275000000000006
20
-31.099853602954809
42
-0.41421356237311324
0
LWPOLYLINE
5
174
100
AcDbEntity
8
0
100
AcDbPolyline
90
8
70
1
43
0.0
10
126.85000000000009
20
-12.049853602954794
10
139.84999999999999
20
-12.049853602954721
42
-0.41421356237304952
10
140.35000000000008
20
-12.549853602954704
10
140.35000000000002
20
-25.549853602954897
42
-0.41421356237310025
10
139.84999999999999
20
-26.049853602954947
10
126.85000000000005
20
-26.049853602954379
42
-0.41421356237310025
10
126.35000000000005
20
-25.549853602954364
10
126.35000000000008
20
-12.549853602954775
42
-0.41421356237310025
0
LWPOLYLINE
5
175
100
AcDbEntity
8
0
100
AcDbPolyline
90
8
70
1
43
0.0
10
113.65625000000001
20
-26.049853602958024
10
100.65625
20
-26.049853602954528
42
-0.41421356237300139
10
100.15625000000016
20
-25.549853602954805
10
100.15625
20
-12.549853602954899
42
-0.41421356237312362
10
100.65625
20
-12.04985360295488
10
113.65625000000001
20
-12.049853602954784
42
-0.41421356237310281
10
114.15625
20
-12.549853602954785
10
114.15625000000334
20
-25.549853602954666
42
-0.41421356237311063
0
LWPOLYLINE
5
176
100
AcDbEntity
8
0
100
AcDbPolyline
90
8
70
1
43
0.0
10
139.84999999999999
20
31.100146397045538
42
0.41421356237285828
10
140.34999999999962
20
31.600146397044803
10
140.34999999999985
20
44.600146397044497
42
0.41421356237307422
10
139.84999999999999
20
45.100146397046359
10
126.84999999999988
20
45.100146397046821
42
0.41421356237308982
10
126.34999999999988
20
44.600146397046821
10
126.34999999999988
20
31.600146397043218
42
0.41421356237315488
10
126.84999999999999
20
31.100146397043211
0
LWPOLYLINE
5
177
100
AcDbEntity
8
0
100
AcDbPolyline
90
16
70
1
43
0.0
10
-121.58750000000001
20
-31.599853602954802
42
0.41421356237312362
10
-122.08750000000002
20
-31.099853602954788
10
-135.08750000000001
20
-31.099853602954791
42
0.41421356237310281
10
-135.58750000000003
20
-31.599853602954795
10
-135.58750000000001
20
-36.949853602954796
10
-137.48750000000169
20
-36.949853602955102
42
0.99999999999999989
10
-137.48750000000169
20
-39.249853602954694
10
-135.58750000000001
20
-39.249853602954694
10
-135.58750000000009
20
-44.599853602954703
42
0.41421356237312101
10
-135.08749999999998
20
-45.099853602954738
10
-122.08750000000002
20
-45.099853602954823
42
0.41421356237312623
10
-121.58750000000001
20
-44.599853602954695
10
-121.58750000000032
20
-39.249853602954765
10
-119.68749999999865
20
-39.249853602954772
42
0.99999999999999989
10
-119.68749999999865
20
-36.949853602955152
10
-121.58750000000032
20
-36.949853602954867
0
LWPOLYLINE
5
178
100
AcDbEntity
8
0
100
AcDbPolyline
90
16
70
1
43
0.0
10
135.08750000000003
20
-45.099853602954987
10
122.08750000000002
20
-45.09985360295466
42
-0.41421356237310542
10
121.58750000000009
20
-44.599853602954703
10
121.58749999999995
20
-39.249853602952776
10
119.68749999999993
20
-39.249853602952768
42
-0.99999999999999989
10
119.68749999999993
20
-36.949853602952601
10
121.58749999999995
20
-36.949853602952594
10
121.58750000000009
20
-31.599853602954706
42
-0.41421356237298579
10
122.08750000000002
20
-31.099853602954958
10
135.08750000000003
20
-31.099853602954685
42
-0.41421356237315488
10
135.58749999999992
20
-31.599853602954706
10
135.58750000000003
20
-36.949853602954704
10
137.48750000000169
20
-36.949853602954981
42
-0.99999999999999989
10
137.48750000000169
20
-39.249853602954602
10
135.58750000000003
20
-39.249853602954602
10
135.5875000000002
20
-44.599853602954624
42
-0.4142135623731939
0
ENDSEC
0
SECTION
2
OBJECTS
0
DICTIONARY
5
C
100
AcDbDictionary
3
ACAD_GROUP
350
D
3
ACAD_MLINESTYLE
350
17
0
DICTIONARY
5
D
100
AcDbDictionary
0
DICTIONARY
5
1A
330
C
100
AcDbDictionary
0
DICTIONARY
5
17
100
AcDbDictionary
0
ENDSEC
0
EOF
