0
SECTION
2
HEADER
9
$INSUNITS
70
4
9
$ACADVER
1
AC1014
9
$HANDSEED
5
FFFF
0
ENDSEC
0
SECTION
2
TABLES
0
TABLE
2
VPORT
5
8
100
AcDbSymbolTable
0
ENDTAB
0
TABLE
2
LTYPE
5
5
100
AcDbSymbolTable
0
LTYPE
5
14
100
AcDbSymbolTableRecord
100
AcDbLinetypeTableRecord
2
BYBLOCK
70
0
0
LTYPE
5
15
100
AcDbSymbolTableRecord
100
AcDbLinetypeTableRecord
2
BYLAYER
70
0
0
LTYPE
5
16
100
AcDbSymbolTableRecord
100
AcDbLinetypeTableRecord
2
DASHED
70
0
3
Dashed __ __ __ __ __ __ __ __ __ __ __ __ __ _
72
65
73
2
40
0.75
49
0.5
74
0
49
-0.25
74
0
0
ENDTAB
0
TABLE
2
LAYER
5
2
100
AcDbSymbolTable
70
2
0
LAYER
5
50
100
AcDbSymbolTableRecord
100
AcDbLayerTableRecord
2
0
70
0
62
7
6
CONTINUOUS
0
ENDTAB
0
TABLE
2
STYLE
5
3
100
AcDbSymbolTable
70
1
0
STYLE
5
11
100
AcDbSymbolTableRecord
100
AcDbTextStyleTableRecord
2
STANDARD
70
0
0
ENDTAB
0
TABLE
2
VIEW
5
6
100
AcDbSymbolTable
70
0
0
ENDTAB
0
TABLE
2
UCS
5
7
100
AcDbSymbolTable
70
0
0
ENDTAB
0
TABLE
2
APPID
5
9
100
AcDbSymbolTable
70
2
0
APPID
5
12
100
AcDbSymbolTableRecord
100
AcDbRegAppTableRecord
2
ACAD
70
0
0
ENDTAB
0
TABLE
2
DIMSTYLE
5
A
100
AcDbSymbolTable
70
1
0
ENDTAB
0
TABLE
2
BLOCK_RECORD
5
1
100
AcDbSymbolTable
70
1
0
BLOCK_RECORD
5
1F
100
AcDbSymbolTableRecord
100
AcDbBlockTableRecord
2
*MODEL_SPACE
0
BLOCK_RECORD
5
1B
100
AcDbSymbolTableRecord
100
AcDbBlockTableRecord
2
*PAPER_SPACE
0
ENDTAB
0
ENDSEC
0
SECTION
2
BLOCKS
0
BLOCK
5
20
100
AcDbEntity
100
AcDbBlockBegin
2
*MODEL_SPACE
0
ENDBLK
5
21
100
AcDbEntity
100
AcDbBlockEnd
0
BLOCK
5
1C
100
AcDbEntity
100
AcDbBlockBegin
2
*PAPER_SPACE
0
ENDBLK
5
1D
100
AcDbEntity
100
AcDbBlockEnd
0
ENDSEC
0
SECTION
2
ENTITIES
0
LWPOLYLINE
5
100
100
AcDbEntity
8
0
100
AcDbPolyline
90
122
70
1
43
0.0
10
-42.949999491077939
20
45.099987669814716
10
-41.124999999999972
20
45.099987669814716
42
-0.41421356237309503
10
-40.624999999999964
20
44.599987669814709
10
-40.624999999999986
20
31.599987669814702
42
-0.41421356237310542
10
-41.124999999999986
20
31.099987669814713
10
-54.124999999999979
20
31.099987669814713
42
-0.41421356237309503
10
-54.624999999999972
20
31.599987669814702
10
-54.624999999999972
20
44.599987669814709
42
-0.41421356237312623
10
-54.125
20
45.099987669814695
10
-45.949999490397992
20
45.099987669814716
10
-45.949999490670557
20
51.800007629589366
42
0.41421356232937045
10
-46.449999490660936
20
52.300007629524416
10
-48.742892709742485
20
52.30000762956859
42
0.19891236736924453
10
-49.0964461003244
20
52.153561020182849
10
-53.564233013679583
20
47.685774107357737
42
-0.19891236736424006
10
-54.978446575968789
20
47.099987669814723
10
-122.82155138892722
20
47.099987669814709
42
-0.19891236737674931
10
-124.23576495128449
20
47.685774107425772
10
-128.70355186418831
20
52.153561020229375
42
0.19891236746147001
10
-129.05710525494061
20
52.300007629632148
10
-131.34999847361269
20
52.300007628884657
42
0.41421356218529892
10
-131.84999847344966
20
51.800007629042206
10
-131.84999847417794
20
46.274948672037951
42
-0.99997383912033877
10
-134.84999847315129
20
46.274948183925908
10
-134.84999847406976
20
51.80000762970085
42
0.41421356226410616
10
-135.3499984740601
20
52.300007629524423
10
-137.64289169276921
20
52.300007629568626
42
0.19891236739281315
10
-137.99644508338321
20
52.153561020150825
10
-142.46423199576816
20
47.68577410748594
42
-0.19891236738779719
10
-143.87844555818555
20
47.099987669814738
10
-149.87499999999997
20
47.099987669814709
42
0.41421356237310025
10
-151.875
20
45.099987669814716
10
-151.875
20
-45.100012330185294
42
0.41421356237310281
10
-149.875
20
-47.100012330185272
10
-115.30835547877969
20
-47.100012330185251
42
-0.19891236738255572
10
-113.89414191639078
20
-47.685798767828004
10
-109.42637966429086
20
-52.153561020027794
42
0.19891236738633322
10
-109.07282627368639
20
-52.300007629438468
10
-106.77993307971461
20
-52.300007629405201
42
0.41421355989005543
10
-106.27993307972184
20
-51.800007633636795
10
-106.27993175505659
20
-46.275009979811834
42
-1.000380366948699
10
-103.27993218892857
20
-46.276150863555934
10
-103.27993305393039
20
-51.800007629570857
42
0.41421356226462647
10
-102.77993305394004
20
-52.300007629395267
10
-100.48703983471134
20
-52.300007629439506
42
0.19891236733988421
10
-100.13348644416939
20
-52.153561020093726
10
-95.665724190103589
20
-47.685798767568372
42
-0.19891236733484419
10
-94.251510627974326
20
-47.100012330185272
10
75.201510629000637
20
-47.100012330185315
42
-0.19891236740003382
10
76.615724191484475
20
-47.685798767922961
10
81.083486443041608
20
-52.153561020179815
42
0.19891236762437323
10
81.437039834094065
20
-52.300007629614271
10
83.729933053280519
20
-52.300007627635367
42
0.4142135619967432
10
84.229933052848992
20
-51.800007627846263
10
84.229936696707057
20
-46.275009979811664
42
-1.0006363272390952
10
87.229935482742889
20
-46.276918353774015
10
87.229933054069619
20
-51.800007629570821
42
0.41421356226459521
10
87.729933054060012
20
-52.30000762939531
10
90.022826273568057
20
-52.300007629439534
42
0.19891236740972118
10
90.376379664205047
20
-52.153561019998776
10
94.844141915395255
20
-47.685798767948349
42
-0.19891236740468149
10
96.258355477904416
20
-47.100012330185315
10
122.82157605000091
20
-47.100012330185301
42
-0.19891236740004167
10
124.23578961248494
20
-47.685798767923096
10
128.70355186386934
20
-52.153561020008027
42
0.19891236740878654
10
129.05710525450718
20
-52.30000762944244
10
131.34999847537696
20
-52.300007629365446
42
0.41421356233411544
10
131.84999847536011
20
-51.800007629415163
10
131.84999976090691
20
-46.275009979811514
42
-0.99999999999999989
10
134.84999976090688
20
-46.275009979811514
10
134.84999847507061
20
-51.800007630937358
42
0.41421356146416083
10
135.34999847506089
20
-52.30000762939531
10
137.64289169412183
20
-52.300007629439534
42
0.1989123673688637
10
137.9964450847034
20
-52.153561020054212
10
142.46420733757111
20
-47.685798767726723
42
-0.1989123673639604
10
143.87842089985872
20
-47.100012330185322
10
149.875
20
-47.100012330185308
42
0.41421356237312362
10
151.875
20
-45.100012330185336
10
151.875
20
45.099987669814681
42
0.41421356237309503
10
149.875
20
47.099987669814674
10
143.87844555967274
20
47.099987669814695
42
-0.19891236737676812
10
142.46423199731538
20
47.685774107425786
10
137.99644508447261
20
52.153561020168731
42
0.19891236738553841
10
137.64289169386655
20
52.300007629571475
10
135.34999844563328
20
52.300007629494658
42
0.41421356236324086
10
134.84999844564999
20
51.80000762949463
10
134.84999846877088
20
46.274801443617079
42
-0.99991618329478049
10
131.84999848174962
20
46.274922435358967
10
131.84999847318977
20
51.800007631630756
42
0.41421356032769657
10
131.34999847346546
20
52.300007628414669
10
129.05710525641371
20
52.30000762967876
42
0.19891236752531966
10
128.70355186554161
20
52.153561020268867
10
124.23576495280759
20
47.685774107454336
42
-0.19891236738197957
10
122.82155139042172
20
47.099987669814674
10
54.97844657668491
20
47.099987669814702
42
-0.19891236738841833
10
53.564233014264218
20
47.685774107489181
10
49.096446101901208
20
52.153561020152921
42
0.19891236739700216
10
48.742892711279211
20
52.300007629571546
10
46.449999492023295
20
52.300007629494694
42
0.41421356236165924
10
45.949999492040064
20
51.800007629497657
10
45.949999492027054
20
45.099987669814681
10
54.12500000000005
20
45.099987669814681
42
-0.41421356237309503
10
54.625000000000021
20
44.599987669814709
10
54.625000000000057
20
31.599987669814702
42
-0.41421356237315748
10
54.12500000000005
20
31.09998766981473
10
41.125000000000078
20
31.099987669814695
42
-0.41421356237310281
10
40.625000000000071
20
31.599987669814716
10
40.625000000000107
20
44.599987669814709
42
-0.41421356237311585
10
41.125000000000078
20
45.099987669814716
10
42.949999491634117
20
45.099987669814716
10
42.949999491634117
20
51.800007628414662
42
0.41421356221162003
10
42.449999491909693
20
52.300007628414669
10
40.157106273230525
20
52.30000762967876
42
0.19891236751904934
10
39.803552882366759
20
52.153561020277188
10
35.33576596938088
20
47.685774107421068
42
-0.1989123673758732
10
33.921552407028273
20
47.099987669814681
10
-33.921552406313928
20
47.099987669814709
42
-0.19891236738835533
10
-35.335765968734343
20
47.685774107488939
10
-39.803552881099264
20
52.153561020152992
42
0.19891236739706136
10
-40.157106271721133
20
52.300007629571553
10
-42.449999489866777
20
52.300007629494694
42
0.41421356228673328
10
-42.949999489850015
20
51.800007629625348
0
LWPOLYLINE
5
101
100
AcDbEntity
8
0
100
AcDbPolyline
90
4
70
1
43
0.0
10
89.47993512080285
20
-46.350012989781689
42
0.99999999999999989
10
89.479935120802907
20
-47.850012989781717
10
92.429934357136787
20
-47.850012989781732
42
0.99999999999999989
10
92.429934357136858
20
-46.35001298978171
0
LWPOLYLINE
5
102
100
AcDbEntity
8
0
100
AcDbPolyline
90
4
70
1
43
0.0
10
-101.02993231794019
20
-46.350012565076014
10
-98.079933081606015
20
-46.350012565076
42
-0.99999999999999989
10
-98.079933081606043
20
-47.850012565076021
10
-101.02993231794019
20
-47.850012565076042
42
-0.99999999999999989
0
LWPOLYLINE
5
103
100
AcDbEntity
8
0
100
AcDbPolyline
90
4
70
1
43
0.0
10
81.979936152599919
20
-47.850011670588835
10
79.029936916264987
20
-47.850011670588856
42
-0.99999999999999989
10
79.029936916265058
20
-46.350011670588827
10
81.979936152600004
20
-46.350011670588849
42
-0.99999999999999989
0
LWPOLYLINE
5
104
100
AcDbEntity
8
0
100
AcDbPolyline
90
4
70
1
43
0.0
10
-108.52993195285788
20
-47.85001197054747
42
0.99999999999999989
10
-108.52993195285784
20
-46.35001197054752
10
-111.47993118919203
20
-46.35001197054752
42
0.99999999999999989
10
-111.47993118919206
20
-47.85001197054747
0
LWPOLYLINE
5
105
100
AcDbEntity
8
0
100
AcDbPolyline
90
4
70
1
43
0.0
10
140.0499505489671
20
-47.85000762793036
10
137.0999513126331
20
-47.850007627930381
42
-0.99999999999999989
10
137.0999513126331
20
-46.350007627930353
10
140.0499505489671
20
-46.35000762793041
42
-0.99999999999999989
0
LWPOLYLINE
5
106
100
AcDbEntity
8
0
100
AcDbPolyline
90
4
70
1
43
0.0
10
126.64995094490003
20
-46.350007628130513
42
0.99999999999999989
10
126.64995094490003
20
-47.850007628130712
10
129.59995018123396
20
-47.85000762813057
42
0.99999999999999989
10
129.59995018123405
20
-46.350007628130626
0
LWPOLYLINE
5
107
100
AcDbEntity
8
0
100
AcDbPolyline
90
4
70
1
43
0.0
10
137.09998538456506
20
47.850007629639819
10
140.04998462089898
20
47.850007629639791
42
-0.99999999999999989
10
140.04998462089898
20
46.350007629639791
10
137.09998538456492
20
46.350007629639833
42
-0.99999999999999989
0
LWPOLYLINE
5
108
100
AcDbEntity
8
0
100
AcDbPolyline
90
4
70
1
43
0.0
10
126.64998501683307
20
47.850007629439659
10
129.59998425316695
20
47.850007629439666
42
-0.99999999999999989
10
129.59998425316695
20
46.350007629439666
10
126.649985016833
20
46.350007629439673
42
-0.99999999999999989
0
LWPOLYLINE
5
109
100
AcDbEntity
8
0
100
AcDbPolyline
90
4
70
1
43
0.0
10
37.749999902732974
20
47.850007629364633
42
0.99999999999999989
10
37.749999902732974
20
46.350007629364633
10
40.699999139066918
20
46.350007629364633
42
0.99999999999999989
10
40.699999139066989
20
47.850007629364626
0
LWPOLYLINE
5
110
100
AcDbEntity
8
0
100
AcDbPolyline
90
4
70
1
43
0.0
10
48.200000270465004
20
47.850007629564786
10
51.14999950679902
20
47.8500076295648
42
-0.99999999999999989
10
51.149999506798949
20
46.350007629564786
10
48.200000270465004
20
46.3500076295648
42
-0.99999999999999989
0
LWPOLYLINE
5
111
100
AcDbEntity
8
0
100
AcDbPolyline
90
4
70
1
43
0.0
10
-37.749999490900983
20
46.350007629764988
42
0.99999999999999989
10
-37.749999490900983
20
47.850007629764988
10
-40.699998727234963
20
47.850007629764988
42
0.99999999999999989
10
-40.699998727234963
20
46.350007629764995
0
LWPOLYLINE
5
112
100
AcDbEntity
8
0
100
AcDbPolyline
90
4
70
1
43
0.0
10
-48.199999858632978
20
46.350007629564828
42
0.99999999999999989
10
-48.199999858632978
20
47.850007629564828
10
-51.149999094966994
20
47.850007629564828
42
0.99999999999999989
10
-51.149999094966994
20
46.350007629564836
0
LWPOLYLINE
5
113
100
AcDbEntity
8
0
100
AcDbPolyline
90
4
70
1
43
0.0
10
-126.6499988699334
20
46.350007629364669
42
0.99999999999999989
10
-126.6499988699334
20
47.850007629364669
10
-129.59999810626758
20
47.850007629364669
42
0.99999999999999989
10
-129.59999810626758
20
46.350007629364676
0
LWPOLYLINE
5
114
100
AcDbEntity
8
0
100
AcDbPolyline
90
4
70
1
43
0.0
10
-140.04999847400012
20
47.850007629164537
10
-137.09999923766588
20
47.850007629164509
42
-0.99999999999999989
10
-137.09999923766588
20
46.350007629164509
10
-140.04999847400006
20
46.35000762916448
42
-0.99999999999999989
0
LWPOLYLINE
5
115
100
AcDbEntity
8
0
100
AcDbPolyline
90
20
70
1
43
0.0
10
98.275000000000034
20
45.099987669814681
42
0.41421356237316265
10
97.775000000000034
20
44.599987669814702
10
97.775000000000034
20
31.599987669814681
42
0.41421356237310281
10
98.275000000000034
20
31.099987669814695
10
98.862000000000023
20
31.099987669814695
10
98.862000000000023
20
29.599987669814688
42
0.41421356237310281
10
99.362000000000023
20
29.099987669814666
10
105.36200000000008
20
29.099987669814702
42
0.41421356237313667
10
105.86200000000008
20
29.599987669814709
10
105.86200000000002
20
31.099987669814695
10
122.73800000000001
20
31.099987669814695
10
122.73800000000001
20
29.599987669814695
42
0.41421356237306639
10
123.23800000000006
20
29.099987669814702
10
129.238
20
29.099987669814702
42
0.41421356237313667
10
129.738
20
29.599987669814709
10
129.738
20
31.099987669814695
10
130.32500000000005
20
31.099987669814659
42
0.41421356237311585
10
130.82500000000007
20
31.599987669814702
10
130.82500000000005
20
44.599987669814702
42
0.41421356237320428
10
130.32500000000005
20
45.099987669814716
0
LWPOLYLINE
5
116
100
AcDbEntity
8
0
100
AcDbPolyline
90
17
70
1
43
0.0
10
-3.0634708033950275
20
-29.100012330185319
42
0.41421356237310025
10
-3.5634708033949813
20
-29.60001233018528
10
-3.5634708033949991
20
-31.100012330185276
10
-32.691250000000025
20
-31.100012330185294
42
0.41421356237307422
10
-33.191250000000032
20
-31.600012330185265
10
-33.191250000000011
20
-44.600012330185294
42
0.41421356237311585
10
-32.691250000000025
20
-45.100012330185315
10
31.56875000000003
20
-45.100012330185294
42
0.41421356237313667
10
32.068750000000037
20
-44.600012330185294
10
32.068750000000136
20
-29.600444449898706
42
0.41421356237316787
10
31.56875000000003
20
-29.100444449898681
10
20.81252919660507
20
-29.100444449898699
42
0.41421356237306384
10
20.312529196605027
20
-29.600444449898689
10
20.312529196605027
20
-31.100012330185276
10
8.1995291966050132
20
-31.100012330185276
10
8.199529196605031
20
-29.600012330185272
42
0.41421356237315748
10
7.6995291966050416
20
-29.100012330185319
0
LWPOLYLINE
5
117
100
AcDbEntity
8
0
100
AcDbPolyline
90
8
70
1
43
0.0
10
-123.68125104905519
20
-44.600012330185272
42
0.41421356237309503
10
-123.18125104905521
20
-45.100012330185308
10
-107.79993305418009
20
-45.100012330185294
42
0.41421356237309503
10
-107.29993305418009
20
-44.600012330185272
10
-107.29993305418009
20
-31.599994019645266
42
0.41421356237309503
10
-107.7999330541801
20
-31.099994019645258
10
-123.18125104905519
20
-31.099994019645266
42
0.41421356237309503
10
-123.68125104905519
20
-31.599994019645266
0
LWPOLYLINE
5
118
100
AcDbEntity
8
0
100
AcDbPolyline
90
8
70
1
43
0.0
10
-146.99375021457965
20
-31.099994019645258
10
-131.61243305420018
20
-31.099994019645258
42
-0.41421356237310025
10
-131.11243305420021
20
-31.599994019645258
10
-131.11243305513048
20
-44.600012330185272
42
-0.41421356237310542
10
-131.61243305420018
20
-45.100012329254966
10
-146.99375021457965
20
-45.100012330185294
42
-0.41421356237310542
10
-147.49375021457965
20
-44.600012330185272
10
-147.49375021457962
20
-31.599994019645266
42
-0.4142135623730846
0
LWPOLYLINE
5
119
100
AcDbEntity
8
0
100
AcDbPolyline
90
14
70
1
43
0.0
10
-50.561477655069993
20
-29.096580796755411
10
-39.798956497670019
20
-29.096580796755376
42
-0.41421356237311585
10
-39.298956497670012
20
-29.596580796755418
10
-39.298956497670012
20
-44.600006226695271
42
-0.41421356237309503
10
-39.798956497670019
20
-45.100006226695285
10
-74.437445360610099
20
-45.100006226695285
42
-0.41421338946884612
10
-74.937445360610027
20
-44.600006521861282
10
-74.937454217610636
20
-29.596581091931569
42
-0.41421373527733385
10
-74.437454217610679
20
-29.096580796765576
10
-63.674933060200232
20
-29.096580796765661
42
-0.41421356237310542
10
-63.174933060200203
20
-29.596580796765632
10
-63.174933060200189
20
-31.099994019645258
10
-51.06147765507
20
-31.099994019645258
10
-51.061477655069964
20
-29.596580796755418
42
-0.41421356237311585
0
LWPOLYLINE
5
120
100
AcDbEntity
8
0
100
AcDbPolyline
90
8
70
1
43
0.0
10
149.875
20
-31.600012330185283
42
0.41421356237316787
10
149.375
20
-31.100012330185287
10
136.375
20
-31.100012330185223
42
0.41421356237303258
10
135.87500000000003
20
-31.600012330185301
10
135.87500000000003
20
-44.600012330185308
42
0.41421356237309503
10
136.375
20
-45.10001233018528
10
149.37500000000011
20
-45.100012330185294
42
0.41421356237298057
10
149.875
20
-44.600012330185308
0
LWPOLYLINE
5
121
100
AcDbEntity
8
0
100
AcDbPolyline
90
8
70
1
43
0.0
10
135.87500000000003
20
-25.550012330185297
10
135.87500000000003
20
-12.550012330185307
42
-0.41421356237307422
10
136.375
20
-12.0500123301853
10
149.375
20
-12.050012330185282
42
-0.4142135623732251
10
149.875
20
-12.550012330185298
10
149.875
20
-25.550012330185297
42
-0.41421356237311585
10
149.375
20
-26.050012330185339
10
136.375
20
-26.050012330185357
42
-0.41421356237306384
0
LWPOLYLINE
5
122
100
AcDbEntity
8
0
100
AcDbPolyline
90
8
70
1
43
0.0
10
77.937500000000028
20
-26.050012330185304
42
0.41421356237310025
10
78.437500000000114
20
-25.550012330185289
10
78.437500000000114
20
-12.550012330185298
42
0.41421356237310025
10
77.937500000000028
20
-12.050012330185282
10
64.937500000000028
20
-12.050012330185282
42
0.41421356237307422
10
64.437500000000057
20
-12.550012330185289
10
64.437500000000099
20
-25.550012330185297
42
0.41421356237309503
10
64.937500000000028
20
-26.050012330185286
0
LWPOLYLINE
5
123
100
AcDbEntity
8
0
100
AcDbPolyline
90
8
70
1
43
0.0
10
45.387500000000074
20
-25.550012330185297
10
45.387500000000038
20
-12.550012330185289
42
-0.41421356237307422
10
45.88750000000001
20
-12.050012330185282
10
58.887500000000017
20
-12.050012330185291
42
-0.41421356237314705
10
59.387500000000017
20
-12.550012330185307
10
59.387500000000024
20
-25.550012330185297
42
-0.41421356237310542
10
58.887500000000017
20
-26.050012330185321
10
45.88750000000001
20
-26.050012330185304
42
-0.41421356237309503
0
LWPOLYLINE
5
124
100
AcDbEntity
8
0
100
AcDbPolyline
90
8
70
1
43
0.0
10
26.337500000000027
20
-25.550012330185279
10
26.337500000000027
20
-12.550012330185289
42
-0.41421356237307422
10
26.837500000000034
20
-12.050012330185247
10
39.837500000000041
20
-12.050012330185309
42
-0.41421356237309503
10
40.337500000000091
20
-12.550012330185289
10
40.337500000000084
20
-25.550012330185297
42
-0.41421356237309503
10
39.837500000000041
20
-26.050012330185268
10
26.837500000000034
20
-26.050012330185339
42
-0.41421356237312623
0
LWPOLYLINE
5
125
100
AcDbEntity
8
0
100
AcDbPolyline
90
8
70
1
43
0.0
10
7.2874999999999801
20
-25.550012330185279
10
7.2875000000000245
20
-12.550012330185289
42
-0.41421356237307422
10
7.7874999999999872
20
-12.050012330185291
10
20.78750000000003
20
-12.050012330185282
42
-0.41421356237301177
10
21.287500000000037
20
-12.550012330185289
10
21.287500000000009
20
-25.550012330185279
42
-0.4142135623730222
10
20.78750000000003
20
-26.050012330185275
10
7.7875000000000227
20
-26.050012330185375
42
-0.4142135623730846
0
LWPOLYLINE
5
126
100
AcDbEntity
8
0
100
AcDbPolyline
90
8
70
1
43
0.0
10
1.7375000000000007
20
-26.050012330185286
42
0.41421356237308982
10
2.2375000000000433
20
-25.550012330185289
10
2.2375000000000433
20
-12.550012330185298
42
0.41421356237307944
10
1.7375000000000185
20
-12.050012330185282
10
-11.262499999999989
20
-12.050012330185282
42
0.41421356237313667
10
-11.762499999999996
20
-12.550012330185289
10
-11.76250000000004
20
-25.550012330185268
42
0.41421356237311063
10
-11.262500000000024
20
-26.050012330185321
0
LWPOLYLINE
5
127
100
AcDbEntity
8
0
100
AcDbPolyline
90
8
70
1
43
0.0
10
-17.312499999999993
20
-26.050012330185286
10
-30.3125
20
-26.050012330185311
42
-0.41421356237311063
10
-30.812500000000014
20
-25.550012330185268
10
-30.812499999999972
20
-12.550012330185289
42
-0.41421356237313667
10
-30.312499999999964
20
-12.050012330185282
10
-17.312499999999993
20
-12.0500123301853
42
-0.41421356237307422
10
-16.812499999999968
20
-12.550012330185289
10
-16.812499999999986
20
-25.550012330185279
42
-0.41421356237309503
0
LWPOLYLINE
5
128
100
AcDbEntity
8
0
100
AcDbPolyline
90
8
70
1
43
0.0
10
-36.362500000000004
20
-26.050012330185268
10
-49.362500000000011
20
-26.050012330185339
42
-0.41421356237310025
10
-49.862499999999997
20
-25.550012330185268
10
-49.86249999999999
20
-12.550012330185289
42
-0.41421356237312623
10
-49.362499999999997
20
-12.050012330185274
10
-36.362500000000004
20
-12.050012330185282
42
-0.4142135623730846
10
-35.862499999999983
20
-12.550012330185289
10
-35.862500000000033
20
-25.550012330185279
42
-0.41421356237306384
0
LWPOLYLINE
5
129
100
AcDbEntity
8
0
100
AcDbPolyline
90
8
70
1
43
0.0
10
-68.412500000000023
20
-12.050012330185282
10
-55.41249999999998
20
-12.0500123301853
42
-0.41421356237309503
10
-54.912499999999994
20
-12.550012330185289
10
-54.912500000000009
20
-25.550012330185261
42
-0.41421356237313667
10
-55.412500000000016
20
-26.050012330185268
10
-68.412500000000023
20
-26.050012330185275
42
-0.41421356237306384
10
-68.912500000000009
20
-25.550012330185279
10
-68.912499999999994
20
-12.550012330185289
42
-0.41421356237311585
0
LWPOLYLINE
5
130
100
AcDbEntity
8
0
100
AcDbPolyline
90
8
70
1
43
0.0
10
-73.962500000000006
20
-12.550012330185289
10
-73.962500000000006
20
-25.550012330185261
42
-0.41421356237308982
10
-74.462500000000006
20
-26.050012330185268
10
-87.462500000000006
20
-26.050012330185268
42
-0.41421356237313667
10
-87.962500000000006
20
-25.550012330185261
10
-87.962500000000006
20
-12.550012330185289
42
-0.41421356237313667
10
-87.462500000000006
20
-12.050012330185291
10
-74.462500000000006
20
-12.050012330185291
42
-0.41421356237309503
0
LWPOLYLINE
5
131
100
AcDbEntity
8
0
100
AcDbPolyline
90
8
70
1
43
0.0
10
-93.51249999999996
20
-26.050012330185275
42
0.41421356237310542
10
-93.012499999999989
20
-25.550012330185279
10
-93.012499999999989
20
-12.550012330185272
42
0.41421356237311585
10
-93.512499999999989
20
-12.050012330185282
10
-106.51250000000002
20
-12.050012330185291
42
0.41421356237309503
10
-107.0125
20
-12.550012330185289
10
-107.0125
20
-25.550012330185268
42
0.41421356237307944
10
-106.51250000000002
20
-26.050012330185268
0
LWPOLYLINE
5
132
100
AcDbEntity
8
0
100
AcDbPolyline
90
8
70
1
43
0.0
10
149.37500000000003
20
-7.0000123301853279
10
136.375
20
-7.0000123301853101
42
-0.41421356237310025
10
135.87500000000003
20
-6.5000123301853296
10
135.87500000000003
20
6.4999876698146863
42
-0.41421356237303258
10
136.375
20
6.9999876698147645
10
149.375
20
6.999987669814729
42
-0.41421356237320428
10
149.875
20
6.4999876698146952
10
149.875
20
-6.5000123301853208
42
-0.41421356237311585
0
LWPOLYLINE
5
133
100
AcDbEntity
8
0
100
AcDbPolyline
90
8
70
1
43
0.0
10
87.462500000000063
20
-7.0000123301853101
42
0.41421356237310542
10
87.962500000000034
20
-6.5000123301853208
10
87.962500000000034
20
6.4999876698146952
42
0.41421356237315227
10
87.462500000000034
20
6.999987669814729
10
74.462500000000034
20
6.9999876698147645
42
0.4142135623730222
10
73.962500000000063
20
6.4999876698147041
10
73.962500000000063
20
-6.5000123301853119
42
0.41421356237310025
10
74.462500000000034
20
-7.0000123301852923
0
LWPOLYLINE
5
134
100
AcDbEntity
8
0
100
AcDbPolyline
90
8
70
1
43
0.0
10
68.412500000000051
20
-7.0000123301853101
42
0.41421356237310542
10
68.912500000000023
20
-6.5000123301853208
10
68.912500000000023
20
6.4999876698146952
42
0.41421356237315227
10
68.412500000000023
20
6.999987669814729
10
55.412500000000016
20
6.9999876698147645
42
0.4142135623730222
10
54.912500000000044
20
6.4999876698147041
10
54.912500000000051
20
-6.5000123301853119
42
0.41421356237310025
10
55.412500000000016
20
-7.0000123301852923
0
LWPOLYLINE
5
135
100
AcDbEntity
8
0
100
AcDbPolyline
90
8
70
1
43
0.0
10
49.862500000000018
20
6.4999876698146952
42
0.41421356237313145
10
49.362500000000011
20
6.9999876698146934
10
36.362500000000004
20
6.9999876698146846
42
0.41421356237301177
10
35.862500000000033
20
6.4999876698147041
10
35.862499999999997
20
-6.5000123301853208
42
0.41421356237315748
10
36.362500000000004
20
-7.0000123301852923
10
49.362500000000011
20
-7.0000123301852923
42
0.41421356237318868
10
49.862500000000018
20
-6.5000123301853208
0
LWPOLYLINE
5
136
100
AcDbEntity
8
0
100
AcDbPolyline
90
8
70
1
43
0.0
10
17.312499999999957
20
6.9999876698147467
10
30.312500000000071
20
6.9999876698147112
42
-0.41421356237307422
10
30.812500000000043
20
6.4999876698147041
10
30.812500000000043
20
-6.5000123301853208
42
-0.41421356237311585
10
30.312500000000071
20
-7.0000123301852568
10
17.312500000000064
20
-7.0000123301853279
42
-0.41421356237320428
10
16.812500000000021
20
-6.5000123301853119
10
16.812500000000021
20
6.4999876698147219
42
-0.41421356237310542
0
LWPOLYLINE
5
137
100
AcDbEntity
8
0
100
AcDbPolyline
90
8
70
1
43
0.0
10
11.26250000000006
20
-7.0000123301852746
42
0.41421356237318868
10
11.762500000000085
20
-6.500012330185303
10
11.762500000000067
20
6.499987669814713
42
0.41421356237313145
10
11.26250000000006
20
6.9999876698147112
10
-1.7374999999999829
20
6.9999876698147112
42
0.4142135623730846
10
-2.2374999999999901
20
6.4999876698147219
10
-2.2374999999999901
20
-6.5000123301853119
42
0.41421356237308982
10
-1.7374999999999829
20
-7.0000123301853101
0
LWPOLYLINE
5
138
100
AcDbEntity
8
0
100
AcDbPolyline
90
8
70
1
43
0.0
10
-21.287499999999966
20
-6.5000123301853208
10
-21.287499999999966
20
6.4999876698147219
42
-0.4142135623730846
10
-20.787499999999959
20
6.9999876698147112
10
-7.7874999999999872
20
6.999987669814729
42
-0.41421356237305862
10
-7.2874999999999801
20
6.499987669814713
10
-7.2874999999999801
20
-6.5000123301853208
42
-0.41421356237303258
10
-7.7874999999999872
20
-7.0000123301852923
10
-20.787499999999959
20
-7.0000123301853101
42
-0.4142135623730846
0
LWPOLYLINE
5
139
100
AcDbEntity
8
0
100
AcDbPolyline
90
8
70
1
43
0.0
10
-26.337499999999991
20
6.4999876698147219
10
-26.337499999999991
20
-6.5000123301853208
42
-0.41421356237307422
10
-26.837499999999999
20
-7.0000123301852923
10
-39.83749999999997
20
-7.0000123301853101
42
-0.41421356237308982
10
-40.337499999999977
20
-6.5000123301853119
10
-40.337499999999977
20
6.4999876698147219
42
-0.41421356237307422
10
-39.83749999999997
20
6.9999876698146934
10
-26.837499999999999
20
6.999987669814729
42
-0.4142135623730534
0
LWPOLYLINE
5
140
100
AcDbEntity
8
0
100
AcDbPolyline
90
8
70
1
43
0.0
10
-59.387499999999996
20
-6.5000123301852941
42
0.41421356237305862
10
-58.887500000000003
20
-7.0000123301852657
10
-45.88749999999996
20
-7.0000123301852923
42
0.4142135623730846
10
-45.387499999999967
20
-6.500012330185303
10
-45.387499999999974
20
6.499987669814713
42
0.41421356237312101
10
-45.887499999999939
20
6.999987669814729
10
-58.887500000000003
20
6.9999876698146934
42
0.41421356237314705
10
-59.387499999999989
20
6.4999876698147219
0
LWPOLYLINE
5
141
100
AcDbEntity
8
0
100
AcDbPolyline
90
8
70
1
43
0.0
10
-64.437499999999972
20
6.4999876698147219
42
0.41421356237311585
10
-64.937499999999972
20
6.9999876698147112
10
-77.9375
20
6.999987669814729
42
0.41421356237308982
10
-78.437499999999986
20
6.4999876698147219
10
-78.437499999999986
20
-6.500012330185303
42
0.41421356237312623
10
-77.9375
20
-7.0000123301852923
10
-64.937499999999972
20
-7.0000123301852923
42
0.41421356237311585
10
-64.437499999999972
20
-6.500012330185303
0
LWPOLYLINE
5
142
100
AcDbEntity
8
0
100
AcDbPolyline
90
8
70
1
43
0.0
10
-97.487499999999997
20
-6.5000123301852941
42
0.41421356237308982
10
-96.987500000000011
20
-7.0000123301852746
10
-83.987499999999997
20
-7.0000123301852835
42
0.41421356237312623
10
-83.487500000000011
20
-6.500012330185303
10
-83.487499999999983
20
6.4999876698147219
42
0.41421356237309503
10
-83.987499999999997
20
6.999987669814729
10
-96.987499999999983
20
6.9999876698147112
42
0.41421356237306384
10
-97.487499999999997
20
6.4999876698147219
0
LWPOLYLINE
5
143
100
AcDbEntity
8
0
100
AcDbPolyline
90
8
70
1
43
0.0
10
-103.03750000000001
20
-7.0000123301852835
42
0.41421356237312101
10
-102.53749999999999
20
-6.5000123301853119
10
-102.53749999999999
20
6.4999876698147219
42
0.41421356237309503
10
-103.03750000000001
20
6.999987669814729
10
-116.03749999999999
20
6.999987669814729
42
0.4142135623730846
10
-116.53749999999999
20
6.4999876698147219
10
-116.53749999999999
20
-6.500012330185303
42
0.4142135623730846
10
-116.03749999999999
20
-7.0000123301852923
0
LWPOLYLINE
5
144
100
AcDbEntity
8
0
100
AcDbPolyline
90
8
70
1
43
0.0
10
135.87500000000003
20
12.549987669814699
42
0.41421356237310025
10
136.375
20
12.049987669814719
10
149.375
20
12.04998766981468
42
0.41421356237313667
10
149.875
20
12.549987669814691
10
149.875
20
25.549987669814712
42
0.41421356237314966
10
149.375
20
26.04998766981474
10
136.375
20
26.049987669814708
42
0.4142135623730534
10
135.87500000000006
20
25.549987669814698
0
LWPOLYLINE
5
145
100
AcDbEntity
8
0
100
AcDbPolyline
90
8
70
1
43
0.0
10
102.25000000000001
20
25.549987669814698
10
102.25000000000006
20
12.549987669814691
42
-0.41421356237303258
10
101.75000000000009
20
12.049987669814612
10
88.750000000000114
20
12.049987669814683
42
-0.414213562373069
10
88.250000000000057
20
12.549987669814682
10
88.250000000000028
20
25.549987669814698
42
-0.41421356237311585
10
88.750000000000114
20
26.049987669814669
10
101.75000000000009
20
26.049987669814669
42
-0.41421356237307422
0
LWPOLYLINE
5
146
100
AcDbEntity
8
0
100
AcDbPolyline
90
8
70
1
43
0.0
10
69.700000000000017
20
26.049987669814701
42
0.41421356237312884
10
69.200000000000017
20
25.549987669814712
10
69.200000000000017
20
12.549987669814708
42
0.41421356237312623
10
69.700000000000017
20
12.049987669814719
10
82.700000000000031
20
12.04998766981468
42
0.41421356237313667
10
83.200000000000045
20
12.549987669814691
10
83.200000000000045
20
25.549987669814698
42
0.41421356237313667
10
82.700000000000031
20
26.049987669814705
0
LWPOLYLINE
5
147
100
AcDbEntity
8
0
100
AcDbPolyline
90
8
70
1
43
0.0
10
64.150000000000034
20
25.549987669814694
42
0.41421356237309764
10
63.650000000000055
20
26.049987669814669
10
50.650000000000084
20
26.049987669814705
42
0.41421356237307422
10
50.150000000000041
20
25.549987669814698
10
50.150000000000041
20
12.549987669814691
42
0.41421356237307422
10
50.650000000000084
20
12.049987669814683
10
63.650000000000055
20
12.049987669814698
42
0.41421356237309503
10
64.150000000000063
20
12.549987669814691
0
LWPOLYLINE
5
148
100
AcDbEntity
8
0
100
AcDbPolyline
90
8
70
1
43
0.0
10
45.100000000000016
20
25.549987669814698
10
45.100000000000037
20
12.549987669814691
42
-0.41421356237309503
10
44.600000000000044
20
12.049987669814698
10
31.600000000000037
20
12.049987669814683
42
-0.41421356237313667
10
31.10000000000003
20
12.549987669814691
10
31.100000000000016
20
25.549987669814698
42
-0.41421356237315748
10
31.600000000000037
20
26.049987669814683
10
44.600000000000044
20
26.049987669814669
42
-0.41421356237309503
0
LWPOLYLINE
5
149
100
AcDbEntity
8
0
100
AcDbPolyline
90
8
70
1
43
0.0
10
12.050000000000018
20
12.549987669814691
42
0.41421356237307422
10
12.550000000000061
20
12.049987669814683
10
25.549999999999997
20
12.049987669814683
42
0.41421356237309503
10
26.050000000000004
20
12.549987669814691
10
26.050000000000004
20
25.549987669814726
42
0.4142135623732251
10
25.549999999999997
20
26.04998766981474
10
12.550000000000061
20
26.049987669814705
42
0.41421356237307422
10
12.050000000000018
20
25.549987669814698
0
LWPOLYLINE
5
150
100
AcDbEntity
8
0
100
AcDbPolyline
90
8
70
1
43
0.0
10
-6.4999999999999858
20
26.049987669814705
10
6.5000000000000213
20
26.049987669814705
42
-0.41421356237309503
10
7.0000000000000284
20
25.549987669814698
10
7.0000000000000329
20
12.549987669814726
42
-0.41421356237309503
10
6.5000000000000213
20
12.049987669814715
10
-6.4999999999999858
20
12.049987669814683
42
-0.41421356237305862
10
-6.9999999999999929
20
12.549987669814699
10
-6.9999999999999574
20
25.549987669814698
42
-0.41421356237307422
0
LWPOLYLINE
5
151
100
AcDbEntity
8
0
100
AcDbPolyline
90
8
70
1
43
0.0
10
-12.049999999999983
20
25.549987669814698
10
-12.049999999999979
20
12.549987669814726
42
-0.41421356237309503
10
-12.54999999999999
20
12.049987669814715
10
-25.549999999999997
20
12.049987669814683
42
-0.41421356237305862
10
-26.050000000000004
20
12.549987669814699
10
-26.049999999999962
20
25.549987669814698
42
-0.41421356237307422
10
-25.549999999999997
20
26.049987669814698
10
-12.54999999999999
20
26.049987669814705
42
-0.41421356237309503
0
LWPOLYLINE
5
152
100
AcDbEntity
8
0
100
AcDbPolyline
90
8
70
1
43
0.0
10
-44.599999999999973
20
26.049987669814705
10
-31.599999999999966
20
26.04998766981474
42
-0.4142135623730378
10
-31.099999999999994
20
25.549987669814726
10
-31.100000000000001
20
12.549987669814726
42
-0.41421356237307422
10
-31.600000000000001
20
12.049987669814692
10
-44.599999999999973
20
12.049987669814719
42
-0.41421356237309243
10
-45.09999999999998
20
12.549987669814723
10
-45.100000000000016
20
25.549987669814698
42
-0.41421356237311585
0
LWPOLYLINE
5
153
100
AcDbEntity
8
0
100
AcDbPolyline
90
8
70
1
43
0.0
10
-63.649999999999984
20
26.049987669814723
42
0.41421356237313667
10
-64.149999999999977
20
25.549987669814733
10
-64.150000000000006
20
12.549987669814699
42
0.41421356237307944
10
-63.649999999999984
20
12.049987669814719
10
-50.649999999999977
20
12.049987669814719
42
0.41421356237309503
10
-50.14999999999997
20
12.549987669814726
10
-50.14999999999997
20
25.549987669814698
42
0.41421356237309503
10
-50.649999999999977
20
26.04998766981474
0
LWPOLYLINE
5
154
100
AcDbEntity
8
0
100
AcDbPolyline
90
8
70
1
43
0.0
10
-69.199999999999989
20
25.549987669814715
42
0.41421356237311585
10
-69.699999999999974
20
26.049987669814705
10
-82.699999999999989
20
26.049987669814698
42
0.41421356237307422
10
-83.199999999999989
20
25.549987669814733
10
-83.199999999999989
20
12.549987669814708
42
0.41421356237310542
10
-82.699999999999989
20
12.049987669814719
10
-69.699999999999974
20
12.049987669814683
42
0.41421356237306384
10
-69.199999999999989
20
12.549987669814726
0
LWPOLYLINE
5
155
100
AcDbEntity
8
0
100
AcDbPolyline
90
8
70
1
43
0.0
10
-101.74999999999997
20
26.049987669814705
10
-88.749999999999972
20
26.049987669814723
42
-0.41421356237308982
10
-88.25
20
25.549987669814726
10
-88.25
20
12.549987669814726
42
-0.41421356237309503
10
-88.749999999999986
20
12.049987669814728
10
-101.74999999999997
20
12.049987669814701
42
-0.41421356237307944
10
-102.24999999999997
20
12.549987669814717
10
-102.24999999999996
20
25.549987669814733
42
-0.41421356237310542
0
LWPOLYLINE
5
156
100
AcDbEntity
8
0
100
AcDbPolyline
90
8
70
1
43
0.0
10
-121.29999999999998
20
12.549987669814726
10
-121.29999999999998
20
25.549987669814733
42
-0.4142135623730846
10
-120.79999999999998
20
26.049987669814698
10
-107.79999999999998
20
26.04998766981474
42
-0.41421356237308721
10
-107.29999999999998
20
25.54998766981473
10
-107.29999999999998
20
12.549987669814726
42
-0.41421356237309503
10
-107.8
20
12.049987669814719
10
-120.8
20
12.049987669814719
42
-0.4142135623730846
0
LWPOLYLINE
5
157
100
AcDbEntity
8
0
100
AcDbPolyline
90
8
70
1
43
0.0
10
-131.11250000000001
20
25.549987669814733
10
-131.11249999999998
20
12.549987669814726
42
-0.41421356237309503
10
-131.61249999999998
20
12.049987669814719
10
-144.61250000000001
20
12.049987669814719
42
-0.41421356237309243
10
-145.11250000000001
20
12.549987669814723
10
-145.11249999999998
20
25.549987669814733
42
-0.41421356237310542
10
-144.61249999999998
20
26.049987669814723
10
-131.61249999999998
20
26.049987669814687
42
-0.41421356237307422
0
LWPOLYLINE
5
158
100
AcDbEntity
8
0
100
AcDbPolyline
90
8
70
1
43
0.0
10
135.87500000000003
20
31.599987669814706
42
0.41421356237309764
10
136.375
20
31.09998766981473
10
149.375
20
31.099987669814695
42
0.41421356237313667
10
149.875
20
31.599987669814702
10
149.87499999999997
20
44.599987669814702
42
0.41421356237320428
10
149.375
20
45.099987669814716
10
136.375
20
45.099987669814716
42
0.41421356237307422
10
135.87500000000003
20
44.599987669814709
0
LWPOLYLINE
5
159
100
AcDbEntity
8
0
100
AcDbPolyline
90
8
70
1
43
0.0
10
92.225000000000108
20
31.099987669814681
42
0.41421356237302481
10
92.725000000000023
20
31.599987669814688
10
92.725000000000051
20
44.599987669814702
42
0.41421356237316265
10
92.225000000000108
20
45.099987669814681
10
79.225000000000023
20
45.099987669814681
42
0.41421356237303258
10
78.725000000000023
20
44.599987669814709
10
78.725000000000023
20
31.599987669814706
42
0.41421356237313928
10
79.225000000000023
20
31.099987669814695
0
LWPOLYLINE
5
160
100
AcDbEntity
8
0
100
AcDbPolyline
90
8
70
1
43
0.0
10
59.675000000000011
20
31.599987669814706
42
0.41421356237313928
10
60.175000000000018
20
31.099987669814695
10
73.175000000000026
20
31.099987669814677
42
0.41421356237311585
10
73.674999999999997
20
31.599987669814702
10
73.67500000000004
20
44.599987669814709
42
0.41421356237313667
10
73.175000000000026
20
45.099987669814716
10
60.175000000000018
20
45.099987669814681
42
0.41421356237303258
10
59.675000000000011
20
44.599987669814709
0
LWPOLYLINE
5
161
100
AcDbEntity
8
0
100
AcDbPolyline
90
8
70
1
43
0.0
10
21.57500000000006
20
31.599987669814706
42
0.41421356237313928
10
22.075000000000067
20
31.099987669814695
10
35.075000000000003
20
31.099987669814677
42
0.41421356237311585
10
35.574999999999974
20
31.599987669814702
10
35.57500000000001
20
44.599987669814709
42
0.41421356237313667
10
35.075000000000003
20
45.099987669814716
10
22.075000000000067
20
45.099987669814681
42
0.41421356237303258
10
21.57500000000006
20
44.599987669814709
0
LWPOLYLINE
5
162
100
AcDbEntity
8
0
100
AcDbPolyline
90
8
70
1
43
0.0
10
2.5250000000000128
20
31.599987669814706
42
0.41421356237305601
10
3.0250000000000199
20
31.099987669814695
10
16.025000000000027
20
31.09998766981473
42
0.41421356237303258
10
16.525000000000034
20
31.599987669814702
10
16.525000000000034
20
44.599987669814695
42
0.41421356237312623
10
16.025000000000027
20
45.099987669814681
10
3.0250000000000199
20
45.099987669814709
42
0.4142135623730534
10
2.5250000000000128
20
44.599987669814709
0
LWPOLYLINE
5
163
100
AcDbEntity
8
0
100
AcDbPolyline
90
8
70
1
43
0.0
10
-3.0249999999999844
20
31.09998766981473
10
-16.024999999999991
20
31.099987669814695
42
-0.41421356237305601
10
-16.524999999999999
20
31.599987669814706
10
-16.524999999999991
20
44.599987669814709
42
-0.4142135623730534
10
-16.024999999999991
20
45.099987669814709
10
-3.0249999999999844
20
45.099987669814716
42
-0.41421356237309503
10
-2.5249999999999773
20
44.599987669814709
10
-2.5250000000000128
20
31.599987669814702
42
-0.41421356237309503
0
LWPOLYLINE
5
164
100
AcDbEntity
8
0
100
AcDbPolyline
90
8
70
1
43
0.0
10
-35.074999999999967
20
45.099987669814723
42
0.41421356237314705
10
-35.574999999999946
20
44.599987669814723
10
-35.57499999999996
20
31.599987669814716
42
0.41421356237310281
10
-35.074999999999967
20
31.099987669814695
10
-22.075000000000014
20
31.099987669814713
42
0.41421356237310542
10
-21.574999999999989
20
31.599987669814702
10
-21.574999999999989
20
44.599987669814709
42
0.41421356237309503
10
-22.074999999999996
20
45.099987669814716
0
LWPOLYLINE
5
165
100
AcDbEntity
8
0
100
AcDbPolyline
90
8
70
1
43
0.0
10
-60.174999999999983
20
31.09998766981473
10
-73.175000000000011
20
31.099987669814713
42
-0.41421356237306384
10
-73.675000000000011
20
31.599987669814709
10
-73.675000000000011
20
44.599987669814709
42
-0.41421356237309503
10
-73.175000000000011
20
45.099987669814709
10
-60.174999999999983
20
45.099987669814709
42
-0.41421356237313145
10
-59.674999999999983
20
44.599987669814716
10
-59.674999999999976
20
31.599987669814702
42
-0.41421356237307422
0
LWPOLYLINE
5
166
100
AcDbEntity
8
0
100
AcDbPolyline
90
8
70
1
43
0.0
10
-78.725000000000009
20
44.599987669814709
10
-78.725000000000009
20
31.599987669814738
42
-0.41421356237311585
10
-79.225000000000009
20
31.099987669814702
10
-92.224999999999994
20
31.099987669814713
42
-0.41421356237310281
10
-92.724999999999994
20
31.599987669814716
10
-92.725000000000009
20
44.599987669814709
42
-0.41421356237311585
10
-92.224999999999994
20
45.099987669814745
10
-79.225000000000009
20
45.099987669814709
42
-0.41421356237309503
0
LWPOLYLINE
5
167
100
AcDbEntity
8
0
100
AcDbPolyline
90
8
70
1
43
0.0
10
-111.27499999999999
20
45.099987669814716
10
-98.274999999999977
20
45.099987669814695
42
-0.41421356237312623
10
-97.775000000000006
20
44.599987669814709
10
-97.775000000000006
20
31.599987669814738
42
-0.41421356237307422
10
-98.274999999999977
20
31.099987669814723
10
-111.27499999999998
20
31.099987669814713
42
-0.414213562373069
10
-111.77500000000001
20
31.599987669814709
10
-111.77500000000001
20
44.599987669814709
42
-0.41421356237309503
0
LWPOLYLINE
5
168
100
AcDbEntity
8
0
100
AcDbPolyline
90
8
70
1
43
0.0
10
-116.82499999999997
20
44.599987669814709
10
-116.82499999999997
20
31.599987669814738
42
-0.41421356237309503
10
-117.32499999999999
20
31.09998766981473
10
-130.32499999999999
20
31.099987669814748
42
-0.41421356237309764
10
-130.82499999999999
20
31.599987669814741
10
-130.82499999999999
20
44.599987669814709
42
-0.4142135623730846
10
-130.32499999999999
20
45.099987669814716
10
-117.32499999999999
20
45.099987669814738
42
-0.4142135623730846
0
LWPOLYLINE
5
169
100
AcDbEntity
8
0
100
AcDbPolyline
90
8
70
1
43
0.0
10
-149.375
20
45.099987669814716
10
-136.375
20
45.099987669814738
42
-0.41421356237309503
10
-135.875
20
44.599987669814745
10
-135.875
20
31.599987669814738
42
-0.41421356237309503
10
-136.375
20
31.099987669814738
10
-149.375
20
31.09998766981473
42
-0.41421356237309243
10
-149.875
20
31.599987669814734
10
-149.87499999999997
20
44.599987669814745
42
-0.41421356237309503
0
LWPOLYLINE
5
170
100
AcDbEntity
8
0
100
AcDbPolyline
90
12
70
1
43
0.0
10
-125.13424999999998
20
-2.0000123301852657
42
0.41421356237307944
10
-124.63425000000009
20
-2.5000123301852328
10
-122.13425000000012
20
-2.5000123301852817
42
-0.41421356237310025
10
-121.63425000000011
20
-3.0000123301852799
10
-121.63425000000011
20
-3.5000123301852781
42
-0.41421356237312623
10
-122.13425000000008
20
-4.0000123301852764
10
-124.63425000000009
20
-4.0000123301853208
42
-0.41421356237308987
10
-126.63425000000007
20
-2.0000123301852741
10
-126.63425000000001
20
3.4999876698147148
42
-0.41421356237309503
10
-126.13424999999999
20
3.9999876698147174
10
-125.63425000000002
20
3.9999876698147219
42
-0.41421356237312101
10
-125.13424999999998
20
3.4999876698147236
0
LWPOLYLINE
5
171
100
AcDbEntity
8
0
100
AcDbPolyline
90
12
70
1
43
0.0
10
-118.63425000000001
20
1.999987669814729
10
-118.63424999999991
20
-3.5000123301852781
42
-0.41421356237316787
10
-119.13424999999998
20
-4.0000123301852719
10
-119.63425000000009
20
-4.000012330185303
42
-0.41421356237309503
10
-120.13425000000009
20
-3.5000123301852781
10
-120.13424999999999
20
1.999987669814729
42
0.41421356237306384
10
-120.63424999999998
20
2.4999876698147094
10
-123.13424999999998
20
2.4999876698147006
42
-0.41421356237308982
10
-123.63424999999999
20
2.9999876698147165
10
-123.63425000000001
20
3.4999876698147148
42
-0.41421356237309503
10
-123.13424999999998
20
3.9999876698147396
10
-120.63425000000001
20
3.9999876698146863
42
-0.41421356237308982
0
LWPOLYLINE
5
172
100
AcDbEntity
8
0
100
AcDbPolyline
90
20
70
1
43
0.0
10
-116.03075000000001
20
-28.050012330185261
10
-122.03075
20
-28.050012330185261
42
-0.4142135623730846
10
-122.53074999999998
20
-27.550012330185254
10
-122.53074999999998
20
-26.050012330185268
10
-139.40675000000002
20
-26.050012330185268
10
-139.40674999999999
20
-27.550012330185254
42
-0.4142135623730846
10
-139.90674999999999
20
-28.050012330185268
10
-145.90675000000002
20
-28.050012330185243
42
-0.41421356237310025
10
-146.40674999999999
20
-27.550012330185247
10
-146.40674999999999
20
-26.050012330185268
10
-146.99296671510487
20
-26.050012330185268
42
-0.41421356237312623
10
-147.49296671510484
20
-25.550012330185261
10
-147.49296671510484
20
-12.550012330185272
42
-0.41421356237311585
10
-146.99296671510484
20
-12.050012330185265
10
-112.56296671510491
20
-12.050012330185282
42
-0.41421356237310025
10
-112.06296671510492
20
-12.550012330185281
10
-112.06296671510492
20
-25.550012330185261
42
-0.41421356237311585
10
-112.56296671510492
20
-26.050012330185268
10
-115.53075
20
-26.050012330185268
10
-115.53075
20
-27.550012330185254
42
-0.41421356237309503
0
LWPOLYLINE
5
173
100
AcDbEntity
8
0
100
AcDbPolyline
90
8
70
1
43
0.0
10
-128.73124999999999
20
6.4999876698147219
10
-128.73124999999999
20
-6.500012330185303
42
-0.41421356237311585
10
-129.23124999999999
20
-7.0000123301852746
10
-146.99424999999999
20
-7.0000123301852923
42
-0.41421356237312623
10
-147.49424999999999
20
-6.500012330185303
10
-147.49424999999999
20
6.4999876698147396
42
-0.4142135623730846
10
-146.99424999999999
20
6.999987669814729
10
-129.23125000000002
20
6.9999876698147112
42
-0.41421356237310542
0
LWPOLYLINE
5
174
100
AcDbEntity
8
0
100
AcDbPolyline
90
8
70
1
43
0.0
10
-83.987433054180158
20
-45.100012330185315
10
-99.368747711194885
20
-45.100012330185294
42
-0.41421356237310542
10
-99.868747711194885
20
-44.600012330185272
10
-99.868747711194885
20
-31.599994019645266
42
-0.41421356237309503
10
-99.368747711194885
20
-31.099994019645266
10
-83.987433054180158
20
-31.099994019645276
42
-0.41421356237310025
10
-83.487433054180173
20
-31.599994019645273
10
-83.487433054180187
20
-44.600012330185272
42
-0.41421356237309503
0
LWPOLYLINE
5
175
100
AcDbEntity
8
0
100
AcDbPolyline
90
8
70
1
43
0.0
10
80.318750000000023
20
-45.100012330185351
42
0.4142135623730534
10
80.81875000000008
20
-44.600012330185308
10
80.818750000000108
20
-31.600012330185283
42
0.41421356237316787
10
80.318750000000023
20
-31.100012330185294
10
64.937750000000108
20
-31.100012330185258
42
0.4142135623730222
10
64.437750000000023
20
-31.600012330185283
10
64.437750000000051
20
-44.600012330185294
42
0.41421356237304302
10
64.937750000000108
20
-45.100012330185315
0
LWPOLYLINE
5
176
100
AcDbEntity
8
0
100
AcDbPolyline
90
11
70
1
43
0.0
10
51.125250000000015
20
-29.600442924019823
42
0.41421356237310025
10
50.625250000000044
20
-29.100442924019845
10
43.506250000000044
20
-29.100442924019802
42
0.41421356237307422
10
43.006250000000144
20
-29.600442924019816
10
43.006250000000108
20
-44.600012330185294
42
0.41421356237310542
10
43.506250000000044
20
-45.100012330185315
10
56.506250000000016
20
-45.100012330185315
42
0.41421356237300139
10
57.006249999999987
20
-44.600012330185294
10
57.006250000000129
20
-31.600012330185283
42
0.41421356237310542
10
56.506250000000016
20
-31.100012330185294
10
51.125250000000015
20
-31.100012330185294
0
LWPOLYLINE
5
177
100
AcDbEntity
8
0
100
AcDbPolyline
90
44
70
1
43
0.0
10
127.91250915600102
20
2.5250107026645807
10
127.35675000000003
20
2.5250107026645807
10
127.35675000000003
20
1.0870224214345825
10
127.91250904447111
20
1.0870224214345825
42
-0.41421355643398805
10
128.41250904447111
20
0.58702243157347833
10
128.41250916613802
20
-5.4129775684265269
42
-0.4142135683122905
10
127.91250916613802
20
-5.9129775785654459
10
127.36674671730003
20
-5.9129775785654104
10
127.35657725717886
20
-6.5085349963392147
42
-0.40922153652646476
10
126.85665013469605
20
-6.9999984744454116
10
120.82111789041005
20
-6.9999984744454125
42
-0.41421356237310025
10
120.32111789041011
20
-6.4999984744453965
10
120.32111789041008
20
-5.9129959104354057
10
118.91873474200906
20
-5.9129959104354057
10
118.91873474200906
20
-6.4999984744454053
42
-0.41421356237307422
10
118.41873474200902
20
-6.9999984744454125
10
93.512496949010028
20
-6.9999984744454125
42
-0.41421356237310542
10
93.012496949010028
20
-6.4999984744453876
10
93.012496949010028
20
6.5000015255546906
42
-0.41421356237312623
10
93.512496949010028
20
7.0000015255546799
10
96.480746460710023
20
7.0000015255546977
10
96.480746460710023
20
8.5309563330546112
42
-0.41421356237313667
10
96.980746460710037
20
9.0309563330546183
10
102.98074646070899
20
9.0309563330546005
42
-0.41421356237310281
10
103.48074646070911
20
8.530956333054597
10
103.4807464607091
20
7.0000015255546799
10
114.41249694901001
20
7.0000015255546799
10
114.41249694901001
20
12.049987669814683
10
112.56250000000001
20
12.049987669814648
42
-0.41421356237315227
10
112.0625
20
12.549987669814682
10
112.0625
20
25.550019857964692
42
-0.41421356237311585
10
112.56250000000001
20
26.050019857964735
10
125.56250000000003
20
26.050019857964664
42
-0.41421356237310281
10
126.06250000000006
20
25.550019857964678
10
126.06250000045574
20
24.962998983964688
10
127.91250916221806
20
24.962998983964688
42
-0.41421356603355558
10
128.41250916221804
20
24.462998977715991
10
128.41250908723308
20
18.462950513644678
42
-0.41421355866056458
10
127.91250908732202
20
17.962950519893397
10
126.06251525999906
20
17.9629505195647
10
126.06251525900007
20
16.525010702664602
10
127.91250915596805
20
16.525010702664584
42
-0.4142135623724707
10
128.41250915596805
20
16.025010702665874
10
128.41250915600102
20
3.0250107026657957
42
-0.41421356237380264
0
LWPOLYLINE
5
178
100
AcDbEntity
8
0
100
AcDbPolyline
90
8
70
1
43
0.0
10
97.775250000000113
20
-44.600012330185308
42
0.41421356237306384
10
98.275250000000057
20
-45.100012330185336
10
111.27525000000003
20
-45.100012330185336
42
0.41421356237310542
10
111.77525000000003
20
-44.600012330185308
10
111.77525000000003
20
-31.600012330185301
42
0.41421356237294937
10
111.27525000000003
20
-31.100012330185329
10
98.275250000000057
20
-31.100012330185258
42
0.41421356237304302
10
97.775250000000085
20
-31.600012330185283
0
LWPOLYLINE
5
179
100
AcDbEntity
8
0
100
AcDbPolyline
90
14
70
1
43
0.0
10
98.218261719061076
20
-28.050010680764217
42
0.41421356233734119
10
98.71826171900004
20
-27.55001068076421
10
98.71826171900004
20
-26.050017991074288
10
113.65626043699002
20
-26.050039249708547
42
0.41421397917801939
10
114.15626114852006
20
-25.5500392497086
10
114.15626114851005
20
-12.549992370975129
42
0.41421358421851395
10
113.65626111121702
20
-12.049992370975513
10
91.131275646116876
20
-12.049994051030277
42
0.41421354052729148
10
90.631275683410024
20
-12.549994051030318
10
90.631275683410038
20
-25.549967956855006
42
0.41421324491958084
10
91.13127514148303
20
-26.049967956854729
10
91.718249534358989
20
-26.049968593049826
10
91.718249534358989
20
-27.550010681496317
42
0.41421356240878643
10
92.218249534420067
20
-28.050010681496325
0
LWPOLYLINE
5
180
100
AcDbEntity
8
0
100
AcDbPolyline
90
8
70
1
43
0.0
10
130.82475000000014
20
-31.600012330185283
42
0.41421356237310542
10
130.32475000000002
20
-31.100012330185287
10
117.32475000000001
20
-31.100012330185258
42
0.41421356237311585
10
116.82474999999999
20
-31.600012330185301
10
116.82475000000011
20
-44.600012330185308
42
0.41421356237306384
10
117.32475000000001
20
-45.100012330185294
10
130.32475000000002
20
-45.100012330185365
42
0.41421356237306384
10
130.82474999999999
20
-44.600012330185308
0
LWPOLYLINE
5
181
100
AcDbEntity
8
0
100
AcDbPolyline
90
11
70
1
43
0.0
10
116.09420850339404
20
-12.049967956865313
42
0.41421394396676303
10
115.5942085033945
20
-12.549968608286406
10
115.59422804608346
20
-27.550011332858393
42
0.41421318078067459
10
116.09422804608502
20
-28.050010681437314
10
122.09423828269202
20
-28.050010681413617
42
0.41421356279949806
10
122.59423828269007
20
-27.550010680683599
10
122.59423828050001
20
-26.049986267435408
10
130.32505798398603
20
-26.049986267435372
42
0.41421356236502022
10
130.82505798398603
20
-25.549986267449221
10
130.82505798434408
20
-12.54996795687914
42
0.41421356238111778
10
130.32505798434403
20
-12.049967956865331
0
ENDSEC
0
SECTION
2
OBJECTS
0
DICTIONARY
5
C
100
AcDbDictionary
3
ACAD_GROUP
350
D
3
ACAD_MLINESTYLE
350
17
0
DICTIONARY
5
D
100
AcDbDictionary
0
DICTIONARY
5
1A
330
C
100
AcDbDictionary
0
DICTIONARY
5
17
100
AcDbDictionary
0
ENDSEC
0
EOF
