0
SECTION
2
HEADER
9
$INSUNITS
70
4
9
$ACADVER
1
AC1014
9
$HANDSEED
5
FFFF
0
ENDSEC
0
SECTION
2
TABLES
0
TABLE
2
VPORT
5
8
100
AcDbSymbolTable
0
ENDTAB
0
TABLE
2
LTYPE
5
5
100
AcDbSymbolTable
0
LTYPE
5
14
100
AcDbSymbolTableRecord
100
AcDbLinetypeTableRecord
2
BYBLOCK
70
0
0
LTYPE
5
15
100
AcDbSymbolTableRecord
100
AcDbLinetypeTableRecord
2
BYLAYER
70
0
0
LTYPE
5
16
100
AcDbSymbolTableRecord
100
AcDbLinetypeTableRecord
2
DASHED
70
0
3
Dashed __ __ __ __ __ __ __ __ __ __ __ __ __ _
72
65
73
2
40
0.75
49
0.5
74
0
49
-0.25
74
0
0
ENDTAB
0
TABLE
2
LAYER
5
2
100
AcDbSymbolTable
70
2
0
LAYER
5
50
100
AcDbSymbolTableRecord
100
AcDbLayerTableRecord
2
0
70
0
62
7
6
CONTINUOUS
0
ENDTAB
0
TABLE
2
STYLE
5
3
100
AcDbSymbolTable
70
1
0
STYLE
5
11
100
AcDbSymbolTableRecord
100
AcDbTextStyleTableRecord
2
STANDARD
70
0
0
ENDTAB
0
TABLE
2
VIEW
5
6
100
AcDbSymbolTable
70
0
0
ENDTAB
0
TABLE
2
UCS
5
7
100
AcDbSymbolTable
70
0
0
ENDTAB
0
TABLE
2
APPID
5
9
100
AcDbSymbolTable
70
2
0
APPID
5
12
100
AcDbSymbolTableRecord
100
AcDbRegAppTableRecord
2
ACAD
70
0
0
ENDTAB
0
TABLE
2
DIMSTYLE
5
A
100
AcDbSymbolTable
70
1
0
ENDTAB
0
TABLE
2
BLOCK_RECORD
5
1
100
AcDbSymbolTable
70
1
0
BLOCK_RECORD
5
1F
100
AcDbSymbolTableRecord
100
AcDbBlockTableRecord
2
*MODEL_SPACE
0
BLOCK_RECORD
5
1B
100
AcDbSymbolTableRecord
100
AcDbBlockTableRecord
2
*PAPER_SPACE
0
ENDTAB
0
ENDSEC
0
SECTION
2
BLOCKS
0
BLOCK
5
20
100
AcDbEntity
100
AcDbBlockBegin
2
*MODEL_SPACE
0
ENDBLK
5
21
100
AcDbEntity
100
AcDbBlockEnd
0
BLOCK
5
1C
100
AcDbEntity
100
AcDbBlockBegin
2
*PAPER_SPACE
0
ENDBLK
5
1D
100
AcDbEntity
100
AcDbBlockEnd
0
ENDSEC
0
SECTION
2
ENTITIES
0
LWPOLYLINE
5
100
100
AcDbEntity
8
0
100
AcDbPolyline
90
8
70
1
43
0.0
10
91.868750049021926
20
-31.336874619964966
10
93.868750049021926
20
-31.336874619964959
42
-0.41421356237309503
10
94.368750049021926
20
-31.836874619964966
10
94.368750049021912
20
-44.836874619964817
42
-0.41421356237309503
10
93.868750049021926
20
-45.336874619964817
10
91.868750049021926
20
-45.336874619964824
42
-0.41421356237309503
10
91.368750049021926
20
-44.836874619964817
10
91.368750049021941
20
-31.836874619964959
42
-0.41421356237309503
0
LWPOLYLINE
5
101
100
AcDbEntity
8
0
100
AcDbPolyline
90
8
70
1
43
0.0
10
117.68125004902187
20
-45.336874619964661
10
115.68125004902187
20
-45.336874619964675
42
-0.41421356237309503
10
115.18125004902187
20
-44.836874619964668
10
115.18125004902188
20
-31.836874619964792
42
-0.41421356237309503
10
115.68125004902187
20
-31.336874619964796
10
117.68125004902187
20
-31.336874619964785
42
-0.41421356237309503
10
118.18125004902187
20
-31.836874619964792
10
118.18125004902186
20
-44.836874619964668
42
-0.41421356237309503
0
LWPOLYLINE
5
102
100
AcDbEntity
8
0
100
AcDbPolyline
90
14
70
1
43
0.0
10
70.306000049019602
20
-42.336874619970821
10
64.306500049019803
20
-42.336874619970956
42
-0.41421356237309503
10
63.806500049019704
20
-41.836874619970878
10
63.806500049019583
20
-32.144939365189977
42
0.20747758985084433
10
63.648231483936257
20
-31.779946726374042
10
60.622323649336664
20
-28.946881847043461
42
0.19037512800479961
10
60.280592214419954
20
-28.811874485859338
10
53.650002984548102
20
-28.811874485859441
42
-0.99999999999999989
10
53.650002984548102
20
-27.811874485859434
10
67.121926336065243
20
-27.811874485859231
42
-0.17845378542154405
10
67.446468219882178
20
-27.931516015927834
10
70.630541932836366
20
-30.648335444716871
42
-0.21953238677637868
10
70.806000049019445
20
-31.02869391464829
10
70.806000049019602
20
-41.836874619970807
42
-0.41421356237309503
0
LWPOLYLINE
5
103
100
AcDbEntity
8
0
100
AcDbPolyline
90
16
70
1
43
0.0
10
48.600002984548077
20
-28.836874170489445
10
41.447983632210523
20
-28.836874170489509
42
0.34199871687994565
10
39.511491952373781
20
-30.336874196566658
42
-0.34199871687992783
10
37.575000272536997
20
-31.836874222643804
10
33.811554352863062
20
-31.836874222643793
42
0.1031479622536359
10
33.012249098977563
20
-32.003540889310486
42
-0.10314796225363725
10
31.413638591206681
20
-32.336874222643843
10
24.575000049019557
20
-32.336874222643957
42
-0.99999999999999989
10
24.57500004901954
20
-31.33687422264396
10
30.438570993189451
20
-31.336874222643814
42
0.34199871687996147
10
32.375062673026221
20
-29.836874196566722
42
-0.34199871687995043
10
34.311554352862942
20
-28.336874170489605
10
38.075000272536897
20
-28.336874170489551
42
0.10314796225362735
10
38.874305526422376
20
-28.17020750382288
42
-0.10314796225364095
10
40.472916034193275
20
-27.836874170489526
10
48.600002984548112
20
-27.836874170489526
42
-0.99999999999999989
0
LWPOLYLINE
5
104
100
AcDbEntity
8
0
100
AcDbPolyline
90
10
70
1
43
0.0
10
16.000000269403195
20
-44.361872752204469
10
33.570081552372315
20
-44.361874619973108
42
-0.089933963163253111
10
33.745643273165939
20
-44.393710031188498
10
37.745643273166458
20
-45.893710031187133
42
-0.99999999999999989
10
37.394519831578016
20
-46.830039208756162
10
33.479414261489723
20
-45.361874619973122
10
16.090667560285517
20
-45.361872752205834
10
12.175561990197002
20
-46.830037340988333
42
-0.99999999999999989
10
11.824438548608709
20
-45.893708163419198
10
15.824438548608518
20
-44.393708163420015
42
-0.089933963163297312
0
LWPOLYLINE
5
105
100
AcDbEntity
8
0
100
AcDbPolyline
90
4
70
1
43
0.0
10
-21.54999995098002
20
-27.83687153978315
42
0.99999999999999989
10
-21.549999950980052
20
-28.836871539783147
10
21.550000049021911
20
-28.836871539784354
42
0.99999999999999989
10
21.550000049021939
20
-27.836871539784362
0
LWPOLYLINE
5
106
100
AcDbEntity
8
0
100
AcDbPolyline
90
10
70
1
43
0.0
10
-16.090667462246017
20
-45.361872752203027
10
-33.47941416345023
20
-45.361874619970315
10
-37.394519733538516
20
-46.830039208753362
42
-0.99999999999999989
10
-37.745643175126951
20
-45.893710031184312
10
-33.745643175126439
20
-44.393710031185698
42
-0.089933963163253333
10
-33.570081454332822
20
-44.361874619970308
10
-16.000000171363695
20
-44.361872752201663
42
-0.089933963163297312
10
-15.824438450569016
20
-44.393708163417209
10
-11.824438450569208
20
-45.893708163416392
42
-0.99999999999999989
10
-12.1755618921575
20
-46.830037340985527
0
LWPOLYLINE
5
107
100
AcDbEntity
8
0
100
AcDbPolyline
90
4
70
1
43
0.0
10
-44.149999950980153
20
-35.336874619968349
42
0.99999999999999989
10
-44.149999950980508
20
-42.336874619968356
10
-16.499999950980062
20
-42.336874619968
42
0.99999999999999989
10
-16.499999950980062
20
-35.336874619968349
0
LWPOLYLINE
5
108
100
AcDbEntity
8
0
100
AcDbPolyline
90
8
70
1
43
0.0
10
100.74662504931852
20
6.7631253794420489
10
102.74662504931852
20
6.7631253794420552
42
-0.41421356237309503
10
103.24662504931852
20
6.2631253794420481
10
103.24662504931852
20
-6.7368746205579502
42
-0.41421356237309631
10
102.74662504931852
20
-7.2368746205579519
10
100.74662504931852
20
-7.236874620557959
42
-0.41421356237309503
10
100.24662504931852
20
-6.7368746205579519
10
100.24662504931852
20
6.2631253794420463
42
-0.41421356237309631
0
LWPOLYLINE
5
109
100
AcDbEntity
8
0
100
AcDbPolyline
90
8
70
1
43
0.0
10
-100.74662495068155
20
-26.286874620558169
10
-102.74662495068155
20
-26.28687462055818
42
-0.41421356237309503
10
-103.24662495068155
20
-25.786874620558173
10
-103.24662495068155
20
-12.786874620558169
42
-0.41421356237309503
10
-102.74662495068155
20
-12.286874620558168
10
-100.74662495068155
20
-12.286874620558162
42
-0.41421356237309503
10
-100.24662495068155
20
-12.786874620558169
10
-100.24662495068156
20
-25.786874620558173
42
-0.41421356237309503
0
LWPOLYLINE
5
110
100
AcDbEntity
8
0
100
AcDbPolyline
90
8
70
1
43
0.0
10
2.5250000496151159
20
12.313125379441949
10
2.5250000496151337
20
25.31312537944185
42
-0.41421356237309503
10
3.0250000496151586
20
25.813125379441875
10
16.02500004961513
20
25.813125379441992
42
-0.41421356237311585
10
16.525000049615237
20
25.31312537944185
10
16.525000049615201
20
12.313125379441949
42
-0.41421356237311585
10
16.025000049615166
20
11.813125379442022
10
3.0250000496151586
20
11.813125379441871
42
-0.41421356237311585
0
LWPOLYLINE
5
111
100
AcDbEntity
8
0
100
AcDbPolyline
90
8
70
1
43
0.0
10
73.675000049615164
20
25.313125379441814
10
73.675000049615178
20
12.313125379441914
42
-0.41421356237301177
10
73.175000049615235
20
11.813125379441827
10
60.175000049615193
20
11.813125379441614
42
-0.41421356237315748
10
59.675000049615036
20
12.313125379441878
10
59.675000049615107
20
25.313125379442241
42
-0.4142135623731783
10
60.175000049615193
20
25.813125379441757
10
73.175000049615235
20
25.813125379441821
42
-0.4142135623730534
0
LWPOLYLINE
5
112
100
AcDbEntity
8
0
100
AcDbPolyline
90
8
70
1
43
0.0
10
20.787500049615169
20
-7.236874620558118
10
7.7875000496151614
20
-7.2368746205580523
42
-0.41421356237307422
10
7.2875000496151712
20
-6.7368746205580976
10
7.2875000496151721
20
6.2631253794418384
42
-0.41421356237311585
10
7.7875000496152325
20
6.7631253794419344
10
20.787500049615204
20
6.76312537944181
42
-0.41421356237315748
10
21.287500049615176
20
6.263125379441874
10
21.287500049615119
20
-6.7368746205580976
42
-0.41421356237301177
0
LWPOLYLINE
5
113
100
AcDbEntity
8
0
100
AcDbPolyline
90
8
70
1
43
0.0
10
126.35000004902209
20
31.363125380035193
10
126.35000004902201
20
44.363125380036799
42
-0.41421356237315748
10
126.85000004902207
20
44.86312538003682
10
139.8500000490219
20
44.863125380036294
42
-0.41421356237319906
10
140.35000004902204
20
44.363125380034418
10
140.35000004902196
20
31.363125380034731
42
-0.4142135623730534
10
139.85000004902196
20
30.863125380035523
10
126.85000004902207
20
30.863125380035168
42
-0.41421356237311585
0
LWPOLYLINE
5
114
100
AcDbEntity
8
0
100
AcDbPolyline
90
8
70
1
43
0.0
10
35.862500049615058
20
-25.78687462055818
10
35.862500049615115
20
-12.786874620558066
42
-0.4142135623730534
10
36.362500049615107
20
-12.286874620558144
10
49.362500049615079
20
-12.286874620558184
42
-0.41421356237319906
10
49.862500049615178
20
-12.786874620558173
10
49.862500049615186
20
-25.786874620558038
42
-0.41421356237303258
10
49.36250004961515
20
-26.286874620557967
10
36.362500049615107
20
-26.286874620558155
42
-0.4142135623730534
0
LWPOLYLINE
5
115
100
AcDbEntity
8
0
100
AcDbPolyline
90
8
70
1
43
0.0
10
-127.94374995097813
20
-12.286874619964827
10
-114.94374995097822
20
-12.286874619964827
42
-0.41421356237309503
10
-114.4437499509782
20
-12.786874619964834
10
-114.44374995097814
20
-25.786874619964806
42
-0.41421356237311585
10
-114.94374995097822
20
-26.286874619964848
10
-127.9437499509782
20
-26.286874619964831
42
-0.41421356237306384
10
-128.44374995097817
20
-25.786874619964877
10
-128.44374995097817
20
-12.786874619964834
42
-0.41421356237311585
0
LWPOLYLINE
5
116
100
AcDbEntity
8
0
100
AcDbPolyline
90
8
70
1
43
0.0
10
-98.27499995097817
20
-45.33687461996486
10
-111.27499995097814
20
-45.336874619964803
42
-0.41421356237307422
10
-111.77499995097813
20
-44.836874619964782
10
-111.77499995097813
20
-31.83687461996481
42
-0.41421356237313667
10
-111.27499995097814
20
-31.336874619964821
10
-98.27499995097817
20
-31.336874619964838
42
-0.41421356237311585
10
-97.774999950978128
20
-31.836874619964846
10
-97.774999950978199
20
-44.836874619964817
42
-0.41421356237313667
0
LWPOLYLINE
5
117
100
AcDbEntity
8
0
100
AcDbPolyline
90
8
70
1
43
0.0
10
-39.837499950384796
20
-12.286874620558059
10
-26.837499950384824
20
-12.286874620558139
42
-0.41421356237303258
10
-26.337499950384824
20
-12.786874620558173
10
-26.337499950384867
20
-25.786874620558038
42
-0.41421356237303258
10
-26.837499950384824
20
-26.286874620558102
10
-39.837499950384867
20
-26.286874620558187
42
-0.41421356237307422
10
-40.337499950384981
20
-25.78687462055818
10
-40.337499950384839
20
-12.786874620558066
42
-0.41421356237315748
0
LWPOLYLINE
5
118
100
AcDbEntity
8
0
100
AcDbPolyline
90
8
70
1
43
0.0
10
-17.312499950384819
20
-7.2368746205581402
10
-30.312499950384861
20
-7.2368746205580958
42
-0.41421356237313667
10
-30.812499950384861
20
-6.7368746205580976
10
-30.812499950384868
20
6.263125379441874
42
-0.41421356237307422
10
-30.312499950384861
20
6.7631253794419166
10
-17.312499950384854
20
6.7631253794418855
42
-0.4142135623730534
10
-16.812499950384844
20
6.263125379441945
10
-16.812499950384812
20
-6.7368746205580976
42
-0.41421356237311585
0
LWPOLYLINE
5
119
100
AcDbEntity
8
0
100
AcDbPolyline
90
8
70
1
43
0.0
10
-35.862499950384894
20
6.263125379441945
10
-35.862499950384837
20
-6.7368746205580976
42
-0.41421356237309503
10
-36.362499950384866
20
-7.2368746205580559
10
-49.362499950384873
20
-7.2368746205580425
42
-0.41421356237313667
10
-49.862499950384887
20
-6.7368746205580976
10
-49.86249995038493
20
6.263125379441945
42
-0.4142135623730534
10
-49.362499950384908
20
6.7631253794418988
10
-36.362499950384866
20
6.7631253794418811
42
-0.41421356237311585
0
LWPOLYLINE
5
120
100
AcDbEntity
8
0
100
AcDbPolyline
90
8
70
1
43
0.0
10
79.225000049615062
20
25.813125379441857
10
92.225000049615105
20
25.813125379442017
42
-0.41421356237309503
10
92.72500004961509
20
25.313125379441885
10
92.725000049615403
20
12.313125379441985
42
-0.4142135623731783
10
92.225000049615389
20
11.813125379441981
10
79.225000049615062
20
11.813125379441933
42
-0.41421356237313667
10
78.725000049615076
20
12.313125379441843
10
78.72500004961509
20
25.313125379441814
42
-0.41421356237297013
0
LWPOLYLINE
5
121
100
AcDbEntity
8
0
100
AcDbPolyline
90
8
70
1
43
0.0
10
-106.51249995038491
20
6.7631253794419166
10
-93.512499950384864
20
6.7631253794418988
42
-0.41421356237307422
10
-93.012499950384836
20
6.2631253794419095
10
-93.012499950384878
20
-6.7368746205581687
42
-0.4142135623730534
10
-93.512499950384864
20
-7.2368746205580869
10
-106.51249995038491
20
-7.2368746205581402
42
-0.41421356237313667
10
-107.01249995038488
20
-6.7368746205580976
10
-107.01249995038488
20
6.263125379441945
42
-0.41421356237309503
0
LWPOLYLINE
5
122
100
AcDbEntity
8
0
100
AcDbPolyline
90
8
70
1
43
0.0
10
-122.08749995097811
20
-45.33687461996486
10
-135.08749995097818
20
-45.336874619964775
42
-0.41421356237303258
10
-135.58749995097813
20
-44.836874619964782
10
-135.58749995097816
20
-31.836874619964846
42
-0.41421356237310542
10
-135.08749995097813
20
-31.336874619964842
10
-122.08749995097811
20
-31.336874619964856
42
-0.41421356237309503
10
-121.58749995097813
20
-31.836874619964846
10
-121.58749995097814
20
-44.836874619964782
42
-0.41421356237315748
0
LWPOLYLINE
5
123
100
AcDbEntity
8
0
100
AcDbPolyline
90
8
70
1
43
0.0
10
-88.749999950978093
20
30.863125380035115
10
-101.74999995097821
20
30.86312538003515
42
-0.41421356237307422
10
-102.24999995097818
20
31.363125380035157
10
-102.24999995097812
20
44.363125380035129
42
-0.41421356237315748
10
-101.74999995097818
20
44.863125380035257
10
-88.749999950978122
20
44.863125380035207
42
-0.41421356237299095
10
-88.24999995097815
20
44.3631253800352
10
-88.24999995097815
20
31.363125380035086
42
-0.41421356237303258
0
LWPOLYLINE
5
124
100
AcDbEntity
8
0
100
AcDbPolyline
90
12
70
1
43
0.0
10
-109.10937495068147
20
1.7631253797385327
10
-109.10937495068143
20
-3.7368746202614744
42
-0.41421356237309503
10
-109.60937495068144
20
-4.2368746202614815
10
-110.10937495068148
20
-4.2368746202614815
42
-0.41421356237307422
10
-110.60937495068153
20
-3.7368746202614744
10
-110.60937495068153
20
1.7631253797385682
42
0.41421356237303258
10
-111.10937495068143
20
2.2631253797385043
10
-113.60937495068143
20
2.263125379738522
42
-0.41421356237311585
10
-114.10937495068146
20
2.7631253797385114
10
-114.10937495068143
20
3.263125379738554
42
-0.41421356237309503
10
-113.60937495068143
20
3.7631253797385611
10
-111.10937495068143
20
3.7631253797385611
42
-0.4142135623730846
0
LWPOLYLINE
5
125
100
AcDbEntity
8
0
100
AcDbPolyline
90
8
70
1
43
0.0
10
73.962500049615159
20
-25.786874620557967
10
73.962500049615301
20
-12.786874620557853
42
-0.4142135623731783
10
74.462500049615201
20
-12.286874620558095
10
87.462500049615102
20
-12.286874620557846
42
-0.41421356237313667
10
87.962500049615386
20
-12.786874620557924
10
87.962500049615215
20
-25.78687462055818
42
-0.41421356237313667
10
87.462500049615244
20
-26.286874620558081
10
74.462500049615201
20
-26.286874620557938
42
-0.41421356237313667
0
LWPOLYLINE
5
126
100
AcDbEntity
8
0
100
AcDbPolyline
90
8
70
1
43
0.0
10
126.85000004902193
20
-12.286874619964802
10
139.8500000490219
20
-12.286874619964738
42
-0.4142135623730534
10
140.35000004902199
20
-12.786874619964763
10
140.35000004902196
20
-25.786874619964948
42
-0.4142135623730534
10
139.85000004902196
20
-26.286874619964994
10
126.85000004902193
20
-26.286874619964742
42
-0.41421356237309503
10
126.35000004902193
20
-25.786874619964451
10
126.3500000490219
20
-12.786874619964834
42
-0.41421356237309503
0
LWPOLYLINE
5
127
100
AcDbEntity
8
0
100
AcDbPolyline
90
8
70
1
43
0.0
10
-82.699999950978082
20
44.863125380035243
10
-69.699999950978153
20
44.863125380035022
42
-0.41421356237309503
10
-69.199999950978082
20
44.363125380035306
10
-69.199999950978111
20
31.363125380035193
42
-0.41421356237311585
10
-69.699999950978196
20
30.863125380035079
10
-82.699999950978125
20
30.863125380035168
42
-0.4142135623730534
10
-83.199999950978111
20
31.363125380035086
10
-83.199999950978167
20
44.3631253800352
42
-0.41421356237307422
0
LWPOLYLINE
5
128
100
AcDbEntity
8
0
100
AcDbPolyline
90
8
70
1
43
0.0
10
-135.0874999509781
20
25.81312538003516
10
-122.08749995097811
20
25.81312538003516
42
-0.41421356237307422
10
-121.5874999509781
20
25.313125380035189
10
-121.58749995097813
20
12.313125380035146
42
-0.41421356237309503
10
-122.08749995097811
20
11.813125380035157
10
-135.0874999509781
20
11.813125380035157
42
-0.41421356237309503
10
-135.58749995097816
20
12.313125380035146
10
-135.5874999509781
20
25.313125380035189
42
-0.41421356237311585
0
LWPOLYLINE
5
129
100
AcDbEntity
8
0
100
AcDbPolyline
90
8
70
1
43
0.0
10
-107.7999999509781
20
30.863125380035186
10
-120.79999995097815
20
30.863125380035203
42
-0.41421356237309503
10
-121.2999999509781
20
31.363125380035157
10
-121.29999995097816
20
44.363125380035164
42
-0.41421356237311585
10
-120.79999995097815
20
44.8631253800352
10
-107.79999995097813
20
44.863125380035186
42
-0.4142135623730534
10
-107.29999995097815
20
44.3631253800352
10
-107.29999995097813
20
31.363125380035157
42
-0.41421356237301177
0
LWPOLYLINE
5
130
100
AcDbEntity
8
0
100
AcDbPolyline
90
8
70
1
43
0.0
10
97.775000049615258
20
12.313125379441914
10
97.77500004961523
20
25.313125379441885
42
-0.4142135623730534
10
98.275000049615286
20
25.813125379441733
10
111.27500004961519
20
25.813125379442141
42
-0.41421356237326151
10
111.77500004961523
20
25.31312537944153
10
111.7750000496153
20
12.313125379442198
42
-0.41421356237292856
10
111.27500004961519
20
11.8131253794418
10
98.275000049615215
20
11.813125379441924
42
-0.41421356237311585
0
LWPOLYLINE
5
131
100
AcDbEntity
8
0
100
AcDbPolyline
90
8
70
1
43
0.0
10
121.58750004902188
20
12.31312538003511
10
121.58750004902191
20
25.313125380035402
42
-0.41421356237299095
10
122.08750004902186
20
25.813125380035729
10
135.08750004902191
20
25.813125380035267
42
-0.4142135623730534
10
135.58750004902191
20
25.313125380035046
10
135.58750004902186
20
12.313125380035146
42
-0.41421356237303258
10
135.08750004902191
20
11.813125380034872
10
122.08750004902186
20
11.813125380035316
42
-0.41421356237315748
0
LWPOLYLINE
5
132
100
AcDbEntity
8
0
100
AcDbPolyline
90
8
70
1
43
0.0
10
-64.437499950384861
20
-12.786874620558066
10
-64.437499950384847
20
-25.786874620558038
42
-0.41421356237309503
10
-64.937499950384918
20
-26.286874620558116
10
-77.93749995038489
20
-26.286874620558123
42
-0.41421356237309503
10
-78.437499950384876
20
-25.786874620558144
10
-78.437499950384819
20
-12.786874620558066
42
-0.41421356237309503
10
-77.93749995038489
20
-12.28687462055813
10
-64.937499950384918
20
-12.286874620558113
42
-0.41421356237307422
0
LWPOLYLINE
5
133
100
AcDbEntity
8
0
100
AcDbPolyline
90
8
70
1
43
0.0
10
-7.787499950384813
20
-26.286874620558081
10
-20.787499950384856
20
-26.286874620558116
42
-0.41421356237309503
10
-21.287499950384863
20
-25.786874620558109
10
-21.287499950384859
20
-12.786874620558137
42
-0.41421356237309503
10
-20.787499950384856
20
-12.286874620558134
10
-7.7874999503848485
20
-12.286874620558111
42
-0.41421356237303258
10
-7.2874999503848574
20
-12.786874620558066
10
-7.2874999503848414
20
-25.78687462055818
42
-0.4142135623730534
0
LWPOLYLINE
5
134
100
AcDbEntity
8
0
100
AcDbPolyline
90
8
70
1
43
0.0
10
-25.549999950978162
20
44.86312538003537
10
-12.54999995097819
20
44.863125380035513
42
-0.41421356237311585
10
-12.049999950978165
20
44.363125380035164
10
-12.049999950978156
20
31.363125380035228
42
-0.41421356237307422
10
-12.54999995097819
20
30.863125380035157
10
-25.549999950978162
20
30.863125380035157
42
-0.41421356237309503
10
-26.049999950978162
20
31.363125380035299
10
-26.049999950978151
20
44.36312538003552
42
-0.41421356237309503
0
LWPOLYLINE
5
135
100
AcDbEntity
8
0
100
AcDbPolyline
90
8
70
1
43
0.0
10
-50.14999995097817
20
44.363125380034916
10
-50.149999950978177
20
31.363125380035228
42
-0.41421356237309503
10
-50.649999950978177
20
30.863125380035157
10
-63.649999950978113
20
30.863125380035168
42
-0.41421356237309503
10
-64.149999950978071
20
31.363125380035193
10
-64.149999950978071
20
44.363125380035022
42
-0.4142135623730534
10
-63.649999950978113
20
44.863125380035342
10
-50.649999950978177
20
44.863125380034887
42
-0.41421356237303258
0
LWPOLYLINE
5
136
100
AcDbEntity
8
0
100
AcDbPolyline
90
8
70
1
43
0.0
10
-83.987499950384787
20
-26.286874620558152
10
-96.987499950384901
20
-26.286874620558169
42
-0.41421356237307422
10
-97.487499950384858
20
-25.786874620558038
10
-97.487499950384915
20
-12.786874620558102
42
-0.41421356237309503
10
-96.987499950384901
20
-12.286874620558166
10
-83.98749995038493
20
-12.28687462055813
42
-0.41421356237307422
10
-83.487499950384773
20
-12.786874620558102
10
-83.487499950384887
20
-25.786874620558109
42
-0.41421356237309503
0
LWPOLYLINE
5
137
100
AcDbEntity
8
0
100
AcDbPolyline
90
12
70
1
43
0.0
10
-116.60937495068147
20
3.76312537973849
10
-116.10937495068143
20
3.7631253797385256
42
-0.41421356237309503
10
-115.60937495068146
20
3.263125379738554
10
-115.60937495068153
20
-2.2368746202614886
42
0.41421356237315748
10
-115.10937495068148
20
-2.7368746202614247
10
-112.60937495068148
20
-2.7368746202614425
42
-0.41421356237307422
10
-112.10937495068153
20
-3.2368746202613607
10
-112.10937495068157
20
-3.7368746202614744
42
-0.41421356237303258
10
-112.60937495068148
20
-4.2368746202614993
10
-115.10937495068148
20
-4.2368746202614638
42
-0.41421356237311063
10
-117.10937495068157
20
-2.2368746202614886
10
-117.10937495068151
20
3.263125379738554
42
-0.41421356237315748
0
LWPOLYLINE
5
138
100
AcDbEntity
8
0
100
AcDbPolyline
90
8
70
1
43
0.0
10
21.575000049615191
20
12.313125379441985
10
21.575000049615202
20
25.313125379441992
42
-0.41421356237313667
10
22.07500004961517
20
25.813125379441889
10
35.07500004961507
20
25.813125379441992
42
-0.41421356237311585
10
35.57500004961507
20
25.313125379441814
10
35.57500004961507
20
12.313125379441914
42
-0.4142135623730534
10
35.075000049615142
20
11.81312537944191
10
22.07500004961517
20
11.813125379441969
42
-0.41421356237311585
0
LWPOLYLINE
5
139
100
AcDbEntity
8
0
100
AcDbPolyline
90
8
70
1
43
0.0
10
64.150000049021898
20
44.363125380035306
10
64.150000049021884
20
31.363125380035299
42
-0.41421356237301177
10
63.650000049021926
20
30.863125380035346
10
50.650000049021884
20
30.863125380035363
42
-0.41421356237326151
10
50.150000049021912
20
31.363125380035193
10
50.150000049021926
20
44.363125380034134
42
-0.41421356237292856
10
50.650000049021884
20
44.863125380035797
10
63.650000049021926
20
44.863125380034035
42
-0.41421356237311585
0
LWPOLYLINE
5
140
100
AcDbEntity
8
0
100
AcDbPolyline
90
8
70
1
43
0.0
10
55.41250004961519
20
-12.286874620558086
10
68.41250004961509
20
-12.286874620558361
42
-0.4142135623731783
10
68.912500049615261
20
-12.786874620558102
10
68.912500049615232
20
-25.786874620558038
42
-0.4142135623730534
10
68.412500049615232
20
-26.286874620558109
10
55.412500049615119
20
-26.286874620558009
42
-0.4142135623730534
10
54.912500049615218
20
-25.78687462055818
10
54.912500049615247
20
-12.786874620558208
42
-0.41421356237303258
0
LWPOLYLINE
5
141
100
AcDbEntity
8
0
100
AcDbPolyline
90
8
70
1
43
0.0
10
45.887500049615184
20
6.7631253794419166
10
58.887500049615227
20
6.7631253794418811
42
-0.41421356237319906
10
59.387500049615198
20
6.263125379441874
10
59.387500049615227
20
-6.7368746205580976
42
-0.41421356237297013
10
58.887500049615298
20
-7.2368746205580958
10
45.887500049615113
20
-7.2368746205581491
42
-0.41421356237309503
10
45.387500049615134
20
-6.7368746205578844
10
45.387500049615142
20
6.2631253794419806
42
-0.41421356237311585
0
LWPOLYLINE
5
142
100
AcDbEntity
8
0
100
AcDbPolyline
90
8
70
1
43
0.0
10
54.625000049615267
20
25.31312537944185
10
54.625000049615302
20
12.313125379441985
42
-0.41421356237301177
10
54.125000049615224
20
11.813125379441765
10
41.125000049615181
20
11.813125379441871
42
-0.41421356237311585
10
40.625000049615174
20
12.313125379441914
10
40.625000049615238
20
25.313125379442027
42
-0.41421356237309503
10
41.125000049615181
20
25.813125379441828
10
54.125000049615153
20
25.813125379441502
42
-0.41421356237307422
0
LWPOLYLINE
5
143
100
AcDbEntity
8
0
100
AcDbPolyline
90
8
70
1
43
0.0
10
6.5000000490217857
20
30.863125380035115
10
-6.4999999509781858
20
30.863125380034973
42
-0.41421356237307422
10
-6.9999999509781574
20
31.363125380035122
10
-6.9999999509781397
20
44.36312538003591
42
-0.41421356237307422
10
-6.4999999509781148
20
44.863125380035612
10
6.5000000490218213
20
44.863125380035179
42
-0.41421356237309503
10
7.0000000490218017
20
44.363125380034347
10
7.0000000490217928
20
31.363125380035086
42
-0.41421356237311585
0
LWPOLYLINE
5
144
100
AcDbEntity
8
0
100
AcDbPolyline
90
8
70
1
43
0.0
10
113.00575004902183
20
7.2631253800351914
10
113.00575004902194
20
-7.7368746199647731
42
-0.41421356237315748
10
112.50575004902167
20
-8.2368746199650111
10
106.50575004902194
20
-8.2368746199649223
42
-0.41421356237309503
10
106.0057500490219
20
-7.7368746199648797
10
106.00575004902194
20
7.2631253800351914
42
-0.41421356237309503
10
106.50575004902208
20
7.7631253800353406
10
112.50575004902174
20
7.7631253800353051
42
-0.41421356237311585
0
LWPOLYLINE
5
145
100
AcDbEntity
8
0
100
AcDbPolyline
90
8
70
1
43
0.0
10
114.94375004902182
20
6.7631253800354862
10
127.94375004902186
20
6.7631253800351132
42
-0.4142135623730534
10
128.44375004902187
20
6.2631253800350351
10
128.44375004902187
20
-6.7368746199648655
42
-0.41421356237292856
10
127.94375004902186
20
-7.2368746199648726
10
114.94375004902182
20
-7.2368746199649436
42
-0.41421356237311585
10
114.44375004902199
20
-6.7368746199647944
10
114.4437500490219
20
6.263125380034964
42
-0.41421356237294937
0
LWPOLYLINE
5
146
100
AcDbEntity
8
0
100
AcDbPolyline
90
8
70
1
43
0.0
10
-130.38174995097813
20
-27.28687461996488
10
-136.38174995097819
20
-27.28687461996488
42
-0.41421356237307422
10
-136.88174995097813
20
-26.78687461996482
10
-136.88174995097813
20
-11.78687461996482
42
-0.4142135623730846
10
-136.38174995097816
20
-11.286874619964813
10
-130.38174995097813
20
-11.286874619964848
42
-0.41421356237311585
10
-129.88174995097813
20
-11.78687461996482
10
-129.88174995097819
20
-26.786874619964891
42
-0.41421356237306384
0
LWPOLYLINE
5
147
100
AcDbEntity
8
0
100
AcDbPolyline
90
8
70
1
43
0.0
10
-31.599999950978166
20
30.86312538003515
10
-44.599999950978173
20
30.863125380035186
42
-0.41421356237303258
10
-45.099999950978145
20
31.363125380035193
10
-45.099999950978159
20
44.363125380035129
42
-0.41421356237307422
10
-44.599999950978173
20
44.863125380035157
10
-31.599999950978166
20
44.863125380035186
42
-0.41421356237311585
10
-31.099999950978106
20
44.363125380034951
10
-31.099999950978123
20
31.363125380035193
42
-0.41421356237309503
0
LWPOLYLINE
5
148
100
AcDbEntity
8
0
100
AcDbPolyline
90
8
70
1
43
0.0
10
-60.17499995038488
20
11.813125379441942
10
-73.174999950384958
20
11.813125379441862
42
-0.41421356237311585
10
-73.674999950384901
20
12.313125379441914
10
-73.674999950384887
20
25.313125379441885
42
-0.41421356237309503
10
-73.174999950384887
20
25.813125379441892
10
-60.174999950384951
20
25.813125379441892
42
-0.41421356237307422
10
-59.674999950384908
20
25.313125379441956
10
-59.674999950384944
20
12.313125379441878
42
-0.41421356237313667
0
LWPOLYLINE
5
149
100
AcDbEntity
8
0
100
AcDbPolyline
90
8
70
1
43
0.0
10
-45.887499950384836
20
-26.286874620558116
10
-58.887499950384878
20
-26.286874620558134
42
-0.41421356237307422
10
-59.387499950384864
20
-25.786874620558109
10
-59.387499950384814
20
-12.786874620558066
42
-0.41421356237309503
10
-58.887499950384807
20
-12.286874620558059
10
-45.887499950384836
20
-12.286874620558041
42
-0.41421356237309503
10
-45.387499950384807
20
-12.786874620558066
10
-45.3874999503849
20
-25.78687462055818
42
-0.41421356237309503
0
LWPOLYLINE
5
150
100
AcDbEntity
8
0
100
AcDbPolyline
90
8
70
1
43
0.0
10
-3.0249999503849168
20
11.813125379441871
10
-16.024999950384888
20
11.813125379441926
42
-0.41421356237303258
10
-16.524999950384839
20
12.313125379441914
10
-16.524999950384846
20
25.31312537944185
42
-0.4142135623730534
10
-16.024999950384853
20
25.813125379441843
10
-3.0249999503848812
20
25.813125379442027
42
-0.41421356237307422
10
-2.5249999503849518
20
25.31312537944185
10
-2.5249999503849807
20
12.313125379441807
42
-0.41421356237313667
0
LWPOLYLINE
5
151
100
AcDbEntity
8
0
100
AcDbPolyline
90
8
70
1
43
0.0
10
1.7375000496151571
20
-7.2368746205580692
10
-11.262499950384885
20
-7.2368746205579821
42
-0.4142135623730534
10
-11.762499950384877
20
-6.7368746205580621
10
-11.762499950384889
20
6.2631253794418384
42
-0.41421356237311585
10
-11.262499950384885
20
6.7631253794418775
10
1.7375000496151927
20
6.7631253794418633
42
-0.41421356237307422
10
2.237500049615218
20
6.263125379441874
10
2.2375000496151642
20
-6.7368746205580621
42
-0.4142135623730534
0
LWPOLYLINE
5
152
100
AcDbEntity
8
0
100
AcDbPolyline
90
8
70
1
43
0.0
10
83.200000049021838
20
44.363125380033992
10
83.200000049021781
20
31.363125380034802
42
-0.41421356237292856
10
82.700000049021867
20
30.863125380035168
10
69.700000049021895
20
30.863125380034795
42
-0.41421356237299095
10
69.200000049021853
20
31.363125380034944
10
69.200000049021824
20
44.363125380035058
42
-0.4142135623730534
10
69.700000049021895
20
44.863125380034063
10
82.700000049021867
20
44.863125380034674
42
-0.4142135623731783
0
LWPOLYLINE
5
153
100
AcDbEntity
8
0
100
AcDbPolyline
90
8
70
1
43
0.0
10
-98.274999950384867
20
11.813125379441871
10
-111.27499995038484
20
11.813125379441889
42
-0.41421356237315748
10
-111.77499995038482
20
12.313125379441914
10
-111.77499995038488
20
25.313125379441885
42
-0.41421356237309503
10
-111.27499995038491
20
25.813125379441857
10
-98.274999950384867
20
25.813125379441821
42
-0.4142135623730534
10
-97.774999950384853
20
25.313125379441885
10
-97.774999950384895
20
12.313125379441914
42
-0.4142135623730534
0
LWPOLYLINE
5
154
100
AcDbEntity
8
0
100
AcDbPolyline
90
8
70
1
43
0.0
10
-74.462499950384782
20
-7.2368746205581003
10
-87.462499950384824
20
-7.2368746205580869
42
-0.4142135623730534
10
-87.962499950384739
20
-6.7368746205580976
10
-87.96249995038481
20
6.2631253794419095
42
-0.41421356237307422
10
-87.462499950384824
20
6.7631253794418669
10
-74.462499950384824
20
6.7631253794419166
42
-0.41421356237309503
10
-73.962499950384853
20
6.263125379441874
10
-73.96249995038481
20
-6.7368746205580976
42
-0.41421356237311585
0
LWPOLYLINE
5
155
100
AcDbEntity
8
0
100
AcDbPolyline
90
8
70
1
43
0.0
10
-92.224999950384969
20
25.8131253794419
10
-79.224999950384898
20
25.813125379441885
42
-0.41421356237307422
10
-78.724999950384927
20
25.313125379441885
10
-78.724999950384884
20
12.313125379441914
42
-0.41421356237315748
10
-79.224999950384898
20
11.813125379441873
10
-92.224999950384898
20
11.813125379441907
42
-0.41421356237309503
10
-92.724999950384898
20
12.313125379441914
10
-92.724999950384841
20
25.313125379441956
42
-0.4142135623730534
0
LWPOLYLINE
5
156
100
AcDbEntity
8
0
100
AcDbPolyline
90
8
70
1
43
0.0
10
120.80000004902182
20
30.863125380033054
10
107.80000004902192
20
30.86312538003547
42
-0.41421356237313667
10
107.30000004902188
20
31.363125380035157
10
107.30000004902188
20
44.363125380034489
42
-0.41421356237309503
10
107.80000004902199
20
44.863125380037587
10
120.80000004902189
20
44.863125380037076
42
-0.41421356237309503
10
121.30000004902188
20
44.363125380037083
10
121.30000004902193
20
31.363125380033097
42
-0.41421356237313667
0
LWPOLYLINE
5
157
100
AcDbEntity
8
0
100
AcDbPolyline
90
8
70
1
43
0.0
10
114.15625004902196
20
-12.786874619964834
10
114.15625004902176
20
-25.786874619967932
42
-0.4142135623731783
10
113.65625004902164
20
-26.286874619967922
10
100.65625004902188
20
-26.286874619964635
42
-0.4142135623731783
10
100.15625004902191
20
-25.786874619964806
10
100.15625004902189
20
-12.786874619964905
42
-0.41421356237307422
10
100.65625004902188
20
-12.286874619964951
10
113.65625004902192
20
-12.286874619964863
42
-0.41421356237313667
0
LWPOLYLINE
5
158
100
AcDbEntity
8
0
100
AcDbPolyline
90
8
70
1
43
0.0
10
-126.34999995097822
20
44.3631253800352
10
-126.34999995097814
20
31.363125380035157
42
-0.4142135623730222
10
-126.84999995097813
20
30.863125380035179
10
-139.84999995097812
20
30.863125380035168
42
-0.41421356237310542
10
-140.34999995097812
20
31.363125380035157
10
-140.34999995097823
20
44.363125380035164
42
-0.41421356237313667
10
-139.84999995097812
20
44.863125380035186
10
-126.84999995097819
20
44.863125380035207
42
-0.41421356237307422
0
LWPOLYLINE
5
159
100
AcDbEntity
8
0
100
AcDbPolyline
90
8
70
1
43
0.0
10
-87.962499950978099
20
-44.836874619964782
10
-87.962499950978156
20
-31.836874619964846
42
-0.41421356237301177
10
-87.462499950978128
20
-31.336874619964821
10
-74.462499950978085
20
-31.336874619964821
42
-0.41421356237311585
10
-73.962499950978099
20
-31.836874619964846
10
-73.962499950978099
20
-44.836874619964817
42
-0.41421356237309503
10
-74.462499950978085
20
-45.336874619964796
10
-87.462499950978128
20
-45.336874619964789
42
-0.41421356237311585
0
LWPOLYLINE
5
160
100
AcDbEntity
8
0
100
AcDbPolyline
90
8
70
1
43
0.0
10
-119.20624995097818
20
6.2631253800351772
10
-119.20624995097813
20
-6.7368746199648655
42
-0.41421356237315748
10
-119.70624995097815
20
-7.2368746199648459
10
-137.46624995097812
20
-7.2368746199648193
42
-0.41421356237309503
10
-137.96624995097815
20
-6.7368746199648655
10
-137.96624995097812
20
6.2631253800351772
42
-0.4142135623730846
10
-137.46624995097815
20
6.7631253800351718
10
-119.70624995097815
20
6.7631253800351132
42
-0.41421356237307422
0
LWPOLYLINE
5
161
100
AcDbEntity
8
0
100
AcDbPolyline
90
8
70
1
43
0.0
10
64.437500049615224
20
-6.7368746205580621
10
64.43750004961521
20
6.263125379441945
42
-0.41421356237292856
10
64.937500049615196
20
6.7631253794419335
10
77.937500049615238
20
6.7631253794419255
42
-0.41421356237307422
10
78.43750004961511
20
6.263125379441945
10
78.437500049615366
20
-6.7368746205580976
42
-0.41421356237313667
10
77.937500049615238
20
-7.2368746205580052
10
64.937500049615196
20
-7.2368746205581402
42
-0.41421356237307422
0
LWPOLYLINE
5
162
100
AcDbEntity
8
0
100
AcDbPolyline
90
8
70
1
43
0.0
10
102.25000004902185
20
44.363125380034987
10
102.25000004902191
20
31.363125380034873
42
-0.41421356237286611
10
101.75000004902188
20
30.863125380035381
10
88.750000049021907
20
30.863125380035505
42
-0.41421356237313667
10
88.250000049021821
20
31.363125380035086
10
88.250000049021708
20
44.363125380036266
42
-0.41421356237297013
10
88.750000049021835
20
44.863125380034759
10
101.75000004902188
20
44.863125380035065
42
-0.41421356237315748
0
LWPOLYLINE
5
163
100
AcDbEntity
8
0
100
AcDbPolyline
90
8
70
1
43
0.0
10
-35.074999950384864
20
25.813125379441985
10
-22.074999950384857
20
25.813125379441786
42
-0.41421356237309503
10
-21.57499995038485
20
25.313125379441992
10
-21.57499995038485
20
12.313125379441985
42
-0.41421356237311585
10
-22.074999950384893
20
11.813125379441907
10
-35.074999950384864
20
11.813125379441999
42
-0.41421356237309503
10
-35.57499995038485
20
12.313125379441985
10
-35.574999950384893
20
25.313125379441921
42
-0.41421356237311585
0
LWPOLYLINE
5
164
100
AcDbEntity
8
0
100
AcDbPolyline
90
8
70
1
43
0.0
10
-54.624999950384918
20
12.313125379441914
10
-54.624999950384904
20
25.313125379441992
42
-0.41421356237309503
10
-54.124999950384911
20
25.81312537944191
10
-41.124999950384833
20
25.813125379441946
42
-0.41421356237309503
10
-40.624999950384847
20
25.313125379441885
10
-40.624999950384833
20
12.313125379441878
42
-0.41421356237309503
10
-41.124999950384833
20
11.81312537944188
10
-54.124999950384911
20
11.813125379441978
42
-0.41421356237309503
0
LWPOLYLINE
5
165
100
AcDbEntity
8
0
100
AcDbPolyline
90
8
70
1
43
0.0
10
83.987500049615278
20
6.7631253794418456
10
96.987500049615107
20
6.763125379442041
42
-0.4142135623730534
10
97.487500049615136
20
6.2631253794420871
10
97.48750004961515
20
-6.7368746205582397
42
-0.4142135623730534
10
96.987500049615107
20
-7.2368746205582113
10
83.987500049615207
20
-7.2368746205581402
42
-0.41421356237313667
10
83.487500049615235
20
-6.7368746205582397
10
83.487500049615235
20
6.2631253794420161
42
-0.41421356237313667
0
LWPOLYLINE
5
166
100
AcDbEntity
8
0
100
AcDbPolyline
90
8
70
1
43
0.0
10
-68.412499950384884
20
6.7631253794419255
10
-55.412499950384877
20
6.763125379441961
42
-0.41421356237307422
10
-54.912499950384898
20
6.263125379441945
10
-54.912499950384813
20
-6.7368746205580621
42
-0.41421356237309503
10
-55.412499950384841
20
-7.2368746205580115
10
-68.412499950384955
20
-7.2368746205581047
42
-0.41421356237309503
10
-68.912499950384898
20
-6.7368746205580976
10
-68.912499950384898
20
6.2631253794418384
42
-0.41421356237301177
0
LWPOLYLINE
5
167
100
AcDbEntity
8
0
100
AcDbPolyline
90
8
70
1
43
0.0
10
-106.50574995097813
20
-27.286874619964809
10
-112.50574995097814
20
-27.286874619964827
42
-0.41421356237307422
10
-113.00574995097818
20
-26.786874619964891
10
-113.00574995097813
20
-11.786874619964749
42
-0.41421356237307422
10
-112.50574995097814
20
-11.286874619964795
10
-106.5057499509782
20
-11.28687461996476
42
-0.41421356237309503
10
-106.00574995097821
20
-11.786874619964749
10
-106.00574995097814
20
-26.78687461996482
42
-0.41421356237309503
0
LWPOLYLINE
5
168
100
AcDbEntity
8
0
100
AcDbPolyline
90
8
70
1
43
0.0
10
136.38175004902166
20
-8.2368746199652776
10
130.38175004902166
20
-8.2368746199651888
42
-0.41421356237309503
10
129.88175004902192
20
-7.7368746199654481
10
129.88175004902195
20
7.263125380035369
42
-0.4142135623730534
10
130.38175004902178
20
7.7631253800352873
10
136.381750049022
20
7.7631253800353406
42
-0.41421356237309503
10
136.88175004902195
20
7.2631253800354045
10
136.88175004902183
20
-7.7368746199650928
42
-0.41421356237309503
0
LWPOLYLINE
5
169
100
AcDbEntity
8
0
100
AcDbPolyline
90
8
70
1
43
0.0
10
12.050000049021772
20
31.363125380035228
10
12.050000049021827
20
44.36312538003552
42
-0.41421356237303258
10
12.550000049021897
20
44.863125380035555
10
25.550000049021833
20
44.863125380035399
42
-0.41421356237303258
10
26.050000049021858
20
44.363125380035981
10
26.050000049021822
20
31.363125380035264
42
-0.41421356237292856
10
25.550000049021868
20
30.863125380035239
10
12.550000049021861
20
30.863125380035108
42
-0.41421356237311585
0
LWPOLYLINE
5
170
100
AcDbEntity
8
0
100
AcDbPolyline
90
8
70
1
43
0.0
10
30.812500049615252
20
-12.786874620558244
10
30.81250004961522
20
-25.786874620558002
42
-0.41421356237297013
10
30.31250004961521
20
-26.286874620558084
10
17.312500049615238
20
-26.286874620558081
42
-0.41421356237315748
10
16.812500049615231
20
-25.786874620558038
10
16.812500049615199
20
-12.786874620558173
42
-0.41421356237309503
10
17.312500049615203
20
-12.286874620558239
10
30.31250004961521
20
-12.286874620558201
42
-0.41421356237313667
0
LWPOLYLINE
5
171
100
AcDbEntity
8
0
100
AcDbPolyline
90
8
70
1
43
0.0
10
31.600000049021908
20
44.863125380033679
10
44.600000049021844
20
44.863125380035626
42
-0.41421356237311585
10
45.100000049021808
20
44.363125380034631
10
45.10000004902183
20
31.36312538003498
42
-0.41421356237311585
10
44.600000049021844
20
30.863125380034955
10
31.600000049021872
20
30.863125380035097
42
-0.41421356237311585
10
31.100000049021883
20
31.363125380035122
10
31.100000049021901
20
44.363125380035697
42
-0.41421356237311585
0
LWPOLYLINE
5
172
100
AcDbEntity
8
0
100
AcDbPolyline
90
8
70
1
43
0.0
10
39.837500049615358
20
-7.2368746205580159
10
26.837500049615244
20
-7.2368746205582157
42
-0.41421356237315748
10
26.337500049615198
20
-6.7368746205580621
10
26.337500049615205
20
6.2631253794419095
42
-0.41421356237315748
10
26.837500049615244
20
6.7631253794417701
10
39.837500049615144
20
6.7631253794419344
42
-0.41421356237315748
10
40.337500049615173
20
6.263125379441945
10
40.337500049615201
20
-6.7368746205580621
42
-0.41421356237299095
0
LWPOLYLINE
5
173
100
AcDbEntity
8
0
100
AcDbPolyline
90
8
70
1
43
0.0
10
-2.2374999503848221
20
-25.786874620558038
10
-2.2374999503848625
20
-12.786874620558066
42
-0.41421356237309503
10
-1.7374999503848088
20
-12.286874620558155
10
11.262500049615163
20
-12.286874620558166
42
-0.4142135623730534
10
11.76250004961517
20
-12.786874620558173
10
11.762500049615184
20
-25.786874620558109
42
-0.41421356237309503
10
11.262500049615198
20
-26.286874620558095
10
-1.7374999503847732
20
-26.286874620558084
42
-0.4142135623730534
0
LWPOLYLINE
5
174
100
AcDbEntity
8
0
100
AcDbPolyline
90
16
70
1
43
0.0
10
-38.075000174497404
20
-28.336874170486741
10
-34.311554254823449
20
-28.336874170486798
42
-0.34199871687995104
10
-32.375062574986714
20
-29.836874196563912
42
0.34199871687996086
10
-30.438570895149955
20
-31.336874222641008
10
-24.574999950980043
20
-31.336874222641153
42
-0.99999999999999989
10
-24.574999950980043
20
-32.33687422264115
10
-31.413638493167184
20
-32.336874222641036
42
-0.10314796225363713
10
-33.01224900093807
20
-32.003540889307672
42
0.10314796225363597
10
-33.811554254823562
20
-31.836874222640986
10
-37.575000174497504
20
-31.836874222640994
42
-0.34199871687992733
10
-39.511491854334281
20
-30.336874196563844
42
0.34199871687994493
10
-41.447983534171016
20
-28.836874170486702
10
-48.600002886508577
20
-28.836874170486638
42
-0.99999999999999989
10
-48.600002886508605
20
-27.83687417048672
10
-40.472915936153768
20
-27.836874170486716
42
-0.10314796225364027
10
-38.874305428382883
20
-28.170207503820066
42
0.10314796225362749
0
LWPOLYLINE
5
175
100
AcDbEntity
8
0
100
AcDbPolyline
90
4
70
1
43
0.0
10
-81.27991844762974
20
-50.611874619969015
10
-126.27991844762977
20
-50.61187461996834
42
-0.99999999999999989
10
-126.27991844762977
20
-50.111874619968262
10
-81.27991844762974
20
-50.111874619968972
42
-0.99999999999999989
0
LWPOLYLINE
5
176
100
AcDbEntity
8
0
100
AcDbPolyline
90
4
70
1
43
0.0
10
81.279918545670554
20
50.138125380029365
42
0.99999999999999989
10
81.279918545670554
20
49.638125380029322
10
126.27991854567058
20
49.638125380028612
42
0.99999999999999989
10
126.27991854567051
20
50.138125380028654
0
LWPOLYLINE
5
177
100
AcDbEntity
8
0
100
AcDbPolyline
90
4
70
1
43
0.0
10
-7.0700814543309853
20
49.638125380030672
10
-52.07008145433106
20
49.63812538003134
42
-0.99999999999999989
10
-52.070081454331017
20
50.138125380031241
10
-7.0700814543310564
20
50.138125380030644
42
-0.99999999999999989
0
LWPOLYLINE
5
178
100
AcDbEntity
8
0
100
AcDbPolyline
90
4
70
1
43
0.0
10
126.27991854566899
20
-50.611874619972177
42
0.99999999999999989
10
126.27991854566899
20
-50.11187461997217
10
81.279918545668991
20
-50.111874619971474
42
0.99999999999999989
10
81.279918545668991
20
-50.611874619971488
0
LWPOLYLINE
5
179
100
AcDbEntity
8
0
100
AcDbPolyline
90
4
70
1
43
0.0
10
-81.279918447628248
20
49.638125380031767
10
-126.27991844762823
20
49.638125380032406
42
-0.99999999999999989
10
-126.27991844762823
20
50.138125380032449
10
-81.279918447628248
20
50.138125380031809
42
-0.99999999999999989
0
LWPOLYLINE
5
180
100
AcDbEntity
8
0
100
AcDbPolyline
90
4
70
1
43
0.0
10
52.070081552371889
20
-50.611874619970969
10
7.0700815523719385
20
-50.611874619970294
42
-0.99999999999999989
10
7.0700815523718674
20
-50.111874619970358
10
52.070081552371747
20
-50.111874619971047
42
-0.99999999999999989
0
LWPOLYLINE
5
181
100
AcDbEntity
8
0
100
AcDbPolyline
90
4
70
1
43
0.0
10
-52.070081454332566
20
-50.111874619969456
42
0.99999999999999989
10
-52.070081454332566
20
-50.611874619969313
10
-7.0700814543325841
20
-50.611874619970067
42
0.99999999999999989
10
-7.0700814543325308
20
-50.111874619970173
0
LWPOLYLINE
5
182
100
AcDbEntity
8
0
100
AcDbPolyline
90
4
70
1
43
0.0
10
52.070081552373381
20
49.638125380029777
42
0.99999999999999989
10
52.070081552373381
20
50.138125380029749
10
7.0700815523734484
20
50.138125380030459
42
0.99999999999999989
10
7.0700815523734484
20
49.638125380030488
0
LWPOLYLINE
5
183
100
AcDbEntity
8
0
100
AcDbPolyline
90
8
70
1
43
0.0
10
115.68125004931856
20
25.813125379442159
10
117.68125004931855
20
25.81312537944217
42
-0.41421356237309503
10
118.18125004931856
20
25.313125379442162
10
118.18125004931856
20
12.313125380035315
42
-0.41421356237309503
10
117.68125004931855
20
11.813125380035315
10
115.68125004931856
20
11.813125380035309
42
-0.41421356237309503
10
115.18125004931855
20
12.313125380035316
10
115.18125004931858
20
25.313125379442162
42
-0.41421356237309503
0
LWPOLYLINE
5
184
100
AcDbEntity
8
0
100
AcDbPolyline
90
8
70
1
43
0.0
10
-115.18124995068148
20
25.313125380035167
10
-115.18124995068148
20
12.313125379441892
42
-0.41421356237309503
10
-115.68124995068148
20
11.813125379441891
10
-117.68124995068148
20
11.813125379441882
42
-0.41421356237309503
10
-118.18124995068148
20
12.313125379441889
10
-118.18124995068146
20
25.313125380035167
42
-0.41421356237309503
10
-117.68124995068148
20
25.813125380035164
10
-115.68124995068148
20
25.813125380035174
42
-0.41421356237309503
0
LWPOLYLINE
5
185
100
AcDbEntity
8
0
100
AcDbPolyline
90
8
70
1
43
0.0
10
95.059375049318646
20
-26.286874619964511
10
93.059375049318646
20
-26.286874619964522
42
-0.41421356237309503
10
92.559375049318646
20
-25.786874619964514
10
92.559375049318646
20
-12.786874620557835
42
-0.41421356237309503
10
93.059375049318646
20
-12.286874620557835
10
95.059375049318646
20
-12.28687462055783
42
-0.41421356237309503
10
95.559375049318646
20
-12.786874620557837
10
95.559375049318646
20
-25.786874619964514
42
-0.41421356237309503
0
LWPOLYLINE
5
186
100
AcDbEntity
8
0
100
AcDbPolyline
90
8
70
1
43
0.0
10
87.962500049021898
20
-31.836874619964917
10
87.962500049021926
20
-44.836874619964959
42
-0.41421356237330315
10
87.462500049021941
20
-45.336874619964874
10
74.462500049021898
20
-45.336874619964824
42
-0.41421356237311585
10
73.962500049021926
20
-44.836874619964675
10
73.962500049021941
20
-31.836874619964703
42
-0.41421356237292856
10
74.462500049021827
20
-31.33687461996481
10
87.462500049021941
20
-31.336874619964963
42
-0.4142135623731783
0
LWPOLYLINE
5
187
100
AcDbEntity
8
0
100
AcDbPolyline
90
8
70
1
43
0.0
10
111.77500004902193
20
-31.836874619964952
10
111.77500004902191
20
-44.836874619964817
42
-0.4142135623730534
10
111.27500004902188
20
-45.336874619965059
10
98.275000049021912
20
-45.336874619964824
42
-0.41421356237297013
10
97.775000049021969
20
-44.836874619964817
10
97.775000049021955
20
-31.836874619964703
42
-0.41421356237313667
10
98.275000049021983
20
-31.336874619965034
10
111.27500004902188
20
-31.336874619964803
42
-0.41421356237315748
0
LWPOLYLINE
5
188
100
AcDbEntity
8
0
100
AcDbPolyline
90
8
70
1
43
0.0
10
135.58750004902186
20
-31.836874619964703
10
135.58750004902186
20
-44.836874619964604
42
-0.41421356237309503
10
135.08750004902191
20
-45.336874619965002
10
122.08750004902186
20
-45.336874619964661
42
-0.41421356237319906
10
121.58750004902183
20
-44.836874619964746
10
121.58750004902188
20
-31.836874619964775
42
-0.41421356237297013
10
122.08750004902186
20
-31.336874619965016
10
135.08750004902191
20
-31.336874619964803
42
-0.41421356237313667
0
LINE
5
189
100
AcDbEntity
8
0
100
AcDbLine
10
142.87500004901975
20
-46.261874619972083
30
-2.2204460492503131e-15
11
142.87500004902202
21
45.788125380028021
31
-5.1070259132757201e-14
0
ARC
5
190
100
AcDbEntity
8
0
100
AcDbCircle
10
141.27500004902205
20
45.788125380028063
30
-5.1070259132757201e-14
40
1.5999999999999659
210
0
220
0
230
1
100
AcDbArc
50
0
51
90
0
LINE
5
191
100
AcDbEntity
8
0
100
AcDbLine
10
141.27500004902205
20
47.388125380028029
30
-5.1070259132757201e-14
11
127.67991854567045
21
47.388125380028384
31
-5.3290705182007514e-14
0
ARC
5
192
100
AcDbEntity
8
0
100
AcDbCircle
10
127.67991854567049
20
47.888125380028384
30
-5.3290705182007514e-14
40
0.50000000000000711
210
0
220
0
230
1
100
AcDbArc
50
180
51
269.99999999999511
0
LINE
5
193
100
AcDbEntity
8
0
100
AcDbLine
10
127.17991854567047
20
47.888125380028384
30
-5.3290705182007514e-14
11
127.17991854567047
21
47.948517574591506
31
-5.5511151231257827e-14
0
ARC
5
194
100
AcDbEntity
8
0
100
AcDbCircle
10
127.67991854567049
20
47.948517574591477
30
-5.5511151231257827e-14
40
0.50000000000001554
210
0
220
0
230
1
100
AcDbArc
50
103.77414699803168
51
180
0
ARC
5
195
100
AcDbEntity
8
0
100
AcDbCircle
10
127.17991854567055
20
49.988125380028578
30
-5.773159728050814e-14
40
1.5999999999999559
210
-3.3042351923360212e-16
220
1.347868777858076e-15
230
1
100
AcDbArc
50
-76.225853001976688
51
0
0
LINE
5
196
100
AcDbEntity
8
0
100
AcDbLine
10
128.77991854567051
20
49.988125380028578
30
-5.7202919649734389e-14
11
128.7799185456706
21
52.788125380028589
31
-5.6898930012039273e-14
0
ARC
5
197
100
AcDbEntity
8
0
100
AcDbCircle
10
127.17991854567052
20
52.788125380028589
30
-5.3290705182007514e-14
40
1.6000000000000725
210
2.2551405187697471e-15
220
0
230
1
100
AcDbArc
50
0
51
89.999999999997456
0
LINE
5
198
100
AcDbEntity
8
0
100
AcDbLine
10
127.17991854567059
20
54.388125380028654
30
-5.3290705182007678e-14
11
80.37991854567062
21
54.388125380029365
31
-5.3290705182007514e-14
0
ARC
5
199
100
AcDbEntity
8
0
100
AcDbCircle
10
80.379918545670549
20
52.788125380029371
30
-5.9952043329758453e-14
40
1.6000000000000014
210
-1.8488927466117435e-28
220
-4.1633363423443339e-15
230
1
100
AcDbArc
50
89.999999999997456
51
180
0
LINE
5
200
100
AcDbEntity
8
0
100
AcDbLine
10
78.779918545670569
20
52.788125380029371
30
-5.9952043329758743e-14
11
78.779918545670512
21
49.988125380029317
31
-5.4123372450476381e-14
0
ARC
5
201
100
AcDbEntity
8
0
100
AcDbCircle
10
80.379918545670549
20
49.988125380029317
30
-5.773159728050814e-14
40
1.6000000000000369
210
2.2551405187697972e-15
220
0
230
1
100
AcDbArc
50
180
51
256.22585300197096
0
ARC
5
202
100
AcDbEntity
8
0
100
AcDbCircle
10
79.879918545670478
20
47.948517574592188
30
-5.3290705182007514e-14
40
0.50000000000000711
210
0
220
0
230
1
100
AcDbArc
50
0
51
76.225853001973064
0
LINE
5
203
100
AcDbEntity
8
0
100
AcDbLine
10
80.379918545670478
20
47.948517574592188
30
-5.3290705182007514e-14
11
80.37991854567052
21
47.888125380029635
31
-4.6629367034256575e-14
0
ARC
5
204
100
AcDbEntity
8
0
100
AcDbCircle
10
79.879918545670506
20
47.888125380029635
30
-4.6629367034256575e-14
40
0.50000000000000711
210
0
220
0
230
1
100
AcDbArc
50
-90
51
0
0
LINE
5
205
100
AcDbEntity
8
0
100
AcDbLine
10
79.879918545670506
20
47.388125380029621
30
-4.6629367034256575e-14
11
70.34097484020927
21
47.388125380029948
31
-5.3290705182007514e-14
0
SPLINE
5
206
100
AcDbEntity
8
0
100
AcDbSpline
70
0
71
3
72
12
73
8
74
0
42
0.000000001
43
0.0000000001
44
0.0000000001
40
-0.18397262132688488
40
-0.18397262132688488
40
-0.18397262132688488
40
-0.18397262132688488
40
-0.12500623148381607
40
-0.12500623148381607
40
-0.062503115741910684
40
-0.062503115741910684
40
-0
40
-0
40
-0
40
-0
10
70.34097484020927
20
47.388125380029948
30
-5.3290705182007514e-14
10
70.144420207399079
20
47.388125380029948
30
-5.3290705182007514e-14
10
69.949537654499366
20
47.351906264080753
30
-5.5511151231257827e-14
10
69.571676286324319
20
47.206429592917857
30
-4.8849813083506888e-14
10
69.393724617739053
20
47.094312243129849
30
-5.5511151231257827e-14
10
69.090813916328472
20
46.808176736436252
30
-5.5511151231257827e-14
10
68.968750874907968
20
46.636894190930406
30
-5.3290705182007514e-14
10
68.882950705358738
20
46.447037834149029
30
-5.5511151231257827e-14
0
SPLINE
5
207
100
AcDbEntity
8
0
100
AcDbSpline
70
0
71
3
72
20
73
16
74
0
42
0.000000001
43
0.0000000001
44
0.0000000001
40
0.11952017763162127
40
0.11952017763162127
40
0.11952017763162127
40
0.11952017763162127
40
0.17130809447179465
40
0.17130809447179465
40
0.30526486851660167
40
0.30526486851660167
40
0.41271305107841788
40
0.41271305107841788
40
0.50910068585613688
40
0.50910068585613688
40
0.60557338822037254
40
0.60557338822037254
40
0.72094773421008496
40
0.72094773421008496
40
0.83602065572690776
40
0.83602065572690776
40
0.83602065572690776
40
0.83602065572690776
10
68.882950705358738
20
46.447037834149029
30
-5.5511151231257827e-14
10
68.816334705756844
20
46.29963170366905
30
-5.3290705182007514e-14
10
68.741751057042521
20
46.158620663704269
30
-4.8849813083506888e-14
10
68.446997648990063
20
45.680248611996731
30
-4.8849813083506888e-14
10
68.189603301389269
20
45.395662639795603
30
-5.3290705182007514e-14
10
67.667055718651582
20
45.014473368811835
30
-5.3290705182007514e-14
10
67.407897632106483
20
44.887922632983376
30
-5.1070259132757201e-14
10
66.87809647854786
20
44.760161651035176
30
-5.3290705182007514e-14
10
66.62138773965809
20
44.749943598074026
30
-5.3290705182007514e-14
10
66.112503819167344
20
44.832523405980197
30
-4.8849813083506888e-14
10
65.870899253330663
20
44.923615959466105
30
-4.8849813083506888e-14
10
65.381747942707506
20
45.210548751560594
30
-5.1070259132757201e-14
10
65.149089561011507
20
45.419206218783629
30
-4.6629367034256575e-14
10
64.755689120451393
20
45.896408135642858
30
-5.1070259132757201e-14
10
64.594608799593033
20
46.164777736106629
30
-5.3290705182007514e-14
10
64.467049392683634
20
46.447037834149171
30
-5.5511151231257827e-14
0
SPLINE
5
208
100
AcDbEntity
8
0
100
AcDbSpline
70
0
71
3
72
12
73
8
74
0
42
0.000000001
43
0.0000000001
44
0.0000000001
40
-0.18397262132688308
40
-0.18397262132688308
40
-0.18397262132688308
40
-0.18397262132688308
40
-0.12500623148381676
40
-0.12500623148381676
40
-0.062503115741909157
40
-0.062503115741909157
40
-0
40
-0
40
-0
40
-0
10
64.467049392683634
20
46.447037834149171
30
-5.5511151231257827e-14
10
64.386104208012739
20
46.626151208182961
30
-5.1070259132757201e-14
10
64.272842404017098
20
46.788825107565998
30
-5.3290705182007514e-14
10
63.984663617120688
20
47.073246735074633
30
-5.5511151231257827e-14
10
63.809210884252764
20
47.189235678534885
30
-5.1070259132757201e-14
10
63.423720816601318
20
47.347431218806747
30
-5.3290705182007514e-14
10
63.217368976972722
20
47.388125380030118
30
-5.3290705182007514e-14
10
63.009025257833059
20
47.388125380030118
30
-5.3290705182007514e-14
0
LINE
5
209
100
AcDbEntity
8
0
100
AcDbLine
10
63.009025257833059
20
47.388125380030111
30
-5.3290705182007514e-14
11
53.470081552373273
21
47.38812538003009
31
-5.3290705182007514e-14
0
ARC
5
210
100
AcDbEntity
8
0
100
AcDbCircle
10
53.470081552373316
20
47.88812538003009
30
-5.3290705182007514e-14
40
0.50000000000000711
210
0
220
0
230
1
100
AcDbArc
50
180
51
269.99999999999511
0
LINE
5
211
100
AcDbEntity
8
0
100
AcDbLine
10
52.970081552373301
20
47.88812538003009
30
-5.3290705182007514e-14
11
52.970081552373301
21
47.948517574592643
31
-5.3290705182007514e-14
0
ARC
5
212
100
AcDbEntity
8
0
100
AcDbCircle
10
53.470081552373316
20
47.948517574592643
30
-5.3290705182007514e-14
40
0.50000000000000711
210
0
220
0
230
1
100
AcDbArc
50
103.77414699802813
51
180
0
ARC
5
213
100
AcDbEntity
8
0
100
AcDbCircle
10
52.970081552373415
20
49.988125380029743
30
-5.1070259132757201e-14
40
1.5999999999999559
210
3.3042351923360212e-16
220
-1.347868777858076e-15
230
1
100
AcDbArc
50
-76.225853001977043
51
0
0
LINE
5
214
100
AcDbEntity
8
0
100
AcDbLine
10
54.570081552373388
20
49.988125380029743
30
-5.1598936763530939e-14
11
54.57008155237348
21
52.788125380029683
31
-5.2735593669694936e-14
0
ARC
5
215
100
AcDbEntity
8
0
100
AcDbCircle
10
52.970081552373486
20
52.788125380029825
30
-5.3290705182007514e-14
40
1.6000000000000014
210
-3.4694469519536112e-16
220
3.0814879110195723e-29
230
1
100
AcDbArc
50
0
51
89.999999999998991
0
LINE
5
216
100
AcDbEntity
8
0
100
AcDbLine
10
52.970081552373514
20
54.388125380029834
30
-5.3290705182007552e-14
11
6.1700815523735209
21
54.388125380030402
31
-5.9952043329758453e-14
0
ARC
5
217
100
AcDbEntity
8
0
100
AcDbCircle
10
6.1700815523735209
20
52.788125380030436
30
-5.5511151231257827e-14
40
1.5999999999999659
210
0
220
2.7755575615629505e-15
230
1
100
AcDbArc
50
90
51
180
0
LINE
5
218
100
AcDbEntity
8
0
100
AcDbLine
10
4.570081552373555
20
52.788125380030436
30
-5.5511151231257827e-14
11
4.5700815523734484
21
49.988125380030453
31
-5.1625370645069779e-14
0
ARC
5
219
100
AcDbEntity
8
0
100
AcDbCircle
10
6.1700815523734498
20
49.988125380030425
30
-5.3290705182007514e-14
40
1.6000000000000014
210
1.0408340855860835e-15
220
-2.3111159332646794e-29
230
1
100
AcDbArc
50
180
51
256.22585300197272
0
ARC
5
220
100
AcDbEntity
8
0
100
AcDbCircle
10
5.6700815523734072
20
47.948517574593325
30
-5.1070259132757201e-14
40
0.50000000000000711
210
0
220
0
230
1
100
AcDbArc
50
0
51
76.225853001969924
0
LINE
5
221
100
AcDbEntity
8
0
100
AcDbLine
10
6.1700815523734143
20
47.948517574593325
30
-5.1070259132757201e-14
11
6.1700815523734143
21
47.888125380030374
31
-5.3290705182007514e-14
0
ARC
5
222
100
AcDbEntity
8
0
100
AcDbCircle
10
5.6700815523734072
20
47.888125380030374
30
-5.3290705182007514e-14
40
0.50000000000000711
210
0
220
0
230
1
100
AcDbArc
50
-90.000000000004079
51
0
0
LINE
5
223
100
AcDbEntity
8
0
100
AcDbLine
10
5.6700815523733716
20
47.388125380030374
30
-5.3290705182007514e-14
11
-5.6700814543310507
21
47.388125380030544
31
-5.3290705182007514e-14
0
ARC
5
224
100
AcDbEntity
8
0
100
AcDbCircle
10
-5.6700814543310329
20
47.888125380030559
30
-5.3290705182007514e-14
40
0.50000000000000711
210
0
220
0
230
1
100
AcDbArc
50
180
51
269.99999999999795
0
LINE
5
225
100
AcDbEntity
8
0
100
AcDbLine
10
-6.17008145433104
20
47.888125380030559
30
-5.3290705182007514e-14
11
-6.1700814543310223
21
47.948517574593424
31
-5.3290705182007514e-14
0
ARC
5
226
100
AcDbEntity
8
0
100
AcDbCircle
10
-5.6700814543310329
20
47.948517574593353
30
-5.3290705182007514e-14
40
0.50000000000000278
210
0
220
0
230
1
100
AcDbArc
50
103.77414699802537
51
180
0
ARC
5
227
100
AcDbEntity
8
0
100
AcDbCircle
10
-6.1700814543310223
20
49.988125380030525
30
-5.3290705182007514e-14
40
1.6000000000000503
210
0
220
0
230
1
100
AcDbArc
50
-76.225853001973732
51
0
0
LINE
5
228
100
AcDbEntity
8
0
100
AcDbLine
10
-4.570081454330972
20
49.988125380030525
30
-5.3290705182007514e-14
11
-4.5700814543310564
21
52.788125380030536
31
-5.6898930012039273e-14
0
ARC
5
229
100
AcDbEntity
8
0
100
AcDbCircle
10
-6.1700814543310578
20
52.788125380030536
30
-5.5511151231257827e-14
40
1.6000000000000014
210
8.6736173798840276e-16
220
0
230
1
100
AcDbArc
50
0
51
89.999999999998735
0
LINE
5
230
100
AcDbEntity
8
0
100
AcDbLine
10
-6.1700814543310223
20
54.388125380030544
30
-5.551115123125784e-14
11
-52.970081454331023
21
54.388125380031283
31
-5.773159728050814e-14
0
ARC
5
231
100
AcDbEntity
8
0
100
AcDbCircle
10
-52.970081454331037
20
52.788125380031317
30
-5.773159728050814e-14
40
1.5999999999999659
210
0
220
-0
230
1
100
AcDbArc
50
89.999999999999503
51
180
0
LINE
5
232
100
AcDbEntity
8
0
100
AcDbLine
10
-54.570081454331003
20
52.788125380031317
30
-5.773159728050814e-14
11
-54.570081454331003
21
49.988125380031306
31
-5.1625370645069779e-14
0
ARC
5
233
100
AcDbEntity
8
0
100
AcDbCircle
10
-52.970081454331023
20
49.988125380031278
30
-5.773159728050814e-14
40
1.5999999999999837
210
3.8163916471490151e-15
220
-8.4740917553040115e-29
230
1
100
AcDbArc
50
180
51
256.22585300196982
0
ARC
5
234
100
AcDbEntity
8
0
100
AcDbCircle
10
-53.470081454331137
20
47.948517574594248
30
-5.773159728050814e-14
40
0.50000000000000711
210
0
220
0
230
1
100
AcDbArc
50
0
51
76.225853001969341
0
LINE
5
235
100
AcDbEntity
8
0
100
AcDbLine
10
-52.970081454331122
20
47.948517574594248
30
-5.773159728050814e-14
11
-52.970081454331122
21
47.888125380032477
31
-5.773159728050814e-14
0
ARC
5
236
100
AcDbEntity
8
0
100
AcDbCircle
10
-53.470081454331137
20
47.888125380032548
30
-5.773159728050814e-14
40
0.50000000000000711
210
0
220
0
230
1
100
AcDbArc
50
269.99999999999432
51
360
0
LINE
5
237
100
AcDbEntity
8
0
100
AcDbLine
10
-53.470081454331186
20
47.388125380032534
30
-5.773159728050814e-14
11
-63.009025159790497
21
47.388125380033358
31
-5.3290705182007514e-14
0
SPLINE
5
238
100
AcDbEntity
8
0
100
AcDbSpline
70
0
71
3
72
12
73
8
74
0
42
0.000000001
43
0.0000000001
44
0.0000000001
40
-0.18397262132692735
40
-0.18397262132692735
40
-0.18397262132692735
40
-0.18397262132692735
40
-0.12500623148381784
40
-0.12500623148381784
40
-0.062503115741908269
40
-0.062503115741908269
40
-0
40
-0
40
-0
40
-0
10
-63.009025159790497
20
47.388125380033358
30
-5.3290705182007514e-14
10
-63.205579792600844
20
47.388125380033358
30
-5.1070259132757201e-14
10
-63.400462345500692
20
47.351906264084121
30
-5.5511151231257827e-14
10
-63.778323713675846
20
47.206429592921083
30
-5.5511151231257827e-14
10
-63.956275382261211
20
47.094312243133118
30
-5.3290705182007514e-14
10
-64.259186083671665
20
46.808176736439378
30
-5.5511151231257827e-14
10
-64.381249125092168
20
46.636894190933532
30
-5.5511151231257827e-14
10
-64.467049294641285
20
46.447037834152155
30
-5.3290705182007514e-14
0
SPLINE
5
239
100
AcDbEntity
8
0
100
AcDbSpline
70
0
71
3
72
20
73
16
74
0
42
0.000000001
43
0.0000000001
44
0.0000000001
40
0.11952017763166832
40
0.11952017763166832
40
0.11952017763166832
40
0.11952017763166832
40
0.17130809447186046
40
0.17130809447186046
40
0.30526486851733964
40
0.30526486851733964
40
0.41271305108012718
40
0.41271305108012718
40
0.50910068585872148
40
0.50910068585872148
40
0.60557338822382012
40
0.60557338822382012
40
0.72094773421453462
40
0.72094773421453462
40
0.8360206557326002
40
0.8360206557326002
40
0.8360206557326002
40
0.8360206557326002
10
-64.467049294641257
20
46.447037834152155
30
-5.773159728050814e-14
10
-64.533665294243164
20
46.299631703671992
30
-5.5511151231257827e-14
10
-64.608248942957459
20
46.158620663707254
30
-5.3290705182007514e-14
10
-64.903002351010755
20
45.680248611997897
30
-5.3290705182007514e-14
10
-65.160396698611891
20
45.395662639797308
30
-5.3290705182007514e-14
10
-65.682944281348327
20
45.014473368814137
30
-5.1070259132757201e-14
10
-65.942102367893426
20
44.887922632985692
30
-5.3290705182007514e-14
10
-66.471903521452049
20
44.76016165103735
30
-5.1070259132757201e-14
10
-66.728612260341876
20
44.749943598076086
30
-5.5511151231257827e-14
10
-67.237496180832665
20
44.832523405982116
30
-5.3290705182007514e-14
10
-67.479100746669275
20
44.923615959467881
30
-5.5511151231257827e-14
10
-67.968252057292418
20
45.210548751562257
30
-5.1070259132757201e-14
10
-68.200910438988402
20
45.419206218785092
30
-5.5511151231257827e-14
10
-68.594310879549184
20
45.896408135644776
30
-5.5511151231257827e-14
10
-68.755391200407814
20
46.164777736109187
30
-5.5511151231257827e-14
10
-68.882950607317298
20
46.447037834152226
30
-5.3290705182007514e-14
0
SPLINE
5
240
100
AcDbEntity
8
0
100
AcDbSpline
70
0
71
3
72
12
73
8
74
0
42
0.000000001
43
0.0000000001
44
0.0000000001
40
-0.18397262132692813
40
-0.18397262132692813
40
-0.18397262132692813
40
-0.18397262132692813
40
-0.12500623148381734
40
-0.12500623148381734
40
-0.062503115741908033
40
-0.062503115741908033
40
-0
40
-0
40
-0
40
-0
10
-68.882950607317298
20
46.447037834152184
30
-5.5511151231257827e-14
10
-68.963895791988207
20
46.626151208186158
30
-5.3290705182007514e-14
10
-69.077157595983948
20
46.788825107569338
30
-5.3290705182007514e-14
10
-69.365336382880457
20
47.073246735078072
30
-5.5511151231257827e-14
10
-69.540789115748268
20
47.189235678538267
30
-5.3290705182007514e-14
10
-69.926279183399728
20
47.347431218810158
30
-5.3290705182007514e-14
10
-70.132631023028324
20
47.3881253800336
30
-5.3290705182007514e-14
10
-70.340974742168029
20
47.3881253800336
30
-5.3290705182007514e-14
0
LINE
5
241
100
AcDbEntity
8
0
100
AcDbLine
10
-70.340974742168029
20
47.388125380033593
30
-5.3290705182007514e-14
11
-79.879918447628228
21
47.388125380033031
31
-5.5511151231257827e-14
0
ARC
5
242
100
AcDbEntity
8
0
100
AcDbCircle
10
-79.879918447628256
20
47.888125380033046
30
-5.5511151231257827e-14
40
0.49999999999998934
210
0
220
0
230
1
100
AcDbArc
50
180
51
270.00000000000324
0
LINE
5
243
100
AcDbEntity
8
0
100
AcDbLine
10
-80.379918447628256
20
47.888125380033046
30
-5.5511151231257827e-14
11
-80.37991844762827
21
47.948517574594632
31
-5.773159728050814e-14
0
ARC
5
244
100
AcDbEntity
8
0
100
AcDbCircle
10
-79.879918447628256
20
47.948517574594632
30
-5.773159728050814e-14
40
0.500000000000005
210
0
220
0
230
1
100
AcDbArc
50
103.77414699802655
51
180
0
ARC
5
245
100
AcDbEntity
8
0
100
AcDbCircle
10
-80.379918447628228
20
49.988125380031732
30
-5.9952043329758453e-14
40
1.599999999999975
210
-3.304235192336636e-16
220
1.347868777858044e-15
230
1
100
AcDbArc
50
-76.225853001974087
51
0
0
LINE
5
246
100
AcDbEntity
8
0
100
AcDbLine
10
-78.779918447628262
20
49.988125380031732
30
-5.9423365698984601e-14
11
-78.779918447628148
21
52.788125380031744
31
-6.1339822110539899e-14
0
ARC
5
247
100
AcDbEntity
8
0
100
AcDbCircle
10
-80.379918447628114
20
52.788125380031744
30
-5.5511151231257827e-14
40
1.5999999999999659
210
3.6429192995513722e-15
220
0
230
1
100
AcDbArc
50
0
51
89.999999999998991
0
LINE
5
248
100
AcDbEntity
8
0
100
AcDbLine
10
-80.379918447628086
20
54.388125380031724
30
-5.5511151231257859e-14
11
-127.17991844762813
21
54.388125380032463
31
-5.3290705182007514e-14
0
ARC
5
249
100
AcDbEntity
8
0
100
AcDbCircle
10
-127.1799184476281
20
52.788125380032454
30
-5.773159728050814e-14
40
1.6000000000000014
210
3.0814879110195723e-29
220
-2.775557561562889e-15
230
1
100
AcDbArc
50
90.000000000001009
51
180
0
LINE
5
250
100
AcDbEntity
8
0
100
AcDbLine
10
-128.77991844762812
20
52.788125380032454
30
-5.773159728050809e-14
11
-128.77991844762823
21
49.988125380032486
31
-5.6066262743570405e-14
0
ARC
5
251
100
AcDbEntity
8
0
100
AcDbCircle
10
-127.17991844762822
20
49.988125380032443
30
-5.3290705182007514e-14
40
1.6000000000000014
210
-1.7347234759768055e-15
220
3.851859888774465e-29
230
1
100
AcDbArc
50
180
51
256.2258530019713
0
ARC
5
252
100
AcDbEntity
8
0
100
AcDbCircle
10
-127.67991844762831
20
47.948517574595343
30
-5.3290705182007514e-14
40
0.50000000000000711
210
0
220
0
230
1
100
AcDbArc
50
0
51
76.22585300196971
0
LINE
5
253
100
AcDbEntity
8
0
100
AcDbLine
10
-127.1799184476283
20
47.948517574595343
30
-5.3290705182007514e-14
11
-127.1799184476283
21
47.888125380033927
31
-5.5511151231257827e-14
0
ARC
5
254
100
AcDbEntity
8
0
100
AcDbCircle
10
-127.67991844762831
20
47.888125380033998
30
-5.5511151231257827e-14
40
0.50000000000000711
210
0
220
0
230
1
100
AcDbArc
50
269.99999999999511
51
360
0
LINE
5
255
100
AcDbEntity
8
0
100
AcDbLine
10
-127.67991844762835
20
47.388125380033998
30
-5.5511151231257827e-14
11
-141.27499995097813
21
47.388125380035376
31
-5.1070259132757201e-14
0
ARC
5
256
100
AcDbEntity
8
0
100
AcDbCircle
10
-141.27499995097818
20
45.78812538003541
30
-5.5511151231257827e-14
40
1.5999999999999659
210
-9.2444637330591256e-29
220
-2.7755575615629505e-15
230
1
100
AcDbArc
50
89.999999999997954
51
180
0
LINE
5
257
100
AcDbEntity
8
0
100
AcDbLine
10
-142.87499995097815
20
45.78812538003541
30
-5.5511151231257941e-14
11
-142.87499995098057
21
-46.261874619964573
31
-2.2204460492503131e-15
0
ARC
5
258
100
AcDbEntity
8
0
100
AcDbCircle
10
-141.27499995098054
20
-46.26187461996463
30
-2.2204460492503131e-15
40
1.6000000000000014
210
0
220
0
230
1
100
AcDbArc
50
180
51
269.99999999999795
0
LINE
5
259
100
AcDbEntity
8
0
100
AcDbLine
10
-141.2749999509806
20
-47.861874619964631
30
-2.2204460492503131e-15
11
-127.67991844762963
21
-47.861874619966244
31
-2.2204460492503131e-15
0
ARC
5
260
100
AcDbEntity
8
0
100
AcDbCircle
10
-127.67991844762969
20
-48.361874619966237
30
-2.2204460492503131e-15
40
0.50000000000000711
210
0
220
0
230
1
100
AcDbArc
50
0
51
89.999999999993491
0
LINE
5
261
100
AcDbEntity
8
0
100
AcDbLine
10
-127.17991844762969
20
-48.361874619966237
30
-2.2204460492503131e-15
11
-127.17991844762969
21
-48.422266814531135
31
-2.2204460492503131e-15
0
ARC
5
262
100
AcDbEntity
8
0
100
AcDbCircle
10
-127.67991844762969
20
-48.422266814531071
30
-2.2204460492503131e-15
40
0.50000000000000278
210
0
220
0
230
1
100
AcDbArc
50
283.77414699802495
51
360
0
ARC
5
263
100
AcDbEntity
8
0
100
AcDbCircle
10
-127.17991844762977
20
-50.461874619968214
30
-2.2204460492503131e-15
40
1.599999999999999
210
0
220
0
230
1
100
AcDbArc
50
103.77414699802409
51
180
0
LINE
5
264
100
AcDbEntity
8
0
100
AcDbLine
10
-128.77991844762977
20
-50.461874619968185
30
-2.2204460492503131e-15
11
-128.77991844762974
21
-53.261874619968196
31
1.6653345369377348e-15
0
ARC
5
265
100
AcDbEntity
8
0
100
AcDbCircle
10
-127.17991844762975
20
-53.261874619968225
30
2.2204460492503131e-15
40
1.6000000000000014
210
-3.4694469519536112e-16
220
5.7777898331616985e-30
230
1
100
AcDbArc
50
180
51
269.99999999999847
0
LINE
5
266
100
AcDbEntity
8
0
100
AcDbLine
10
-127.17991844762979
20
-54.861874619968219
30
2.2204460492502993e-15
11
-80.379918447629777
21
-54.861874619968923
31
4.4408920985006262e-15
0
ARC
5
267
100
AcDbEntity
8
0
100
AcDbCircle
10
-80.379918447629734
20
-53.261874619968957
30
2.2204460492503131e-15
40
1.5999999999999659
210
3.0814879110197085e-29
220
1.3877787807814753e-15
230
1
100
AcDbArc
50
-90.000000000001521
51
0
0
LINE
5
268
100
AcDbEntity
8
0
100
AcDbLine
10
-78.779918447629768
20
-53.261874619968957
30
2.2204460492502764e-15
11
-78.779918447629797
21
-50.461874619968995
31
8.3266726846886741e-16
0
ARC
5
269
100
AcDbEntity
8
0
100
AcDbCircle
10
-80.379918447629777
20
-50.461874619968945
30
0
40
1.5999999999999748
210
-5.2041704279305031e-16
220
1.4444474582904726e-29
230
1
100
AcDbArc
50
0
51
76.225853001974698
0
ARC
5
270
100
AcDbEntity
8
0
100
AcDbCircle
10
-79.879918447629819
20
-48.422266814531845
30
0
40
0.49999999999999822
210
0
220
0
230
1
100
AcDbArc
50
180
51
256.22585300197306
0
LINE
5
271
100
AcDbEntity
8
0
100
AcDbLine
10
-80.379918447629819
20
-48.422266814531845
30
0
11
-80.379918447629848
21
-48.361874619967267
31
0
0
ARC
5
272
100
AcDbEntity
8
0
100
AcDbCircle
10
-79.879918447629848
20
-48.361874619967224
30
0
40
0.49999999999999822
210
0
220
0
230
1
100
AcDbArc
50
90.000000000004889
51
180
0
LINE
5
273
100
AcDbEntity
8
0
100
AcDbLine
10
-79.87991844762989
20
-47.861874619967224
30
0
11
-70.340974742168754
21
-47.861874619966507
31
0
0
SPLINE
5
274
100
AcDbEntity
8
0
100
AcDbSpline
70
0
71
3
72
12
73
8
74
0
42
0.000000001
43
0.0000000001
44
0.0000000001
40
-0.18397262132684639
40
-0.18397262132684639
40
-0.18397262132684639
40
-0.18397262132684639
40
-0.12500623148381632
40
-0.12500623148381632
40
-0.062503115741907853
40
-0.062503115741907853
40
-0
40
-0
40
-0
40
-0
10
-70.340974742168754
20
-47.861874619966507
30
0
10
-70.144420109358649
20
-47.861874619966507
30
-2.2204460492503131e-15
10
-69.949537556459077
20
-47.825655504017348
30
-2.2204460492503131e-15
10
-69.571676188284158
20
-47.680178832854565
30
0
10
-69.393724519698722
20
-47.568061483066685
30
-2.2204460492503131e-15
10
-69.09081381828814
20
-47.281925976373117
30
-2.2204460492503131e-15
10
-68.968750776867495
20
-47.110643430867327
30
-2.2204460492503131e-15
10
-68.882950607318321
20
-46.920787074085979
30
-2.2204460492503131e-15
0
SPLINE
5
275
100
AcDbEntity
8
0
100
AcDbSpline
70
0
71
3
72
20
73
16
74
0
42
0.000000001
43
0.0000000001
44
0.0000000001
40
0.11952017763193153
40
0.11952017763193153
40
0.11952017763193153
40
0.11952017763193153
40
0.17130809447195774
40
0.17130809447195774
40
0.30526486851742213
40
0.30526486851742213
40
0.41271305108007528
40
0.41271305108007528
40
0.50910068585854251
40
0.50910068585854251
40
0.60557338822351936
40
0.60557338822351936
40
0.72094773421411551
40
0.72094773421411551
40
0.83602065573182105
40
0.83602065573182105
40
0.83602065573182105
40
0.83602065573182105
10
-68.882950607318321
20
-46.920787074085979
30
-2.2204460492503131e-15
10
-68.816334607716612
20
-46.773380943606504
30
-2.2204460492503131e-15
10
-68.741750959002601
20
-46.632369903642356
30
-2.2204460492503131e-15
10
-68.446997550949945
20
-46.153997851934079
30
0
10
-68.189603203348867
20
-45.869411879733249
30
-2.2204460492503131e-15
10
-67.667055620612089
20
-45.488222608749894
30
-2.2204460492503131e-15
10
-67.407897534067047
20
-45.361671872921356
30
-4.4408920985006262e-15
10
-66.878096380508396
20
-45.233910890972986
30
-4.4408920985006262e-15
10
-66.621387641618568
20
-45.223692838011758
30
-2.2204460492503131e-15
10
-66.112503721127766
20
-45.306272645917801
30
-4.4408920985006262e-15
10
-65.870899155291113
20
-45.397365199403637
30
-2.2204460492503131e-15
10
-65.381747844667984
20
-45.684297991497971
30
-2.2204460492503131e-15
10
-65.149089462971986
20
-45.892955458720863
30
-2.2204460492503131e-15
10
-64.75568902241173
20
-46.370157375579957
30
-2.2204460492503131e-15
10
-64.594608701553341
20
-46.638526976043664
30
0
10
-64.467049294643942
20
-46.920787074086107
30
-2.2204460492503131e-15
0
SPLINE
5
276
100
AcDbEntity
8
0
100
AcDbSpline
70
0
71
3
72
12
73
8
74
0
42
0.000000001
43
0.0000000001
44
0.0000000001
40
-0.18397262132684405
40
-0.18397262132684405
40
-0.18397262132684405
40
-0.18397262132684405
40
-0.12500623148381629
40
-0.12500623148381629
40
-0.062503115741908061
40
-0.062503115741908061
40
-0
40
-0
40
-0
40
-0
10
-64.467049294643942
20
-46.920787074086107
30
-2.2204460492503131e-15
10
-64.386104109973033
20
-47.099900448119712
30
-4.4408920985006262e-15
10
-64.272842305977477
20
-47.262574347502678
30
-2.2204460492503131e-15
10
-63.984663519081131
20
-47.546995975011235
30
0
10
-63.809210786213349
20
-47.662984918471444
30
-2.2204460492503131e-15
10
-63.423720718561867
20
-47.821180458743278
30
0
10
-63.217368878933293
20
-47.861874619966684
30
0
10
-63.009025159793588
20
-47.861874619966692
30
0
0
LINE
5
277
100
AcDbEntity
8
0
100
AcDbLine
10
-63.009025159793588
20
-47.861874619966684
30
7.1612644092634813e-32
11
-53.470081454332515
21
-47.861874619967651
31
-2.2204460492503131e-15
0
ARC
5
278
100
AcDbEntity
8
0
100
AcDbCircle
10
-53.470081454332536
20
-48.361874619967658
30
-2.2204460492503131e-15
40
0.50000000000000711
210
0
220
0
230
1
100
AcDbArc
50
0
51
89.999999999997556
0
LINE
5
279
100
AcDbEntity
8
0
100
AcDbLine
10
-52.970081454332529
20
-48.361874619967658
30
-2.2204460492503131e-15
11
-52.970081454332565
21
-48.4222668145323
31
0
0
ARC
5
280
100
AcDbEntity
8
0
100
AcDbCircle
10
-53.470081454332572
20
-48.422266814532257
30
0
40
0.49999999999999423
210
0
220
0
230
1
100
AcDbArc
50
283.77414699802557
51
360
0
ARC
5
281
100
AcDbEntity
8
0
100
AcDbCircle
10
-52.970081454332586
20
-50.461874619969336
30
0
40
1.5999999999999728
210
0
220
0
230
1
100
AcDbArc
50
103.77414699802691
51
180
0
LINE
5
282
100
AcDbEntity
8
0
100
AcDbLine
10
-54.570081454332552
20
-50.461874619969336
30
0
11
-54.570081454332652
21
-53.261874619969291
31
1.3877787807814457e-15
0
ARC
5
283
100
AcDbEntity
8
0
100
AcDbCircle
10
-52.970081454332686
20
-53.261874619969376
30
0
40
1.5999999999999659
210
8.6736173798842209e-16
220
-4.8148248609682953e-29
230
1
100
AcDbArc
50
180
51
269.99999999999795
0
LINE
5
284
100
AcDbEntity
8
0
100
AcDbLine
10
-52.970081454332743
20
-54.861874619969342
30
-3.4854847121767035e-29
11
-6.1700814543326743
21
-54.861874619970024
31
4.4408920985006262e-15
0
ARC
5
285
100
AcDbEntity
8
0
100
AcDbCircle
10
-6.1700814543326921
20
-53.26187461997003
30
2.2204460492503131e-15
40
1.5999999999999925
210
-1.5407439555098033e-29
220
1.3877787807814522e-15
230
1
100
AcDbArc
50
-89.999999999999389
51
0
0
LINE
5
286
100
AcDbEntity
8
0
100
AcDbLine
10
-4.570081454332696
20
-53.26187461997003
30
2.2204460492503375e-15
11
-4.5700814543325663
21
-50.461874619970061
31
8.3266726846886741e-16
0
ARC
5
287
100
AcDbEntity
8
0
100
AcDbCircle
10
-6.1700814543325855
20
-50.461874619970018
30
0
40
1.6000000000000192
210
-5.2041704279303592e-16
220
1.1555579666323139e-29
230
1
100
AcDbArc
50
0
51
76.225853001969995
0
ARC
5
288
100
AcDbEntity
8
0
100
AcDbCircle
10
-5.6700814543324718
20
-48.422266814532932
30
-2.2204460492503131e-15
40
0.50000000000000711
210
0
220
0
230
1
100
AcDbArc
50
180
51
256.22585300197028
0
LINE
5
289
100
AcDbEntity
8
0
100
AcDbLine
10
-6.1700814543324789
20
-48.422266814532932
30
-2.2204460492503131e-15
11
-6.1700814543324611
21
-48.361874619968788
31
0
0
ARC
5
290
100
AcDbEntity
8
0
100
AcDbCircle
10
-5.6700814543324718
20
-48.361874619968823
30
0
40
0.49999999999999822
210
0
220
-0
230
1
100
AcDbArc
50
89.999999999995936
51
180
0
LINE
5
291
100
AcDbEntity
8
0
100
AcDbLine
10
-5.6700814543324363
20
-47.861874619968823
30
0
11
5.6700815523719683
21
-47.861874619969491
31
-2.2204460492503131e-15
0
ARC
5
292
100
AcDbEntity
8
0
100
AcDbCircle
10
5.670081552371915
20
-48.361874619969498
30
-2.2204460492503131e-15
40
0.50000000000000711
210
0
220
0
230
1
100
AcDbArc
50
0
51
89.999999999993889
0
LINE
5
293
100
AcDbEntity
8
0
100
AcDbLine
10
6.1700815523719221
20
-48.361874619969498
30
-2.2204460492503131e-15
11
6.1700815523719044
21
-48.422266814533181
31
0
0
ARC
5
294
100
AcDbEntity
8
0
100
AcDbCircle
10
5.6700815523718973
20
-48.422266814533153
30
0
40
0.49999999999999845
210
0
220
0
230
1
100
AcDbArc
50
283.77414699802767
51
360
0
ARC
5
295
100
AcDbEntity
8
0
100
AcDbCircle
10
6.1700815523719221
20
-50.46187461997026
30
0
40
1.6000000000000028
210
0
220
0
230
1
100
AcDbArc
50
103.77414699802735
51
180
0
LINE
5
296
100
AcDbEntity
8
0
100
AcDbLine
10
4.5700815523719172
20
-50.46187461997026
30
0
11
4.5700815523719385
21
-53.261874619970229
31
1.3877787807814457e-15
0
ARC
5
297
100
AcDbEntity
8
0
100
AcDbCircle
10
6.1700815523719221
20
-53.261874619970271
30
0
40
1.5999999999999837
210
8.6736173798841242e-16
220
-2.4074124304840941e-29
230
1
100
AcDbArc
50
180
51
269.99999999999807
0
LINE
5
298
100
AcDbEntity
8
0
100
AcDbLine
10
6.1700815523718688
20
-54.861874619970273
30
1.3031475015477183e-29
11
52.970081552371852
21
-54.861874619971033
31
0
0
ARC
5
299
100
AcDbEntity
8
0
100
AcDbCircle
10
52.970081552371852
20
-53.261874619971046
30
0
40
1.5999999999999837
210
0
220
0
230
1
100
AcDbArc
50
-90
51
0
0
LINE
5
300
100
AcDbEntity
8
0
100
AcDbLine
10
54.570081552371832
20
-53.261874619971046
30
2.3185823581233513e-44
11
54.570081552371889
21
-50.461874619971034
31
-1.6653345369377348e-15
0
ARC
5
301
100
AcDbEntity
8
0
100
AcDbCircle
10
52.970081552371852
20
-50.461874619971013
30
0
40
1.6000000000000369
210
1.0408340855860602e-15
220
-1.1555579666322883e-29
230
1
100
AcDbArc
50
0
51
76.225853001969895
0
ARC
5
302
100
AcDbEntity
8
0
100
AcDbCircle
10
53.470081552371965
20
-48.422266814533963
30
0
40
0.50000000000000711
210
0
220
0
230
1
100
AcDbArc
50
180
51
256.22585300196977
0
LINE
5
303
100
AcDbEntity
8
0
100
AcDbLine
10
52.970081552371951
20
-48.422266814533963
30
0
11
52.970081552371951
21
-48.361874619969747
31
0
0
ARC
5
304
100
AcDbEntity
8
0
100
AcDbCircle
10
53.470081552371965
20
-48.361874619969754
30
0
40
0.49999999999999822
210
0
220
-0
230
1
100
AcDbArc
50
90
51
180
0
LINE
5
305
100
AcDbEntity
8
0
100
AcDbLine
10
53.470081552371965
20
-47.861874619969754
30
0
11
63.009025257831638
21
-47.861874619969996
31
0
0
SPLINE
5
306
100
AcDbEntity
8
0
100
AcDbSpline
70
0
71
3
72
12
73
8
74
0
42
0.000000001
43
0.0000000001
44
0.0000000001
40
-0.18397262132685027
40
-0.18397262132685027
40
-0.18397262132685027
40
-0.18397262132685027
40
-0.1250062314838164
40
-0.1250062314838164
40
-0.062503115741909351
40
-0.062503115741909351
40
-0
40
-0
40
-0
40
-0
10
63.009025257831638
20
-47.861874619969996
30
0
10
63.205579890641758
20
-47.86187461997001
30
-2.2204460492503131e-15
10
63.400462443541329
20
-47.82565550402083
30
-2.2204460492503131e-15
10
63.778323811716348
20
-47.68017883285804
30
-2.2204460492503131e-15
10
63.956275480301713
20
-47.568061483070139
30
-2.2204460492503131e-15
10
64.259186181712366
20
-47.28192597637657
30
0
10
64.381249223132912
20
-47.110643430870773
30
-2.2204460492503131e-15
10
64.4670493926821
20
-46.920787074089418
30
-2.2204460492503131e-15
0
SPLINE
5
307
100
AcDbEntity
8
0
100
AcDbSpline
70
0
71
3
72
20
73
16
74
0
42
0.000000001
43
0.0000000001
44
0.0000000001
40
0.1195201776318937
40
0.1195201776318937
40
0.1195201776318937
40
0.1195201776318937
40
0.17130809447218287
40
0.17130809447218287
40
0.30526486851734524
40
0.30526486851734524
40
0.41271305107927242
40
0.41271305107927242
40
0.509100685857096
40
0.509100685857096
40
0.60557338822144302
40
0.60557338822144302
40
0.72094773421129466
40
0.72094773421129466
40
0.8360206557281622
40
0.8360206557281622
40
0.8360206557281622
40
0.8360206557281622
10
64.4670493926821
20
-46.920787074089425
30
-2.2204460492503131e-15
10
64.533665392284036
20
-46.773380943609517
30
-2.2204460492503131e-15
10
64.608249040998246
20
-46.632369903644999
30
-2.2204460492503131e-15
10
64.903002449050064
20
-46.153997851938357
30
-2.2204460492503131e-15
10
65.1603967966509
20
-45.869411879736944
30
-2.2204460492503131e-15
10
65.682944379389085
20
-45.4882226087528
30
-4.4408920985006262e-15
10
65.942102465934113
20
-45.361671872924383
30
-2.2204460492503131e-15
10
66.471903619492721
20
-45.233910890976205
30
-2.2204460492503131e-15
10
66.728612358382492
20
-45.22369283801504
30
-2.2204460492503131e-15
10
67.237496278873309
20
-45.306272645921226
30
-2.2204460492503131e-15
10
67.479100844709933
20
-45.397365199407147
30
-4.4408920985006262e-15
10
67.968252155333047
20
-45.68429799150163
30
-2.2204460492503131e-15
10
68.200910537029046
20
-45.892955458724572
30
-4.4408920985006262e-15
10
68.59431097758906
20
-46.370157375583759
30
-2.2204460492503131e-15
10
68.755391298447336
20
-46.638526976047388
30
-2.2204460492503131e-15
10
68.882950705356635
20
-46.920787074089532
30
-2.2204460492503131e-15
0
SPLINE
5
308
100
AcDbEntity
8
0
100
AcDbSpline
70
0
71
3
72
12
73
8
74
0
42
0.000000001
43
0.0000000001
44
0.0000000001
40
-0.18397262132685144
40
-0.18397262132685144
40
-0.18397262132685144
40
-0.18397262132685144
40
-0.12500623148381634
40
-0.12500623148381634
40
-0.062503115741909157
40
-0.062503115741909157
40
-0
40
-0
40
-0
40
-0
10
68.882950705356635
20
-46.920787074089532
30
-2.2204460492503131e-15
10
68.96389589002753
20
-47.099900448123165
30
-2.2204460492503131e-15
10
69.0771576940231
20
-47.262574347506153
30
-2.2204460492503131e-15
10
69.365336480919467
20
-47.546995975014724
30
-2.2204460492503131e-15
10
69.540789213787178
20
-47.662984918474933
30
-2.2204460492503131e-15
10
69.926279281438738
20
-47.821180458746781
30
-2.2204460492503131e-15
10
70.132631121067334
20
-47.86187461997018
30
-2.2204460492503131e-15
10
70.340974840207039
20
-47.86187461997018
30
-2.2204460492503131e-15
0
LINE
5
309
100
AcDbEntity
8
0
100
AcDbLine
10
70.340974840207039
20
-47.861874619970173
30
-2.2204460492503131e-15
11
79.879918545669057
21
-47.861874619970749
31
-2.2204460492503131e-15
0
ARC
5
310
100
AcDbEntity
8
0
100
AcDbCircle
10
79.879918545669057
20
-48.361874619970763
30
-2.2204460492503131e-15
40
0.50000000000000711
210
0
220
0
230
1
100
AcDbArc
50
0
51
90
0
LINE
5
311
100
AcDbEntity
8
0
100
AcDbLine
10
80.379918545669057
20
-48.361874619970763
30
-2.2204460492503131e-15
11
80.379918545669028
21
-48.422266814534396
31
0
0
ARC
5
312
100
AcDbEntity
8
0
100
AcDbCircle
10
79.879918545669057
20
-48.422266814534368
30
0
40
0.50000000000000711
210
0
220
0
230
1
100
AcDbArc
50
283.77414699802671
51
360
0
ARC
5
313
100
AcDbEntity
8
0
100
AcDbCircle
10
80.379918545669057
20
-50.461874619971439
30
0
40
1.5999999999999552
210
0
220
0
230
1
100
AcDbArc
50
103.77414699802709
51
180
0
LINE
5
314
100
AcDbEntity
8
0
100
AcDbLine
10
78.779918545669105
20
-50.461874619971439
30
0
11
78.77991854566892
21
-53.261874619971422
31
3.8857805861880479e-15
0
ARC
5
315
100
AcDbEntity
8
0
100
AcDbCircle
10
80.379918545668914
20
-53.261874619971472
30
2.2204460492503131e-15
40
1.6000000000000014
210
1.0408340855860835e-15
220
-3.4666738998970195e-29
230
1
100
AcDbArc
50
180
51
269.99999999999898
0
LINE
5
316
100
AcDbEntity
8
0
100
AcDbLine
10
80.379918545668886
20
-54.861874619971474
30
2.2204460492502898e-15
11
127.17991854566895
21
-54.861874619972177
31
2.2204460492503131e-15
0
ARC
5
317
100
AcDbEntity
8
0
100
AcDbCircle
10
127.17991854566891
20
-53.261874619972154
30
2.2204460492503131e-15
40
1.6000000000000192
210
0
220
0
230
1
100
AcDbArc
50
-89.999999999998465
51
0
0
LINE
5
318
100
AcDbEntity
8
0
100
AcDbLine
10
128.77991854566892
20
-53.261874619972154
30
2.2204460492503131e-15
11
128.77991854566906
21
-50.461874619972171
31
-1.3877787807814457e-15
0
ARC
5
319
100
AcDbEntity
8
0
100
AcDbCircle
10
127.17991854566903
20
-50.46187461997215
30
0
40
1.6000000000000369
210
8.6736173798838363e-16
220
-9.6296497219357365e-30
230
1
100
AcDbArc
50
0
51
76.225853001972538
0
ARC
5
320
100
AcDbEntity
8
0
100
AcDbCircle
10
127.67991854566921
20
-48.42226681453505
30
0
40
0.50000000000000711
210
0
220
0
230
1
100
AcDbArc
50
180
51
256.2258530019547
0
LINE
5
321
100
AcDbEntity
8
0
100
AcDbLine
10
127.1799185456692
20
-48.42226681453505
30
0
11
127.17991854566905
21
-48.36187461997195
31
-2.2204460492503131e-15
0
ARC
5
322
100
AcDbEntity
8
0
100
AcDbCircle
10
127.67991854566907
20
-48.36187461997195
30
-2.2204460492503131e-15
40
0.49999999999999822
210
0
220
-0
230
1
100
AcDbArc
50
90
51
180
0
LINE
5
323
100
AcDbEntity
8
0
100
AcDbLine
10
127.67991854566907
20
-47.86187461997195
30
-2.2204460492503131e-15
11
141.27500004901952
21
-47.86187461997207
31
0
0
ARC
5
324
100
AcDbEntity
8
0
100
AcDbCircle
10
141.27500004901978
20
-46.261874619972083
30
-2.2204460492503131e-15
40
1.5999999999999837
210
2.1570415377137481e-28
220
1.3877787807814599e-15
230
1
100
AcDbArc
50
-90.000000000009152
51
0
0
LWPOLYLINE
5
325
100
AcDbEntity
8
0
100
AcDbPolyline
90
14
70
1
43
0.0
10
-64.306499950980296
20
-42.33687461996815
10
-70.305999950980095
20
-42.336874619968015
42
-0.41421356237309503
10
-70.805999950980095
20
-41.836874619968
10
-70.805999950979952
20
-31.028693914645483
42
-0.21953238677637868
10
-70.630541834796873
20
-30.648335444714057
10
-67.446468121842685
20
-27.931516015925027
42
-0.17845378542154405
10
-67.121926238025736
20
-27.811874485856421
10
-53.650002886508602
20
-27.811874485856627
42
-0.99999999999999989
10
-53.650002886508602
20
-28.811874485856634
10
-60.280592116380447
20
-28.811874485856531
42
0.19037512800479961
10
-60.622323551297157
20
-28.946881847040654
10
-63.64823138589675
20
-31.779946726371236
42
0.20747758985084433
10
-63.806499950980076
20
-32.14493936518717
10
-63.806499950980196
20
-41.836874619968071
42
-0.41421356237309503
0
LWPOLYLINE
5
326
100
AcDbEntity
8
0
100
AcDbPolyline
90
8
70
1
43
0.0
10
53.650000049021926
20
-45.836874619965435
10
53.650000049021934
20
-30.836874619964831
42
-0.41421356237309503
10
54.150000049021969
20
-30.336874619964796
10
60.150000049021912
20
-30.336874619964842
42
-0.41421356237313667
10
60.650000049021941
20
-30.836874619964796
10
60.650000049021813
20
-45.836874619965542
42
-0.41421356237309503
10
60.150000049021841
20
-46.336874619965513
10
54.150000049021969
20
-46.336874619965478
42
-0.41421356237309503
0
LWPOLYLINE
5
327
100
AcDbEntity
8
0
100
AcDbPolyline
90
8
70
1
43
0.0
10
-6.9999999509781219
20
-44.836874619964782
10
-6.9999999509781219
20
-31.836874619964846
42
-0.41421356237299095
10
-6.4999999509781503
20
-31.336874619964838
10
6.5000000490218213
20
-31.336874619964892
42
-0.41421356237307422
10
7.0000000490218799
20
-31.836874619964846
10
7.0000000490218195
20
-44.836874619964817
42
-0.41421356237307422
10
6.5000000490218568
20
-45.336874619964959
10
-6.4999999509781148
20
-45.336874619964824
42
-0.41421356237303258
0
LWPOLYLINE
5
328
100
AcDbEntity
8
0
100
AcDbPolyline
90
8
70
1
43
0.0
10
-60.649999950978142
20
-45.836874619964689
10
-60.649999950978142
20
-30.83687461996476
42
-0.41421356237307422
10
-60.14999995097817
20
-30.336874619964828
10
-54.149999950978085
20
-30.33687461996486
42
-0.41421356237303258
10
-53.649999950978184
20
-30.836874619964796
10
-53.64999995097817
20
-45.836874619964689
42
-0.41421356237309503
10
-54.149999950978156
20
-46.336874619964675
10
-60.14999995097817
20
-46.336874619964661
42
-0.41421356237309503
0
LWPOLYLINE
5
329
100
AcDbEntity
8
0
100
AcDbPolyline
90
8
70
1
43
0.0
10
-50.649999950980096
20
-38.836874619968015
42
0.41421356237310825
10
-44.149999950980188
20
-45.336874619968071
10
-41.12499995098009
20
-45.336874619968135
42
-0.99999999999999989
10
-41.12499995098009
20
-46.336874619968135
10
-44.149999950980138
20
-46.336874619968341
42
-0.41421356237310719
10
-51.649999950980146
20
-38.836874619968057
10
-51.649999950980018
20
-30.811874619968123
42
-0.99999999999999989
10
-50.649999950980025
20
-30.81187461996813
0
LWPOLYLINE
5
330
100
AcDbEntity
8
0
100
AcDbPolyline
90
8
70
1
43
0.0
10
-9.9999999509801789
20
-38.836874619968405
42
0.41421356237311602
10
-16.499999950980111
20
-32.336874619968285
10
-19.524999950980021
20
-32.336874619968242
42
-0.99999999999999989
10
-19.524999950980011
20
-31.336874619968249
10
-16.499999950979998
20
-31.336874619967993
42
-0.41421356237310403
10
-8.9999999509800581
20
-38.836874619968285
10
-8.9999999509802713
20
-43.861872752200966
42
-0.99999999999999989
10
-9.9999999509802713
20
-43.861872752200952
0
LWPOLYLINE
5
331
100
AcDbEntity
8
0
100
AcDbPolyline
90
8
70
1
43
0.0
10
16.500000049019498
20
-31.3368746199708
10
19.525000049019511
20
-31.336874619971056
42
-0.99999999999999989
10
19.525000049019521
20
-32.336874619971056
10
16.500000049019615
20
-32.336874619971084
42
0.41421356237311602
10
10.000000049019679
20
-38.836874619971212
10
10.000000049019773
20
-43.861872752203759
42
-0.99999999999999989
10
9.0000000490197714
20
-43.86187275220378
10
9.0000000490195617
20
-38.836874619971091
42
-0.41421356237310403
0
LWPOLYLINE
5
332
100
AcDbEntity
8
0
100
AcDbPolyline
90
4
70
1
43
0.0
10
44.150000049020015
20
-42.336874619971155
10
16.500000049019562
20
-42.3368746199708
42
-0.99999999999999989
10
16.500000049019562
20
-35.336874619970793
10
44.150000049019305
20
-35.336874619971148
42
-0.99999999999999989
0
LWPOLYLINE
5
333
100
AcDbEntity
8
0
100
AcDbPolyline
90
8
70
1
43
0.0
10
44.150000049019638
20
-46.336874619971141
10
41.125000049019597
20
-46.336874619970942
42
-0.99999999999999989
10
41.125000049019597
20
-45.336874619970942
10
44.150000049019695
20
-45.336874619970885
42
0.41421356237310825
10
50.650000049019603
20
-38.836874619970828
10
50.650000049019532
20
-30.811874619970936
42
-0.99999999999999989
10
51.650000049019525
20
-30.811874619970929
10
51.650000049019653
20
-38.836874619970857
42
-0.41421356237310719
0
LWPOLYLINE
5
334
100
AcDbEntity
8
0
100
AcDbPolyline
90
8
70
1
43
0.0
10
-117.68124995097813
20
-31.336874619964856
10
-115.68124995097813
20
-31.336874619964846
42
-0.41421356237309503
10
-115.18124995097813
20
-31.836874619964853
10
-115.18124995097814
20
-44.83687461996481
42
-0.41421356237309503
10
-115.68124995097813
20
-45.336874619964803
10
-117.68124995097813
20
-45.336874619964817
42
-0.41421356237309503
10
-118.18124995097813
20
-44.83687461996481
10
-118.18124995097811
20
-31.836874619964853
42
-0.41421356237309503
0
LWPOLYLINE
5
335
100
AcDbEntity
8
0
100
AcDbPolyline
90
8
70
1
43
0.0
10
-91.868749950978113
20
-45.336874619964789
10
-93.868749950978113
20
-45.336874619964796
42
-0.41421356237309503
10
-94.368749950978113
20
-44.836874619964789
10
-94.368749950978099
20
-31.836874619964838
42
-0.41421356237309503
10
-93.868749950978113
20
-31.336874619964838
10
-91.868749950978113
20
-31.336874619964831
42
-0.41421356237309503
10
-91.368749950978113
20
-31.836874619964838
10
-91.368749950978128
20
-44.836874619964789
42
-0.41421356237309503
0
LWPOLYLINE
5
336
100
AcDbEntity
8
0
100
AcDbPolyline
90
8
70
1
43
0.0
10
119.25312504902183
20
-12.286874619964834
10
121.25312504902183
20
-12.286874619964827
42
-0.41421356237309503
10
121.75312504902183
20
-12.786874619964834
10
121.75312504902183
20
-25.786874619968046
42
-0.41421356237309503
10
121.25312504902183
20
-26.286874619968046
10
119.25312504902183
20
-26.286874619968053
42
-0.41421356237309503
10
118.75312504902183
20
-25.786874619968046
10
118.75312504902183
20
-12.786874619964834
42
-0.41421356237309503
0
ENDSEC
0
SECTION
2
OBJECTS
0
DICTIONARY
5
C
100
AcDbDictionary
3
ACAD_GROUP
350
D
3
ACAD_MLINESTYLE
350
17
0
DICTIONARY
5
D
100
AcDbDictionary
0
DICTIONARY
5
1A
330
C
100
AcDbDictionary
0
DICTIONARY
5
17
100
AcDbDictionary
0
ENDSEC
0
EOF
