0
SECTION
2
HEADER
9
$INSUNITS
70
4
9
$ACADVER
1
AC1014
9
$HANDSEED
5
FFFF
0
ENDSEC
0
SECTION
2
TABLES
0
TABLE
2
VPORT
5
8
100
AcDbSymbolTable
0
ENDTAB
0
TABLE
2
LTYPE
5
5
100
AcDbSymbolTable
0
LTYPE
5
14
100
AcDbSymbolTableRecord
100
AcDbLinetypeTableRecord
2
BYBLOCK
70
0
0
LTYPE
5
15
100
AcDbSymbolTableRecord
100
AcDbLinetypeTableRecord
2
BYLAYER
70
0
0
LTYPE
5
16
100
AcDbSymbolTableRecord
100
AcDbLinetypeTableRecord
2
DASHED
70
0
3
Dashed __ __ __ __ __ __ __ __ __ __ __ __ __ _
72
65
73
2
40
0.75
49
0.5
74
0
49
-0.25
74
0
0
ENDTAB
0
TABLE
2
LAYER
5
2
100
AcDbSymbolTable
70
2
0
LAYER
5
50
100
AcDbSymbolTableRecord
100
AcDbLayerTableRecord
2
0
70
0
62
7
6
CONTINUOUS
0
ENDTAB
0
TABLE
2
STYLE
5
3
100
AcDbSymbolTable
70
1
0
STYLE
5
11
100
AcDbSymbolTableRecord
100
AcDbTextStyleTableRecord
2
STANDARD
70
0
0
ENDTAB
0
TABLE
2
VIEW
5
6
100
AcDbSymbolTable
70
0
0
ENDTAB
0
TABLE
2
UCS
5
7
100
AcDbSymbolTable
70
0
0
ENDTAB
0
TABLE
2
APPID
5
9
100
AcDbSymbolTable
70
2
0
APPID
5
12
100
AcDbSymbolTableRecord
100
AcDbRegAppTableRecord
2
ACAD
70
0
0
ENDTAB
0
TABLE
2
DIMSTYLE
5
A
100
AcDbSymbolTable
70
1
0
ENDTAB
0
TABLE
2
BLOCK_RECORD
5
1
100
AcDbSymbolTable
70
1
0
BLOCK_RECORD
5
1F
100
AcDbSymbolTableRecord
100
AcDbBlockTableRecord
2
*MODEL_SPACE
0
BLOCK_RECORD
5
1B
100
AcDbSymbolTableRecord
100
AcDbBlockTableRecord
2
*PAPER_SPACE
0
ENDTAB
0
ENDSEC
0
SECTION
2
BLOCKS
0
BLOCK
5
20
100
AcDbEntity
100
AcDbBlockBegin
2
*MODEL_SPACE
0
ENDBLK
5
21
100
AcDbEntity
100
AcDbBlockEnd
0
BLOCK
5
1C
100
AcDbEntity
100
AcDbBlockBegin
2
*PAPER_SPACE
0
ENDBLK
5
1D
100
AcDbEntity
100
AcDbBlockEnd
0
ENDSEC
0
SECTION
2
ENTITIES
0
LWPOLYLINE
5
100
100
AcDbEntity
8
0
100
AcDbPolyline
90
12
70
1
43
0.0
10
-112.60937498101455
20
-3.9998536032512466
10
-115.10937498101455
20
-3.9998536032512111
42
-0.41421356237310153
10
-117.10937498101464
20
-1.9998536032512271
10
-117.10937498101457
20
3.5001463967487734
42
-0.41421356237315354
10
-116.60937498101454
20
4.0001463967487556
10
-116.1093749810145
20
4.0001463967487805
42
-0.41421356237310414
10
-115.60937498101451
20
3.5001463967487756
10
-115.60937498101453
20
-1.9998536032512271
42
0.41421356237312101
10
-115.10937498101455
20
-2.4998536032511187
10
-112.60937498101455
20
-2.4998536032511898
42
-0.41421356237307422
10
-112.10937498101458
20
-2.9998536032511258
10
-112.1093749810146
20
-3.4998536032512217
42
-0.4142135623730534
0
LWPOLYLINE
5
101
100
AcDbEntity
8
0
100
AcDbPolyline
90
8
70
1
43
0.0
10
126.85000001868879
20
45.100146397045066
10
139.85000001868883
20
45.100146397046537
42
-0.41421356237323032
10
140.35000001868892
20
44.600146397044668
10
140.35000001868892
20
31.600146397044977
42
-0.4142135623730534
10
139.85000001868886
20
31.100146397045776
10
126.85000001868879
20
31.100146397045059
42
-0.41421356237309503
10
126.35000001868877
20
31.600146397045066
10
126.35000001868886
20
44.600146397045037
42
-0.41421356237306384
0
LWPOLYLINE
5
102
100
AcDbEntity
8
0
100
AcDbPolyline
90
8
70
1
43
0.0
10
121.30000001868881
20
44.600146397045094
42
0.41421356237310542
10
120.80000001868879
20
45.100146397045073
10
107.80000001868892
20
45.100146397047837
42
0.41421356237311585
10
107.30000001868888
20
44.600146397044753
10
107.30000001868885
20
31.600146397045368
42
0.41421356237306384
10
107.80000001868885
20
31.100146397045698
10
120.80000001868883
20
31.100146397045062
42
0.41421356237309503
10
121.30000001868879
20
31.600146397045066
0
LWPOLYLINE
5
103
100
AcDbEntity
8
0
100
AcDbPolyline
90
8
70
1
43
0.0
10
114.15625001868889
20
-12.549853602954624
10
114.15625001868882
20
-25.549853602957846
42
-0.41421356237316787
10
113.65625001868879
20
-26.049853602957754
10
100.65625001868881
20
-26.049853602954343
42
-0.41421356237315227
10
100.15625001868884
20
-25.54985360295456
10
100.15625001868885
20
-12.549853602954677
42
-0.4142135623730534
10
100.65625001868884
20
-12.049853602954688
10
113.65625001868878
20
-12.04985360295451
42
-0.41421356237309503
0
LWPOLYLINE
5
104
100
AcDbEntity
8
0
100
AcDbPolyline
90
8
70
1
43
0.0
10
126.85025001868894
20
-12.049853602954563
10
139.85000001868883
20
-12.049853602954474
42
-0.41421356237307422
10
140.35000001868892
20
-12.549853602954517
10
140.35000001868889
20
-25.549853602954684
42
-0.41421356237307422
10
139.85000001868889
20
-26.049853602954762
10
126.85025001868894
20
-26.049853602954165
42
-0.41421356237309503
10
126.35025001868894
20
-25.549853602954158
10
126.35025001868897
20
-12.549853602954535
42
-0.41421356237309503
0
LWPOLYLINE
5
105
100
AcDbEntity
8
0
100
AcDbPolyline
90
8
70
1
43
0.0
10
-111.77499998131114
20
-44.599853602954553
42
0.4142135623730846
10
-111.27499998131115
20
-45.09985360295456
10
-98.274999981311197
20
-45.099853602954624
42
0.4142135623730846
10
-97.774999981311197
20
-44.599853602954596
10
-97.774999981311197
20
-31.59985360295461
42
0.41421356237308982
10
-98.274999981311169
20
-31.099853602954575
10
-111.27499998131115
20
-31.099853602954568
42
0.41421356237309503
10
-111.77499998131118
20
-31.599853602954546
0
LWPOLYLINE
5
106
100
AcDbEntity
8
0
100
AcDbPolyline
90
8
70
1
43
0.0
10
-87.96249998131114
20
-44.599853602954546
42
0.41421356237309503
10
-87.462499981311169
20
-45.099853602954589
10
-74.462499981311126
20
-45.099853602954553
42
0.41421356237305862
10
-73.962499981311183
20
-44.599853602954596
10
-73.962499981311169
20
-31.5998536029546
42
0.41421356237310542
10
-74.462499981311112
20
-31.099853602954557
10
-87.46249998131114
20
-31.099853602954568
42
0.41421356237307422
10
-87.962499981311169
20
-31.5998536029546
0
LWPOLYLINE
5
107
100
AcDbEntity
8
0
100
AcDbPolyline
90
8
70
1
43
0.0
10
1.7375000192821233
20
-6.999853603547832
42
0.41421356237305862
10
2.2375000192821393
20
-6.4998536035478072
10
2.2375000192821481
20
6.5001463964521022
42
0.4142135623730846
10
1.7375000192821233
20
7.0001463964521093
10
-11.262499980717919
20
7.0001463964521271
42
0.41421356237311585
10
-11.762499980717926
20
6.5001463964520845
10
-11.762499980717909
20
-6.4998536035478072
42
0.41421356237305862
10
-11.262499980717919
20
-6.9998536035477343
0
LWPOLYLINE
5
108
100
AcDbEntity
8
0
100
AcDbPolyline
90
8
70
1
43
0.0
10
121.58750001868881
20
12.550146397045356
10
121.58750001868887
20
25.550146397045665
42
-0.41421356237300139
10
122.08750001868881
20
26.05014639704596
10
135.0875000186889
20
26.050146397045513
42
-0.41421356237295714
10
135.58750001868876
20
25.550146397045314
10
135.58750001868887
20
12.55014639704541
42
-0.4142135623730534
10
135.08750001868887
20
12.050146397045109
10
122.08750001868879
20
12.050146397045562
42
-0.41421356237315748
0
LWPOLYLINE
5
109
100
AcDbEntity
8
0
100
AcDbPolyline
90
8
70
1
43
0.0
10
50.650000018688814
20
45.100146397046039
10
63.650000018688857
20
45.100146397044263
42
-0.41421356237312623
10
64.150000018688786
20
44.600146397045549
10
64.150000018688829
20
31.600146397045545
42
-0.41421356237299095
10
63.650000018688857
20
31.100146397045606
10
50.650000018688814
20
31.100146397045627
42
-0.41421356237321988
10
50.150000018688914
20
31.600146397045457
10
50.150000018688878
20
44.600146397044362
42
-0.41421356237294937
0
LWPOLYLINE
5
110
100
AcDbEntity
8
0
100
AcDbPolyline
90
8
70
1
43
0.0
10
7.2875000192821382
20
-6.4998536035478427
42
0.41421356237307944
10
7.7875000192821275
20
-6.9998536035478054
10
20.78750001928217
20
-6.9998536035478676
42
0.4142135623730222
10
21.287500019282106
20
-6.4998536035478338
10
21.287500019282142
20
6.5001463964521378
42
0.41421356237314705
10
20.78750001928217
20
7.0001463964520561
10
7.7875000192821453
20
7.0001463964521804
42
0.4142135623730846
10
7.287500019282156
20
6.5001463964520845
0
LWPOLYLINE
5
111
100
AcDbEntity
8
0
100
AcDbPolyline
90
8
70
1
43
0.0
10
-12.549999981311206
20
31.100146397045396
42
0.41421356237308204
10
-12.049999981311199
20
31.600146397045489
10
-12.049999981311199
20
44.600146397045386
42
0.41421356237311063
10
-12.549999981311224
20
45.100146397045719
10
-25.549999981311196
20
45.100146397045592
42
0.41421356237307422
10
-26.049999981311167
20
44.600146397045783
10
-26.049999981311206
20
31.600146397045521
42
0.414213562373069
10
-25.549999981311196
20
31.100146397045414
0
LWPOLYLINE
5
112
100
AcDbEntity
8
0
100
AcDbPolyline
90
8
70
1
43
0.0
10
7.0000000186887945
20
44.600146397044554
10
7.0000000186887945
20
31.600146397045332
42
-0.41421356237311585
10
6.5000000186887874
20
31.100146397045361
10
-6.4999999813112197
20
31.100146397045229
42
-0.41421356237307161
10
-6.9999999813112002
20
31.600146397045382
10
-6.9999999813111913
20
44.60014639704616
42
-0.41421356237303258
10
-6.4999999813111664
20
45.100146397045826
10
6.5000000186887874
20
45.100146397045492
42
-0.41421356237309503
0
LWPOLYLINE
5
113
100
AcDbEntity
8
0
100
AcDbPolyline
90
8
70
1
43
0.0
10
-22.074999980717944
20
12.05014639645217
42
0.41421356237311063
10
-21.574999980717884
20
12.550146396452222
10
-21.574999980717884
20
25.550146396452224
42
0.41421356237311324
10
-22.074999980717891
20
26.05014639645205
10
-35.074999980717877
20
26.050146396452213
42
0.41421356237310542
10
-35.574999980717905
20
25.550146396452149
10
-35.574999980717891
20
12.550146396452217
42
0.41421356237309764
10
-35.074999980717898
20
12.050146396452224
0
LWPOLYLINE
5
114
100
AcDbEntity
8
0
100
AcDbPolyline
90
8
70
1
43
0.0
10
-35.862499980717892
20
6.5001463964521733
10
-35.862499980717885
20
-6.4998536035478338
42
-0.41421356237309503
10
-36.362499980717885
20
-6.9998536035477965
10
-49.362499980717942
20
-6.9998536035478409
42
-0.41421356237313145
10
-49.862499980717914
20
-6.4998536035478782
10
-49.862499980717978
20
6.5001463964521733
42
-0.4142135623730534
10
-49.362499980717928
20
7.0001463964521182
10
-36.362499980717899
20
7.0001463964521449
42
-0.41421356237311585
0
LWPOLYLINE
5
115
100
AcDbEntity
8
0
100
AcDbPolyline
90
8
70
1
43
0.0
10
17.312500019282169
20
-12.049853603547973
10
30.31250001928214
20
-12.049853603547946
42
-0.41421356237312101
10
30.81250001928214
20
-12.549853603547989
10
30.812500019282147
20
-25.549853603547756
42
-0.41421356237297013
10
30.31250001928214
20
-26.049853603547835
10
17.312500019282169
20
-26.049853603547817
42
-0.41421356237316265
10
16.812500019282179
20
-25.549853603547781
10
16.812500019282162
20
-12.549853603547909
42
-0.41421356237309503
0
LWPOLYLINE
5
116
100
AcDbEntity
8
0
100
AcDbPolyline
90
8
70
1
43
0.0
10
-16.024999980717887
20
26.050146396452103
10
-3.0249999807179506
20
26.050146396452263
42
-0.41421356237306639
10
-2.5249999807180146
20
25.550146396452092
10
-2.5249999807180101
20
12.550146396452053
42
-0.41421356237314705
10
-3.0249999807179506
20
12.050146396452096
10
-16.024999980717922
20
12.05014639645217
42
-0.4142135623730378
10
-16.524999980717876
20
12.550146396452169
10
-16.524999980717876
20
25.550146396452096
42
-0.41421356237306384
0
LWPOLYLINE
5
117
100
AcDbEntity
8
0
100
AcDbPolyline
90
8
70
1
43
0.0
10
-54.624999980717988
20
12.550146396452142
42
0.41421356237311585
10
-54.124999980717945
20
12.050146396452206
10
-41.124999980717888
20
12.050146396452117
42
0.41421356237311585
10
-40.62499998071786
20
12.550146396452124
10
-40.62499998071786
20
25.550146396452117
42
0.41421356237311324
10
-41.124999980717902
20
26.050146396452192
10
-54.124999980717909
20
26.050146396452163
42
0.41421356237310542
10
-54.624999980717917
20
25.55014639645222
0
LWPOLYLINE
5
118
100
AcDbEntity
8
0
100
AcDbPolyline
90
8
70
1
43
0.0
10
11.262500019282129
20
-26.049853603547817
10
-1.7374999807178426
20
-26.049853603547852
42
-0.41421356237307422
10
-2.2374999807179385
20
-25.549853603547792
10
-2.2374999807179385
20
-12.54985360354782
42
-0.41421356237310542
10
-1.7374999807178426
20
-12.04985360354792
10
11.262500019282129
20
-12.04985360354792
42
-0.41421356237304818
10
11.762500019282136
20
-12.549853603547918
10
11.762500019282154
20
-25.549853603547845
42
-0.41421356237310542
0
LWPOLYLINE
5
119
100
AcDbEntity
8
0
100
AcDbPolyline
90
8
70
1
43
0.0
10
-30.812499980717902
20
-6.4998536035478693
42
0.41421356237311585
10
-30.312499980717895
20
-6.9998536035478409
10
-17.31249998071787
20
-6.9998536035478764
42
0.41421356237310542
10
-16.812499980717881
20
-6.4998536035478338
10
-16.812499980717874
20
6.5001463964521822
42
0.414213562373069
10
-17.312499980717888
20
7.0001463964521449
10
-30.312499980717895
20
7.0001463964521804
42
0.41421356237309503
10
-30.812499980717902
20
6.5001463964521022
0
LWPOLYLINE
5
120
100
AcDbEntity
8
0
100
AcDbPolyline
90
8
70
1
43
0.0
10
-54.912499980717939
20
6.5001463964521733
10
-54.912499980717854
20
-6.499853603547816
42
-0.41421356237311585
10
-55.412499980717897
20
-6.9998536035477876
10
-68.412499980717996
20
-6.9998536035478676
42
-0.41421356237309503
10
-68.912499980717911
20
-6.4998536035478693
10
-68.912499980717982
20
6.5001463964520845
42
-0.4142135623730534
10
-68.412499980717953
20
7.0001463964521804
10
-55.412499980717911
20
7.0001463964521626
42
-0.41421356237310542
0
LWPOLYLINE
5
121
100
AcDbEntity
8
0
100
AcDbPolyline
90
8
70
1
43
0.0
10
54.125000019282155
20
12.050146396452011
10
41.125000019282112
20
12.050146396452135
42
-0.41421356237311846
10
40.62500001928214
20
12.550146396452146
10
40.625000019282169
20
25.550146396452273
42
-0.41421356237312623
10
41.125000019282147
20
26.050146396452092
10
54.125000019282155
20
26.05014639645173
42
-0.41421356237304563
10
54.625000019282162
20
25.550146396452092
10
54.625000019282304
20
12.550146396452231
42
-0.4142135623730534
0
LWPOLYLINE
5
122
100
AcDbEntity
8
0
100
AcDbPolyline
90
8
70
1
43
0.0
10
-87.962499980717837
20
-6.4998536035478249
42
0.414213562373069
10
-87.46249998071788
20
-6.9998536035478498
10
-74.462499980717894
20
-6.9998536035478498
42
0.41421356237313667
10
-73.96249998071788
20
-6.4998536035478516
10
-73.962499980717922
20
6.5001463964521378
42
0.41421356237307422
10
-74.462499980717851
20
7.0001463964521804
10
-87.462499980717951
20
7.0001463964521271
42
0.41421356237310542
10
-87.962499980717865
20
6.5001463964521733
0
LWPOLYLINE
5
123
100
AcDbEntity
8
0
100
AcDbPolyline
90
8
70
1
43
0.0
10
54.912500019282149
20
-25.549853603547909
42
0.41421356237304818
10
55.412500019282049
20
-26.049853603547728
10
68.412500019282191
20
-26.049853603547881
42
0.41421356237309503
10
68.912500019282135
20
-25.549853603547792
10
68.912500019282163
20
-12.549853603547847
42
0.41421356237313145
10
68.412500019282021
20
-12.049853603548062
10
55.412500019282191
20
-12.049853603547822
42
0.41421356237303258
10
54.91250001928222
20
-12.549853603547945
0
LWPOLYLINE
5
124
100
AcDbEntity
8
0
100
AcDbPolyline
90
8
70
1
43
0.0
10
-50.649999981311211
20
31.100146397045378
42
0.41421356237309243
10
-50.149999981311204
20
31.600146397045453
10
-50.149999981311225
20
44.600146397045144
42
0.41421356237301177
10
-50.649999981311211
20
45.100146397045151
10
-63.649999981311126
20
45.100146397045563
42
0.41421356237310542
10
-64.149999981311112
20
44.600146397045251
10
-64.149999981311112
20
31.600146397045442
42
0.41421356237310802
10
-63.649999981311112
20
31.100146397045414
0
LWPOLYLINE
5
125
100
AcDbEntity
8
0
100
AcDbPolyline
90
8
70
1
43
0.0
10
31.600000018688839
20
45.100146397043908
10
44.600000018688775
20
45.100146397045862
42
-0.41421356237312101
10
45.100000018688746
20
44.600146397044853
10
45.100000018688746
20
31.600146397045226
42
-0.41421356237314189
10
44.600000018688746
20
31.100146397045201
10
31.600000018688839
20
31.100146397045361
42
-0.41421356237313928
10
31.100000018688814
20
31.600146397045389
10
31.100000018688831
20
44.600146397045926
42
-0.41421356237311585
0
LWPOLYLINE
5
126
100
AcDbEntity
8
0
100
AcDbPolyline
90
8
70
1
43
0.0
10
59.675000019282045
20
12.550146396452121
42
0.41421356237313406
10
60.175000019282159
20
12.050146396451868
10
73.175000019282209
20
12.050146396452043
42
0.41421356237304302
10
73.675000019282209
20
12.55014639645216
10
73.67500001928218
20
25.550146396452046
42
0.41421356237311324
10
73.175000019282166
20
26.050146396452085
10
60.175000019282194
20
26.050146396451993
42
0.41421356237315748
10
59.675000019282081
20
25.550146396452504
0
LWPOLYLINE
5
127
100
AcDbEntity
8
0
100
AcDbPolyline
90
8
70
1
43
0.0
10
78.725000019282092
20
12.550146396452103
42
0.41421356237316526
10
79.225000019282064
20
12.050146396452153
10
92.225000019282362
20
12.050146396452215
42
0.41421356237315748
10
92.725000019282362
20
12.550146396452249
10
92.725000019281964
20
25.550146396452156
42
0.41421356237311063
10
92.225000019282035
20
26.050146396452263
10
79.225000019281993
20
26.050146396452082
42
0.41421356237294937
10
78.725000019282021
20
25.550146396452078
0
LWPOLYLINE
5
128
100
AcDbEntity
8
0
100
AcDbPolyline
90
8
70
1
43
0.0
10
102.25000001868878
20
44.600146397045258
42
0.41421356237315227
10
101.75000001868881
20
45.100146397045329
10
88.750000018688837
20
45.100146397045002
42
0.41421356237301177
10
88.250000018688723
20
44.600146397046458
10
88.250000018688752
20
31.600146397045286
42
0.41421356237312101
10
88.750000018688837
20
31.100146397045734
10
101.75000001868888
20
31.100146397045634
42
0.41421356237287649
10
102.25000001868878
20
31.600146397045101
0
LWPOLYLINE
5
129
100
AcDbEntity
8
0
100
AcDbPolyline
90
8
70
1
43
0.0
10
64.937500019282197
20
7.0001463964521893
42
0.41421356237292334
10
64.437500019282197
20
6.5001463964521999
10
64.437500019282155
20
-6.4998536035478072
42
0.41421356237312101
10
64.937500019282197
20
-6.9998536035478942
10
77.93750001928214
20
-6.9998536035477787
42
0.41421356237316787
10
78.437500019282282
20
-6.4998536035478516
10
78.437500019282112
20
6.5001463964521822
42
0.41421356237312101
10
77.937500019282169
20
7.0001463964521626
0
LWPOLYLINE
5
130
100
AcDbEntity
8
0
100
AcDbPolyline
90
8
70
1
43
0.0
10
69.200000018688783
20
31.60014639704519
10
69.200000018688741
20
44.600146397045286
42
-0.41421356237303258
10
69.700000018688797
20
45.100146397044298
10
82.700000018688797
20
45.100146397044952
42
-0.41421356237318868
10
83.200000018688783
20
44.600146397044242
10
83.200000018688797
20
31.60014639704503
42
-0.41421356237294937
10
82.700000018688826
20
31.100146397045378
10
69.700000018688826
20
31.100146397045059
42
-0.41421356237298057
0
LWPOLYLINE
5
131
100
AcDbEntity
8
0
100
AcDbPolyline
90
8
70
1
43
0.0
10
98.275000019282174
20
26.050146396451986
42
0.41421356237302998
10
97.775000019282174
20
25.550146396452153
10
97.775000019282174
20
12.550146396452169
42
0.414213562373069
10
98.275000019282146
20
12.050146396452099
10
111.27500001928215
20
12.05014639645205
42
0.41421356237297013
10
111.77500001928223
20
12.550146396452462
10
111.77500001928216
20
25.550146396451794
42
0.41421356237325113
10
111.27500001928212
20
26.050146396452387
0
LWPOLYLINE
5
132
100
AcDbEntity
8
0
100
AcDbPolyline
90
8
70
1
43
0.0
10
-101.74999998131121
20
45.100146397045506
10
-88.749999981311163
20
45.100146397045435
42
-0.41421356237311063
10
-88.249999981311163
20
44.6001463970454
10
-88.249999981311177
20
31.600146397045368
42
-0.4142135623730846
10
-88.749999981311163
20
31.100146397045396
10
-101.74999998131121
20
31.100146397045432
42
-0.41421356237308204
10
-102.24999998131122
20
31.600146397045418
10
-102.24999998131118
20
44.600146397045393
42
-0.41421356237309503
0
LWPOLYLINE
5
133
100
AcDbEntity
8
0
100
AcDbPolyline
90
8
70
1
43
0.0
10
-111.77499998071792
20
12.550146396452169
42
0.41421356237310025
10
-111.27499998071792
20
12.050146396452144
10
-98.274999980717922
20
12.050146396452138
42
0.41421356237307422
10
-97.774999980717894
20
12.55014639645216
10
-97.774999980717922
20
25.550146396452153
42
0.41421356237307161
10
-98.274999980717936
20
26.050146396452103
10
-111.27499998071791
20
26.050146396452153
42
0.41421356237309503
10
-111.77499998071792
20
25.550146396452149
0
LWPOLYLINE
5
134
100
AcDbEntity
8
0
100
AcDbPolyline
90
8
70
1
43
0.0
10
-107.01249998071793
20
-6.4998536035478516
42
0.4142135623730846
10
-106.51249998071793
20
-6.9998536035478942
10
-93.512499980717919
20
-6.9998536035478409
42
0.4142135623730534
10
-93.012499980717962
20
-6.4998536035479049
10
-93.012499980717934
20
6.5001463964521733
42
0.41421356237309503
10
-93.512499980717934
20
7.0001463964521626
10
-106.51249998071792
20
7.0001463964521538
42
0.41421356237312623
10
-107.01249998071788
20
6.5001463964521733
0
LWPOLYLINE
5
135
100
AcDbEntity
8
0
100
AcDbPolyline
90
8
70
1
43
0.0
10
45.387500019282058
20
-6.4998536035476118
42
0.41421356237311063
10
45.887500019282079
20
-6.9998536035478764
10
58.887500019282193
20
-6.9998536035478232
42
0.41421356237298057
10
59.387500019282129
20
-6.4998536035478338
10
59.3875000192822
20
6.5001463964521111
42
0.41421356237324591
10
58.887500019282157
20
7.0001463964521271
10
45.887500019282079
20
7.0001463964521626
42
0.4142135623730846
10
45.387500019282072
20
6.5001463964522443
0
LWPOLYLINE
5
136
100
AcDbEntity
8
0
100
AcDbPolyline
90
8
70
1
43
0.0
10
35.575000019282044
20
25.550146396452078
10
35.575000019282079
20
12.55014639645216
42
-0.41421356237304302
10
35.075000019282143
20
12.05014639645217
10
22.075000019282136
20
12.050146396452224
42
-0.41421356237312362
10
21.575000019282111
20
12.550146396452227
10
21.575000019282164
20
25.550146396452238
42
-0.41421356237313667
10
22.075000019282136
20
26.050146396452138
10
35.075000019282072
20
26.050146396452227
42
-0.41421356237311585
0
LWPOLYLINE
5
137
100
AcDbEntity
8
0
100
AcDbPolyline
90
8
70
1
43
0.0
10
73.962500019282118
20
-25.549853603547756
42
0.41421356237310542
10
74.462500019282132
20
-26.049853603547639
10
87.462500019282203
20
-26.049853603547845
42
0.4142135623731783
10
87.962500019282146
20
-25.549853603547916
10
87.962500019282288
20
-12.549853603547687
42
0.41421356237307944
10
87.462500019282032
20
-12.0498536035476
10
74.462500019282203
20
-12.049853603547858
42
0.41421356237319906
10
73.962500019282231
20
-12.549853603547643
0
LWPOLYLINE
5
138
100
AcDbEntity
8
0
100
AcDbPolyline
90
8
70
1
43
0.0
10
49.362500019282116
20
-26.049853603547703
42
0.41421356237304302
10
49.862500019282201
20
-25.549853603547774
10
49.862500019282123
20
-12.5498536035479
42
0.41421356237315227
10
49.362500019282081
20
-12.049853603547902
10
36.362500019282038
20
-12.049853603547911
42
0.4142135623730534
10
35.862500019282066
20
-12.549853603547838
10
35.862500019282066
20
-25.549853603547909
42
0.414213562373069
10
36.362500019282038
20
-26.049853603547835
0
LWPOLYLINE
5
139
100
AcDbEntity
8
0
100
AcDbPolyline
90
8
70
1
43
0.0
10
2.5250000192821176
20
12.550146396452181
42
0.41421356237308721
10
3.0250000192821247
20
12.050146396452117
10
16.025000019282132
20
12.050146396452277
42
0.41421356237309503
10
16.525000019282139
20
12.550146396452195
10
16.525000019282142
20
25.550146396452092
42
0.41421356237308721
10
16.025000019282132
20
26.050146396452227
10
3.0250000192821425
20
26.050146396452103
42
0.41421356237307422
10
2.5250000192821176
20
25.550146396452096
0
LWPOLYLINE
5
140
100
AcDbEntity
8
0
100
AcDbPolyline
90
8
70
1
43
0.0
10
12.050000018688767
20
31.60014639704546
42
0.41421356237307683
10
12.550000018688827
20
31.100146397045361
10
25.550000018688799
20
31.100146397045492
42
0.4142135623728973
10
26.050000018688806
20
31.60014639704551
10
26.050000018688806
20
44.600146397046181
42
0.4142135623730378
10
25.550000018688799
20
45.100146397045663
10
12.550000018688845
20
45.100146397045798
42
0.4142135623730222
10
12.050000018688785
20
44.600146397045748
0
LWPOLYLINE
5
141
100
AcDbEntity
8
0
100
AcDbPolyline
90
8
70
1
43
0.0
10
39.837500019282253
20
-6.9998536035477343
42
0.41421356237301177
10
40.337500019282118
20
-6.4998536035477983
10
40.337500019282103
20
6.5001463964521822
42
0.41421356237313145
10
39.837500019282146
20
7.0001463964521982
10
26.837500019282174
20
7.0001463964520028
42
0.41421356237312623
10
26.337500019282167
20
6.5001463964521555
10
26.337500019282167
20
-6.4998536035478072
42
0.41421356237313145
10
26.837500019282174
20
-6.9998536035479475
0
LWPOLYLINE
5
142
100
AcDbEntity
8
0
100
AcDbPolyline
90
8
70
1
43
0.0
10
-121.58749998131114
20
25.550146397045452
10
-121.58749998131117
20
12.55014639704541
42
-0.41421356237311585
10
-122.0874999813112
20
12.050146397045381
10
-135.08749998131117
20
12.050146397045403
42
-0.41421356237309631
10
-135.58749998131117
20
12.550146397045411
10
-135.58749998131117
20
25.550146397045417
42
-0.4142135623730846
10
-135.08749998131117
20
26.050146397045406
10
-122.08749998131118
20
26.050146397045442
42
-0.41421356237310542
0
LWPOLYLINE
5
143
100
AcDbEntity
8
0
100
AcDbPolyline
90
8
70
1
43
0.0
10
-137.46624998131119
20
7.0001463970454303
10
-119.70624998131122
20
7.0001463970453948
42
-0.41421356237308982
10
-119.2062499813112
20
6.5001463970453965
10
-119.20624998131119
20
-6.4998536029546017
42
-0.41421356237309503
10
-119.70624998131117
20
-6.999853602954591
10
-137.46624998131119
20
-6.9998536029545733
42
-0.41421356237310025
10
-137.96624998131119
20
-6.4998536029545928
10
-137.96624998131119
20
6.5001463970454232
42
-0.4142135623730846
0
LWPOLYLINE
5
144
100
AcDbEntity
8
0
100
AcDbPolyline
90
8
70
1
43
0.0
10
-31.099999981311157
20
44.600146397045179
10
-31.099999981311157
20
31.600146397045457
42
-0.41421356237310281
10
-31.599999981311178
20
31.100146397045378
10
-44.599999981311207
20
31.100146397045432
42
-0.414213562373069
10
-45.099999981311178
20
31.600146397045428
10
-45.099999981311214
20
44.600146397045393
42
-0.4142135623730846
10
-44.599999981311228
20
45.1001463970454
10
-31.5999999813112
20
45.100146397045471
42
-0.41421356237311585
0
LWPOLYLINE
5
145
100
AcDbEntity
8
0
100
AcDbPolyline
90
8
70
1
43
0.0
10
-69.199999981311151
20
44.60014639704557
10
-69.199999981311166
20
31.600146397045439
42
-0.41421356237307944
10
-69.69999998131118
20
31.100146397045361
10
-82.699999981311151
20
31.100146397045414
42
-0.41421356237309503
10
-83.199999981311208
20
31.600146397045386
10
-83.19999998131118
20
44.600146397045428
42
-0.41421356237309503
10
-82.699999981311151
20
45.100146397045449
10
-69.69999998131118
20
45.100146397045293
42
-0.41421356237307422
0
LWPOLYLINE
5
146
100
AcDbEntity
8
0
100
AcDbPolyline
90
8
70
1
43
0.0
10
-60.174999980717949
20
12.050146396452156
42
0.41421356237314189
10
-59.674999980717999
20
12.550146396452115
10
-59.674999980717907
20
25.550146396452188
42
0.41421356237309243
10
-60.174999980717985
20
26.050146396452121
10
-73.174999980717942
20
26.050146396452135
42
0.41421356237307944
10
-73.674999980717928
20
25.550146396452185
10
-73.674999980717942
20
12.550146396452181
42
0.41421356237310802
10
-73.174999980717985
20
12.050146396452135
0
LWPOLYLINE
5
147
100
AcDbEntity
8
0
100
AcDbPolyline
90
8
70
1
43
0.0
10
-92.224999980717982
20
26.05014639645217
42
0.41421356237309503
10
-92.724999980717939
20
25.550146396452185
10
-92.724999980717968
20
12.550146396452142
42
0.41421356237309503
10
-92.224999980717968
20
12.050146396452135
10
-79.224999980717968
20
12.050146396452153
42
0.41421356237313667
10
-78.724999980717953
20
12.55014639645216
10
-78.724999980717996
20
25.550146396452149
42
0.41421356237306384
10
-79.224999980717925
20
26.050146396452156
0
LWPOLYLINE
5
148
100
AcDbEntity
8
0
100
AcDbPolyline
90
8
70
1
43
0.0
10
-122.08749998131118
20
-45.099853602954632
10
-135.0874999813112
20
-45.09985360295456
42
-0.41421356237303258
10
-135.58749998131117
20
-44.599853602954553
10
-135.58749998131117
20
-31.5998536029546
42
-0.41421356237309503
10
-135.08749998131117
20
-31.099853602954568
10
-122.08749998131118
20
-31.099853602954575
42
-0.41421356237311063
10
-121.58749998131117
20
-31.59985360295461
10
-121.58749998131123
20
-44.599853602954553
42
-0.4142135623730846
0
LWPOLYLINE
5
149
100
AcDbEntity
8
0
100
AcDbPolyline
90
8
70
1
43
0.0
10
97.487500019282081
20
6.5001463964523154
10
97.487500019282081
20
-6.4998536035480292
42
-0.4142135623730222
10
96.987500019282066
20
-6.9998536035479741
10
83.987500019282209
20
-6.9998536035478942
42
-0.41421356237313667
10
83.487500019282123
20
-6.4998536035480292
10
83.487500019282123
20
6.5001463964522621
42
-0.41421356237309503
10
83.98750001928218
20
7.0001463964520916
10
96.987500019282038
20
7.000146396452287
42
-0.4142135623730534
0
LWPOLYLINE
5
150
100
AcDbEntity
8
0
100
AcDbPolyline
90
8
70
1
43
0.0
10
122.32500001868884
20
47.625146397045498
42
0.41421356237307944
10
121.82500001868885
20
47.125146397045505
10
121.82500001868885
20
46.625146397045498
42
0.41421356237308982
10
122.32500001868885
20
46.125146397045498
10
125.32500001868885
20
46.125146397045498
42
0.41421356237306384
10
125.8250000186888
20
46.625146397045505
10
125.82500001868885
20
47.125146397045505
42
0.41421356237307944
10
125.32500001868883
20
47.625146397045498
0
LWPOLYLINE
5
151
100
AcDbEntity
8
0
100
AcDbPolyline
90
8
70
1
43
0.0
10
106.27500001868881
20
-47.624853602954929
42
0.41421356237309503
10
106.77500001868884
20
-47.1248536029549
10
106.77500001868884
20
-46.624853602954957
42
0.41421356237309503
10
106.27500001868881
20
-46.124853602954936
10
103.27500001868881
20
-46.124853602954936
42
0.41421356237305862
10
102.77500001868887
20
-46.624853602954929
10
102.77500001868881
20
-47.124853602954914
42
0.41421356237308982
10
103.27500001868884
20
-47.624853602954929
0
LWPOLYLINE
5
152
100
AcDbEntity
8
0
100
AcDbPolyline
90
8
70
1
43
0.0
10
-2.0000121047334574
20
46.625146397045455
10
-2.000012104733484
20
47.125146397045476
42
-0.41421356237309664
10
-1.5000121047334831
20
47.625146397045476
10
1.4999878952665213
20
47.625146397045455
42
-0.41421356237309503
10
1.9999878952665195
20
47.125146397045455
10
1.9999878952665195
20
46.625146397045455
42
-0.41421356237309798
10
1.4999878952665164
20
46.125146397045455
10
-1.5000121047334858
20
46.125146397045484
42
-0.41421356237309503
0
LWPOLYLINE
5
153
100
AcDbEntity
8
0
100
AcDbPolyline
90
8
70
1
43
0.0
10
-103.27499998131118
20
-47.624853602954566
42
0.41421356237307944
10
-102.7749999813112
20
-47.124853602954566
10
-102.7749999813112
20
-46.624853602954559
42
0.41421356237308982
10
-103.2749999813112
20
-46.124853602954559
10
-106.27499998131121
20
-46.124853602954559
42
0.41421356237305862
10
-106.77499998131118
20
-46.624853602954559
10
-106.7749999813112
20
-47.124853602954566
42
0.41421356237305862
10
-106.27499998131121
20
-47.624853602954566
0
LWPOLYLINE
5
154
100
AcDbEntity
8
0
100
AcDbPolyline
90
8
70
1
43
0.0
10
-125.32499998131121
20
47.625146397045413
42
0.41421356237307944
10
-125.82499998131119
20
47.125146397045413
10
-125.82499998131119
20
46.625146397045405
42
0.41421356237308982
10
-125.32499998131118
20
46.125146397045413
10
-122.32499998131118
20
46.125146397045413
42
0.4142135623730534
10
-121.82499998131121
20
46.625146397045398
10
-121.82499998131119
20
47.125146397045413
42
0.41421356237305862
10
-122.32499998131118
20
47.625146397045413
0
LWPOLYLINE
5
155
100
AcDbEntity
8
0
100
AcDbPolyline
90
8
70
1
43
0.0
10
-115.18124998131235
20
24.300146397049893
10
-115.18124998131231
20
13.800146397049886
42
-0.41421356237309503
10
-115.93124998131228
20
13.050146397049929
10
-117.43124998131229
20
13.050146397049875
42
-0.41421356237309503
10
-118.18124998131231
20
13.800146397049886
10
-118.18124998131228
20
24.300146397049893
42
-0.41421356237309503
10
-117.43124998131229
20
25.050146397049886
10
-115.93124998131228
20
25.050146397049815
42
-0.41421356237309503
0
LWPOLYLINE
5
156
100
AcDbEntity
8
0
100
AcDbPolyline
90
8
70
1
43
0.0
10
-105.02499998131231
20
44.100146397043702
10
-104.52499998131228
20
44.100146397043716
42
-0.41421356237309503
10
-104.02499998131226
20
43.600146397043709
10
-104.02499998131228
20
32.60014639704373
42
-0.41421356237309503
10
-104.52499998131228
20
32.100146397043744
10
-105.02499998131231
20
32.100146397043723
42
-0.41421356237309503
10
-105.52499998131232
20
32.60014639704373
10
-105.52499998131231
20
43.600146397043709
42
-0.41421356237309503
0
LWPOLYLINE
5
157
100
AcDbEntity
8
0
100
AcDbPolyline
90
8
70
1
43
0.0
10
47.375000018689164
20
44.10014639704373
10
47.875000018687359
20
44.10014639704373
42
-0.41421356237471829
10
48.375000018689214
20
43.600146397042806
10
48.375000018689214
20
32.600146397043744
42
-0.41421356237309503
10
47.875000018689207
20
32.100146397043744
10
47.375000018689235
20
32.100146397043744
42
-0.41421356237309503
10
46.875000018689228
20
32.600146397043744
10
46.875000018689157
20
43.60014639704373
42
-0.41421356237309503
0
LWPOLYLINE
5
158
100
AcDbEntity
8
0
100
AcDbPolyline
90
8
70
1
43
0.0
10
102.01206036634879
20
-5.9998536029530136
10
101.01206036634885
20
-5.9998536029530136
42
-0.41421356237309503
10
100.26206036634882
20
-5.2498536029529852
10
100.26206036634882
20
5.2501463970469864
42
-0.41421356237309503
10
101.01206036634885
20
6.0001463970470148
10
102.01206036634879
20
6.0001463970470148
42
-0.41421356237309503
10
102.76206036634882
20
5.2501463970469864
10
102.76206036634882
20
-5.2498536029529852
42
-0.41421356237309503
0
LWPOLYLINE
5
159
100
AcDbEntity
8
0
100
AcDbPolyline
90
8
70
1
43
0.0
10
119.31626557621797
20
-44.09985360295159
10
118.816265576218
20
-44.099853602951569
42
-0.41421356237309503
10
118.31626557621803
20
-43.599853602951598
10
118.31626557621803
20
-32.599853602951598
42
-0.41421356237309503
10
118.816265576218
20
-32.099853602951626
10
119.31626557621797
20
-32.099853602951605
42
-0.41421356237309503
10
119.81626557621796
20
-32.599853602951598
10
119.81626557621796
20
-43.599853602951598
42
-0.41421356237309503
0
LWPOLYLINE
5
160
100
AcDbEntity
8
0
100
AcDbPolyline
90
10
70
1
43
0.0
10
-33.02035352568133
20
-43.056960384138165
10
-36.657106762498096
20
-39.420207147323254
42
-0.19891236737964715
10
-36.949999981311528
20
-38.713100366136722
10
-36.949999981311521
20
-33.099853602955207
42
-0.41421356237309503
10
-35.949999981311507
20
-32.099853602955193
10
-23.049999981311906
20
-32.099853602955193
42
-0.41421356237275164
10
-21.549999981311903
20
-33.599853602953438
10
-21.54999998131192
20
-41.849853602949814
42
-0.41421356237309503
10
-23.049999981311906
20
-43.3498536029498
10
-32.313246744494784
20
-43.349853602951612
42
-0.19891236737965801
0
LWPOLYLINE
5
161
100
AcDbEntity
8
0
100
AcDbPolyline
90
4
70
1
43
0.0
10
49.950000018688172
20
-29.324853602944714
10
-48.949999981311514
20
-29.324853602959227
42
-0.99999999999999989
10
-48.949999981311514
20
-27.824853602959241
10
49.950000018688172
20
-27.824853602944728
42
-0.99999999999999989
0
LWPOLYLINE
5
162
100
AcDbEntity
8
0
100
AcDbPolyline
90
8
70
1
43
0.0
10
-90.233734423781272
20
-44.099853602953388
10
-90.7337344237813
20
-44.099853602955164
42
-0.41421356237309503
10
-91.233734423781272
20
-43.599853602955193
10
-91.2337344237813
20
-32.599853602953445
42
-0.41421356237309503
10
-90.7337344237813
20
-32.099853602953452
10
-90.233734423781272
20
-32.099853602953431
42
-0.41421356237309503
10
-89.733734423779495
20
-32.5998536029552
10
-89.733734423781272
20
-43.599853602955193
42
-0.41421356237204404
0
LWPOLYLINE
5
163
100
AcDbEntity
8
0
100
AcDbPolyline
90
8
70
1
43
0.0
10
-119.31249998131257
20
-32.099853602955193
10
-118.81249998131256
20
-32.099853602955193
42
-0.41421356237309503
10
-118.31249998131432
20
-32.599853602953445
10
-118.31249998131257
20
-43.599853602953409
42
-0.41421356237414597
10
-118.81249998131256
20
-44.099853602955193
10
-119.31249998131257
20
-44.099853602955214
42
-0.41421356237204404
10
-119.81249998131437
20
-43.599853602955207
10
-119.81249998131258
20
-32.599853602953445
42
-0.41421356237206486
0
LWPOLYLINE
5
164
100
AcDbEntity
8
0
100
AcDbPolyline
90
8
70
1
43
0.0
10
-10.849999981311171
20
-43.349853602947881
10
-17.849999981311164
20
-43.349853602949821
42
-0.41421356237309503
10
-19.349999981311168
20
-41.849853602949814
10
-19.349999981312962
20
-33.599853602955193
42
-0.41421356237309681
10
-17.849999981312976
20
-32.0998536029552
10
-10.59999998131115
20
-32.0998536029552
42
-0.41421356237309503
10
-9.8499999813111572
20
-32.849853602955193
10
-9.8499999813111749
20
-42.349853602947888
42
-0.41421356237309503
0
LWPOLYLINE
5
165
100
AcDbEntity
8
0
100
AcDbPolyline
90
8
70
1
43
0.0
10
90.237500018688479
20
-32.099853602951626
10
90.737500018688451
20
-32.099853602951605
42
-0.41421356237309503
10
91.237500018688436
20
-32.599853602951598
10
91.237500018688422
20
-43.599853602951612
42
-0.41421356237309503
10
90.737500018688451
20
-44.099853602951583
10
90.237500018688479
20
-44.099853602951598
42
-0.41421356237309503
10
89.737500018688493
20
-43.599853602951612
10
89.737500018688507
20
-32.599853602951598
42
-0.41421356237309503
0
LWPOLYLINE
5
166
100
AcDbEntity
8
0
100
AcDbPolyline
90
8
70
1
43
0.0
10
72.187500018689121
20
-13.549853602954105
10
72.187500018689192
20
-24.549853602954119
42
-0.41421356237255391
10
71.687500018688297
20
-25.049853602955938
10
71.187500018689178
20
-25.049853602954126
42
-0.41421356237309503
10
70.687500018689178
20
-24.549853602954119
10
70.687500018689178
20
-13.549853602954105
42
-0.41421356237309503
10
71.187500018689178
20
-13.049853602954098
10
71.68750001868915
20
-13.049853602954133
42
-0.41421356237309503
0
LWPOLYLINE
5
167
100
AcDbEntity
8
0
100
AcDbPolyline
90
8
70
1
43
0.0
10
104.02500001868887
20
44.100146397043702
10
104.52500001868884
20
44.10014639704373
42
-0.41421356237309503
10
105.02500001868884
20
43.60014639704373
10
105.02500001868889
20
32.600146397043744
42
-0.41421356237309503
10
104.52500001868884
20
32.100146397043702
10
104.02500001868887
20
32.100146397043744
42
-0.41421356237309503
10
103.52500001868887
20
32.600146397043744
10
103.5250000186889
20
43.60014639704373
42
-0.41421356237309503
0
LWPOLYLINE
5
168
100
AcDbEntity
8
0
100
AcDbPolyline
90
8
70
1
43
0.0
10
15.037500018689514
20
-13.549853602954105
10
15.037500018689549
20
-24.54985360295413
42
-0.41421356237309503
10
14.537500018689542
20
-25.049853602954137
10
14.037500018689535
20
-25.049853602954137
42
-0.41421356237309503
10
13.537500018689528
20
-24.54985360295413
10
13.537500018689528
20
-13.549853602954105
42
-0.41421356237309503
10
14.037500018689535
20
-13.049853602954098
10
14.537500018689542
20
-13.049853602954133
42
-0.41421356237309503
0
LWPOLYLINE
5
169
100
AcDbEntity
8
0
100
AcDbPolyline
90
8
70
1
43
0.0
10
-47.874999981312563
20
44.100146397043716
10
-47.374999981312556
20
44.100146397043716
42
-0.41421356237309503
10
-46.874999981312548
20
43.600146397043709
10
-46.874999981312584
20
32.60014639704373
42
-0.41421356237309503
10
-47.374999981312556
20
32.100146397043758
10
-47.874999981312563
20
32.100146397043723
42
-0.41421356237309503
10
-48.37499998131257
20
32.60014639704373
10
-48.37499998131257
20
43.600146397043709
42
-0.41421356237309503
0
LWPOLYLINE
5
170
100
AcDbEntity
8
0
100
AcDbPolyline
90
8
70
1
43
0.0
10
-95.499999981312584
20
25.050146397044362
10
-94.999999981312556
20
25.050146397044379
42
-0.41421356237309503
10
-94.499999981312541
20
24.550146397044372
10
-94.499999981312556
20
13.550146397044394
42
-0.41421356237309503
10
-94.999999981312556
20
13.050146397044404
10
-95.499999981312584
20
13.050146397044387
42
-0.41421356237309503
10
-95.999999981312598
20
13.550146397044394
10
-95.999999981312584
20
24.550146397044372
42
-0.41421356237309503
0
LWPOLYLINE
5
171
100
AcDbEntity
8
0
100
AcDbPolyline
90
8
70
1
43
0.0
10
-33.587499981310458
20
6.0001463970451852
10
-33.087499981310451
20
6.0001463970451852
42
-0.41421356237147178
10
-32.587499981312291
20
5.5001463970461018
10
-32.587499981310479
20
-5.4998536029548006
42
-0.41421356237255391
10
-33.087499981311375
20
-5.9998536029566196
10
-33.587499981310458
20
-5.9998536029548077
42
-0.41421356237309503
10
-34.087499981310465
20
-5.4998536029548006
10
-34.087499981310465
20
5.500146397045178
42
-0.41421356237309503
0
LWPOLYLINE
5
172
100
AcDbEntity
8
0
100
AcDbPolyline
90
8
70
1
43
0.0
10
38.850000018689528
20
24.550146397043466
10
38.850000018689457
20
13.550146397044411
42
-0.41421356237255391
10
38.350000018688561
20
13.050146397042592
10
37.850000018689514
20
13.050146397044404
42
-0.41421356237309503
10
37.350000018689506
20
13.550146397044411
10
37.350000018689506
20
24.55014639704439
42
-0.41421356237309503
10
37.850000018689514
20
25.050146397044397
10
38.350000018687638
20
25.050146397044433
42
-0.41421356237471829
0
LWPOLYLINE
5
173
100
AcDbEntity
8
0
100
AcDbPolyline
90
8
70
1
43
0.0
10
80.712500018688829
20
6.0001463970452029
10
81.212500018688871
20
6.0001463970452029
42
-0.41421356237309503
10
81.712500018688871
20
5.5001463970451958
10
81.712500018688871
20
-5.4998536029547829
42
-0.41421356237309503
10
81.212500018688871
20
-5.99985360295479
10
80.712500018688829
20
-5.99985360295479
42
-0.41421356237309503
10
80.212500018688814
20
-5.4998536029547829
10
80.212500018688814
20
5.5001463970451958
42
-0.41421356237309503
0
LWPOLYLINE
5
174
100
AcDbEntity
8
0
100
AcDbPolyline
90
8
70
1
43
0.0
10
121.00312501868856
20
-25.04985360295052
10
119.50312501868858
20
-25.04985360295052
42
-0.41421356237309503
10
118.75312501868859
20
-24.299853602950527
10
118.75312501868859
20
-13.799853602950591
42
-0.41421356237309503
10
119.50312501868858
20
-13.049853602950591
10
121.00312501868856
20
-13.049853602950598
42
-0.41421356237309503
10
121.75312501868856
20
-13.799853602950591
10
121.75312501868856
20
-24.299853602950527
42
-0.41421356237309503
0
LWPOLYLINE
5
175
100
AcDbEntity
8
0
100
AcDbPolyline
90
10
70
1
43
0.0
10
70.212500018688857
20
-44.59985360294985
10
68.503300877587208
20
-44.599853602949821
42
-0.19891236737965362
10
67.972970791697307
20
-44.380183688839736
10
64.16966993279766
20
-40.576882829941106
42
-0.19891236737963192
10
63.95000001868739
20
-40.046552744050686
10
63.950000018688122
20
-32.849853602955186
42
-0.41421356237309503
10
64.700000018688115
20
-32.099853602955193
10
70.212500018688786
20
-32.099853602955179
42
-0.41421356237309503
10
70.9625000186888
20
-32.849853602955186
10
70.962500018688885
20
-43.849853602949821
42
-0.41421356237309503
0
LWPOLYLINE
5
176
100
AcDbEntity
8
0
100
AcDbPolyline
90
8
70
1
43
0.0
10
17.850000024239314
20
-43.349853613587193
10
10.850000022387505
20
-43.349853639491435
42
-0.41421356345675059
10
9.8500000186876591
20
-42.349853639491421
10
9.8500000186876946
20
-32.849853602955193
42
-0.41421356237309503
10
10.600000018687687
20
-32.0998536029552
10
17.850000018687702
20
-32.099853602955186
42
-0.41421356237309503
10
19.350000018687705
20
-33.599853602955186
10
19.350000018689535
20
-41.849853613587207
42
-0.41421356128943598
0
LWPOLYLINE
5
177
100
AcDbEntity
8
0
100
AcDbPolyline
90
8
70
1
43
0.0
10
-85.962499981310501
20
-28.824853602955613
10
-85.962499981310501
20
-28.324853602955624
42
-0.41421356237309503
10
-85.462499981310486
20
-27.824853602955617
10
-76.462499981310515
20
-27.824853602955617
42
-0.41421356237309503
10
-75.962499981310501
20
-28.324853602955624
10
-75.962499981310501
20
-28.824853602955613
42
-0.41421356237309503
10
-76.462499981310515
20
-29.324853602955621
10
-85.462499981310486
20
-29.324853602955621
42
-0.41421356237309503
0
LWPOLYLINE
5
178
100
AcDbEntity
8
0
100
AcDbPolyline
90
10
70
1
43
0.0
10
-68.503300840210599
20
-44.599853602950546
10
-70.21249998131232
20
-44.599853602949828
42
-0.41421356237309503
10
-70.962499981312305
20
-43.849853602949835
10
-70.962499981312305
20
-32.849853602955207
42
-0.41421356237309503
10
-70.21249998131232
20
-32.099853602955207
10
-64.699999981311464
20
-32.099853602955193
42
-0.41421356237309503
10
-63.949999981311464
20
-32.849853602955207
10
-63.949999981311471
20
-40.046552744050707
42
-0.19891236737966239
10
-64.169669895421578
20
-40.576882829940629
10
-67.972970754320158
20
-44.380183688840233
42
-0.19891236737966667
0
LWPOLYLINE
5
179
100
AcDbEntity
8
0
100
AcDbPolyline
90
10
70
1
43
0.0
10
32.313246877028163
20
-43.349853560063416
10
23.050000024238209
20
-43.349853594344133
42
-0.41421356345674715
10
21.550000018688475
20
-41.849853594344133
10
21.550000018688493
20
-33.599853602955179
42
-0.41421356237309503
10
23.050000018688479
20
-32.099853602955193
10
35.950000018688115
20
-32.099853602955179
42
-0.41421356237309503
10
36.950000018688129
20
-33.099853602955193
10
36.950000018688264
20
-38.71310041470192
42
-0.19891236737963192
10
36.657106799874839
20
-39.420207195888501
10
33.020353654513066
20
-43.056960341249962
42
-0.19891236641763221
0
LWPOLYLINE
5
180
100
AcDbEntity
8
0
100
AcDbPolyline
90
8
70
1
43
0.0
10
66.437500018687388
20
-28.824853602955596
10
66.437500018687359
20
-28.324853602955606
42
-0.41421356237309503
10
66.937500018687359
20
-27.824853602955599
10
75.937500018687416
20
-27.824853602955599
42
-0.41421356237309503
10
76.437500018687416
20
-28.324853602955606
10
76.437500018687416
20
-28.824853602955596
42
-0.41421356237309503
10
75.937500018687416
20
-29.324853602955603
10
66.937500018687359
20
-29.324853602955567
42
-0.41421356237309503
0
LWPOLYLINE
5
181
100
AcDbEntity
8
0
100
AcDbPolyline
90
8
70
1
43
0.0
10
95.682310366351118
20
-13.799853602950503
10
95.682310366349071
20
-24.29985360295051
42
-0.41421356237238743
10
94.9323103663491
20
-25.049853602948673
10
93.432310366349185
20
-25.049853602948726
42
-0.41421356237309503
10
92.682310366349157
20
-24.299853602948698
10
92.682310366349185
20
-13.799853602950503
42
-0.41421356237309503
10
93.432310366349185
20
-13.04985360295051
10
94.932310366351089
20
-13.049853602950474
42
-0.41421356237309503
0
LWPOLYLINE
5
182
100
AcDbEntity
8
0
100
AcDbPolyline
90
8
70
1
43
0.0
10
95.000000018689263
20
25.050146397044433
10
95.500000018689235
20
25.050146397044397
42
-0.41421356237309503
10
96.000000018689235
20
24.55014639704439
10
96.000000018689207
20
13.550146397044411
42
-0.41421356237309503
10
95.500000018689235
20
13.05014639704444
10
95.000000018689263
20
13.050146397044404
42
-0.41421356237309503
10
94.500000018689263
20
13.550146397044411
10
94.500000018689221
20
24.55014639704439
42
-0.41421356237309503
0
LWPOLYLINE
5
183
100
AcDbEntity
8
0
100
AcDbPolyline
90
8
70
1
43
0.0
10
23.062500018687437
20
-5.4998536029547829
10
23.062500018687437
20
5.5001463970451958
42
-0.41421356237309503
10
23.562500018687444
20
6.0001463970452029
10
24.062500018687452
20
6.0001463970452029
42
-0.41421356237309503
10
24.562500018687459
20
5.5001463970451958
10
24.562500018687423
20
-5.4998536029547829
42
-0.41421356237309503
10
24.062500018687452
20
-5.9998536029547545
10
23.562500018687444
20
-5.99985360295479
42
-0.41421356237309503
0
LWPOLYLINE
5
184
100
AcDbEntity
8
0
100
AcDbPolyline
90
8
70
1
43
0.0
10
-38.349999981311171
20
25.050146397044379
10
-37.849999981311164
20
25.050146397044379
42
-0.41421356237309503
10
-37.349999981311157
20
24.550146397044372
10
-37.349999981311157
20
13.550146397044394
42
-0.41421356237309503
10
-37.849999981311164
20
13.050146397044387
10
-38.349999981311171
20
13.050146397044387
42
-0.41421356237309503
10
-38.849999981311178
20
13.550146397044394
10
-38.849999981311178
20
24.550146397044372
42
-0.41421356237309503
0
LWPOLYLINE
5
185
100
AcDbEntity
8
0
100
AcDbPolyline
90
8
70
1
43
0.0
10
-90.737499981311885
20
6.0001463970433555
10
-90.237499981311913
20
6.0001463970451852
42
-0.41421356237469747
10
-89.737499981310052
20
5.5001463970442899
10
-89.737499981310066
20
-5.4998536029548006
42
-0.41421356237309503
10
-90.237499981310066
20
-5.99985360295479
10
-90.737499981310066
20
-5.9998536029548077
42
-0.41421356237415641
10
-91.237499981311885
20
-5.4998536029548006
10
-91.237499981310052
20
5.500146397045178
42
-0.41421356237309503
0
LWPOLYLINE
5
186
100
AcDbEntity
8
0
100
AcDbPolyline
90
8
70
1
43
0.0
10
115.93100001928214
20
25.050146397045978
10
117.43150001868884
20
25.050146397045978
42
-0.41421356237309503
10
118.18150001868884
20
24.300146397045985
10
118.18150001868884
20
13.800146396452053
42
-0.41421356237309503
10
117.43150001868884
20
13.050146396452053
10
115.93100001928214
20
13.05014639645206
42
-0.41421356237309503
10
115.18100001928215
20
13.800146396452053
10
115.18100001928215
20
24.300146397045985
42
-0.41421356237309503
0
LWPOLYLINE
5
187
100
AcDbEntity
8
0
100
AcDbPolyline
90
8
70
1
43
0.0
10
53.650000018688857
20
-45.599853602954703
10
53.650000018688814
20
-30.599853602954603
42
-0.41421356237309503
10
54.1500000186889
20
-30.099853602954518
10
60.150000018688914
20
-30.099853602954578
42
-0.41421356237309503
10
60.650000018688885
20
-30.59985360295455
10
60.650000018688829
20
-45.599853602954774
42
-0.41421356237310025
10
60.150000018688836
20
-46.099853602954759
10
54.1500000186889
20
-46.099853602954745
42
-0.41421356237309503
0
LWPOLYLINE
5
188
100
AcDbEntity
8
0
100
AcDbPolyline
90
8
70
1
43
0.0
10
87.462500018688871
20
-45.099853602954603
10
74.462500018688829
20
-45.099853602954568
42
-0.41421356237312623
10
73.962500018688871
20
-44.599853602954418
10
73.962500018688857
20
-31.599853602954475
42
-0.41421356237293894
10
74.462500018688758
20
-31.099853602954557
10
87.462500018688871
20
-31.099853602954699
42
-0.4142135623732251
10
87.962500018688871
20
-31.599853602954646
10
87.962500018688843
20
-44.599853602954703
42
-0.41421356237321988
0
LWPOLYLINE
5
189
100
AcDbEntity
8
0
100
AcDbPolyline
90
8
70
1
43
0.0
10
111.27500001868881
20
-45.099853602954752
10
98.275000018688843
20
-45.099853602954532
42
-0.41421356237300139
10
97.775000018688871
20
-44.599853602954582
10
97.775000018688871
20
-31.599853602954433
42
-0.41421356237311585
10
98.275000018688871
20
-31.099853602954745
10
111.27500001868881
20
-31.099853602954546
42
-0.41421356237316265
10
111.77500001868886
20
-31.599853602954706
10
111.77500001868893
20
-44.599853602954568
42
-0.41421356237313667
0
LWPOLYLINE
5
190
100
AcDbEntity
8
0
100
AcDbPolyline
90
8
70
1
43
0.0
10
135.0875000186889
20
-45.099853602954752
10
122.08750001868879
20
-45.099853602954397
42
-0.4142135623730846
10
121.58750001868884
20
-44.599853602954482
10
121.58750001868884
20
-31.599853602954518
42
-0.41421356237295975
10
122.08750001868873
20
-31.099853602954759
10
135.0875000186889
20
-31.099853602954468
42
-0.41421356237312623
10
135.58750001868884
20
-31.599853602954457
10
135.58750001868879
20
-44.59985360295434
42
-0.41421356237306384
0
LWPOLYLINE
5
191
100
AcDbEntity
8
0
100
AcDbPolyline
90
8
70
1
43
0.0
10
-6.9999999813111913
20
-44.599853602954539
42
0.4142135623730222
10
-6.4999999813111664
20
-45.099853602954539
10
6.5000000186888052
20
-45.099853602954703
42
0.4142135623730534
10
7.00000001868883
20
-44.599853602954589
10
7.0000000186888123
20
-31.599853602954582
42
0.41421356237307422
10
6.5000000186887519
20
-31.099853602954628
10
-6.4999999813111842
20
-31.099853602954575
42
0.41421356237301177
10
-6.9999999813111913
20
-31.599853602954582
0
LWPOLYLINE
5
192
100
AcDbEntity
8
0
100
AcDbPolyline
90
8
70
1
43
0.0
10
-54.14999998131119
20
-46.099853602954425
10
-60.149999981311204
20
-46.099853602954404
42
-0.41421356237309503
10
-60.649999981311154
20
-45.599853602954454
10
-60.649999981311197
20
-30.599853602954532
42
-0.41421356237309503
10
-60.14999998131124
20
-30.099853602954578
10
-54.149999981311154
20
-30.099853602954589
42
-0.41421356237309503
10
-53.649999981311183
20
-30.59985360295456
10
-53.649999981311197
20
-45.599853602954433
42
-0.41421356237309503
0
LWPOLYLINE
5
193
100
AcDbEntity
8
0
100
AcDbPolyline
90
8
70
1
43
0.0
10
-106.00574998131123
20
-11.549853602954556
10
-106.00574998131117
20
-26.549853602954574
42
-0.41421356237309503
10
-106.50574998131117
20
-27.049853602954563
10
-112.50574998131121
20
-27.049853602954599
42
-0.41421356237309503
10
-113.0057499813112
20
-26.549853602954609
10
-113.00574998131118
20
-11.549853602954538
42
-0.41421356237309503
10
-112.50574998131121
20
-11.049853602954558
10
-106.50574998131127
20
-11.049853602954531
42
-0.4142135623730846
0
LWPOLYLINE
5
194
100
AcDbEntity
8
0
100
AcDbPolyline
90
8
70
1
43
0.0
10
114.44375001868892
20
-6.4998536029545662
10
114.44375001868885
20
6.5001463970452455
42
-0.41421356237298057
10
114.94375001868882
20
7.0001463970457323
10
127.94375001868879
20
7.0001463970453237
42
-0.41421356237300661
10
128.44375001868883
20
6.50014639704529
10
128.4437500186888
20
-6.4998536029546372
42
-0.41421356237290774
10
127.94375001868879
20
-6.9998536029545999
10
114.94375001868875
20
-6.9998536029546621
42
-0.4142135623730846
0
LWPOLYLINE
5
195
100
AcDbEntity
8
0
100
AcDbPolyline
90
68
70
1
43
0.0
10
142.87499986334353
20
-46.524853318154875
10
142.87497577184416
20
46.525146681845527
42
0.41421348654035955
10
141.77497577184425
20
47.625146397045455
10
128.3250000186888
20
47.625146397045519
42
-0.41421356237309503
10
126.3250000186888
20
49.625146397045512
10
126.32500001868884
20
50.625146397045491
42
0.12701665379258284
10
126.01250001868884
20
51.835453692735307
42
0.77459666924148973
10
125.0750000186888
20
51.593392233597335
10
125.07500001868884
20
50.625146397045491
42
-0.99999999999999989
10
122.57500001868884
20
50.625146397045491
10
122.57500001868884
20
51.593392233597314
42
0.77459666924148918
10
121.63750001868878
20
51.835453692735278
42
0.12701665379257776
10
121.32500001868884
20
50.625146397045491
10
121.3250000186888
20
49.625146397045512
42
-0.41421356237309503
10
119.32500001868881
20
47.625146397045512
10
4.4999878952665284
20
47.625146397045476
42
-0.41421356237309503
10
2.4999878952665289
20
49.625146397045476
10
2.4999878952665355
20
50.625146397045455
42
0.12701665379258273
10
2.1874878952665373
20
51.835453692735271
42
0.77459666924147674
10
1.2499878952665426
20
51.593392233597299
10
1.2499878952665355
20
50.625146397045455
42
-0.99999999999999989
10
-1.2500121047334645
20
50.625146397045455
10
-1.2500121047334645
20
51.593392233597285
42
0.77459666924148662
10
-2.1875121047334751
20
51.835453692735243
42
0.12701665379257984
10
-2.5000121047334649
20
50.625146397045455
10
-2.5000121047334556
20
49.625146397045476
42
-0.41421356237309503
10
-4.5000121047334574
20
47.625146397045476
10
-119.32499998131121
20
47.625146397045448
42
-0.41421356237309503
10
-121.32499998131121
20
49.625146397045441
10
-121.32499998131117
20
50.62514639704542
42
0.12701665379258284
10
-121.63749998131117
20
51.835453692735236
42
0.77459666924148973
10
-122.57499998131121
20
51.593392233597264
10
-122.57499998131117
20
50.62514639704542
42
-0.99999999999999989
10
-125.07499998131117
20
50.62514639704542
10
-125.07499998131117
20
51.593392233597243
42
0.77459666924148918
10
-126.01249998131122
20
51.835453692735207
42
0.12701665379257776
10
-126.32499998131117
20
50.62514639704542
10
-126.32499998131117
20
49.625146397045441
42
-0.41421356237309503
10
-128.32499998131118
20
47.625146397045441
10
-141.77499998131117
20
47.625146397045413
42
0.41421356237309503
10
-142.87499998131116
20
46.525146397045432
10
-142.87499998130932
20
-46.524853602954472
42
0.41421356237309742
10
-141.77499998131154
20
-47.624853602954488
10
-109.27499998131118
20
-47.624853602954587
42
-0.41421356237309503
10
-107.2749999813112
20
-49.624853602954587
10
-107.2749999813112
20
-50.624853602954552
42
0.12701665379258284
10
-106.9624999813112
20
-51.835160898644368
42
0.77459666924147608
10
-106.0249999813112
20
-51.593099439506396
10
-106.0249999813112
20
-50.624853602954552
42
-0.99999999999999989
10
-103.5249999813112
20
-50.624853602954552
10
-103.5249999813112
20
-51.593099439506382
42
0.77459666924148918
10
-102.58749998131117
20
-51.83516089864434
42
0.12701665379257951
10
-102.2749999813112
20
-50.624853602954552
10
-102.2749999813112
20
-49.624853602954573
42
-0.41421356237309503
10
-100.2749999813112
20
-47.624853602954573
10
100.27500001868887
20
-47.624853602954936
42
-0.41421356237309503
10
102.27500001868887
20
-49.624853602954929
10
102.27500001868883
20
-50.624853602954907
42
0.12701665379258284
10
102.58750001868883
20
-51.835160898644723
42
0.77459666924149617
10
103.52500001868887
20
-51.593099439506759
10
103.52500001868883
20
-50.624853602954907
42
-0.99999999999999989
10
106.02500001868883
20
-50.624853602954907
10
106.02500001868883
20
-51.593099439506744
42
0.77459666924148918
10
106.96250001868889
20
-51.835160898644702
42
0.12701665379257857
10
107.27500001868883
20
-50.624853602954907
10
107.27500001868887
20
-49.624853602954943
42
-0.41421356237309631
10
109.27500001868886
20
-47.624853602954929
10
141.77499986334354
20
-47.624853602954971
42
0.41421363820584162
0
LWPOLYLINE
5
196
100
AcDbEntity
8
0
100
AcDbPolyline
90
8
70
1
43
0.0
10
113.00575001868879
20
7.5001463970454552
10
113.0057500186889
20
-7.4998536029545271
42
-0.41421356237309503
10
112.50575001868867
20
-7.9998536029547385
10
106.50575001868887
20
-7.9998536029546763
42
-0.41421356237309503
10
106.00575001868883
20
-7.4998536029546337
10
106.0057500186889
20
7.5001463970454374
42
-0.41421356237309503
10
106.50575001868901
20
8.0001463970455422
10
112.50575001868867
20
8.0001463970455511
42
-0.4142135623730846
0
LWPOLYLINE
5
197
100
AcDbEntity
8
0
100
AcDbPolyline
90
8
70
1
43
0.0
10
136.88175001868885
20
7.5001463970457038
10
136.88175001868885
20
-7.4998536029548113
42
-0.41421356237309503
10
136.38175001868865
20
-7.9998536029549872
10
130.38175001868865
20
-7.999853602954925
42
-0.41421356237309503
10
129.88175001868888
20
-7.4998536029551666
10
129.88175001868885
20
7.5001463970456683
42
-0.41421356237309503
10
130.38175001868879
20
8.0001463970455955
10
136.38175001868893
20
8.0001463970456044
42
-0.41421356237309503
0
LWPOLYLINE
5
198
100
AcDbEntity
8
0
100
AcDbPolyline
90
8
70
1
43
0.0
10
-129.8817499813112
20
-11.549853602954556
10
-129.8817499813112
20
-26.549853602954627
42
-0.41421356237309503
10
-130.3817499813112
20
-27.049853602954606
10
-136.38174998131117
20
-27.049853602954599
42
-0.41421356237309503
10
-136.8817499813112
20
-26.549853602954574
10
-136.88174998131117
20
-11.549853602954556
42
-0.41421356237309503
10
-136.38174998131117
20
-11.049853602954558
10
-130.3817499813112
20
-11.049853602954567
42
-0.41421356237309503
0
LWPOLYLINE
5
199
100
AcDbEntity
8
0
100
AcDbPolyline
90
8
70
1
43
0.0
10
-128.44374998131121
20
-25.549853602954595
10
-128.44374998131121
20
-12.549853602954588
42
-0.41421356237312623
10
-127.9437499813112
20
-12.049853602954572
10
-114.94374998131121
20
-12.049853602954581
42
-0.41421356237310542
10
-114.44374998131123
20
-12.549853602954588
10
-114.44374998131117
20
-25.54985360295456
42
-0.4142135623730846
10
-114.94374998131121
20
-26.049853602954592
10
-127.9437499813112
20
-26.049853602954549
42
-0.41421356237307422
0
LWPOLYLINE
5
200
100
AcDbEntity
8
0
100
AcDbPolyline
90
8
70
1
43
0.0
10
-100.26279006596837
20
-13.79985360295052
42
0.41421356237309503
10
-101.0127900659684
20
-13.049853602950492
10
-102.01279006596842
20
-13.049853602950527
42
0.41421356237309503
10
-102.76279006596837
20
-13.79985360295052
10
-102.76279006596843
20
-24.299853602950527
42
0.41421356237309503
10
-102.01279006596842
20
-25.049853602950538
10
-101.0127900659684
20
-25.04985360295052
42
0.41421356237309503
10
-100.26279006596837
20
-24.299853602950527
0
LWPOLYLINE
5
201
100
AcDbEntity
8
0
100
AcDbPolyline
90
8
70
1
43
0.0
10
-21.287499980717897
20
-25.549853603547852
10
-21.287499980717879
20
-12.549853603547874
42
-0.4142135623730846
10
-20.78749998071789
20
-12.049853603547902
10
-7.7874999807178824
20
-12.049853603547866
42
-0.4142135623730378
10
-7.2874999807178931
20
-12.549853603547829
10
-7.2874999807178575
20
-25.549853603547898
42
-0.41421356237306384
10
-7.7874999807178646
20
-26.049853603547817
10
-20.78749998071789
20
-26.049853603547881
42
-0.41421356237306384
0
LWPOLYLINE
5
202
100
AcDbEntity
8
0
100
AcDbPolyline
90
8
70
1
43
0.0
10
-83.487499980717885
20
-12.549853603547838
10
-83.487499980717956
20
-25.549853603547863
42
-0.41421356237311585
10
-83.987499980717914
20
-26.049853603547888
10
-96.987499980717971
20
-26.049853603547888
42
-0.41421356237312101
10
-97.487499980717871
20
-25.549853603547803
10
-97.487499980717899
20
-12.549853603547838
42
-0.41421356237310542
10
-96.987499980717914
20
-12.049853603547866
10
-83.987499980717928
20
-12.04985360354792
42
-0.41421356237310542
0
LWPOLYLINE
5
203
100
AcDbEntity
8
0
100
AcDbPolyline
90
8
70
1
43
0.0
10
-80.212499981312362
20
-13.549853602954123
42
0.41421356237309503
10
-80.712499981312334
20
-13.049853602954151
10
-81.212499981312305
20
-13.049853602954116
42
0.41421356237309503
10
-81.712499981312305
20
-13.549853602954123
10
-81.712499981312305
20
-24.549853602954137
42
0.41421356237309503
10
-81.212499981312305
20
-25.049853602954144
10
-80.712499981312334
20
-25.049853602954144
42
0.41421356237309503
10
-80.21249998131232
20
-24.549853602954137
0
LWPOLYLINE
5
204
100
AcDbEntity
8
0
100
AcDbPolyline
90
8
70
1
43
0.0
10
-64.437499980717917
20
-12.549853603547838
10
-64.437499980717902
20
-25.54985360354781
42
-0.41421356237307422
10
-64.937499980717945
20
-26.049853603547895
10
-77.937499980717888
20
-26.04985360354787
42
-0.41421356237311063
10
-78.437499980717917
20
-25.549853603547888
10
-78.43749998071786
20
-12.54985360354782
42
-0.41421356237312623
10
-77.937499980717902
20
-12.049853603547849
10
-64.937499980717917
20
-12.049853603547849
42
-0.4142135623730846
0
LWPOLYLINE
5
205
100
AcDbEntity
8
0
100
AcDbPolyline
90
8
70
1
43
0.0
10
-45.387499980717863
20
-12.549853603547838
10
-45.387499980717919
20
-25.549853603547923
42
-0.41421356237309503
10
-45.887499980717891
20
-26.049853603547859
10
-58.887499980717912
20
-26.049853603547881
42
-0.41421356237313145
10
-59.387499980717948
20
-25.549853603547852
10
-59.387499980717813
20
-12.54985360354782
42
-0.41421356237310542
10
-58.887499980717806
20
-12.049853603547795
10
-45.887499980717905
20
-12.049853603547795
42
-0.41421356237309503
0
LWPOLYLINE
5
206
100
AcDbEntity
8
0
100
AcDbPolyline
90
8
70
1
43
0.0
10
-26.337499980717887
20
-12.549853603547909
10
-26.337499980717894
20
-25.549853603547803
42
-0.4142135623730534
10
-26.837499980717894
20
-26.04985360354787
10
-39.837499980717865
20
-26.049853603547916
42
-0.41421356237309503
10
-40.337499980717993
20
-25.549853603547923
10
-40.337499980717894
20
-12.549853603547838
42
-0.41421356237312623
10
-39.83749998071788
20
-12.049853603547813
10
-26.837499980717894
20
-12.049853603547866
42
-0.41421356237303258
0
LWPOLYLINE
5
207
100
AcDbEntity
8
0
100
AcDbPolyline
90
8
70
1
43
0.0
10
-23.062499981312605
20
-13.549853602954123
42
0.41421356237309503
10
-23.562499981312577
20
-13.049853602954151
10
-24.062499981312548
20
-13.049853602954116
42
0.41421356237309503
10
-24.562499981312556
20
-13.549853602954123
10
-24.562499981312556
20
-24.549853602954137
42
0.41421356237309503
10
-24.062499981312548
20
-25.049853602954144
10
-23.562499981312577
20
-25.049853602954144
42
0.41421356237309503
10
-23.06249998131257
20
-24.549853602954137
0
LWPOLYLINE
5
208
100
AcDbEntity
8
0
100
AcDbPolyline
90
8
70
1
43
0.0
10
-121.29999998131119
20
31.600146397045439
10
-121.29999998131119
20
44.600146397045393
42
-0.41421356237309503
10
-120.7999999813112
20
45.100146397045421
10
-107.79999998131117
20
45.100146397045435
42
-0.41421356237310025
10
-107.29999998131117
20
44.600146397045421
10
-107.29999998131117
20
31.600146397045421
42
-0.41421356237309503
10
-107.79999998131117
20
31.100146397045418
10
-120.79999998131122
20
31.100146397045467
42
-0.41421356237309503
0
LWPOLYLINE
5
209
100
AcDbEntity
8
0
100
AcDbPolyline
90
8
70
1
43
0.0
10
-140.34999998131119
20
31.600146397045414
42
0.41421356237307944
10
-139.84999998131121
20
31.100146397045428
10
-126.84999998131117
20
31.100146397045435
42
0.4142135623730846
10
-126.3499999813112
20
31.600146397045421
10
-126.34999998131119
20
44.600146397045449
42
0.41421356237310542
10
-126.8499999813112
20
45.100146397045435
10
-139.84999998131121
20
45.100146397045428
42
0.41421356237309503
10
-140.34999998131121
20
44.600146397045428
0
LWPOLYLINE
5
210
100
AcDbEntity
8
0
100
AcDbPolyline
90
12
70
1
43
0.0
10
-109.10937498101454
20
2.0001463967487831
10
-109.1093749810145
20
-3.4998536032512217
42
-0.41421356237309503
10
-109.60937498101451
20
-3.9998536032512289
10
-110.10937498101455
20
-3.99985360325122
42
-0.4142135623730846
10
-110.60937498101458
20
-3.4998536032512129
10
-110.60937498101453
20
2.0001463967487876
42
0.41421356237307944
10
-111.1093749810145
20
2.500146396748768
10
-113.6093749810145
20
2.5001463967487836
42
-0.41421356237308593
10
-114.1093749810145
20
3.0001463967487751
10
-114.1093749810145
20
3.5001463967487734
42
-0.41421356237310025
10
-113.6093749810145
20
4.0001463967487894
10
-111.1093749810145
20
4.0001463967487183
42
-0.41421356237309176
0
ENDSEC
0
SECTION
2
OBJECTS
0
DICTIONARY
5
C
100
AcDbDictionary
3
ACAD_GROUP
350
D
3
ACAD_MLINESTYLE
350
17
0
DICTIONARY
5
D
100
AcDbDictionary
0
DICTIONARY
5
1A
330
C
100
AcDbDictionary
0
DICTIONARY
5
17
100
AcDbDictionary
0
ENDSEC
0
EOF
