0
SECTION
2
HEADER
9
$INSUNITS
70
4
9
$ACADVER
1
AC1014
9
$HANDSEED
5
FFFF
0
ENDSEC
0
SECTION
2
TABLES
0
TABLE
2
VPORT
5
8
100
AcDbSymbolTable
0
ENDTAB
0
TABLE
2
LTYPE
5
5
100
AcDbSymbolTable
0
LTYPE
5
14
100
AcDbSymbolTableRecord
100
AcDbLinetypeTableRecord
2
BYBLOCK
70
0
0
LTYPE
5
15
100
AcDbSymbolTableRecord
100
AcDbLinetypeTableRecord
2
BYLAYER
70
0
0
LTYPE
5
16
100
AcDbSymbolTableRecord
100
AcDbLinetypeTableRecord
2
DASHED
70
0
3
Dashed __ __ __ __ __ __ __ __ __ __ __ __ __ _
72
65
73
2
40
0.75
49
0.5
74
0
49
-0.25
74
0
0
ENDTAB
0
TABLE
2
LAYER
5
2
100
AcDbSymbolTable
70
2
0
LAYER
5
50
100
AcDbSymbolTableRecord
100
AcDbLayerTableRecord
2
0
70
0
62
7
6
CONTINUOUS
0
ENDTAB
0
TABLE
2
STYLE
5
3
100
AcDbSymbolTable
70
1
0
STYLE
5
11
100
AcDbSymbolTableRecord
100
AcDbTextStyleTableRecord
2
STANDARD
70
0
0
ENDTAB
0
TABLE
2
VIEW
5
6
100
AcDbSymbolTable
70
0
0
ENDTAB
0
TABLE
2
UCS
5
7
100
AcDbSymbolTable
70
0
0
ENDTAB
0
TABLE
2
APPID
5
9
100
AcDbSymbolTable
70
2
0
APPID
5
12
100
AcDbSymbolTableRecord
100
AcDbRegAppTableRecord
2
ACAD
70
0
0
ENDTAB
0
TABLE
2
DIMSTYLE
5
A
100
AcDbSymbolTable
70
1
0
ENDTAB
0
TABLE
2
BLOCK_RECORD
5
1
100
AcDbSymbolTable
70
1
0
BLOCK_RECORD
5
1F
100
AcDbSymbolTableRecord
100
AcDbBlockTableRecord
2
*MODEL_SPACE
0
BLOCK_RECORD
5
1B
100
AcDbSymbolTableRecord
100
AcDbBlockTableRecord
2
*PAPER_SPACE
0
ENDTAB
0
ENDSEC
0
SECTION
2
BLOCKS
0
BLOCK
5
20
100
AcDbEntity
100
AcDbBlockBegin
2
*MODEL_SPACE
0
ENDBLK
5
21
100
AcDbEntity
100
AcDbBlockEnd
0
BLOCK
5
1C
100
AcDbEntity
100
AcDbBlockBegin
2
*PAPER_SPACE
0
ENDBLK
5
1D
100
AcDbEntity
100
AcDbBlockEnd
0
ENDSEC
0
SECTION
2
ENTITIES
0
LWPOLYLINE
5
100
100
AcDbEntity
8
0
100
AcDbPolyline
90
8
70
1
43
0.0
10
71.04037500000139
20
-17.906103602960115
10
70.540375000001418
20
-17.906103602960098
42
-0.41421356237312623
10
70.040375000001461
20
-17.406103602960162
10
70.04037500000139
20
-6.4061036029601652
42
-0.41421356237307422
10
70.540375000001418
20
-5.9061036029600338
10
71.04037500000139
20
-5.9061036029601581
42
-0.41421356237311585
10
71.540375000001433
20
-6.4061036029601652
10
71.540375000001362
20
-17.406103602960162
42
-0.4142135623730846
0
LWPOLYLINE
5
101
100
AcDbEntity
8
0
100
AcDbPolyline
90
8
70
1
43
0.0
10
-147.38749999999899
20
1.143896397039752
10
-147.88749999999897
20
1.1438963970397698
42
-0.41421356237312623
10
-148.38749999999891
20
1.6438963970397058
10
-148.38749999999897
20
12.643896397039702
42
-0.41421356237307422
10
-147.88749999999897
20
13.143896397039834
10
-147.38749999999899
20
13.143896397039709
42
-0.41421356237311585
10
-146.88749999999894
20
12.643896397039702
10
-146.88749999999902
20
1.6438963970397058
42
-0.4142135623730846
0
LWPOLYLINE
5
102
100
AcDbEntity
8
0
100
AcDbPolyline
90
12
70
1
43
0.0
10
-140.06562499999919
20
-9.9061036029602771
10
-140.06562499999913
20
-15.406103602960282
42
-0.41421356237309503
10
-140.56562499999916
20
-15.90610360296029
10
-141.06562499999919
20
-15.906103602960279
42
-0.4142135623730846
10
-141.56562499999922
20
-15.406103602960272
10
-141.56562499999916
20
-9.9061036029602718
42
0.41421356237307944
10
-142.06562499999913
20
-9.4061036029602914
10
-144.56562499999913
20
-9.4061036029602754
42
-0.41421356237308593
10
-145.06562499999913
20
-8.9061036029602842
10
-145.06562499999913
20
-8.406103602960286
42
-0.41421356237310025
10
-144.56562499999913
20
-7.90610360296027
10
-142.06562499999913
20
-7.9061036029603411
42
-0.41421356237309176
0
LWPOLYLINE
5
103
100
AcDbEntity
8
0
100
AcDbPolyline
90
32
70
1
43
0.0
10
84.430750000001069
20
33.693896397040717
10
84.430750000001069
20
33.193896397042522
10
101.30675000000065
20
33.193896397042046
10
101.30675000000065
20
33.693896397040326
42
-0.41421356237309503
10
101.80675000000065
20
34.193896397040319
10
107.80675000000062
20
34.193896397040334
42
-0.41421356237309503
10
108.30675000000063
20
33.693896397040326
10
108.30675000000063
20
33.193896397041847
10
108.64375000000149
20
33.19389639704184
42
-0.41421356237309503
10
109.3937500000014
20
32.443896397041776
10
109.39374999999546
20
19.943896397034777
42
-0.41421356237344192
10
108.64375000000049
20
19.193896397040753
10
108.30675000000144
20
19.193896397040753
10
108.30675000000059
20
18.693896397040746
42
-0.41421356237303258
10
107.80675000000056
20
18.193896397040668
10
101.80675000000039
20
18.193896397040348
42
-0.41421356237303258
10
101.30675000000099
20
18.693896397039786
10
101.30675000000136
20
19.193896397039794
10
84.43075000000043
20
19.193896397040753
10
84.430750000001183
20
18.693896397039786
42
-0.41421356237309503
10
83.930750000001453
20
18.193896397040064
10
77.930750000001439
20
18.193896397040668
42
-0.41421356237303258
10
77.430750000001254
20
18.693896397040746
10
77.430750000001439
20
19.193896397040753
10
77.093750000000441
20
19.193896397040753
42
-0.41421356237270657
10
76.343750000001506
20
19.943896397040746
10
76.343750000001506
20
32.443896397042771
42
-0.41421356237308116
10
77.093750000001506
20
33.193896397042728
10
77.430750000001069
20
33.193896397042721
10
77.430750000001069
20
33.693896397040717
42
-0.41421356237309503
10
77.930750000001069
20
34.193896397040717
10
83.930750000001069
20
34.193896397040724
42
-0.41421356237309503
0
LWPOLYLINE
5
104
100
AcDbEntity
8
0
100
AcDbPolyline
90
20
70
1
43
0.0
10
77.287000000001385
20
-23.456103602959363
10
77.287000000001385
20
-23.956103602959921
10
91.975000000001359
20
-23.95610360295926
42
-0.41421356237309503
10
92.725000000001387
20
-24.706103602959288
10
92.725000000001359
20
-37.206103602960248
42
-0.41421356237309503
10
91.975000000001359
20
-37.956103602960241
10
77.287000000001385
20
-37.956103602959281
10
77.287000000001385
20
-38.456103602960248
42
-0.4142135623730534
10
76.78700000000137
20
-38.956103602960255
10
70.78700000000137
20
-38.956103602959367
42
-0.41421356237312623
10
70.287000000001314
20
-38.456103602959274
10
70.287000000001399
20
-37.956103602959281
10
69.950000000000443
20
-37.956103602959281
42
-0.41421356237270657
10
69.200000000001424
20
-37.206103602959274
10
69.200000000001438
20
-24.706103602960248
42
-0.41421356237309503
10
69.950000000001438
20
-23.956103602960255
10
70.287000000001257
20
-23.956103602960241
10
70.287000000001257
20
-23.456103602959363
42
-0.41421356237309503
10
70.787000000001242
20
-22.956103602959367
10
76.78700000000137
20
-22.956103602959356
42
-0.41421356237309503
0
LWPOLYLINE
5
105
100
AcDbEntity
8
0
100
AcDbPolyline
90
14
70
1
43
0.0
10
101.16300000000136
20
-23.456103602960383
10
101.16300000000136
20
-23.956103602960255
10
108.64375000000149
20
-23.956103602960255
42
-0.41421356237298407
10
109.39375000000148
20
-24.706103602960248
10
109.39375000000143
20
-37.206103602960248
42
-0.41421356237310897
10
108.64375000000149
20
-37.956103602960241
10
101.16300000000149
20
-37.956103602959281
10
101.16300000000126
20
-38.456103602959274
42
-0.4142135623730534
10
100.66300000000143
20
-38.956103602959175
10
94.66300000000146
20
-38.95610360296029
42
-0.41421356237306384
10
94.163000000001361
20
-38.456103602960248
10
94.16300000000146
20
-23.456103602960376
42
-0.41421356237309243
10
94.66300000000146
20
-22.956103602960383
10
100.66300000000135
20
-22.956103602960376
42
-0.41421356237309503
0
LWPOLYLINE
5
106
100
AcDbEntity
8
0
100
AcDbPolyline
90
8
70
1
43
0.0
10
99.425500000001705
20
-3.9061036029592988
10
105.4255000000017
20
-3.906103602959262
42
-0.41421356237311258
10
105.92550000000161
20
-4.4061036029591927
10
105.92550000000071
20
-19.406103602960272
42
-0.41421356237313667
10
105.42550000000045
20
-19.906103602960457
10
99.425500000000426
20
-19.90610360296003
42
-0.4142135623730534
10
98.925500000000739
20
-19.406103602960272
10
98.925500000001776
20
-4.4061036029592016
42
-0.41421356237307549
0
LWPOLYLINE
5
107
100
AcDbEntity
8
0
100
AcDbPolyline
90
8
70
1
43
0.0
10
82.049500000000549
20
-4.4061036029595497
10
82.049500000000677
20
-19.406103602959277
42
-0.41421356237315748
10
81.549500000000393
20
-19.906103602959462
10
75.549500000001473
20
-19.906103602960314
42
-0.4142135623730534
10
75.049500000001359
20
-19.406103602960272
10
75.049500000001373
20
-4.4061036029595524
42
-0.41421356237309437
10
75.549500000001487
20
-3.9061036029594396
10
81.549500000000421
20
-3.9061036029594218
42
-0.41421356237309276
0
LWPOLYLINE
5
108
100
AcDbEntity
8
0
100
AcDbPolyline
90
8
70
1
43
0.0
10
97.487500000001461
20
-5.6561036029602718
10
97.487500000001461
20
-18.156103602960272
42
-0.41421356237306733
10
96.737500000001475
20
-18.906103602960265
10
84.237500000001475
20
-18.9061036029603
42
-0.4142135623730534
10
83.487500000001489
20
-18.156103602960272
10
83.487500000001489
20
-5.6561036029602718
42
-0.41421356237309503
10
84.237500000001475
20
-4.9061036029602079
10
96.737500000001475
20
-4.9061036029602434
42
-0.4142135623730534
0
LWPOLYLINE
5
109
100
AcDbEntity
8
0
100
AcDbPolyline
90
8
70
1
43
0.0
10
66.531250000001478
20
-5.6561036029602718
10
66.53125000000145
20
-18.156103602960272
42
-0.4142135623730534
10
65.78125000000145
20
-18.9061036029603
10
53.281250000001457
20
-18.906103602960265
42
-0.41421356237308116
10
52.531250000001499
20
-18.156103602960272
10
52.531250000001464
20
-5.6561036029602718
42
-0.4142135623730534
10
53.281250000001457
20
-4.9061036029602434
10
65.78125000000145
20
-4.9061036029602434
42
-0.41421356237309503
0
LWPOLYLINE
5
110
100
AcDbEntity
8
0
100
AcDbPolyline
90
8
70
1
43
0.0
10
-85.106249999998596
20
-58.006103602959243
10
-91.106249999998553
20
-58.0061036029592
42
-0.41421356237309503
10
-91.606249999998511
20
-57.506103602959243
10
-91.606249999998511
20
-42.506103602959264
42
-0.4142135623730846
10
-91.106249999998568
20
-42.006103602959314
10
-85.106249999998596
20
-42.006103602960287
42
-0.41421356237310542
10
-84.606249999998596
20
-42.506103602960259
10
-84.606249999998582
20
-57.506103602959229
42
-0.41421356237309503
0
LWPOLYLINE
5
111
100
AcDbEntity
8
0
100
AcDbPolyline
90
8
70
1
43
0.0
10
-37.956249999998555
20
-56.256103602960259
42
0.41421356237303952
10
-37.206249999998562
20
-57.006103602960252
10
-24.706249999998562
20
-57.006103602960252
42
0.41421356237309503
10
-23.956249999998569
20
-56.256103602960259
10
-23.956249999998587
20
-43.756103602960259
42
0.4142135623730534
10
-24.706249999998562
20
-43.006103602960252
10
-37.206249999998526
20
-43.006103602960252
42
0.41421356237311585
10
-37.956249999998555
20
-43.756103602960259
0
LWPOLYLINE
5
112
100
AcDbEntity
8
0
100
AcDbPolyline
90
8
70
1
43
0.0
10
2.6287498303964085
20
-57.455955327398236
10
2.6287498303944901
20
-41.755955216237254
42
-0.41421356220325389
10
3.3787498299594532
20
-41.005955216237275
10
14.878749829959439
20
-41.005955209563382
42
-0.41421356254297093
10
15.62874983039432
20
-41.755955209563268
10
15.62874983039432
20
-57.455955327398236
42
-0.41421356237307422
10
14.878749830394433
20
-58.205955327398144
10
3.378749830394483
20
-58.205955327398264
42
-0.41421356237227647
0
LWPOLYLINE
5
113
100
AcDbEntity
8
0
100
AcDbPolyline
90
8
70
1
43
0.0
10
22.693750000001465
20
-57.50610360296011
10
22.693750000001316
20
-42.506103602960259
42
-0.41421356237310542
10
23.193750000001465
20
-42.006103602960167
10
29.193750000001444
20
-42.006103602960287
42
-0.41421356237311585
10
29.693750000001451
20
-42.506103602960259
10
29.693750000001451
20
-57.506103602960295
42
-0.41421356237310025
10
29.193750000001472
20
-58.006103602960266
10
23.193750000001579
20
-58.006103602960209
42
-0.41421356237308721
0
LWPOLYLINE
5
114
100
AcDbEntity
8
0
100
AcDbPolyline
90
8
70
1
43
0.0
10
157.30625000000049
20
-56.25610360295525
42
0.41421356237306733
10
158.05625000000046
20
-57.006103602955278
10
170.55625000000043
20
-57.006103602955335
42
0.41421356237318524
10
171.30625000000063
20
-56.25610360295525
10
171.30625000000043
20
-43.75610360295525
42
0.41421356237306733
10
170.55625000000046
20
-43.006103602955307
10
158.05625000000046
20
-43.006103602955257
42
0.41421356237310897
10
157.30625000000049
20
-43.75610360295525
0
LWPOLYLINE
5
115
100
AcDbEntity
8
0
100
AcDbPolyline
90
8
70
1
43
0.0
10
151.50625000000136
20
-57.006103602955278
10
139.00624999999951
20
-57.006103602955278
42
-0.41421356237304652
10
138.25624999999937
20
-56.25610360295525
10
138.25625000000133
20
-43.75610360295525
42
-0.41421356237308815
10
139.00625000000136
20
-43.006103602955235
10
151.50625000000136
20
-43.006103602955307
42
-0.41421356237312279
10
152.25625000000139
20
-43.75610360295525
10
152.25625000000139
20
-56.25610360295525
42
-0.41421356237309503
0
LWPOLYLINE
5
116
100
AcDbEntity
8
0
100
AcDbPolyline
90
8
70
1
43
0.0
10
132.45624999999944
20
-57.006103602955243
10
119.95624999999944
20
-57.006103602955278
42
-0.41421356237303952
10
119.20624999999941
20
-56.25610360295525
10
119.20624999999941
20
-43.75610360295525
42
-0.41421356237303952
10
119.95624999999944
20
-43.006103602955221
10
132.45624999999944
20
-43.006103602955221
42
-0.41421356237303952
10
133.20624999999947
20
-43.75610360295525
10
133.20624999999947
20
-56.25610360295525
42
-0.4142135623730257
0
LWPOLYLINE
5
117
100
AcDbEntity
8
0
100
AcDbPolyline
90
8
70
1
43
0.0
10
103.88125000000133
20
-57.006103602960266
10
91.381250000001373
20
-57.006103602960252
42
-0.41421356237303952
10
90.631250000001387
20
-56.256103602960259
10
90.631250000001387
20
-43.756103602960259
42
-0.41421356237311585
10
91.381250000001415
20
-43.006103602960252
10
103.88125000000133
20
-43.006103602960231
42
-0.41421356237309503
10
104.63125000000136
20
-43.756103602960259
10
104.63125000000136
20
-56.256103602960259
42
-0.41421356237308815
0
LWPOLYLINE
5
118
100
AcDbEntity
8
0
100
AcDbPolyline
90
8
70
1
43
0.0
10
80.068750000001359
20
-57.006103602960252
10
67.568750000001359
20
-57.006103602960252
42
-0.41421356237303952
10
66.818750000001359
20
-56.256103602960259
10
66.818750000001359
20
-43.756103602960259
42
-0.41421356237311585
10
67.568750000001387
20
-43.006103602960252
10
80.068750000001359
20
-43.006103602960231
42
-0.41421356237308815
10
80.818750000001472
20
-43.756103602960259
10
80.818750000001359
20
-56.256103602960259
42
-0.41421356237309503
0
LWPOLYLINE
5
119
100
AcDbEntity
8
0
100
AcDbPolyline
90
8
70
1
43
0.0
10
56.256250000001415
20
-57.006103602960252
10
43.756250000001415
20
-57.006103602960252
42
-0.41421356237303952
10
43.006250000001423
20
-56.256103602960259
10
43.006250000001423
20
-43.756103602960259
42
-0.41421356237311585
10
43.756250000001451
20
-43.006103602960252
10
56.256250000001415
20
-43.006103602960252
42
-0.4142135623730534
10
57.006250000001387
20
-43.756103602960259
10
57.006250000001408
20
-56.256103602960259
42
-0.41421356237309503
0
LWPOLYLINE
5
120
100
AcDbEntity
8
0
100
AcDbPolyline
90
8
70
1
43
0.0
10
-77.541249826360598
20
-57.455955263209262
10
-77.541249835473451
20
-41.755955263208278
42
-0.41421356237270657
10
-76.791249835908559
20
-41.005955262774251
10
-65.291249835908587
20
-41.005955256098225
42
-0.41421356237308815
10
-64.541249835473536
20
-41.75595525566326
10
-64.541249826360541
20
-57.455955255664236
42
-0.41421356237269963
10
-65.291249825924581
20
-58.205955256099244
10
-76.791249825924581
20
-58.205955262774282
42
-0.41421356237350437
0
LWPOLYLINE
5
121
100
AcDbEntity
8
0
100
AcDbPolyline
90
8
70
1
43
0.0
10
-136.96199999999908
20
-23.456103602955455
10
-136.96199999999897
20
-38.456103602960248
42
-0.41421356237313667
10
-137.46199999999897
20
-38.956103602960241
10
-143.46199999999908
20
-38.956103602960241
42
-0.41421356237306384
10
-143.96199999999905
20
-38.456103602960248
10
-143.96199999999789
20
-23.456103602955402
42
-0.41421356237302998
10
-143.46199999999894
20
-22.956103602956411
10
-137.46199999999919
20
-22.956103602955451
42
-0.41421356237314444
0
LWPOLYLINE
5
122
100
AcDbEntity
8
0
100
AcDbPolyline
90
8
70
1
43
0.0
10
-160.83799999999908
20
-23.456103602959246
10
-160.83799999999906
20
-38.456103602960248
42
-0.4142135623730534
10
-161.33799999999906
20
-38.956103602960248
10
-167.33799999999889
20
-38.956103602960241
42
-0.41421356237312623
10
-167.837999999999
20
-38.456103602960248
10
-167.83799999999906
20
-23.456103602960191
42
-0.41421356237305601
10
-167.33799999999917
20
-22.956103602960233
10
-161.33799999999911
20
-22.956103602959274
42
-0.41421356237313667
0
LWPOLYLINE
5
123
100
AcDbEntity
8
0
100
AcDbPolyline
90
8
70
1
43
0.0
10
-128.44374999999897
20
-37.206103602960248
10
-128.44374999999903
20
-24.706103602960248
42
-0.41421356237313667
10
-127.69374999999897
20
-23.956103602960237
10
-115.19374999999857
20
-23.956103602960255
42
-0.41421356237309503
10
-114.44374999999859
20
-24.706103602960248
10
-114.44374999999857
20
-37.206103602960248
42
-0.41421356237310197
10
-115.19374999999857
20
-37.956103602960241
10
-127.69374999999897
20
-37.956103602960226
42
-0.41421356237310197
0
LWPOLYLINE
5
124
100
AcDbEntity
8
0
100
AcDbPolyline
90
8
70
1
43
0.0
10
-159.39999999999895
20
-37.206103602960248
10
-159.39999999999898
20
-24.706103602960248
42
-0.41421356237313667
10
-158.64999999999895
20
-23.956103602960255
10
-146.14999999999898
20
-23.956103602960255
42
-0.41421356237310197
10
-145.39999999999898
20
-24.706103602960248
10
-145.39999999999895
20
-37.206103602960248
42
-0.41421356237310197
10
-146.14999999999898
20
-37.956103602960241
10
-158.64999999999898
20
-37.956103602960226
42
-0.41421356237307422
0
LWPOLYLINE
5
125
100
AcDbEntity
8
0
100
AcDbPolyline
90
98
70
1
43
0.0
10
169.35624999999956
20
59.956396397044713
10
164.82071923490051
20
59.956396397045744
42
0.18545019647811581
10
164.31863175573542
20
59.763539254188771
42
-0.18545019647810154
10
163.64918178351442
20
59.506396397045535
10
156.55624999999847
20
59.506396397047716
42
-0.99999999999999989
10
156.55624999999847
20
61.006396397047773
10
160.92487915010042
20
61.006396397045783
42
0.1989123673796592
10
161.45520923599054
20
61.226066311155662
10
163.03658008588937
20
62.807437161055724
42
0.19891236737943643
10
163.25624999999934
20
63.337767246944772
10
163.25624999999849
20
66.256396397044767
42
0.41421356237272045
10
162.5062499999984
20
67.006396397043773
10
-162.50624999999974
20
67.006396397045691
42
0.41421356237313667
10
-163.25624999999977
20
66.256396397045705
10
-163.25624999999934
20
63.337767246944772
42
0.19891236737974866
10
-163.03658008588923
20
62.807437161054906
10
-161.45520923599119
20
61.226066311156764
42
0.19891236737952461
10
-160.92487915010076
20
61.006396397047602
10
-153.55624999999907
20
61.006396397047773
42
-0.99999999999999989
10
-153.55624999999907
20
59.506396397047716
10
-163.64918178350794
20
59.506396397048142
42
-0.18545019647896493
10
-164.3186317557313
20
59.763539254192004
42
0.18545019647844216
10
-164.82071923489769
20
59.95639639704951
10
-169.35625000000019
20
59.956396397048586
42
-0.41421356237310897
10
-170.10625000000033
20
60.706396397048756
10
-170.10625000000016
20
62.756396397047745
42
0.4142135623730534
10
-170.85625000000016
20
63.506396397047631
10
-171.49558982821998
20
63.506396397047737
42
0.1989123673796733
10
-172.02591991410969
20
63.28672648293761
10
-173.58658008588949
20
61.726066311156771
42
0.19891236737948967
10
-173.80625000000052
20
61.195736225268753
10
-173.80624999999907
20
16.967056568824717
42
0.1989123673797189
10
-173.58658008588893
20
16.436726482934851
10
-170.76341991410987
20
13.61356631115556
42
-0.19891236737951512
10
-170.54374999999996
20
13.083236225265757
10
-170.54374999999996
20
1.2045565688258011
42
-0.19891236737959209
10
-170.76341991411005
20
0.6742264829358201
10
-173.58658008588949
20
-2.148933688845247
42
0.19891236737956858
10
-173.80624999999927
20
-2.6792637747352543
10
-173.80624999999907
20
-56.195443431176244
42
0.1989123673794955
10
-173.58658008589089
20
-56.725773517065683
10
-170.57591991411326
20
-59.736433688842254
42
0.19891236737974016
10
-170.04558982822286
20
-59.956103602951941
10
-164.82071923490128
20
-59.956103602954265
42
0.18545019647797098
10
-164.31863175573613
20
-59.763246460097093
42
-0.1854501964775718
10
-163.64918178351704
20
-59.506103602955463
10
-153.55624999999907
20
-59.506103602958227
42
-0.99999999999999989
10
-153.5562499999991
20
-61.006103602958319
10
-163.42487915010079
20
-61.00610360295525
42
0.19891236738000775
10
-163.95520923599133
20
-61.225773517066067
10
-165.53658008589014
20
-62.807144366967229
42
0.19891236737933646
10
-165.7562499999998
20
-63.337474452856277
10
-165.75624999999977
20
-66.25610360295525
42
0.41421356237309503
10
-165.0062499999998
20
-67.00610360295525
10
165.00625000000053
20
-67.00610360295525
42
0.41421356237297013
10
165.75625000000056
20
-66.25610360295525
10
165.75625000000056
20
-63.337474452856277
42
0.19891236737969736
10
165.53658008589164
20
-62.807144366966213
10
163.95520923599253
20
-61.22577351706628
42
0.19891236738018456
10
163.42487915010142
20
-61.00610360295525
10
156.55624999999847
20
-61.006103602954589
42
-0.99999999999999989
10
156.55624999999847
20
-59.506103602961886
10
163.64918178351243
20
-59.506103602955477
42
-0.18545019647851177
10
164.31863175573423
20
-59.763246460099509
42
0.18545019647834363
10
164.82071923490051
20
-59.956103602957057
10
170.04558982822044
20
-59.95610360295526
42
0.19891236737972129
10
170.57591991411016
20
-59.736433688844983
10
173.58658008589057
20
-56.725773517064262
42
0.19891236737926252
10
173.80625000000026
20
-56.195443431176244
10
173.80625000000049
20
-38.266763774485248
42
0.19891236737971732
10
173.58658008589057
20
-37.736433688595248
10
171.02591991410944
20
-35.175773516816271
42
0.19891236737915274
10
170.49558982822151
20
-34.956103602706087
10
165.38129295054458
20
-34.95610360270642
42
-0.19891236737972828
10
164.85096286465446
20
-34.736433688596399
10
160.29030269287534
20
-30.17577351681539
42
-0.19891236737969711
10
160.07063277876529
20
-29.645443430925269
10
160.07063277876543
20
-25.706103602706278
42
-0.41421356237310897
10
160.82063277876554
20
-24.956103602706285
10
170.49558982822151
20
-24.95610360270625
42
0.19891236737964796
10
171.02591991411123
20
-24.73643368859614
10
173.58658008589057
20
-22.175773516816264
42
0.19891236737942533
10
173.80625000000026
20
-21.645443430927251
10
173.80625000000049
20
-20.114880995721265
42
0.19891236737977006
10
173.58658008589029
20
-19.584550909831403
10
171.42780269287653
20
-17.425773516815145
42
-0.1989123673796595
10
171.20813277876638
20
-16.895443430925283
10
171.20813277876678
20
-8.0167637744852271
42
-0.19891236737931384
10
171.42780269287624
20
-7.4864336885960059
10
173.58658008589057
20
-5.3276562955822016
42
0.1989123673794429
10
173.80625000000026
20
-4.7973262096932592
10
173.80625000000049
20
61.195736225264739
42
0.19891236737961171
10
173.58658008589029
20
61.726066311154497
10
172.02591991410944
20
63.286726482934768
42
0.19891236737895465
10
171.49558982822154
20
63.506396397043609
10
170.85624999999962
20
63.506396397043758
42
0.4142135623731783
10
170.10624999999945
20
62.756396397043801
10
170.10624999999965
20
60.706396397044777
42
-0.41421356237308116
0
LWPOLYLINE
5
126
100
AcDbEntity
8
0
100
AcDbPolyline
90
12
70
1
43
0.0
10
-3.0104865558564953
20
61.756396397045705
10
-3.0104865558564953
20
64.689659841188742
42
-0.4142135623730534
10
-2.260486555856609
20
65.439659841188728
10
2.2395134441434195
20
65.439659841188814
42
-0.41421356237303952
10
2.9895134441434834
20
64.689659841188742
10
2.9895134441434834
20
61.756396397045705
42
0.4142135623730534
10
3.7395134441434763
20
61.006396397045677
10
28.903125000001459
20
61.006396397045783
42
-0.99999999999999989
10
28.903125000001459
20
59.506396397045727
10
-28.903125000000571
20
59.506396397045727
42
-0.99999999999999989
10
-28.903125000000571
20
61.006396397045783
10
-3.7604865558565237
20
61.006396397045783
42
0.41421356237308116
0
LWPOLYLINE
5
127
100
AcDbEntity
8
0
100
AcDbPolyline
90
8
70
1
43
0.0
10
157.30625000000046
20
19.943896397043801
42
0.41421356237306733
10
158.05625000000046
20
19.193896397043737
10
170.55625000000046
20
19.193896397045549
42
0.41421356237229034
10
171.30625000000063
20
19.943896397043801
10
171.30625000000049
20
32.443896397040746
42
0.41421356237310897
10
170.55625000000046
20
33.19389639704081
10
158.05625000000046
20
33.19389639704081
42
0.41421356237308116
10
157.30625000000049
20
32.443896397040746
0
LWPOLYLINE
5
128
100
AcDbEntity
8
0
100
AcDbPolyline
90
8
70
1
43
0.0
10
157.30625000000043
20
0.89389639704474888
10
157.30625000000049
20
13.393896397044749
42
-0.41421356237312279
10
158.05625000000046
20
14.143896397044777
10
170.55625000000046
20
14.143896397044706
42
-0.41421356237297013
10
171.30625000000043
20
13.393896397044749
10
171.30625000000063
20
0.89389639704474899
42
-0.41421356237315055
10
170.55625000000046
20
0.14389639704472046
10
158.05625000000046
20
0.14389639704472046
42
-0.41421356237298407
0
LWPOLYLINE
5
129
100
AcDbEntity
8
0
100
AcDbPolyline
90
8
70
1
43
0.0
10
166.03610051387744
20
-19.20441809404835
42
0.4142135623730594
10
167.78610051387747
20
-17.454418094048236
10
167.78610051387741
20
-6.6929588004152407
42
0.41421356237311291
10
166.03610051387744
20
-4.9429588004151626
10
138.45506629851141
20
-4.9429588004152336
42
0.41421356237311291
10
136.70506629851135
20
-6.6929588004152407
10
136.70506629851167
20
-17.454418094048236
42
0.41421356237304152
10
138.45506629851133
20
-19.204418094047995
0
LWPOLYLINE
5
130
100
AcDbEntity
8
0
100
AcDbPolyline
90
8
70
1
43
0.0
10
-168.92249999999893
20
-18.156103602960272
10
-168.92249999999905
20
-5.6561036029602718
42
-0.41421356237313667
10
-168.17249999999893
20
-4.9061036029602612
10
-150.912499999999
20
-4.9061036029602434
42
-0.41421356237310897
10
-150.16249999999894
20
-5.6561036029602718
10
-150.16249999999997
20
-18.156103602960272
42
-0.41421356237306034
10
-150.91249999999897
20
-18.906103602959288
10
-168.17249999999899
20
-18.906103602960265
42
-0.41421356237308116
0
LWPOLYLINE
5
131
100
AcDbEntity
8
0
100
AcDbPolyline
90
8
70
1
43
0.0
10
-165.79374999999897
20
14.143896397039839
10
-153.29374999999897
20
14.143896397039804
42
-0.41421356237312279
10
-152.54374999999899
20
13.393896397039775
10
-152.54374999999894
20
0.89389639703977519
42
-0.41421356237310897
10
-153.29374999999897
20
0.14389639703971113
10
-165.79374999999897
20
0.14389639703978219
42
-0.41421356237309503
10
-166.54374999999897
20
0.89389639703977508
10
-166.54374999999899
20
13.393896397039775
42
-0.41421356237310897
0
LWPOLYLINE
5
132
100
AcDbEntity
8
0
100
AcDbPolyline
90
8
70
1
43
0.0
10
-171.30624999999895
20
19.943896397039786
42
0.41421356237309503
10
-170.55624999999895
20
19.193896397039794
10
-158.05624999999895
20
19.193896397039794
42
0.41421356237309503
10
-157.30624999999893
20
19.943896397039786
10
-157.30624999999898
20
32.443896397039786
42
0.41421356237312978
10
-158.05624999999895
20
33.193896397039815
10
-170.55624999999895
20
33.193896397039843
42
0.41421356237310897
10
-171.30624999999898
20
32.443896397039786
0
LWPOLYLINE
5
133
100
AcDbEntity
8
0
100
AcDbPolyline
90
8
70
1
43
0.0
10
-158.05624999999907
20
36.600146397041726
42
0.41421356237309503
10
-157.30624999999907
20
37.350146397041719
10
-157.3062499999991
20
38.850146397041776
42
0.41421356237314361
10
-158.0562499999991
20
39.600146397041804
10
-170.55624999999907
20
39.600146397041847
42
0.41421356237308116
10
-171.30624999999912
20
38.850146397041776
10
-171.3062499999991
20
37.350146397041719
42
0.41421356237306733
10
-170.5562499999991
20
36.600146397041726
0
LWPOLYLINE
5
134
100
AcDbEntity
8
0
100
AcDbPolyline
90
8
70
1
43
0.0
10
-171.3062499999991
20
43.756396397045698
42
0.41421356237308116
10
-170.55624999999907
20
43.006396397045705
10
-158.05624999999907
20
43.006396397045705
42
0.41421356237309503
10
-157.30624999999907
20
43.756396397045698
10
-157.30624999999915
20
56.256396397045734
42
0.41421356237311585
10
-158.0562499999991
20
57.00639639704562
10
-170.55624999999907
20
57.006396397045727
42
0.4142135623730534
10
-171.30624999999907
20
56.256396397045698
0
LWPOLYLINE
5
135
100
AcDbEntity
8
0
100
AcDbPolyline
90
12
70
1
43
0.0
10
-28.9031250000005
20
-59.506103602955264
10
28.90312499999947
20
-59.506103602955243
42
-0.99999999999999989
10
28.90312499999947
20
-61.006103602955264
10
3.7500000000004263
20
-61.00610360295525
42
0.4142135623730534
10
3.0000000000004512
20
-61.756103602955257
10
3.0000000000004334
20
-64.699853602951237
42
-0.41421356237310197
10
2.250000000000405
20
-65.449853602951279
10
-2.2500000000015419
20
-65.449853602951265
42
-0.41421356237315748
10
-3.0000000000015525
20
-64.699853602951237
10
-3.0000000000015703
20
-61.756103602955257
42
0.41421356237310197
10
-3.7500000000015987
20
-61.006103602955207
10
-28.903125000000571
20
-61.00610360295525
42
-0.99999999999999989
0
LWPOLYLINE
5
136
100
AcDbEntity
8
0
100
AcDbPolyline
90
8
70
1
43
0.0
10
-108.64374999999856
20
-23.956103602960237
42
0.41421356237315748
10
-109.39374999999859
20
-24.706103602960248
10
-109.39374999999858
20
-37.206103602960248
42
0.41421356237310197
10
-108.64374999999856
20
-37.956103602960241
10
-96.143749999998562
20
-37.956103602960241
42
0.41421356237308116
10
-95.393749999998576
20
-37.206103602960248
10
-95.393749999998576
20
-24.706103602960248
42
0.41421356237309503
10
-96.143749999998562
20
-23.956103602960255
0
LWPOLYLINE
5
137
100
AcDbEntity
8
0
100
AcDbPolyline
90
8
70
1
43
0.0
10
-57.293749999998553
20
-24.706103602960248
42
0.4142135623730534
10
-58.043749999998582
20
-23.956103602960255
10
-70.543749999998568
20
-23.956103602960237
42
0.41421356237315748
10
-71.293749999998568
20
-24.706103602960248
10
-71.293749999998539
20
-37.206103602960248
42
0.41421356237310897
10
-70.543749999998539
20
-37.956103602960241
10
-58.043749999998582
20
-37.956103602960241
42
0.41421356237309503
10
-57.293749999998589
20
-37.206103602960248
0
LWPOLYLINE
5
138
100
AcDbEntity
8
0
100
AcDbPolyline
90
8
70
1
43
0.0
10
-32.443749999998559
20
-23.956103602960219
10
-19.943749999998523
20
-23.956103602960255
42
-0.41421356237299795
10
-19.193749999998566
20
-24.706103602960248
10
-19.193749999998602
20
-37.206103602960248
42
-0.41421356237309503
10
-19.943749999998523
20
-37.956103602960241
10
-32.443749999998559
20
-37.956103602960297
42
-0.41421356237308116
10
-33.193749999998573
20
-37.206103602960248
10
-33.193749999998587
20
-24.706103602960248
42
-0.41421356237309503
0
LWPOLYLINE
5
139
100
AcDbEntity
8
0
100
AcDbPolyline
90
8
70
1
43
0.0
10
18.906250000001492
20
-24.706103602960248
10
18.906250000001421
20
-37.206103602960248
42
-0.41421356237310897
10
18.156250000001464
20
-37.956103602960241
10
5.6562500000014637
20
-37.956103602960241
42
-0.41421356237303952
10
4.9062500000014708
20
-37.206103602960248
10
4.9062500000014353
20
-24.706103602960248
42
-0.41421356237309503
10
5.6562500000014637
20
-23.956103602960219
10
18.156250000001464
20
-23.956103602960255
42
-0.4142135623730534
0
LWPOLYLINE
5
140
100
AcDbEntity
8
0
100
AcDbPolyline
90
8
70
1
43
0.0
10
43.756250000001415
20
-23.95610360296029
10
56.256250000001415
20
-23.956103602960255
42
-0.4142135623730534
10
57.006250000001444
20
-24.706103602960248
10
57.006250000001408
20
-37.206103602960248
42
-0.41421356237309503
10
56.256250000001415
20
-37.956103602960241
10
43.756250000001415
20
-37.956103602960241
42
-0.41421356237303952
10
43.006250000001423
20
-37.206103602960248
10
43.006250000001423
20
-24.706103602960248
42
-0.41421356237308116
0
LWPOLYLINE
5
141
100
AcDbEntity
8
0
100
AcDbPolyline
90
8
70
1
43
0.0
10
-104.91874999999854
20
-43.756103602960259
10
-104.91874999999857
20
-56.256103602960259
42
-0.41421356237310197
10
-105.66874999999857
20
-57.006103602960252
10
-118.16874999999857
20
-57.006103602960252
42
-0.41421356237308116
10
-118.91874999999857
20
-56.256103602960259
10
-118.9187499999986
20
-43.756103602960259
42
-0.41421356237312978
10
-118.16874999999857
20
-43.006103602960252
10
-105.66874999999857
20
-43.006103602960231
42
-0.41421356237308116
0
LWPOLYLINE
5
142
100
AcDbEntity
8
0
100
AcDbPolyline
90
8
70
1
43
0.0
10
-72.331249999998562
20
0.14389639703978219
42
0.41421356237309503
10
-71.581249999998562
20
0.89389639703977508
10
-71.581249999998548
20
13.393896397039775
42
0.41421356237311585
10
-72.331249999998562
20
14.143896397039804
10
-84.831249999998562
20
14.143896397039821
42
0.41421356237308815
10
-85.581249999998505
20
13.393896397039775
10
-85.581249999998548
20
0.89389639703977508
42
0.41421356237309503
10
-84.831249999998562
20
0.14389639703978219
0
LWPOLYLINE
5
143
100
AcDbEntity
8
0
100
AcDbPolyline
90
8
70
1
43
0.0
10
4.6187500000014126
20
13.393896397039775
10
4.6187500000014126
20
0.89389639703977508
42
-0.41421356237309503
10
3.8687500000014197
20
0.14389639703978219
10
-8.6312499999985803
20
0.14389639703978219
42
-0.4142135623730534
10
-9.3812499999986088
20
0.89389639703977508
10
-9.3812499999986088
20
13.393896397039775
42
-0.41421356237312279
10
-8.6312499999985803
20
14.143896397039804
10
3.8687500000014197
20
14.143896397039804
42
-0.41421356237316442
0
LWPOLYLINE
5
144
100
AcDbEntity
8
0
100
AcDbPolyline
90
8
70
1
43
0.0
10
80.818750000001458
20
13.393896397039775
10
80.818750000001359
20
0.89389639703977519
42
-0.41421356237308116
10
80.068750000001359
20
0.14389639703981771
10
67.568750000001359
20
0.14389639703978219
42
-0.4142135623730534
10
66.81875000000133
20
0.89389639703977508
10
66.818750000001359
20
13.393896397039775
42
-0.4142135623730534
10
67.568750000001359
20
14.143896397039804
10
80.068750000001359
20
14.143896397039804
42
-0.41421356237306733
0
LWPOLYLINE
5
145
100
AcDbEntity
8
0
100
AcDbPolyline
90
8
70
1
43
0.0
10
19.193750000001444
20
19.943896397039786
42
0.41421356237309503
10
19.943750000001437
20
19.193896397039794
10
32.443750000001437
20
19.193896397039794
42
0.41421356237316442
10
33.193750000001465
20
19.943896397039786
10
33.193750000001465
20
32.443896397039786
42
0.41421356237312279
10
32.443750000001437
20
33.193896397039815
10
19.943750000001437
20
33.193896397040739
42
0.41421356237309503
10
19.193750000000414
20
32.443896397039786
0
LWPOLYLINE
5
146
100
AcDbEntity
8
0
100
AcDbPolyline
90
8
70
1
43
0.0
10
-57.006249999998602
20
19.943896397039786
42
0.4142135623730534
10
-56.256249999998573
20
19.193896397039794
10
-43.756249999998538
20
19.193896397039794
42
0.41421356237309503
10
-43.006249999998545
20
19.943896397039786
10
-43.006249999998545
20
32.443896397039786
42
0.41421356237316442
10
-43.756249999998538
20
33.193896397039815
10
-56.256249999998573
20
33.193896397040739
42
0.41421356237306733
10
-57.006249999999525
20
32.443896397039786
0
LWPOLYLINE
5
147
100
AcDbEntity
8
0
100
AcDbPolyline
90
8
70
1
43
0.0
10
-132.45624999999893
20
33.193896397040739
42
0.41421356237306034
10
-133.20624999999995
20
32.443896397039786
10
-133.20624999999893
20
19.943896397039786
42
0.41421356237309503
10
-132.45624999999893
20
19.193896397039794
10
-119.95624999999893
20
19.193896397039811
42
0.41421356237311585
10
-119.20624999999899
20
19.943896397039786
10
-119.206249999999
20
32.443896397039751
42
0.41421356237310197
10
-119.95624999999893
20
33.193896397039815
0
LWPOLYLINE
5
148
100
AcDbEntity
8
0
100
AcDbPolyline
90
8
70
1
43
0.0
10
-139.00624999999894
20
19.193896397039794
10
-151.50624999999894
20
19.193896397039794
42
-0.41421356237310897
10
-152.25624999999897
20
19.943896397039786
10
-152.25624999999994
20
32.443896397039786
42
-0.41421356237312978
10
-151.50624999999897
20
33.193896397040746
10
-139.00624999999894
20
33.193896397039815
42
-0.41421356237310897
10
-138.25624999999894
20
32.443896397039786
10
-138.25624999999897
20
19.943896397039786
42
-0.41421356237308815
0
LWPOLYLINE
5
149
100
AcDbEntity
8
0
100
AcDbPolyline
90
8
70
1
43
0.0
10
-75.306249999998556
20
33.193896397040739
10
-62.806249999998549
20
33.193896397039815
42
-0.41421356237312279
10
-62.056249999998521
20
32.443896397039786
10
-62.056249999998592
20
19.943896397039786
42
-0.41421356237310197
10
-62.806249999998528
20
19.193896397039794
10
-75.306249999998556
20
19.193896397039794
42
-0.41421356237308815
10
-76.056249999998528
20
19.943896397039786
10
-76.056249999999551
20
32.443896397039786
42
-0.41421356237308815
0
LWPOLYLINE
5
150
100
AcDbEntity
8
0
100
AcDbPolyline
90
8
70
1
43
0.0
10
13.393750000001461
20
19.193896397039829
10
0.89375000000146088
20
19.193896397039794
42
-0.4142135623730534
10
0.14375000000143245
20
19.943896397039786
10
0.14375000000040217
20
32.443896397039786
42
-0.41421356237303952
10
0.89375000000146088
20
33.193896397040774
10
13.393750000001461
20
33.193896397039815
42
-0.4142135623730534
10
14.143750000001454
20
32.443896397039786
10
14.143750000001454
20
19.943896397039786
42
-0.41421356237308116
0
LWPOLYLINE
5
151
100
AcDbEntity
8
0
100
AcDbPolyline
90
8
70
1
43
0.0
10
91.381250000001373
20
14.143896397039804
10
103.88125000000133
20
14.143896397039804
42
-0.41421356237309503
10
104.63125000000136
20
13.393896397039775
10
104.63125000000136
20
0.89389639703977519
42
-0.41421356237310897
10
103.88125000000142
20
0.14389639703978219
10
91.381250000001373
20
0.14389639703978219
42
-0.4142135623730534
10
90.631250000001344
20
0.89389639703977508
10
90.631250000001387
20
13.393896397039775
42
-0.4142135623730534
0
LWPOLYLINE
5
152
100
AcDbEntity
8
0
100
AcDbPolyline
90
8
70
1
43
0.0
10
10.418750000001431
20
14.143896397039804
42
0.4142135623730534
10
9.6687500000014381
20
13.393896397039775
10
9.6687500000014381
20
0.89389639703977508
42
0.41421356237309503
10
10.418750000001431
20
0.14389639703978219
10
22.918750000001431
20
0.14389639703978219
42
0.41421356237316442
10
23.668750000001459
20
0.89389639703977508
10
23.668750000001459
20
13.393896397039775
42
0.41421356237312279
10
22.918750000001431
20
14.143896397039804
0
LWPOLYLINE
5
153
100
AcDbEntity
8
0
100
AcDbPolyline
90
8
70
1
43
0.0
10
-65.781249999998579
20
14.143896397039804
42
0.4142135623730534
10
-66.531249999998579
20
13.393896397039775
10
-66.531249999998579
20
0.89389639703977508
42
0.41421356237309503
10
-65.781249999998579
20
0.14389639703978219
10
-53.281249999998579
20
0.14389639703981771
42
0.41421356237308116
10
-52.531249999998586
20
0.89389639703977508
10
-52.531249999998586
20
13.393896397039775
42
0.4142135623730534
10
-53.281249999998579
20
14.143896397039804
0
LWPOLYLINE
5
154
100
AcDbEntity
8
0
100
AcDbPolyline
90
8
70
1
43
0.0
10
-142.73124999999897
20
0.89389639703977508
42
0.41421356237309503
10
-141.98124999999897
20
0.14389639703978219
10
-129.48124999999897
20
0.14389639703978219
42
0.41421356237309503
10
-128.73124999999899
20
0.89389639703977508
10
-128.73124999999899
20
13.393896397039775
42
0.41421356237312279
10
-129.48124999999894
20
14.143896397039804
10
-141.98124999999897
20
14.143896397039821
42
0.41421356237312279
10
-142.73124999999897
20
13.393896397039775
0
LWPOLYLINE
5
155
100
AcDbEntity
8
0
100
AcDbPolyline
90
8
70
1
43
0.0
10
-129.48124999999894
20
-57.006103602960252
10
-141.98124999999897
20
-57.006103602960252
42
-0.41421356237308815
10
-142.73124999999899
20
-56.256103602960259
10
-142.73124999999902
20
-43.756103602960259
42
-0.41421356237311585
10
-141.98124999999897
20
-43.006103602960252
10
-129.48124999999894
20
-43.006103602960252
42
-0.41421356237307422
10
-128.73124999999897
20
-43.756103602960259
10
-128.73124999999897
20
-56.256103602960259
42
-0.41421356237307422
0
LWPOLYLINE
5
156
100
AcDbEntity
8
0
100
AcDbPolyline
90
8
70
1
43
0.0
10
33.481250000001488
20
-18.156103602960272
42
0.41421356237308116
10
34.231250000001445
20
-18.906103602960265
10
46.731250000001445
20
-18.9061036029603
42
0.4142135623730534
10
47.481250000001438
20
-18.156103602960272
10
47.481250000001474
20
-5.6561036029602718
42
0.41421356237309503
10
46.731250000001445
20
-4.9061036029602434
10
34.231250000001445
20
-4.9061036029602434
42
0.4142135623730534
10
33.481250000001452
20
-5.6561036029602718
0
LWPOLYLINE
5
157
100
AcDbEntity
8
0
100
AcDbPolyline
90
8
70
1
43
0.0
10
-4.6187499999985349
20
-18.156103602960272
10
-4.6187499999985349
20
-5.6561036029602718
42
-0.41421356237309503
10
-3.868749999998542
20
-4.9061036029602079
10
8.631250000001458
20
-4.9061036029602079
42
-0.41421356237312279
10
9.381250000001522
20
-5.6561036029602718
10
9.3812500000014509
20
-18.156103602960272
42
-0.41421356237306733
10
8.631250000001458
20
-18.906103602960265
10
-3.868749999998542
20
-18.906103602960265
42
-0.41421356237306733
0
LWPOLYLINE
5
158
100
AcDbEntity
8
0
100
AcDbPolyline
90
8
70
1
43
0.0
10
-42.718749999998558
20
-18.156103602960272
10
-42.718749999998558
20
-5.6561036029602718
42
-0.41421356237309503
10
-41.968749999998565
20
-4.9061036029602079
10
-29.468749999998565
20
-4.9061036029602434
42
-0.41421356237309503
10
-28.718749999998536
20
-5.6561036029602718
10
-28.718749999998536
20
-18.156103602960272
42
-0.4142135623730534
10
-29.468749999998565
20
-18.906103602960265
10
-41.968749999998565
20
-18.906103602960265
42
-0.41421356237306733
0
LWPOLYLINE
5
159
100
AcDbEntity
8
0
100
AcDbPolyline
90
8
70
1
43
0.0
10
-66.818749999998516
20
-5.6561036029603073
42
0.41421356237311585
10
-67.568749999998573
20
-4.9061036029602434
10
-80.068749999998573
20
-4.9061036029602256
42
0.41421356237311585
10
-80.818749999998573
20
-5.6561036029602718
10
-80.818749999998545
20
-18.156103602960236
42
0.41421356237310897
10
-80.068749999998545
20
-18.906103602960265
10
-67.568749999998573
20
-18.906103602960265
42
0.41421356237303952
10
-66.818749999998602
20
-18.156103602960272
0
LWPOLYLINE
5
160
100
AcDbEntity
8
0
100
AcDbPolyline
90
8
70
1
43
0.0
10
-118.91874999999857
20
-18.156103602960272
10
-118.9187499999986
20
-5.6561036029602718
42
-0.41421356237311585
10
-118.16874999999857
20
-4.9061036029602256
10
-105.66874999999857
20
-4.9061036029602434
42
-0.41421356237312279
10
-104.91874999999854
20
-5.6561036029602718
10
-104.91874999999857
20
-18.156103602960272
42
-0.4142135623730534
10
-105.66874999999857
20
-18.906103602960247
10
-118.16874999999857
20
-18.906103602960265
42
-0.41421356237309503
0
LWPOLYLINE
5
161
100
AcDbEntity
8
0
100
AcDbPolyline
90
8
70
1
43
0.0
10
-123.96874999999896
20
-5.6561036029603073
42
0.41421356237310197
10
-124.71874999999898
20
-4.9061036029602434
10
-137.21874999999895
20
-4.9061036029602256
42
0.41421356237311585
10
-137.96874999999898
20
-5.6561036029602718
10
-137.96874999999892
20
-18.156103602960307
42
0.41421356237310897
10
-137.21874999999895
20
-18.906103602960265
10
-124.71874999999898
20
-18.906103602960265
42
0.41421356237303952
10
-123.96874999999898
20
-18.156103602960272
0
LWPOLYLINE
5
162
100
AcDbEntity
8
0
100
AcDbPolyline
90
8
70
1
43
0.0
10
-86.618749999998556
20
-18.906103602960265
10
-99.118749999998556
20
-18.906103602960265
42
-0.41421356237311585
10
-99.86874999999857
20
-18.156103602960236
10
-99.868749999998585
20
-5.6561036029602718
42
-0.41421356237311585
10
-99.118749999998556
20
-4.9061036029602256
10
-86.618749999998556
20
-4.9061036029602434
42
-0.41421356237309503
10
-85.86874999999857
20
-5.6561036029603073
10
-85.868749999998585
20
-18.156103602960272
42
-0.41421356237303258
0
LWPOLYLINE
5
163
100
AcDbEntity
8
0
100
AcDbPolyline
90
8
70
1
43
0.0
10
-61.018749999998541
20
-4.9061036029602079
10
-48.518749999998576
20
-4.9061036029602434
42
-0.41421356237309503
10
-47.768749999998548
20
-5.6561036029602718
10
-47.768749999998548
20
-18.156103602960272
42
-0.4142135623730534
10
-48.518749999998576
20
-18.906103602960265
10
-61.018749999998541
20
-18.906103602960265
42
-0.41421356237310897
10
-61.768749999998533
20
-18.156103602960236
10
-61.768749999998604
20
-5.6561036029602718
42
-0.41421356237312279
0
LWPOLYLINE
5
164
100
AcDbEntity
8
0
100
AcDbPolyline
90
8
70
1
43
0.0
10
-23.668749999998582
20
-18.156103602960272
42
0.41421356237310897
10
-22.918749999998518
20
-18.9061036029603
10
-10.418749999998518
20
-18.9061036029603
42
0.4142135623730534
10
-9.6687499999985249
20
-18.156103602960272
10
-9.6687499999984894
20
-5.6561036029602718
42
0.41421356237310897
10
-10.418749999998518
20
-4.9061036029602079
10
-22.918749999998518
20
-4.9061036029602434
42
0.41421356237306733
10
-23.668749999998546
20
-5.6561036029602718
0
LWPOLYLINE
5
165
100
AcDbEntity
8
0
100
AcDbPolyline
90
8
70
1
43
0.0
10
27.681250000001398
20
-18.906103602960265
10
15.181250000001398
20
-18.9061036029603
42
-0.4142135623730534
10
14.431250000001405
20
-18.156103602960272
10
14.431250000001405
20
-5.6561036029602718
42
-0.41421356237309503
10
15.181250000001398
20
-4.9061036029602079
10
27.681250000001398
20
-4.9061036029602434
42
-0.4142135623730534
10
28.431250000001391
20
-5.6561036029602718
10
28.431250000001391
20
-18.156103602960272
42
-0.41421356237306733
0
LWPOLYLINE
5
166
100
AcDbEntity
8
0
100
AcDbPolyline
90
8
70
1
43
0.0
10
-91.381249999998573
20
0.14389639703978219
10
-103.88124999999857
20
0.14389639703978219
42
-0.41421356237308815
10
-104.63124999999854
20
0.89389639703977508
10
-104.63124999999854
20
13.393896397039775
42
-0.41421356237312279
10
-103.88124999999857
20
14.143896397039821
10
-91.381249999998573
20
14.143896397039804
42
-0.41421356237312279
10
-90.631249999998602
20
13.393896397039775
10
-90.631249999998573
20
0.89389639703977508
42
-0.41421356237309503
0
LWPOLYLINE
5
167
100
AcDbEntity
8
0
100
AcDbPolyline
90
8
70
1
43
0.0
10
-27.681249999998556
20
14.143896397039804
42
0.4142135623730534
10
-28.431249999998549
20
13.393896397039775
10
-28.431249999998585
20
0.89389639703977508
42
0.4142135623730534
10
-27.681249999998556
20
0.14389639703978219
10
-15.181249999998556
20
0.14389639703981771
42
0.41421356237308116
10
-14.431249999998563
20
0.89389639703977508
10
-14.431249999998563
20
13.393896397039775
42
0.4142135623730534
10
-15.181249999998556
20
14.143896397039804
0
LWPOLYLINE
5
168
100
AcDbEntity
8
0
100
AcDbPolyline
90
8
70
1
43
0.0
10
48.518750000001454
20
14.143896397039804
10
61.018750000001454
20
14.143896397039804
42
-0.41421356237312279
10
61.768750000001482
20
13.393896397039775
10
61.768750000001482
20
0.89389639703977519
42
-0.41421356237316442
10
61.018750000001454
20
0.14389639703978219
10
48.518750000001454
20
0.14389639703978219
42
-0.41421356237309503
10
47.768750000001461
20
0.89389639703977508
10
47.768750000001461
20
13.393896397039775
42
-0.4142135623730534
0
LWPOLYLINE
5
169
100
AcDbEntity
8
0
100
AcDbPolyline
90
8
70
1
43
0.0
10
51.493750000001448
20
19.193896397039794
10
38.993750000001448
20
19.193896397039794
42
-0.4142135623730534
10
38.24375000000142
20
19.943896397039786
10
38.24375000000046
20
32.443896397039786
42
-0.41421356237313667
10
38.993750000001448
20
33.193896397040739
10
51.493750000001448
20
33.193896397039815
42
-0.41421356237316442
10
52.243750000001441
20
32.443896397039786
10
52.243750000001441
20
19.943896397039786
42
-0.41421356237309503
0
LWPOLYLINE
5
170
100
AcDbEntity
8
0
100
AcDbPolyline
90
8
70
1
43
0.0
10
-24.706249999998562
20
19.193896397039829
42
0.41421356237308116
10
-23.956249999998569
20
19.943896397039786
10
-23.956249999998569
20
32.443896397039786
42
0.4142135623730534
10
-24.706249999998562
20
33.193896397039815
10
-37.206249999998562
20
33.193896397040739
42
0.41421356237313667
10
-37.95624999999955
20
32.443896397039786
10
-37.95624999999859
20
19.943896397039786
42
0.4142135623730534
10
-37.206249999998562
20
19.193896397039794
0
LWPOLYLINE
5
171
100
AcDbEntity
8
0
100
AcDbPolyline
90
8
70
1
43
0.0
10
-100.90624999999858
20
19.193896397039758
10
-113.40624999999858
20
19.193896397039794
42
-0.41421356237309503
10
-114.15624999999856
20
19.943896397039786
10
-114.15624999999955
20
32.443896397039786
42
-0.41421356237312978
10
-113.40624999999858
20
33.193896397040739
10
-100.90624999999858
20
33.193896397039815
42
-0.41421356237313667
10
-100.15624999999858
20
32.443896397039786
10
-100.15624999999855
20
19.943896397039786
42
-0.41421356237309503
0
LWPOLYLINE
5
172
100
AcDbEntity
8
0
100
AcDbPolyline
90
8
70
1
43
0.0
10
-81.856249999998511
20
19.193896397039794
42
0.41421356237310197
10
-81.106249999998568
20
19.943896397039786
10
-81.106249999998568
20
32.443896397039786
42
0.4142135623730534
10
-81.856249999998482
20
33.193896397039815
10
-94.356249999998568
20
33.19389639704076
42
0.41421356237306034
10
-95.106249999999505
20
32.443896397039786
10
-95.106249999998553
20
19.943896397039786
42
0.41421356237309503
10
-94.356249999998568
20
19.193896397039794
0
LWPOLYLINE
5
173
100
AcDbEntity
8
0
100
AcDbPolyline
90
8
70
1
43
0.0
10
-18.906249999998579
20
19.943896397039786
10
-18.906249999999574
20
32.443896397039786
42
-0.41421356237313667
10
-18.156249999998586
20
33.193896397040739
10
-5.656249999998586
20
33.193896397039815
42
-0.41421356237312279
10
-4.9062499999985576
20
32.443896397039786
10
-4.9062499999985576
20
19.943896397039786
42
-0.41421356237316442
10
-5.656249999998586
20
19.193896397039794
10
-18.156249999998586
20
19.193896397039794
42
-0.41421356237309503
0
LWPOLYLINE
5
174
100
AcDbEntity
8
0
100
AcDbPolyline
90
8
70
1
43
0.0
10
70.543750000001467
20
19.193896397039794
10
58.043750000001459
20
19.193896397039794
42
-0.4142135623730534
10
57.293750000001431
20
19.943896397039786
10
57.293750000000472
20
32.443896397039786
42
-0.41421356237313667
10
58.043750000001459
20
33.193896397040739
10
70.543750000001467
20
33.193896397039815
42
-0.41421356237312279
10
71.293750000001495
20
32.443896397039786
10
71.293750000001452
20
19.943896397039786
42
-0.41421356237309503
0
LWPOLYLINE
5
175
100
AcDbEntity
8
0
100
AcDbPolyline
90
8
70
1
43
0.0
10
28.71875000000145
20
0.89389639703977508
10
28.71875000000145
20
13.393896397039775
42
-0.4142135623730534
10
29.468750000001442
20
14.143896397039804
10
41.968750000001442
20
14.143896397039804
42
-0.41421356237312279
10
42.718750000001471
20
13.393896397039775
10
42.718750000001471
20
0.89389639703977519
42
-0.41421356237316442
10
41.968750000001442
20
0.14389639703978219
10
29.468750000001442
20
0.14389639703978219
42
-0.41421356237309503
0
LWPOLYLINE
5
176
100
AcDbEntity
8
0
100
AcDbPolyline
90
8
70
1
43
0.0
10
-34.231249999998532
20
0.14389639703978219
10
-46.731249999998532
20
0.14389639703978219
42
-0.41421356237309503
10
-47.481249999998525
20
0.89389639703977508
10
-47.481249999998525
20
13.393896397039775
42
-0.4142135623730534
10
-46.731249999998532
20
14.143896397039804
10
-34.231249999998532
20
14.143896397039804
42
-0.41421356237316442
10
-33.481249999998539
20
13.393896397039775
10
-33.481249999998539
20
0.89389639703977508
42
-0.41421356237309503
0
LWPOLYLINE
5
177
100
AcDbEntity
8
0
100
AcDbPolyline
90
8
70
1
43
0.0
10
-109.68124999999858
20
13.393896397039775
10
-109.68124999999858
20
0.89389639703977508
42
-0.41421356237309503
10
-110.43124999999858
20
0.14389639703978219
10
-122.93124999999897
20
0.14389639703978219
42
-0.41421356237309503
10
-123.68124999999895
20
0.89389639703977508
10
-123.68124999999895
20
13.393896397039775
42
-0.4142135623730534
10
-122.93124999999897
20
14.143896397039804
10
-110.43124999999858
20
14.143896397039804
42
-0.41421356237313667
0
LWPOLYLINE
5
178
100
AcDbEntity
8
0
100
AcDbPolyline
90
8
70
1
43
0.0
10
37.956250000001504
20
-24.706103602960248
10
37.956250000001468
20
-37.206103602960248
42
-0.41421356237309503
10
37.206250000001475
20
-37.956103602960241
10
24.706250000001475
20
-37.956103602960241
42
-0.41421356237303952
10
23.956250000001482
20
-37.206103602960248
10
23.956250000001411
20
-24.706103602960248
42
-0.41421356237310897
10
24.706250000001475
20
-23.956103602960219
10
37.206250000001475
20
-23.956103602960255
42
-0.4142135623730534
0
LWPOLYLINE
5
179
100
AcDbEntity
8
0
100
AcDbPolyline
90
8
70
1
43
0.0
10
-13.393749999998548
20
-23.95610360296029
10
-0.89374999999854765
20
-23.956103602960255
42
-0.4142135623730534
10
-0.14374999999851923
20
-24.706103602960248
10
-0.14374999999855476
20
-37.206103602960248
42
-0.41421356237309503
10
-0.89374999999854765
20
-37.956103602960241
10
-13.393749999998548
20
-37.956103602960241
42
-0.41421356237303952
10
-14.143749999998541
20
-37.206103602960248
10
-14.143749999998541
20
-24.706103602960248
42
-0.41421356237308116
0
LWPOLYLINE
5
180
100
AcDbEntity
8
0
100
AcDbPolyline
90
8
70
1
43
0.0
10
-51.49374999999857
20
-23.956103602960219
42
0.41421356237309503
10
-52.243749999998599
20
-24.706103602960248
10
-52.243749999998599
20
-37.206103602960248
42
0.41421356237310897
10
-51.49374999999857
20
-37.956103602960241
10
-38.99374999999857
20
-37.956103602960241
42
0.41421356237309503
10
-38.243749999998577
20
-37.206103602960248
10
-38.243749999998542
20
-24.706103602960248
42
0.4142135623730534
10
-38.99374999999857
20
-23.956103602960255
0
LWPOLYLINE
5
181
100
AcDbEntity
8
0
100
AcDbPolyline
90
8
70
1
43
0.0
10
-89.593749999998579
20
-23.956103602960237
42
0.41421356237315748
10
-90.343749999998607
20
-24.706103602960248
10
-90.343749999998565
20
-37.206103602960248
42
0.41421356237307422
10
-89.59374999999855
20
-37.956103602960241
10
-77.093749999998579
20
-37.956103602960241
42
0.41421356237308116
10
-76.343749999998607
20
-37.206103602960248
10
-76.343749999998579
20
-24.706103602960248
42
0.41421356237308815
10
-77.09374999999855
20
-23.956103602960255
0
LWPOLYLINE
5
182
100
AcDbEntity
8
0
100
AcDbPolyline
90
8
70
1
43
0.0
10
138.25625000000133
20
19.943896397045755
10
138.25625000000133
20
32.443896397040746
42
-0.41421356237310897
10
139.00625000000144
20
33.193896397040739
10
151.50625000000136
20
33.19389639704081
42
-0.41421356237310897
10
152.25625000000139
20
32.443896397040746
10
152.25625000000139
20
19.943896397045755
42
-0.41421356237309503
10
151.50625000000136
20
19.193896397045727
10
139.00625000000136
20
19.193896397045656
42
-0.41421356237306733
0
LWPOLYLINE
5
183
100
AcDbEntity
8
0
100
AcDbPolyline
90
8
70
1
43
0.0
10
77.093750000000441
20
57.006396397045727
42
0.41421356237309503
10
76.343750000000483
20
56.256396397045698
10
76.343750000000412
20
43.756396397045698
42
0.4142135623730534
10
77.093750000000441
20
43.006396397045705
10
89.593750000000441
20
43.006396397045812
42
0.41421356237312279
10
90.343750000000327
20
43.756396397045698
10
90.34375000000054
20
56.256396397045698
42
0.41421356237313667
10
89.593750000000441
20
57.006396397045762
0
LWPOLYLINE
5
184
100
AcDbEntity
8
0
100
AcDbPolyline
90
8
70
1
43
0.0
10
152.25625000000139
20
56.256396397045698
10
152.25625000000133
20
43.756396397045698
42
-0.4142135623730257
10
151.50625000000144
20
43.006396397045847
10
139.00625000000136
20
43.006396397045705
42
-0.41421356237308116
10
138.25625000000133
20
43.756396397045698
10
138.25625000000133
20
56.256396397045698
42
-0.41421356237309503
10
139.00625000000136
20
57.006396397045869
10
151.50625000000136
20
57.006396397045727
42
-0.41421356237309503
0
LWPOLYLINE
5
185
100
AcDbEntity
8
0
100
AcDbPolyline
90
8
70
1
43
0.0
10
119.95624999999944
20
57.006396397044021
42
0.41421356237226259
10
119.20624999999913
20
56.256396397045698
10
119.20624999999951
20
43.756396397045698
42
0.41421356237309503
10
119.95624999999944
20
43.006396397045776
10
132.45624999999944
20
43.006396397045954
42
0.41421356237306733
10
133.20624999999924
20
43.756396397045698
10
133.20624999999939
20
56.256396397045698
42
0.41421356237306733
10
132.45624999999944
20
57.006396397045727
0
LWPOLYLINE
5
186
100
AcDbEntity
8
0
100
AcDbPolyline
90
8
70
1
43
0.0
10
109.39375000000041
20
56.256396397043744
42
0.41421356237303952
10
108.64374999999941
20
57.006396397044732
10
96.143749999999415
20
57.006396397045869
42
0.41421356237306733
10
95.393749999999329
20
56.256396397045698
10
95.393749999999429
20
43.756396397045698
42
0.41421356237309503
10
96.143749999999415
20
43.006396397045705
10
108.6437499999995
20
43.006396397046061
42
0.4142135623730257
10
109.39374999999916
20
43.756396397045698
0
LWPOLYLINE
5
187
100
AcDbEntity
8
0
100
AcDbPolyline
90
8
70
1
43
0.0
10
-152.25436722834399
20
37.756396553402745
10
-152.25436721760644
20
56.256396553403754
42
-0.41421356237281065
10
-151.50436721717125
20
57.006396552967765
10
-139.00436721717173
20
57.006396545713756
42
-0.41421356237398993
10
-138.25436721760647
20
56.256396545276743
10
-138.25436722834567
20
37.756396545276765
42
-0.41421356237239443
10
-139.00436722878095
20
37.006396545713649
10
-151.50436722878058
20
37.006396552967772
42
-0.41421356237247764
0
LWPOLYLINE
5
188
100
AcDbEntity
8
0
100
AcDbPolyline
90
8
70
1
43
0.0
10
132.45813277876454
20
-34.956103602706179
42
0.41421356237314361
10
133.20813277876451
20
-34.206103602706236
10
133.20813277876456
20
-25.706103602708268
42
0.41421356237315055
10
132.45813277876454
20
-24.956103602708239
10
121.9581327787665
20
-24.956103602708275
42
0.41421356237310897
10
121.20813277876638
20
-25.706103602708268
10
121.2081327787663
20
-34.206103602706236
42
0.41421356237303952
10
121.95813277876641
20
-34.956103602706357
0
LWPOLYLINE
5
189
100
AcDbEntity
8
0
100
AcDbPolyline
90
8
70
1
43
0.0
10
133.20813277876641
20
-5.7061036027062784
10
133.2081327787665
20
-15.206103602706271
42
-0.41421356237319218
10
132.45813277876633
20
-15.956103602706264
10
119.95813277876647
20
-15.956103602706477
42
-0.4142135623731783
10
119.20813277876633
20
-15.206103602706271
10
119.20813277876644
20
-5.7061036027062784
42
-0.4142135623730257
10
119.95813277876647
20
-4.9561036027062855
10
132.45813277876638
20
-4.9561036027063565
42
-0.41421356237310897
0
LWPOLYLINE
5
190
100
AcDbEntity
8
0
100
AcDbPolyline
90
8
70
1
43
0.0
10
152.25625000000139
20
-24.706103602959288
42
0.41421356237310897
10
151.5062500000013
20
-23.956103602959296
10
139.00625000000136
20
-23.956103602959224
42
0.41421356237310897
10
138.25625000000133
20
-24.706103602959288
10
138.25625000000133
20
-37.206103602955274
42
0.41421356237308815
10
139.00625000000136
20
-37.956103602955281
10
151.50625000000136
20
-37.956103602955409
42
0.41421356237309503
10
152.25625000000048
20
-37.206103602955274
0
LWPOLYLINE
5
191
100
AcDbEntity
8
0
100
AcDbPolyline
90
8
70
1
43
0.0
10
119.20624999999956
20
0.89389639704474888
10
119.20624999999956
20
13.393896397044749
42
-0.4142135623730534
10
119.95624999999944
20
14.143896397044671
10
132.45624999999944
20
14.143896397044706
42
-0.4142135623730534
10
133.20624999999936
20
13.393896397044749
10
133.20624999999947
20
0.89389639704474888
42
-0.41421356237301177
10
132.45624999999944
20
0.1438963970446494
10
119.95624999999944
20
0.14389639704486257
42
-0.41421356237309503
0
LWPOLYLINE
5
192
100
AcDbEntity
8
0
100
AcDbPolyline
90
8
70
1
43
0.0
10
152.25625000000139
20
13.393896397044749
42
0.4142135623731783
10
151.50625000000136
20
14.143896397044706
10
139.0062500000013
20
14.143896397044671
42
0.41421356237310897
10
138.25625000000156
20
13.393896397044749
10
138.25625000000133
20
0.89389639704474888
42
0.41421356237308116
10
139.00625000000136
20
0.14389639704475599
10
151.50625000000136
20
0.1438963970446494
42
0.41421356237303952
10
152.25625000000161
20
0.89389639704474888
0
LWPOLYLINE
5
193
100
AcDbEntity
8
0
100
AcDbPolyline
90
8
70
1
43
0.0
10
-52.06874999999954
20
56.256396397043744
42
0.4142135623730534
10
-52.818749999999568
20
57.006396397045727
10
-56.718749999999574
20
57.00639639704363
42
0.4142135623730534
10
-57.468749999999567
20
56.256396397043744
10
-57.46874999999946
20
51.756396397052775
42
0.41421356237308116
10
-56.718749999999574
20
51.006396397045819
10
-52.818749999999568
20
51.006396397052853
42
0.41421356237312279
10
-52.068749999999575
20
51.756396397052775
0
LWPOLYLINE
5
194
100
AcDbEntity
8
0
100
AcDbPolyline
90
8
70
1
43
0.0
10
-132.45624999999865
20
57.006396397045869
10
-119.95624999999865
20
57.006396397043808
42
-0.41421356237308116
10
-119.20625000000058
20
56.256396397045698
10
-119.20625000000041
20
43.756396397045698
42
-0.41421356237308116
10
-119.95625000000048
20
43.006396397045648
10
-132.45625000000049
20
43.00639639704567
42
-0.41421356237307422
10
-133.20625000000055
20
43.756396397045698
10
-133.20624999999879
20
56.256396397045698
42
-0.41421356237308116
0
LWPOLYLINE
5
195
100
AcDbEntity
8
0
100
AcDbPolyline
90
8
70
1
43
0.0
10
-114.15624999999955
20
43.756396397045698
42
0.41421356237308815
10
-113.40624999999957
20
43.006396397045705
10
-100.90624999999957
20
43.006396397045833
42
0.41421356237309503
10
-100.15624999999969
20
43.756396397045698
10
-100.15624999999957
20
56.256396397045698
42
0.41421356237313667
10
-100.90624999999957
20
57.006396397045727
10
-113.40624999999957
20
57.006396397045833
42
0.41421356237307422
10
-114.15624999999966
20
56.256396397045698
0
LWPOLYLINE
5
196
100
AcDbEntity
8
0
100
AcDbPolyline
90
8
70
1
43
0.0
10
-95.106250000000585
20
43.756396397045698
10
-95.106250000000642
20
56.256396397045698
42
-0.41421356237309503
10
-94.356250000000571
20
57.006396397045847
10
-81.856250000000557
20
57.006396397045727
42
-0.41421356237306733
10
-81.106250000000585
20
56.256396397045698
10
-81.106250000000642
20
43.756396397045698
42
-0.41421356237312978
10
-81.856250000000529
20
43.006396397045833
10
-94.356250000000557
20
43.006396397045705
42
-0.41421356237308116
0
LWPOLYLINE
5
197
100
AcDbEntity
8
0
100
AcDbPolyline
90
8
70
1
43
0.0
10
-75.306249999999551
20
57.00639639704395
10
-62.806249999999544
20
57.006396397045727
42
-0.41421356237312279
10
-62.056249999999586
20
56.256396397045698
10
-62.056249999999658
20
43.756396397045698
42
-0.41421356237312978
10
-62.806249999999544
20
43.006396397045833
10
-75.306249999999551
20
43.006396397045705
42
-0.41421356237309503
10
-76.056249999999537
20
43.756396397045698
10
-76.056249999999693
20
56.256396397045698
42
-0.41421356237231116
0
LWPOLYLINE
5
198
100
AcDbEntity
8
0
100
AcDbPolyline
90
8
70
1
43
0.0
10
-46.731250000000593
20
57.00639639704395
42
0.41421356237306733
10
-47.481250000000728
20
56.256396397043744
10
-47.48125000000055
20
43.756396397045698
42
0.41421356237299795
10
-46.731250000000593
20
43.006396397045705
10
-34.231250000000593
20
43.006396397045954
42
0.4142135623730257
10
-33.481250000000742
20
43.756396397045698
10
-33.4812500000006
20
56.256396397045698
42
0.41421356237316442
10
-34.231250000000593
20
57.006396397045727
0
LWPOLYLINE
5
199
100
AcDbEntity
8
0
100
AcDbPolyline
90
8
70
1
43
0.0
10
-27.681249999998556
20
57.006396397045833
42
0.41421356237306733
10
-28.431249999998691
20
56.256396397045698
10
-28.431249999998585
20
43.756396397045698
42
0.4142135623730534
10
-27.681249999998556
20
43.006396397045705
10
-15.181249999998556
20
43.006396397045812
42
0.41421356237312279
10
-14.43124999999867
20
43.756396397045698
10
-14.431249999998563
20
56.256396397045698
42
0.4142135623730534
10
-15.181249999998556
20
57.006396397045727
0
LWPOLYLINE
5
200
100
AcDbEntity
8
0
100
AcDbPolyline
90
8
70
1
43
0.0
10
9.6687499999994131
20
43.756396397045698
10
9.6687499999994131
20
56.256396397045698
42
-0.41421356237312279
10
10.418749999999442
20
57.006396397045727
10
22.918749999999442
20
57.006396397045762
42
-0.41421356237316442
10
23.66874999999947
20
56.256396397045698
10
23.668749999999434
20
43.756396397045698
42
-0.41421356237309503
10
22.918749999999442
20
43.006396397045705
10
10.418749999999442
20
43.006396397045705
42
-0.4142135623730534
0
LWPOLYLINE
5
201
100
AcDbEntity
8
0
100
AcDbPolyline
90
8
70
1
43
0.0
10
-9.381249999999568
20
43.756396397045698
10
-9.381249999999568
20
56.256396397045698
42
-0.4142135623730534
10
-8.6312499999995751
20
57.006396397045727
10
3.8687500000004249
20
57.006396397045762
42
-0.41421356237316442
10
4.6187500000004533
20
56.256396397045698
10
4.6187500000004533
20
43.756396397045698
42
-0.41421356237316442
10
3.8687500000004249
20
43.006396397045705
10
-8.6312499999995751
20
43.006396397045705
42
-0.41421356237309503
0
LWPOLYLINE
5
202
100
AcDbEntity
8
0
100
AcDbPolyline
90
8
70
1
43
0.0
10
51.493750000000453
20
43.006396397045847
42
0.41421356237308116
10
52.243750000000411
20
43.756396397045698
10
52.243750000000588
20
56.256396397045698
42
0.41421356237316442
10
51.493750000000453
20
57.006396397045869
10
38.993750000000453
20
57.006396397045727
42
0.4142135623730534
10
38.24375000000046
20
56.256396397045698
10
38.24375000000046
20
43.756396397045698
42
0.41421356237309503
10
38.993750000000453
20
43.006396397045705
0
LWPOLYLINE
5
203
100
AcDbEntity
8
0
100
AcDbPolyline
90
8
70
1
43
0.0
10
58.043750000001459
20
57.006396397045727
42
0.41421356237312279
10
57.293750000001431
20
56.256396397045698
10
57.293749999999548
20
43.756396397045698
42
0.4142135623730534
10
58.043749999999577
20
43.006396397045705
10
70.543750000001467
20
43.006396397045847
42
0.41421356237313667
10
71.293750000001268
20
43.756396397045698
10
71.293749999999463
20
56.256396397045698
42
0.41421356237310897
10
70.543749999999505
20
57.006396397045762
0
LWPOLYLINE
5
204
100
AcDbEntity
8
0
100
AcDbPolyline
90
8
70
1
43
0.0
10
33.656250000000441
20
56.256396397045698
42
0.4142135623730534
10
32.906250000000448
20
57.006396397045727
10
29.006249999999447
20
57.006396397045727
42
0.41421356237313667
10
28.256250000001444
20
56.256396397045698
10
28.256249999999561
20
51.756396397045705
42
0.41421356237312279
10
29.006249999999447
20
51.006396397045748
10
32.906250000000448
20
51.006396397045783
42
0.41421356237312279
10
33.656250000000441
20
51.756396397045705
0
LWPOLYLINE
5
205
100
AcDbEntity
8
0
100
AcDbPolyline
90
8
70
1
43
0.0
10
132.45624999999944
20
19.193896397045656
10
119.95624999999944
20
19.193896397045762
42
-0.41421356237308116
10
119.20624999999956
20
19.943896397045755
10
119.20624999999941
20
32.443896397040746
42
-0.4142135623730257
10
119.95624999999944
20
33.193896397040739
10
132.45624999999944
20
33.193896397040739
42
-0.4142135623730257
10
133.20624999999947
20
32.443896397040746
10
133.20624999999936
20
19.943896397045755
42
-0.41421356237299795
0
LWPOLYLINE
5
206
100
AcDbEntity
8
0
100
AcDbPolyline
90
8
70
1
43
0.0
10
-78.831250000000608
20
32.193896397038735
10
-78.331250000000551
20
32.193896397038806
42
-0.41421356237309503
10
-77.83125000000058
20
31.693896397038834
10
-77.831250000000637
20
20.693896397038785
42
-0.41421356237306384
10
-78.33125000000058
20
20.193896397038866
10
-78.831250000000608
20
20.193896397038777
42
-0.41421356237309503
10
-79.33125000000058
20
20.693896397038749
10
-79.331250000000438
20
31.693896397038799
42
-0.41421356237303258
0
LWPOLYLINE
5
207
100
AcDbEntity
8
0
100
AcDbPolyline
90
8
70
1
43
0.0
10
-6.3937500000006153
20
-6.4061036029602647
10
-6.3937499999987324
20
-17.406103602960208
42
-0.41421356237197121
10
-6.8937499999985619
20
-17.906103602962027
10
-7.393749999998569
20
-17.90610360296025
42
-0.4142135623730534
10
-7.8937499999985405
20
-17.406103602960208
10
-7.8937499999985405
20
-6.4061036029602647
42
-0.41421356237303258
10
-7.393749999998569
20
-5.9061036029602576
10
-6.8937499999985619
20
-5.9061036029602931
42
-0.41421356237190876
0
LWPOLYLINE
5
208
100
AcDbEntity
8
0
100
AcDbPolyline
90
8
70
1
43
0.0
10
-64.043750000000529
20
-17.906103602962027
42
0.41421356237306384
10
-63.543749999998766
20
-17.406103602960208
10
-63.543749999999562
20
-6.4061036029602647
42
0.4142135623719192
10
-64.043749999998568
20
-5.9061036029592628
10
-64.543749999998568
20
-5.9061036029602931
42
0.41421356237309503
10
-65.043749999998539
20
-6.4061036029602647
10
-65.043749999998596
20
-17.406103602960208
42
0.4142135623730846
10
-64.543749999998568
20
-17.90610360296025
0
LWPOLYLINE
5
209
100
AcDbEntity
8
0
100
AcDbPolyline
90
8
70
1
43
0.0
10
-120.69374999999974
20
-6.4061036029602647
42
0.41421356237310542
10
-121.19374999999977
20
-5.9061036029602576
10
-121.69374999999977
20
-5.9061036029602931
42
0.41421356237309503
10
-122.19374999999974
20
-6.4061036029602647
10
-122.19374999999972
20
-17.406103602960208
42
0.4142135623730846
10
-121.69374999999977
20
-17.906103602960179
10
-121.19374999999977
20
-17.906103602960215
42
0.41421356237303258
10
-120.6937499999998
20
-17.406103602960208
0
LWPOLYLINE
5
210
100
AcDbEntity
8
0
100
AcDbPolyline
90
8
70
1
43
0.0
10
-158.40000000000077
20
-22.206103602959288
10
-158.39999999999918
20
-21.706103602959281
42
-0.41421356237198165
10
-157.90000000000086
20
-21.206103602959139
10
-146.90000000000086
20
-21.206103602959274
42
-0.41421356237419804
10
-146.39999999999904
20
-21.706103602959281
10
-146.39999999999904
20
-22.206103602959288
42
-0.41421356237410439
10
-146.90000000000086
20
-22.706103602959232
10
-157.90000000000089
20
-22.706103602959118
42
-0.4142135623730534
0
LWPOLYLINE
5
211
100
AcDbEntity
8
0
100
AcDbPolyline
90
8
70
1
43
0.0
10
-118.80624999999945
20
-59.256103602955257
42
0.41421356237311585
10
-119.55624999999957
20
-58.506103602955157
10
-124.05624999999907
20
-58.506103602955228
42
0.41421356237310897
10
-124.80624999999907
20
-59.256103602955257
10
-124.8062499999991
20
-60.25610360295525
42
0.41421356237311585
10
-124.05624999999904
20
-61.006103602955278
10
-119.55624999999957
20
-61.006103602955228
42
0.41421356237309503
10
-118.80624999999955
20
-60.25610360295525
0
LWPOLYLINE
5
212
100
AcDbEntity
8
0
100
AcDbPolyline
90
8
70
1
43
0.0
10
37.653124999999449
20
-60.25610360295525
42
0.41421356237307422
10
38.403124999999463
20
-61.006103602955278
10
42.903125000001445
20
-61.006103602955108
42
0.41421356237310897
10
43.653125000001261
20
-60.25610360295525
10
43.653124999999463
20
-59.256103602955257
42
0.41421356237309503
10
42.903124999999456
20
-58.50610360295525
10
38.403124999999498
20
-58.506103602955207
42
0.41421356237310197
10
37.65312499999947
20
-59.256103602955257
0
LWPOLYLINE
5
213
100
AcDbEntity
8
0
100
AcDbPolyline
90
4
70
1
43
0.0
10
130.55625000000052
20
-59.506103602955243
42
0.99999999999999989
10
130.55625000000052
20
-61.006103602955264
10
149.55624999999844
20
-61.006103602956472
42
0.99999999999999989
10
149.55624999999858
20
-59.506103602960003
0
LWPOLYLINE
5
214
100
AcDbEntity
8
0
100
AcDbPolyline
90
4
70
1
43
0.0
10
157.55625000000049
20
62.506396397047546
10
92.056250000000517
20
62.506396397045698
42
-0.99999999999999989
10
92.056250000000432
20
64.006396397045677
10
157.55625000000049
20
64.006396397043972
42
-0.99999999999999989
0
LWPOLYLINE
5
215
100
AcDbEntity
8
0
100
AcDbPolyline
90
8
70
1
43
0.0
10
43.653124999999555
20
60.256396397043801
10
43.653124999999555
20
59.256396397043751
42
-0.41421356237313667
10
42.903124999999456
20
58.506396397043758
10
38.403124999999463
20
58.506396397043794
42
-0.41421356237306733
10
37.653124999999577
20
59.256396397043751
10
37.65312499999947
20
60.256396397043801
42
-0.41421356237306733
10
38.403124999999463
20
61.006396397043794
10
42.903125000001445
20
61.006396397043794
42
-0.41421356237233198
0
LWPOLYLINE
5
216
100
AcDbEntity
8
0
100
AcDbPolyline
90
4
70
1
43
0.0
10
-52.403125000000514
20
59.506396397045727
42
0.99999999999999989
10
-52.403125000000514
20
61.006396397045783
10
-114.05624999999857
20
61.006396397045783
42
0.99999999999999989
10
-114.05624999999856
20
59.506396397045727
0
LWPOLYLINE
5
217
100
AcDbEntity
8
0
100
AcDbPolyline
90
8
70
1
43
0.0
10
15.918750000001438
20
20.693896397038785
42
0.4142135623730534
10
16.418750000001445
20
20.193896397038777
10
16.918750000001452
20
20.193896397038813
42
0.41421356237307422
10
17.418750000001459
20
20.693896397038785
10
17.418750000001459
20
31.693896397038799
42
0.4142135623731783
10
16.918750000001452
20
32.193896397038806
10
16.418750000001445
20
32.193896397038806
42
0.41421356237313667
10
15.918750000001438
20
31.693896397038799
0
LWPOLYLINE
5
218
100
AcDbEntity
8
0
100
AcDbPolyline
90
8
70
1
43
0.0
10
87.368753932753435
20
35.943994715816103
10
98.368753932755482
20
35.94390819526437
42
-0.41421125862153718
10
98.868750000001597
20
35.443908195280756
10
98.86875000000245
20
34.943896397040746
42
-0.41421356237313667
10
98.36875000000245
20
34.443896397040739
10
87.368750000002464
20
34.443896397040739
42
-0.4142135623731783
10
86.86875000000245
20
34.943896397040746
10
86.868750000000645
20
35.443994715829739
42
-0.41421586612715711
0
LWPOLYLINE
5
219
100
AcDbEntity
8
0
100
AcDbPolyline
90
8
70
1
43
0.0
10
65.043750000001452
20
12.643896397038752
10
65.043750000001452
20
1.6438963970387732
42
-0.41421356237313667
10
64.543750000001438
20
1.1438963970387661
10
64.043750000001438
20
1.1438963970387661
42
-0.4142135623731783
10
63.543750000001431
20
1.6438963970387732
10
63.543750000001502
20
12.643896397038752
42
-0.41421356237301177
10
64.043750000001438
20
13.143896397038759
10
64.543750000001438
20
13.143896397038759
42
-0.41421356237313667
0
LWPOLYLINE
5
220
100
AcDbEntity
8
0
100
AcDbPolyline
90
8
70
1
43
0.0
10
92.606000000000421
20
-22.18110360296123
42
0.41421356237307422
10
93.106000000002354
20
-21.681103602959269
10
93.106000000002467
20
-21.181103602959261
42
0.41421356237430207
10
92.606000000000421
20
-20.681103602959219
10
83.606000000000478
20
-20.681103602960214
42
0.41421356237307422
10
83.106000000001472
20
-21.181103602959261
10
83.106000000000478
20
-21.681103602959269
42
0.41421356237313667
10
83.606000000000478
20
-22.181103602959205
0
LWPOLYLINE
5
221
100
AcDbEntity
8
0
100
AcDbPolyline
90
8
70
1
43
0.0
10
76.343750000000483
20
37.350146397041719
42
0.41421356237309503
10
77.093750000000441
20
36.600146397041833
10
108.6437499999995
20
36.600146397041726
42
0.41421356237310897
10
109.39374999999944
20
37.350146397041719
10
109.39374999999944
20
38.850146397041776
42
0.4142135623731783
10
108.64374999999941
20
39.600146397041733
10
77.093750000000441
20
39.60014639704184
42
0.41421356237301177
10
76.343750000000455
20
38.850146397041776
0
LWPOLYLINE
5
222
100
AcDbEntity
8
0
100
AcDbPolyline
90
8
70
1
43
0.0
10
-15.181249999998556
20
36.600146397041762
10
-46.731250000000593
20
36.600146397041726
42
-0.4142135623730534
10
-47.481250000000621
20
37.350146397041719
10
-47.481250000000514
20
38.850146397041776
42
-0.41421356237316442
10
-46.731250000000593
20
39.600146397041804
10
-15.181249999998556
20
39.600146397041804
42
-0.4142135623730534
10
-14.431249999998563
20
38.850146397041776
10
-14.431249999998563
20
37.350146397041719
42
-0.41421356237308116
0
LWPOLYLINE
5
223
100
AcDbEntity
8
0
100
AcDbPolyline
90
8
70
1
43
0.0
10
-136.48125000000019
20
20.693896397038785
10
-136.48125000000013
20
31.693896397038799
42
-0.41421356237311585
10
-135.98125000000016
20
32.193896397038806
10
-135.48125000000016
20
32.193896397038593
42
-0.41421356237310542
10
-134.98125000000036
20
31.693896397038799
10
-134.98125000000019
20
20.693896397038785
42
-0.41421356237312623
10
-135.48125000000019
20
20.193896397038777
10
-135.98125000000013
20
20.193896397038795
42
-0.4142135623730846
0
LWPOLYLINE
5
224
100
AcDbEntity
8
0
100
AcDbPolyline
90
4
70
1
43
0.0
10
-88.056249999999523
20
62.506396397043957
10
-155.55624999999907
20
62.506396397047652
42
-0.99999999999999989
10
-155.5562499999991
20
64.00639639704778
10
-88.056249999999523
20
64.006396397047567
42
-0.99999999999999989
0
LWPOLYLINE
5
225
100
AcDbEntity
8
0
100
AcDbPolyline
90
4
70
1
43
0.0
10
74.556250000000517
20
62.506396397045698
10
6.7500000000003624
20
62.506396397045698
42
-0.99999999999999989
10
6.7500000000004334
20
64.006396397045677
10
74.556250000000574
20
64.006396397045677
42
-0.99999999999999989
0
LWPOLYLINE
5
226
100
AcDbEntity
8
0
100
AcDbPolyline
90
4
70
1
43
0.0
10
122.05625000000052
20
61.006396397045783
42
0.99999999999999989
10
122.05625000000052
20
59.506396397045727
10
148.5562499999985
20
59.506396397047716
42
0.99999999999999989
10
148.5562499999985
20
61.006396397047773
0
LWPOLYLINE
5
227
100
AcDbEntity
8
0
100
AcDbPolyline
90
8
70
1
43
0.0
10
124.80625000000049
20
-59.256103602955257
42
0.41421356237306733
10
124.05625000000055
20
-58.506103602955228
10
119.55625000000052
20
-58.506103602955228
42
0.41421356237312279
10
118.80625000000055
20
-59.256103602955257
10
118.80625000000057
20
-60.25610360295525
42
0.41421356237309503
10
119.55625000000052
20
-61.006103602955193
10
124.05625000000055
20
-61.006103602955278
42
0.41421356237312279
10
124.80625000000049
20
-60.25610360295525
0
LWPOLYLINE
5
228
100
AcDbEntity
8
0
100
AcDbPolyline
90
4
70
1
43
0.0
10
-6.7499999999995808
20
-64.006103602955278
10
-74.556249999999551
20
-64.006103602955221
42
-0.99999999999999989
10
-74.556249999999523
20
-62.506103602955235
10
-6.7499999999995808
20
-62.506103602955214
42
-0.99999999999999989
0
LWPOLYLINE
5
229
100
AcDbEntity
8
0
100
AcDbPolyline
90
4
70
1
43
0.0
10
-145.05625000000083
20
-59.506103602958227
42
0.99999999999999989
10
-145.05625000000089
20
-61.006103602958319
10
-129.55624999999912
20
-61.006103602955264
42
0.99999999999999989
10
-129.5562499999991
20
-59.506103602955243
0
LWPOLYLINE
5
230
100
AcDbEntity
8
0
100
AcDbPolyline
90
8
70
1
43
0.0
10
-116.9187500000005
20
-40.731103602961269
10
-116.91874999999857
20
-40.231103602961262
42
-0.41421356237312623
10
-116.41874999999857
20
-39.731103602961269
10
-107.41874999999854
20
-39.731103602961362
42
-0.41421356237307422
10
-106.91874999999865
20
-40.231103602961262
10
-106.9187499999986
20
-40.731103602961269
42
-0.41421356237309503
10
-107.41874999999857
20
-41.231103602961277
10
-116.41874999999857
20
-41.231103602961227
42
-0.41421356237425005
0
LWPOLYLINE
5
231
100
AcDbEntity
8
0
100
AcDbPolyline
90
8
70
1
43
0.0
10
-55.018749999998562
20
-24.956103602959274
42
0.4142135623730534
10
-55.518749999998569
20
-25.456103602959281
10
-55.518750000000324
20
-36.456103602959274
42
0.41421356237428125
10
-55.018749999998562
20
-36.956103602959018
10
-54.518749999998555
20
-36.956103602959089
42
0.41421356237312623
10
-54.018749999998725
20
-36.456103602959274
10
-54.018749999998548
20
-25.456103602959281
42
0.41421356237313667
10
-54.518749999998555
20
-24.956103602959274
0
LWPOLYLINE
5
232
100
AcDbEntity
8
0
100
AcDbPolyline
90
8
70
1
43
0.0
10
35.981250000001417
20
-39.731103602961269
42
0.4142135623730222
10
35.481250000001445
20
-40.231103602961262
10
35.481250000001467
20
-40.731103602961269
42
0.41421356237314705
10
35.981250000001452
20
-41.231103602961277
10
44.981250000001474
20
-41.231103602963032
42
0.41421356237187756
10
45.481250000001268
20
-40.731103602961269
10
45.481250000001424
20
-40.231103602961262
42
0.41421356237313667
10
44.981250000001438
20
-39.731103602961269
0
LWPOLYLINE
5
233
100
AcDbEntity
8
0
100
AcDbPolyline
90
8
70
1
43
0.0
10
6.8937500000014751
20
13.143896397038688
42
0.41421356237311585
10
6.3937500000015746
20
12.643896397038752
10
6.393750000001468
20
1.6438963970387732
42
0.4142135623731783
10
6.8937500000014751
20
1.1438963970387661
10
7.3937499999994927
20
1.1438963970387661
42
0.41421356237311585
10
7.8937499999994643
20
1.6438963970387732
10
7.8937500000015959
20
12.643896397038752
42
0.41421356237430207
10
7.3937499999994927
20
13.143896397038866
0
LWPOLYLINE
5
234
100
AcDbEntity
8
0
100
AcDbPolyline
90
8
70
1
43
0.0
10
-16.918749999998539
20
-24.956103602959274
10
-16.418749999998532
20
-24.956103602959274
42
-0.414213562371888
10
-15.918750000000514
20
-25.456103602959281
10
-15.918749999998525
20
-36.456103602959274
42
-0.41421356237311585
10
-16.418749999998532
20
-36.956103602959246
10
-16.918749999998539
20
-36.956103602959161
42
-0.41421356237313667
10
-17.418749999998564
20
-36.456103602959274
10
-17.418749999998546
20
-25.456103602959281
42
-0.4142135623730534
0
LWPOLYLINE
5
235
100
AcDbEntity
8
0
100
AcDbPolyline
90
8
70
1
43
0.0
10
-125.45625000000061
20
12.643896397038752
10
-125.45625000000049
20
1.6438963970387732
42
-0.41421356237310542
10
-125.95625000000044
20
1.1438963970387661
10
-126.45625000000049
20
1.1438963970387661
42
-0.4142135623730222
10
-126.95625000000048
20
1.6438963970387377
10
-126.95625000000044
20
12.643896397038752
42
-0.4142135623730222
10
-126.45625000000049
20
13.143896397038759
10
-125.95625000000044
20
13.143896397038635
42
-0.41421356237306384
0
LWPOLYLINE
5
236
100
AcDbEntity
8
0
100
AcDbPolyline
90
8
70
1
43
0.0
10
-146.90000000000086
20
-40.706103602959089
10
-157.90000000000089
20
-40.706103602961043
42
-0.41421356237202323
10
-158.40000000000086
20
-40.206103602959274
10
-158.40000000000086
20
-39.706103602959274
42
-0.41421356237310542
10
-157.90000000000089
20
-39.206103602959281
10
-146.90000000000086
20
-39.206103602959281
42
-0.41421356237411477
10
-146.39999999999907
20
-39.706103602959253
10
-146.39999999999924
20
-40.206103602959274
42
-0.41421356237411477
0
LWPOLYLINE
5
237
100
AcDbEntity
8
0
100
AcDbPolyline
90
4
70
1
43
0.0
10
-52.403125000000585
20
-61.006103602955264
42
0.99999999999999989
10
-52.403125000000514
20
-59.506103602955243
10
-114.05624999999857
20
-59.506103602955264
42
0.99999999999999989
10
-114.05624999999856
20
-61.00610360295525
0
LWPOLYLINE
5
238
100
AcDbEntity
8
0
100
AcDbPolyline
90
4
70
1
43
0.0
10
6.7500000000005045
20
-62.506103602955235
10
74.556250000000517
20
-62.50610360295525
42
-0.99999999999999989
10
74.556250000000574
20
-64.006103602955193
10
6.7500000000004334
20
-64.006103602955221
42
-0.99999999999999989
0
LWPOLYLINE
5
239
100
AcDbEntity
8
0
100
AcDbPolyline
90
4
70
1
43
0.0
10
88.056250000000517
20
-62.506103602955214
10
158.55625000000049
20
-62.506103602955235
42
-0.99999999999999989
10
158.55625000000049
20
-64.006103602955221
10
88.056250000000517
20
-64.006103602955278
42
-0.99999999999999989
0
LWPOLYLINE
5
240
100
AcDbEntity
8
0
100
AcDbPolyline
90
8
70
1
43
0.0
10
117.30625000000049
20
60.256396397043801
42
0.41421356237299795
10
116.55625000000055
20
61.006396397043794
10
112.05625000000052
20
61.006396397043865
42
0.41421356237308116
10
111.30625000000055
20
60.256396397043801
10
111.30625000000049
20
59.256396397043751
42
0.41421356237313667
10
112.05625000000052
20
58.506396397043758
10
116.55625000000055
20
58.506396397043687
42
0.41421356237313667
10
117.30625000000049
20
59.256396397043751
0
LWPOLYLINE
5
241
100
AcDbEntity
8
0
100
AcDbPolyline
90
8
70
1
43
0.0
10
-37.653125000000571
20
60.256396397045755
42
0.41421356237306733
10
-38.4031250000006
20
61.006396397045783
10
-42.903125000000593
20
61.006396397045854
42
0.41421356237309503
10
-43.653125000000621
20
60.256396397045755
10
-43.653125000000657
20
59.256396397045705
42
0.41421356237303952
10
-42.903125000000593
20
58.506396397045641
10
-38.4031250000006
20
58.506396397045783
42
0.41421356237310897
10
-37.653125000000571
20
59.256396397045705
0
LWPOLYLINE
5
242
100
AcDbEntity
8
0
100
AcDbPolyline
90
8
70
1
43
0.0
10
-118.80624999999954
20
60.256396397045755
42
0.41421356237309503
10
-119.55624999999957
20
61.006396397045783
10
-124.05624999999907
20
61.00639639704562
42
0.41421356237306733
10
-124.80624999999901
20
60.256396397045755
10
-124.80624999999911
20
59.256396397045741
42
0.41421356237310897
10
-124.05624999999904
20
58.506396397045712
10
-119.55624999999957
20
58.506396397045762
42
0.41421356237309503
10
-118.80624999999955
20
59.256396397045705
0
LWPOLYLINE
5
243
100
AcDbEntity
8
0
100
AcDbPolyline
90
8
70
1
43
0.0
10
-133.20625000000049
20
37.350146397041719
42
0.41421356237307422
10
-132.45625000000049
20
36.600146397041726
10
-100.90624999999957
20
36.600146397041712
42
0.41421356237309503
10
-100.15624999999955
20
37.350146397041719
10
-100.15624999999957
20
38.850146397041776
42
0.41421356237313667
10
-100.90624999999957
20
39.600146397041804
10
-132.45625000000049
20
39.600146397041854
42
0.41421356237309503
10
-133.20625000000049
20
38.850146397041776
0
LWPOLYLINE
5
244
100
AcDbEntity
8
0
100
AcDbPolyline
90
8
70
1
43
0.0
10
-8.6312499999995751
20
39.60014639704184
42
0.41421356237301177
10
-9.381249999999568
20
38.850146397041776
10
-9.381249999999568
20
37.350146397041719
42
0.41421356237309503
10
-8.6312499999995751
20
36.600146397041726
10
22.918749999999442
20
36.600146397041726
42
0.41421356237309503
10
23.668749999999434
20
37.350146397041719
10
23.668749999999434
20
38.850146397041776
42
0.41421356237316442
10
22.918749999999442
20
39.600146397041804
0
LWPOLYLINE
5
245
100
AcDbEntity
8
0
100
AcDbPolyline
90
8
70
1
43
0.0
10
73.068750000001359
20
32.193896397038806
10
73.568750000001373
20
32.193896397038806
42
-0.4142135623731783
10
74.068750000001387
20
31.693896397038799
10
74.068750000001387
20
20.693896397038785
42
-0.41421356237307422
10
73.568750000001373
20
20.193896397038813
10
73.068750000001359
20
20.193896397038777
42
-0.4142135623730534
10
72.568750000001359
20
20.693896397038785
10
72.568750000001359
20
31.693896397038799
42
-0.41421356237313667
0
LWPOLYLINE
5
246
100
AcDbEntity
8
0
100
AcDbPolyline
90
8
70
1
43
0.0
10
49.75625000000143
20
-5.9061036029602576
10
50.256250000001437
20
-5.9061036029602931
42
-0.41421356237309503
10
50.756250000001408
20
-6.4061036029602647
10
50.756250000001479
20
-17.406103602960208
42
-0.4142135623730534
10
50.256250000001437
20
-17.90610360296025
10
49.75625000000143
20
-17.90610360296025
42
-0.41421356237311585
10
49.256250000001423
20
-17.406103602960208
10
49.256250000001423
20
-6.4061036029602647
42
-0.4142135623730534
0
LWPOLYLINE
5
247
100
AcDbEntity
8
0
100
AcDbPolyline
90
8
70
1
43
0.0
10
91.724975273486422
20
-39.706103614497238
10
91.724975261936493
20
-40.206726176510244
42
-0.41409198964247379
10
91.225182796947522
20
-40.706726121903507
10
80.225207463353385
20
-40.711291882315237
42
-0.41433509686905895
10
79.724999928340708
20
-40.211291996956255
10
79.724999856026415
20
-39.706103674531249
42
-0.41421360429894633
10
80.224999856026429
20
-39.20610360295926
10
91.224975273486422
20
-39.206103602959303
42
-0.41421356913194418
0
LWPOLYLINE
5
248
100
AcDbEntity
8
0
100
AcDbPolyline
90
8
70
1
43
0.0
10
98.368656076169543
20
16.444178186618821
10
87.368656076024465
20
16.446244514157467
42
-0.41415854405046265
10
86.868750000002478
20
16.946244505335777
10
86.86875000000245
20
17.443896397040746
42
-0.4142135623731783
10
87.368750000002464
20
17.943896397040753
10
98.368750000074414
20
17.943896397040753
42
-0.41421356233088968
10
98.868750000074385
20
17.443896397112759
10
98.868750000147145
20
16.944178177872793
42
-0.41426858287839935
0
LWPOLYLINE
5
249
100
AcDbEntity
8
0
100
AcDbPolyline
90
8
70
1
43
0.0
10
38.993750000000453
20
39.60014639704184
42
0.41421356237301177
10
38.24375000000046
20
38.850146397041776
10
38.24375000000046
20
37.350146397041719
42
0.41421356237309503
10
38.993750000000453
20
36.600146397041726
10
70.543749999999505
20
36.600146397041726
42
0.41421356237310897
10
71.293749999999463
20
37.350146397041719
10
71.293749999999463
20
38.850146397041776
42
0.41421356237309503
10
70.543749999999505
20
39.600146397041804
0
LWPOLYLINE
5
250
100
AcDbEntity
8
0
100
AcDbPolyline
90
8
70
1
43
0.0
10
-95.106250000000642
20
37.350146397041719
10
-95.106250000000358
20
38.850146397043801
42
-0.41421356237308815
10
-94.356250000000571
20
39.600146397043616
10
-62.806249999999544
20
39.600146397043794
42
-0.41421356237309503
10
-62.056249999999551
20
38.850146397043801
10
-62.056249999999551
20
37.350146397041719
42
-0.41421356237309503
10
-62.806249999999544
20
36.600146397041726
10
-94.356250000000557
20
36.60014639704162
42
-0.41421356237309503
0
LWPOLYLINE
5
251
100
AcDbEntity
8
0
100
AcDbPolyline
90
4
70
1
43
0.0
10
-129.5562499999991
20
59.506396397047716
42
0.99999999999999989
10
-129.5562499999991
20
61.006396397047773
10
-145.05624999999907
20
61.006396397047773
42
0.99999999999999989
10
-145.05624999999907
20
59.506396397047716
0
LWPOLYLINE
5
252
100
AcDbEntity
8
0
100
AcDbPolyline
90
4
70
1
43
0.0
10
-6.7499999999995808
20
62.506396397045698
42
0.99999999999999989
10
-6.7499999999995097
20
64.006396397045677
10
-74.556249999999551
20
64.006396397045677
42
0.99999999999999989
10
-74.556249999999579
20
62.506396397045698
0
LWPOLYLINE
5
253
100
AcDbEntity
8
0
100
AcDbPolyline
90
4
70
1
43
0.0
10
52.40312499999952
20
61.006396397045748
42
0.99999999999999989
10
52.403124999999449
20
59.506396397045762
10
106.55625000000055
20
59.506396397045727
42
0.99999999999999989
10
106.55625000000055
20
61.006396397045783
0
LWPOLYLINE
5
254
100
AcDbEntity
8
0
100
AcDbPolyline
90
8
70
1
43
0.0
10
153.6437499999995
20
36.600146397041726
42
0.41421356237310897
10
154.39374999999944
20
37.350146397041719
10
154.39374999999944
20
38.850146397041776
42
0.41421356237316442
10
153.64374999999941
20
39.60014639704184
10
121.09375000000045
20
39.600146397041875
42
0.41421356237306733
10
120.34375000000043
20
38.850146397041776
10
120.34375000000043
20
37.350146397041719
42
0.41421356237308116
10
121.09375000000045
20
36.600146397041726
0
LWPOLYLINE
5
255
100
AcDbEntity
8
0
100
AcDbPolyline
90
4
70
1
43
0.0
10
114.05625000000055
20
-61.00610360295525
10
52.403124999999449
20
-61.00610360295525
42
-0.99999999999999989
10
52.40312499999952
20
-59.506103602955221
10
114.05625000000055
20
-59.506103602955221
42
-0.99999999999999989
0
LWPOLYLINE
5
256
100
AcDbEntity
8
0
100
AcDbPolyline
90
8
70
1
43
0.0
10
-37.653125000000536
20
-59.256103602955257
10
-37.653125000000536
20
-60.25610360295525
42
-0.41421356237307422
10
-38.403125000000635
20
-61.006103602955299
10
-42.903125000000593
20
-61.006103602955278
42
-0.41421356237311585
10
-43.653125000000642
20
-60.25610360295525
10
-43.653125000000479
20
-59.256103602955257
42
-0.41421356237307422
10
-42.903125000000593
20
-58.506103602955349
10
-38.4031250000006
20
-58.506103602955228
42
-0.4142135623730534
0
LWPOLYLINE
5
257
100
AcDbEntity
8
0
100
AcDbPolyline
90
4
70
1
43
0.0
10
-88.056249999999523
20
-64.006103602955278
10
-158.55624999999907
20
-64.006103602955221
42
-0.99999999999999989
10
-158.55624999999907
20
-62.506103602955235
10
-88.056249999999565
20
-62.506103602955214
42
-0.99999999999999989
0
LWPOLYLINE
5
258
100
AcDbEntity
8
0
100
AcDbPolyline
90
8
70
1
43
0.0
10
-112.66875000000053
20
-36.456103602959274
10
-112.66875000000061
20
-25.456103602959281
42
-0.4142135623730846
10
-112.16875000000057
20
-24.95610360295915
10
-111.66875000000059
20
-24.956103602959274
42
-0.41421356237310542
10
-111.16875000000056
20
-25.456103602959281
10
-111.16875000000061
20
-36.456103602959274
42
-0.4142135623730846
10
-111.66875000000059
20
-36.956103602959232
10
-112.16875000000056
20
-36.956103602959217
42
-0.41421356237313667
0
LWPOLYLINE
5
259
100
AcDbEntity
8
0
100
AcDbPolyline
90
8
70
1
43
0.0
10
-69.806249999999579
20
1.6438963970387377
10
-69.806249999998755
20
12.643896397038752
42
-0.41421356237303258
10
-69.306250000000574
20
13.143896397037036
10
-68.806250000000546
20
13.143896397038759
42
-0.41421356237310542
10
-68.306250000000603
20
12.643896397038752
10
-68.306250000000546
20
1.6438963970387732
42
-0.41421356237313667
10
-68.806250000000574
20
1.1438963970387483
10
-69.306250000000603
20
1.1438963970387661
42
-0.41421356237238743
0
LWPOLYLINE
5
260
100
AcDbEntity
8
0
100
AcDbPolyline
90
8
70
1
43
0.0
10
40.231250000001459
20
-24.956103602959274
10
40.731250000001431
20
-24.956103602959274
42
-0.41421356237313667
10
41.231250000001438
20
-25.456103602959281
10
41.231250000001438
20
-36.456103602959274
42
-0.41421356237311585
10
40.731250000001431
20
-36.956103602959246
10
40.231250000001459
20
-36.956103602959217
42
-0.41421356237306384
10
39.731250000001467
20
-36.456103602959274
10
39.731250000001452
20
-25.456103602959281
42
-0.41421356237313667
0
LWPOLYLINE
5
261
100
AcDbEntity
8
0
100
AcDbPolyline
90
8
70
1
43
0.0
10
-43.706250005224589
20
-54.505623517672888
10
-60.206250006965583
20
-54.505623508094594
42
-0.41421356203253867
10
-60.956249998403877
20
-53.755623516658261
10
-60.956250002758509
20
-46.255623515506237
42
-0.41421356254257546
10
-60.206250004789545
20
-45.50562351710326
10
-43.706249998403557
20
-45.505623517101128
42
-0.41421356254376862
10
-42.956249998403422
20
-46.255623517538226
10
-42.956250002755922
20
-53.755623516077264
42
-0.41421356237351126
0
LWPOLYLINE
5
262
100
AcDbEntity
8
0
100
AcDbPolyline
90
8
70
1
43
0.0
10
-18.206250004789588
20
-45.50562351710326
42
0.41421356254334551
10
-18.956250002756541
20
-46.255623515506237
10
-18.956249998403916
20
-53.755623541038261
42
0.41421356203257342
10
-18.206250006965554
20
-54.505623532474573
10
-1.7062500052245255
20
-54.505623542052888
42
0.41421356237349738
10
-0.956250002755894
20
-53.755623540457265
10
-0.95624999840341118
20
-46.255623517538226
42
0.41421356254372699
10
-1.7062499984035639
20
-45.505623517101071
0
LWPOLYLINE
5
263
100
AcDbEntity
8
0
100
AcDbPolyline
90
16
70
1
43
0.0
10
114.55625000000052
20
-54.506103590576288
42
0.41421356237303952
10
115.30625000000055
20
-53.756103590576259
10
115.30624999999961
20
-26.59862189629024
42
0.043660942908542062
10
115.23028876506064
20
-25.730381007956211
10
113.35182674096447
20
-15.077093481852229
42
-0.043660942908749827
10
113.30625000000052
20
-14.556148948848247
10
113.30625000000047
20
8.3438963970487734
42
0.41421356237320606
10
112.55625000000055
20
9.0938963970488373
10
112.05625000000052
20
9.0938963970488373
42
0.41421356237308116
10
111.3062500000004
20
8.3438963970487734
10
111.30625000000097
20
-14.556148948848247
42
0.043660942908408988
10
111.38221123493966
20
-15.424389837181174
10
113.26067325903739
20
-26.07767736329226
42
-0.043660942908365072
10
113.30625000000052
20
-26.59862189629024
10
113.30625000000052
20
-53.756103590576259
42
0.41421356237303952
10
114.05625000000055
20
-54.506103590576288
0
LWPOLYLINE
5
264
100
AcDbEntity
8
0
100
AcDbPolyline
90
16
70
1
43
0.0
10
114.05625000000055
20
54.506396397043808
42
0.41421356237310897
10
113.30625000000052
20
53.756396397043744
10
113.30625000000032
20
21.836414690383741
42
0.043660942908613332
10
113.38221123493921
20
20.968173802049712
10
115.26067325903648
20
10.314886275945952
42
-0.043660942908887647
10
115.30625000000055
20
9.793941742941783
10
115.3062500000005
20
-13.106103602953283
42
0.41421356237315055
10
116.05625000000049
20
-13.856103602953276
10
116.55625000000055
20
-13.856103602953276
42
0.41421356237310897
10
117.30625000000049
20
-13.106103602953283
10
117.30625000000006
20
9.7939417429417848
42
0.043660942908485538
10
117.23028876506132
20
10.662182631274781
10
115.35182674096342
20
21.315470157385729
42
-0.04366094290850122
10
115.30625000000055
20
21.836414690383741
10
115.30625000000055
20
53.756396397043744
42
0.41421356237310897
10
114.55625000000052
20
54.506396397043808
0
LWPOLYLINE
5
265
100
AcDbEntity
8
0
100
AcDbPolyline
90
8
70
1
43
0.0
10
-57.46874999999946
20
36.756396397052775
10
-57.46874999999946
20
48.256396397043737
42
-0.41421356237309503
10
-56.718749999999574
20
49.006396397043623
10
-52.818749999999568
20
49.006396397043765
42
-0.4142135623730534
10
-52.068749999999575
20
48.256396397043737
10
-52.068749999999717
20
36.756396397052775
42
-0.41421356237306733
10
-52.818749999999568
20
36.006396397052853
10
-56.718749999999574
20
36.006396397052889
42
-0.41421356237309503
0
LWPOLYLINE
5
266
100
AcDbEntity
8
0
100
AcDbPolyline
90
8
70
1
43
0.0
10
32.906250000000448
20
36.00639639704589
42
0.41421356237306733
10
33.656250000000334
20
36.756396397045705
10
33.656250000000441
20
48.256396397045727
42
0.41421356237309503
10
32.906250000000448
20
49.006396397045719
10
29.006250000001437
20
49.006396397045755
42
0.41421356237389978
10
28.256249999999419
20
48.256396397045727
10
28.256250000001515
20
36.756396397045705
42
0.41421356237306733
10
29.006250000001437
20
36.006396397045854
0
LWPOLYLINE
5
267
100
AcDbEntity
8
0
100
AcDbPolyline
90
8
70
1
43
0.0
10
-153.29374999999897
20
-57.006103602960245
42
0.41421356237308815
10
-152.54374999999897
20
-56.256103602960259
10
-152.54374999999897
20
-43.756103602960259
42
0.41421356237308815
10
-153.29374999999897
20
-43.006103602960252
10
-165.79374999999897
20
-43.006103602960252
42
0.41421356237309503
10
-166.54374999999899
20
-43.756103602960259
10
-166.54374999999897
20
-56.256103602960259
42
0.41421356237308815
10
-165.79374999999897
20
-57.006103602960252
0
LWPOLYLINE
5
268
100
AcDbEntity
8
0
100
AcDbPolyline
90
8
70
1
43
0.0
10
157.30625000000043
20
43.756396397045698
10
157.30625000000049
20
56.256396397045698
42
-0.41421356237312279
10
158.05625000000046
20
57.006396397045727
10
170.55625000000046
20
57.006396397045762
42
-0.41421356237316442
10
171.30625000000049
20
56.256396397045698
10
171.3062500000004
20
43.756396397045698
42
-0.41421356237316442
10
170.55625000000046
20
43.006396397045847
10
158.05625000000046
20
43.00639639704567
42
-0.41421356237298407
0
LWPOLYLINE
5
269
100
AcDbEntity
8
0
100
AcDbPolyline
90
12
70
1
43
0.0
10
-143.56562499999919
20
-15.906103602960307
10
-146.06562499999916
20
-15.906103602960272
42
-0.41421356237310153
10
-148.06562499999927
20
-13.906103602960286
10
-148.06562499999922
20
-8.406103602960286
42
-0.41421356237315354
10
-147.56562499999919
20
-7.9061036029603038
10
-147.06562499999913
20
-7.9061036029602789
42
-0.41421356237310414
10
-146.56562499999916
20
-8.4061036029602842
10
-146.56562499999916
20
-13.906103602960286
42
0.41421356237312101
10
-146.06562499999919
20
-14.406103602960179
10
-143.56562499999919
20
-14.40610360296025
42
-0.41421356237307422
10
-143.06562499999922
20
-14.906103602960187
10
-143.06562499999924
20
-15.406103602960282
42
-0.4142135623730534
0
LWPOLYLINE
5
270
100
AcDbEntity
8
0
100
AcDbPolyline
90
8
70
1
43
0.0
10
-132.95287499999901
20
-24.956103602959182
10
-132.45287499999901
20
-24.956103602959171
42
-0.41421356237309503
10
-131.95287499999898
20
-25.456103602959178
10
-131.95287499999904
20
-36.456103602959246
42
-0.41421356237309503
10
-132.45287499999901
20
-36.956103602959239
10
-132.95287499999901
20
-36.956103602959246
42
-0.41421356237309503
10
-133.45287499999901
20
-36.456103602959246
10
-133.45287499999901
20
-25.456103602959182
42
-0.41421356237309503
0
LWPOLYLINE
5
271
100
AcDbEntity
8
0
100
AcDbPolyline
90
8
70
1
43
0.0
10
85.975000000001387
20
1.143896397039752
10
85.475000000001415
20
1.1438963970397698
42
-0.41421356237312623
10
84.975000000001458
20
1.6438963970397058
10
84.975000000001387
20
12.643896397039702
42
-0.41421356237307422
10
85.475000000001415
20
13.143896397039834
10
85.975000000001387
20
13.143896397039709
42
-0.41421356237311585
10
86.47500000000143
20
12.643896397039702
10
86.475000000001359
20
1.6438963970397058
42
-0.4142135623730846
0
LWPOLYLINE
5
272
100
AcDbEntity
8
0
100
AcDbPolyline
90
8
70
1
43
0.0
10
63.353125000001427
20
-36.956103602960027
10
62.853125000001455
20
-36.956103602960006
42
-0.41421356237312623
10
62.353125000001498
20
-36.45610360296007
10
62.353125000001427
20
-25.456103602960077
42
-0.41421356237307422
10
62.853125000001455
20
-24.956103602959946
10
63.353125000001427
20
-24.95610360296007
42
-0.41421356237311585
10
63.853125000001469
20
-25.456103602960077
10
63.853125000001398
20
-36.45610360296007
42
-0.4142135623730846
0
ENDSEC
0
SECTION
2
OBJECTS
0
DICTIONARY
5
C
100
AcDbDictionary
3
ACAD_GROUP
350
D
3
ACAD_MLINESTYLE
350
17
0
DICTIONARY
5
D
100
AcDbDictionary
0
DICTIONARY
5
1A
330
C
100
AcDbDictionary
0
DICTIONARY
5
17
100
AcDbDictionary
0
ENDSEC
0
EOF
