0
SECTION
2
HEADER
9
$INSUNITS
70
4
9
$ACADVER
1
AC1014
9
$HANDSEED
5
FFFF
0
ENDSEC
0
SECTION
2
TABLES
0
TABLE
2
VPORT
5
8
100
AcDbSymbolTable
0
ENDTAB
0
TABLE
2
LTYPE
5
5
100
AcDbSymbolTable
0
LTYPE
5
14
100
AcDbSymbolTableRecord
100
AcDbLinetypeTableRecord
2
BYBLOCK
70
0
0
LTYPE
5
15
100
AcDbSymbolTableRecord
100
AcDbLinetypeTableRecord
2
BYLAYER
70
0
0
LTYPE
5
16
100
AcDbSymbolTableRecord
100
AcDbLinetypeTableRecord
2
DASHED
70
0
3
Dashed __ __ __ __ __ __ __ __ __ __ __ __ __ _
72
65
73
2
40
0.75
49
0.5
74
0
49
-0.25
74
0
0
ENDTAB
0
TABLE
2
LAYER
5
2
100
AcDbSymbolTable
70
2
0
LAYER
5
50
100
AcDbSymbolTableRecord
100
AcDbLayerTableRecord
2
0
70
0
62
7
6
CONTINUOUS
0
ENDTAB
0
TABLE
2
STYLE
5
3
100
AcDbSymbolTable
70
1
0
STYLE
5
11
100
AcDbSymbolTableRecord
100
AcDbTextStyleTableRecord
2
STANDARD
70
0
0
ENDTAB
0
TABLE
2
VIEW
5
6
100
AcDbSymbolTable
70
0
0
ENDTAB
0
TABLE
2
UCS
5
7
100
AcDbSymbolTable
70
0
0
ENDTAB
0
TABLE
2
APPID
5
9
100
AcDbSymbolTable
70
2
0
APPID
5
12
100
AcDbSymbolTableRecord
100
AcDbRegAppTableRecord
2
ACAD
70
0
0
ENDTAB
0
TABLE
2
DIMSTYLE
5
A
100
AcDbSymbolTable
70
1
0
ENDTAB
0
TABLE
2
BLOCK_RECORD
5
1
100
AcDbSymbolTable
70
1
0
BLOCK_RECORD
5
1F
100
AcDbSymbolTableRecord
100
AcDbBlockTableRecord
2
*MODEL_SPACE
0
BLOCK_RECORD
5
1B
100
AcDbSymbolTableRecord
100
AcDbBlockTableRecord
2
*PAPER_SPACE
0
ENDTAB
0
ENDSEC
0
SECTION
2
BLOCKS
0
BLOCK
5
20
100
AcDbEntity
100
AcDbBlockBegin
2
*MODEL_SPACE
0
ENDBLK
5
21
100
AcDbEntity
100
AcDbBlockEnd
0
BLOCK
5
1C
100
AcDbEntity
100
AcDbBlockBegin
2
*PAPER_SPACE
0
ENDBLK
5
1D
100
AcDbEntity
100
AcDbBlockEnd
0
ENDSEC
0
SECTION
2
ENTITIES
0
LWPOLYLINE
5
100
100
AcDbEntity
8
0
100
AcDbPolyline
90
46
70
1
43
0.0
10
-102.35400001009995
20
-51.024999999999999
10
-102.35400001010008
20
-50.255000136300303
42
-0.41421356237313273
10
-100.35400001010011
20
-48.255000136299998
10
100.05999998990004
20
-48.255000136299991
42
-0.41421356237310802
10
102.05999998990004
20
-50.25500013630009
10
102.05999998989998
20
-51.024999999999999
42
0.99999999999999989
10
107.05999998990001
20
-51.024999999999999
10
107.05999998990009
20
-50.255000136299714
42
-0.41421356237304169
10
109.05999998989999
20
-48.255000136299991
10
112.10999852089763
20
-48.255000136299991
42
0.41421356237496415
10
114.10999982459765
20
-46.254998832587276
10
114.10999982450207
20
-31.235000000012725
42
-0.41421356237495177
10
116.10999982450207
20
-29.234999999999985
10
140.63999999999999
20
-29.234999999999989
42
0.41421356237309243
10
142.63999999999999
20
-27.234999999999985
10
142.63999999999999
20
44.824998369300026
42
0.41421356237309631
10
140.63999869629995
20
46.824999673000022
10
137.55999998990006
20
46.824999673000001
42
-0.41421356237310153
10
135.55999998989995
20
48.824999673000022
10
135.55999998990001
20
51.02500000000002
42
0.99999999999999989
10
130.15999998990003
20
51.024999999999999
10
130.15999998989994
20
48.824999673000022
42
-0.41421356237309243
10
128.15999998990003
20
46.824999673000008
10
18.709999989900012
20
46.824999673000022
42
-0.41421356237309892
10
16.709999989899977
20
48.824999673000008
10
16.709999989899984
20
51.02500000000002
42
0.99999999999999989
10
11.309999989899994
20
51.02500000000002
10
11.309999989899993
20
48.824999673000029
42
-0.41421356237310086
10
9.3099999898999855
20
46.824999673000001
10
-128.44000001010005
20
46.824999672999994
42
-0.41421356237309503
10
-130.44000001010008
20
48.824999673000022
10
-130.44000001010002
20
51.02500000000002
42
0.99999999999999989
10
-135.84000001009994
20
51.025000000000055
10
-135.84000001010008
20
48.824999673000022
42
-0.41421356237309243
10
-137.84000001010008
20
46.824999673000008
10
-140.64000195240001
20
46.824999673000029
42
0.41421356237308332
10
-142.63999999999999
20
44.825001625399999
10
-142.64000000000007
20
-27.234999999999985
42
0.41421356237309503
10
-140.64000000000004
20
-29.234999999999978
10
-116.11000052640006
20
-29.235000000000003
42
-0.41421356237309176
10
-114.11000052640004
20
-31.234999999999992
10
-114.11000052640003
20
-46.255000136299998
42
0.41421356237309631
10
-112.1100005264
20
-48.255000136299998
10
-109.75400001010004
20
-48.255000136299984
42
-0.41421356237309631
10
-107.75400001010001
20
-50.255000136300019
10
-107.75400001010001
20
-51.024999999999999
42
0.99999999999999989
0
LWPOLYLINE
5
101
100
AcDbEntity
8
0
100
AcDbPolyline
90
23
70
1
43
0.0
10
109.32488749995201
20
6.3047389494847756
42
0.30564902910973973
10
108.32827767431077
20
5.6328698789997436
42
-0.30563932784214354
10
107.46758749995197
20
5.0526019494848118
10
107.46758749995197
20
5.0525899494847781
10
106.61402449995201
20
5.0525899494847977
42
0.41669298652265396
10
105.1769974418287
20
3.6274499494772168
10
105.17699749990989
20
-3.9732900505764683
42
0.414211095909993
10
106.60198750002411
20
-5.3982900505151932
10
107.00608749995199
20
-5.3982900505152038
42
-0.31268021564692494
10
108.62125686028946
20
-6.5178402903750774
42
0.31269366156762957
10
110.37708749998785
20
-7.7347603675146637
10
132.12793750012611
20
-7.7347623399894623
42
0.31265464049188441
10
133.88362749970474
20
-6.5178500511748876
42
-0.31268113368330669
10
135.49883749995203
20
-5.3982900505152021
10
135.89097053055724
20
-5.3982863475681473
42
0.41662887630310808
10
137.327877499952
20
-3.9732500504774837
10
137.327877499952
20
3.6276499494847858
10
137.32785250017136
20
3.6276499494847863
42
0.41421870106896974
10
135.9028874999878
20
5.0525899494847959
10
135.03728749968229
20
5.0525801000566108
42
-0.30560633103329637
10
134.17659917821379
20
5.6328706282946044
42
0.30560868445813455
10
133.18008749992697
20
6.3047499494848047
10
109.32488749995201
20
6.3047499494847958
0
LWPOLYLINE
5
102
100
AcDbEntity
8
0
100
AcDbPolyline
90
8
70
1
43
0.0
10
-92.505000000000052
20
4.260000673000004
10
-92.505000000000095
20
-5.6899993269999882
42
-0.41421356237309426
10
-94.580000000000069
20
-7.7649993269999875
10
-105.13000000000002
20
-7.7649993269999857
42
-0.41421356237309537
10
-107.20500000000001
20
-5.6899993269999882
10
-107.20500000000003
20
4.2600006730000031
42
-0.41421356237309709
10
-105.13
20
6.3350006730000095
10
-94.580000000000098
20
6.3350006730000219
42
-0.41421356237309326
0
LWPOLYLINE
5
103
100
AcDbEntity
8
0
100
AcDbPolyline
90
12
70
1
43
0.0
10
94.911250000000038
20
-22.735000326999845
10
94.911250000000052
20
-23.235000326999934
42
-0.41421356237305862
10
94.411250000000109
20
-23.73500032699997
10
91.911250000000024
20
-23.735000326999934
42
-0.41421356237309176
10
89.911250000000024
20
-21.735000326999945
10
89.911250000000052
20
-16.235000326999945
42
-0.41421356237313273
10
90.411250000000052
20
-15.735000326999964
10
90.911250000000081
20
-15.735000326999939
42
-0.41421356237310414
10
91.411250000000081
20
-16.235000326999945
10
91.411250000000052
20
-21.735000326999945
42
0.41421356237308204
10
91.911250000000024
20
-22.23500032699992
10
94.411250000000024
20
-22.235000326999913
42
-0.41421356237309243
0
LWPOLYLINE
5
104
100
AcDbEntity
8
0
100
AcDbPolyline
90
8
70
1
43
0.0
10
-7.391429901100004
20
-43.730000326999999
10
-7.3914299010999818
20
-33.780000327000018
42
-0.41421356237309381
10
-5.3164299010999772
20
-31.705000327000011
10
5.2335700989000244
20
-31.705000327000011
42
-0.41421356237308943
10
7.308570098899998
20
-33.780000327000018
10
7.3085700989000202
20
-43.730000326999999
42
-0.41421356237309659
10
5.2335700989000227
20
-45.805000327000009
10
-5.3164299010999727
20
-45.805000327000009
42
-0.41421356237310136
0
LWPOLYLINE
5
105
100
AcDbEntity
8
0
100
AcDbPolyline
90
8
70
1
43
0.0
10
-75.559999999999945
20
-45.805000326999988
10
-86.110000000000014
20
-45.805000326999988
42
-0.41421356237309881
10
-88.184999999999988
20
-43.730000326999985
10
-88.184999999999988
20
-33.780000326999996
42
-0.41421356237310192
10
-86.109999999999985
20
-31.705000326999983
10
-75.559999999999945
20
-31.705000326999993
42
-0.4142135623730957
10
-73.484999999999943
20
-33.780000326999996
10
-73.484999999999943
20
-43.730000326999985
42
-0.41421356237309631
0
LWPOLYLINE
5
106
100
AcDbEntity
8
0
100
AcDbPolyline
90
8
70
1
43
0.0
10
-89.825000999999986
20
30.274999673000018
10
-100.375001
20
30.274999673000021
42
-0.41421356237309948
10
-102.45000099999997
20
32.349999673000028
10
-102.450001
20
42.299999673000023
42
-0.41421356237309004
10
-100.37500100000001
20
44.374999673000019
10
-89.825000999999986
20
44.374999673000019
42
-0.41421356237309254
10
-87.750000999999983
20
42.299999673000023
10
-87.750000999999969
20
32.349999673000028
42
-0.41421356237309381
0
LWPOLYLINE
5
107
100
AcDbEntity
8
0
100
AcDbPolyline
90
8
70
1
43
0.0
10
-80.315000000000055
20
11.255000672999998
42
0.41421356237309537
10
-78.240000000000052
20
13.330000672999995
10
-78.240000000000038
20
23.280000672999993
42
0.41421356237309254
10
-80.315000000000055
20
25.355000672999985
10
-90.865000000000009
20
25.355000673000006
42
0.41421356237309814
10
-92.940000000000083
20
23.280000672999989
10
-92.94000000000004
20
13.330000672999995
42
0.41421356237310536
10
-90.864999999999981
20
11.255000673
0
LWPOLYLINE
5
108
100
AcDbEntity
8
0
100
AcDbPolyline
90
8
70
1
43
0.0
10
-85.069999999999993
20
-26.785000326999977
42
0.4142135623730907
10
-82.995000000000005
20
-24.710000326999978
10
-82.995000000000019
20
-14.760000326999982
42
0.41421356237309415
10
-85.070000000000022
20
-12.685000326999987
10
-95.620000000000033
20
-12.685000326999965
42
0.41421356237309315
10
-97.69500000000005
20
-14.760000326999982
10
-97.695000000000022
20
-24.710000326999978
42
0.41421356237309315
10
-95.620000000000005
20
-26.785000326999974
0
LWPOLYLINE
5
109
100
AcDbEntity
8
0
100
AcDbPolyline
90
8
70
1
43
0.0
10
78.240000000000038
20
13.330000672999995
42
0.41421356237309037
10
80.315000000000026
20
11.255000672999998
10
90.865000000000066
20
11.255000672999994
42
0.4142135623730907
10
92.94000000000004
20
13.330000672999995
10
92.94000000000004
20
23.280000672999993
42
0.41421356237309315
10
90.865000000000038
20
25.355000672999985
10
80.315000000000055
20
25.355000672999985
42
0.41421356237309381
10
78.240000000000009
20
23.280000672999989
0
LWPOLYLINE
5
110
100
AcDbEntity
8
0
100
AcDbPolyline
90
8
70
1
43
0.0
10
102.45000000000007
20
42.299999673000023
42
0.41421356237309004
10
100.37500000000009
20
44.374999673000019
10
89.825000000000031
20
44.374999673000019
42
0.41421356237309004
10
87.750000000000028
20
42.299999673000023
10
87.750000000000043
20
32.349999673000028
42
0.41421356237309126
10
89.825000000000017
20
30.274999673000018
10
100.37500000000006
20
30.274999673000018
42
0.41421356237308754
10
102.45000000000007
20
32.349999673000028
0
LWPOLYLINE
5
111
100
AcDbEntity
8
0
100
AcDbPolyline
90
8
70
1
43
0.0
10
-71.845001000000053
20
25.355000672999992
42
0.41421356237309692
10
-73.920001000000028
20
23.280000672999993
10
-73.920001000000028
20
13.330000672999995
42
0.41421356237309759
10
-71.845001000000053
20
11.255000673
10
-61.295000999999978
20
11.255000672999998
42
0.41421356237309725
10
-59.220001000000018
20
13.330000672999995
10
-59.220000999999982
20
23.280000672999993
42
0.41421356237309381
10
-61.295000999999978
20
25.355000672999985
0
LWPOLYLINE
5
112
100
AcDbEntity
8
0
100
AcDbPolyline
90
8
70
1
43
0.0
10
-68.729999999999976
20
42.299999673000023
42
0.41421356237309503
10
-70.804999999999978
20
44.374999673000019
10
-81.35499999999999
20
44.374999673000019
42
0.41421356237309004
10
-83.430000000000007
20
42.299999673000023
10
-83.429999999999978
20
32.349999673000028
42
0.4142135623730831
10
-81.355000000000047
20
30.274999673000032
10
-70.805000000000021
20
30.274999673000011
42
0.41421356237309315
10
-68.730000000000018
20
32.349999673000028
0
LWPOLYLINE
5
113
100
AcDbEntity
8
0
100
AcDbPolyline
90
8
70
1
43
0.0
10
-0.51999999999999602
20
-12.685000326999978
10
10.030000000000037
20
-12.68500032699998
42
-0.41421356237308971
10
12.105000000000006
20
-14.760000326999982
10
12.104999999999997
20
-24.710000326999978
42
-0.4142135623730957
10
10.030000000000001
20
-26.785000326999977
10
-0.51999999999999591
20
-26.785000326999974
42
-0.41421356237309503
10
-2.5949999999999918
20
-24.710000326999978
10
-2.5949999999999984
20
-14.760000326999982
42
-0.41421356237309537
0
LWPOLYLINE
5
114
100
AcDbEntity
8
0
100
AcDbPolyline
90
8
70
1
43
0.0
10
-108.84500000000008
20
30.274999673000018
42
0.41421356237310258
10
-106.77000000000008
20
32.349999673000028
10
-106.77000000000005
20
42.299999673000023
42
0.41421356237309254
10
-108.84500000000006
20
44.374999673000019
10
-119.39500000000007
20
44.374999673000019
42
0.41421356237309759
10
-121.47000000000003
20
42.299999673000023
10
-121.46999999999998
20
32.349999673000028
42
0.41421356237308626
10
-119.39500000000007
20
30.274999673000032
0
LWPOLYLINE
5
115
100
AcDbEntity
8
0
100
AcDbPolyline
90
8
70
1
43
0.0
10
35.445000000000029
20
-24.710000326999978
10
35.445000000000022
20
-14.760000326999982
42
-0.4142135623730957
10
37.520000000000024
20
-12.685000326999978
10
48.070000000000022
20
-12.685000326999987
42
-0.41421356237309631
10
50.14500000000001
20
-14.760000326999982
10
50.145000000000024
20
-24.710000326999978
42
-0.41421356237309381
10
48.070000000000022
20
-26.785000326999974
10
37.519999999999989
20
-26.785000326999942
42
-0.4142135623730957
0
LWPOLYLINE
5
116
100
AcDbEntity
8
0
100
AcDbPolyline
90
8
70
1
43
0.0
10
-38.560000999999986
20
-12.685000326999983
42
0.41421356237309692
10
-40.635000999999988
20
-14.760000326999982
10
-40.635000999999988
20
-24.710000326999978
42
0.41421356237309631
10
-38.560000999999993
20
-26.785000326999988
10
-28.010000999999999
20
-26.785000326999974
42
0.41421356237309631
10
-25.935001
20
-24.710000326999978
10
-25.935000999999996
20
-14.760000326999982
42
0.41421356237309537
10
-28.010000999999995
20
-12.685000326999978
0
LWPOLYLINE
5
117
100
AcDbEntity
8
0
100
AcDbPolyline
90
8
70
1
43
0.0
10
54.90000000000002
20
23.280000672999993
42
0.41421356237309503
10
52.825000000000024
20
25.355000672999989
10
42.274999999999999
20
25.355000672999992
42
0.41421356237309814
10
40.199999999999996
20
23.280000672999989
10
40.199999999999989
20
13.330000672999995
42
0.41421356237309348
10
42.274999999999991
20
11.255000673
10
52.825000000000024
20
11.255000672999998
42
0.41421356237309537
10
54.899999999999984
20
13.330000672999995
0
LWPOLYLINE
5
118
100
AcDbEntity
8
0
100
AcDbPolyline
90
8
70
1
43
0.0
10
62.334999999999994
20
30.274999673000021
42
0.4142135623730957
10
64.409999999999997
20
32.349999673000028
10
64.410000000000011
20
42.299999673000023
42
0.41421356237309254
10
62.334999999999994
20
44.374999673000019
10
51.785000000000032
20
44.374999673000005
42
0.41421356237309254
10
49.710000000000036
20
42.299999673000023
10
49.710000000000029
20
32.349999673000028
42
0.41421356237309631
10
51.785000000000032
20
30.274999673000018
0
LWPOLYLINE
5
119
100
AcDbEntity
8
0
100
AcDbPolyline
90
8
70
1
43
0.0
10
-49.710001000000013
20
42.299999673000023
42
0.41421356237309503
10
-51.785001000000008
20
44.374999673000019
10
-62.335001000000034
20
44.374999673000005
42
0.41421356237309631
10
-64.410000999999994
20
42.299999673000023
10
-64.410001000000022
20
32.349999673000028
42
0.4142135623730957
10
-62.335001000000005
20
30.274999673000018
10
-51.785001000000022
20
30.274999673000011
42
0.41421356237309315
10
-49.710001000000013
20
32.349999673000028
0
LWPOLYLINE
5
120
100
AcDbEntity
8
0
100
AcDbPolyline
90
4
70
1
43
0.0
10
13.009999989899981
20
48.189999999999998
42
0.99999999999999989
10
13.009999989899967
20
46.689999999999998
10
15.009999989900006
20
46.689999999999976
42
0.99999999999999989
10
15.009999989900003
20
48.189999999999984
0
LWPOLYLINE
5
121
100
AcDbEntity
8
0
100
AcDbPolyline
90
8
70
1
43
0.0
10
-120.73249999999999
20
-7.764999326999984
10
-131.28250000000006
20
-7.7649993269999822
42
-0.41421356237309975
10
-133.35750000000002
20
-5.6899993269999882
10
-133.35750000000002
20
4.260000673000004
42
-0.41421356237309737
10
-131.28250000000006
20
6.3350006730000166
10
-120.73249999999999
20
6.3350006729999944
42
-0.41421356237309415
10
-118.65749999999998
20
4.2600006730000048
10
-118.65749999999997
20
-5.6899993269999882
42
-0.41421356237309287
0
LWPOLYLINE
5
122
100
AcDbEntity
8
0
100
AcDbPolyline
90
8
70
1
43
0.0
10
-139.50750000000002
20
-6.2149993269999859
42
0.41421356237309936
10
-138.00750000000005
20
-7.7149993269999895
10
-137.4075
20
-7.7149993269999975
42
0.41421356237309048
10
-135.90750000000003
20
-6.2149993269999815
10
-135.90750000000008
20
4.7850006730000008
42
0.41421356237309453
10
-137.40750000000008
20
6.2850006730000008
10
-138.00750000000005
20
6.2850006730000167
42
0.41421356237309453
10
-139.50750000000011
20
4.7850006729999972
0
LWPOLYLINE
5
123
100
AcDbEntity
8
0
100
AcDbPolyline
90
8
70
1
43
0.0
10
62.832264487999971
20
-45.754996732799995
42
0.41421356237308782
10
63.907264487999988
20
-44.679996732800006
10
63.907264487999967
20
-32.929996732800014
42
0.41421356237309387
10
62.832264487999971
20
-31.854996732800018
10
51.382264487999976
20
-31.854996732800021
42
0.41421356237309626
10
50.307264487999994
20
-32.929996732800014
10
50.307264487999994
20
-44.679996732800006
42
0.41421356237309742
10
51.382264487999976
20
-45.754996732799995
0
LWPOLYLINE
5
124
100
AcDbEntity
8
0
100
AcDbPolyline
90
8
70
1
43
0.0
10
-63.967735512000026
20
-44.679996732800006
10
-63.967735512000019
20
-32.929996732800014
42
-0.41421356237308898
10
-62.89273551200003
20
-31.854996732800011
10
-51.442735512000013
20
-31.854996732800011
42
-0.41421356237309626
10
-50.36773551200001
20
-32.929996732800014
10
-50.367735512000024
20
-44.679996732800006
42
-0.41421356237309742
10
-51.44273551200002
20
-45.754996732799995
10
-62.892735512000009
20
-45.754996732800009
42
-0.41421356237309265
0
LWPOLYLINE
5
125
100
AcDbEntity
8
0
100
AcDbPolyline
90
8
70
1
43
0.0
10
-140.49000000000004
20
32.349999673000028
10
-140.49000000000004
20
42.299999673000023
42
-0.41421356237310136
10
-138.41500000000002
20
44.374999673000005
10
-127.86500000000001
20
44.374999673000019
42
-0.41421356237309254
10
-125.78999999999999
20
42.299999673000023
10
-125.78999999999999
20
32.349999673000028
42
-0.41421356237309631
10
-127.86500000000001
20
30.274999673000007
10
-138.41499999999999
20
30.274999673000078
42
-0.41421356237310381
0
LWPOLYLINE
5
126
100
AcDbEntity
8
0
100
AcDbPolyline
90
8
70
1
43
0.0
10
-123.11000000000001
20
11.25500067300004
42
0.41421356237309315
10
-121.03500000000005
20
13.330000673000022
10
-121.03500000000004
20
23.280000673000018
42
0.41421356237309631
10
-123.11000000000004
20
25.355000673000021
10
-133.66000000000011
20
25.355000673000021
42
0.41421356237310003
10
-135.73500000000007
20
23.280000673000025
10
-135.73500000000007
20
13.330000673000022
42
0.41421356237309975
10
-133.66000000000011
20
11.255000673000026
0
LWPOLYLINE
5
127
100
AcDbEntity
8
0
100
AcDbPolyline
90
4
70
1
43
0.0
10
-132.14000001010004
20
46.690000000000055
42
0.99999999999999989
10
-132.14000001010004
20
48.190000000000083
10
-134.14000001009998
20
48.190000000000104
42
0.99999999999999989
10
-134.14000001010007
20
46.690000000000104
0
LWPOLYLINE
5
128
100
AcDbEntity
8
0
100
AcDbPolyline
90
4
70
1
43
0.0
10
-106.30400001009997
20
-46.689999999999941
42
0.99999999999999989
10
-106.30400001010001
20
-48.189999999999948
10
-103.80400001010001
20
-48.189999999999948
42
0.99999999999999989
10
-103.8040000101
20
-46.689999999999941
0
LWPOLYLINE
5
129
100
AcDbEntity
8
0
100
AcDbPolyline
90
4
70
1
43
0.0
10
103.30999998989995
20
-46.689999999999984
10
105.80999998990001
20
-46.689999999999984
42
-0.99999999999999989
10
105.80999998990001
20
-48.189999999999991
10
103.30999998989998
20
-48.190000000000012
42
-0.99999999999999989
0
LWPOLYLINE
5
130
100
AcDbEntity
8
0
100
AcDbPolyline
90
8
70
1
43
0.0
10
21.180000000000017
20
13.330000672999995
42
0.41421356237309503
10
23.25500000000002
20
11.255000673
10
33.804999999999986
20
11.255000672999998
42
0.41421356237309348
10
35.879999999999974
20
13.330000672999995
10
35.88000000000001
20
23.280000672999993
42
0.41421356237309442
10
33.805000000000014
20
25.355000672999985
10
23.254999999999995
20
25.355000672999985
42
0.41421356237309759
10
21.179999999999986
20
23.280000672999989
0
LWPOLYLINE
5
131
100
AcDbEntity
8
0
100
AcDbPolyline
90
8
70
1
43
0.0
10
30.689999999999991
20
32.349999673000028
10
30.690000000000026
20
42.299999673000023
42
-0.41421356237309381
10
32.765000000000022
20
44.374999673000005
10
43.315000000000019
20
44.374999673000019
42
-0.41421356237309631
10
45.390000000000008
20
42.299999673000023
10
45.390000000000022
20
32.349999673000028
42
-0.4142135623730957
10
43.315000000000026
20
30.274999673000011
10
32.765000000000022
20
30.274999672999993
42
-0.4142135623730957
0
LWPOLYLINE
5
132
100
AcDbEntity
8
0
100
AcDbPolyline
90
8
70
1
43
0.0
10
24.295000000000009
20
30.274999673000018
42
0.41421356237309692
10
26.370000000000008
20
32.349999673000028
10
26.370000000000001
20
42.299999673000023
42
0.41421356237309503
10
24.295000000000009
20
44.374999673000019
10
13.745000000000012
20
44.374999673000019
42
0.41421356237309381
10
11.66999999999998
20
42.299999673000023
10
11.670000000000012
20
32.349999673000028
42
0.41421356237309692
10
13.745000000000012
20
30.274999673000018
0
LWPOLYLINE
5
133
100
AcDbEntity
8
0
100
AcDbPolyline
90
8
70
1
43
0.0
10
-45.390000000000015
20
32.349999673000028
10
-45.390000000000001
20
42.299999673000023
42
-0.41421356237309126
10
-43.314999999999991
20
44.374999673000019
10
-32.765000000000022
20
44.374999673000019
42
-0.41421356237309503
10
-30.690000000000026
20
42.299999673000023
10
-30.690000000000012
20
32.349999673000028
42
-0.41421356237309442
10
-32.765000000000015
20
30.274999673000018
10
-43.315000000000019
20
30.274999673000025
42
-0.41421356237309631
0
LWPOLYLINE
5
134
100
AcDbEntity
8
0
100
AcDbPolyline
90
8
70
1
43
0.0
10
-54.90000000000002
20
13.330000672999995
10
-54.900000000000034
20
23.280000672999989
42
-0.4142135623730957
10
-52.825000000000024
20
25.355000673000006
10
-42.275000000000027
20
25.355000672999989
42
-0.41421356237309254
10
-40.200000000000017
20
23.280000672999993
10
-40.200000000000024
20
13.330000672999995
42
-0.41421356237309126
10
-42.275000000000006
20
11.255000673
10
-52.825000000000024
20
11.255000672999989
42
-0.41421356237309659
0
LWPOLYLINE
5
135
100
AcDbEntity
8
0
100
AcDbPolyline
90
8
70
1
43
0.0
10
-26.370000000000012
20
32.349999673000028
42
0.4142135623730957
10
-24.295000000000012
20
30.274999673000018
10
-13.745000000000005
20
30.274999673000018
42
0.4142135623730947
10
-11.66999999999998
20
32.349999673000028
10
-11.670000000000007
20
42.299999673000023
42
0.41421356237309381
10
-13.745000000000012
20
44.374999673000019
10
-24.295000000000009
20
44.374999673000005
42
0.41421356237309381
10
-26.37000000000004
20
42.299999673000023
0
LWPOLYLINE
5
136
100
AcDbEntity
8
0
100
AcDbPolyline
90
8
70
1
43
0.0
10
-33.805001000000026
20
25.355000672999992
10
-23.255001000000028
20
25.355000673000006
42
-0.4142135623730957
10
-21.180001000000019
20
23.280000672999993
10
-21.180001000000026
20
13.330000672999995
42
-0.41421356237309348
10
-23.255001000000025
20
11.255000672999998
10
-33.805001000000026
20
11.255000673
42
-0.41421356237309315
10
-35.880001000000036
20
13.330000672999995
10
-35.880001000000028
20
23.280000672999989
42
-0.41421356237309503
0
LWPOLYLINE
5
137
100
AcDbEntity
8
0
100
AcDbPolyline
90
8
70
1
43
0.0
10
-57.579999999999991
20
-12.685000326999985
42
0.41421356237309415
10
-59.654999999999994
20
-14.760000326999982
10
-59.654999999999987
20
-24.710000326999978
42
0.4142135623730957
10
-57.579999999999991
20
-26.785000326999974
10
-47.029999999999994
20
-26.785000326999974
42
0.41421356237309381
10
-44.954999999999998
20
-24.710000326999978
10
-44.955000000000005
20
-14.760000326999982
42
0.41421356237309692
10
-47.029999999999994
20
-12.685000326999978
0
LWPOLYLINE
5
138
100
AcDbEntity
8
0
100
AcDbPolyline
90
8
70
1
43
0.0
10
29.050000000000018
20
-26.785000326999977
42
0.41421356237309254
10
31.125000000000021
20
-24.710000326999978
10
31.125000000000007
20
-14.760000326999982
42
0.4142135623730957
10
29.050000000000011
20
-12.685000326999978
10
18.500000000000014
20
-12.685000326999987
42
0.41421356237309503
10
16.425000000000018
20
-14.760000326999982
10
16.425000000000018
20
-24.710000326999982
42
0.41421356237309442
10
18.500000000000014
20
-26.785000326999974
0
LWPOLYLINE
5
139
100
AcDbEntity
8
0
100
AcDbPolyline
90
8
70
1
43
0.0
10
56.540000000000035
20
-12.685000326999978
10
67.090000000000032
20
-12.685000326999987
42
-0.41421356237309254
10
69.165000000000049
20
-14.760000326999982
10
69.165000000000035
20
-24.710000326999978
42
-0.41421356237309381
10
67.090000000000032
20
-26.785000326999974
10
56.540000000000035
20
-26.785000326999977
42
-0.4142135623730957
10
54.465000000000039
20
-24.710000326999978
10
54.465000000000032
20
-14.760000326999982
42
-0.41421356237309537
0
LWPOLYLINE
5
140
100
AcDbEntity
8
0
100
AcDbPolyline
90
8
70
1
43
0.0
10
73.48500000000007
20
-24.710000326999978
42
0.41421356237309193
10
75.560000000000059
20
-26.785000326999977
10
86.110000000000028
20
-26.785000326999974
42
0.41421356237309254
10
88.185000000000073
20
-24.710000326999978
10
88.185000000000059
20
-14.760000326999982
42
0.41421356237309598
10
86.110000000000014
20
-12.685000326999996
10
75.560000000000045
20
-12.685000326999987
42
0.41421356237309725
10
73.485000000000042
20
-14.760000326999982
0
LWPOLYLINE
5
141
100
AcDbEntity
8
0
100
AcDbPolyline
90
8
70
1
43
0.0
10
61.295000000000002
20
25.355000672999992
10
71.845000000000027
20
25.355000672999989
42
-0.41421356237309759
10
73.920000000000016
20
23.280000672999993
10
73.92000000000003
20
13.330000672999995
42
-0.41421356237309415
10
71.845000000000041
20
11.255000672999998
10
61.295000000000002
20
11.255000673
42
-0.41421356237309126
10
59.220000000000049
20
13.330000672999995
10
59.220000000000006
20
23.280000672999989
42
-0.41421356237309692
0
LWPOLYLINE
5
142
100
AcDbEntity
8
0
100
AcDbPolyline
90
8
70
1
43
0.0
10
70.805000000000007
20
44.374999673000019
42
0.41421356237309503
10
68.730000000000018
20
42.299999673000023
10
68.730000000000032
20
32.349999673000028
42
0.4142135623730907
10
70.805000000000007
20
30.274999673000018
10
81.355000000000047
20
30.274999673000007
42
0.41421356237309631
10
83.430000000000035
20
32.349999673000028
10
83.430000000000035
20
42.299999673000023
42
0.41421356237310003
10
81.355000000000004
20
44.374999673000019
0
LWPOLYLINE
5
143
100
AcDbEntity
8
0
100
AcDbPolyline
90
8
70
1
43
0.0
10
16.859999999999999
20
23.280000672999989
10
16.860000000000003
20
13.330000672999995
42
-0.41421356237309415
10
14.785000000000007
20
11.255000672999998
10
4.2350000000000074
20
11.255000672999998
42
-0.41421356237309975
10
2.1599999999999708
20
13.330000672999995
10
2.1599999999999708
20
23.280000672999989
42
-0.41421356237309553
10
4.2349999999999746
20
25.355000672999989
10
14.785000000000004
20
25.355000672999985
42
-0.41421356237309503
0
LWPOLYLINE
5
144
100
AcDbEntity
8
0
100
AcDbPolyline
90
8
70
1
43
0.0
10
-8.9900000000000109
20
-26.785000326999974
42
0.41421356237309537
10
-6.9150000000000134
20
-24.710000326999978
10
-6.9150000000000089
20
-14.760000326999982
42
0.41421356237309537
10
-8.9900000000000091
20
-12.685000326999978
10
-19.540000000000003
20
-12.68500032699998
42
0.41421356237309537
10
-21.615000000000002
20
-14.760000326999982
10
-21.615000000000002
20
-24.710000326999978
42
0.41421356237309948
10
-19.539999999999971
20
-26.78500032699997
0
LWPOLYLINE
5
145
100
AcDbEntity
8
0
100
AcDbPolyline
90
8
70
1
43
0.0
10
-14.785000000000004
20
25.355000672999999
10
-4.2350000000000074
20
25.355000672999992
42
-0.41421356237308943
10
-2.1600000000000374
20
23.280000672999993
10
-2.1600000000000064
20
13.330000672999995
42
-0.41421356237309426
10
-4.2350000000000056
20
11.255000673
10
-14.785000000000004
20
11.255000672999991
42
-0.4142135623730947
10
-16.86000000000001
20
13.330000672999995
10
-16.860000000000021
20
23.280000672999989
42
-0.41421356237309442
0
LWPOLYLINE
5
146
100
AcDbEntity
8
0
100
AcDbPolyline
90
8
70
1
43
0.0
10
7.3499999999999943
20
42.299999673000023
42
0.4142135623730957
10
5.274999999999995
20
44.374999673000019
10
-5.2749999999999977
20
44.374999673000019
42
0.41421356237309392
10
-7.3499999999999943
20
42.299999673000023
10
-7.3499999999999996
20
32.349999673000028
42
0.41421356237309692
10
-5.2749999999999986
20
30.274999673000018
10
5.2750000000000057
20
30.274999673000018
42
0.4142135623730947
10
7.3499999999999943
20
32.349999673000028
0
LWPOLYLINE
5
147
100
AcDbEntity
8
0
100
AcDbPolyline
90
8
70
1
43
0.0
10
-66.050000999999952
20
-26.785000326999974
10
-76.60000100000002
20
-26.78500032699997
42
-0.41421356237309442
10
-78.675001000000009
20
-24.710000326999978
10
-78.675001000000023
20
-14.760000326999982
42
-0.41421356237309381
10
-76.60000100000002
20
-12.685000326999978
10
-66.050000999999952
20
-12.685000326999987
42
-0.41421356237309631
10
-63.975000999999956
20
-14.760000326999982
10
-63.975000999999942
20
-24.710000326999978
42
-0.41421356237309381
0
LWPOLYLINE
5
148
100
AcDbEntity
8
0
100
AcDbPolyline
90
8
70
1
43
0.0
10
86.110000000000042
20
-45.805000327000009
42
0.41421356237308876
10
88.185000000000016
20
-43.730000326999999
10
88.185000000000002
20
-33.780000327000018
42
0.41421356237309315
10
86.110000000000014
20
-31.705000327000022
10
75.560000000000031
20
-31.705000327000011
42
0.41421356237309631
10
73.484999999999985
20
-33.780000327000018
10
73.484999999999985
20
-43.730000326999999
42
0.41421356237309254
10
75.560000000000002
20
-45.805000327000016
0
LWPOLYLINE
5
149
100
AcDbEntity
8
0
100
AcDbPolyline
90
8
70
1
43
0.0
10
-45.367735512000031
20
-43.729996732799997
42
0.41421356237309759
10
-43.292735512000029
20
-45.804996732800006
10
-19.416429901099992
20
-45.804996732800006
42
0.41421356237309126
10
-17.341429901100014
20
-43.729996732799997
10
-17.341429901100007
20
-33.879996732800009
42
0.41421356237309503
10
-19.41642990110001
20
-31.804996732800006
10
-43.292735512000036
20
-31.804996732800014
42
0.4142135623730957
10
-45.367735512000031
20
-33.879996732800009
0
LWPOLYLINE
5
150
100
AcDbEntity
8
0
100
AcDbPolyline
90
8
70
1
43
0.0
10
43.232264487999998
20
-45.755000326999991
10
19.33357009889999
20
-45.755000326999991
42
-0.41421356237309503
10
17.258570098899995
20
-43.680000326999995
10
17.258570098899991
20
-33.830000327000008
42
-0.41421356237309503
10
19.333570098899994
20
-31.755000327000012
10
43.232264487999998
20
-31.755000327000008
42
-0.4142135623730957
10
45.307264487999994
20
-33.830000327000008
10
45.307264487999987
20
-43.680000326999995
42
-0.41421356237309631
0
LWPOLYLINE
5
151
100
AcDbEntity
8
0
100
AcDbPolyline
90
8
70
1
43
0.0
10
-109.88499999999999
20
25.355000672999992
10
-99.33499999999998
20
25.355000672999978
42
-0.41421356237309381
10
-97.259999999999991
20
23.280000672999993
10
-97.260000000000048
20
13.330000672999995
42
-0.4142135623730907
10
-99.335000000000036
20
11.255000672999994
10
-109.88499999999999
20
11.255000673000005
42
-0.41421356237309442
10
-111.95999999999998
20
13.330000672999995
10
-111.95999999999999
20
23.280000672999989
42
-0.41421356237309381
0
LWPOLYLINE
5
152
100
AcDbEntity
8
0
100
AcDbPolyline
90
12
70
1
43
0.0
10
92.911250000000081
20
-16.735000326999945
42
0.41421356237308593
10
93.411250000000081
20
-17.235000326999931
10
95.911250000000081
20
-17.235000326999938
42
-0.41421356237312101
10
96.411250000000095
20
-17.735000326999938
10
96.411250000000038
20
-23.235000326999934
42
0.41421356237306384
10
96.911250000000024
20
-23.735000326999945
10
97.411250000000095
20
-23.735000326999945
42
0.41421356237308721
10
97.911250000000081
20
-23.235000326999934
10
97.911250000000081
20
-17.735000326999938
42
0.41421356237310414
10
95.911250000000081
20
-15.735000326999948
10
93.411250000000109
20
-15.735000326999931
42
0.41421356237311063
10
92.911250000000081
20
-16.235000326999945
0
LWPOLYLINE
5
153
100
AcDbEntity
8
0
100
AcDbPolyline
90
8
70
1
43
0.0
10
-99.335000000000065
20
-45.805000327000002
42
0.41421356237309759
10
-97.260000000000062
20
-43.730000326999985
10
-97.260000000000076
20
-33.780000326999996
42
0.41421356237308693
10
-99.33499999999998
20
-31.705000326999997
10
-109.88500000000001
20
-31.705000326999976
42
0.4142135623730907
10
-111.96000000000001
20
-33.780000326999996
10
-111.95999999999997
20
-43.730000326999985
42
0.41421356237309881
10
-109.88499999999999
20
-45.805000326999988
0
LWPOLYLINE
5
154
100
AcDbEntity
8
0
100
AcDbPolyline
90
8
70
1
43
0.0
10
99.637500000000045
20
-24.710000326999978
10
99.637500000000017
20
-14.760000326999982
42
-0.41421356237310136
10
101.71250000000003
20
-12.685000326999978
10
112.26250000000005
20
-12.68500032699998
42
-0.41421356237309098
10
114.33750000000003
20
-14.760000326999982
10
114.33750000000003
20
-24.710000326999978
42
-0.4142135623730907
10
112.26250000000005
20
-26.785000326999977
10
101.71250000000003
20
-26.785000326999977
42
-0.4142135623730907
0
LWPOLYLINE
5
155
100
AcDbEntity
8
0
100
AcDbPolyline
90
8
70
1
43
0.0
10
85.070000000000022
20
6.3350006730000041
42
0.41421356237309059
10
82.994999999999976
20
4.2600006730000048
10
82.995000000000033
20
-5.6899993269999882
42
0.41421356237308815
10
85.070000000000022
20
-7.764999326999984
10
95.620000000000033
20
-7.7649993269999884
42
0.41421356237309814
10
97.69500000000005
20
-5.6899993269999882
10
97.69500000000005
20
4.2600006730000048
42
0.41421356237309881
10
95.620000000000005
20
6.3350006729999997
0
LWPOLYLINE
5
156
100
AcDbEntity
8
0
100
AcDbPolyline
90
8
70
1
43
0.0
10
6.9150000000000116
20
-5.6899993269999882
42
0.41421356237309553
10
8.9900000000000109
20
-7.7649993269999875
10
19.540000000000003
20
-7.7649993269999875
42
0.41421356237309581
10
21.615000000000002
20
-5.6899993269999882
10
21.615000000000002
20
4.2600006730000048
42
0.41421356237309537
10
19.540000000000006
20
6.3350006729999997
10
8.9900000000000091
20
6.3350006730000006
42
0.4142135623730952
10
6.9150000000000134
20
4.260000673000004
0
LWPOLYLINE
5
157
100
AcDbEntity
8
0
100
AcDbPolyline
90
8
70
1
43
0.0
10
-12.105
20
-5.6899993269999882
42
0.41421356237309503
10
-10.030000000000001
20
-7.7649993269999884
10
0.51999999999999713
20
-7.7649993269999875
42
0.41421356237309459
10
2.5949999999999918
20
-5.6899993269999882
10
2.594999999999994
20
4.2600006730000048
42
0.41421356237308971
10
0.52000000000003155
20
6.3350006729999997
10
-10.030000000000003
20
6.3350006730000095
42
0.4142135623730947
10
-12.104999999999997
20
4.260000673000004
0
LWPOLYLINE
5
158
100
AcDbEntity
8
0
100
AcDbPolyline
90
8
70
1
43
0.0
10
-16.425000000000018
20
4.260000673000004
10
-16.425000000000011
20
-5.6899993269999882
42
-0.41421356237309365
10
-18.500000000000011
20
-7.7649993269999875
10
-29.049999999999976
20
-7.7649993269999911
42
-0.41421356237309975
10
-31.125000000000014
20
-5.6899993269999882
10
-31.125000000000014
20
4.260000673000004
42
-0.41421356237309581
10
-29.050000000000008
20
6.3350006730000095
10
-18.500000000000014
20
6.3350006729999997
42
-0.41421356237309503
0
LWPOLYLINE
5
159
100
AcDbEntity
8
0
100
AcDbPolyline
90
8
70
1
43
0.0
10
-50.145001000000029
20
-5.6899993269999882
10
-50.145001000000008
20
4.260000673000004
42
-0.41421356237309392
10
-48.070000999999998
20
6.3350006730000095
10
-37.520001000000001
20
6.3350006730000175
42
-0.41421356237309492
10
-35.445000999999991
20
4.2600006730000048
10
-35.445000999999998
20
-5.6899993269999882
42
-0.41421356237309631
10
-37.520001000000008
20
-7.7649993269999875
10
-48.070000999999998
20
-7.7649993270000106
42
-0.41421356237309381
0
LWPOLYLINE
5
160
100
AcDbEntity
8
0
100
AcDbPolyline
90
8
70
1
43
0.0
10
-69.165000000000006
20
-5.6899993269999882
42
0.41421356237309503
10
-67.089999999999989
20
-7.764999326999984
10
-56.539999999999999
20
-7.7649993269999875
42
0.41421356237309537
10
-54.465000000000003
20
-5.6899993269999882
10
-54.464999999999996
20
4.2600006730000048
42
0.41421356237309609
10
-56.539999999999999
20
6.3350006730000175
10
-67.090000000000003
20
6.3350006730000095
42
0.41421356237309392
10
-69.16500000000002
20
4.260000673000004
0
LWPOLYLINE
5
161
100
AcDbEntity
8
0
100
AcDbPolyline
90
8
70
1
43
0.0
10
-88.185000999999957
20
-5.6899993269999882
42
0.41421356237309287
10
-86.110000999999954
20
-7.7649993269999857
10
-75.560000999999971
20
-7.7649993269999875
42
0.41421356237309914
10
-73.485000999999983
20
-5.6899993269999882
10
-73.48500099999994
20
4.2600006730000048
42
0.41421356237309348
10
-75.560000999999943
20
6.3350006729999997
10
-86.110000999999983
20
6.3350006730000095
42
0.41421356237310558
10
-88.185000999999971
20
4.260000673000004
0
LWPOLYLINE
5
162
100
AcDbEntity
8
0
100
AcDbPolyline
90
8
70
1
43
0.0
10
125.79000000000001
20
32.349999673000028
42
0.4142135623730907
10
127.86500000000001
20
30.274999673000032
10
138.41500000000008
20
30.274999673000007
42
0.41421356237309381
10
140.49000000000007
20
32.349999673000028
10
140.49000000000007
20
42.299999673000023
42
0.41421356237309004
10
138.41500000000008
20
44.374999673000019
10
127.86500000000001
20
44.374999673000019
42
0.41421356237309004
10
125.79000000000001
20
42.299999673000023
0
LWPOLYLINE
5
163
100
AcDbEntity
8
0
100
AcDbPolyline
90
4
70
1
43
0.0
10
131.85999998990002
20
48.190000000000055
10
133.85999998990002
20
48.190000000000019
42
-0.99999999999999989
10
133.85999998990002
20
46.690000000000033
10
131.85999998989999
20
46.690000000000047
42
-0.99999999999999989
0
LWPOLYLINE
5
164
100
AcDbEntity
8
0
100
AcDbPolyline
90
8
70
1
43
0.0
10
121.03500000000004
20
13.330000673000022
42
0.41421356237309975
10
123.11
20
11.255000673000026
10
133.66000000000005
20
11.255000673000024
42
0.41421356237309287
10
135.73500000000001
20
13.330000673000022
10
135.73500000000001
20
23.280000673000018
42
0.41421356237309948
10
133.66000000000003
20
25.355000673000021
10
123.11
20
25.355000673000035
42
0.41421356237309254
10
121.035
20
23.280000673000025
0
LWPOLYLINE
5
165
100
AcDbEntity
8
0
100
AcDbPolyline
90
8
70
1
43
0.0
10
111.96000000000005
20
-33.780000326999996
10
111.96000000000005
20
-43.730000326999985
42
-0.41421356237309759
10
109.88500000000002
20
-45.805000327000002
10
99.335000000000065
20
-45.805000327000002
42
-0.41421356237309004
10
97.260000000000048
20
-43.730000326999985
10
97.260000000000048
20
-33.780000326999996
42
-0.41421356237310192
10
99.335000000000036
20
-31.705000326999983
10
109.88500000000002
20
-31.705000326999986
42
-0.41421356237309126
0
LWPOLYLINE
5
166
100
AcDbEntity
8
0
100
AcDbPolyline
90
8
70
1
43
0.0
10
38.560000000000024
20
-7.7649993269999875
42
0.41421356237309365
10
40.635000000000019
20
-5.6899993269999882
10
40.635000000000012
20
4.2600006730000048
42
0.4142135623730957
10
38.560000000000016
20
6.3350006729999997
10
28.009999999999991
20
6.3350006730000086
42
0.41421356237309698
10
25.934999999999988
20
4.260000673000004
10
25.934999999999988
20
-5.6899993269999882
42
0.4142135623730957
10
28.009999999999984
20
-7.764999326999984
0
LWPOLYLINE
5
167
100
AcDbEntity
8
0
100
AcDbPolyline
90
8
70
1
43
0.0
10
59.655000000000058
20
4.2600006730000048
42
0.41421356237309531
10
57.580000000000062
20
6.3350006730000006
10
47.03000000000003
20
6.3350006730000095
42
0.41421356237309392
10
44.955000000000034
20
4.260000673000004
10
44.955000000000034
20
-5.6899993269999882
42
0.41421356237309537
10
47.03000000000003
20
-7.764999326999984
10
57.580000000000034
20
-7.7649993269999937
42
0.41421356237309392
10
59.655000000000022
20
-5.6899993269999882
0
LWPOLYLINE
5
168
100
AcDbEntity
8
0
100
AcDbPolyline
90
8
70
1
43
0.0
10
63.975000000000044
20
-5.6899993269999882
10
63.975000000000044
20
4.2600006730000031
42
-0.41421356237309553
10
66.05000000000004
20
6.3350006730000032
10
76.600000000000037
20
6.3350006730000015
42
-0.41421356237309637
10
78.675000000000026
20
4.2600006730000048
10
78.67500000000004
20
-5.6899993269999882
42
-0.41421356237309348
10
76.600000000000037
20
-7.7649993269999822
10
66.05000000000004
20
-7.7649993269999857
42
-0.41421356237309537
0
LWPOLYLINE
5
169
100
AcDbEntity
8
0
100
AcDbPolyline
90
8
70
1
43
0.0
10
111.96000000000005
20
23.280000672999993
42
0.41421356237309631
10
109.88500000000003
20
25.355000672999985
10
99.335000000000036
20
25.355000673000006
42
0.41421356237309814
10
97.260000000000019
20
23.280000672999989
10
97.260000000000019
20
13.330000672999995
42
0.41421356237310636
10
99.335000000000065
20
11.255000673
10
109.88500000000003
20
11.255000673000001
42
0.41421356237309725
10
111.96000000000005
20
13.330000672999995
0
LWPOLYLINE
5
170
100
AcDbEntity
8
0
100
AcDbPolyline
90
8
70
1
43
0.0
10
108.84500000000003
20
44.374999673000005
42
0.41421356237310381
10
106.77
20
42.299999673000023
10
106.77
20
32.349999673000028
42
0.41421356237309381
10
108.845
20
30.274999673000032
10
119.39500000000007
20
30.274999673000007
42
0.41421356237309381
10
121.47000000000006
20
32.349999673000028
10
121.47000000000006
20
42.299999673000023
42
0.41421356237309004
10
119.39500000000007
20
44.374999673000019
0
LWPOLYLINE
5
171
100
AcDbEntity
8
0
100
AcDbPolyline
90
8
70
1
43
0.0
10
140.49000000000007
20
-14.760000326999982
10
140.49000000000007
20
-24.710000326999978
42
-0.41421356237309692
10
138.41500000000002
20
-26.78500032699997
10
127.86500000000001
20
-26.785000326999977
42
-0.4142135623730907
10
125.79000000000001
20
-24.710000326999978
10
125.79000000000001
20
-14.760000326999982
42
-0.41421356237309315
10
127.86500000000001
20
-12.685000326999965
10
138.41499999999999
20
-12.685000326999985
42
-0.41421356237310036
0
LWPOLYLINE
5
172
100
AcDbEntity
8
0
100
AcDbPolyline
90
23
70
1
43
0.0
10
-108.32822005339554
20
-13.387125036196672
42
0.30560633103329715
10
-107.46753173192701
20
-13.967415564434667
10
-106.60193173162145
20
-13.967405715006496
42
-0.41421870106895298
10
-105.17696673143791
20
-15.39234571500649
10
-105.17694173165734
20
-15.39234571500649
10
-105.17694173165728
20
-22.993245714968758
42
-0.41662887630311701
10
-106.61384870105209
20
-24.418282012059432
10
-107.00598173165727
20
-24.418285715006476
42
0.31268113368330303
10
-108.62119173190453
20
-25.537845715666194
42
-0.3126546404918738
10
-110.37688173148314
20
-26.754758004480735
10
-132.12773173162145
20
-26.754756032005929
42
-0.31269366156760581
10
-133.88356237131978
20
-25.537835954866349
42
0.31268021564694271
10
-135.49873173165719
20
-24.418285715006473
10
-135.90283173158514
20
-24.418285715006466
42
-0.41421109590998045
10
-137.32782173169934
20
-22.993285715067728
10
-137.32782178978056
20
-15.39254571501405
42
-0.41669298652266062
10
-135.89079473165725
20
-13.967405715006471
10
-135.03723173165722
20
-13.96740571500648
10
-135.03723173165722
20
-13.967393715006446
42
0.30563932784212444
10
-134.17654155729849
20
-13.387125785491538
42
-0.30564902910974412
10
-133.17993173165729
20
-12.715256715006474
10
-133.17993173165729
20
-12.715245715006462
10
-109.32473173168231
20
-12.715245715006496
42
-0.3056086844581406
0
CIRCLE
5
173
100
AcDbEntity
8
0
100
AcDbCircle
10
104.55999998990001
20
-51.024999999999999
30
0
40
1.6499999999999915
210
0
220
0
230
1
0
CIRCLE
5
174
100
AcDbEntity
8
0
100
AcDbCircle
10
-105.0540000101
20
-51.024999999999999
30
0
40
1.650000000000027
210
0
220
0
230
1
0
CIRCLE
5
175
100
AcDbEntity
8
0
100
AcDbCircle
10
104.61000000000006
20
37.324999673000015
30
1.7208456881689926e-14
40
0.99999999999990763
210
0
220
0
230
1
0
CIRCLE
5
176
100
AcDbEntity
8
0
100
AcDbCircle
10
-14.265000000000008
20
-0.71499932699999202
30
-2.2204460492503131e-15
40
0.99999999999995648
210
0
220
0
230
1
0
CIRCLE
5
177
100
AcDbEntity
8
0
100
AcDbCircle
10
57.059999999999995
20
18.304999673000005
30
8.8817841970012523e-15
40
0.99999999999995204
210
0
220
0
230
1
0
CIRCLE
5
178
100
AcDbEntity
8
0
100
AcDbCircle
10
14.009999989899988
20
51.02500000000002
30
0
40
1.6500000000000048
210
0
220
0
230
1
0
CIRCLE
5
179
100
AcDbEntity
8
0
100
AcDbCircle
10
-133.14000001009998
20
51.025000000000034
30
0
40
1.6499999999999204
210
0
220
0
230
1
0
CIRCLE
5
180
100
AcDbEntity
8
0
100
AcDbCircle
10
-123.62999999999997
20
37.324999673000015
30
-1.0824674490095276e-14
40
0.99999999999994316
210
0
220
0
230
1
0
CIRCLE
5
181
100
AcDbEntity
8
0
100
AcDbCircle
10
33.284999000000006
20
-19.735000326999995
30
1.3877787807814457e-15
40
0.99999999999996092
210
0
220
0
230
1
0
CIRCLE
5
182
100
AcDbEntity
8
0
100
AcDbCircle
10
-42.795000999999999
20
-19.735000326999995
30
-7.7715611723760958e-15
40
0.99999999999996092
210
0
220
0
230
1
0
CIRCLE
5
183
100
AcDbEntity
8
0
100
AcDbCircle
10
-137.89500000000001
20
18.305000673000016
30
-1.4988010832439613e-14
40
0.99999999999997868
210
0
220
0
230
1
0
CIRCLE
5
184
100
AcDbEntity
8
0
100
AcDbCircle
10
95.09999999999998
20
-38.755000326999991
30
6.6613381477509392e-15
40
1.0000000000000142
210
0
220
0
230
1
0
CIRCLE
5
185
100
AcDbEntity
8
0
100
AcDbCircle
10
-12.175033000000006
20
-43.057846327
30
-6.9388939039072284e-15
40
0.99999999999996536
210
0
220
0
230
1
0
CIRCLE
5
186
100
AcDbEntity
8
0
100
AcDbCircle
10
-95.100000000000023
20
-38.755000326999991
30
-1.6653345369377348e-14
40
0.99999999999999645
210
0
220
0
230
1
0
CIRCLE
5
187
100
AcDbEntity
8
0
100
AcDbCircle
10
28.530000000000015
20
37.324999673000015
30
8.0491169285323849e-15
40
0.99999999999995204
210
0
220
0
230
1
0
CIRCLE
5
188
100
AcDbEntity
8
0
100
AcDbCircle
10
-47.550000000000026
20
37.324999673000015
30
-1.3877787807814457e-15
40
0.99999999999999645
210
0
220
0
230
1
0
CIRCLE
5
189
100
AcDbEntity
8
0
100
AcDbCircle
10
-109.36499999999998
20
-0.71500032699998606
30
-1.3877787807814457e-14
40
0.99999999999999645
210
0
220
0
230
1
0
CIRCLE
5
190
100
AcDbEntity
8
0
100
AcDbCircle
10
99.855000000000018
20
-0.71500032699998606
30
1.1934897514720433e-14
40
0.9999999999998721
210
0
220
0
230
1
0
CIRCLE
5
191
100
AcDbEntity
8
0
100
AcDbCircle
10
-76.080000000000013
20
18.304999673000005
30
-7.2164496600635175e-15
40
0.99999999999997868
210
0
220
0
230
1
0
CIRCLE
5
192
100
AcDbEntity
8
0
100
AcDbCircle
10
123.63000000000002
20
-19.735000326999995
30
1.2490009027033011e-14
40
1.0000000000000142
210
0
220
0
230
1
0
CIRCLE
5
193
100
AcDbEntity
8
0
100
AcDbCircle
10
132.85999998990002
20
51.025000000000006
30
0
40
1.6499999999999559
210
0
220
0
230
1
0
CIRCLE
5
194
100
AcDbEntity
8
0
100
AcDbCircle
10
137.89500000000001
20
18.305000673000016
30
1.8873791418627661e-14
40
0.99999999999992539
210
0
220
0
230
1
0
CIRCLE
5
195
100
AcDbEntity
8
0
100
AcDbCircle
10
-140.75780000000006
20
-19.735000326999984
30
-2.7755575615628914e-16
40
0.99999999999999645
210
0
220
0
230
1
0
ENDSEC
0
SECTION
2
OBJECTS
0
DICTIONARY
5
C
100
AcDbDictionary
3
ACAD_GROUP
350
D
3
ACAD_MLINESTYLE
350
17
0
DICTIONARY
5
D
100
AcDbDictionary
0
DICTIONARY
5
1A
330
C
100
AcDbDictionary
0
DICTIONARY
5
17
100
AcDbDictionary
0
ENDSEC
0
EOF
