0
SECTION
2
HEADER
9
$INSUNITS
70
4
9
$ACADVER
1
AC1014
9
$HANDSEED
5
FFFF
0
ENDSEC
0
SECTION
2
TABLES
0
TABLE
2
VPORT
5
8
100
AcDbSymbolTable
0
ENDTAB
0
TABLE
2
LTYPE
5
5
100
AcDbSymbolTable
0
LTYPE
5
14
100
AcDbSymbolTableRecord
100
AcDbLinetypeTableRecord
2
BYBLOCK
70
0
0
LTYPE
5
15
100
AcDbSymbolTableRecord
100
AcDbLinetypeTableRecord
2
BYLAYER
70
0
0
LTYPE
5
16
100
AcDbSymbolTableRecord
100
AcDbLinetypeTableRecord
2
DASHED
70
0
3
Dashed __ __ __ __ __ __ __ __ __ __ __ __ __ _
72
65
73
2
40
0.75
49
0.5
74
0
49
-0.25
74
0
0
ENDTAB
0
TABLE
2
LAYER
5
2
100
AcDbSymbolTable
70
2
0
LAYER
5
50
100
AcDbSymbolTableRecord
100
AcDbLayerTableRecord
2
0
70
0
62
7
6
CONTINUOUS
0
ENDTAB
0
TABLE
2
STYLE
5
3
100
AcDbSymbolTable
70
1
0
STYLE
5
11
100
AcDbSymbolTableRecord
100
AcDbTextStyleTableRecord
2
STANDARD
70
0
0
ENDTAB
0
TABLE
2
VIEW
5
6
100
AcDbSymbolTable
70
0
0
ENDTAB
0
TABLE
2
UCS
5
7
100
AcDbSymbolTable
70
0
0
ENDTAB
0
TABLE
2
APPID
5
9
100
AcDbSymbolTable
70
2
0
APPID
5
12
100
AcDbSymbolTableRecord
100
AcDbRegAppTableRecord
2
ACAD
70
0
0
ENDTAB
0
TABLE
2
DIMSTYLE
5
A
100
AcDbSymbolTable
70
1
0
ENDTAB
0
TABLE
2
BLOCK_RECORD
5
1
100
AcDbSymbolTable
70
1
0
BLOCK_RECORD
5
1F
100
AcDbSymbolTableRecord
100
AcDbBlockTableRecord
2
*MODEL_SPACE
0
BLOCK_RECORD
5
1B
100
AcDbSymbolTableRecord
100
AcDbBlockTableRecord
2
*PAPER_SPACE
0
ENDTAB
0
ENDSEC
0
SECTION
2
BLOCKS
0
BLOCK
5
20
100
AcDbEntity
100
AcDbBlockBegin
2
*MODEL_SPACE
0
ENDBLK
5
21
100
AcDbEntity
100
AcDbBlockEnd
0
BLOCK
5
1C
100
AcDbEntity
100
AcDbBlockBegin
2
*PAPER_SPACE
0
ENDBLK
5
1D
100
AcDbEntity
100
AcDbBlockEnd
0
ENDSEC
0
SECTION
2
ENTITIES
0
LWPOLYLINE
5
100
100
AcDbEntity
8
0
100
AcDbPolyline
90
46
70
1
43
0.0
10
16.709999989900005
20
48.824999672999994
42
0.41421356237309503
10
18.70999998990003
20
46.824999673000022
10
128.1599999899
20
46.824999673000022
42
0.41421356237309115
10
130.15999998989994
20
48.824999673000022
10
130.1599999899
20
51.025000000000006
42
-0.99999999999999989
10
135.55999998990001
20
51.025000000000006
10
135.55999998989995
20
48.824999673000022
42
0.41421356237309764
10
137.55999998990012
20
46.824999673000029
10
140.63999869629995
20
46.824999673000001
42
-0.41421356237308204
10
142.63999999999996
20
44.824998369300019
10
142.63999999999999
20
-27.234999999999985
42
-0.41421356237309698
10
140.63999999999999
20
-29.234999999999971
10
116.10999982450204
20
-29.234999999999978
42
0.41421356237494655
10
114.10999982450207
20
-31.235000000012718
10
114.10999982459768
20
-46.254998832587276
42
-0.41421356237496937
10
112.10999852089763
20
-48.255000136299984
10
109.05999998990001
20
-48.255000136299984
42
0.41421356237303908
10
107.05999998990012
20
-50.255000136299692
10
107.05999998990002
20
-51.025000000000006
42
-0.99999999999999989
10
102.05999998990002
20
-51.024999999999991
10
102.05999998990001
20
-50.255000136300119
42
0.41421356237310153
10
100.05999998990006
20
-48.255000136299984
10
-100.35400001010011
20
-48.255000136300026
42
0.41421356237312101
10
-102.35400001010007
20
-50.255000136300332
10
-102.35400001010007
20
-51.025000000000048
42
-0.99999999999999989
10
-107.75400001009999
20
-51.025000000000027
10
-107.75400001009997
20
-50.255000136300076
42
0.41421356237309503
10
-109.75400001010001
20
-48.255000136300019
10
-112.11000052640003
20
-48.255000136300026
42
-0.41421356237308854
10
-114.11000052640006
20
-46.255000136300026
10
-114.11000052640007
20
-31.235000000000021
42
0.41421356237309309
10
-116.11000052640009
20
-29.235000000000024
10
-140.6400000000001
20
-29.234999999999978
42
-0.41421356237309243
10
-142.64000000000004
20
-27.235000000000021
10
-142.64000000000001
20
44.825001625399977
42
-0.4142135623730937
10
-140.64000195239998
20
46.824999672999994
10
-137.84000001010008
20
46.824999672999965
42
0.41421356237308854
10
-135.84000001010011
20
48.824999672999994
10
-135.84000001009997
20
51.02500000000002
42
-0.99999999999999989
10
-130.44000001010005
20
51.024999999999984
10
-130.44000001010002
20
48.824999672999994
42
0.41421356237309892
10
-128.44000001010002
20
46.824999672999972
10
9.3099999898999517
20
46.824999672999994
42
0.41421356237310075
10
11.309999989899993
20
48.824999673000008
10
11.309999989900064
20
51.025000000000006
42
-0.99999999999999989
10
16.709999989899984
20
51.025000000000006
0
LWPOLYLINE
5
101
100
AcDbEntity
8
0
100
AcDbPolyline
90
9
70
1
43
0.0
10
94.911250000000038
20
-22.235000326999934
10
94.911250000000038
20
-23.73500032699998
10
90.911249999999981
20
-23.735000326999938
10
89.911249999999995
20
-22.735000326999923
10
89.911250000000038
20
-16.735000327000009
10
90.911250000000052
20
-15.735000326999948
10
91.411250000000095
20
-15.735000326999922
10
91.411250000000095
20
-21.735000326999927
10
91.911250000000138
20
-22.235000326999934
0
LWPOLYLINE
5
102
100
AcDbEntity
8
0
100
AcDbPolyline
90
9
70
1
43
0.0
10
97.911250000000109
20
-22.735000326999941
10
96.911250000000138
20
-23.735000326999938
10
96.411250000000024
20
-23.735000326999938
10
96.411250000000095
20
-17.735000326999966
10
95.911250000000052
20
-17.235000326999959
10
92.911250000000109
20
-17.235000326999934
10
92.91125000000001
20
-15.735000326999939
10
96.911250000000138
20
-15.735000326999948
10
97.911250000000109
20
-16.735000326999952
0
LWPOLYLINE
5
103
100
AcDbEntity
8
0
100
AcDbPolyline
90
8
70
1
43
0.0
10
99.6875
20
-25.735000327000009
10
99.6875
20
-13.735000327000009
10
100.68749999999997
20
-12.735000327000012
10
113.28749999999999
20
-12.735000327000012
10
114.28749999999997
20
-13.735000327000009
10
114.28749999999997
20
-25.735000327000009
10
113.28749999999999
20
-26.735000327000009
10
100.68749999999997
20
-26.735000327000009
0
LWPOLYLINE
5
104
100
AcDbEntity
8
0
100
AcDbPolyline
90
8
70
1
43
0.0
10
74.534999999999982
20
-26.735000327000009
10
73.534999999999968
20
-25.735000327000009
10
73.534999999999968
20
-13.735000327000009
10
74.534999999999982
20
-12.735000327000012
10
87.134999999999962
20
-12.735000327000012
10
88.134999999999977
20
-13.735000327000009
10
88.134999999999977
20
-25.735000327000009
10
87.134999999999962
20
-26.735000327000009
0
LWPOLYLINE
5
105
100
AcDbEntity
8
0
100
AcDbPolyline
90
8
70
1
43
0.0
10
-136.90750000000008
20
6.2850006729999741
10
-135.90750000000008
20
5.2850006729999777
10
-135.9075
20
-6.7149993270000063
10
-136.90750000000003
20
-7.7149993270000117
10
-138.50750000000005
20
-7.7149993270000294
10
-139.50750000000005
20
-6.7149993270000419
10
-139.50750000000005
20
5.2850006729999599
10
-138.50750000000005
20
6.2850006729999652
0
LWPOLYLINE
5
106
100
AcDbEntity
8
0
100
AcDbPolyline
90
8
70
1
43
0.0
10
17.258570098899995
20
-44.755000327000012
10
17.258570098899995
20
-32.755000327000019
10
18.258570098900009
20
-31.75500032700004
10
44.307264488000015
20
-31.755000327000023
10
45.307264487999994
20
-32.755000327000019
10
45.307264487999994
20
-44.755000327000012
10
44.307264488000015
20
-45.755000326999991
10
18.258570098900009
20
-45.755000326999991
0
LWPOLYLINE
5
107
100
AcDbEntity
8
0
100
AcDbPolyline
90
8
70
1
43
0.0
10
-45.367735511999996
20
-32.804996732800035
10
-44.367735511999982
20
-31.804996732800035
10
-18.341429901100028
20
-31.804996732800017
10
-17.341429901100014
20
-32.804996732800014
10
-17.341429901100014
20
-44.804996732800021
10
-18.341429901100028
20
-45.804996732800035
10
-44.367735511999982
20
-45.804996732800035
10
-45.367735511999996
20
-44.804996732800021
0
LWPOLYLINE
5
108
100
AcDbEntity
8
0
100
AcDbPolyline
90
4
70
1
43
0.0
10
-50.367735511999996
20
-45.754996732799995
10
-63.967735512000061
20
-45.754996732799995
10
-63.967735512000061
20
-31.854996732800025
10
-50.367735511999996
20
-31.854996732800025
0
LWPOLYLINE
5
109
100
AcDbEntity
8
0
100
AcDbPolyline
90
4
70
1
43
0.0
10
50.307264487999959
20
-31.854996732800025
10
63.907264487999953
20
-31.854996732800025
10
63.907264487999953
20
-45.754996732799995
10
50.307264487999959
20
-45.754996732799995
0
LWPOLYLINE
5
110
100
AcDbEntity
8
0
100
AcDbPolyline
90
8
70
1
43
0.0
10
-6.3414299010999997
20
-31.755000327000005
10
6.2585700988999804
20
-31.755000327000005
10
7.2585700988999946
20
-32.755000327000019
10
7.2585700988999946
20
-44.755000327000012
10
6.2585700988999804
20
-45.755000327000005
10
-6.3414299010999997
20
-45.755000327000005
10
-7.3414299011000139
20
-44.755000327000012
10
-7.3414299011000139
20
-32.755000327000019
0
LWPOLYLINE
5
111
100
AcDbEntity
8
0
100
AcDbPolyline
90
8
70
1
43
0.0
10
-88.135000000000048
20
-32.755000327000019
10
-87.135000000000034
20
-31.755000327000005
10
-74.535000000000053
20
-31.755000327000005
10
-73.535000000000039
20
-32.755000327000019
10
-73.535000000000039
20
-44.755000327000012
10
-74.535000000000053
20
-45.755000327000005
10
-87.135000000000034
20
-45.755000327000005
10
-88.135000000000048
20
-44.755000327000012
0
LWPOLYLINE
5
112
100
AcDbEntity
8
0
100
AcDbPolyline
90
8
70
1
43
0.0
10
88.134999999999977
20
-44.755000327000012
10
87.134999999999962
20
-45.755000327000005
10
74.534999999999982
20
-45.755000327000005
10
73.534999999999968
20
-44.755000327000012
10
73.534999999999968
20
-32.755000327000019
10
74.534999999999982
20
-31.755000327000005
10
87.134999999999962
20
-31.755000327000005
10
88.134999999999977
20
-32.755000327000019
0
LWPOLYLINE
5
113
100
AcDbEntity
8
0
100
AcDbPolyline
90
8
70
1
43
0.0
10
97.309999999999974
20
-44.755000327000012
10
97.309999999999974
20
-32.755000327000019
10
98.30999999999996
20
-31.755000327000005
10
110.90999999999997
20
-31.755000327000005
10
111.90999999999995
20
-32.755000327000019
10
111.90999999999995
20
-44.755000327000012
10
110.90999999999997
20
-45.755000327000005
10
98.30999999999996
20
-45.755000327000005
0
LWPOLYLINE
5
114
100
AcDbEntity
8
0
100
AcDbPolyline
90
8
70
1
43
0.0
10
54.514998999999982
20
-13.735000327000009
10
55.51499899999996
20
-12.735000327000012
10
68.114998999999983
20
-12.735000327000012
10
69.114998999999955
20
-13.735000327000009
10
69.114998999999955
20
-25.735000327000009
10
68.114998999999983
20
-26.735000327000009
10
55.51499899999996
20
-26.735000327000009
10
54.514998999999982
20
-25.735000327000009
0
LWPOLYLINE
5
115
100
AcDbEntity
8
0
100
AcDbPolyline
90
8
70
1
43
0.0
10
-6.9650000000000034
20
-13.735000327000009
10
-6.9650000000000034
20
-25.735000327000009
10
-7.9650000000000176
20
-26.735000327000009
10
-20.564999999999998
20
-26.735000327000009
10
-21.565000000000012
20
-25.735000327000009
10
-21.565000000000012
20
-13.735000327000009
10
-20.564999999999998
20
-12.735000327000012
10
-7.9650000000000176
20
-12.735000327000012
0
LWPOLYLINE
5
116
100
AcDbEntity
8
0
100
AcDbPolyline
90
8
70
1
43
0.0
10
-97.645000000000053
20
-25.735000327000009
10
-97.645000000000053
20
-13.735000327000009
10
-96.645000000000039
20
-12.735000327000012
10
-84.045000000000059
20
-12.735000327000012
10
-83.045000000000044
20
-13.735000327000009
10
-83.045000000000044
20
-25.735000327000009
10
-84.045000000000059
20
-26.735000327000009
10
-96.645000000000039
20
-26.735000327000009
0
LWPOLYLINE
5
117
100
AcDbEntity
8
0
100
AcDbPolyline
90
8
70
1
43
0.0
10
-73.535000000000039
20
5.2850006729999954
10
-73.535000000000039
20
-6.7149993270000152
10
-74.535000000000053
20
-7.7149993270000117
10
-87.135000000000034
20
-7.7149993270000117
10
-88.135000000000048
20
-6.7149993270000063
10
-88.135000000000048
20
5.2850006729999954
10
-87.135000000000034
20
6.2850006729999919
10
-74.535000000000053
20
6.2850006729999919
0
LWPOLYLINE
5
118
100
AcDbEntity
8
0
100
AcDbPolyline
90
8
70
1
43
0.0
10
2.5449999999999307
20
-6.7149993270000152
10
1.5449999999999875
20
-7.7149993270000117
10
-11.054999999999993
20
-7.7149993270000117
10
-12.055000000000007
20
-6.7149993270000063
10
-12.055000000000007
20
5.2850006729999954
10
-11.054999999999993
20
6.2850006729999919
10
1.5449999999999875
20
6.2850006729999919
10
2.5449999999999307
20
5.2850006729999954
0
LWPOLYLINE
5
119
100
AcDbEntity
8
0
100
AcDbPolyline
90
8
70
1
43
0.0
10
78.624999999999972
20
5.2850006729999954
10
78.624999999999972
20
-6.7149993270000152
10
77.624999999999957
20
-7.7149993270000117
10
65.024999999999977
20
-7.7149993270000117
10
64.024999999999963
20
-6.7149993270000063
10
64.024999999999963
20
5.2850006729999954
10
65.024999999999977
20
6.2850006729999919
10
77.624999999999957
20
6.2850006729999919
0
LWPOLYLINE
5
120
100
AcDbEntity
8
0
100
AcDbPolyline
90
8
70
1
43
0.0
10
97.309999999999974
20
24.305000673000006
10
98.30999999999996
20
25.305000672999995
10
110.90999999999997
20
25.305000672999995
10
111.90999999999995
20
24.305000673000006
10
111.90999999999995
20
12.305000672999999
10
110.90999999999997
20
11.30500067299999
10
98.30999999999996
20
11.30500067299999
10
97.309999999999974
20
12.305000672999999
0
LWPOLYLINE
5
121
100
AcDbEntity
8
0
100
AcDbPolyline
90
8
70
1
43
0.0
10
59.26999999999996
20
12.305000672999999
10
59.26999999999996
20
24.305000673000006
10
60.269999999999975
20
25.305000672999995
10
72.86999999999999
20
25.305000672999995
10
73.869999999999933
20
24.305000673000006
10
73.869999999999933
20
12.305000672999999
10
72.86999999999999
20
11.30500067299999
10
60.269999999999975
20
11.30500067299999
0
LWPOLYLINE
5
122
100
AcDbEntity
8
0
100
AcDbPolyline
90
8
70
1
43
0.0
10
35.829999999999984
20
24.305000673000006
10
35.829999999999984
20
12.305000672999999
10
34.82999999999997
20
11.30500067299999
10
22.22999999999999
20
11.30500067299999
10
21.229999999999976
20
12.305000672999999
10
21.229999999999976
20
24.305000673000006
10
22.22999999999999
20
25.305000672999995
10
34.82999999999997
20
25.305000672999995
0
LWPOLYLINE
5
123
100
AcDbEntity
8
0
100
AcDbPolyline
90
8
70
1
43
0.0
10
-15.810000000000031
20
11.30500067299999
10
-16.810000000000045
20
12.305000672999999
10
-16.810000000000045
20
24.305000673000006
10
-15.810000000000031
20
25.305000672999995
10
-3.2100000000000506
20
25.305000672999995
10
-2.2100000000000364
20
24.305000673000006
10
-2.2100000000000364
20
12.305000672999999
10
-3.2100000000000506
20
11.30500067299999
0
LWPOLYLINE
5
124
100
AcDbEntity
8
0
100
AcDbPolyline
90
8
70
1
43
0.0
10
-40.250000000000057
20
24.305000673000006
10
-40.250000000000057
20
12.305000672999999
10
-41.25
20
11.30500067299999
10
-53.850000000000051
20
11.30500067299999
10
-54.849999999999994
20
12.305000672999999
10
-54.849999999999994
20
24.305000673000006
10
-53.850000000000051
20
25.305000672999995
10
-41.25
20
25.305000672999995
0
LWPOLYLINE
5
125
100
AcDbEntity
8
0
100
AcDbPolyline
90
8
70
1
43
0.0
10
-110.91000000000001
20
11.30500067299999
10
-111.91000000000003
20
12.305000672999999
10
-111.91000000000003
20
24.305000673000006
10
-110.91000000000001
20
25.305000672999995
10
-98.310000000000031
20
25.305000672999995
10
-97.310000000000016
20
24.305000673000006
10
-97.310000000000016
20
12.305000672999999
10
-98.310000000000031
20
11.30500067299999
0
LWPOLYLINE
5
126
100
AcDbEntity
8
0
100
AcDbPolyline
90
8
70
1
43
0.0
10
-101.40000100000002
20
30.324999672999994
10
-102.40000100000003
20
31.324999672999994
10
-102.40000100000003
20
43.324999673000008
10
-101.40000100000002
20
44.324999672999994
10
-88.800001000000037
20
44.324999672999994
10
-87.800001000000023
20
43.324999673000008
10
-87.800001000000023
20
31.324999672999994
10
-88.800001000000037
20
30.324999672999994
0
LWPOLYLINE
5
127
100
AcDbEntity
8
0
100
AcDbPolyline
90
8
70
1
43
0.0
10
-68.780000000000072
20
31.324999672999994
10
-69.780000000000015
20
30.324999672999994
10
-82.380000000000067
20
30.324999672999994
10
-83.38000000000001
20
31.324999672999994
10
-83.38000000000001
20
43.324999673000008
10
-82.380000000000067
20
44.324999672999994
10
-69.780000000000015
20
44.324999672999994
10
-68.780000000000072
20
43.324999673000008
0
LWPOLYLINE
5
128
100
AcDbEntity
8
0
100
AcDbPolyline
90
8
70
1
43
0.0
10
-78.290000000000077
20
12.305000672999999
10
-79.29000000000002
20
11.30500067299999
10
-91.890000000000072
20
11.30500067299999
10
-92.890000000000015
20
12.305000672999999
10
-92.890000000000015
20
24.305000673000006
10
-91.890000000000072
20
25.305000672999995
10
-79.29000000000002
20
25.305000672999995
10
-78.290000000000077
20
24.305000673000006
0
LWPOLYLINE
5
129
100
AcDbEntity
8
0
100
AcDbPolyline
90
8
70
1
43
0.0
10
-35.829999999999984
20
12.305000672999999
10
-35.829999999999984
20
24.305000673000006
10
-34.830000000000041
20
25.305000672999995
10
-22.230000000000061
20
25.305000672999995
10
-21.230000000000047
20
24.305000673000006
10
-21.230000000000047
20
12.305000672999999
10
-22.230000000000061
20
11.30500067299999
10
-34.830000000000041
20
11.30500067299999
0
LWPOLYLINE
5
130
100
AcDbEntity
8
0
100
AcDbPolyline
90
8
70
1
43
0.0
10
7.2999999999999687
20
43.324999673000008
10
7.2999999999999687
20
31.324999672999994
10
6.2999999999999545
20
30.324999672999994
10
-6.3000000000000256
20
30.324999672999994
10
-7.3000000000000398
20
31.324999672999994
10
-7.3000000000000398
20
43.324999673000008
10
-6.3000000000000256
20
44.324999672999994
10
6.2999999999999545
20
44.324999672999994
0
LWPOLYLINE
5
131
100
AcDbEntity
8
0
100
AcDbPolyline
90
8
70
1
43
0.0
10
54.849999999999994
20
12.305000672999999
10
53.84999999999998
20
11.30500067299999
10
41.249999999999964
20
11.30500067299999
10
40.249999999999986
20
12.305000672999999
10
40.249999999999986
20
24.305000673000006
10
41.249999999999964
20
25.305000672999995
10
53.84999999999998
20
25.305000672999995
10
54.849999999999994
20
24.305000673000006
0
LWPOLYLINE
5
132
100
AcDbEntity
8
0
100
AcDbPolyline
90
8
70
1
43
0.0
10
83.38000000000001
20
43.324999673000008
10
83.38000000000001
20
31.324999672999994
10
82.379999999999995
20
30.324999672999994
10
69.779999999999973
20
30.324999672999994
10
68.779999999999973
20
31.324999672999994
10
68.779999999999973
20
43.324999673000008
10
69.779999999999973
20
44.324999672999994
10
82.379999999999995
20
44.324999672999994
0
LWPOLYLINE
5
133
100
AcDbEntity
8
0
100
AcDbPolyline
90
8
70
1
43
0.0
10
135.68499999999997
20
12.305000672999999
10
134.685
20
11.30500067299999
10
122.08499999999998
20
11.30500067299999
10
121.08499999999999
20
12.305000672999999
10
121.08499999999999
20
24.305000673000006
10
122.08499999999998
20
25.305000672999995
10
134.685
20
25.305000672999995
10
135.68499999999997
20
24.305000673000006
0
LWPOLYLINE
5
134
100
AcDbEntity
8
0
100
AcDbPolyline
90
8
70
1
43
0.0
10
46.004999999999967
20
6.2850006729999919
10
58.604999999999983
20
6.2850006729999919
10
59.604999999999961
20
5.2850006729999954
10
59.604999999999961
20
-6.7149993270000152
10
58.604999999999983
20
-7.7149993270000117
10
46.004999999999967
20
-7.7149993270000117
10
45.004999999999988
20
-6.7149993270000063
10
45.004999999999988
20
5.2850006729999954
0
LWPOLYLINE
5
135
100
AcDbEntity
8
0
100
AcDbPolyline
90
8
70
1
43
0.0
10
-17.475000000000023
20
6.2850006729999919
10
-16.475000000000009
20
5.2850006729999954
10
-16.475000000000009
20
-6.7149993270000152
10
-17.475000000000023
20
-7.7149993270000117
10
-30.075000000000074
20
-7.7149993270000117
10
-31.075000000000017
20
-6.7149993270000063
10
-31.075000000000017
20
5.2850006729999954
10
-30.075000000000074
20
6.2850006729999919
0
LWPOLYLINE
5
136
100
AcDbEntity
8
0
100
AcDbPolyline
90
8
70
1
43
0.0
10
-106.15500000000004
20
6.2850006729999919
10
-93.555000000000064
20
6.2850006729999919
10
-92.555000000000049
20
5.2850006729999954
10
-92.555000000000049
20
-6.7149993270000152
10
-93.555000000000064
20
-7.7149993270000117
10
-106.15500000000004
20
-7.7149993270000117
10
-107.15500000000006
20
-6.7149993270000063
10
-107.15500000000006
20
5.2850006729999954
0
LWPOLYLINE
5
137
100
AcDbEntity
8
0
100
AcDbPolyline
90
8
70
1
43
0.0
10
-65.025000000000048
20
-12.735000327000012
10
-64.025000000000034
20
-13.735000327000009
10
-64.025000000000034
20
-25.735000327000009
10
-65.025000000000048
20
-26.735000327000009
10
-77.625000000000028
20
-26.735000327000009
10
-78.625000000000043
20
-25.735000327000009
10
-78.625000000000043
20
-13.735000327000009
10
-77.625000000000028
20
-12.735000327000012
0
LWPOLYLINE
5
138
100
AcDbEntity
8
0
100
AcDbPolyline
90
8
70
1
43
0.0
10
-2.5450000000000728
20
-25.735000327000009
10
-2.5450000000000728
20
-13.735000327000009
10
-1.5449999999999875
20
-12.735000327000012
10
11.054999999999993
20
-12.735000327000012
10
12.055000000000007
20
-13.735000327000009
10
12.055000000000007
20
-25.735000327000009
10
11.054999999999993
20
-26.735000327000009
10
-1.5449999999999875
20
-26.735000327000009
0
LWPOLYLINE
5
139
100
AcDbEntity
8
0
100
AcDbPolyline
90
8
70
1
43
0.0
10
126.83999999999997
20
-12.735000327000012
10
139.44
20
-12.735000327000012
10
140.43999999999997
20
-13.735000327000009
10
140.43999999999997
20
-25.735000327000009
10
139.44
20
-26.735000327000009
10
126.83999999999997
20
-26.735000327000009
10
125.83999999999996
20
-25.735000327000009
10
125.83999999999996
20
-13.735000327000009
0
LWPOLYLINE
5
140
100
AcDbEntity
8
0
100
AcDbPolyline
90
8
70
1
43
0.0
10
49.094999999999978
20
-12.735000327000012
10
50.094999999999956
20
-13.735000327000009
10
50.094999999999956
20
-25.735000327000009
10
49.094999999999978
20
-26.735000327000009
10
36.494999999999962
20
-26.735000327000009
10
35.494999999999983
20
-25.735000327000009
10
35.494999999999983
20
-13.735000327000009
10
36.494999999999962
20
-12.735000327000012
0
LWPOLYLINE
5
141
100
AcDbEntity
8
0
100
AcDbPolyline
90
8
70
1
43
0.0
10
-39.585000000000008
20
-26.735000327000009
10
-40.585000000000022
20
-25.735000327000009
10
-40.585000000000022
20
-13.735000327000009
10
-39.585000000000008
20
-12.735000327000012
10
-26.985000000000028
20
-12.735000327000012
10
-25.985000000000014
20
-13.735000327000009
10
-25.985000000000014
20
-25.735000327000009
10
-26.985000000000028
20
-26.735000327000009
0
LWPOLYLINE
5
142
100
AcDbEntity
8
0
100
AcDbPolyline
90
6
70
1
43
0.0
10
-108.25250000000004
20
-26.73500132700001
10
-134.25250000000005
20
-26.73500132700001
10
-137.25250000000003
20
-25.003001327000021
10
-137.25250000000003
20
-12.735001327000006
10
-105.2525
20
-12.735001327000006
10
-105.2525
20
-25.003001327000021
0
LWPOLYLINE
5
143
100
AcDbEntity
8
0
100
AcDbPolyline
90
8
70
1
43
0.0
10
-54.515000000000029
20
-6.7149993270000152
10
-55.515000000000043
20
-7.7149993270000117
10
-68.115000000000023
20
-7.7149993270000117
10
-69.115000000000038
20
-6.7149993270000063
10
-69.115000000000038
20
5.2850006729999954
10
-68.115000000000023
20
6.2850006729999919
10
-55.515000000000043
20
6.2850006729999919
10
-54.515000000000029
20
5.2850006729999954
0
LWPOLYLINE
5
144
100
AcDbEntity
8
0
100
AcDbPolyline
90
8
70
1
43
0.0
10
21.564999999999941
20
-6.7149993270000152
10
20.564999999999998
20
-7.7149993270000117
10
7.9649999999999466
20
-7.7149993270000117
10
6.9650000000000034
20
-6.7149993270000063
10
6.9650000000000034
20
5.2850006729999954
10
7.9649999999999466
20
6.2850006729999919
10
20.564999999999998
20
6.2850006729999919
10
21.564999999999941
20
5.2850006729999954
0
LWPOLYLINE
5
145
100
AcDbEntity
8
0
100
AcDbPolyline
90
8
70
1
43
0.0
10
83.044999999999973
20
-6.7149993270000063
10
83.044999999999973
20
5.2850006729999954
10
84.044999999999987
20
6.2850006729999919
10
96.644999999999968
20
6.2850006729999919
10
97.644999999999982
20
5.2850006729999954
10
97.644999999999982
20
-6.7149993270000152
10
96.644999999999968
20
-7.7149993270000117
10
84.044999999999987
20
-7.7149993270000117
0
LWPOLYLINE
5
146
100
AcDbEntity
8
0
100
AcDbPolyline
90
8
70
1
43
0.0
10
92.889999999999986
20
24.305000673000006
10
92.889999999999986
20
12.305000672999999
10
91.890000000000001
20
11.30500067299999
10
79.289999999999992
20
11.30500067299999
10
78.289999999999964
20
12.305000672999999
10
78.289999999999964
20
24.305000673000006
10
79.289999999999992
20
25.305000672999995
10
91.890000000000001
20
25.305000672999995
0
LWPOLYLINE
5
147
100
AcDbEntity
8
0
100
AcDbPolyline
90
8
70
1
43
0.0
10
63.359999999999985
20
30.324999672999994
10
50.75999999999997
20
30.324999672999994
10
49.759999999999991
20
31.324999672999994
10
49.759999999999991
20
43.324999673000008
10
50.75999999999997
20
44.324999672999994
10
63.359999999999985
20
44.324999672999994
10
64.359999999999957
20
43.324999673000008
10
64.359999999999957
20
31.324999672999994
0
LWPOLYLINE
5
148
100
AcDbEntity
8
0
100
AcDbPolyline
90
8
70
1
43
0.0
10
11.71999999999997
20
31.324999672999994
10
11.71999999999997
20
43.324999673000008
10
12.719999999999985
20
44.324999672999994
10
25.319999999999965
20
44.324999672999994
10
26.319999999999979
20
43.324999673000008
10
26.319999999999979
20
31.324999672999994
10
25.319999999999965
20
30.324999672999994
10
12.719999999999985
20
30.324999672999994
0
LWPOLYLINE
5
149
100
AcDbEntity
8
0
100
AcDbPolyline
90
8
70
1
43
0.0
10
-12.720000000000056
20
44.324999672999994
10
-11.720000000000041
20
43.324999673000008
10
-11.720000000000041
20
31.324999672999994
10
-12.720000000000056
20
30.324999672999994
10
-25.320000000000036
20
30.324999672999994
10
-26.32000000000005
20
31.324999672999994
10
-26.32000000000005
20
43.324999673000008
10
-25.320000000000036
20
44.324999672999994
0
LWPOLYLINE
5
150
100
AcDbEntity
8
0
100
AcDbPolyline
90
8
70
1
43
0.0
10
-49.760001000000074
20
43.324999673000008
10
-49.760001000000074
20
31.324999672999994
10
-50.760001000000017
20
30.324999672999994
10
-63.360001000000068
20
30.324999672999994
10
-64.360001000000011
20
31.324999672999994
10
-64.360001000000011
20
43.324999673000008
10
-63.360001000000068
20
44.324999672999994
10
-50.760001000000017
20
44.324999672999994
0
LWPOLYLINE
5
151
100
AcDbEntity
8
0
100
AcDbPolyline
90
8
70
1
43
0.0
10
-122.08500000000001
20
11.30500067299999
10
-134.68500000000006
20
11.30500067299999
10
-135.685
20
12.305000672999999
10
-135.685
20
24.305000673000006
10
-134.68500000000006
20
25.305000672999995
10
-122.08500000000001
20
25.305000672999995
10
-121.08500000000006
20
24.305000673000006
10
-121.08500000000006
20
12.305000672999999
0
LWPOLYLINE
5
152
100
AcDbEntity
8
0
100
AcDbPolyline
90
8
70
1
43
0.0
10
-107.82000000000004
20
30.324999672999994
10
-120.42000000000002
20
30.324999672999994
10
-121.42000000000003
20
31.324999672999994
10
-121.42000000000003
20
43.324999673000008
10
-120.42000000000002
20
44.324999672999994
10
-107.82000000000004
20
44.324999672999994
10
-106.82000000000002
20
43.324999673000008
10
-106.82000000000002
20
31.324999672999994
0
LWPOLYLINE
5
153
100
AcDbEntity
8
0
100
AcDbPolyline
90
8
70
1
43
0.0
10
-139.44000000000003
20
30.324999672999994
10
-140.44000000000005
20
31.324999672999994
10
-140.44000000000005
20
43.324999673000008
10
-139.44000000000003
20
44.324999672999994
10
-126.84000000000005
20
44.324999672999994
10
-125.84000000000003
20
43.324999673000008
10
-125.84000000000003
20
31.324999672999994
10
-126.84000000000005
20
30.324999672999994
0
LWPOLYLINE
5
154
100
AcDbEntity
8
0
100
AcDbPolyline
90
8
70
1
43
0.0
10
-59.270000000000067
20
12.305000672999999
10
-60.27000000000001
20
11.30500067299999
10
-72.870000000000061
20
11.30500067299999
10
-73.870000000000076
20
12.305000672999999
10
-73.870000000000076
20
24.305000673000006
10
-72.870000000000061
20
25.305000672999995
10
-60.27000000000001
20
25.305000672999995
10
-59.270000000000067
20
24.305000673000006
0
LWPOLYLINE
5
155
100
AcDbEntity
8
0
100
AcDbPolyline
90
8
70
1
43
0.0
10
-31.740000000000066
20
30.324999672999994
10
-44.340000000000046
20
30.324999672999994
10
-45.34000000000006
20
31.324999672999994
10
-45.34000000000006
20
43.324999673000008
10
-44.340000000000046
20
44.324999672999994
10
-31.740000000000066
20
44.324999672999994
10
-30.740000000000052
20
43.324999673000008
10
-30.740000000000052
20
31.324999672999994
0
LWPOLYLINE
5
156
100
AcDbEntity
8
0
100
AcDbPolyline
90
8
70
1
43
0.0
10
16.809999999999974
20
24.305000673000006
10
16.809999999999974
20
12.305000672999999
10
15.80999999999996
20
11.30500067299999
10
3.2099999999999795
20
11.30500067299999
10
2.2099999999999653
20
12.305000672999999
10
2.2099999999999653
20
24.305000673000006
10
3.2099999999999795
20
25.305000672999995
10
15.80999999999996
20
25.305000672999995
0
LWPOLYLINE
5
157
100
AcDbEntity
8
0
100
AcDbPolyline
90
8
70
1
43
0.0
10
30.739999999999981
20
43.324999673000008
10
31.739999999999995
20
44.324999672999994
10
44.339999999999975
20
44.324999672999994
10
45.339999999999989
20
43.324999673000008
10
45.339999999999989
20
31.324999672999994
10
44.339999999999975
20
30.324999672999994
10
31.739999999999995
20
30.324999672999994
10
30.739999999999981
20
31.324999672999994
0
LWPOLYLINE
5
158
100
AcDbEntity
8
0
100
AcDbPolyline
90
8
70
1
43
0.0
10
102.40000000000002
20
31.324999672999994
10
101.40000000000001
20
30.324999672999994
10
88.799999999999955
20
30.324999672999994
10
87.799999999999983
20
31.324999672999994
10
87.799999999999983
20
43.324999673000008
10
88.799999999999955
20
44.324999672999994
10
101.40000000000001
20
44.324999672999994
10
102.40000000000002
20
43.324999673000008
0
LWPOLYLINE
5
159
100
AcDbEntity
8
0
100
AcDbPolyline
90
6
70
1
43
0.0
10
137.2525
20
-5.9830003270000098
10
134.2525
20
-7.7150003270000056
10
108.25249999999997
20
-7.7150003270000056
10
105.2525
20
-5.9830003270000098
10
105.2525
20
6.2849996729999891
10
137.2525
20
6.2849996729999891
0
LWPOLYLINE
5
160
100
AcDbEntity
8
0
100
AcDbPolyline
90
8
70
1
43
0.0
10
39.584998999999961
20
-7.7149993270000117
10
26.984999000000016
20
-7.7149993270000117
10
25.984998999999931
20
-6.7149993270000063
10
25.984998999999931
20
5.2850006729999954
10
26.984999000000016
20
6.2850006729999919
10
39.584998999999961
20
6.2850006729999919
10
40.584998999999975
20
5.2850006729999954
10
40.584998999999975
20
-6.7149993270000152
0
LWPOLYLINE
5
161
100
AcDbEntity
8
0
100
AcDbPolyline
90
8
70
1
43
0.0
10
-36.495000000000033
20
6.2850006729999919
10
-35.495000000000019
20
5.2850006729999954
10
-35.495000000000019
20
-6.7149993270000152
10
-36.495000000000033
20
-7.7149993270000117
10
-49.095000000000013
20
-7.7149993270000117
10
-50.095000000000027
20
-6.7149993270000063
10
-50.095000000000027
20
5.2850006729999954
10
-49.095000000000013
20
6.2850006729999919
0
LWPOLYLINE
5
162
100
AcDbEntity
8
0
100
AcDbPolyline
90
8
70
1
43
0.0
10
-119.70750000000002
20
-7.7149993270000117
10
-132.3075
20
-7.7149993270000117
10
-133.30748000000006
20
-6.7149993270000152
10
-133.30748000000006
20
5.2850006729999954
10
-132.3075
20
6.2850006729999919
10
-119.70750000000002
20
6.2850006729999919
10
-118.70750000000001
20
5.2850006729999954
10
-118.70750000000001
20
-6.7149993270000063
0
LWPOLYLINE
5
163
100
AcDbEntity
8
0
100
AcDbPolyline
90
8
70
1
43
0.0
10
-58.60500100000003
20
-26.735000327000009
10
-59.605001000000044
20
-25.735000327000009
10
-59.605001000000044
20
-13.735000327000009
10
-58.60500100000003
20
-12.735000327000012
10
-46.00500100000005
20
-12.735000327000012
10
-45.005001000000036
20
-13.735000327000009
10
-45.005001000000036
20
-25.735000327000009
10
-46.00500100000005
20
-26.735000327000009
0
LWPOLYLINE
5
164
100
AcDbEntity
8
0
100
AcDbPolyline
90
8
70
1
43
0.0
10
30.075000000000003
20
-12.735000327000012
10
31.075000000000017
20
-13.735000327000009
10
31.075000000000017
20
-25.735000327000009
10
30.075000000000003
20
-26.735000327000009
10
17.474999999999952
20
-26.735000327000009
10
16.474999999999937
20
-25.735000327000009
10
16.474999999999937
20
-13.735000327000009
10
17.474999999999952
20
-12.735000327000012
0
LWPOLYLINE
5
165
100
AcDbEntity
8
0
100
AcDbPolyline
90
8
70
1
43
0.0
10
-111.91000000000003
20
-44.755000327000012
10
-111.91000000000003
20
-32.755000327000019
10
-110.91000000000001
20
-31.755000327000005
10
-98.310000000000031
20
-31.755000327000005
10
-97.310000000000016
20
-32.755000327000019
10
-97.310000000000016
20
-44.755000327000012
10
-98.310000000000031
20
-45.755000327000005
10
-110.91000000000001
20
-45.755000327000005
0
LWPOLYLINE
5
166
100
AcDbEntity
8
0
100
AcDbPolyline
90
4
70
1
43
0.0
10
13.00999998990001
20
48.189999999999984
10
15.009999989899935
20
48.189999999999962
42
-0.99999999999999989
10
15.009999989899999
20
46.689999999999962
10
13.009999989899868
20
46.689999999999976
42
-0.99999999999999989
0
LWPOLYLINE
5
167
100
AcDbEntity
8
0
100
AcDbPolyline
90
4
70
1
43
0.0
10
-134.14000001009995
20
48.190000000000069
10
-132.14000001010001
20
48.190000000000062
42
-0.99999999999999989
10
-132.14000001009998
20
46.690000000000026
10
-134.1400000101001
20
46.690000000000047
42
-0.99999999999999989
0
LWPOLYLINE
5
168
100
AcDbEntity
8
0
100
AcDbPolyline
90
4
70
1
43
0.0
10
-106.30400001010003
20
-46.689999999999969
10
-103.80400001010003
20
-46.689999999999969
42
-0.99999999999999989
10
-103.80400001010003
20
-48.189999999999969
10
-106.30400001010003
20
-48.189999999999969
42
-0.99999999999999989
0
LWPOLYLINE
5
169
100
AcDbEntity
8
0
100
AcDbPolyline
90
4
70
1
43
0.0
10
103.30999998989996
20
-46.689999999999998
42
0.99999999999999989
10
103.30999998990008
20
-48.190000000000019
10
105.80999998990002
20
-48.190000000000012
42
0.99999999999999989
10
105.80999998990002
20
-46.690000000000005
0
LWPOLYLINE
5
170
100
AcDbEntity
8
0
100
AcDbPolyline
90
4
70
1
43
0.0
10
133.85999998990002
20
46.690000000000033
10
131.85999998990007
20
46.690000000000055
42
-0.99999999999999989
10
131.85999998990007
20
48.190000000000062
10
133.85999998990002
20
48.190000000000019
42
-0.99999999999999989
0
LWPOLYLINE
5
171
100
AcDbEntity
8
0
100
AcDbPolyline
90
8
70
1
43
0.0
10
140.44000000000005
20
31.324998487693108
10
139.44
20
30.324998487693115
10
126.84
20
30.324998487693115
10
125.84
20
31.324998487693108
10
125.84
20
43.324999673000008
10
126.83999999999997
20
44.324999672999994
10
139.44
20
44.324999672999994
10
140.44000000000005
20
43.324999673000008
0
LWPOLYLINE
5
172
100
AcDbEntity
8
0
100
AcDbPolyline
90
8
70
1
43
0.0
10
106.81999999999995
20
43.324999673000008
10
107.81999999999996
20
44.324999672999994
10
120.41999999999999
20
44.324999672999994
10
121.42000000000003
20
43.324999673000008
10
121.42000000000003
20
31.324998487693108
10
120.41999999999999
20
30.324998487693115
10
107.82000000000004
20
30.324998487693115
10
106.81999999999995
20
31.324998487693108
0
CIRCLE
5
173
100
AcDbEntity
8
0
100
AcDbCircle
10
104.55999998990002
20
-51.024999999999999
30
0
40
1.6499999999999915
210
0
220
0
230
1
0
CIRCLE
5
174
100
AcDbEntity
8
0
100
AcDbCircle
10
-105.05400001010003
20
-51.025000000000034
30
0
40
1.650000000000027
210
0
220
0
230
1
0
CIRCLE
5
175
100
AcDbEntity
8
0
100
AcDbCircle
10
104.61000000000006
20
37.324999673000008
30
1.7208456881689926e-14
40
0.99999999999990763
210
0
220
0
230
1
0
CIRCLE
5
176
100
AcDbEntity
8
0
100
AcDbCircle
10
-14.265000000000043
20
-0.7149993270000099
30
-2.2204460492503131e-15
40
0.99999999999995648
210
0
220
0
230
1
0
CIRCLE
5
177
100
AcDbEntity
8
0
100
AcDbCircle
10
57.059999999999995
20
18.304999672999994
30
8.8817841970012523e-15
40
0.99999999999995204
210
0
220
0
230
1
0
CIRCLE
5
178
100
AcDbEntity
8
0
100
AcDbCircle
10
14.009999989900024
20
51.025000000000006
30
0
40
1.6500000000000048
210
0
220
0
230
1
0
CIRCLE
5
179
100
AcDbEntity
8
0
100
AcDbCircle
10
-133.14000001010001
20
51.024999999999999
30
0
40
1.6499999999999204
210
0
220
0
230
1
0
CIRCLE
5
180
100
AcDbEntity
8
0
100
AcDbCircle
10
-123.63
20
37.324999672999994
30
-1.0824674490095276e-14
40
0.99999999999994316
210
0
220
0
230
1
0
CIRCLE
5
181
100
AcDbEntity
8
0
100
AcDbCircle
10
33.284999000000006
20
-19.735000327000012
30
1.3877787807814457e-15
40
0.99999999999996092
210
0
220
0
230
1
0
CIRCLE
5
182
100
AcDbEntity
8
0
100
AcDbCircle
10
-42.795000999999999
20
-19.735000327000012
30
-7.7715611723760958e-15
40
0.99999999999996092
210
0
220
0
230
1
0
CIRCLE
5
183
100
AcDbEntity
8
0
100
AcDbCircle
10
-137.89500000000004
20
18.305000672999981
30
-1.4988010832439613e-14
40
0.99999999999997868
210
0
220
0
230
1
0
CIRCLE
5
184
100
AcDbEntity
8
0
100
AcDbCircle
10
95.09999999999998
20
-38.755000327000005
30
6.6613381477509392e-15
40
1.0000000000000142
210
0
220
0
230
1
0
CIRCLE
5
185
100
AcDbEntity
8
0
100
AcDbCircle
10
-12.175032999999971
20
-43.057846327000007
30
-6.9388939039072284e-15
40
0.99999999999996536
210
0
220
0
230
1
0
CIRCLE
5
186
100
AcDbEntity
8
0
100
AcDbCircle
10
-95.09999999999998
20
-38.755000327000026
30
-1.6653345369377348e-14
40
0.99999999999999645
210
0
220
0
230
1
0
CIRCLE
5
187
100
AcDbEntity
8
0
100
AcDbCircle
10
28.530000000000015
20
37.324999673000001
30
8.0491169285323849e-15
40
0.99999999999995204
210
0
220
0
230
1
0
CIRCLE
5
188
100
AcDbEntity
8
0
100
AcDbCircle
10
-47.550000000000026
20
37.324999673000001
30
-1.3877787807814457e-15
40
0.99999999999999645
210
0
220
0
230
1
0
CIRCLE
5
189
100
AcDbEntity
8
0
100
AcDbCircle
10
-109.36500000000002
20
-0.71500032700002158
30
-1.3877787807814457e-14
40
0.99999999999999645
210
0
220
0
230
1
0
CIRCLE
5
190
100
AcDbEntity
8
0
100
AcDbCircle
10
99.855000000000018
20
-0.71500032699998606
30
1.1934897514720433e-14
40
0.9999999999998721
210
0
220
0
230
1
0
CIRCLE
5
191
100
AcDbEntity
8
0
100
AcDbCircle
10
-76.07999999999997
20
18.304999672999994
30
-7.2164496600635175e-15
40
0.99999999999997868
210
0
220
0
230
1
0
CIRCLE
5
192
100
AcDbEntity
8
0
100
AcDbCircle
10
123.63000000000007
20
-19.735000326999995
30
1.2490009027033011e-14
40
1.0000000000000142
210
0
220
0
230
1
0
CIRCLE
5
193
100
AcDbEntity
8
0
100
AcDbCircle
10
132.85999998990002
20
51.025000000000006
30
0
40
1.6499999999999559
210
0
220
0
230
1
0
CIRCLE
5
194
100
AcDbEntity
8
0
100
AcDbCircle
10
137.89500000000001
20
18.305000673000016
30
1.8873791418627661e-14
40
0.99999999999992539
210
0
220
0
230
1
0
CIRCLE
5
195
100
AcDbEntity
8
0
100
AcDbCircle
10
-140.75780000000003
20
-19.735000327000012
30
-2.7755575615628914e-16
40
0.99999999999999645
210
0
220
0
230
1
0
ENDSEC
0
SECTION
2
OBJECTS
0
DICTIONARY
5
C
100
AcDbDictionary
3
ACAD_GROUP
350
D
3
ACAD_MLINESTYLE
350
17
0
DICTIONARY
5
D
100
AcDbDictionary
0
DICTIONARY
5
1A
330
C
100
AcDbDictionary
0
DICTIONARY
5
17
100
AcDbDictionary
0
ENDSEC
0
EOF
