0
SECTION
2
HEADER
9
$INSUNITS
70
4
9
$ACADVER
1
AC1014
9
$HANDSEED
5
FFFF
0
ENDSEC
0
SECTION
2
TABLES
0
TABLE
2
VPORT
5
8
100
AcDbSymbolTable
0
ENDTAB
0
TABLE
2
LTYPE
5
5
100
AcDbSymbolTable
0
LTYPE
5
14
100
AcDbSymbolTableRecord
100
AcDbLinetypeTableRecord
2
BYBLOCK
70
0
0
LTYPE
5
15
100
AcDbSymbolTableRecord
100
AcDbLinetypeTableRecord
2
BYLAYER
70
0
0
LTYPE
5
16
100
AcDbSymbolTableRecord
100
AcDbLinetypeTableRecord
2
DASHED
70
0
3
Dashed __ __ __ __ __ __ __ __ __ __ __ __ __ _
72
65
73
2
40
0.75
49
0.5
74
0
49
-0.25
74
0
0
ENDTAB
0
TABLE
2
LAYER
5
2
100
AcDbSymbolTable
70
2
0
LAYER
5
50
100
AcDbSymbolTableRecord
100
AcDbLayerTableRecord
2
0
70
0
62
7
6
CONTINUOUS
0
ENDTAB
0
TABLE
2
STYLE
5
3
100
AcDbSymbolTable
70
1
0
STYLE
5
11
100
AcDbSymbolTableRecord
100
AcDbTextStyleTableRecord
2
STANDARD
70
0
0
ENDTAB
0
TABLE
2
VIEW
5
6
100
AcDbSymbolTable
70
0
0
ENDTAB
0
TABLE
2
UCS
5
7
100
AcDbSymbolTable
70
0
0
ENDTAB
0
TABLE
2
APPID
5
9
100
AcDbSymbolTable
70
2
0
APPID
5
12
100
AcDbSymbolTableRecord
100
AcDbRegAppTableRecord
2
ACAD
70
0
0
ENDTAB
0
TABLE
2
DIMSTYLE
5
A
100
AcDbSymbolTable
70
1
0
ENDTAB
0
TABLE
2
BLOCK_RECORD
5
1
100
AcDbSymbolTable
70
1
0
BLOCK_RECORD
5
1F
100
AcDbSymbolTableRecord
100
AcDbBlockTableRecord
2
*MODEL_SPACE
0
BLOCK_RECORD
5
1B
100
AcDbSymbolTableRecord
100
AcDbBlockTableRecord
2
*PAPER_SPACE
0
ENDTAB
0
ENDSEC
0
SECTION
2
BLOCKS
0
BLOCK
5
20
100
AcDbEntity
100
AcDbBlockBegin
2
*MODEL_SPACE
0
ENDBLK
5
21
100
AcDbEntity
100
AcDbBlockEnd
0
BLOCK
5
1C
100
AcDbEntity
100
AcDbBlockBegin
2
*PAPER_SPACE
0
ENDBLK
5
1D
100
AcDbEntity
100
AcDbBlockEnd
0
ENDSEC
0
SECTION
2
ENTITIES
0
SPLINE
5
100
100
AcDbEntity
8
0
100
AcDbSpline
70
0
71
3
72
10
73
6
74
0
42
0.000000001
43
0.0000000001
44
0.0000000001
40
-1.5567935428502373
40
-1.5567935428502373
40
-1.5567935428502373
40
-1.5567935428502373
40
-0.89111236245471037
40
-0.89111236245471037
40
-0.19821008726157349
40
-0.19821008726157349
40
-0.19821008726157349
40
-0.19821008726157349
10
30.325000048814914
20
-37.348858606834824
30
0
10
26.724746761483338
20
-37.344758293344022
30
0
10
23.211702461104299
20
-36.68111663753885
30
0
10
16.241595831122396
20
-34.370308815021957
30
0
10
13.300773002464236
20
-32.885196907466089
30
0
10
10.968524549938653
20
-31.567668853740813
30
0
0
SPLINE
5
101
100
AcDbEntity
8
0
100
AcDbSpline
70
0
71
3
72
20
73
16
74
0
42
0.000000001
43
0.0000000001
44
0.0000000001
40
0
40
0
40
0
40
0
40
0.0097661118346730399
40
0.0097661118346730399
40
0.019532223669346323
40
0.019532223669346323
40
0.029298335504019432
40
0.029298335504019432
40
0.039064447338692583
40
0.039064447338692583
40
0.048830559173365852
40
0.048830559173365852
40
0.057354463774704358
40
0.057354463774704358
40
0.065878368376042939
40
0.065878368376042939
40
0.065878368376042939
40
0.065878368376042939
10
11.09148939512716
20
-31.100000190751011
30
-1.2260097791011486e-17
10
11.058935689011584
20
-31.100000190751011
30
-1.2260097791011486e-17
10
11.026693214069613
20
-31.106358653442165
30
2.0816681711721685e-16
10
10.966460390999069
20
-31.13107670660964
30
2.0816681711721685e-16
10
10.939045901488475
20
-31.149199979025294
30
2.0816681711721685e-16
10
10.892706925337096
20
-31.194934806199775
30
2.0816681711721685e-16
10
10.874225464565013
20
-31.222109111083402
30
2.0816681711721685e-16
10
10.848719129645785
20
-31.282012383167871
30
2.0816681711721685e-16
10
10.841938109962497
20
-31.314168642437778
30
2.0816681711721685e-16
10
10.84108373267776
20
-31.37927044861005
30
2.0816681711721685e-16
10
10.847018543388822
20
-31.411593586762194
30
2.0816681711721685e-16
10
10.86942244706508
20
-31.468294611663318
30
2.0816681711721685e-16
10
10.884292480599322
20
-31.492747302983549
30
2.0816681711721685e-16
10
10.921610102293808
20
-31.535602791236631
30
2.0816681711721685e-16
10
10.943786057698313
20
-31.553693645611407
30
3.1225022567582528e-16
10
10.968524549938659
20
-31.567668853740809
30
3.1225022567582528e-16
0
LINE
5
102
100
AcDbEntity
8
0
100
AcDbLine
10
11.09148939512716
20
-31.100000190751011
30
-1.2260097791011486e-17
11
49.558648819446098
21
-31.100000190750979
31
4.5102810375396984e-16
0
SPLINE
5
103
100
AcDbEntity
8
0
100
AcDbSpline
70
0
71
3
72
20
73
16
74
0
42
0.000000001
43
0.0000000001
44
0.0000000001
40
0
40
0
40
0
40
0
40
0.0097661118346739663
40
0.0097661118346739663
40
0.019532223669347124
40
0.019532223669347124
40
0.029298335504020508
40
0.029298335504020508
40
0.039064447338693492
40
0.039064447338693492
40
0.048830559173367018
40
0.048830559173367018
40
0.057351320914828863
40
0.057351320914828863
40
0.065872082656290493
40
0.065872082656290493
40
0.065872082656290493
40
0.065872082656290493
10
49.681667997900419
20
-31.567638150979491
30
6.9388939039072284e-17
10
49.710007686687916
20
-31.551619230251561
30
6.9388939039072284e-17
10
49.734947581178275
20
-31.530218087735609
30
-2.0816681711721685e-16
10
49.77522019781118
20
-31.479060571406361
30
-2.0816681711721685e-16
10
49.790167891788428
20
-31.449793291332174
30
-2.0816681711721685e-16
10
49.808003329320059
20
-31.387176422235314
30
-2.0816681711721685e-16
10
49.810720556370576
20
-31.354425484610044
30
-2.0816681711721685e-16
10
49.803448137915247
20
-31.289725507351562
30
-2.0816681711721685e-16
10
49.793528020693614
20
-31.258395034765151
30
-2.0816681711721685e-16
10
49.762236717566857
20
-31.201300118388417
30
-2.0816681711721685e-16
10
49.741164693574696
20
-31.176081533117777
30
-2.0816681711721685e-16
10
49.693767825809552
20
-31.137751378389513
30
-2.0816681711721685e-16
10
49.668800304213846
20
-31.123784906932755
30
-2.0816681711721685e-16
10
49.615247310029233
20
-31.10484041612796
30
-2.0816681711721685e-16
10
49.587051358584304
20
-31.100000190750979
30
6.9388939039072284e-17
10
49.558648819446098
20
-31.100000190750979
30
6.9388939039072284e-17
0
SPLINE
5
104
100
AcDbEntity
8
0
100
AcDbSpline
70
0
71
3
72
10
73
6
74
0
42
0.000000001
43
0.0000000001
44
0.0000000001
40
0
40
0
40
0
40
0
40
0.77400511950452644
40
0.77400511950452644
40
1.3959847036921333
40
1.3959847036921333
40
1.3959847036921333
40
1.3959847036921333
10
30.325000048825004
20
-37.348858606834824
30
0
10
32.905015440592635
20
-37.351796975630059
30
0
10
36.442872376010612
20
-37.01762460622912
30
0
10
44.405237708933768
20
-34.376864598652539
30
0
10
47.329469684978505
20
-32.89721091353195
30
-8.3266726846886741e-16
10
49.681667997900412
20
-31.567638150979477
30
-8.3266726846886741e-16
0
LWPOLYLINE
5
105
100
AcDbEntity
8
0
100
AcDbPolyline
90
104
70
1
43
0.0
10
132.35000005252408
20
52.38999981250609
10
131.10716929870804
20
52.38999981250609
42
0.25157889079538487
10
130.02330039299781
20
51.807793790771655
10
127.54017896395129
20
48.058280438001034
42
-0.25158008251918301
10
126.87317912776612
20
47.699999809249078
10
54.101820970716119
20
47.699999809249718
42
-0.25158008259670861
10
53.434821135236078
20
48.058280437747101
10
50.951699708655198
20
51.807793789166055
42
0.25157889087257057
10
49.867830802736115
20
52.389999811215411
10
48.625000049477052
20
52.389999811215077
10
48.625000049477052
20
50.339999810215062
42
-0.99999999999999989
10
46.625000049477023
20
50.339999810215119
10
46.625000049477023
20
52.389999811215077
10
45.382169294195194
20
52.389999811215077
42
0.2515788907828761
10
44.298300388518641
20
51.807793789531729
10
41.81517896002007
20
48.058280437969117
42
-0.25158008249589225
10
41.148179123888077
20
47.699999809249093
10
-41.14817903003587
20
47.699999809249022
42
-0.25158008258181269
10
-41.81517886631967
20
48.05828043816804
10
-44.298300292764878
20
51.807793789057058
42
0.25157889086204016
10
-45.382169198655298
20
52.389999811063262
10
-46.624999951917907
20
52.38999981106307
10
-46.624999951917871
20
50.339999810063091
42
-0.99999999999999989
10
-48.6249999519179
20
50.339999810063091
10
-48.624999951917864
20
52.38999981106307
10
-49.867830708192038
20
52.38999981106307
42
0.25157889081443408
10
-50.95169961395365
20
51.80779378925115
10
-53.434821041576569
20
48.058280438048079
42
-0.25158008252454112
10
-54.101820877752417
20
47.699999809249071
10
-126.87317903220523
20
47.699999809249121
42
-0.25158008259367665
10
-127.5401788676652
20
48.058280437768047
10
-130.02330029269592
20
51.807793787103037
42
0.25157889088118024
10
-131.10716919863779
20
52.389999809187032
10
-132.34999995489576
20
52.389999809187024
10
-132.34999995489576
20
50.339999809187042
42
-0.99999999999999989
10
-134.34999995489571
20
50.339999809187042
10
-134.34999995489568
20
52.389999809187024
10
-135.59283071017757
20
52.389999809187024
42
0.25157889078302742
10
-136.67669961585443
20
51.807793787503158
10
-139.15982104367151
20
48.058280436969113
42
-0.25158008248247099
10
-139.82682087976326
20
47.699999808249068
10
-141.94999995097794
20
47.699999808249046
42
0.41421356237310802
10
-142.94999995097794
20
46.699999808249039
10
-142.949999950978
20
-46.700000190750984
42
0.41421356237311063
10
-141.94999995097797
20
-47.700000190750949
10
-135.07756590374828
20
-47.700000190750806
42
-0.25158008234056028
10
-134.41056606821991
20
-48.058280819725034
10
-131.9141996111029
20
-51.827794167591989
42
0.25157889088411756
10
-130.8303307051529
20
-52.410000189688176
10
-129.58749995589582
20
-52.410000189687949
10
-129.58749995589579
20
-50.36000018968803
42
-0.99999999999999989
10
-127.58749995589579
20
-50.360000189688066
10
-127.58749995589584
20
-52.410000189687949
10
-126.34466920661181
20
-52.410000189687949
42
0.25157889077378243
10
-125.26080030095996
20
-51.827794168041812
10
-122.76443384110964
20
-48.058280819448115
42
-0.2515800824109018
10
-122.09743400522092
20
-47.700000190750984
10
-87.4525659041457
20
-47.700000190750814
42
-0.25158008276403743
10
-86.785566066536717
20
-48.05828082022397
10
-84.289199609688907
20
-51.827794168311016
42
0.25157889090447333
10
-83.205330703683842
20
-52.410000190490216
10
-81.96249995443182
20
-52.410000190490038
10
-81.962499954431763
20
-50.360000189489973
42
-0.99999999999999989
10
-79.962499954431777
20
-50.360000189489995
10
-79.962499954431763
20
-52.410000190490038
10
-78.719669202172682
20
-52.410000190490038
42
0.25157889087580471
10
-77.635800296245264
20
-51.827794168427808
10
-75.139433838392009
20
-48.058280819704819
42
-0.25158008250294578
10
-74.472434002364224
20
-47.700000190750991
10
74.472434097990146
20
-47.700000190751297
42
-0.25158008281565186
10
75.13943393498009
20
-48.058280819664972
10
77.635800393118188
20
-51.827794168337874
42
0.25157889086056356
10
78.719669299004082
20
-52.410000190337691
10
79.962500049268144
20
-52.410000190337925
10
79.962500049268186
20
-50.360000189337903
42
-0.99999999999999989
10
81.962500049268129
20
-50.360000189337917
10
81.962500049268101
20
-52.410000190337925
10
83.205330801544051
20
-52.410000190337946
42
0.25157889080507551
10
84.289199707280488
20
-51.827794168564203
10
86.785566166785998
20
-48.058280819526892
42
-0.25158008267262699
10
87.452566003420159
20
-47.700000190750941
10
122.09743410032509
20
-47.700000190750337
42
-0.25158008276084182
10
122.76443393705512
20
-48.058280819842892
10
125.26080039334019
20
-51.827794167897949
42
0.25157889093090979
10
126.34466929941598
20
-52.410000190184682
10
127.58750005066204
20
-52.410000190184888
10
127.58750005066216
20
-50.360000189184944
42
-0.99999999999999989
10
129.5875000506621
20
-50.360000189184873
10
129.58750005066207
20
-52.410000190184888
10
130.83033080393818
20
-52.410000190184888
42
0.25157889080504292
10
131.91419970967451
20
-51.827794168411145
10
134.41056616941211
20
-48.058280819023892
42
-0.25158008225562262
10
135.07756600479115
20
-47.70000019024792
10
141.95000004902221
20
-47.700000190247913
42
0.41421356237308721
10
142.95000004902221
20
-46.70000019024792
10
142.95000004902207
20
46.699999809752065
42
0.41421356237314444
10
141.95000004902224
20
47.699999809752057
10
139.82681738518812
20
47.699999809752399
42
-0.25157889099586739
10
139.15982113602118
20
48.058280438567081
10
136.67669971128007
20
51.807793790353109
42
0.25157889097550556
10
135.59283080508408
20
52.389999812821486
10
134.35000005252414
20
52.389999812821095
10
134.35000005252414
20
50.339999810506129
42
-0.99999999999999989
10
132.35000005252408
20
50.339999810506129
0
LWPOLYLINE
5
106
100
AcDbEntity
8
0
100
AcDbPolyline
90
12
70
1
43
0.0
10
-112.60937495097815
20
-4.0000001907509564
42
0.41421356237312495
10
-112.10937495097815
20
-3.5000001907509337
10
-112.10937495097812
20
-3.000000190750935
42
0.41421356237309082
10
-112.60937495097814
20
-2.5000001907509528
10
-115.10937495097815
20
-2.5000001907508818
42
-0.41421356237306384
10
-115.60937495097811
20
-2.0000001907509453
10
-115.60937495097809
20
3.4999998092490574
42
0.41421356237310769
10
-116.10937495097808
20
3.9999998092490685
10
-116.60937495097814
20
3.9999998092490685
42
0.41421356237304302
10
-117.10937495097816
20
3.4999998092490614
10
-117.10937495097815
20
-2.0000001907509444
42
0.41421356237309004
10
-115.10937495097814
20
-4.0000001907509208
0
LWPOLYLINE
5
107
100
AcDbEntity
8
0
100
AcDbPolyline
90
8
70
1
43
0.0
10
-119.20624995097813
20
6.499999809249041
42
0.41421356237309048
10
-119.70624995097813
20
6.9999998092490578
10
-137.46899995097789
20
6.999999809249041
42
0.41421356237307422
10
-137.96899995097792
20
6.4999998092490321
10
-137.96899995097786
20
-6.5000001907509573
42
0.41421356237311519
10
-137.46899995097789
20
-7.0000001907509812
10
-119.70624995097806
20
-7.0000001907509883
42
0.41421356237304302
10
-119.20624995097818
20
-6.500000190750975
0
LWPOLYLINE
5
108
100
AcDbEntity
8
0
100
AcDbPolyline
90
8
70
1
43
0.0
10
-54.149999950978085
20
-46.600000190750052
10
-60.149999950978064
20
-46.600000190750038
42
-0.41421356237310025
10
-60.649999950977993
20
-46.100000190750031
10
-60.649999950978028
20
-30.100000190750897
42
-0.41421356237313145
10
-60.149999950978071
20
-29.600000190750933
10
-54.149999950978014
20
-29.600000190750997
42
-0.41421356237309503
10
-53.649999950978042
20
-30.100000190750968
10
-53.649999950978042
20
-46.100000190750094
42
-0.41421356237316787
0
LWPOLYLINE
5
109
100
AcDbEntity
8
0
100
AcDbPolyline
90
8
70
1
43
0.0
10
-33.799873685131423
20
-37.350000190750933
10
-51.399999950978042
20
-37.35000019075094
42
-0.41421356237309503
10
-51.649999950978049
20
-37.10000019075094
10
-51.649999950978085
20
-31.350000190750965
42
-0.41421356237309503
10
-51.399999950978085
20
-31.100000190750965
10
-39.549873685131445
20
-31.100000190750961
42
-0.19891236737965476
10
-39.373096989834806
20
-31.173223495454323
10
-33.623096989834785
20
-36.923223495454295
42
-0.66817863791929888
0
LWPOLYLINE
5
110
100
AcDbEntity
8
0
100
AcDbPolyline
90
8
70
1
43
0.0
10
-21.100126216825572
20
-31.100000190750947
10
-9.2499999509788609
20
-31.100000190750951
42
-0.41421356237309503
10
-8.9999999509788591
20
-31.350000190750951
10
-8.9999999509788271
20
-37.10000019075094
42
-0.41421356237309503
10
-9.2499999509788271
20
-37.35000019075094
10
-26.850126216825537
20
-37.35000019075094
42
-0.66817863791929888
10
-27.026902912122175
20
-36.923223495454295
10
-21.27690291212221
20
-31.173223495454316
42
-0.19891236737966123
0
LINE
5
111
100
AcDbEntity
8
0
100
AcDbLine
10
-51.399999950978028
20
-38.850000190750947
30
0
11
-41.734068480632629
21
-38.85000019075099
31
0
0
SPLINE
5
112
100
AcDbEntity
8
0
100
AcDbSpline
70
0
71
3
72
22
73
18
74
0
42
0.000000001
43
0.0000000001
44
0.0000000001
40
0
40
0
40
0
40
0
40
0.0097661118346735101
40
0.0097661118346735101
40
0.019532223669346406
40
0.019532223669346406
40
0.029298335504019397
40
0.029298335504019397
40
0.039064447338692715
40
0.039064447338692715
40
0.048830559173366005
40
0.048830559173366005
40
0.058596671008038934
40
0.058596671008038934
40
0.064557756921953979
40
0.064557756921953979
40
0.07051884283586822
40
0.07051884283586822
40
0.07051884283586822
40
0.07051884283586822
10
-41.653351557365241
20
-39.336611218174156
30
-6.9388939039072284e-17
10
-41.622541293963486
20
-39.326100678179756
30
-6.9388939039072284e-17
10
-41.594078535653303
20
-39.309672695115637
30
0
10
-41.545052195851383
20
-39.266831206660356
30
0
10
-41.524957332889571
20
-39.240827289249239
30
0
10
-41.495866380004657
20
-39.182580473132944
30
0
10
-41.487148415446953
20
-39.150894445736803
30
0
10
-41.482348926268031
20
-39.08596417520711
30
0
10
-41.486313287379289
20
-39.05334070084956
30
0
10
-41.506523937004204
20
-38.991449629044517
30
0
10
-41.522577000691783
20
-38.962773743976726
30
0
10
-41.564771448179783
20
-38.913189434678117
30
0
10
-41.590509430064458
20
-38.892755063469728
30
0
10
-41.6370979036205
20
-38.868717819017327
30
0
10
-41.655779757376756
20
-38.861744647076186
30
0
10
-41.694398578869709
20
-38.852369160435863
30
0
10
-41.714198194252916
20
-38.85000019075099
30
-6.9388939039072284e-17
10
-41.734068480632629
20
-38.85000019075099
30
-6.9388939039072284e-17
0
SPLINE
5
113
100
AcDbEntity
8
0
100
AcDbSpline
70
4
71
5
72
14
73
8
74
0
42
0.000000001
43
0.0000000001
44
0.0000000001
40
-0.23438800454215897
40
-0.23438800454215897
40
-0.23438800454215897
40
-0.23438800454215897
40
-0.23438800454215897
40
-0.23438800454215897
40
-0.20000000000000001
40
-0.10000000000000001
40
-0.0088241035379152677
40
-0.0088241035379152677
40
-0.0088241035379152677
40
-0.0088241035379152677
40
-0.0088241035379152677
40
-0.0088241035379152677
41
1
41
1
41
1
41
1
41
1
41
1
41
1
41
1
10
-41.653351557366314
20
-39.336611218174518
30
0
10
-41.946681236111374
20
-39.436677007284885
30
0
10
-43.093010914856826
20
-39.839203372482039
30
0
10
-45.017070990418475
20
-40.589361872140302
30
0
10
-46.941131065968705
20
-41.460192484182116
30
0
10
-48.865191141505875
20
-42.445847581185923
30
0
10
-50.495921538292649
20
-43.362334460321193
30
0
10
-51.273651935095323
20
-43.817848891345449
30
0
0
SPLINE
5
114
100
AcDbEntity
8
0
100
AcDbSpline
70
0
71
3
72
18
73
14
74
0
42
0.000000001
43
0.0000000001
44
0.0000000001
40
0
40
0
40
0
40
0
40
0.009766111834673229
40
0.009766111834673229
40
0.019532223669346892
40
0.019532223669346892
40
0.029298335504019925
40
0.029298335504019925
40
0.039064447338692625
40
0.039064447338692625
40
0.045861841708715705
40
0.045861841708715705
40
0.052659236078739201
40
0.052659236078739201
40
0.052659236078739201
40
0.052659236078739201
10
-51.649999950978049
20
-43.602126433352559
30
-7.0885537504541343e-17
10
-51.649999950978049
20
-43.634680139468138
30
-7.0885537504541343e-17
10
-51.643641488286889
20
-43.666922614410105
30
7.9100402472778747e-17
10
-51.618923435119413
20
-43.727155437480654
30
7.9100402472778747e-17
10
-51.600800162703763
20
-43.754569926991245
30
5.2289053069271297e-17
10
-51.555065335529278
20
-43.800908903142627
30
5.2289053069271297e-17
10
-51.527891030645641
20
-43.819390363914707
30
2.8038239123695322e-17
10
-51.467987758561186
20
-43.844896698833935
30
2.8038239123695322e-17
10
-51.435831499291282
20
-43.851677718517223
30
9.9792754355241389e-18
10
-51.380624565932038
20
-43.852402238351544
30
9.9792754355241389e-18
10
-51.358032916524614
20
-43.849618154694426
30
2.5413572313261932e-18
10
-51.31422093895722
20
-43.838040284599799
30
2.5413572313261932e-18
10
-51.293203276529759
20
-43.829300055149545
30
3.4694469519536142e-16
10
-51.273651934919762
20
-43.817848891242633
30
3.4694469519536142e-16
0
LINE
5
115
100
AcDbEntity
8
0
100
AcDbLine
10
-51.649999950978049
20
-43.602126433352559
30
-7.0885537504541343e-17
11
-51.649999950978042
21
-39.100000190750947
31
0
0
ARC
5
116
100
AcDbEntity
8
0
100
AcDbCircle
10
-51.399999950978028
20
-39.100000190750947
30
0
40
0.24999999999999911
210
0
220
-0
230
1
100
AcDbArc
50
90
51
180
0
LWPOLYLINE
5
117
100
AcDbEntity
8
0
100
AcDbPolyline
90
6
70
1
43
0.0
10
-31.501776646275136
20
-36.923223495454295
10
-36.898223255681891
20
-31.526776886047596
42
-0.66817863791929444
10
-36.721446560385253
20
-31.100000190750965
10
-31.324999950978501
20
-31.100000190750951
42
-0.41421356237309503
10
-31.074999950978501
20
-31.350000190750951
10
-31.074999950978498
20
-36.746446800157663
42
-0.66817863791929888
0
LWPOLYLINE
5
118
100
AcDbEntity
8
0
100
AcDbPolyline
90
6
70
1
43
0.0
10
-29.574999950978484
20
-36.746446800157692
10
-29.574999950978516
20
-31.350000190750947
42
-0.41421356237309503
10
-29.324999950978516
20
-31.100000190750947
10
-23.928553341571753
20
-31.100000190750944
42
-0.66817863791929888
10
-23.751776646275115
20
-31.526776886047582
10
-29.148223255681849
20
-36.92322349545433
42
-0.66817863791929888
0
LINE
5
119
100
AcDbEntity
8
0
100
AcDbLine
10
-18.915931322464903
20
-38.850000224854313
30
-6.9388939039072284e-17
11
-9.2499999518386744
21
-38.850000191610754
31
0
0
ARC
5
120
100
AcDbEntity
8
0
100
AcDbCircle
10
-9.2499999509788609
20
-39.100000191610754
30
0
40
0.25000000000000022
210
0
220
0
230
1
100
AcDbArc
50
0
51
90.00000019705476
0
LINE
5
121
100
AcDbEntity
8
0
100
AcDbLine
10
-8.9999999509788609
20
-39.100000191610754
30
0
11
-8.9999999509788591
21
-43.602126433359629
31
-3.4694469519536142e-17
0
SPLINE
5
122
100
AcDbEntity
8
0
100
AcDbSpline
70
0
71
3
72
18
73
14
74
0
42
0.000000001
43
0.0000000001
44
0.0000000001
40
0
40
0
40
0
40
0
40
0.0097661118346731579
40
0.0097661118346731579
40
0.019532223669346448
40
0.019532223669346448
40
0.029298335504019855
40
0.029298335504019855
40
0.039064447338692743
40
0.039064447338692743
40
0.045861841708544869
40
0.045861841708544869
40
0.052659236078396857
40
0.052659236078396857
40
0.052659236078396857
40
0.052659236078396857
10
-9.3763479670342011
20
-43.81784889125143
30
-3.3090698409002236e-16
10
-9.3482577050472422
20
-43.834301275983236
30
-3.3090698409002236e-16
10
-9.3172224846904967
20
-43.845109714149174
30
-6.9388939039072284e-17
10
-9.252755886222495
20
-43.854221948200319
30
-6.9388939039072284e-17
10
-9.2199408439296047
20
-43.852438626161458
30
-6.9388939039072284e-17
10
-9.1568413938908275
20
-43.836393859655168
30
-6.9388939039072284e-17
10
-9.1271602512791699
20
-43.822285811900599
30
-6.9388939039072284e-17
10
-9.0748764559044393
20
-43.783486586796869
30
-6.9388939039072284e-17
10
-9.0527736647220163
20
-43.759166351186892
30
-6.9388939039072284e-17
10
-9.0242473379147423
20
-43.711895016334317
30
-6.9388939039072284e-17
10
-9.0152320550646881
20
-43.690993857996446
30
-6.9388939039072284e-17
10
-9.0030802556601444
20
-43.647337584387458
30
-6.9388939039072284e-17
10
-8.9999999509788591
20
-43.624784414592469
30
3.4694469519536142e-17
10
-8.9999999509788591
20
-43.602126433359629
30
3.4694469519536142e-17
0
SPLINE
5
123
100
AcDbEntity
8
0
100
AcDbSpline
70
4
71
5
72
14
73
8
74
0
42
0.000000001
43
0.0000000001
44
0.0000000001
40
-0.99117589645802606
40
-0.99117589645802606
40
-0.99117589645802606
40
-0.99117589645802606
40
-0.99117589645802606
40
-0.99117589645802606
40
-0.8999999999999998
40
-0.79999999999999982
40
-0.76561199778231981
40
-0.76561199778231981
40
-0.76561199778231981
40
-0.76561199778231981
40
-0.76561199778231981
40
-0.76561199778231981
41
1
41
1
41
1
41
1
41
1
41
1
41
1
41
1
10
-9.3763479670342047
20
-43.817848891251437
30
0
10
-10.154078363801357
20
-43.362334460265529
30
0
10
-11.784808760551787
20
-42.445847581182186
30
0
10
-13.708868816224884
20
-41.460192494380422
30
0
10
-15.63292887191216
20
-40.589361890159701
30
0
10
-17.556988927611602
20
-39.839203395761736
30
0
10
-18.703318586529583
20
-39.436677035221834
30
0
10
-18.996648245446934
20
-39.336611252081504
30
0
0
SPLINE
5
124
100
AcDbEntity
8
0
100
AcDbSpline
70
0
71
3
72
22
73
18
74
0
42
0.000000001
43
0.0000000001
44
0.0000000001
40
0
40
0
40
0
40
0
40
0.0097661118346731701
40
0.0097661118346731701
40
0.019532223669346507
40
0.019532223669346507
40
0.029298335504019481
40
0.029298335504019481
40
0.039064447338692646
40
0.039064447338692646
40
0.048830559173365859
40
0.048830559173365859
40
0.058596671008038781
40
0.058596671008038781
40
0.064557756848396819
40
0.064557756848396819
40
0.070518842688754996
40
0.070518842688754996
40
0.070518842688754996
40
0.070518842688754996
10
-18.915931322464903
20
-38.85000022485432
30
-5.8423170202348238e-16
10
-18.948485028580478
20
-38.85000022496628
30
-5.8423170202348238e-16
10
-18.980727503500582
20
-38.856358687768321
30
-1.3877787807814457e-16
10
-19.040960326486115
20
-38.881076741142955
30
-1.3877787807814457e-16
10
-19.068374815934376
20
-38.899200013652894
30
-1.3877787807814457e-16
10
-19.114713791928462
20
-38.944934840986754
30
-1.3877787807814457e-16
10
-19.133195252607088
20
-38.972109145933935
30
-1.3877787807814457e-16
10
-19.158701587320294
20
-39.032012418106127
30
-1.3877787807814457e-16
10
-19.16548260689299
20
-39.064168677399358
30
-1.3877787807814457e-16
10
-19.166336983953826
20
-39.129270483574572
30
-1.3877787807814457e-16
10
-19.160402173131594
20
-39.161593621706302
30
-1.3877787807814457e-16
10
-19.136476658192279
20
-39.22214562301366
30
-1.3877787807814457e-16
10
-19.118714695038431
20
-39.249795576053394
30
-1.3877787807814457e-16
10
-19.082382158365789
20
-39.287587397157573
30
-1.3877787807814457e-16
10
-19.066952240024879
20
-39.300218881504271
30
-1.3877787807814457e-16
10
-19.033428726045397
20
-39.321561025134642
30
-1.3877787807814457e-16
10
-19.015454360700531
20
-39.330195778591303
30
-3.8163916471489756e-16
10
-18.996648245446153
20
-39.336611252081781
30
-3.8163916471489756e-16
0
LWPOLYLINE
5
125
100
AcDbEntity
8
0
100
AcDbPolyline
90
8
70
1
43
0.0
10
139.76875004902161
20
-45.100000190750926
42
0.41421356237309503
10
140.26875004902163
20
-44.600000190750904
10
140.26875004902163
20
-31.600000190750933
42
0.41421356237310281
10
139.76875004902161
20
-31.100000190750904
10
138.76875004902163
20
-31.100000190750947
42
0.41421356237311063
10
138.26875004902163
20
-31.600000190750926
10
138.26875004902166
20
-44.600000190750904
42
0.41421356237309503
10
138.76875004902166
20
-45.100000190750926
0
LWPOLYLINE
5
126
100
AcDbEntity
8
0
100
AcDbPolyline
90
8
70
1
43
0.0
10
117.68125004902117
20
-31.600000190750936
10
117.6812500490212
20
-44.600000190750919
42
-0.41421356237308982
10
117.1812500490212
20
-45.100000190750919
10
116.18125004902119
20
-45.100000190750926
42
-0.414213562373069
10
115.68125004902113
20
-44.600000190750904
10
115.6812500490212
20
-31.600000190750936
42
-0.41421356237309503
10
116.18125004902119
20
-31.100000190750947
10
117.1812500490212
20
-31.100000190750929
42
-0.41421356237311585
0
LWPOLYLINE
5
127
100
AcDbEntity
8
0
100
AcDbPolyline
90
8
70
1
43
0.0
10
93.868750049021159
20
-31.600000190750936
10
93.868750049021116
20
-44.600000190750904
42
-0.41421356237307422
10
93.368750049021145
20
-45.100000190750919
10
92.368750049021173
20
-45.100000190750904
42
-0.41421356237308982
10
91.868750049021173
20
-44.600000190750904
10
91.868750049021145
20
-31.600000190750936
42
-0.41421356237311585
10
92.368750049021116
20
-31.100000190750965
10
93.368750049021187
20
-31.100000190750929
42
-0.41421356237311585
0
LWPOLYLINE
5
128
100
AcDbEntity
8
0
100
AcDbPolyline
90
8
70
1
43
0.0
10
68.306250049021642
20
-31.600000190751253
42
0.41421356237314444
10
67.806250049021656
20
-31.10000019075126
10
66.806250049021628
20
-31.100000190751231
42
0.41421356237310542
10
66.306250049021571
20
-31.600000190751256
10
66.306250049021656
20
-44.60000019075126
42
0.41421356237312623
10
66.806250049021614
20
-45.100000190751274
10
67.806250049021656
20
-45.100000190751274
42
0.41421356237313145
10
68.306250049021671
20
-44.60000019075126
0
LWPOLYLINE
5
129
100
AcDbEntity
8
0
100
AcDbPolyline
90
8
70
1
43
0.0
10
-66.806249950978156
20
-45.100000190750706
10
-67.806249950978128
20
-45.100000190750706
42
-0.41421356237311585
10
-68.306249950978156
20
-44.600000190750713
10
-68.306249950978156
20
-31.600000190750741
42
-0.4142135623730846
10
-67.806249950978128
20
-31.100000190750741
10
-66.806249950978156
20
-31.100000190750741
42
-0.41421356237313145
10
-66.306249950978142
20
-31.600000190750748
10
-66.306249950978142
20
-44.600000190750713
42
-0.41421356237312101
0
LWPOLYLINE
5
130
100
AcDbEntity
8
0
100
AcDbPolyline
90
8
70
1
43
0.0
10
-93.36874995097827
20
-31.100000190751015
42
0.41421356237304818
10
-93.86874995097827
20
-31.600000190751018
10
-93.868749950978298
20
-44.600000190750997
42
0.41421356237309503
10
-93.368749950978298
20
-45.100000190751004
10
-92.36874995097827
20
-45.100000190751011
42
0.41421356237307944
10
-91.868749950978312
20
-44.600000190750997
10
-91.868749950978312
20
-31.600000190751011
42
0.41421356237307683
10
-92.368749950978284
20
-31.100000190751
0
LWPOLYLINE
5
131
100
AcDbEntity
8
0
100
AcDbPolyline
90
8
70
1
43
0.0
10
-117.18124995097816
20
-31.100000190751018
42
0.41421356237310542
10
-117.68124995097816
20
-31.600000190751008
10
-117.68124995097814
20
-44.600000190750997
42
0.41421356237307944
10
-117.18124995097817
20
-45.100000190750997
10
-116.18124995097813
20
-45.100000190751004
42
0.41421356237313145
10
-115.68124995097811
20
-44.60000019075099
10
-115.68124995097811
20
-31.600000190751022
42
0.41421356237306639
10
-116.18124995097816
20
-31.100000190751018
0
LWPOLYLINE
5
132
100
AcDbEntity
8
0
100
AcDbPolyline
90
8
70
1
43
0.0
10
-140.26874995097796
20
-44.60000019075099
10
-140.26874995097796
20
-31.600000190751018
42
-0.41421356237312101
10
-139.76874995097799
20
-31.100000190751015
10
-138.76874995097799
20
-31.100000190751018
42
-0.41421356237312362
10
-138.26874995097799
20
-31.600000190751004
10
-138.26874995097796
20
-44.60000019075099
42
-0.41421356237306384
10
-138.76874995097796
20
-45.100000190751004
10
-139.76874995097791
20
-45.100000190751004
42
-0.41421356237312101
0
LWPOLYLINE
5
133
100
AcDbEntity
8
0
100
AcDbPolyline
90
8
70
1
43
0.0
10
121.25312504902199
20
-12.550000190750854
42
0.41421356237316787
10
120.75312504902199
20
-12.0500001907509
10
119.75312504902193
20
-12.050000190750907
42
0.41421356237316787
10
119.25312504902195
20
-12.550000190750854
10
119.25312504902203
20
-25.550000190750929
42
0.41421356237312362
10
119.75312504902192
20
-26.05000019075085
10
120.75312504902199
20
-26.050000190750904
42
0.4142135623730222
10
121.25312504902197
20
-25.550000190750914
0
LWPOLYLINE
5
134
100
AcDbEntity
8
0
100
AcDbPolyline
90
8
70
1
43
0.0
10
95.059375049021568
20
-12.550000190750914
42
0.41421356237317175
10
94.559375049021511
20
-12.0500001907509
10
93.559375049021526
20
-12.050000190750918
42
0.4142135623731783
10
93.059375049021469
20
-12.55000019075089
10
93.059375049021526
20
-25.550000190750964
42
0.41421356237306639
10
93.559375049021511
20
-26.050000190750904
10
94.559375049021611
20
-26.050000190750922
42
0.4142135623730846
10
95.059375049021568
20
-25.55000019075095
0
LWPOLYLINE
5
135
100
AcDbEntity
8
0
100
AcDbPolyline
90
8
70
1
43
0.0
10
140.26875004902166
20
25.549999809249108
42
0.41421356237316265
10
139.76875004902172
20
26.049999809249083
10
138.76875004902166
20
26.049999809249105
42
0.41421356237314705
10
138.26875004902163
20
25.549999809249098
10
138.26875004902166
20
12.549999809249099
42
0.41421356237317308
10
138.76875004902166
20
12.049999809249083
10
139.76875004902172
20
12.049999809249066
42
0.41421356237310542
10
140.26875004902166
20
12.549999809249091
0
LWPOLYLINE
5
136
100
AcDbEntity
8
0
100
AcDbPolyline
90
8
70
1
43
0.0
10
117.68125004902117
20
25.549999809249098
10
117.68125004902117
20
12.549999809249091
42
-0.41421356237313667
10
117.18125004902117
20
12.049999809249091
10
116.18125004902119
20
12.049999809249066
42
-0.41421356237309892
10
115.68125004902117
20
12.54999980924908
10
115.68125004902117
20
25.549999809249098
42
-0.41421356237310542
10
116.1812500490212
20
26.049999809249094
10
117.1812500490212
20
26.049999809249069
42
-0.41421356237309503
0
LWPOLYLINE
5
137
100
AcDbEntity
8
0
100
AcDbPolyline
90
8
70
1
43
0.0
10
-116.18124995097801
20
12.049999809249012
10
-117.18124995097803
20
12.049999809249012
42
-0.41421356237307422
10
-117.681249950978
20
12.549999809249019
10
-117.681249950978
20
25.549999809249027
42
-0.4142135623730846
10
-117.18124995097799
20
26.049999809249016
10
-116.18124995097808
20
26.049999809249034
42
-0.41421356237310025
10
-115.68124995097801
20
25.549999809249016
10
-115.68124995097801
20
12.549999809249019
42
-0.41421356237309503
0
LWPOLYLINE
5
138
100
AcDbEntity
8
0
100
AcDbPolyline
90
8
70
1
43
0.0
10
-138.26874995097793
20
25.549999809249027
10
-138.26874995097793
20
12.549999809249019
42
-0.4142135623730534
10
-138.76874995097796
20
12.049999809249009
10
-139.76874995097793
20
12.049999809249012
42
-0.41421356237310936
10
-140.26874995097796
20
12.549999809249009
10
-140.26874995097796
20
25.549999809249009
42
-0.41421356237310542
10
-139.76874995097796
20
26.049999809249016
10
-138.76874995097791
20
26.049999809249016
42
-0.4142135623730846
0
LWPOLYLINE
5
139
100
AcDbEntity
8
0
100
AcDbPolyline
90
8
70
1
43
0.0
10
54.150000049022111
20
-29.600000190751619
10
60.150000049022054
20
-29.600000190751643
42
-0.41421356237307944
10
60.65000004902209
20
-30.100000190751651
10
60.650000049022061
20
-46.100000190751459
42
-0.4142135623730222
10
60.150000049022154
20
-46.600000190751445
10
54.150000049022111
20
-46.60000019075131
42
-0.41421356237305862
10
53.650000049022054
20
-46.10000019075131
10
53.650000049022083
20
-30.100000190751626
42
-0.41421356237316787
0
LWPOLYLINE
5
140
100
AcDbEntity
8
0
100
AcDbPolyline
90
8
70
1
43
0.0
10
121.58750004902117
20
-44.600000190750954
10
121.58750004902116
20
-31.600000190750901
42
-0.41421356237314189
10
122.08750004902113
20
-31.100000190750954
10
135.08750004902112
20
-31.100000190750912
42
-0.41421356237300139
10
135.58750004902112
20
-31.600000190750901
10
135.58750004902112
20
-44.600000190750954
42
-0.4142135623730534
10
135.08750004902109
20
-45.100000190750997
10
122.08750004902114
20
-45.100000190750855
42
-0.4142135623730534
0
LWPOLYLINE
5
141
100
AcDbEntity
8
0
100
AcDbPolyline
90
8
70
1
43
0.0
10
111.77500004902122
20
-31.600000190750901
10
111.77500004902122
20
-44.600000190750954
42
-0.41421356237299095
10
111.27500004902129
20
-45.100000190750933
10
98.275000049021202
20
-45.100000190750919
42
-0.4142135623730378
10
97.775000049021159
20
-44.600000190750968
10
97.775000049021159
20
-31.600000190750901
42
-0.41421356237310025
10
98.275000049021173
20
-31.100000190750951
10
111.27500004902103
20
-31.100000190750876
42
-0.41421356237316787
0
LWPOLYLINE
5
142
100
AcDbEntity
8
0
100
AcDbPolyline
90
8
70
1
43
0.0
10
87.462500049021216
20
-45.100000190750947
42
0.41421356237295454
10
87.962500049021187
20
-44.600000190750968
10
87.962500049021173
20
-31.600000190750912
42
0.41421356237315748
10
87.462500049021159
20
-31.100000190750929
10
74.462500049021017
20
-31.100000190750947
42
0.4142135623730534
10
73.962500049021145
20
-31.600000190750936
10
73.962500049021131
20
-44.600000190750976
42
0.4142135623730534
10
74.462500049021116
20
-45.100000190750897
0
SPLINE
5
143
100
AcDbEntity
8
0
100
AcDbSpline
70
0
71
4
72
30
73
25
74
0
42
0.000000001
43
0.0000000001
44
0.0000000001
40
-493.94199999999984
40
-493.94199999999984
40
-493.94199999999984
40
-493.94199999999984
40
-493.94199999999984
40
-493.54899999999998
40
-493.54899999999998
40
-493.54899999999998
40
-493.54899999999998
40
-492.54899999999998
40
-492.54899999999998
40
-492.54899999999998
40
-492.54899999999998
40
-492.15600000000001
40
-492.15600000000001
40
-492.15600000000001
40
-492.15600000000001
40
-491.76400000000001
40
-491.76400000000001
40
-491.76400000000001
40
-491.76400000000001
40
-474.76400000000001
40
-474.76400000000001
40
-474.76400000000001
40
-474.76400000000001
40
-474.37099999999998
40
-474.37099999999998
40
-474.37099999999998
40
-474.37099999999998
40
-474.37099999999998
10
114.29375004902113
20
-8.8500001907506309
30
-3.4972025275692431e-14
10
114.22625004902336
20
-8.9250001907508647
30
-3.4972025275692431e-14
10
114.13375004902321
20
-8.9750001907508192
30
-3.4972025275692431e-14
10
114.03375004902273
20
-9.0000001907507965
30
-3.4972025275692431e-14
10
113.94375004902088
20
-9.0000001907507965
30
-3.4972025275692431e-14
10
112.08375004902052
20
-9.0000001907507965
30
-3.4972025275692431e-14
10
110.22375004901953
20
-9.0000001907507965
30
-3.4972025275692431e-14
10
108.36375004902038
20
-9.0000001907507965
30
-3.4972025275692431e-14
10
106.50375004902052
20
-9.0000001907507965
30
-3.4972025275692431e-14
10
106.4212500490202
20
-9.0000001907507965
30
-3.4972025275692431e-14
10
106.32375004902023
20
-8.975000190750837
30
-3.4972025275692431e-14
10
106.22875004901971
20
-8.9250001907509002
30
-3.4972025275692431e-14
10
106.15375004902191
20
-8.8500001907498316
30
-3.4972025275692431e-14
10
106.07875004902212
20
-8.7750001907510367
30
-3.4972025275692431e-14
10
106.02875004902209
20
-8.6850001907500207
30
-3.4972025275692431e-14
10
106.00375004902048
20
-8.5900001907508461
30
-3.4972025275692431e-14
10
106.00375004902048
20
-8.5000001907509848
30
-3.4972025275692431e-14
10
106.00375004902048
20
-4.247500190750948
30
-3.4972025275692431e-14
10
106.00375004902048
20
-1.9075077517527461e-07
30
-3.4972025275692431e-14
10
106.00375004902048
20
4.2474998092491312
30
-3.4972025275692431e-14
10
106.00375004902332
20
8.4999998092491857
30
-3.4972025275692431e-14
10
106.00375004902332
20
8.589999809249047
30
-3.4972025275692431e-14
10
106.02875004902209
20
8.6899998092492403
30
-3.4972025275692431e-14
10
106.07875004902212
20
8.7824998092490425
30
-3.4972025275692431e-14
10
106.15375004902262
20
8.8499998092491516
30
-3.4972025275692431e-14
0
SPLINE
5
144
100
AcDbEntity
8
0
100
AcDbSpline
70
0
71
4
72
18
73
13
74
0
42
0.000000001
43
0.0000000001
44
0.0000000001
40
-474.37099999999998
40
-474.37099999999998
40
-474.37099999999998
40
-474.37099999999998
40
-474.37099999999998
40
-473.97800000000001
40
-473.97800000000001
40
-473.97800000000001
40
-473.97800000000001
40
-472.97799999999984
40
-472.97799999999984
40
-472.97799999999984
40
-472.97799999999984
40
-472.58599999999984
40
-472.58599999999984
40
-472.58599999999984
40
-472.58599999999984
40
-472.58599999999984
10
106.15375004902262
20
8.8499998092491516
30
-3.4972025275692431e-14
10
106.22875004902255
20
8.9249998092490834
30
-3.4972025275692431e-14
10
106.32375004902308
20
8.974999809249038
30
-3.4972025275692431e-14
10
106.42125004902255
20
8.9999998092490152
30
-3.4972025275692431e-14
10
106.50375004902109
20
8.9999998092490152
30
-3.4972025275692431e-14
10
108.36375004902209
20
8.9999998092490152
30
-3.4972025275692431e-14
10
110.22375004902351
20
8.9999998092490152
30
-3.4972025275692431e-14
10
112.08375004902337
20
8.9999998092490152
30
-3.4972025275692431e-14
10
113.94375004902201
20
8.999999809249033
30
-3.4972025275692431e-14
10
114.03375004902216
20
8.999999809249033
30
-3.4972025275692431e-14
10
114.13375004902136
20
8.9749998092490557
30
-3.4972025275692431e-14
10
114.22625004902045
20
8.9249998092490834
30
-3.4972025275692431e-14
10
114.29375004902333
20
8.8499998092491516
30
-3.4972025275692431e-14
0
SPLINE
5
145
100
AcDbEntity
8
0
100
AcDbSpline
70
0
71
4
72
14
73
9
74
0
42
0.000000001
43
0.0000000001
44
0.0000000001
40
-472.58599999999984
40
-472.58599999999984
40
-472.58599999999984
40
-472.58599999999984
40
-472.58599999999984
40
-472.19299999999998
40
-472.19299999999998
40
-472.19299999999998
40
-472.19299999999998
40
-470.69299999999998
40
-470.69299999999998
40
-470.69299999999998
40
-470.69299999999998
40
-470.69299999999998
10
114.29375004902333
20
8.8499998092491516
30
-3.4972025275692431e-14
10
114.36875004902276
20
8.7824998092490425
30
-3.4972025275692431e-14
10
114.41875004902336
20
8.6899998092492403
30
-3.4972025275692431e-14
10
114.4437500490227
20
8.5899998092490648
30
-3.4972025275692431e-14
10
114.44375004902213
20
8.4999998092491857
30
-3.4972025275692431e-14
10
114.44375004902213
20
8.1249998092492426
30
-3.4972025275692431e-14
10
114.44375004902213
20
7.7499998092490152
30
-3.4972025275692431e-14
10
114.44375004902213
20
7.3749998092490721
30
-3.4972025275692431e-14
10
114.44375004902213
20
6.9999998092491289
30
-3.4972025275692431e-14
0
LINE
5
146
100
AcDbEntity
8
0
100
AcDbLine
10
114.44375004902213
20
6.9999998092491307
30
-3.4972025275692431e-14
11
128.44375004902176
21
6.9999998092491467
31
-3.4972025275692431e-14
0
SPLINE
5
147
100
AcDbEntity
8
0
100
AcDbSpline
70
0
71
4
72
14
73
9
74
0
42
0.000000001
43
0.0000000001
44
0.0000000001
40
-521.97599999999989
40
-521.97599999999989
40
-521.97599999999989
40
-521.97599999999989
40
-521.97599999999989
40
-520.476
40
-520.476
40
-520.476
40
-520.476
40
-520.08300000000008
40
-520.08300000000008
40
-520.08300000000008
40
-520.08300000000008
40
-520.08300000000008
10
128.44375004902176
20
6.9999998092491467
30
-3.4972025275692431e-14
10
128.44375004902176
20
7.3749998092490721
30
-3.4972025275692431e-14
10
128.44375004902176
20
7.749999809249033
30
-3.4972025275692431e-14
10
128.44375004902176
20
8.1249998092492604
30
-3.4972025275692431e-14
10
128.44375004902076
20
8.4999998092491857
30
-3.4972025275692431e-14
10
128.44375004902076
20
8.5899998092490648
30
-3.4972025275692431e-14
10
128.46875004902068
20
8.6899998092492581
30
-3.4972025275692431e-14
10
128.51875004902064
20
8.7824998092490603
30
-3.4972025275692431e-14
10
128.59375004901935
20
8.8499998092480325
30
-3.4972025275692431e-14
0
SPLINE
5
148
100
AcDbEntity
8
0
100
AcDbSpline
70
0
71
4
72
18
73
13
74
0
42
0.000000001
43
0.0000000001
44
0.0000000001
40
-520.08300000000008
40
-520.08300000000008
40
-520.08300000000008
40
-520.08300000000008
40
-520.08300000000008
40
-519.69100000000003
40
-519.69100000000003
40
-519.69100000000003
40
-519.69100000000003
40
-518.69100000000003
40
-518.69100000000003
40
-518.69100000000003
40
-518.69100000000003
40
-518.29799999999989
40
-518.29799999999989
40
-518.29799999999989
40
-518.29799999999989
40
-518.29799999999989
10
128.59375004901935
20
8.8499998092480325
30
-3.4972025275692431e-14
10
128.6612500490196
20
8.9249998092491012
30
-3.4972025275692431e-14
10
128.75375004901974
20
8.9749998092490557
30
-3.4972025275692431e-14
10
128.85375004902073
20
8.999999809249033
30
-3.4972025275692431e-14
10
128.94375004902372
20
8.999999809249033
30
-3.4972025275692431e-14
10
130.80375004902351
20
8.999999809249033
30
-3.4972025275692431e-14
10
132.6637500490238
20
8.999999809249033
30
-3.4972025275692431e-14
10
134.52375004902251
20
8.999999809249033
30
-3.4972025275692431e-14
10
136.38375004902065
20
8.9999998092478961
30
-3.4972025275692431e-14
10
136.47375004902059
20
8.9999998092478961
30
-3.4972025275692431e-14
10
136.56875004902176
20
8.9749998092490557
30
-3.4972025275692431e-14
10
136.65875004902205
20
8.9249998092491012
30
-3.4972025275692431e-14
10
136.73375004902084
20
8.8499998092491694
30
-3.4972025275692431e-14
0
SPLINE
5
149
100
AcDbEntity
8
0
100
AcDbSpline
70
0
71
4
72
30
73
25
74
0
42
0.000000001
43
0.0000000001
44
0.0000000001
40
-518.29799999999989
40
-518.29799999999989
40
-518.29799999999989
40
-518.29799999999989
40
-518.29799999999989
40
-517.90499999999997
40
-517.90499999999997
40
-517.90499999999997
40
-517.90499999999997
40
-500.90499999999997
40
-500.90499999999997
40
-500.90499999999997
40
-500.90499999999997
40
-500.51299999999998
40
-500.51299999999998
40
-500.51299999999998
40
-500.51299999999998
40
-500.11999999999983
40
-500.11999999999983
40
-500.11999999999983
40
-500.11999999999983
40
-499.12
40
-499.12
40
-499.12
40
-499.12
40
-498.72699999999992
40
-498.72699999999992
40
-498.72699999999992
40
-498.72699999999992
40
-498.72699999999992
10
136.73375004902084
20
8.8499998092491694
30
-3.4972025275692431e-14
10
136.80875004902254
20
8.7824998092490603
30
-3.4972025275692431e-14
10
136.858750049023
20
8.6899998092492581
30
-3.4972025275692431e-14
10
136.88375004902355
20
8.5899998092490648
30
-3.4972025275692431e-14
10
136.88375004902133
20
8.4999998092491857
30
-3.4972025275692431e-14
10
136.88375004902133
20
4.2474998092482963
30
-3.4972025275692431e-14
10
136.88375004902133
20
-1.9075187651651504e-07
30
-3.4972025275692431e-14
10
136.88375004902133
20
-4.2475001907520671
30
-3.4972025275692431e-14
10
136.88375004902133
20
-8.500000190750967
30
-3.4972025275692431e-14
10
136.88375004902133
20
-8.5900001907508283
30
-3.4972025275692431e-14
10
136.85875004902186
20
-8.6850001907508556
30
-3.4972025275692431e-14
10
136.80875004902191
20
-8.7750001907510011
30
-3.4972025275692431e-14
10
136.73375004902084
20
-8.8500001907506487
30
-3.4972025275692431e-14
10
136.6587500490202
20
-8.9250001907508469
30
-3.4972025275692431e-14
10
136.56875004902076
20
-8.9750001907508192
30
-3.4972025275692431e-14
10
136.4737500490196
20
-9.0000001907507965
30
-3.4972025275692431e-14
10
136.38375004901945
20
-9.0000001907507965
30
-3.4972025275692431e-14
10
134.52375004902018
20
-9.0000001907507965
30
-3.4972025275692431e-14
10
132.66375004902045
20
-9.0000001907507965
30
-3.4972025275692431e-14
10
130.80375004902052
20
-9.0000001907507787
30
-3.4972025275692431e-14
10
128.94375004902093
20
-9.0000001907507787
30
-3.4972025275692431e-14
10
128.85375004902073
20
-9.0000001907507787
30
-3.4972025275692431e-14
10
128.75375004901974
20
-8.9750001907508192
30
-3.4972025275692431e-14
10
128.6612500490196
20
-8.9250001907508469
30
-3.4972025275692431e-14
10
128.59375004901935
20
-8.8500001907506309
30
-3.4972025275692431e-14
0
SPLINE
5
150
100
AcDbEntity
8
0
100
AcDbSpline
70
0
71
4
72
14
73
9
74
0
42
0.000000001
43
0.0000000001
44
0.0000000001
40
-498.72699999999992
40
-498.72699999999992
40
-498.72699999999992
40
-498.72699999999992
40
-498.72699999999992
40
-498.334
40
-498.334
40
-498.334
40
-498.334
40
-496.834
40
-496.834
40
-496.834
40
-496.834
40
-496.834
10
128.59375004901935
20
-8.8500001907506309
30
-3.4972025275692431e-14
10
128.51875004902064
20
-8.7750001907510011
30
-3.4972025275692431e-14
10
128.46875004902068
20
-8.6850001907508556
30
-3.4972025275692431e-14
10
128.44375004902076
20
-8.5900001907508106
30
-3.4972025275692431e-14
10
128.44375004902176
20
-8.5000001907509493
30
-3.4972025275692431e-14
10
128.44375004902176
20
-8.1250001907507752
30
-3.4972025275692431e-14
10
128.44375004902176
20
-7.7500001907507787
30
-3.4972025275692431e-14
10
128.44375004902176
20
-7.3750001907508711
30
-3.4972025275692431e-14
10
128.44375004902176
20
-7.0000001907509102
30
-3.4972025275692431e-14
0
LINE
5
151
100
AcDbEntity
8
0
100
AcDbLine
10
128.44375004902176
20
-7.000000190750912
30
-3.4972025275692431e-14
11
114.44375004902213
21
-7.0000001907509102
31
-3.4972025275692431e-14
0
SPLINE
5
152
100
AcDbEntity
8
0
100
AcDbSpline
70
0
71
4
72
14
73
9
74
0
42
0.000000001
43
0.0000000001
44
0.0000000001
40
-495.83399999999983
40
-495.83399999999983
40
-495.83399999999983
40
-495.83399999999983
40
-495.83399999999983
40
-494.334
40
-494.334
40
-494.334
40
-494.334
40
-493.94199999999984
40
-493.94199999999984
40
-493.94199999999984
40
-493.94199999999984
40
-493.94199999999984
10
114.44375004902213
20
-7.0000001907509279
30
-3.4972025275692431e-14
10
114.44375004902213
20
-7.3750001907508711
30
-3.4972025275692431e-14
10
114.44375004902213
20
-7.7500001907507787
30
-3.4972025275692431e-14
10
114.44375004902213
20
-8.1250001907507752
30
-3.4972025275692431e-14
10
114.4437500490227
20
-8.500000190750967
30
-3.4972025275692431e-14
10
114.4437500490227
20
-8.5900001907508283
30
-3.4972025275692431e-14
10
114.41875004902144
20
-8.6850001907508556
30
-3.4972025275692431e-14
10
114.3687500490222
20
-8.7750001907518538
30
-3.4972025275692431e-14
10
114.29375004902113
20
-8.8500001907506309
30
-3.4972025275692431e-14
0
LWPOLYLINE
5
153
100
AcDbEntity
8
0
100
AcDbPolyline
90
8
70
1
43
0.0
10
140.35000004902199
20
44.599999809249127
42
0.41421356237311585
10
139.85000004902207
20
45.099999809249127
10
126.85000004902199
20
45.099999809249134
42
0.41421356237306384
10
126.35000004902196
20
44.599999809249113
10
126.35000004902196
20
31.599999809249116
42
0.41421356237311324
10
126.85000004902193
20
31.099999809249113
10
139.8500000490221
20
31.099999809249113
42
0.4142135623730846
10
140.35000004902201
20
31.59999980924912
0
LWPOLYLINE
5
154
100
AcDbEntity
8
0
100
AcDbPolyline
90
8
70
1
43
0.0
10
107.300000049022
20
31.59999980924912
42
0.41421356237294937
10
107.800000049022
20
31.099999809249113
10
120.80000004902203
20
31.099999809249095
42
0.41421356237314705
10
121.300000049022
20
31.59999980924912
10
121.30000004902197
20
44.59999980924912
42
0.41421356237311063
10
120.80000004902203
20
45.099999809249084
10
107.80000004902197
20
45.099999809249113
42
0.41421356237310542
10
107.30000004902202
20
44.599999809249113
0
LWPOLYLINE
5
155
100
AcDbEntity
8
0
100
AcDbPolyline
90
8
70
1
43
0.0
10
100.65625004902205
20
-12.05000019075098
42
0.41421356237311713
10
100.15625004902193
20
-12.550000190750927
10
100.15625004902211
20
-25.550000190750893
42
0.41421356237295714
10
100.65625004902209
20
-26.050000190750922
10
113.65625004902198
20
-26.050000190750893
42
0.41421356237311585
10
114.15625004902196
20
-25.550000190750879
10
114.15625004902202
20
-12.550000190750909
42
0.41421356237299228
10
113.65625004902199
20
-12.050000190750918
0
LWPOLYLINE
5
156
100
AcDbEntity
8
0
100
AcDbPolyline
90
8
70
1
43
0.0
10
140.35000004902199
20
-12.550000190750904
42
0.41421356237310281
10
139.85000004902207
20
-12.050000190750897
10
126.85000004902193
20
-12.050000190750882
42
0.41421356237312623
10
126.35000004902196
20
-12.550000190750907
10
126.35000004902199
20
-25.550000190750897
42
0.41421356237314705
10
126.85000004902193
20
-26.050000190750922
10
139.85000004902219
20
-26.05000019075095
42
0.41421356237304818
10
140.35000004902201
20
-25.550000190750879
0
SPLINE
5
157
100
AcDbEntity
8
0
100
AcDbSpline
70
0
71
4
72
18
73
13
74
0
42
0.000000001
43
0.0000000001
44
0.0000000001
40
-474.37099999999998
40
-474.37099999999998
40
-474.37099999999998
40
-474.37099999999998
40
-474.37099999999998
40
-473.97800000000001
40
-473.97800000000001
40
-473.97800000000001
40
-473.97800000000001
40
-472.97799999999984
40
-472.97799999999984
40
-472.97799999999984
40
-472.97799999999984
40
-472.58599999999984
40
-472.58599999999984
40
-472.58599999999984
40
-472.58599999999984
40
-472.58599999999984
10
-136.73374995097737
20
-10.200000190750913
30
-5.2458037913538647e-14
10
-136.65874995097744
20
-10.125000190750999
30
-5.2458037913538647e-14
10
-136.56374995097684
20
-10.075000190751027
30
-5.2458037913538647e-14
10
-136.46624995097744
20
-10.050000190751067
30
-5.2458037913538647e-14
10
-136.38374995097882
20
-10.050000190751067
30
-5.2458037913538647e-14
10
-134.5237499509779
20
-10.050000190751049
30
-5.2458037913538647e-14
10
-132.66374995097641
20
-10.050000190751049
30
-5.2458037913538647e-14
10
-130.80374995097662
20
-10.050000190751049
30
-5.2458037913538647e-14
10
-128.94374995097797
20
-10.050000190751049
30
-5.2458037913538647e-14
10
-128.85374995097783
20
-10.050000190751049
30
-5.2458037913538647e-14
10
-128.75374995097849
20
-10.075000190751027
30
-5.2458037913538647e-14
10
-128.66124995097954
20
-10.125000190750999
30
-5.2458037913538647e-14
10
-128.59374995097659
20
-10.200000190750913
30
-5.2458037913538647e-14
0
SPLINE
5
158
100
AcDbEntity
8
0
100
AcDbSpline
70
0
71
4
72
14
73
9
74
0
42
0.000000001
43
0.0000000001
44
0.0000000001
40
-472.58599999999984
40
-472.58599999999984
40
-472.58599999999984
40
-472.58599999999984
40
-472.58599999999984
40
-472.19299999999998
40
-472.19299999999998
40
-472.19299999999998
40
-472.19299999999998
40
-470.69299999999998
40
-470.69299999999998
40
-470.69299999999998
40
-470.69299999999998
40
-470.69299999999998
10
-128.59374995097659
20
-10.200000190750913
30
-5.2458037913538647e-14
10
-128.51874995097728
20
-10.26750019075104
30
-5.2458037913538647e-14
10
-128.4687499509767
20
-10.360000190750824
30
-5.2458037913538647e-14
10
-128.44374995097729
20
-10.460000190751018
30
-5.2458037913538647e-14
10
-128.44374995097786
20
-10.550000190750897
30
-5.2458037913538647e-14
10
-128.44374995097786
20
-10.925000190750822
30
-5.2458037913538647e-14
10
-128.44374995097786
20
-11.300000190751049
30
-5.2458037913538647e-14
10
-128.44374995097786
20
-11.675000190750993
30
-5.2458037913538647e-14
10
-128.44374995097786
20
-12.050000190750954
30
-5.2458037913538647e-14
0
LINE
5
159
100
AcDbEntity
8
0
100
AcDbLine
10
-128.44374995097786
20
-12.050000190750952
30
-5.2458037913538647e-14
11
-114.4437499509781
21
-12.050000190750954
31
-5.2458037913538647e-14
0
SPLINE
5
160
100
AcDbEntity
8
0
100
AcDbSpline
70
0
71
4
72
14
73
9
74
0
42
0.000000001
43
0.0000000001
44
0.0000000001
40
-521.97599999999989
40
-521.97599999999989
40
-521.97599999999989
40
-521.97599999999989
40
-521.97599999999989
40
-520.476
40
-520.476
40
-520.476
40
-520.476
40
-520.08300000000008
40
-520.08300000000008
40
-520.08300000000008
40
-520.08300000000008
40
-520.08300000000008
10
-114.4437499509781
20
-12.050000190750954
30
-5.2458037913538647e-14
10
-114.4437499509781
20
-11.675000190750993
30
-5.2458037913538647e-14
10
-114.4437499509781
20
-11.300000190751049
30
-5.2458037913538647e-14
10
-114.4437499509781
20
-10.925000190750822
30
-5.2458037913538647e-14
10
-114.44374995097928
20
-10.550000190750897
30
-5.2458037913538647e-14
10
-114.44374995097928
20
-10.460000190751018
30
-5.2458037913538647e-14
10
-114.41874995097926
20
-10.360000190750824
30
-5.2458037913538647e-14
10
-114.36874995097931
20
-10.26750019075104
30
-5.2458037913538647e-14
10
-114.29374995098051
20
-10.200000190752068
30
-5.2458037913538647e-14
0
SPLINE
5
161
100
AcDbEntity
8
0
100
AcDbSpline
70
0
71
4
72
18
73
13
74
0
42
0.000000001
43
0.0000000001
44
0.0000000001
40
-520.08300000000008
40
-520.08300000000008
40
-520.08300000000008
40
-520.08300000000008
40
-520.08300000000008
40
-519.69100000000003
40
-519.69100000000003
40
-519.69100000000003
40
-519.69100000000003
40
-518.69100000000003
40
-518.69100000000003
40
-518.69100000000003
40
-518.69100000000003
40
-518.29799999999989
40
-518.29799999999989
40
-518.29799999999989
40
-518.29799999999989
40
-518.29799999999989
10
-114.29374995098051
20
-10.200000190752068
30
-5.2458037913538647e-14
10
-114.2262499509804
20
-10.125000190750981
30
-5.2458037913538647e-14
10
-114.13374995098032
20
-10.075000190751027
30
-5.2458037913538647e-14
10
-114.03374995097927
20
-10.050000190751067
30
-5.2458037913538647e-14
10
-113.94374995097628
20
-10.050000190751067
30
-5.2458037913538647e-14
10
-112.0837499509765
20
-10.050000190751067
30
-5.2458037913538647e-14
10
-110.22374995097614
20
-10.050000190751067
30
-5.2458037913538647e-14
10
-108.36374995097749
20
-10.050000190751067
30
-5.2458037913538647e-14
10
-106.50374995097941
20
-10.050000190752186
30
-5.2458037913538647e-14
10
-106.41374995097927
20
-10.050000190752186
30
-5.2458037913538647e-14
10
-106.3187499509781
20
-10.075000190751009
30
-5.2458037913538647e-14
10
-106.22874995097796
20
-10.125000190750981
30
-5.2458037913538647e-14
10
-106.15374995097916
20
-10.200000190750913
30
-5.2458037913538647e-14
0
SPLINE
5
162
100
AcDbEntity
8
0
100
AcDbSpline
70
0
71
4
72
30
73
25
74
0
42
0.000000001
43
0.0000000001
44
0.0000000001
40
-518.29799999999989
40
-518.29799999999989
40
-518.29799999999989
40
-518.29799999999989
40
-518.29799999999989
40
-517.90499999999997
40
-517.90499999999997
40
-517.90499999999997
40
-517.90499999999997
40
-500.90499999999997
40
-500.90499999999997
40
-500.90499999999997
40
-500.90499999999997
40
-500.51299999999998
40
-500.51299999999998
40
-500.51299999999998
40
-500.51299999999998
40
-500.11999999999983
40
-500.11999999999983
40
-500.11999999999983
40
-500.11999999999983
40
-499.12
40
-499.12
40
-499.12
40
-499.12
40
-498.72699999999992
40
-498.72699999999992
40
-498.72699999999992
40
-498.72699999999992
40
-498.72699999999992
10
-106.15374995097916
20
-10.200000190750913
30
-5.2458037913538647e-14
10
-106.07874995097757
20
-10.267500190751022
30
-5.2458037913538647e-14
10
-106.028749950977
20
-10.360000190750807
30
-5.2458037913538647e-14
10
-106.00374995097646
20
-10.460000190751
30
-5.2458037913538647e-14
10
-106.00374995097873
20
-10.550000190750879
30
-5.2458037913538647e-14
10
-106.00374995097873
20
-14.802500190751786
30
-5.2458037913538647e-14
10
-106.00374995097873
20
-19.050000190751959
30
-5.2458037913538647e-14
10
-106.00374995097873
20
-23.297500190752114
30
-5.2458037913538647e-14
10
-106.00374995097873
20
-27.550000190751049
30
-5.2458037913538647e-14
10
-106.00374995097873
20
-27.640000190750911
30
-5.2458037913538647e-14
10
-106.02874995097814
20
-27.735000190750938
30
-5.2458037913538647e-14
10
-106.07874995097809
20
-27.825000190751101
30
-5.2458037913538647e-14
10
-106.15374995097916
20
-27.900000190750731
30
-5.2458037913538647e-14
10
-106.22874995097966
20
-27.975000190750947
30
-5.2458037913538647e-14
10
-106.31874995097928
20
-28.025000190750884
30
-5.2458037913538647e-14
10
-106.4137499509804
20
-28.050000190750879
30
-5.2458037913538647e-14
10
-106.50374995098055
20
-28.050000190750879
30
-5.2458037913538647e-14
10
-108.36374995097977
20
-28.050000190750879
30
-5.2458037913538647e-14
10
-110.22374995097955
20
-28.050000190750879
30
-5.2458037913538647e-14
10
-112.08374995097934
20
-28.050000190750879
30
-5.2458037913538647e-14
10
-113.94374995097913
20
-28.050000190750879
30
-5.2458037913538647e-14
10
-114.03374995097927
20
-28.050000190750879
30
-5.2458037913538647e-14
10
-114.13374995098032
20
-28.025000190750902
30
-5.2458037913538647e-14
10
-114.2262499509804
20
-27.975000190750947
30
-5.2458037913538647e-14
10
-114.29374995098051
20
-27.900000190750731
30
-5.2458037913538647e-14
0
SPLINE
5
163
100
AcDbEntity
8
0
100
AcDbSpline
70
0
71
4
72
14
73
9
74
0
42
0.000000001
43
0.0000000001
44
0.0000000001
40
-498.72699999999992
40
-498.72699999999992
40
-498.72699999999992
40
-498.72699999999992
40
-498.72699999999992
40
-498.334
40
-498.334
40
-498.334
40
-498.334
40
-496.834
40
-496.834
40
-496.834
40
-496.834
40
-496.834
10
-114.29374995098051
20
-27.900000190750731
30
-5.2458037913538647e-14
10
-114.36874995097931
20
-27.825000190751101
30
-5.2458037913538647e-14
10
-114.41874995097926
20
-27.735000190750938
30
-5.2458037913538647e-14
10
-114.44374995097928
20
-27.640000190750911
30
-5.2458037913538647e-14
10
-114.4437499509781
20
-27.550000190751049
30
-5.2458037913538647e-14
10
-114.4437499509781
20
-27.175000190750822
30
-5.2458037913538647e-14
10
-114.4437499509781
20
-26.800000190750879
30
-5.2458037913538647e-14
10
-114.4437499509781
20
-26.425000190750936
30
-5.2458037913538647e-14
10
-114.4437499509781
20
-26.050000190750993
30
-5.2458037913538647e-14
0
LINE
5
164
100
AcDbEntity
8
0
100
AcDbLine
10
-114.4437499509781
20
-26.050000190750985
30
-5.2458037913538647e-14
11
-128.44374995097786
21
-26.050000190750993
31
-5.2458037913538647e-14
0
SPLINE
5
165
100
AcDbEntity
8
0
100
AcDbSpline
70
0
71
4
72
14
73
9
74
0
42
0.000000001
43
0.0000000001
44
0.0000000001
40
-495.83399999999983
40
-495.83399999999983
40
-495.83399999999983
40
-495.83399999999983
40
-495.83399999999983
40
-494.334
40
-494.334
40
-494.334
40
-494.334
40
-493.94199999999984
40
-493.94199999999984
40
-493.94199999999984
40
-493.94199999999984
40
-493.94199999999984
10
-128.44374995097786
20
-26.050000190750993
30
-5.2458037913538647e-14
10
-128.44374995097786
20
-26.425000190750936
30
-5.2458037913538647e-14
10
-128.44374995097786
20
-26.800000190750879
30
-5.2458037913538647e-14
10
-128.44374995097786
20
-27.175000190750822
30
-5.2458037913538647e-14
10
-128.44374995097729
20
-27.550000190751049
30
-5.2458037913538647e-14
10
-128.44374995097729
20
-27.640000190750911
30
-5.2458037913538647e-14
10
-128.46874995097838
20
-27.735000190750938
30
-5.2458037913538647e-14
10
-128.51874995097779
20
-27.825000190751954
30
-5.2458037913538647e-14
10
-128.59374995097886
20
-27.900000190750731
30
-5.2458037913538647e-14
0
SPLINE
5
166
100
AcDbEntity
8
0
100
AcDbSpline
70
0
71
4
72
30
73
25
74
0
42
0.000000001
43
0.0000000001
44
0.0000000001
40
-493.94199999999984
40
-493.94199999999984
40
-493.94199999999984
40
-493.94199999999984
40
-493.94199999999984
40
-493.54899999999998
40
-493.54899999999998
40
-493.54899999999998
40
-493.54899999999998
40
-492.54899999999998
40
-492.54899999999998
40
-492.54899999999998
40
-492.54899999999998
40
-492.15600000000001
40
-492.15600000000001
40
-492.15600000000001
40
-492.15600000000001
40
-491.76400000000001
40
-491.76400000000001
40
-491.76400000000001
40
-491.76400000000001
40
-474.76400000000001
40
-474.76400000000001
40
-474.76400000000001
40
-474.76400000000001
40
-474.37099999999998
40
-474.37099999999998
40
-474.37099999999998
40
-474.37099999999998
40
-474.37099999999998
10
-128.59374995097886
20
-27.900000190750731
30
-5.2458037913538647e-14
10
-128.6612499509767
20
-27.975000190750947
30
-5.2458037913538647e-14
10
-128.75374995097678
20
-28.025000190750902
30
-5.2458037913538647e-14
10
-128.85374995097726
20
-28.050000190750879
30
-5.2458037913538647e-14
10
-128.94374995097911
20
-28.050000190750879
30
-5.2458037913538647e-14
10
-130.80374995097947
20
-28.050000190750879
30
-5.2458037913538647e-14
10
-132.66374995098039
20
-28.050000190750879
30
-5.2458037913538647e-14
10
-134.52374995097961
20
-28.050000190750879
30
-5.2458037913538647e-14
10
-136.38374995097939
20
-28.050000190750879
30
-5.2458037913538647e-14
10
-136.46624995097972
20
-28.050000190750879
30
-5.2458037913538647e-14
10
-136.56374995097968
20
-28.025000190750902
30
-5.2458037913538647e-14
10
-136.65874995098028
20
-27.975000190750947
30
-5.2458037913538647e-14
10
-136.73374995097794
20
-27.900000190749878
30
-5.2458037913538647e-14
10
-136.80874995097787
20
-27.825000190751101
30
-5.2458037913538647e-14
10
-136.85874995097782
20
-27.735000190750103
30
-5.2458037913538647e-14
10
-136.88374995097951
20
-27.640000190750911
30
-5.2458037913538647e-14
10
-136.88374995097951
20
-27.550000190751049
30
-5.2458037913538647e-14
10
-136.88374995097951
20
-23.297500190750995
30
-5.2458037913538647e-14
10
-136.88374995097951
20
-19.050000190750822
30
-5.2458037913538647e-14
10
-136.88374995097951
20
-14.802500190750951
30
-5.2458037913538647e-14
10
-136.88374995097666
20
-10.550000190750879
30
-5.2458037913538647e-14
10
-136.88374995097666
20
-10.460000190751018
30
-5.2458037913538647e-14
10
-136.85874995097782
20
-10.360000190750824
30
-5.2458037913538647e-14
10
-136.80874995097787
20
-10.26750019075104
30
-5.2458037913538647e-14
10
-136.73374995097737
20
-10.200000190750913
30
-5.2458037913538647e-14
0
LWPOLYLINE
5
167
100
AcDbEntity
8
0
100
AcDbPolyline
90
8
70
1
43
0.0
10
-97.487499950978389
20
-25.550000190751003
10
-97.487499950978361
20
-12.550000190751014
42
-0.41421356237306384
10
-96.987499950978361
20
-12.050000190750971
10
-83.987499950978091
20
-12.050000190751007
42
-0.41421356237311585
10
-83.487499950978105
20
-12.550000190751032
10
-83.487499950978119
20
-25.550000190751003
42
-0.4142135623730846
10
-83.987499950978076
20
-26.050000190750975
10
-96.987499950978346
20
-26.05000019075101
42
-0.41421356237307422
0
LWPOLYLINE
5
168
100
AcDbEntity
8
0
100
AcDbPolyline
90
4
70
1
43
0.0
10
-131.58749995497789
20
-46.860000189750949
42
0.99999999999999989
10
-131.58749995497789
20
-47.860000189750963
10
-125.58749995497799
20
-47.860000189750949
42
0.99999999999999989
10
-125.58749995497799
20
-46.860000189750998
0
LWPOLYLINE
5
169
100
AcDbEntity
8
0
100
AcDbPolyline
90
4
70
1
43
0.0
10
-44.624999950977831
20
46.839999810249054
10
-50.624999950977916
20
46.839999810249026
42
-0.99999999999999989
10
-50.624999950977916
20
47.83999981024904
10
-44.624999950977973
20
47.839999810249068
42
-0.99999999999999989
0
LWPOLYLINE
5
170
100
AcDbEntity
8
0
100
AcDbPolyline
90
4
70
1
43
0.0
10
130.35000005102211
20
47.839999810249111
42
0.99999999999999989
10
130.35000005102211
20
46.839999810249097
10
136.35000005102233
20
46.839999810249111
42
0.99999999999999989
10
136.35000005102233
20
47.839999810249125
0
LWPOLYLINE
5
171
100
AcDbEntity
8
0
100
AcDbPolyline
90
4
70
1
43
0.0
10
50.625000050022138
20
46.839999810249097
10
44.625000050022052
20
46.839999810249097
42
-0.99999999999999989
10
44.625000050022052
20
47.839999810249068
10
50.625000050022138
20
47.839999810249068
42
-0.99999999999999989
0
LWPOLYLINE
5
172
100
AcDbEntity
8
0
100
AcDbPolyline
90
4
70
1
43
0.0
10
125.58750004902215
20
-46.86000018975087
10
131.58750004902214
20
-46.860000189750963
42
-0.99999999999999989
10
131.5875000490222
20
-47.86000018975092
10
125.58750004902201
20
-47.860000189750885
42
-0.99999999999999989
0
LWPOLYLINE
5
173
100
AcDbEntity
8
0
100
AcDbPolyline
90
4
70
1
43
0.0
10
83.962500048022122
20
-47.860000189750934
10
77.962500048022093
20
-47.860000189750913
42
-0.99999999999999989
10
77.96250004802198
20
-46.860000189750863
10
83.962500048022122
20
-46.860000189750949
42
-0.99999999999999989
0
LWPOLYLINE
5
174
100
AcDbEntity
8
0
100
AcDbPolyline
90
4
70
1
43
0.0
10
-77.962499953977769
20
-47.860000189750934
42
0.99999999999999989
10
-77.962499953977755
20
-46.860000189751005
10
-83.962499953977783
20
-46.860000189750934
42
0.99999999999999989
10
-83.962499953977812
20
-47.860000189750949
0
LWPOLYLINE
5
175
100
AcDbEntity
8
0
100
AcDbPolyline
90
4
70
1
43
0.0
10
-136.34999995297792
20
47.839999810249047
42
0.99999999999999989
10
-136.34999995297792
20
46.839999810249012
10
-130.34999995297792
20
46.83999981024904
42
0.99999999999999989
10
-130.34999995297792
20
47.839999810249019
0
LWPOLYLINE
5
176
100
AcDbEntity
8
0
100
AcDbPolyline
90
8
70
1
43
0.0
10
-139.84999995097797
20
45.099999809249027
42
0.41421356237308982
10
-140.34999995097797
20
44.599999809249027
10
-140.34999995097797
20
31.59999980924902
42
0.41421356237308982
10
-139.849999950978
20
31.099999809249042
10
-126.84999995097814
20
31.099999809249042
42
0.41421356237311585
10
-126.34999995097813
20
31.599999809249049
10
-126.34999995097812
20
44.599999809249042
42
0.41421356237307422
10
-126.84999995097817
20
45.099999809249042
0
LWPOLYLINE
5
177
100
AcDbEntity
8
0
100
AcDbPolyline
90
8
70
1
43
0.0
10
-135.0874999509779
20
26.049999809249019
42
0.41421356237310025
10
-135.58749995097793
20
25.549999809249037
10
-135.58749995097793
20
12.549999809249023
42
0.41421356237307683
10
-135.08749995097793
20
12.04999980924903
10
-122.08749995097799
20
12.049999809249041
42
0.41421356237310542
10
-121.587499950978
20
12.549999809249037
10
-121.58749995097799
20
25.549999809249044
42
0.41421356237313667
10
-122.08749995097804
20
26.049999809249034
0
LWPOLYLINE
5
178
100
AcDbEntity
8
0
100
AcDbPolyline
90
8
70
1
43
0.0
10
-98.274999950978312
20
12.04999980924903
10
-111.274999950978
20
12.04999980924903
42
-0.41421356237309503
10
-111.77499995097801
20
12.549999809249037
10
-111.77499995097799
20
25.549999809249044
42
-0.41421356237310542
10
-111.27499995097804
20
26.049999809249019
10
-98.274999950978312
20
26.049999809249016
42
-0.41421356237309764
10
-97.774999950978341
20
25.549999809249041
10
-97.774999950978298
20
12.549999809249037
42
-0.41421356237309503
0
LWPOLYLINE
5
179
100
AcDbEntity
8
0
100
AcDbPolyline
90
8
70
1
43
0.0
10
-45.387499950978203
20
-12.550000190751025
42
0.41421356237309115
10
-45.887499950978246
20
-12.050000190750989
10
-58.887499950978267
20
-12.050000190751005
42
0.41421356237311585
10
-59.387499950978224
20
-12.550000190751032
10
-59.387499950978153
20
-25.550000190750982
42
0.41421356237298318
10
-58.887499950978253
20
-26.050000190750975
10
-45.887499950978224
20
-26.050000190750989
42
0.4142135623730378
10
-45.387499950978238
20
-25.550000190750985
0
LWPOLYLINE
5
180
100
AcDbEntity
8
0
100
AcDbPolyline
90
8
70
1
43
0.0
10
-64.937499950978179
20
-26.050000190750975
42
0.41421356237307161
10
-64.437499950978236
20
-25.550000190750989
10
-64.437499950978165
20
-12.550000190751023
42
0.41421356237310025
10
-64.93749995097815
20
-12.050000190751025
10
-77.93749995097815
20
-12.050000190750985
42
0.41421356237320428
10
-78.437499950978378
20
-12.550000190751032
10
-78.437499950978179
20
-25.550000190751025
42
0.41421356237304041
10
-77.937499950978193
20
-26.050000190750993
0
LWPOLYLINE
5
181
100
AcDbEntity
8
0
100
AcDbPolyline
90
8
70
1
43
0.0
10
111.27500004902117
20
12.049999809249083
10
98.275000049021202
20
12.049999809249101
42
-0.41421356237312235
10
97.775000049021102
20
12.549999809249101
10
97.775000049021159
20
25.549999809249098
42
-0.41421356237311585
10
98.275000049021145
20
26.049999809249091
10
111.27500004902117
20
26.049999809249105
42
-0.41421356237312362
10
111.77500004902114
20
25.549999809249083
10
111.77500004902117
20
12.549999809249091
42
-0.41421356237309503
0
LWPOLYLINE
5
182
100
AcDbEntity
8
0
100
AcDbPolyline
90
8
70
1
43
0.0
10
135.08750004902117
20
12.04999980924911
42
0.41421356237311585
10
135.58750004902117
20
12.549999809249108
10
135.58750004902112
20
25.549999809249101
42
0.41421356237300916
10
135.08750004902112
20
26.049999809249105
10
122.08750004902117
20
26.049999809249108
42
0.41421356237314705
10
121.58750004902117
20
25.54999980924908
10
121.58750004902106
20
12.549999809249108
42
0.41421356237312623
10
122.08750004902114
20
12.049999809249119
0
LWPOLYLINE
5
183
100
AcDbEntity
8
0
100
AcDbPolyline
90
8
70
1
43
0.0
10
101.75000004902118
20
31.099999809249084
42
0.41421356237300139
10
102.25000004902117
20
31.599999809249102
10
102.25000004902115
20
44.599999809249098
42
0.41421356237312101
10
101.75000004902117
20
45.099999809249113
10
88.750000049021139
20
45.09999980924907
42
0.4142135623731783
10
88.250000049021153
20
44.599999809249113
10
88.250000049021196
20
31.599999809249098
42
0.41421356237306123
10
88.750000049021125
20
31.099999809249077
0
LWPOLYLINE
5
184
100
AcDbEntity
8
0
100
AcDbPolyline
90
8
70
1
43
0.0
10
45.887500049021028
20
6.9999998092490578
10
58.887500049021142
20
6.9999998092490934
42
-0.41421356237314444
10
59.387500049021078
20
6.4999998092490729
10
59.387500049021106
20
-6.5000001907509031
42
-0.414213562373069
10
58.887500049021135
20
-7.0000001907509581
10
45.887500049021099
20
-7.0000001907509191
42
-0.41421356237299878
10
45.387500049021064
20
-6.5000001907509075
10
45.387500049021057
20
6.4999998092490863
42
-0.41421356237309503
0
LWPOLYLINE
5
185
100
AcDbEntity
8
0
100
AcDbPolyline
90
8
70
1
43
0.0
10
2.5250000490210933
20
12.549999809249066
42
0.41421356237308038
10
3.0250000490210383
20
12.049999809249075
10
16.025000049021109
20
12.049999809249057
42
0.414213562373069
10
16.525000049021124
20
12.549999809249073
10
16.525000049021052
20
25.549999809249062
42
0.4142135623730222
10
16.025000049021081
20
26.049999809249051
10
3.02500004902102
20
26.049999809249069
42
0.4142135623730635
10
2.5250000490211377
20
25.549999809249062
0
LWPOLYLINE
5
186
100
AcDbEntity
8
0
100
AcDbPolyline
90
8
70
1
43
0.0
10
35.075000049021128
20
12.049999809249083
10
22.075000049021085
20
12.049999809249083
42
-0.41421356237307294
10
21.575000049021185
20
12.549999809249089
10
21.575000049021146
20
25.549999809249062
42
-0.41421356237309503
10
22.07500004902105
20
26.049999809249037
10
35.075000049021128
20
26.049999809249083
42
-0.4142135623730222
10
35.575000049021114
20
25.54999980924908
10
35.575000049021099
20
12.549999809249073
42
-0.41421356237310542
0
LWPOLYLINE
5
187
100
AcDbEntity
8
0
100
AcDbPolyline
90
8
70
1
43
0.0
10
41.125000049021168
20
26.049999809249069
10
54.125000049021139
20
26.049999809249034
42
-0.414213562373069
10
54.625000049021146
20
25.549999809249073
10
54.625000049021146
20
12.549999809249091
42
-0.41421356237310542
10
54.125000049021153
20
12.049999809249044
10
41.125000049021168
20
12.049999809249083
42
-0.41421356237315748
10
40.625000049021125
20
12.549999809249091
10
40.625000049021111
20
25.549999809249062
42
-0.41421356237306384
0
LWPOLYLINE
5
188
100
AcDbEntity
8
0
100
AcDbPolyline
90
8
70
1
43
0.0
10
73.175000049021151
20
12.049999809249083
10
60.175000049021179
20
12.049999809249057
42
-0.41421356237308721
10
59.675000049021129
20
12.549999809249094
10
59.675000049021079
20
25.54999980924908
42
-0.41421356237314705
10
60.175000049021108
20
26.049999809249055
10
73.175000049021151
20
26.049999809249059
42
-0.41421356237301438
10
73.675000049021136
20
25.549999809249076
10
73.675000049021136
20
12.549999809249091
42
-0.41421356237310542
0
LWPOLYLINE
5
189
100
AcDbEntity
8
0
100
AcDbPolyline
90
8
70
1
43
0.0
10
26.837500049021017
20
6.9999998092490623
42
0.41421356237313273
10
26.337500049021095
20
6.4999998092490765
10
26.337500049021081
20
-6.5000001907509306
42
0.41421356237301632
10
26.837500049021088
20
-7.0000001907509635
10
39.837500049021159
20
-7.0000001907509279
42
0.41421356237315227
10
40.337500049021173
20
-6.5000001907509217
10
40.337500049021173
20
6.4999998092490721
42
0.41421356237315549
10
39.837500049021131
20
6.9999998092490756
0
LWPOLYLINE
5
190
100
AcDbEntity
8
0
100
AcDbPolyline
90
8
70
1
43
0.0
10
7.2875000490210171
20
-6.5000001907509466
42
0.4142135623731425
10
7.7875000490210766
20
-7.0000001907509448
10
20.787500049021055
20
-7.0000001907509679
42
0.41421356237310025
10
21.287500049021091
20
-6.5000001907509386
10
21.287500049021059
20
6.4999998092490729
42
0.41421356237318607
10
20.787500049021048
20
6.9999998092490934
10
7.7875000490211113
20
6.9999998092490756
42
0.4142135623731048
10
7.287500049021105
20
6.4999998092490694
0
LWPOLYLINE
5
191
100
AcDbEntity
8
0
100
AcDbPolyline
90
8
70
1
43
0.0
10
83.987500049021065
20
6.9999998092491156
42
0.41421356237307877
10
83.487500049021122
20
6.4999998092490774
10
83.487500049021122
20
-6.5000001907509208
42
0.41421356237307422
10
83.987500049021122
20
-7.0000001907508924
10
96.987500049021207
20
-7.0000001907509617
42
0.41421356237303258
10
97.487500049021065
20
-6.5000001907509208
10
97.487500049021094
20
6.4999998092490792
42
0.41421356237315093
10
96.987500049021165
20
6.9999998092491111
0
LWPOLYLINE
5
192
100
AcDbEntity
8
0
100
AcDbPolyline
90
8
70
1
43
0.0
10
82.700000049021085
20
31.099999809249059
10
69.700000049021114
20
31.099999809249077
42
-0.41421356237318346
10
69.200000049021099
20
31.599999809249091
10
69.200000049021128
20
44.599999809249091
42
-0.41421356237309503
10
69.700000049021099
20
45.099999809249098
10
82.700000049021085
20
45.099999809249113
42
-0.4142135623732095
10
83.200000049021057
20
44.599999809249091
10
83.200000049021099
20
31.599999809249066
42
-0.41421356237309503
0
LWPOLYLINE
5
193
100
AcDbEntity
8
0
100
AcDbPolyline
90
8
70
1
43
0.0
10
50.650000049021131
20
45.099999809249063
42
0.4142135623730378
10
50.150000049021131
20
44.59999980924907
10
50.150000049021116
20
31.59999980924907
42
0.41421356237316009
10
50.650000049021173
20
31.099999809249059
10
63.650000049021152
20
31.099999809249095
42
0.41421356237313145
10
64.150000049021116
20
31.599999809249102
10
64.150000049021131
20
44.599999809249084
42
0.41421356237308982
10
63.650000049021145
20
45.099999809249063
0
LWPOLYLINE
5
194
100
AcDbEntity
8
0
100
AcDbPolyline
90
8
70
1
43
0.0
10
31.600000049021126
20
45.099999809249013
10
44.600000049021062
20
45.099999809249105
42
-0.41421356237316265
10
45.100000049021098
20
44.599999809249098
10
45.100000049021091
20
31.599999809249084
42
-0.4142135623730846
10
44.600000049021077
20
31.099999809249063
10
31.600000049021126
20
31.099999809249042
42
-0.4142135623732251
10
31.100000049021101
20
31.599999809249077
10
31.100000049021119
20
44.599999809249091
42
-0.41421356237304302
0
LWPOLYLINE
5
195
100
AcDbEntity
8
0
100
AcDbPolyline
90
8
70
1
43
0.0
10
12.050000049021037
20
31.599999809249066
10
12.050000049021055
20
44.59999980924907
42
-0.41421356237307549
10
12.550000049021081
20
45.099999809249063
10
25.550000049021087
20
45.099999809249098
42
-0.4142135623732251
10
26.050000049021094
20
44.599999809249084
10
26.050000049021058
20
31.599999809249084
42
-0.41421356237310281
10
25.550000049021055
20
31.099999809249059
10
12.550000049021079
20
31.099999809249095
42
-0.41421356237313667
0
LWPOLYLINE
5
196
100
AcDbEntity
8
0
100
AcDbPolyline
90
8
70
1
43
0.0
10
78.725000049021034
20
12.54999980924908
42
0.41421356237310414
10
79.225000049021077
20
12.049999809249075
10
92.225000049021105
20
12.049999809249087
42
0.41421356237307422
10
92.725000049021133
20
12.549999809249091
10
92.72500004902119
20
25.54999980924908
42
0.41421356237312623
10
92.225000049021091
20
26.049999809249087
10
79.225000049021062
20
26.04999980924908
42
0.4142135623730222
10
78.725000049021219
20
25.54999980924908
0
LWPOLYLINE
5
197
100
AcDbEntity
8
0
100
AcDbPolyline
90
8
70
1
43
0.0
10
77.937500049021153
20
-7.0000001907509635
10
64.937500049021182
20
-7.0000001907508835
42
-0.41421356237301632
10
64.437500049021224
20
-6.5000001907509128
10
64.437500049021139
20
6.4999998092490863
42
-0.41421356237305862
10
64.937500049021139
20
6.9999998092491111
10
77.937500049021082
20
6.9999998092491023
42
-0.41421356237322249
10
78.437500049021168
20
6.4999998092490818
10
78.437500049021168
20
-6.5000001907509208
42
-0.41421356237311585
0
LWPOLYLINE
5
198
100
AcDbEntity
8
0
100
AcDbPolyline
90
8
70
1
43
0.0
10
55.41250004902107
20
-12.050000190750909
42
0.41421356237305862
10
54.912500049021176
20
-12.550000190750952
10
54.912500049021162
20
-25.550000190750964
42
0.41421356237307683
10
55.412500049021034
20
-26.050000190750939
10
68.412500049021176
20
-26.050000190750914
42
0.41421356237309503
10
68.912500049021048
20
-25.550000190750978
10
68.912500049021077
20
-12.550000190750964
42
0.41421356237306639
10
68.412500049021148
20
-12.050000190750936
0
LWPOLYLINE
5
199
100
AcDbEntity
8
0
100
AcDbPolyline
90
8
70
1
43
0.0
10
87.962500049021131
20
-12.550000190750961
10
87.962500049021131
20
-25.55000019075095
42
-0.41421356237309503
10
87.462500049021159
20
-26.050000190750922
10
74.462500049021116
20
-26.050000190750985
42
-0.41421356237313928
10
73.962500049021187
20
-25.550000190750982
10
73.962500049021145
20
-12.550000190750961
42
-0.41421356237304818
10
74.462500049021074
20
-12.050000190750882
10
87.462500049021159
20
-12.050000190750954
42
-0.41421356237311585
0
LWPOLYLINE
5
200
100
AcDbEntity
8
0
100
AcDbPolyline
90
8
70
1
43
0.0
10
-73.674999950978133
20
12.549999809249048
42
0.41421356237312756
10
-73.174999950978133
20
12.049999809249048
10
-60.174999950978069
20
12.049999809249057
42
0.41421356237295454
10
-59.674999950978318
20
12.549999809249037
10
-59.674999950978091
20
25.549999809249059
42
0.41421356237309764
10
-60.174999950978147
20
26.049999809249034
10
-73.174999950978119
20
26.049999809249044
42
0.41421356237304302
10
-73.674999950978091
20
25.549999809249062
0
LWPOLYLINE
5
201
100
AcDbEntity
8
0
100
AcDbPolyline
90
8
70
1
43
0.0
10
-54.624999950978221
20
12.549999809249055
10
-54.62499995097815
20
25.549999809249062
42
-0.4142135623730378
10
-54.124999950978221
20
26.049999809249051
10
-41.124999950977923
20
26.049999809249069
42
-0.41421356237311846
10
-40.62499995097788
20
25.549999809249059
10
-40.624999950977887
20
12.549999809249037
42
-0.414213562373069
10
-41.124999950977916
20
12.049999809249039
10
-54.12499995097825
20
12.049999809249012
42
-0.4142135623730534
0
LWPOLYLINE
5
202
100
AcDbEntity
8
0
100
AcDbPolyline
90
8
70
1
43
0.0
10
-35.074999950978885
20
26.049999809249048
42
0.41421356237308982
10
-35.574999950978864
20
25.549999809249066
10
-35.574999950978892
20
12.549999809249055
42
0.41421356237309503
10
-35.074999950978878
20
12.049999809249048
10
-22.074999950978903
20
12.049999809249046
42
0.41421356237306123
10
-21.574999950978864
20
12.549999809249073
10
-21.574999950978913
20
25.549999809249062
42
0.41421356237306384
10
-22.074999950978906
20
26.049999809249069
0
LWPOLYLINE
5
203
100
AcDbEntity
8
0
100
AcDbPolyline
90
8
70
1
43
0.0
10
-3.024999950978879
20
12.049999809249048
42
0.41421356237306611
10
-2.5249999509789065
20
12.549999809249075
10
-2.5249999509788923
20
25.549999809249076
42
0.41421356237312884
10
-3.024999950978895
20
26.049999809249051
10
-16.024999950978923
20
26.049999809249044
42
0.41421356237308204
10
-16.524999950978874
20
25.549999809249062
10
-16.524999950978945
20
12.549999809249075
42
0.41421356237311713
10
-16.024999950978902
20
12.049999809249066
0
LWPOLYLINE
5
204
100
AcDbEntity
8
0
100
AcDbPolyline
90
8
70
1
43
0.0
10
-17.312499950978903
20
-7.0000001907509457
10
-30.31249995097788
20
-7.0000001907509679
42
-0.41421356237304108
10
-30.812499950977855
20
-6.5000001907509422
10
-30.812499950977895
20
6.4999998092490685
42
-0.41421356237303519
10
-30.312499950977912
20
6.9999998092490845
10
-17.312499950978903
20
6.9999998092490383
42
-0.41421356237310025
10
-16.812499950978864
20
6.4999998092490596
10
-16.812499950978896
20
-6.5000001907509386
42
-0.41421356237309503
0
LWPOLYLINE
5
205
100
AcDbEntity
8
0
100
AcDbPolyline
90
8
70
1
43
0.0
10
49.362500049021094
20
-26.050000190750922
42
0.41421356237303519
10
49.862500049021094
20
-25.550000190750971
10
49.862500049021079
20
-12.550000190750961
42
0.41421356237299095
10
49.362500049021136
20
-12.0500001907509
10
36.362500049021023
20
-12.050000190750971
42
0.41421356237301177
10
35.862500049021122
20
-12.550000190750996
10
35.862500049021165
20
-25.550000190750971
42
0.41421356237314966
10
36.362500049021094
20
-26.050000190750993
0
LWPOLYLINE
5
206
100
AcDbEntity
8
0
100
AcDbPolyline
90
8
70
1
43
0.0
10
-6.4999999509789035
20
45.099999809249056
42
0.41421356237310153
10
-6.9999999509789301
20
44.59999980924907
10
-6.9999999509789177
20
31.599999809249066
42
0.41421356237311585
10
-6.4999999509788964
20
31.099999809249077
10
6.5000000490210796
20
31.099999809249049
42
0.41421356237307161
10
7.0000000490210823
20
31.599999809249066
10
7.0000000490210743
20
44.599999809249084
42
0.41421356237310025
10
6.5000000490211107
20
45.099999809249042
0
LWPOLYLINE
5
207
100
AcDbEntity
8
0
100
AcDbPolyline
90
8
70
1
43
0.0
10
1.7375000490211434
20
-7.0000001907509635
10
-11.262499950978864
20
-7.0000001907509635
42
-0.4142135623731204
10
-11.762499950978906
20
-6.5000001907509484
10
-11.76249995097894
20
6.4999998092490685
42
-0.41421356237309631
10
-11.262499950978951
20
6.9999998092490916
10
1.7375000490210724
20
6.9999998092490401
42
-0.41421356237309764
10
2.2375000490210439
20
6.4999998092490641
10
2.237500049021115
20
-6.5000001907509386
42
-0.4142135623730846
0
LWPOLYLINE
5
208
100
AcDbEntity
8
0
100
AcDbPolyline
90
8
70
1
43
0.0
10
30.812500049021075
20
-12.550000190750998
42
0.41421356237294543
10
30.312500049021097
20
-12.050000190750975
10
17.31250004902105
20
-12.050000190750962
42
0.41421356237311713
10
16.812500049021146
20
-12.550000190750996
10
16.812500049021111
20
-25.550000190750968
42
0.4142135623730846
10
17.312500049021047
20
-26.050000190750957
10
30.312500049021086
20
-26.050000190750936
42
0.41421356237316009
10
30.812500049021061
20
-25.550000190750968
0
LWPOLYLINE
5
209
100
AcDbEntity
8
0
100
AcDbPolyline
90
8
70
1
43
0.0
10
-25.549999950978901
20
45.099999809249056
42
0.41421356237308982
10
-26.049999950978908
20
44.59999980924907
10
-26.049999950978936
20
31.599999809249077
42
0.41421356237312101
10
-25.549999950978908
20
31.099999809249059
10
-12.549999950978876
20
31.09999980924907
42
0.41421356237310153
10
-12.049999950978858
20
31.599999809249066
10
-12.049999950978902
20
44.599999809249063
42
0.4142135623730378
10
-12.549999950978865
20
45.099999809249084
0
LWPOLYLINE
5
210
100
AcDbEntity
8
0
100
AcDbPolyline
90
8
70
1
43
0.0
10
-45.099999950978287
20
31.599999809249052
42
0.41421356237305601
10
-44.599999950978329
20
31.099999809249056
10
-31.59999995097786
20
31.099999809249059
42
0.41421356237311324
10
-31.099999950977875
20
31.599999809249066
10
-31.099999950977882
20
44.59999980924907
42
0.4142135623730846
10
-31.599999950977882
20
45.099999809249042
10
-44.599999950978351
20
45.09999980924907
42
0.41421356237307422
10
-45.099999950978287
20
44.59999980924907
0
LWPOLYLINE
5
211
100
AcDbEntity
8
0
100
AcDbPolyline
90
8
70
1
43
0.0
10
-50.149999950978348
20
44.59999980924907
10
-50.149999950978355
20
31.599999809249066
42
-0.4142135623730534
10
-50.649999950978355
20
31.09999980924907
10
-63.649999950978327
20
31.099999809249042
42
-0.41421356237310281
10
-64.149999950978312
20
31.599999809249045
10
-64.149999950978284
20
44.59999980924907
42
-0.41421356237309503
10
-63.649999950978291
20
45.09999980924907
10
-50.649999950978319
20
45.099999809249042
42
-0.4142135623730534
0
LWPOLYLINE
5
212
100
AcDbEntity
8
0
100
AcDbPolyline
90
8
70
1
43
0.0
10
-69.699999950978196
20
31.099999809249049
42
0.41421356237307683
10
-69.199999950978238
20
31.599999809249034
10
-69.199999950978224
20
44.599999809249056
42
0.41421356237306384
10
-69.699999950978196
20
45.099999809249042
10
-82.699999950978182
20
45.099999809249042
42
0.41421356237313667
10
-83.199999950978167
20
44.599999809249056
10
-83.199999950978167
20
31.599999809249052
42
0.41421356237310802
10
-82.699999950978196
20
31.099999809249059
0
LWPOLYLINE
5
213
100
AcDbEntity
8
0
100
AcDbPolyline
90
8
70
1
43
0.0
10
-39.837499950977886
20
-12.050000190750989
10
-26.837499950978909
20
-12.050000190750954
42
-0.41421356237311585
10
-26.337499950978902
20
-12.550000190750996
10
-26.33749995097897
20
-25.550000190750968
42
-0.41421356237309503
10
-26.837499950978916
20
-26.050000190750971
10
-39.837499950977922
20
-26.050000190750993
42
-0.41421356237310281
10
-40.337499950977914
20
-25.550000190750989
10
-40.337499950977893
20
-12.550000190751032
42
-0.41421356237311585
0
LWPOLYLINE
5
214
100
AcDbEntity
8
0
100
AcDbPolyline
90
8
70
1
43
0.0
10
11.262500049021149
20
-26.050000190750964
10
-1.7374999509789291
20
-26.050000190750978
42
-0.41421356237306123
10
-2.237499950978922
20
-25.550000190750971
10
-2.2374999509789339
20
-12.550000190750996
42
-0.41421356237308693
10
-1.7374999509789428
20
-12.050000190750991
10
11.262500049021149
20
-12.050000190750982
42
-0.41421356237307549
10
11.762500049021057
20
-12.550000190750998
10
11.762500049021076
20
-25.550000190750968
42
-0.41421356237309503
0
LWPOLYLINE
5
215
100
AcDbEntity
8
0
100
AcDbPolyline
90
8
70
1
43
0.0
10
-55.412499950978287
20
-7.000000190750999
10
-68.412499950978329
20
-7.0000001907509724
42
-0.41421356237311585
10
-68.912499950978315
20
-6.5000001907509564
10
-68.912499950978344
20
6.4999998092490507
42
-0.41421356237307944
10
-68.412499950978344
20
6.9999998092490401
10
-55.412499950978358
20
6.9999998092490134
42
-0.41421356237308526
10
-54.912499950978379
20
6.4999998092490499
10
-54.912499950978315
20
-6.5000001907509564
42
-0.4142135623730534
0
LWPOLYLINE
5
216
100
AcDbEntity
8
0
100
AcDbPolyline
90
8
70
1
43
0.0
10
-35.862499950977963
20
6.4999998092490463
42
0.41421356237305862
10
-36.362499950977963
20
6.9999998092490445
10
-49.362499950978354
20
6.9999998092490623
42
0.41421356237311585
10
-49.862499950978361
20
6.4999998092490507
10
-49.862499950978325
20
-6.5000001907509608
42
0.41421356237309243
10
-49.362499950978389
20
-7.0000001907509635
10
-36.362499950977863
20
-7.0000001907509919
42
0.41421356237306123
10
-35.862499950977877
20
-6.5000001907509564
0
LWPOLYLINE
5
217
100
AcDbEntity
8
0
100
AcDbPolyline
90
8
70
1
43
0.0
10
-20.78749995097894
20
-12.050000190750971
10
-7.7874999509789333
20
-12.050000190750982
42
-0.41421356237313273
10
-7.2874999509789191
20
-12.550000190750989
10
-7.2874999509789262
20
-25.550000190750968
42
-0.41421356237310414
10
-7.787499950978896
20
-26.050000190750957
10
-20.787499950978905
20
-26.050000190750993
42
-0.41421356237303519
10
-21.287499950978876
20
-25.550000190750982
10
-21.287499950978948
20
-12.550000190750996
42
-0.41421356237310542
0
LWPOLYLINE
5
218
100
AcDbEntity
8
0
100
AcDbPolyline
90
8
70
1
43
0.0
10
-88.249999950978236
20
44.599999809249056
42
0.41421356237309503
10
-88.749999950978179
20
45.099999809249042
10
-101.74999995097824
20
45.099999809249042
42
0.41421356237307422
10
-102.24999995097825
20
44.599999809249042
10
-102.24999995097818
20
31.599999809249034
42
0.41421356237291035
10
-101.74999995097821
20
31.09999980924874
10
-88.749999950978165
20
31.099999809249059
42
0.41421356237297013
10
-88.249999950978406
20
31.599999809249031
0
LWPOLYLINE
5
219
100
AcDbEntity
8
0
100
AcDbPolyline
90
8
70
1
43
0.0
10
-121.29999995097812
20
31.599999809249049
10
-121.29999995097808
20
44.599999809249042
42
-0.4142135623730846
10
-120.7999999509781
20
45.099999809249056
10
-107.79999995097818
20
45.099999809249042
42
-0.41421356237311063
10
-107.29999995097813
20
44.599999809249049
10
-107.29999995097808
20
31.599999809249049
42
-0.41421356237306384
10
-107.79999995097813
20
31.099999809249042
10
-120.79999995097815
20
31.099999809249042
42
-0.41421356237311585
0
LWPOLYLINE
5
220
100
AcDbEntity
8
0
100
AcDbPolyline
90
8
70
1
43
0.0
10
-79.224999950978301
20
12.049999809249034
42
0.41421356237309892
10
-78.724999950978287
20
12.549999809249044
10
-78.724999950978287
20
25.549999809249037
42
0.41421356237308982
10
-79.224999950978301
20
26.049999809249034
10
-92.224999950978315
20
26.049999809249034
42
0.41421356237306384
10
-92.724999950978315
20
25.549999809249044
10
-92.724999950978301
20
12.549999809249057
42
0.41421356237292983
10
-92.224999950978344
20
12.049999809248817
0
LWPOLYLINE
5
221
100
AcDbEntity
8
0
100
AcDbPolyline
90
8
70
1
43
0.0
10
-98.274999950978312
20
-45.100000190751039
10
-111.274999950978
20
-45.100000190751011
42
-0.41421356237315227
10
-111.77499995097803
20
-44.600000190751032
10
-111.77499995097799
20
-31.60000019075099
42
-0.41421356237310025
10
-111.27499995097799
20
-31.100000190751011
10
-98.274999950978312
20
-31.100000190750983
42
-0.41421356237308982
10
-97.774999950978298
20
-31.600000190750983
10
-97.774999950978298
20
-44.600000190751032
42
-0.41421356237309503
0
LWPOLYLINE
5
222
100
AcDbEntity
8
0
100
AcDbPolyline
90
8
70
1
43
0.0
10
-135.0874999509779
20
-31.10000019075099
42
0.41421356237315227
10
-135.58749995097804
20
-31.60000019075099
10
-135.58749995097793
20
-44.600000190751032
42
0.41421356237310025
10
-135.08749995097793
20
-45.100000190750997
10
-122.08749995097831
20
-45.100000190751061
42
0.414213562373069
10
-121.58749995097828
20
-44.600000190751025
10
-121.58749995097824
20
-31.600000190750993
42
0.41421356237313406
10
-122.08749995097833
20
-31.100000190751
0
LWPOLYLINE
5
223
100
AcDbEntity
8
0
100
AcDbPolyline
90
8
70
1
43
0.0
10
-74.462499950978298
20
-7.0000001907509812
10
-87.462499950978341
20
-7.0000001907509635
42
-0.41421356237304624
10
-87.962499950978298
20
-6.500000190750951
10
-87.962499950978327
20
6.4999998092490507
42
-0.41421356237311585
10
-87.462499950978298
20
6.9999998092490454
10
-74.462499950978298
20
6.9999998092490401
42
-0.41421356237309243
10
-73.962499950978298
20
6.4999998092490374
10
-73.96249995097827
20
-6.5000001907509564
42
-0.41421356237309503
0
LWPOLYLINE
5
224
100
AcDbEntity
8
0
100
AcDbPolyline
90
8
70
1
43
0.0
10
-87.46249995097827
20
-31.100000190750997
42
0.41421356237306639
10
-87.96249995097827
20
-31.600000190750958
10
-87.962499950978298
20
-44.600000190751032
42
0.41421356237310542
10
-87.462499950978341
20
-45.100000190751004
10
-74.462499950978284
20
-45.100000190751039
42
0.41421356237311585
10
-73.962499950978255
20
-44.600000190751032
10
-73.962499950978298
20
-31.600000190750961
42
0.4142135623730378
10
-74.462499950978227
20
-31.100000190750983
0
LWPOLYLINE
5
225
100
AcDbEntity
8
0
100
AcDbPolyline
90
8
70
1
43
0.0
10
-106.51249995097821
20
6.9999998092490419
42
0.4142135623730937
10
-107.01249995097822
20
6.4999998092490339
10
-107.01249995097812
20
-6.5000001907509599
42
0.41421356237307227
10
-106.51249995097821
20
-7.0000001907509812
10
-93.512499950978153
20
-7.0000001907509901
42
0.41421356237312623
10
-93.012499950978196
20
-6.5000001907509573
10
-93.012499950978196
20
6.4999998092490499
42
0.41421356237314771
10
-93.512499950978238
20
6.9999998092490401
0
LWPOLYLINE
5
226
100
AcDbEntity
8
0
100
AcDbPolyline
90
8
70
1
43
0.0
10
6.5000000490211107
20
-45.100000190750976
10
-6.4999999509789319
20
-45.10000019075094
42
-0.41421356237310025
10
-6.9999999509788591
20
-44.600000190751004
10
-6.9999999509789168
20
-31.600000190750961
42
-0.41421356237310281
10
-6.4999999509789452
20
-31.100000190750951
10
6.5000000490211107
20
-31.100000190750986
42
-0.41421356237311846
10
7.0000000490211134
20
-31.600000190750958
10
7.0000000490211889
20
-44.600000190751004
42
-0.41421356237315748
0
LINE
5
227
100
AcDbEntity
8
0
100
AcDbLine
10
51.400000049020264
20
-37.350000190750961
30
0
11
41.734068578674894
21
-37.35000019075094
31
0
0
SPLINE
5
228
100
AcDbEntity
8
0
100
AcDbSpline
70
0
71
3
72
22
73
18
74
0
42
0.000000001
43
0.0000000001
44
0.0000000001
40
0
40
0
40
0
40
0
40
0.0097661118346729983
40
0.0097661118346729983
40
0.019532223669345934
40
0.019532223669345934
40
0.029298335504019023
40
0.029298335504019023
40
0.039064447338691709
40
0.039064447338691709
40
0.04883055917336504
40
0.04883055917336504
40
0.058596671008038052
40
0.058596671008038052
40
0.064557756921952009
40
0.064557756921952009
40
0.07051884283586736
40
0.07051884283586736
40
0.07051884283586736
40
0.07051884283586736
10
41.653351655407505
20
-36.863389163327781
30
-3.2836376315676633e-17
10
41.622541392005758
20
-36.873899703322181
30
-3.2836376315676633e-17
10
41.594078633695574
20
-36.890327686386286
30
0
10
41.545052293893647
20
-36.933169174841566
30
0
10
41.524957430931835
20
-36.959173092252684
30
0
10
41.495866478046928
20
-37.017419908368986
30
0
10
41.487148513489217
20
-37.049105935765127
30
0
10
41.482349024310295
20
-37.114036206294813
30
0
10
41.486313385421553
20
-37.14665968065237
30
0
10
41.506524035046468
20
-37.208550752457413
30
0
10
41.52257709873404
20
-37.237226637525197
30
0
10
41.564771546222033
20
-37.286810946823806
30
0
10
41.590509528106722
20
-37.307245318032194
30
0
10
41.637098001662764
20
-37.331282562484596
30
0
10
41.655779855419013
20
-37.338255734425744
30
0
10
41.694398676911966
20
-37.347631221066067
30
0
10
41.714198292295173
20
-37.35000019075094
30
3.4694469519536142e-17
10
41.734068578674894
20
-37.35000019075094
30
3.4694469519536142e-17
0
SPLINE
5
229
100
AcDbEntity
8
0
100
AcDbSpline
70
4
71
5
72
14
73
8
74
0
42
0.000000001
43
0.0000000001
44
0.0000000001
40
-0.23438800454215825
40
-0.23438800454215825
40
-0.23438800454215825
40
-0.23438800454215825
40
-0.23438800454215825
40
-0.23438800454215825
40
-0.20000000000000001
40
-0.10000000000000001
40
-0.0088241035379143795
40
-0.0088241035379143795
40
-0.0088241035379143795
40
-0.0088241035379143795
40
-0.0088241035379143795
40
-0.0088241035379143795
41
1
41
1
41
1
41
1
41
1
41
1
41
1
41
1
10
41.653351655408585
20
-36.863389163327412
30
0
10
41.946681334153624
20
-36.763323374217045
30
0
10
43.093011012899069
20
-36.360797009019905
30
0
10
45.017071088460703
20
-35.610638509361642
30
0
10
46.941131164010876
20
-34.739807897319842
30
0
10
48.865191239548125
20
-33.754152800316
30
0
10
50.495921636334828
20
-32.837665921180701
30
0
10
51.273652033137537
20
-32.382151490156431
30
0
0
SPLINE
5
230
100
AcDbEntity
8
0
100
AcDbSpline
70
0
71
3
72
18
73
14
74
0
42
0.000000001
43
0.0000000001
44
0.0000000001
40
0
40
0
40
0
40
0
40
0.0097661118346732204
40
0.0097661118346732204
40
0.019532223669346878
40
0.019532223669346878
40
0.029298335504019897
40
0.029298335504019897
40
0.03906444733869259
40
0.03906444733869259
40
0.045861841708715781
40
0.045861841708715781
40
0.052659236078738153
40
0.052659236078738153
40
0.052659236078738153
40
0.052659236078738153
10
51.650000049020264
20
-32.597873948149349
30
-3.5816918368630541e-17
10
51.650000049020264
20
-32.565320242033778
30
-3.5816918368630541e-17
10
51.643641586329103
20
-32.533077767091797
30
7.9100402472776775e-17
10
51.618923533161627
20
-32.472844944021254
30
7.9100402472776775e-17
10
51.60080026074597
20
-32.445430454510664
30
5.2289053069267352e-17
10
51.555065433571492
20
-32.399091478359288
30
5.2289053069267352e-17
10
51.527891128687855
20
-32.380610017587202
30
2.803823912369335e-17
10
51.467987856603401
20
-32.355103682667981
30
2.803823912369335e-17
10
51.435831597333497
20
-32.348322662984692
30
9.9792754355221667e-18
10
51.380624663974253
20
-32.347598143150364
30
9.9792754355221667e-18
10
51.358033014566828
20
-32.35038222680749
30
2.5413572313261932e-18
10
51.314221036999434
20
-32.361960096902109
30
2.5413572313261932e-18
10
51.293203374571981
20
-32.370700326352363
30
2.7755575615628914e-16
10
51.273652032961991
20
-32.382151490259268
30
2.7755575615628914e-16
0
LINE
5
231
100
AcDbEntity
8
0
100
AcDbLine
10
51.650000049020264
20
-32.597873948149349
30
-3.5816918368630541e-17
11
51.650000049020264
21
-37.100000190750968
31
0
0
ARC
5
232
100
AcDbEntity
8
0
100
AcDbCircle
10
51.400000049020264
20
-37.100000190750968
30
0
40
0.24999999999999911
210
0
220
0
230
1
100
AcDbArc
50
-90
51
0
0
LWPOLYLINE
5
233
100
AcDbEntity
8
0
100
AcDbPolyline
90
8
70
1
43
0.0
10
21.100126314867822
20
-45.10000019075099
10
9.2500000490211107
20
-45.10000019075099
42
-0.4142135623730937
10
9.0000000490211107
20
-44.850000190750983
10
9.0000000490211125
20
-39.100000190750983
42
-0.41421356237309503
10
9.2500000490211107
20
-38.85000019075099
10
26.850126314867786
20
-38.850000190750976
42
-0.66817863791929888
10
27.026903010164425
20
-39.276776886047614
10
21.276903010164464
20
-45.026776886047621
42
-0.19891236737965801
0
LINE
5
234
100
AcDbEntity
8
0
100
AcDbLine
10
18.915931420507203
20
-37.350000156647667
30
0
11
9.2500000498809243
21
-37.350000189891198
31
0
0
ARC
5
235
100
AcDbEntity
8
0
100
AcDbCircle
10
9.2500000490211107
20
-37.100000189891198
30
0
40
0.25000000000000022
210
0
220
0
230
1
100
AcDbArc
50
180
51
270.00000019705476
0
LINE
5
236
100
AcDbEntity
8
0
100
AcDbLine
10
9.0000000490211107
20
-37.100000189891198
30
0
11
9.0000000490211125
21
-32.597873948142336
31
0
0
SPLINE
5
237
100
AcDbEntity
8
0
100
AcDbSpline
70
0
71
3
72
18
73
14
74
0
42
0.000000001
43
0.0000000001
44
0.0000000001
40
0
40
0
40
0
40
0
40
0.0097661118346732134
40
0.0097661118346732134
40
0.019532223669346222
40
0.019532223669346222
40
0.029298335504019352
40
0.029298335504019352
40
0.039064447338692646
40
0.039064447338692646
40
0.04586184170854482
40
0.04586184170854482
40
0.052659236078396794
40
0.052659236078396794
40
0.052659236078396794
40
0.052659236078396794
10
9.3763480650764528
20
-32.382151490250536
30
1.2199186774170491e-16
10
9.3482578030894956
20
-32.365699105518729
30
1.2199186774170491e-16
10
9.3172225827327502
20
-32.354890667352798
30
0
10
9.2527559842647484
20
-32.345778433301646
30
0
10
9.2199409419718581
20
-32.347561755340507
30
0
10
9.1568414919330827
20
-32.363606521846798
30
0
10
9.1271603493214251
20
-32.377714569601352
30
0
10
9.0748765539466927
20
-32.416513794705097
30
0
10
9.0527737627642715
20
-32.440834030315074
30
0
10
9.0242474359569975
20
-32.488105365167648
30
0
10
9.0152321531069415
20
-32.509006523505512
30
0
10
9.0030803537023978
20
-32.5526627971145
30
0
10
9.0000000490211125
20
-32.575215966909497
30
-3.4694469519536142e-17
10
9.0000000490211125
20
-32.597873948142336
30
-3.4694469519536142e-17
0
SPLINE
5
238
100
AcDbEntity
8
0
100
AcDbSpline
70
4
71
5
72
14
73
8
74
0
42
0.000000001
43
0.0000000001
44
0.0000000001
40
-0.99117589645802651
40
-0.99117589645802651
40
-0.99117589645802651
40
-0.99117589645802651
40
-0.99117589645802651
40
-0.99117589645802651
40
-0.8999999999999998
40
-0.79999999999999982
40
-0.76561199778231737
40
-0.76561199778231737
40
-0.76561199778231737
40
-0.76561199778231737
40
-0.76561199778231737
40
-0.76561199778231737
41
1
41
1
41
1
41
1
41
1
41
1
41
1
41
1
10
9.3763480650764581
20
-32.382151490250536
30
0
10
10.154078461843588
20
-32.837665921236436
30
0
10
11.784808858593989
20
-33.754152800319773
30
5.9164567891575885e-30
10
13.708868914267141
20
-34.739807887121529
30
3.944304526105059e-30
10
15.632928969954445
20
-35.610638491342272
30
1.9721522630525295e-30
10
17.55698902565387
20
-36.360796985740215
30
0
10
18.703318684571876
20
-36.763323346280124
30
0
10
18.996648343489241
20
-36.863389129420469
30
0
0
SPLINE
5
239
100
AcDbEntity
8
0
100
AcDbSpline
70
0
71
3
72
22
73
18
74
0
42
0.000000001
43
0.0000000001
44
0.0000000001
40
0
40
0
40
0
40
0
40
0.0097661118346731666
40
0.0097661118346731666
40
0.019532223669346503
40
0.019532223669346503
40
0.029298335504019474
40
0.029298335504019474
40
0.039064447338692639
40
0.039064447338692639
40
0.048830559173365928
40
0.048830559173365928
40
0.058596671008038885
40
0.058596671008038885
40
0.064557756848396722
40
0.064557756848396722
40
0.07051884268875469
40
0.07051884268875469
40
0.07051884268875469
40
0.07051884268875469
10
18.915931420507203
20
-37.350000156647667
30
-1.8276281394540077e-16
10
18.948485126622781
20
-37.350000156535707
30
-1.8276281394540077e-16
10
18.980727601542885
20
-37.343641693733659
30
-6.7675081071649835e-16
10
19.040960424528418
20
-37.318923640359031
30
-6.7675081071649835e-16
10
19.068374913976676
20
-37.300800367849092
30
-6.5550445325319501e-16
10
19.114713889970762
20
-37.255065540515233
30
-6.5550445325319501e-16
10
19.133195350649387
20
-37.227891235568052
30
-6.2961555920532299e-16
10
19.158701685362594
20
-37.167987963395859
30
-6.2961555920532299e-16
10
19.16548270493529
20
-37.135831704102628
30
-6.0296072934632511e-16
10
19.166337081996126
20
-37.070729897927414
30
-6.0296072934632511e-16
10
19.160402271173893
20
-37.038406759795691
30
-5.795312556122771e-16
10
19.136476756234579
20
-36.977854758488327
30
-5.795312556122771e-16
10
19.118714793080727
20
-36.950204805448593
30
-5.6283546538984551e-16
10
19.082382256408088
20
-36.912412984344414
30
-5.6283546538984551e-16
10
19.066952338067182
20
-36.899781499997715
30
-5.570701435786724e-16
10
19.0334288240877
20
-36.878439356367345
30
-5.570701435786724e-16
10
19.01545445874283
20
-36.869804602910683
30
-5.2041704279304213e-16
10
18.996648343488456
20
-36.863389129420206
30
-5.2041704279304213e-16
0
LWPOLYLINE
5
240
100
AcDbEntity
8
0
100
AcDbPolyline
90
8
70
1
43
0.0
10
39.373097087877021
20
-45.026776886047621
10
33.623097087876921
20
-39.276776886047614
42
-0.66817863791930343
10
33.799873783173553
20
-38.850000190750976
10
51.400000049020193
20
-38.850000190750976
42
-0.41421356237309503
10
51.650000049020193
20
-39.100000190750983
10
51.650000049020193
20
-44.850000190750983
42
-0.41421356237309503
10
51.400000049020193
20
-45.10000019075099
10
39.549873783173659
20
-45.10000019075099
42
-0.19891236737965801
0
LWPOLYLINE
5
241
100
AcDbEntity
8
0
100
AcDbPolyline
90
6
70
1
43
0.0
10
29.57500004902073
20
-39.453553581344252
10
29.57500004902073
20
-44.850000190750983
42
-0.41421356237309503
10
29.325000049020726
20
-45.10000019075099
10
23.928553439614014
20
-45.100000190750976
42
-0.66817863791929888
10
23.751776744317379
20
-44.673223495454337
10
29.148223353724095
20
-39.276776886047614
42
-0.66817863791929888
0
LWPOLYLINE
5
242
100
AcDbEntity
8
0
100
AcDbPolyline
90
6
70
1
43
0.0
10
36.721446658427446
20
-45.10000019075099
10
31.325000049020716
20
-45.10000019075099
42
-0.41421356237309503
10
31.075000049020716
20
-44.850000190750983
10
31.075000049020712
20
-39.453553581344252
42
-0.66817863791929888
10
31.50177674431735
20
-39.276776886047614
10
36.898223353724084
20
-44.673223495454344
42
-0.66817863791929888
0
LWPOLYLINE
5
243
100
AcDbEntity
8
0
100
AcDbPolyline
90
12
70
1
43
0.0
10
-109.60937495097809
20
-4.0000001907509031
10
-110.10937495097814
20
-4.0000001907509386
42
-0.4142135623730937
10
-110.60937495097815
20
-3.5000001907509337
10
-110.60937495097811
20
1.9999998092490578
42
0.41421356237312623
10
-111.10937495097807
20
2.4999998092489584
10
-113.60937495097808
20
2.4999998092490294
42
-0.41421356237304985
10
-114.10937495097809
20
2.9999998092489593
10
-114.10937495097801
20
3.4999998092490614
42
-0.41421356237307422
10
-113.60937495097807
20
3.9999998092490863
10
-111.10937495097808
20
3.9999998092490685
42
-0.41421356237310436
10
-109.10937495097799
20
1.9999998092490654
10
-109.10937495097811
20
-3.5000001907509315
42
-0.41421356237316787
0
SPLINE
5
244
100
AcDbEntity
8
0
100
AcDbSpline
70
0
71
3
72
10
73
6
74
0
42
0.000000001
43
0.0000000001
44
0.0000000001
40
-1.5567935428495674
40
-1.5567935428495674
40
-1.5567935428495674
40
-1.5567935428495674
40
-0.89111236245431125
40
-0.89111236245431125
40
-0.19821008726152903
40
-0.19821008726152903
40
-0.19821008726152903
40
-0.19821008726152903
10
-30.324999950772735
20
-38.851141774667099
30
0
10
-26.724746663441145
20
-38.855242088157908
30
0
10
-23.211702363062059
20
-39.518883743963123
30
0
10
-16.241595733080558
20
-41.829691566479909
30
0
10
-13.300772904421684
20
-43.314803474036012
30
5.5511151231257827e-16
10
-10.968524451896355
20
-44.632331527761131
30
5.5511151231257827e-16
0
SPLINE
5
245
100
AcDbEntity
8
0
100
AcDbSpline
70
0
71
3
72
20
73
16
74
0
42
0.000000001
43
0.0000000001
44
0.0000000001
40
0
40
0
40
0
40
0
40
0.0097661118346728231
40
0.0097661118346728231
40
0.019532223669345938
40
0.019532223669345938
40
0.029298335504018967
40
0.029298335504018967
40
0.039064447338691674
40
0.039064447338691674
40
0.048830559173364957
40
0.048830559173364957
40
0.057354463774703358
40
0.057354463774703358
40
0.065878368376041357
40
0.065878368376041357
40
0.065878368376041357
40
0.065878368376041357
10
-11.091489297084863
20
-45.100000190750933
30
-4.1064623464262625e-16
10
-11.058935590969286
20
-45.100000190750933
30
-4.1064623464262625e-16
10
-11.026693116027316
20
-45.093641728059772
30
-2.0816681711721685e-16
10
-10.966460292956771
20
-45.068923674892304
30
-2.0816681711721685e-16
10
-10.939045803446181
20
-45.050800402476654
30
-2.0816681711721685e-16
10
-10.892706827294802
20
-45.005065575302169
30
-2.0816681711721685e-16
10
-10.874225366522721
20
-44.977891270418539
30
-2.0816681711721685e-16
10
-10.848719031603494
20
-44.917987998334077
30
-2.0816681711721685e-16
10
-10.841938011920202
20
-44.885831739064173
30
-2.0816681711721685e-16
10
-10.841083634635464
20
-44.820729932891894
30
-2.0816681711721685e-16
10
-10.847018445346528
20
-44.788406794739757
30
-2.0816681711721685e-16
10
-10.869422349022786
20
-44.731705769838626
30
-2.0816681711721685e-16
10
-10.884292382557026
20
-44.707253078518399
30
-2.0816681711721685e-16
10
-10.921610004251512
20
-44.664397590265317
30
-2.0816681711721685e-16
10
-10.943785959656015
20
-44.646306735890548
30
1.7347234759768071e-16
10
-10.968524451896361
20
-44.632331527761139
30
1.7347234759768071e-16
0
LINE
5
246
100
AcDbEntity
8
0
100
AcDbLine
10
-11.091489297084863
20
-45.100000190750933
30
-4.1064623464262625e-16
11
-49.558648721403806
21
-45.100000190750933
31
6.591949208711867e-16
0
SPLINE
5
247
100
AcDbEntity
8
0
100
AcDbSpline
70
0
71
3
72
20
73
16
74
0
42
0.000000001
43
0.0000000001
44
0.0000000001
40
0
40
0
40
0
40
0
40
0.0097661118346740305
40
0.0097661118346740305
40
0.019532223669346198
40
0.019532223669346198
40
0.029298335504019571
40
0.029298335504019571
40
0.03906444733869361
40
0.03906444733869361
40
0.048830559173366678
40
0.048830559173366678
40
0.057351320914828516
40
0.057351320914828516
40
0.065872082656290146
40
0.065872082656290146
40
0.065872082656290146
40
0.065872082656290146
10
-49.681667899858127
20
-44.632362230522425
30
2.114233401683709e-16
10
-49.710007588645624
20
-44.648381151250348
30
2.114233401683709e-16
10
-49.734947483135983
20
-44.669782293766303
30
-6.9388939039072284e-17
10
-49.77522009976888
20
-44.720939810095558
30
-6.9388939039072284e-17
10
-49.790167793746136
20
-44.750207090169738
30
-6.9388939039072284e-17
10
-49.808003231277766
20
-44.812823959266588
30
-6.9388939039072284e-17
10
-49.810720458328284
20
-44.845574896891868
30
-6.9388939039072284e-17
10
-49.803448039872947
20
-44.910274874150353
30
-6.9388939039072284e-17
10
-49.793527922651322
20
-44.941605346736758
30
-6.9388939039072284e-17
10
-49.762236619524565
20
-44.998700263113498
30
-6.9388939039072284e-17
10
-49.741164595532403
20
-45.023918848384135
30
-6.9388939039072284e-17
10
-49.693767727767259
20
-45.062249003112392
30
-6.9388939039072284e-17
10
-49.668800206171547
20
-45.076215474569153
30
-6.9388939039072284e-17
10
-49.615247211986933
20
-45.095159965373952
30
-6.9388939039072284e-17
10
-49.587051260542012
20
-45.100000190750933
30
-2.4286128663675299e-16
10
-49.558648721403806
20
-45.100000190750933
30
-2.4286128663675299e-16
0
SPLINE
5
248
100
AcDbEntity
8
0
100
AcDbSpline
70
0
71
3
72
10
73
6
74
0
42
0.000000001
43
0.0000000001
44
0.0000000001
40
0
40
0
40
0
40
0
40
0.7740051195070532
40
0.7740051195070532
40
1.3959847036977391
40
1.3959847036977391
40
1.3959847036977391
40
1.3959847036977391
10
-30.324999950782825
20
-38.851141774667099
30
0
10
-32.905015342558883
20
-38.848203405871928
30
0
10
-36.442872277975951
20
-39.182375775275361
30
-2.7755575615628914e-16
10
-44.40523761089149
20
-41.823135782849405
30
-2.7755575615628914e-16
10
-47.329469586936305
20
-43.302789467970015
30
2.7755575615628914e-16
10
-49.681667899858127
20
-44.632362230522432
30
2.7755575615628914e-16
0
ENDSEC
0
SECTION
2
OBJECTS
0
DICTIONARY
5
C
100
AcDbDictionary
3
ACAD_GROUP
350
D
3
ACAD_MLINESTYLE
350
17
0
DICTIONARY
5
D
100
AcDbDictionary
0
DICTIONARY
5
1A
330
C
100
AcDbDictionary
0
DICTIONARY
5
17
100
AcDbDictionary
0
ENDSEC
0
EOF
