0
SECTION
2
HEADER
9
$INSUNITS
70
4
9
$ACADVER
1
AC1014
9
$HANDSEED
5
FFFF
0
ENDSEC
0
SECTION
2
TABLES
0
TABLE
2
VPORT
5
8
100
AcDbSymbolTable
0
ENDTAB
0
TABLE
2
LTYPE
5
5
100
AcDbSymbolTable
0
LTYPE
5
14
100
AcDbSymbolTableRecord
100
AcDbLinetypeTableRecord
2
BYBLOCK
70
0
0
LTYPE
5
15
100
AcDbSymbolTableRecord
100
AcDbLinetypeTableRecord
2
BYLAYER
70
0
0
LTYPE
5
16
100
AcDbSymbolTableRecord
100
AcDbLinetypeTableRecord
2
DASHED
70
0
3
Dashed __ __ __ __ __ __ __ __ __ __ __ __ __ _
72
65
73
2
40
0.75
49
0.5
74
0
49
-0.25
74
0
0
ENDTAB
0
TABLE
2
LAYER
5
2
100
AcDbSymbolTable
70
2
0
LAYER
5
50
100
AcDbSymbolTableRecord
100
AcDbLayerTableRecord
2
0
70
0
62
7
6
CONTINUOUS
0
ENDTAB
0
TABLE
2
STYLE
5
3
100
AcDbSymbolTable
70
1
0
STYLE
5
11
100
AcDbSymbolTableRecord
100
AcDbTextStyleTableRecord
2
STANDARD
70
0
0
ENDTAB
0
TABLE
2
VIEW
5
6
100
AcDbSymbolTable
70
0
0
ENDTAB
0
TABLE
2
UCS
5
7
100
AcDbSymbolTable
70
0
0
ENDTAB
0
TABLE
2
APPID
5
9
100
AcDbSymbolTable
70
2
0
APPID
5
12
100
AcDbSymbolTableRecord
100
AcDbRegAppTableRecord
2
ACAD
70
0
0
ENDTAB
0
TABLE
2
DIMSTYLE
5
A
100
AcDbSymbolTable
70
1
0
ENDTAB
0
TABLE
2
BLOCK_RECORD
5
1
100
AcDbSymbolTable
70
1
0
BLOCK_RECORD
5
1F
100
AcDbSymbolTableRecord
100
AcDbBlockTableRecord
2
*MODEL_SPACE
0
BLOCK_RECORD
5
1B
100
AcDbSymbolTableRecord
100
AcDbBlockTableRecord
2
*PAPER_SPACE
0
ENDTAB
0
ENDSEC
0
SECTION
2
BLOCKS
0
BLOCK
5
20
100
AcDbEntity
100
AcDbBlockBegin
2
*MODEL_SPACE
0
ENDBLK
5
21
100
AcDbEntity
100
AcDbBlockEnd
0
BLOCK
5
1C
100
AcDbEntity
100
AcDbBlockBegin
2
*PAPER_SPACE
0
ENDBLK
5
1D
100
AcDbEntity
100
AcDbBlockEnd
0
ENDSEC
0
SECTION
2
ENTITIES
0
LWPOLYLINE
5
100
100
AcDbEntity
8
0
100
AcDbPolyline
90
12
70
1
43
0.0
10
-112.60937488273193
20
-3.9943965992128816
10
-115.10937488273193
20
-3.9943965992128461
42
-0.41421356237310153
10
-117.10937488273201
20
-1.9943965992128621
10
-117.10937488273194
20
3.5056034007871384
42
-0.41421356237315354
10
-116.60937488273191
20
4.0056034007871215
10
-116.10937488273187
20
4.0056034007871455
42
-0.41421356237310414
10
-115.60937488273188
20
3.5056034007871406
10
-115.6093748827319
20
-1.9943965992128621
42
0.41421356237312101
10
-115.10937488273193
20
-2.4943965992127537
10
-112.60937488273193
20
-2.4943965992128247
42
-0.41421356237307422
10
-112.10937488273196
20
-2.9943965992127608
10
-112.10937488273197
20
-3.4943965992128567
42
-0.4142135623730534
0
LWPOLYLINE
5
101
100
AcDbEntity
8
0
100
AcDbPolyline
90
14
70
1
43
0.0
10
132.1192501169715
20
-11.544396598916292
10
132.1192501169715
20
-12.044396598916208
10
139.85000011697153
20
-12.044396598916158
42
-0.41421356237307422
10
140.35000011697159
20
-12.544396598916183
10
140.3500001169715
20
-25.544396598916368
42
-0.4142135623730534
10
139.85000011697156
20
-26.044396598916435
10
132.11925011697156
20
-26.044396598916091
10
132.11925011697159
20
-26.544396598916045
42
-0.41421356237306384
10
131.61925011697167
20
-27.044396598915938
10
125.61925011697156
20
-27.044396598916265
42
-0.41421356237310025
10
125.1192501169715
20
-26.544396598916194
10
125.11925011697159
20
-11.54439659891629
42
-0.4142135623730937
10
125.61925011697159
20
-11.04439659891629
10
131.61925011697147
20
-11.044396598916284
42
-0.41421356237309503
0
LWPOLYLINE
5
102
100
AcDbEntity
8
0
100
AcDbPolyline
90
20
70
1
43
0.0
10
108.24325011697148
20
-11.544396598916203
10
108.24325011697148
20
-12.044396598916292
10
123.18125011697141
20
-12.044396598916158
42
-0.41421356237313406
10
123.68125011697146
20
-12.544396598916268
10
123.68125011697146
20
-25.544396598916244
42
-0.4142135623731783
10
123.18125011697148
20
-26.044396598916222
10
108.24325011697148
20
-26.044396598916038
10
108.24325011697148
20
-26.544396598916329
42
-0.41421356237309503
10
107.74325011697151
20
-27.044396598916304
10
101.74325011697157
20
-27.044396598916212
42
-0.41421356237309764
10
101.24325011697147
20
-26.544396598916112
10
101.24325011697145
20
-26.044396598916144
10
100.65625011697144
20
-26.044396598916002
42
-0.41421356237314705
10
100.15625011697146
20
-25.544396598916226
10
100.15625011697152
20
-12.544396598916325
42
-0.41421356237307422
10
100.65625011697149
20
-12.044396598916357
10
101.2432501169715
20
-12.044396598916354
10
101.2432501169715
20
-11.544396598916205
42
-0.41421356237309503
10
101.7432501169715
20
-11.044396598916205
10
107.74325011697147
20
-11.044396598916196
42
-0.41421356237309503
0
LWPOLYLINE
5
103
100
AcDbEntity
8
0
100
AcDbPolyline
90
8
70
1
43
0.0
10
136.88175011697146
20
7.5056034010840449
42
0.41421356237309503
10
136.38175011697157
20
8.0056034010839277
10
130.38175011697146
20
8.0056034010839223
42
0.41421356237309503
10
129.88175011697152
20
7.5056034010839952
10
129.88175011697152
20
-7.494396598916846
42
0.41421356237305601
10
130.3817501169712
20
-7.9943965989166088
10
136.38175011697132
20
-7.994396598916679
42
0.41421356237309503
10
136.88175011697149
20
-7.4943965989164774
0
LWPOLYLINE
5
104
100
AcDbEntity
8
0
100
AcDbPolyline
90
8
70
1
43
0.0
10
113.00575011697137
20
7.5056034010838157
10
113.00575011697151
20
-7.4943965989161754
42
-0.41421356237309503
10
112.5057501169713
20
-7.9943965989163903
10
106.50575011697157
20
-7.9943965989163424
42
-0.41421356237308915
10
106.00575011697151
20
-7.4943965989162917
10
106.00575011697144
20
7.5056034010837802
42
-0.4142135623730957
10
106.50575011697157
20
8.0056034010839046
10
112.50575011697129
20
8.0056034010839099
42
-0.4142135623730937
0
LWPOLYLINE
5
105
100
AcDbEntity
8
0
100
AcDbPolyline
90
8
70
1
43
0.0
10
128.44375011697144
20
6.5056034010836328
10
128.44375011697142
20
-6.494396598916321
42
-0.41421356237290774
10
127.94375011697142
20
-6.9943965989162757
10
114.94375011697137
20
-6.9943965989163281
42
-0.41421356237310347
10
114.44375011697159
20
-6.4943965989162358
10
114.44375011697146
20
6.5056034010835617
42
-0.41421356237297013
10
114.94375011697143
20
7.0056034010840582
10
127.94375011697142
20
7.0056034010836754
42
-0.41421356237301177
0
LWPOLYLINE
5
106
100
AcDbEntity
8
0
100
AcDbPolyline
90
8
70
1
43
0.0
10
97.487500117564707
20
6.5056034004906671
10
97.487500117564707
20
-6.4943965995096775
42
-0.41421356237303258
10
96.987500117564707
20
-6.9943965995096438
10
83.987500117564835
20
-6.9943965995095425
42
-0.41421356237309825
10
83.487500117564821
20
-6.4943965995096722
10
83.487500117564792
20
6.5056034004906138
42
-0.41421356237311585
10
83.987500117564821
20
7.00560340049043
10
96.987500117564736
20
7.0056034004905676
42
-0.4142135623730534
0
LWPOLYLINE
5
107
100
AcDbEntity
8
0
100
AcDbPolyline
90
8
70
1
43
0.0
10
-60.649999883028585
20
-45.594396598916077
42
0.41421356237309503
10
-60.149999883028627
20
-46.094396598916028
10
-54.149999883028599
20
-46.094396598916063
42
0.41421356237309503
10
-53.649999883028627
20
-45.594396598916092
10
-53.649999883028634
20
-30.59439659891618
42
0.4142135623730534
10
-54.149999883028528
20
-30.094396598916227
10
-60.149999883028642
20
-30.094396598916212
42
0.414213562373069
10
-60.649999883028585
20
-30.594396598916163
0
LWPOLYLINE
5
108
100
AcDbEntity
8
0
100
AcDbPolyline
90
8
70
1
43
0.0
10
-6.9999998830286003
20
-44.594396598916184
42
0.4142135623730222
10
-6.4999998830285755
20
-45.094396598916191
10
6.5000001169714006
20
-45.094396598916347
42
0.41421356237305079
10
7.000000116971421
20
-44.594396598916234
10
7.0000001169714032
20
-31.594396598916227
42
0.41421356237307161
10
6.5000001169713437
20
-31.094396598916276
10
-6.4999998830285923
20
-31.094396598916241
42
0.41421356237301243
10
-6.9999998830286003
20
-31.594396598916248
0
LWPOLYLINE
5
109
100
AcDbEntity
8
0
100
AcDbPolyline
90
8
70
1
43
0.0
10
135.08750011697151
20
-45.094396598916418
10
122.08750011697141
20
-45.094396598916063
42
-0.41421356237314189
10
121.58750011697144
20
-44.594396598916155
10
121.58750011697144
20
-31.594396598916195
42
-0.41421356237293894
10
122.08750011697136
20
-31.094396598916436
10
135.08750011697151
20
-31.094396598916152
42
-0.41421356237312362
10
135.58750011697146
20
-31.594396598916138
10
135.58750011697143
20
-44.594396598915992
42
-0.41421356237307422
0
LWPOLYLINE
5
110
100
AcDbEntity
8
0
100
AcDbPolyline
90
8
70
1
43
0.0
10
111.27500011697144
20
-45.094396598916404
10
98.275000116971469
20
-45.094396598916177
42
-0.41421356237299095
10
97.775000116971484
20
-44.594396598916219
10
97.775000116971498
20
-31.594396598916088
42
-0.41421356237310542
10
98.275000116971512
20
-31.094396598916418
10
111.27500011697144
20
-31.094396598916187
42
-0.41421356237317569
10
111.77500011697147
20
-31.594396598916351
10
111.77500011697151
20
-44.594396598916219
42
-0.41421356237307422
0
LWPOLYLINE
5
111
100
AcDbEntity
8
0
100
AcDbPolyline
90
8
70
1
43
0.0
10
87.462500116971498
20
-45.094396598916262
10
74.462500116971455
20
-45.094396598916198
42
-0.41421356237312623
10
73.962500116971512
20
-44.594396598916063
10
73.962500116971498
20
-31.594396598916124
42
-0.41421356237292334
10
74.462500116971356
20
-31.094396598916212
10
87.462500116971498
20
-31.094396598916347
42
-0.41421356237323032
10
87.962500116971512
20
-31.594396598916301
10
87.962500116971455
20
-44.594396598916347
42
-0.4142135623732407
0
LWPOLYLINE
5
112
100
AcDbEntity
8
0
100
AcDbPolyline
90
8
70
1
43
0.0
10
53.650000116971547
20
-45.594396598916809
10
53.650000116971498
20
-30.594396598916269
42
-0.41421356237309503
10
54.150000116971526
20
-30.094396598916241
10
60.15000011697154
20
-30.094396598916255
42
-0.41421356237309503
10
60.650000116971505
20
-30.594396598916216
10
60.650000116971441
20
-45.594396598916916
42
-0.41421356237310025
10
60.150000116971434
20
-46.094396598916916
10
54.150000116971597
20
-46.094396598916873
42
-0.41421356237308982
0
LWPOLYLINE
5
113
100
AcDbEntity
8
0
100
AcDbPolyline
90
17
70
1
43
0.0
10
142.87499985806244
20
-46.119396210552864
10
142.87499102278673
20
-11.994396598916168
10
139.32067249403374
20
-11.994396598916166
42
-0.99999999999999989
10
139.32067249403374
20
-6.99439659891617
10
142.87498972824082
20
-6.9943965989161683
10
142.87497597369048
20
46.130603798326277
42
0.4142134839398906
10
141.37497598700827
20
47.630603409962482
10
99.406000116971569
20
47.630603782586164
10
-141.37499988302858
20
47.630603401083825
42
0.41421356237310375
10
-142.87499988273819
20
46.130603401083832
10
-142.87499988290361
20
-6.9943965989161683
10
-139.34228432294213
20
-6.9943965989161727
42
-0.99999999999999989
10
-139.34228432294213
20
-11.994396598916165
10
-142.87499988291918
20
-11.994396598916168
10
-142.87499988302892
20
-46.119396598916126
42
0.41421356237309159
10
-141.37499988302895
20
-47.619396598916104
10
141.37499985806244
20
-47.619396598916651
42
0.41421363820584844
0
LWPOLYLINE
5
114
100
AcDbEntity
8
0
100
AcDbPolyline
90
8
70
1
43
0.0
10
-106.00574988302866
20
-11.544396598916169
10
-106.00574988302859
20
-26.544396598916205
42
-0.4142135623730846
10
-106.50574988302856
20
-27.044396598916194
10
-112.50574988302859
20
-27.044396598916229
42
-0.41421356237308982
10
-113.00574988302857
20
-26.544396598916251
10
-113.00574988302856
20
-11.54439659891616
42
-0.4142135623730937
10
-112.50574988302859
20
-11.044396598916197
10
-106.50574988302864
20
-11.044396598916181
42
-0.4142135623730937
0
LWPOLYLINE
5
115
100
AcDbEntity
8
0
100
AcDbPolyline
90
8
70
1
43
0.0
10
-129.88174988302862
20
-11.54439659891618
10
-129.88174988302862
20
-26.544396598916258
42
-0.41421356237309503
10
-130.38174988302859
20
-27.044396598916265
10
-136.38174988302862
20
-27.044396598916247
42
-0.41421356237306639
10
-136.88174988302859
20
-26.544396598916201
10
-136.88174988302859
20
-11.544396598916183
42
-0.41421356237309503
10
-136.38174988302859
20
-11.044396598916189
10
-130.38174988302859
20
-11.04439659891619
42
-0.41421356237309503
0
LWPOLYLINE
5
116
100
AcDbEntity
8
0
100
AcDbPolyline
90
8
70
1
43
0.0
10
-97.487499882435245
20
-25.544396599509476
10
-97.487499882435287
20
-12.544396599509504
42
-0.41421356237314705
10
-96.987499882435287
20
-12.044396599509533
10
-83.987499882435301
20
-12.044396599509533
42
-0.41421356237304952
10
-83.487499882435259
20
-12.544396599509497
10
-83.487499882435316
20
-25.544396599509511
42
-0.41421356237309503
10
-83.987499882435259
20
-26.044396599509536
10
-96.987499882435344
20
-26.044396599509501
42
-0.4142135623730846
0
LWPOLYLINE
5
117
100
AcDbEntity
8
0
100
AcDbPolyline
90
8
70
1
43
0.0
10
-128.44374988302863
20
-25.544396598916244
10
-128.44374988302857
20
-12.544396598916219
42
-0.41421356237310542
10
-127.94374988302857
20
-12.044396598916226
10
-114.94374988302859
20
-12.044396598916212
42
-0.41421356237304169
10
-114.44374988302863
20
-12.544396598916217
10
-114.44374988302854
20
-25.544396598916208
42
-0.41421356237309503
10
-114.9437498830286
20
-26.044396598916244
10
-127.9437498830286
20
-26.044396598916197
42
-0.41421356237307422
0
LWPOLYLINE
5
118
100
AcDbEntity
8
0
100
AcDbPolyline
90
8
70
1
43
0.0
10
-97.77499988302857
20
-31.594396598916248
10
-97.774999883028642
20
-44.594396598916255
42
-0.41421356237311585
10
-98.274999883028613
20
-45.094396598916262
10
-111.27499988302858
20
-45.094396598916205
42
-0.4142135623730378
10
-111.77499988302856
20
-44.594396598916191
10
-111.77499988302856
20
-31.594396598916177
42
-0.41421356237311585
10
-111.27499988302856
20
-31.094396598916205
10
-98.274999883028613
20
-31.094396598916205
42
-0.41421356237309503
0
LWPOLYLINE
5
119
100
AcDbEntity
8
0
100
AcDbPolyline
90
8
70
1
43
0.0
10
-87.462499883028528
20
-31.094396598916205
42
0.41421356237305601
10
-87.962499883028585
20
-31.594396598916251
10
-87.962499883028585
20
-44.594396598916184
42
0.41421356237311585
10
-87.46249988302857
20
-45.094396598916227
10
-74.462499883028514
20
-45.094396598916198
42
0.414213562373069
10
-73.962499883028556
20
-44.594396598916255
10
-73.962499883028556
20
-31.594396598916244
42
0.41421356237313406
10
-74.462499883028528
20
-31.094396598916205
0
LWPOLYLINE
5
120
100
AcDbEntity
8
0
100
AcDbPolyline
90
8
70
1
43
0.0
10
-135.08749988302856
20
-31.094396598916202
42
0.41421356237312362
10
-135.58749988302856
20
-31.594396598916244
10
-135.58749988302856
20
-44.594396598916184
42
0.4142135623730534
10
-135.08749988302858
20
-45.094396598916177
10
-122.08749988302854
20
-45.094396598916262
42
0.41421356237313667
10
-121.58749988302858
20
-44.594396598916184
10
-121.58749988302857
20
-31.594396598916234
42
0.41421356237311846
10
-122.08749988302856
20
-31.094396598916205
0
LWPOLYLINE
5
121
100
AcDbEntity
8
0
100
AcDbPolyline
90
8
70
1
43
0.0
10
-11.262499882435328
20
7.0056034004904788
10
1.7375001175647142
20
7.005603400490461
42
-0.4142135623730846
10
2.2375001175647391
20
6.5056034004904539
10
2.2375001175647302
20
-6.4943965995094644
42
-0.41421356237305373
10
1.7375001175647138
20
-6.9943965995094803
10
-11.262499882435328
20
-6.9943965995093844
42
-0.41421356237305729
10
-11.76249988243532
20
-6.4943965995094572
10
-11.762499882435336
20
6.5056034004904362
42
-0.41421356237311585
0
LWPOLYLINE
5
122
100
AcDbEntity
8
0
100
AcDbPolyline
90
8
70
1
43
0.0
10
135.58750011697143
20
25.555603401083637
10
135.58750011697151
20
12.555603401083744
42
-0.4142135623730534
10
135.08750011697148
20
12.055603401083449
10
122.08750011697141
20
12.055603401083914
42
-0.41421356237315876
10
121.58750011697148
20
12.555603401083674
10
121.5875001169715
20
25.555603401084007
42
-0.4142135623730222
10
122.08750011697147
20
26.055603401084319
10
135.08750011697151
20
26.0556034010838
42
-0.41421356237300139
0
LWPOLYLINE
5
123
100
AcDbEntity
8
0
100
AcDbPolyline
90
8
70
1
43
0.0
10
63.650000116971484
20
31.105603401083961
10
50.650000116971441
20
31.105603401083968
42
-0.41421356237326934
10
50.150000116971476
20
31.605603401083805
10
50.150000116971498
20
44.605603401082718
42
-0.41421356237294416
10
50.650000116971441
20
45.105603401084394
10
63.650000116971484
20
45.105603401082597
42
-0.41421356237317308
10
64.150000116971484
20
44.605603401083883
10
64.150000116971441
20
31.605603401083897
42
-0.41421356237299617
0
LWPOLYLINE
5
124
100
AcDbEntity
8
0
100
AcDbPolyline
90
8
70
1
43
0.0
10
-45.387499882435307
20
-12.544396599509477
42
0.41421356237310025
10
-45.887499882435314
20
-12.044396599509462
10
-58.887499882435193
20
-12.044396599509424
42
0.41421356237311585
10
-59.387499882435257
20
-12.544396599509451
10
-59.387499882435328
20
-25.544396599509497
42
0.41421356237310281
10
-58.887499882435321
20
-26.044396599509518
10
-45.887499882435293
20
-26.044396599509501
42
0.41421356237309503
10
-45.387499882435307
20
-25.544396599509565
0
LWPOLYLINE
5
125
100
AcDbEntity
8
0
100
AcDbPolyline
90
8
70
1
43
0.0
10
7.2875001175647469
20
-6.4943965995094821
10
7.2875001175647292
20
6.5056034004904362
42
-0.41421356237308399
10
7.7875001175647354
20
7.0056034004905321
10
20.787500117564761
20
7.0056034004904078
42
-0.41421356237314638
10
21.287500117564733
20
6.5056034004904904
10
21.287500117564704
20
-6.4943965995094821
42
-0.4142135623730222
10
20.787500117564761
20
-6.9943965995095159
10
7.7875001175647185
20
-6.9943965995094359
42
-0.4142135623730846
0
LWPOLYLINE
5
126
100
AcDbEntity
8
0
100
AcDbPolyline
90
8
70
1
43
0.0
10
-12.549999883028597
20
31.105603401083748
10
-25.549999883028569
20
31.105603401083766
42
-0.41421356237307422
10
-26.049999883028569
20
31.605603401083869
10
-26.049999883028558
20
44.605603401084139
42
-0.41421356237308982
10
-25.549999883028576
20
45.105603401083982
10
-12.549999883028597
20
45.105603401084082
42
-0.41421356237310542
10
-12.049999883028581
20
44.605603401083762
10
-12.049999883028573
20
31.605603401083844
42
-0.41421356237309503
0
LWPOLYLINE
5
127
100
AcDbEntity
8
0
100
AcDbPolyline
90
8
70
1
43
0.0
10
-6.9999998830285648
20
31.605603401083719
10
-6.9999998830285559
20
44.605603401084501
42
-0.41421356237305212
10
-6.4999998830285328
20
45.105603401084188
10
6.5000001169714139
20
45.105603401083833
42
-0.41421356237307422
10
7.0000001169714192
20
44.605603401082938
10
7.0000001169714254
20
31.605603401083684
42
-0.41421356237311391
10
6.5000001169714174
20
31.105603401083709
10
-6.4999998830285932
20
31.105603401083577
42
-0.414213562373069
0
LWPOLYLINE
5
128
100
AcDbEntity
8
0
100
AcDbPolyline
90
8
70
1
43
0.0
10
-21.574999882435261
20
25.55560340049059
42
0.41421356237310542
10
-22.074999882435257
20
26.055603400490405
10
-35.074999882435279
20
26.055603400490561
42
0.41421356237310281
10
-35.574999882435279
20
25.555603400490519
10
-35.574999882435293
20
12.555603400490593
42
0.41421356237310153
10
-35.074999882435307
20
12.055603400490593
10
-22.074999882435343
20
12.055603400490501
42
0.41421356237311063
10
-21.574999882435293
20
12.555603400490565
0
LWPOLYLINE
5
129
100
AcDbEntity
8
0
100
AcDbPolyline
90
8
70
1
43
0.0
10
-35.862499882435337
20
6.5056034004905428
10
-35.862499882435287
20
-6.4943965995094821
42
-0.4142135623730846
10
-36.362499882435287
20
-6.994396599509435
10
-49.362499882435351
20
-6.9943965995094626
42
-0.41421356237312557
10
-49.86249988243533
20
-6.4943965995095008
10
-49.862499882435387
20
6.5056034004905428
42
-0.41421356237305862
10
-49.362499882435323
20
7.0056034004904912
10
-36.362499882435309
20
7.0056034004904788
42
-0.41421356237311585
0
LWPOLYLINE
5
130
100
AcDbEntity
8
0
100
AcDbPolyline
90
8
70
1
43
0.0
10
30.812500117564703
20
-12.544396599509646
10
30.812500117564738
20
-25.544396599509405
42
-0.41421356237297535
10
30.312500117564724
20
-26.044396599509483
10
17.31250011756476
20
-26.044396599509483
42
-0.41421356237316009
10
16.812500117564774
20
-25.544396599509454
10
16.812500117564756
20
-12.544396599509557
42
-0.41421356237309631
10
17.312500117564763
20
-12.044396599509623
10
30.312500117564731
20
-12.044396599509621
42
-0.41421356237312623
0
LWPOLYLINE
5
131
100
AcDbEntity
8
0
100
AcDbPolyline
90
8
70
1
43
0.0
10
-3.0249998824353597
20
12.055603400490448
42
0.41421356237315093
10
-2.5249998824354192
20
12.555603400490412
10
-2.5249998824353921
20
25.555603400490444
42
0.41421356237307161
10
-3.0249998824353241
20
26.055603400490615
10
-16.02499988243526
20
26.055603400490451
42
0.4142135623730534
10
-16.524999882435267
20
25.555603400490455
10
-16.524999882435282
20
12.555603400490522
42
0.41421356237303908
10
-16.024999882435331
20
12.055603400490522
0
LWPOLYLINE
5
132
100
AcDbEntity
8
0
100
AcDbPolyline
90
8
70
1
43
0.0
10
-21.287499882435274
20
-25.544396599509515
42
0.41421356237307161
10
-20.787499882435281
20
-26.044396599509504
10
-7.7874998824352719
20
-26.044396599509483
42
0.41421356237307294
10
-7.2874998824352843
20
-25.544396599509547
10
-7.2874998824353021
20
-12.544396599509479
42
0.41421356237303908
10
-7.7874998824352915
20
-12.044396599509515
10
-20.787499882435302
20
-12.044396599509559
42
0.41421356237308204
10
-21.287499882435306
20
-12.54439659950954
0
LWPOLYLINE
5
133
100
AcDbEntity
8
0
100
AcDbPolyline
90
8
70
1
43
0.0
10
-54.624999882435397
20
12.555603400490511
10
-54.624999882435283
20
25.555603400490583
42
-0.41421356237308982
10
-54.124999882435304
20
26.055603400490519
10
-41.124999882435276
20
26.055603400490533
42
-0.41421356237311324
10
-40.624999882435247
20
25.55560340049048
10
-40.624999882435311
20
12.555603400490494
42
-0.41421356237309503
10
-41.124999882435311
20
12.055603400490496
10
-54.124999882435354
20
12.055603400490575
42
-0.41421356237311585
0
LWPOLYLINE
5
134
100
AcDbEntity
8
0
100
AcDbPolyline
90
8
70
1
43
0.0
10
-26.337499882435296
20
-12.544396599509575
10
-26.33749988243531
20
-25.544396599509458
42
-0.4142135623730534
10
-26.837499882435303
20
-26.044396599509522
10
-39.837499882435274
20
-26.044396599509554
42
-0.41421356237309243
10
-40.337499882435409
20
-25.544396599509568
10
-40.337499882435317
20
-12.544396599509469
42
-0.41421356237314444
10
-39.837499882435317
20
-12.044396599509444
10
-26.837499882435303
20
-12.044396599509533
42
-0.41421356237303258
0
LWPOLYLINE
5
135
100
AcDbEntity
8
0
100
AcDbPolyline
90
8
70
1
43
0.0
10
-2.2374998824353298
20
-25.544396599509458
10
-2.237499882435352
20
-12.544396599509486
42
-0.41421356237311419
10
-1.7374998824352543
20
-12.044396599509565
10
11.26250011756472
20
-12.044396599509568
42
-0.41421356237304952
10
11.762500117564727
20
-12.544396599509568
10
11.762500117564741
20
-25.544396599509511
42
-0.4142135623730937
10
11.262500117564739
20
-26.044396599509479
10
-1.7374998824352517
20
-26.044396599509483
42
-0.41421356237306384
0
LWPOLYLINE
5
136
100
AcDbEntity
8
0
100
AcDbPolyline
90
8
70
1
43
0.0
10
-30.812499882435311
20
-6.4943965995095176
10
-30.812499882435311
20
6.5056034004904539
42
-0.41421356237308204
10
-30.312499882435308
20
7.0056034004905143
10
-17.312499882435297
20
7.0056034004904921
42
-0.41421356237306578
10
-16.812499882435276
20
6.5056034004905214
10
-16.81249988243529
20
-6.4943965995094999
42
-0.41421356237310542
10
-17.312499882435279
20
-6.9943965995095425
10
-30.312499882435304
20
-6.994396599509507
42
-0.41421356237312623
0
LWPOLYLINE
5
137
100
AcDbEntity
8
0
100
AcDbPolyline
90
8
70
1
43
0.0
10
-68.412499882435341
20
7.0056034004905454
42
0.41421356237303586
10
-68.91249988243537
20
6.5056034004904486
10
-68.912499882435327
20
-6.4943965995095008
42
0.41421356237309437
10
-68.412499882435398
20
-6.994396599509507
10
-55.41249988243532
20
-6.9943965995093986
42
0.41421356237312623
10
-54.912499882435277
20
-6.4943965995094475
10
-54.912499882435313
20
6.5056034004905374
42
0.41421356237310869
10
-55.41249988243532
20
7.0056034004905676
0
LWPOLYLINE
5
138
100
AcDbEntity
8
0
100
AcDbPolyline
90
8
70
1
43
0.0
10
41.125000117564809
20
26.055603400490448
10
54.125000117564781
20
26.055603400490092
42
-0.4142135623730534
10
54.625000117564781
20
25.555603400490448
10
54.62500011756493
20
12.555603400490565
42
-0.41421356237303258
10
54.125000117564817
20
12.055603400490348
10
41.125000117564809
20
12.055603400490469
42
-0.41421356237314838
10
40.625000117564753
20
12.555603400490478
10
40.625000117564795
20
25.555603400490625
42
-0.41421356237314705
0
LWPOLYLINE
5
139
100
AcDbEntity
8
0
100
AcDbPolyline
90
8
70
1
43
0.0
10
-87.962499882435182
20
-6.4943965995094661
42
0.4142135623730625
10
-87.462499882435282
20
-6.994396599509491
10
-74.462499882435267
20
-6.9943965995094981
42
0.41421356237312101
10
-73.962499882435282
20
-6.494396599509499
10
-73.962499882435282
20
6.5056034004904815
42
0.41421356237308915
10
-74.462499882435253
20
7.0056034004905321
10
-87.46249988243531
20
7.0056034004904788
42
0.41421356237312623
10
-87.96249988243531
20
6.5056034004905072
0
LWPOLYLINE
5
140
100
AcDbEntity
8
0
100
AcDbPolyline
90
8
70
1
43
0.0
10
68.912500117564804
20
-12.544396599509515
42
0.41421356237311713
10
68.412500117564676
20
-12.044396599509732
10
55.412500117564754
20
-12.044396599509497
42
0.4142135623730378
10
54.912500117564846
20
-12.544396599509611
10
54.912500117564775
20
-25.544396599509586
42
0.41421356237304041
10
55.412500117564676
20
-26.044396599509394
10
68.412500117564832
20
-26.044396599509536
42
0.4142135623730846
10
68.912500117564832
20
-25.544396599509458
0
LWPOLYLINE
5
141
100
AcDbEntity
8
0
100
AcDbPolyline
90
8
70
1
43
0.0
10
-50.649999883028585
20
31.105603401083748
42
0.41421356237309503
10
-50.149999883028585
20
31.605603401083819
10
-50.149999883028599
20
44.605603401083521
42
0.41421356237300661
10
-50.649999883028585
20
45.105603401083499
10
-63.649999883028542
20
45.105603401083947
42
0.414213562373069
10
-64.149999883028499
20
44.605603401083627
10
-64.149999883028485
20
31.605603401083805
42
0.41421356237306639
10
-63.649999883028556
20
31.105603401083776
0
LWPOLYLINE
5
142
100
AcDbEntity
8
0
100
AcDbPolyline
90
8
70
1
43
0.0
10
-120.79999988302856
20
45.105603401083783
42
0.41421356237309503
10
-121.29999988302856
20
44.605603401083783
10
-121.29999988302858
20
31.605603401083798
42
0.41421356237311585
10
-120.79999988302856
20
31.105603401083812
10
-107.79999988302859
20
31.105603401083791
42
0.4142135623730534
10
-107.29999988302858
20
31.605603401083791
10
-107.29999988302853
20
44.605603401083798
42
0.41421356237306384
10
-107.79999988302855
20
45.105603401083826
0
LWPOLYLINE
5
143
100
AcDbEntity
8
0
100
AcDbPolyline
90
8
70
1
43
0.0
10
31.600000116971461
20
45.105603401082263
42
0.41421356237310802
10
31.100000116971451
20
44.605603401084281
10
31.10000011697144
20
31.605603401083716
42
0.41421356237312884
10
31.600000116971465
20
31.105603401083705
10
44.600000116971366
20
31.105603401083535
42
0.41421356237315748
10
45.100000116971373
20
31.605603401083577
10
45.100000116971437
20
44.605603401083229
42
0.41421356237315227
10
44.600000116971401
20
45.10560340108421
0
LWPOLYLINE
5
144
100
AcDbEntity
8
0
100
AcDbPolyline
90
8
70
1
43
0.0
10
60.175000117564821
20
26.05560340049032
42
0.41421356237315227
10
59.675000117564736
20
25.555603400490845
10
59.675000117564672
20
12.555603400490465
42
0.41421356237311974
10
60.17500011756475
20
12.055603400490202
10
73.175000117564849
20
12.055603400490398
42
0.41421356237304302
10
73.675000117564764
20
12.555603400490511
10
73.675000117564792
20
25.555603400490394
42
0.41421356237311063
10
73.175000117564792
20
26.055603400490426
0
LWPOLYLINE
5
145
100
AcDbEntity
8
0
100
AcDbPolyline
90
8
70
1
43
0.0
10
92.225000117564946
20
12.055603400490575
10
79.225000117564619
20
12.055603400490496
42
-0.41421356237311713
10
78.725000117564704
20
12.555603400490442
10
78.725000117564676
20
25.555603400490405
42
-0.41421356237297013
10
79.225000117564619
20
26.055603400490419
10
92.225000117564662
20
26.055603400490604
42
-0.41421356237309764
10
92.725000117564619
20
25.555603400490504
10
92.725000117564946
20
12.5556034004906
42
-0.41421356237318868
0
LWPOLYLINE
5
146
100
AcDbEntity
8
0
100
AcDbPolyline
90
8
70
1
43
0.0
10
101.75000011697145
20
31.105603401083961
42
0.41421356237286872
10
102.25000011697142
20
31.605603401083439
10
102.25000011697141
20
44.605603401083577
42
0.41421356237316265
10
101.75000011697144
20
45.105603401083656
10
88.750000116971464
20
45.10560340108335
42
0.41421356237299617
10
88.25000011697135
20
44.605603401084828
10
88.250000116971364
20
31.605603401083634
42
0.41421356237311324
10
88.750000116971464
20
31.105603401084075
0
LWPOLYLINE
5
147
100
AcDbEntity
8
0
100
AcDbPolyline
90
8
70
1
43
0.0
10
64.937500117564809
20
7.0056034004905321
42
0.41421356237291812
10
64.437500117564809
20
6.5056034004905339
10
64.437500117564781
20
-6.4943965995094715
42
0.41421356237312235
10
64.937500117564824
20
-6.9943965995095603
10
77.937500117564824
20
-6.9943965995094448
42
0.41421356237317308
10
78.43750011756498
20
-6.4943965995095008
10
78.437500117564724
20
6.5056034004905374
42
0.41421356237311907
10
77.937500117564795
20
7.0056034004905143
0
LWPOLYLINE
5
148
100
AcDbEntity
8
0
100
AcDbPolyline
90
8
70
1
43
0.0
10
83.200000116971395
20
44.605603401082575
10
83.200000116971438
20
31.605603401083371
42
-0.41421356237294937
10
82.700000116971466
20
31.105603401083716
10
69.700000116971452
20
31.105603401083393
42
-0.41421356237298579
10
69.200000116971395
20
31.605603401083542
10
69.200000116971395
20
44.605603401083648
42
-0.4142135623730534
10
69.700000116971438
20
45.105603401082661
10
82.700000116971424
20
45.105603401083272
42
-0.41421356237318868
0
LWPOLYLINE
5
149
100
AcDbEntity
8
0
100
AcDbPolyline
90
8
70
1
43
0.0
10
111.77500011756479
20
25.555603400490142
42
0.41421356237322771
10
111.27500011756479
20
26.055603400490725
10
98.275000117564815
20
26.05560340049033
42
0.41421356237302737
10
97.775000117564801
20
25.55560340049049
10
97.775000117564801
20
12.555603400490511
42
0.41421356237307422
10
98.275000117564772
20
12.055603400490451
10
111.27500011756479
20
12.05560340049038
42
0.41421356237295975
10
111.77500011756493
20
12.555603400490796
0
LWPOLYLINE
5
150
100
AcDbEntity
8
0
100
AcDbPolyline
90
8
70
1
43
0.0
10
-102.24999988302858
20
31.605603401083798
42
0.414213562373069
10
-101.74999988302861
20
31.105603401083801
10
-88.749999883028536
20
31.105603401083751
42
0.414213562373069
10
-88.249999883028565
20
31.605603401083727
10
-88.249999883028508
20
44.605603401083798
42
0.41421356237308982
10
-88.749999883028536
20
45.105603401083812
10
-101.74999988302859
20
45.105603401083854
42
0.41421356237315748
10
-102.24999988302855
20
44.605603401083762
0
LWPOLYLINE
5
151
100
AcDbEntity
8
0
100
AcDbPolyline
90
8
70
1
43
0.0
10
-98.274999882435324
20
12.055603400490469
42
0.41421356237306123
10
-97.774999882435338
20
12.555603400490508
10
-97.77499988243531
20
25.555603400490522
42
0.41421356237306123
10
-98.27499988243531
20
26.055603400490462
10
-111.27499988243528
20
26.055603400490497
42
0.41421356237309503
10
-111.77499988243528
20
25.555603400490511
10
-111.77499988243525
20
12.55560340049052
42
0.41421356237312101
10
-111.27499988243528
20
12.055603400490504
0
LWPOLYLINE
5
152
100
AcDbEntity
8
0
100
AcDbPolyline
90
8
70
1
43
0.0
10
-93.512499882435307
20
-6.994396599509507
42
0.41421356237307355
10
-93.012499882435321
20
-6.4943965995095532
10
-93.012499882435293
20
6.5056034004905117
42
0.41421356237309243
10
-93.512499882435307
20
7.0056034004905143
10
-106.51249988243535
20
7.0056034004905321
42
0.41421356237311585
10
-107.01249988243525
20
6.5056034004905419
10
-107.01249988243529
20
-6.4943965995094919
42
0.41421356237307877
10
-106.51249988243535
20
-6.9943965995095247
0
LWPOLYLINE
5
153
100
AcDbEntity
8
0
100
AcDbPolyline
90
8
70
1
43
0.0
10
45.88750011756467
20
7.0056034004904966
10
58.887500117564784
20
7.0056034004904522
42
-0.4142135623732498
10
59.387500117564819
20
6.5056034004904379
10
59.38750011756477
20
-6.4943965995094999
42
-0.41421356237299617
10
58.887500117564812
20
-6.9943965995094892
10
45.88750011756467
20
-6.9943965995095603
42
-0.41421356237308915
10
45.387500117564684
20
-6.4943965995092965
10
45.387500117564699
20
6.5056034004905783
42
-0.41421356237306384
0
LWPOLYLINE
5
154
100
AcDbEntity
8
0
100
AcDbPolyline
90
8
70
1
43
0.0
10
22.075000117564763
20
26.05560340049049
42
0.41421356237313928
10
21.575000117564791
20
25.555603400490586
10
21.575000117564706
20
12.555603400490583
42
0.41421356237312623
10
22.075000117564727
20
12.055603400490575
10
35.075000117564763
20
12.05560340049052
42
0.41421356237304563
10
35.57500011756467
20
12.555603400490511
10
35.575000117564684
20
25.555603400490412
42
0.41421356237312101
10
35.075000117564699
20
26.05560340049059
0
LWPOLYLINE
5
155
100
AcDbEntity
8
0
100
AcDbPolyline
90
8
70
1
43
0.0
10
87.462500117564844
20
-26.044396599509501
42
0.41421356237317308
10
87.962500117564844
20
-25.544396599509575
10
87.962500117564971
20
-12.544396599509341
42
0.41421356237313406
10
87.462500117564659
20
-12.044396599509248
10
74.462500117564815
20
-12.044396599509515
42
0.4142135623731939
10
73.962500117564929
20
-12.544396599509291
10
73.962500117564758
20
-25.544396599509408
42
0.41421356237311324
10
74.462500117564758
20
-26.044396599509287
0
LWPOLYLINE
5
156
100
AcDbEntity
8
0
100
AcDbPolyline
90
8
70
1
43
0.0
10
49.86250011756475
20
-12.544396599509575
10
49.862500117564807
20
-25.544396599509458
42
-0.4142135623730534
10
49.362500117564721
20
-26.044396599509358
10
36.362500117564736
20
-26.044396599509486
42
-0.41421356237310281
10
35.862500117564686
20
-25.544396599509568
10
35.862500117564664
20
-12.544396599509486
42
-0.4142135623730534
10
36.362500117564664
20
-12.044396599509559
10
49.362500117564707
20
-12.044396599509568
42
-0.41421356237315748
0
LWPOLYLINE
5
157
100
AcDbEntity
8
0
100
AcDbPolyline
90
8
70
1
43
0.0
10
3.0250001175647756
20
26.055603400490462
42
0.41421356237308854
10
2.5250001175647685
20
25.555603400490448
10
2.5250001175647108
20
12.555603400490536
42
0.41421356237308854
10
3.0250001175647157
20
12.055603400490469
10
16.025000117564723
20
12.055603400490627
42
0.41421356237309503
10
16.52500011756473
20
12.555603400490547
10
16.525000117564783
20
25.55560340049044
42
0.41421356237307944
10
16.025000117564758
20
26.055603400490579
0
LWPOLYLINE
5
158
100
AcDbEntity
8
0
100
AcDbPolyline
90
8
70
1
43
0.0
10
12.050000116971411
20
31.605603401083819
10
12.050000116971411
20
44.605603401084096
42
-0.41421356237302609
10
12.550000116971479
20
45.105603401084139
10
25.550000116971425
20
45.105603401084011
42
-0.41421356237302737
10
26.050000116971432
20
44.605603401084544
10
26.050000116971418
20
31.605603401083854
42
-0.41421356237290774
10
25.550000116971425
20
31.105603401083822
10
12.550000116971454
20
31.10560340108373
42
-0.41421356237307944
0
LWPOLYLINE
5
159
100
AcDbEntity
8
0
100
AcDbPolyline
90
8
70
1
43
0.0
10
40.337500117564744
20
6.505603400490525
10
40.337500117564751
20
-6.4943965995094644
42
-0.41421356237299878
10
39.837500117564886
20
-6.9943965995093915
10
26.837500117564765
20
-6.9943965995096002
42
-0.41421356237312817
10
26.337500117564755
20
-6.4943965995094608
10
26.337500117564758
20
6.5056034004905072
42
-0.41421356237312884
10
26.837500117564769
20
7.0056034004903545
10
39.837500117564772
20
7.0056034004904788
42
-0.41421356237316787
0
LWPOLYLINE
5
160
100
AcDbEntity
8
0
100
AcDbPolyline
90
8
70
1
43
0.0
10
-135.58749988302856
20
12.555603401083779
10
-135.58749988302856
20
25.555603401083786
42
-0.41421356237310542
10
-135.08749988302856
20
26.055603401083761
10
-122.08749988302853
20
26.055603401083786
42
-0.41421356237305862
10
-121.58749988302856
20
25.555603401083804
10
-121.58749988302856
20
12.555603401083779
42
-0.41421356237310542
10
-122.08749988302856
20
12.055603401083761
10
-135.08749988302853
20
12.05560340108379
42
-0.41421356237309503
0
LWPOLYLINE
5
161
100
AcDbEntity
8
0
100
AcDbPolyline
90
8
70
1
43
0.0
10
-119.20624988302859
20
6.5056034010837616
42
0.41421356237307161
10
-119.70624988302856
20
7.0056034010837642
10
-137.46624988302855
20
7.00560340108379
42
0.41421356237309503
10
-137.96624988302858
20
6.5056034010837918
10
-137.96624988302858
20
-6.4943965989162287
42
0.41421356237310736
10
-137.46624988302855
20
-6.9943965989162038
10
-119.70624988302853
20
-6.9943965989162225
42
0.41421356237312623
10
-119.20624988302862
20
-6.4943965989162322
0
LWPOLYLINE
5
162
100
AcDbEntity
8
0
100
AcDbPolyline
90
8
70
1
43
0.0
10
-44.599999883028588
20
45.105603401083755
42
0.41421356237308982
10
-45.099999883028588
20
44.605603401083741
10
-45.099999883028531
20
31.605603401083791
42
0.41421356237304302
10
-44.59999988302858
20
31.105603401083783
10
-31.599999883028559
20
31.105603401083748
42
0.41421356237309243
10
-31.099999883028531
20
31.605603401083798
10
-31.099999883028524
20
44.605603401083556
42
0.41421356237313145
10
-31.599999883028573
20
45.105603401083812
0
LWPOLYLINE
5
163
100
AcDbEntity
8
0
100
AcDbPolyline
90
8
70
1
43
0.0
10
-64.937499882435361
20
-26.044396599509536
10
-77.937499882435262
20
-26.044396599509511
42
-0.41421356237313928
10
-78.437499882435318
20
-25.544396599509525
10
-78.437499882435276
20
-12.544396599509469
42
-0.41421356237312623
10
-77.937499882435318
20
-12.044396599509493
10
-64.937499882435361
20
-12.044396599509506
42
-0.41421356237310153
10
-64.437499882435333
20
-12.544396599509479
10
-64.437499882435262
20
-25.54439659950944
42
-0.41421356237309503
0
LWPOLYLINE
5
164
100
AcDbEntity
8
0
100
AcDbPolyline
90
8
70
1
43
0.0
10
-69.699999883028568
20
31.105603401083695
42
0.4142135623730846
10
-69.199999883028511
20
31.605603401083791
10
-69.199999883028511
20
44.605603401083926
42
0.41421356237310025
10
-69.699999883028568
20
45.105603401083627
10
-82.699999883028539
20
45.105603401083833
42
0.41421356237311585
10
-83.199999883028568
20
44.605603401083798
10
-83.199999883028525
20
31.605603401083716
42
0.41421356237304563
10
-82.699999883028568
20
31.105603401083776
0
LWPOLYLINE
5
165
100
AcDbEntity
8
0
100
AcDbPolyline
90
8
70
1
43
0.0
10
-59.674999882435316
20
25.555603400490547
10
-59.674999882435415
20
12.555603400490494
42
-0.41421356237314189
10
-60.174999882435351
20
12.055603400490531
10
-73.174999882435429
20
12.055603400490487
42
-0.41421356237309892
10
-73.674999882435344
20
12.555603400490536
10
-73.67499988243533
20
25.555603400490526
42
-0.41421356237308982
10
-73.174999882435316
20
26.055603400490497
10
-60.174999882435358
20
26.055603400490472
42
-0.414213562373069
0
LWPOLYLINE
5
166
100
AcDbEntity
8
0
100
AcDbPolyline
90
8
70
1
43
0.0
10
-126.34999988302859
20
44.605603401083833
42
0.41421356237306384
10
-126.8499998830286
20
45.105603401083798
10
-139.84999988302857
20
45.105603401083826
42
0.41421356237313145
10
-140.34999988302863
20
44.605603401083791
10
-140.3499998830286
20
31.605603401083787
42
0.41421356237310281
10
-139.84999988302857
20
31.105603401083801
10
-126.8499998830286
20
31.105603401083791
42
0.414213562373069
10
-126.34999988302859
20
31.605603401083791
0
LWPOLYLINE
5
167
100
AcDbEntity
8
0
100
AcDbPolyline
90
8
70
1
43
0.0
10
-79.224999882435327
20
12.055603400490496
42
0.41421356237313794
10
-78.724999882435341
20
12.555603400490504
10
-78.724999882435299
20
25.555603400490515
42
0.41421356237309764
10
-79.224999882435299
20
26.055603400490519
10
-92.224999882435341
20
26.055603400490526
42
0.41421356237311585
10
-92.724999882435313
20
25.555603400490554
10
-92.724999882435355
20
12.555603400490492
42
0.4142135623730937
10
-92.224999882435341
20
12.055603400490487
0
LWPOLYLINE
5
168
100
AcDbEntity
8
0
100
AcDbPolyline
90
32
70
1
43
0.0
10
139.26300011697148
20
45.605603401083947
10
139.26300011697148
20
45.105603401084892
10
139.85000011697153
20
45.105603401084863
42
-0.41421356237317308
10
140.35000011697156
20
44.605603401083002
10
140.35000011697153
20
31.6056034010833
42
-0.41421356237305862
10
139.85000011697147
20
31.105603401084124
10
139.26300011697145
20
31.105603401084014
10
139.26300011697148
20
30.605603401084025
42
-0.41421356237311585
10
138.76300011697137
20
30.105603401083908
10
132.76300011697094
20
30.10560340108394
42
-0.41421356237307683
10
132.26300011697148
20
30.605603401083382
10
132.26300011697148
20
31.105603401083577
10
115.38700011697138
20
31.10560340108421
10
115.38700011697142
20
30.605603401083748
42
-0.41421356237308982
10
114.88700011697169
20
30.105603401084032
10
108.88700011697161
20
30.105603401084061
42
-0.41421356237313406
10
108.38700011697142
20
30.605603401084171
10
108.38700011697142
20
31.105603401083926
10
107.80000011697147
20
31.105603401084032
42
-0.41421356237307161
10
107.30000011697146
20
31.605603401083716
10
107.30000011697146
20
44.605603401083073
42
-0.41421356237308982
10
107.80000011697152
20
45.105603401086157
10
108.38700011697142
20
45.105603401086128
10
108.38700011697142
20
45.605603401084082
42
-0.41421356237309503
10
108.88700011697142
20
46.105603401084075
10
114.88700011697136
20
46.105603401084075
42
-0.41421356237309503
10
115.38700011697138
20
45.605603401084068
10
115.38700011697138
20
45.105603401085844
10
132.26300011697148
20
45.105603401085176
10
132.26300011697148
20
45.60560340108394
42
-0.41421356237309503
10
132.76300011697148
20
46.105603401083933
10
138.76300011697145
20
46.105603401083954
42
-0.41421356237309503
0
LWPOLYLINE
5
169
100
AcDbEntity
8
0
100
AcDbPolyline
90
12
70
1
43
0.0
10
-109.10937488273191
20
2.0056034007871482
10
-109.10937488273188
20
-3.4943965992128567
42
-0.41421356237309503
10
-109.60937488273188
20
-3.9943965992128638
10
-110.10937488273193
20
-3.9943965992128549
42
-0.4142135623730846
10
-110.60937488273196
20
-3.4943965992128478
10
-110.6093748827319
20
2.0056034007871526
42
0.41421356237307944
10
-111.10937488273187
20
2.5056034007871331
10
-113.60937488273187
20
2.5056034007871486
42
-0.41421356237308593
10
-114.10937488273188
20
3.0056034007871402
10
-114.10937488273188
20
3.5056034007871384
42
-0.41421356237310025
10
-113.60937488273187
20
4.0056034007871544
10
-111.10937488273187
20
4.0056034007870833
42
-0.41421356237309176
0
CIRCLE
5
170
100
AcDbEntity
8
0
100
AcDbCircle
10
117.55000011697149
20
19.403553401083833
30
-9.6808163040946481e-15
40
2.5
210
1.2246467991473532e-16
220
-1.4997597826618576e-32
230
1
0
CIRCLE
5
171
100
AcDbEntity
8
0
100
AcDbCircle
10
-117.2749998830286
20
19.055579401083811
30
1.9076952156883096e-14
40
2.5
210
1.2246467991473532e-16
220
-1.4997597826618576e-32
230
1
0
ENDSEC
0
SECTION
2
OBJECTS
0
DICTIONARY
5
C
100
AcDbDictionary
3
ACAD_GROUP
350
D
3
ACAD_MLINESTYLE
350
17
0
DICTIONARY
5
D
100
AcDbDictionary
0
DICTIONARY
5
1A
330
C
100
AcDbDictionary
0
DICTIONARY
5
17
100
AcDbDictionary
0
ENDSEC
0
EOF
