0
SECTION
2
HEADER
9
$INSUNITS
70
4
9
$ACADVER
1
AC1014
9
$HANDSEED
5
FFFF
0
ENDSEC
0
SECTION
2
TABLES
0
TABLE
2
VPORT
5
8
100
AcDbSymbolTable
0
ENDTAB
0
TABLE
2
LTYPE
5
5
100
AcDbSymbolTable
0
LTYPE
5
14
100
AcDbSymbolTableRecord
100
AcDbLinetypeTableRecord
2
BYBLOCK
70
0
0
LTYPE
5
15
100
AcDbSymbolTableRecord
100
AcDbLinetypeTableRecord
2
BYLAYER
70
0
0
LTYPE
5
16
100
AcDbSymbolTableRecord
100
AcDbLinetypeTableRecord
2
DASHED
70
0
3
Dashed __ __ __ __ __ __ __ __ __ __ __ __ __ _
72
65
73
2
40
0.75
49
0.5
74
0
49
-0.25
74
0
0
ENDTAB
0
TABLE
2
LAYER
5
2
100
AcDbSymbolTable
70
2
0
LAYER
5
50
100
AcDbSymbolTableRecord
100
AcDbLayerTableRecord
2
0
70
0
62
7
6
CONTINUOUS
0
ENDTAB
0
TABLE
2
STYLE
5
3
100
AcDbSymbolTable
70
1
0
STYLE
5
11
100
AcDbSymbolTableRecord
100
AcDbTextStyleTableRecord
2
STANDARD
70
0
0
ENDTAB
0
TABLE
2
VIEW
5
6
100
AcDbSymbolTable
70
0
0
ENDTAB
0
TABLE
2
UCS
5
7
100
AcDbSymbolTable
70
0
0
ENDTAB
0
TABLE
2
APPID
5
9
100
AcDbSymbolTable
70
2
0
APPID
5
12
100
AcDbSymbolTableRecord
100
AcDbRegAppTableRecord
2
ACAD
70
0
0
ENDTAB
0
TABLE
2
DIMSTYLE
5
A
100
AcDbSymbolTable
70
1
0
ENDTAB
0
TABLE
2
BLOCK_RECORD
5
1
100
AcDbSymbolTable
70
1
0
BLOCK_RECORD
5
1F
100
AcDbSymbolTableRecord
100
AcDbBlockTableRecord
2
*MODEL_SPACE
0
BLOCK_RECORD
5
1B
100
AcDbSymbolTableRecord
100
AcDbBlockTableRecord
2
*PAPER_SPACE
0
ENDTAB
0
ENDSEC
0
SECTION
2
BLOCKS
0
BLOCK
5
20
100
AcDbEntity
100
AcDbBlockBegin
2
*MODEL_SPACE
0
ENDBLK
5
21
100
AcDbEntity
100
AcDbBlockEnd
0
BLOCK
5
1C
100
AcDbEntity
100
AcDbBlockBegin
2
*PAPER_SPACE
0
ENDBLK
5
1D
100
AcDbEntity
100
AcDbBlockEnd
0
ENDSEC
0
SECTION
2
ENTITIES
0
LWPOLYLINE
5
100
100
AcDbEntity
8
0
100
AcDbPolyline
90
23
70
1
43
0.0
10
-105.3685414711458
20
-14.654439526962726
10
-105.36854147114573
20
-22.255339526925013
42
-0.41662887630312068
10
-106.80544844054053
20
-23.680375824015684
10
-107.19758147114574
20
-23.680379526962732
42
0.31268113368330563
10
-108.81279147139294
20
-24.799939527622442
42
-0.31265464049187242
10
-110.56848147097159
20
-26.016851816436986
10
-132.31933147110988
20
-26.016849843962163
42
-0.31269366156760187
10
-134.07516211080826
20
-24.799929766822583
42
0.31268021564693654
10
-135.69033147114564
20
-23.680379526962774
10
-136.09443147107359
20
-23.680379526962724
42
-0.41421109590997318
10
-137.5194214711878
20
-22.25537952702399
10
-137.51942152926901
20
-14.654639526970321
42
-0.41669298652265463
10
-136.0823944711457
20
-13.229499526962735
10
-135.22883147114567
20
-13.229499526962734
10
-135.22883147114567
20
-13.2294875269627
42
0.3056393278421104
10
-134.36814129678692
20
-12.6492195974478
42
-0.30564902910975961
10
-133.37153147114572
20
-11.977350526962722
10
-133.37153147114572
20
-11.977339526962716
10
-109.51633147117077
20
-11.977339526962769
42
-0.30560868445813344
10
-108.51981979288399
20
-12.649218848152939
42
0.30560633103328882
10
-107.65913147141545
20
-13.229509376390897
10
-106.79353147110989
20
-13.22949952696275
42
-0.41421870106895758
10
-105.36856647092637
20
-14.654439526962747
0
LWPOLYLINE
5
101
100
AcDbEntity
8
0
100
AcDbPolyline
90
12
70
1
43
0.0
10
90.059343499771032
20
-21.005009776997134
10
90.059343499770989
20
-15.505009776997127
42
-0.41421356237309503
10
90.559343499771003
20
-15.00500977699712
10
91.059343499771046
20
-15.005009776997102
42
-0.4142135623730846
10
91.559343499771074
20
-15.50500977699711
10
91.559343499771018
20
-21.005009776997134
42
0.41421356237307422
10
92.059343499770989
20
-21.505009776997106
10
94.559343499770989
20
-21.505009776997106
42
-0.4142135623730846
10
95.059343499770989
20
-22.005009776997095
10
95.059343499770989
20
-22.50500977699712
42
-0.4142135623730846
10
94.559343499771003
20
-23.005009776997127
10
92.059343499770989
20
-23.005009776997056
42
-0.41421356237308982
0
LWPOLYLINE
5
102
100
AcDbEntity
8
0
100
AcDbPolyline
90
8
70
1
43
0.0
10
102.59996849977156
20
43.1199904730029
10
102.59996849977159
20
33.16999047300289
42
-0.41421356237309503
10
100.5249684997716
20
31.094990473002891
10
89.974968499771563
20
31.094990473002895
42
-0.41421356237309503
10
87.899968499771575
20
33.16999047300289
10
87.899968499771575
20
43.1199904730029
42
-0.41421356237309503
10
89.974968499771563
20
45.194990473002903
10
100.5249684997716
20
45.194990473002861
42
-0.41421356237309503
0
LWPOLYLINE
5
103
100
AcDbEntity
8
0
100
AcDbPolyline
90
8
70
1
43
0.0
10
26.399968499771592
20
43.1199904730029
10
26.399968499771596
20
33.169990473002855
42
-0.41421356237309503
10
24.324968499771597
20
31.094990473002856
10
13.774968499771582
20
31.094990473002859
42
-0.41421356237309503
10
11.699968499771586
20
33.169990473002855
10
11.699968499771579
20
43.1199904730029
42
-0.41421356237309004
10
13.774968499771582
20
45.194990473002868
10
24.324968499771597
20
45.194990473002861
42
-0.41421356237309004
0
LWPOLYLINE
5
104
100
AcDbEntity
8
0
100
AcDbPolyline
90
8
70
1
43
0.0
10
-49.800031500228421
20
43.1199904730029
10
-49.800031500228442
20
33.169990473002855
42
-0.41421356237309503
10
-51.875031500228431
20
31.094990473002856
10
-62.4250315002284
20
31.094990473002852
42
-0.41421356237309759
10
-64.500031500228417
20
33.169990473002855
10
-64.500031500228431
20
43.119990473002865
42
-0.41421356237309503
10
-62.425031500228428
20
45.194990473002868
10
-51.875031500228417
20
45.194990473002875
42
-0.41421356237308754
0
LWPOLYLINE
5
105
100
AcDbEntity
8
0
100
AcDbPolyline
90
8
70
1
43
0.0
10
-126.00003150022842
20
43.119990473002865
10
-126.00003150022842
20
33.169990473002855
42
-0.41421356237309503
10
-128.07503150022842
20
31.094990473002856
10
-138.62503150031665
20
31.094990473002841
42
-0.41421384465506234
10
-140.70003150022842
20
33.169990472914577
10
-140.70003150022842
20
43.11999047309115
42
-0.41421384465505351
10
-138.62503150031668
20
45.194990473002846
10
-128.07503150022842
20
45.194990473002825
42
-0.41421356237309004
0
LWPOLYLINE
5
106
100
AcDbEntity
8
0
100
AcDbPolyline
90
8
70
1
43
0.0
10
-97.4250315002284
20
24.069990473002854
10
-97.425031500228428
20
14.119990473002844
42
-0.41421356237309503
10
-99.500031500228431
20
12.044990473002844
10
-110.05003150022843
20
12.044990473002848
42
-0.41421356237309503
10
-112.12503150022842
20
14.119990473002844
10
-112.12503150022842
20
24.069990473002854
42
-0.41421356237309503
10
-110.05003150022843
20
26.144990473002853
10
-99.500031500228388
20
26.144990473002885
42
-0.41421356237309004
0
LWPOLYLINE
5
107
100
AcDbEntity
8
0
100
AcDbPolyline
90
8
70
1
43
0.0
10
-59.325031500228448
20
24.069990473002889
10
-59.325031500228405
20
14.119990473002879
42
-0.41421356237309503
10
-61.400031500228408
20
12.04499047300288
10
-71.950031500228405
20
12.044990473002848
42
-0.41421356237309503
10
-74.025031500228394
20
14.119990473002844
10
-74.025031500228394
20
24.069990473002854
42
-0.41421356237309503
10
-71.950031500228405
20
26.144990473002853
10
-61.400031500228408
20
26.144990473002849
42
-0.41421356237309503
0
LWPOLYLINE
5
108
100
AcDbEntity
8
0
100
AcDbPolyline
90
8
70
1
43
0.0
10
-21.22503150022844
20
24.069990473002889
10
-21.225031500228408
20
14.119990473002879
42
-0.41421356237309503
10
-23.300031500228407
20
12.04499047300288
10
-33.85003150022839
20
12.044990473002883
42
-0.41421356237309759
10
-35.9250315002284
20
14.119990473002879
10
-35.925031500228407
20
24.069990473002889
42
-0.41421356237309503
10
-33.850031500228404
20
26.144990473002888
10
-23.3000315002284
20
26.144990473002867
42
-0.41421356237309254
0
LWPOLYLINE
5
109
100
AcDbEntity
8
0
100
AcDbPolyline
90
8
70
1
43
0.0
10
16.87496849977159
20
24.069990473002889
10
16.874968499771597
20
14.119990473002879
42
-0.41421356237309503
10
14.799968499771596
20
12.04499047300288
10
4.2499684997715814
20
12.044990473002883
42
-0.41421356237309503
10
2.1749684997715857
20
14.119990473002879
10
2.1749684997715812
20
24.069990473002889
42
-0.41421356237309503
10
4.2499684997715814
20
26.144990473002888
10
14.799968499771591
20
26.144990473002885
42
-0.4142135623730957
0
LWPOLYLINE
5
110
100
AcDbEntity
8
0
100
AcDbPolyline
90
8
70
1
43
0.0
10
59.737468499771616
20
5.0199904730028777
10
59.737468499771595
20
-4.9300095269970967
42
-0.41421356237309503
10
57.662468499771585
20
-7.0050095269971013
10
47.112468499771587
20
-7.0050095269970925
42
-0.41421356237309503
10
45.037468499771592
20
-4.9300095269970967
10
45.037468499771585
20
5.0199904730028777
42
-0.41421356237309503
10
47.112468499771587
20
7.0949904730028779
10
57.662468499771585
20
7.094990473002909
42
-0.41421356237309503
0
LWPOLYLINE
5
111
100
AcDbEntity
8
0
100
AcDbPolyline
90
8
70
1
43
0.0
10
97.837468499771603
20
5.0199904730028777
10
97.837468499771603
20
-4.9300095269970967
42
-0.41421356237309503
10
95.7624684997716
20
-7.0050095269971013
10
85.212468499771603
20
-7.0050095269970925
42
-0.41421356237309503
10
83.137468499771614
20
-4.9300095269970967
10
83.137468499771614
20
5.0199904730028777
42
-0.41421356237309503
10
85.212468499771603
20
7.0949904730028779
10
95.7624684997716
20
7.0949904730028734
42
-0.41421356237309503
0
LWPOLYLINE
5
112
100
AcDbEntity
8
0
100
AcDbPolyline
90
8
70
1
43
0.0
10
114.50621849977156
20
-14.030009526997134
10
114.50621849977156
20
-23.980009526997108
42
-0.41421356237309503
10
112.43121849977157
20
-26.055009526997111
10
101.88121849977158
20
-26.055009526998347
42
-0.4142128566071559
10
99.806218499771575
20
-23.98001052699712
10
99.806218499769415
20
-14.030009526997134
42
-0.4142122919958936
10
101.88121749977159
20
-11.955009526997111
10
112.43121849977157
20
-11.955009526997138
42
-0.41421356237309503
0
LWPOLYLINE
5
113
100
AcDbEntity
8
0
100
AcDbPolyline
90
8
70
1
43
0.0
10
31.162468499771563
20
-14.030009526997134
10
31.162468499771599
20
-23.980009526997108
42
-0.41421356237309503
10
29.087468499771603
20
-26.055009526997104
10
18.537468499771578
20
-26.055009526997104
42
-0.41421356237309503
10
16.462468499771582
20
-23.980009526997108
10
16.462468499771571
20
-14.030009526997134
42
-0.41421356237309503
10
18.537468499771574
20
-11.955009526997129
10
29.087468499771603
20
-11.955009526997173
42
-0.41421356237309503
0
LWPOLYLINE
5
114
100
AcDbEntity
8
0
100
AcDbPolyline
90
8
70
1
43
0.0
10
-45.037531500228397
20
-14.030009526997134
10
-45.03753150022844
20
-23.980009526997108
42
-0.41421356237309503
10
-47.112531500228428
20
-26.055009526997104
10
-57.662531500228397
20
-26.055009526997111
42
-0.41421356237309759
10
-59.737531500228414
20
-23.980009526997108
10
-59.737531500228414
20
-14.030009526997134
42
-0.41421356237309503
10
-57.662531500228411
20
-11.955009526997129
10
-47.1125315002284
20
-11.955009526997102
42
-0.41421356237309004
0
LWPOLYLINE
5
115
100
AcDbEntity
8
0
100
AcDbPolyline
90
8
70
1
43
0.0
10
-64.087531500228408
20
-14.030009526997134
10
-64.087531500228408
20
-23.980009526997108
42
-0.41421356237309503
10
-66.162531500228411
20
-26.055009526997104
10
-76.712531500228408
20
-26.055009526997104
42
-0.41421356237309503
10
-78.787531500228397
20
-23.980009526997108
10
-78.787531500228411
20
-14.030009526997134
42
-0.41421356237309503
10
-76.712531500228408
20
-11.955009526997129
10
-66.162531500228411
20
-11.955009526997138
42
-0.41421356237309503
0
LWPOLYLINE
5
116
100
AcDbEntity
8
0
100
AcDbPolyline
90
8
70
1
43
0.0
10
12.112468499771589
20
-14.030009526997134
10
12.112468499771577
20
-23.980009526997108
42
-0.41421356237309503
10
10.037468499771581
20
-26.055009526997104
10
-0.512531500228399
20
-26.055009526997104
42
-0.4142135623730957
10
-2.5875315002283994
20
-23.980009526997108
10
-2.5875315002284083
20
-14.030009526997134
42
-0.41421356237309503
10
-0.51253150022840388
20
-11.955009526997129
10
10.037468499771576
20
-11.95500952699712
42
-0.41421356237309503
0
LWPOLYLINE
5
117
100
AcDbEntity
8
0
100
AcDbPolyline
90
8
70
1
43
0.0
10
88.312468499771597
20
-14.030009526997134
10
88.312468499771597
20
-23.980009526997108
42
-0.41421356237309503
10
86.237468499771595
20
-26.055009526997104
10
75.687468499771612
20
-26.055009526997104
42
-0.41421356237309503
10
73.612468499771609
20
-23.980009526997108
10
73.612468499771609
20
-14.030009526997134
42
-0.41421356237309503
10
75.687468499771612
20
-11.955009526997129
10
86.237468499771595
20
-11.955009526997138
42
-0.41421356237309503
0
LWPOLYLINE
5
118
100
AcDbEntity
8
0
100
AcDbPolyline
90
8
70
1
43
0.0
10
112.12496849977157
20
24.069990473002889
10
112.1249684997716
20
14.119990473002915
42
-0.41421356237309503
10
110.04996849977161
20
12.044990473002915
10
99.499968499771569
20
12.044990473002919
42
-0.41421356237309503
10
97.42496849977158
20
14.119990473002915
10
97.42496849977158
20
24.069990473002889
42
-0.41421356237309503
10
99.499968499771569
20
26.144990473002888
10
110.04996849977161
20
26.144990473002849
42
-0.41421356237309503
0
LWPOLYLINE
5
119
100
AcDbEntity
8
0
100
AcDbPolyline
90
8
70
1
43
0.0
10
74.024968499771589
20
24.069990473002889
10
74.024968499771603
20
14.119990473002879
42
-0.41421356237309503
10
71.9499684997716
20
12.04499047300288
10
61.399968499771596
20
12.044990473002883
42
-0.41421356237309503
10
59.3249684997716
20
14.119990473002879
10
59.324968499771593
20
24.069990473002889
42
-0.41421356237309503
10
61.399968499771596
20
26.144990473002888
10
71.9499684997716
20
26.144990473002885
42
-0.41421356237309503
0
LWPOLYLINE
5
120
100
AcDbEntity
8
0
100
AcDbPolyline
90
8
70
1
43
0.0
10
35.924968499771602
20
24.069990473002889
10
35.924968499771573
20
14.119990473002879
42
-0.41421356237309503
10
33.84996849977157
20
12.04499047300288
10
23.299968499771595
20
12.044990473002883
42
-0.41421356237309503
10
21.224968499771599
20
14.119990473002879
10
21.224968499771592
20
24.069990473002889
42
-0.41421356237309503
10
23.299968499771595
20
26.144990473002888
10
33.84996849977157
20
26.14499047300292
42
-0.41421356237309503
0
LWPOLYLINE
5
121
100
AcDbEntity
8
0
100
AcDbPolyline
90
8
70
1
43
0.0
10
2.5874684997715836
20
5.0199904730028777
10
2.5874684997716102
20
-4.9300095269970967
42
-0.41421356237309503
10
0.5124684997716058
20
-7.0050095269971013
10
-10.037531500228409
20
-7.0050095269970925
42
-0.41421356237309503
10
-12.112531500228405
20
-4.9300095269970967
10
-12.11253150022841
20
5.0199904730028777
42
-0.41421356237309503
10
-10.037531500228409
20
7.0949904730028779
10
0.51246849977160547
20
7.0949904730028557
42
-0.41421356237309503
0
LWPOLYLINE
5
122
100
AcDbEntity
8
0
100
AcDbPolyline
90
8
70
1
43
0.0
10
-35.512531500228405
20
5.0199904730028777
10
-35.512531500228413
20
-4.9300095269970967
42
-0.41421356237309503
10
-37.587531500228415
20
-7.0050095269971013
10
-48.13753150022842
20
-7.0050095269970925
42
-0.41421356237309503
10
-50.212531500228422
20
-4.9300095269970967
10
-50.212531500228422
20
5.0199904730028777
42
-0.41421356237309503
10
-48.13753150022842
20
7.0949904730028779
10
-37.587531500228401
20
7.0949904730028912
42
-0.41421356237309254
0
LWPOLYLINE
5
123
100
AcDbEntity
8
0
100
AcDbPolyline
90
8
70
1
43
0.0
10
-73.612531500228414
20
5.0199904730028777
10
-73.612531500228414
20
-4.9300095269971322
42
-0.41421356237309503
10
-75.687531500228417
20
-7.0050095269971369
10
-86.237531500228414
20
-7.005009526997128
42
-0.41421356237309503
10
-88.312531500228403
20
-4.9300095269971322
10
-88.312531500228403
20
5.0199904730028777
42
-0.41421356237309503
10
-86.237531500228414
20
7.0949904730028779
10
-75.687531500228417
20
7.0949904730028734
42
-0.41421356237309503
0
LWPOLYLINE
5
124
100
AcDbEntity
8
0
100
AcDbPolyline
90
8
70
1
43
0.0
10
-118.85628150022841
20
5.0199904730028777
10
-118.85628150022841
20
-4.9300095269971322
42
-0.41421356237309503
10
-120.93128150022841
20
-7.005009526997128
10
-131.48128150022839
20
-7.0050095269983501
42
-0.41421285660716078
10
-133.55628150022841
20
-4.9300105269971448
10
-133.5562815002306
20
5.0199904730028777
42
-0.41421229199588605
10
-131.48128250022842
20
7.094990473002861
10
-120.93128150022841
20
7.0949904730028734
42
-0.41421356237309503
0
LWPOLYLINE
5
125
100
AcDbEntity
8
0
100
AcDbPolyline
90
8
70
1
43
0.0
10
-68.850031500228425
20
43.119990473002865
10
-68.850031500228411
20
33.169990473002855
42
-0.41421356237309503
10
-70.925031500228414
20
31.094990473002856
10
-81.475031500228411
20
31.094990473002859
42
-0.41421356237309503
10
-83.5500315002284
20
33.169990473002855
10
-83.550031500228414
20
43.119990473002865
42
-0.41421356237309004
10
-81.475031500228411
20
45.194990473002832
10
-70.925031500228414
20
45.194990473002804
42
-0.41421356237309004
0
LWPOLYLINE
5
126
100
AcDbEntity
8
0
100
AcDbPolyline
90
8
70
1
43
0.0
10
7.349968499771582
20
43.1199904730029
10
7.3499684997715864
20
33.169990473002855
42
-0.41421356237309503
10
5.2749684997715862
20
31.094990473002856
10
-5.2750315002284331
20
31.094990473002859
42
-0.41421356237309503
10
-7.3500315002284289
20
33.169990473002855
10
-7.3500315002284378
20
43.1199904730029
42
-0.41421356237309004
10
-5.2750315002284331
20
45.194990473002868
10
5.2749684997715862
20
45.194990473002861
42
-0.41421356237309004
0
LWPOLYLINE
5
127
100
AcDbEntity
8
0
100
AcDbPolyline
90
8
70
1
43
0.0
10
83.54996849977158
20
43.1199904730029
10
83.54996849977158
20
33.16999047300289
42
-0.41421356237310003
10
81.474968499771592
20
31.094990473002856
10
70.924968499771609
20
31.094990473002859
42
-0.41421356237309503
10
68.849968499771606
20
33.169990473002855
10
68.849968499771592
20
43.1199904730029
42
-0.41421356237309004
10
70.924968499771595
20
45.194990473002868
10
81.474968499771592
20
45.194990473002861
42
-0.41421356237309004
0
LWPOLYLINE
5
128
100
AcDbEntity
8
0
100
AcDbPolyline
90
8
70
1
43
0.0
10
119.57496849977163
20
31.094990473002895
10
109.02496849977157
20
31.094990473003136
42
-0.4142137035265252
10
106.94996849977159
20
33.169989473002914
10
106.94996849977186
20
43.1199904730029
42
-0.41421370352653025
10
109.02496749977161
20
45.194990473002917
10
119.57496849977163
20
45.194990473002896
42
-0.41421356237309503
10
121.64996849977163
20
43.1199904730029
10
121.64996849977163
20
33.16999047300289
42
-0.41421356237309503
0
LWPOLYLINE
5
129
100
AcDbEntity
8
0
100
AcDbPolyline
90
8
70
1
43
0.0
10
45.4499684997716
20
43.1199904730029
10
45.449968499771565
20
33.169990473002855
42
-0.41421356237309503
10
43.374968499771569
20
31.094990473002856
10
32.824968499771614
20
31.094990473002859
42
-0.41421356237309503
10
30.749968499771615
20
33.169990473002855
10
30.749968499771608
20
43.1199904730029
42
-0.41421356237309004
10
32.824968499771614
20
45.194990473002868
10
43.374968499771569
20
45.194990473002896
42
-0.41421356237309004
0
LWPOLYLINE
5
130
100
AcDbEntity
8
0
100
AcDbPolyline
90
8
70
1
43
0.0
10
-30.750031500228445
20
43.1199904730029
10
-30.750031500228395
20
33.169990473002855
42
-0.41421356237309503
10
-32.825031500228398
20
31.094990473002856
10
-43.375031500228388
20
31.094990473002859
42
-0.41421356237310003
10
-45.45003150022842
20
33.169990473002855
10
-45.450031500228427
20
43.1199904730029
42
-0.41421356237309004
10
-43.375031500228417
20
45.194990473002868
10
-32.825031500228405
20
45.194990473002825
42
-0.41421356237309004
0
LWPOLYLINE
5
131
100
AcDbEntity
8
0
100
AcDbPolyline
90
8
70
1
43
0.0
10
-106.95003150022841
20
43.119990473002865
10
-106.95003150022841
20
33.169990473002855
42
-0.41421356237309503
10
-109.02503150022839
20
31.094990473002856
10
-119.57503150022839
20
31.094990473002859
42
-0.41421356237310003
10
-121.65003150022842
20
33.169990473002855
10
-121.65003150022844
20
43.119990473002865
42
-0.41421356237309004
10
-119.57503150022843
20
45.194990473002832
10
-109.02503150022839
20
45.194990473002825
42
-0.41421356237309004
0
LWPOLYLINE
5
132
100
AcDbEntity
8
0
100
AcDbPolyline
90
8
70
1
43
0.0
10
-92.662531500228397
20
5.0199904730028777
10
-92.662531500228411
20
-4.9300095269971322
42
-0.41421356237309503
10
-94.737531500228428
20
-7.0050095269971369
10
-105.28753150022843
20
-7.005009526997128
42
-0.41421356237309498
10
-107.36253150022841
20
-4.9300095269971331
10
-107.36253150022841
20
5.0199904730028777
42
-0.41421356237309503
10
-105.28753150022843
20
7.0949904730028779
10
-94.737531500228428
20
7.094990473002909
42
-0.41421356237309503
0
LWPOLYLINE
5
133
100
AcDbEntity
8
0
100
AcDbPolyline
90
8
70
1
43
0.0
10
-54.562531500228403
20
5.0199904730028777
10
-54.562531500228431
20
-4.9300095269970967
42
-0.41421356237309503
10
-56.637531500228434
20
-7.0050095269971013
10
-67.187531500228403
20
-7.0050095269971369
42
-0.41421356237309748
10
-69.26253150022842
20
-4.9300095269971331
10
-69.26253150022842
20
5.0199904730028777
42
-0.41421356237309503
10
-67.187531500228417
20
7.0949904730028779
10
-56.637531500228434
20
7.094990473002909
42
-0.41421356237309503
0
LWPOLYLINE
5
134
100
AcDbEntity
8
0
100
AcDbPolyline
90
8
70
1
43
0.0
10
-16.462531500228408
20
5.0199904730028777
10
-16.462531500228401
20
-4.9300095269970967
42
-0.41421356237309503
10
-18.537531500228404
20
-7.0050095269971013
10
-29.087531500228387
20
-7.0050095269970925
42
-0.41421356237309748
10
-31.162531500228397
20
-4.9300095269970976
10
-31.162531500228404
20
5.0199904730028777
42
-0.41421356237309503
10
-29.087531500228401
20
7.0949904730028779
10
-18.537531500228404
20
7.0949904730028734
42
-0.41421356237309503
0
LWPOLYLINE
5
135
100
AcDbEntity
8
0
100
AcDbPolyline
90
8
70
1
43
0.0
10
21.637468499771593
20
5.0199904730028777
10
21.637468499771586
20
-4.9300095269970967
42
-0.41421356237309503
10
19.562468499771583
20
-7.0050095269971013
10
9.012468499771602
20
-7.0050095269970925
42
-0.41421356237309503
10
6.9374684997716063
20
-4.9300095269970967
10
6.9374684997716018
20
5.0199904730028777
42
-0.41421356237309503
10
9.012468499771602
20
7.0949904730028779
10
19.562468499771583
20
7.0949904730028912
42
-0.41421356237309503
0
LWPOLYLINE
5
136
100
AcDbEntity
8
0
100
AcDbPolyline
90
8
70
1
43
0.0
10
54.974968499771578
20
24.069990473002889
10
54.974968499771592
20
14.119990473002879
42
-0.41421356237309503
10
52.899968499771582
20
12.04499047300288
10
42.349968499771585
20
12.044990473002883
42
-0.41421356237309503
10
40.274968499771589
20
14.119990473002879
10
40.274968499771582
20
24.069990473002889
42
-0.41421356237309503
10
42.349968499771578
20
26.144990473002888
10
52.899968499771582
20
26.144990473002885
42
-0.41421356237309503
0
LWPOLYLINE
5
137
100
AcDbEntity
8
0
100
AcDbPolyline
90
8
70
1
43
0.0
10
93.074968499771586
20
24.069990473002889
10
93.074968499771586
20
14.119990473002915
42
-0.41421356237309503
10
90.999968499771597
20
12.044990473002915
10
80.4499684997716
20
12.044990473002883
42
-0.41421356237309503
10
78.374968499771597
20
14.119990473002879
10
78.374968499771597
20
24.069990473002889
42
-0.41421356237309503
10
80.4499684997716
20
26.144990473002888
10
90.999968499771597
20
26.144990473002885
42
-0.41421356237309503
0
LWPOLYLINE
5
138
100
AcDbEntity
8
0
100
AcDbPolyline
90
8
70
1
43
0.0
10
140.69996849977161
20
-14.030009526997134
10
140.69996849977167
20
-23.980009526997108
42
-0.41421356237309503
10
138.62496849977165
20
-26.055009526997111
10
128.07496849977161
20
-26.055009526998312
42
-0.4142128566071609
10
125.99996849977161
20
-23.98001052699712
10
125.99996849976945
20
-14.030009526997134
42
-0.4142122919958936
10
128.07496749977165
20
-11.955009526997111
10
138.62496849977165
20
-11.955009526997173
42
-0.41421356237309503
0
LWPOLYLINE
5
139
100
AcDbEntity
8
0
100
AcDbPolyline
90
8
70
1
43
0.0
10
50.212468499771575
20
-14.030009526997134
10
50.212468499771617
20
-23.980009526997108
42
-0.41421356237309503
10
48.137468499771629
20
-26.055009526997104
10
37.587468499771589
20
-26.055009526997104
42
-0.41421356237309503
10
35.512468499771593
20
-23.980009526997108
10
35.512468499771579
20
-14.030009526997134
42
-0.41421356237309503
10
37.587468499771582
20
-11.955009526997129
10
48.137468499771614
20
-11.955009526997173
42
-0.41421356237309503
0
LWPOLYLINE
5
140
100
AcDbEntity
8
0
100
AcDbPolyline
90
8
70
1
43
0.0
10
-25.987531500228435
20
-14.030009526997134
10
-25.987531500228407
20
-23.980009526997108
42
-0.41421356237309503
10
-28.062531500228403
20
-26.055009526997104
10
-38.612531500228393
20
-26.055009526997104
42
-0.41421356237309759
10
-40.687531500228403
20
-23.980009526997108
10
-40.687531500228417
20
-14.030009526997134
42
-0.41421356237309503
10
-38.612531500228407
20
-11.955009526997129
10
-28.062531500228395
20
-11.955009526997156
42
-0.41421356237309254
0
LWPOLYLINE
5
141
100
AcDbEntity
8
0
100
AcDbPolyline
90
8
70
1
43
0.0
10
-83.137531500228391
20
-14.030009526997134
10
-83.13753150022842
20
-23.980009526997108
42
-0.41421356237309503
10
-85.212531500228422
20
-26.055009526997104
10
-95.76253150022842
20
-26.055009526997104
42
-0.41421356237309503
10
-97.837531500228408
20
-23.980009526997108
10
-97.837531500228437
20
-14.030009526997134
42
-0.41421356237309503
10
-95.76253150022842
20
-11.955009526997129
10
-85.212531500228422
20
-11.955009526997102
42
-0.41421356237309503
0
LWPOLYLINE
5
142
100
AcDbEntity
8
0
100
AcDbPolyline
90
8
70
1
43
0.0
10
-6.9375315002284221
20
-14.030009526997134
10
-6.9375315002284044
20
-23.980009526997108
42
-0.41421356237309503
10
-9.0125315002284001
20
-26.055009526997104
10
-19.562531500228406
20
-26.055009526997104
42
-0.41421356237309503
10
-21.637531500228402
20
-23.980009526997108
10
-21.63753150022842
20
-14.030009526997134
42
-0.41421356237309503
10
-19.562531500228417
20
-11.955009526997129
10
-9.0125315002284001
20
-11.955009526997156
42
-0.41421356237309503
0
LWPOLYLINE
5
143
100
AcDbEntity
8
0
100
AcDbPolyline
90
8
70
1
43
0.0
10
69.262468499771629
20
-14.030009526997134
10
69.262468499771586
20
-23.980009526997108
42
-0.41421356237309503
10
67.187468499771597
20
-26.055009526997104
10
56.637468499771593
20
-26.055009526997104
42
-0.41421356237309503
10
54.562468499771597
20
-23.980009526997108
10
54.56246849977159
20
-14.030009526997134
42
-0.41421356237309503
10
56.637468499771593
20
-11.955009526997129
10
67.187468499771597
20
-11.955009526997102
42
-0.41421356237309503
0
LWPOLYLINE
5
144
100
AcDbEntity
8
0
100
AcDbPolyline
90
8
70
1
43
0.0
10
133.86246849977158
20
12.044990473002883
10
123.31246849977161
20
12.044990473002642
42
-0.4142134212197382
10
121.23746849977161
20
14.119989473002912
10
121.23746849977141
20
24.069990473002889
42
-0.41421342121974197
10
123.31246749977163
20
26.144990473002885
10
133.86246849977158
20
26.144990473002885
42
-0.41421356237309503
10
135.93746849977157
20
24.069990473002889
10
135.9374684997716
20
14.119990473002915
42
-0.41421356237309503
0
LWPOLYLINE
5
145
100
AcDbEntity
8
0
100
AcDbPolyline
90
8
70
1
43
0.0
10
78.787468499771592
20
5.0199904730028777
10
78.787468499771606
20
-4.9300095269970967
42
-0.41421356237309503
10
76.712468499771603
20
-7.0050095269971013
10
66.162468499771606
20
-7.0050095269970925
42
-0.41421356237309503
10
64.087468499771603
20
-4.9300095269970967
10
64.087468499771603
20
5.0199904730028777
42
-0.41421356237309503
10
66.162468499771606
20
7.0949904730028779
10
76.712468499771603
20
7.0949904730028734
42
-0.41421356237309503
0
LWPOLYLINE
5
146
100
AcDbEntity
8
0
100
AcDbPolyline
90
8
70
1
43
0.0
10
40.687468499771569
20
5.0199904730028777
10
40.687468499771612
20
-4.9300095269970967
42
-0.41421356237309503
10
38.612468499771609
20
-7.0050095269971013
10
28.062468499771576
20
-7.0050095269970925
42
-0.41421356237309503
10
25.98746849977158
20
-4.9300095269970967
10
25.987468499771577
20
5.0199904730028777
42
-0.41421356237309503
10
28.062468499771576
20
7.0949904730028779
10
38.612468499771609
20
7.0949904730028379
42
-0.41421356237309503
0
LWPOLYLINE
5
147
100
AcDbEntity
8
0
100
AcDbPolyline
90
8
70
1
43
0.0
10
-2.1750315002284015
20
24.069990473002889
10
-2.1750315002284148
20
14.119990473002879
42
-0.41421356237309503
10
-4.250031500228415
20
12.04499047300288
10
-14.800031500228412
20
12.044990473002883
42
-0.41421356237309503
10
-16.87503150022841
20
14.119990473002879
10
-16.87503150022842
20
24.069990473002889
42
-0.41421356237309503
10
-14.800031500228421
20
26.144990473002888
10
-4.250031500228415
20
26.144990473002903
42
-0.41421356237309503
0
LWPOLYLINE
5
148
100
AcDbEntity
8
0
100
AcDbPolyline
90
8
70
1
43
0.0
10
-40.275031500228408
20
24.069990473002889
10
-40.275031500228415
20
14.119990473002879
42
-0.41421356237309503
10
-42.350031500228418
20
12.04499047300288
10
-52.900031500228394
20
12.044990473002883
42
-0.41421356237310003
10
-54.975031500228425
20
14.119990473002879
10
-54.975031500228425
20
24.069990473002889
42
-0.41421356237309503
10
-52.900031500228422
20
26.144990473002888
10
-42.350031500228404
20
26.144990473002903
42
-0.41421356237309254
0
LWPOLYLINE
5
149
100
AcDbEntity
8
0
100
AcDbPolyline
90
8
70
1
43
0.0
10
-78.375031500228417
20
24.069990473002854
10
-78.375031500228417
20
14.119990473002844
42
-0.41421356237309503
10
-80.45003150022842
20
12.044990473002844
10
-91.000031500228417
20
12.044990473002848
42
-0.41421356237309503
10
-93.075031500228405
20
14.119990473002844
10
-93.075031500228405
20
24.069990473002854
42
-0.41421356237309503
10
-91.000031500228417
20
26.144990473002853
10
-80.45003150022842
20
26.144990473002849
42
-0.41421356237309503
0
LWPOLYLINE
5
150
100
AcDbEntity
8
0
100
AcDbPolyline
90
8
70
1
43
0.0
10
-121.23753150022841
20
24.069990473002854
10
-121.23753050022842
20
14.119990473002844
42
-0.41421356237309503
10
-123.3125315002284
20
12.044989473002845
10
-133.86253150022841
20
12.044990473002866
42
-0.41421356237309503
10
-135.93753050022841
20
14.119989473002867
10
-135.93753050022841
20
24.069991473002865
42
-0.41421356237309503
10
-133.86253150022841
20
26.144990473002867
10
-123.3125315002284
20
26.144990473002849
42
-0.41421356237309503
0
LWPOLYLINE
5
151
100
AcDbEntity
8
0
100
AcDbPolyline
90
8
70
1
43
0.0
10
-87.900031500228394
20
43.119990473002865
10
-87.900031500228422
20
33.169990473002855
42
-0.41421356237309503
10
-89.975031500228425
20
31.094990473002856
10
-100.52503150022842
20
31.094990473002859
42
-0.41421356237309503
10
-102.60003150022841
20
33.169990473002855
10
-102.60003150022843
20
43.119990473002865
42
-0.41421356237309004
10
-100.52503150022842
20
45.194990473002832
10
-89.975031500228425
20
45.194990473002861
42
-0.41421356237309004
0
LWPOLYLINE
5
152
100
AcDbEntity
8
0
100
AcDbPolyline
90
8
70
1
43
0.0
10
-11.700031500228416
20
43.1199904730029
10
-11.700031500228413
20
33.169990473002855
42
-0.41421356237309503
10
-13.775031500228412
20
31.094990473002856
10
-24.325031500228391
20
31.094990473002859
42
-0.41421356237309759
10
-26.400031500228405
20
33.169990473002855
10
-26.400031500228415
20
43.1199904730029
42
-0.41421356237309004
10
-24.325031500228409
20
45.194990473002868
10
-13.775031500228412
20
45.194990473002861
42
-0.41421356237309004
0
LWPOLYLINE
5
153
100
AcDbEntity
8
0
100
AcDbPolyline
90
8
70
1
43
0.0
10
64.499968499771569
20
43.1199904730029
10
64.499968499771597
20
33.169990473002855
42
-0.41421356237309503
10
62.424968499771587
20
31.094990473002856
10
51.87496849977159
20
31.094990473002859
42
-0.41421356237309503
10
49.799968499771595
20
33.169990473002855
10
49.79996849977158
20
43.1199904730029
42
-0.41421356237309004
10
51.874968499771583
20
45.194990473002868
10
62.42496849977158
20
45.194990473002861
42
-0.41421356237309004
0
LWPOLYLINE
5
154
100
AcDbEntity
8
0
100
AcDbPolyline
90
8
70
1
43
0.0
10
138.62496849977165
20
31.094990473002895
10
128.07496849977161
20
31.094990473003136
42
-0.4142137035265252
10
125.99996849977161
20
33.169989473002914
10
125.99996849977188
20
43.1199904730029
42
-0.41421370352653025
10
128.07496749977165
20
45.194990473002917
10
138.62496849977165
20
45.194990473002896
42
-0.41421356237309503
10
140.69996849977164
20
43.1199904730029
10
140.69996849977164
20
33.16999047300289
42
-0.41421356237309503
0
LWPOLYLINE
5
155
100
AcDbEntity
8
0
100
AcDbPolyline
90
56
70
1
43
0.0
10
94.77499999999506
20
-45.554999999401389
10
94.775000000004155
20
-32.194999999489937
42
-0.41421356237309503
10
96.774999999993241
20
-30.194999999500851
10
140.64999999999597
20
-30.194999999500851
42
0.41421356237309503
10
142.65000000000325
20
-28.194999999493575
10
142.64999999999415
20
45.145000000504751
42
0.41421356235910983
10
140.65000000009147
20
47.145000000502932
10
137.54999999979643
20
47.14500000050748
42
-0.41421356237309503
10
136.54999999979734
20
48.14500000050657
10
136.54999999979734
20
52.475000000006276
42
0.41421356237309503
10
135.54999999979825
20
53.475000000005366
10
131.15000000019333
20
53.474999999991724
42
0.41421356237309503
10
130.15000000020788
20
52.475000000006276
10
130.15000000019879
20
48.14500000050657
42
-0.41421356237309503
10
129.15000000019515
20
47.145000000502932
10
4.1999999997960558
20
47.145000000502932
42
-0.4142135623730937
10
3.1999999997924222
20
48.14500000050657
10
3.1999999997924222
20
52.475000000006276
42
0.41421356237309503
10
2.1999999997933317
20
53.475000000005366
10
-2.1999999997979458
20
53.474999999991724
42
0.41421356237309503
10
-3.1999999997833939
20
52.475000000006276
10
-3.1999999997970363
20
48.14500000050657
42
-0.41421356237309503
10
-4.1999999998006743
20
47.145000000502932
10
-129.15000000000421
20
47.14500000050748
42
-0.41421356237309503
10
-130.1500000000033
20
48.14500000050657
10
-130.1500000000033
20
52.475000000006276
42
0.41421356237309503
10
-131.15000000000239
20
53.475000000005366
10
-135.55000000000749
20
53.474999999991724
42
0.41421356237309503
10
-136.54999999999293
20
52.475000000006276
10
-136.55000000000203
20
48.14500000050657
42
-0.41421356237309503
10
-137.55000000000567
20
47.145000000502932
10
-140.65000000010517
20
47.145000000502932
42
0.41421356235844387
10
-142.6500000000033
20
45.145000000504751
10
-142.6500000000033
20
-28.194999999493611
42
0.41421356237309503
10
-140.65000000000512
20
-30.194999999491792
10
-115.82500000000438
20
-30.194999999487209
42
-0.41421356237309503
10
-113.82500000000165
20
-32.194999999489937
10
-113.82500000000165
20
-45.554999999401389
42
0.41421356237309503
10
-111.82500000000347
20
-47.55499999939957
10
-85.162500000205924
20
-47.554999999395022
42
-0.41421356237309503
10
-84.162500000206833
20
-48.554999999394113
10
-84.162500000206833
20
-52.475000000001728
42
0.41421356237309503
10
-83.162500000203195
20
-53.475000000005366
10
-78.762499999802472
20
-53.475000000005366
42
0.41421356237309503
10
-77.762499999798834
20
-52.475000000001728
10
-77.762499999807929
20
-48.554999999394113
42
-0.41421356237309503
10
-76.762499999804291
20
-47.554999999390475
10
57.712499999793167
20
-47.554999999390475
42
-0.41421356237309503
10
58.712499999796805
20
-48.554999999394113
10
58.712499999796805
20
-52.475000000001728
42
0.41421356237309503
10
59.712499999795895
20
-53.475000000000819
10
64.112500000196619
20
-53.475000000005366
42
0.41421356237309503
10
65.112500000200257
20
-52.475000000001728
10
65.112500000191162
20
-48.554999999394113
42
-0.41421356237309503
10
66.1125000001948
20
-47.554999999390475
10
92.774999999996879
20
-47.554999999390475
42
0.41421356237309503
0
LWPOLYLINE
5
156
100
AcDbEntity
8
0
100
AcDbPolyline
90
8
70
1
43
0.0
10
78.374968499771626
20
-43.033929406984072
42
0.41366727286152066
10
80.449968499522143
20
-45.105002193544415
10
91.014198615477369
20
-45.105009526997151
42
0.41220481992709879
10
93.074968499771629
20
-43.030009526997119
10
93.074968499771586
20
-33.08000952699711
42
0.41421356237309503
10
90.999968499771597
20
-31.005009526997114
10
80.4499684997716
20
-31.00500952699711
42
0.41421356237309503
10
78.374968499771612
20
-33.08000952699711
0
LWPOLYLINE
5
157
100
AcDbEntity
8
0
100
AcDbPolyline
90
8
70
1
43
0.0
10
-63.950031500228405
20
-43.932836289691721
42
0.41345691928620254
10
-62.875031500688905
20
-45.005002193433327
10
-51.414797441573654
20
-45.005009526997064
42
0.41142498802481575
10
-50.350031500228397
20
-43.930009526997154
10
-50.350031500228418
20
-32.180009526997111
42
0.41421356237309503
10
-51.425031500228414
20
-31.105009526997129
10
-62.875031500228417
20
-31.105009526997112
42
0.41421356237309503
10
-63.950031500228413
20
-32.180009526997111
0
LWPOLYLINE
5
158
100
AcDbEntity
8
0
100
AcDbPolyline
90
8
70
1
43
0.0
10
-88.312531500228403
20
-43.033929406987212
10
-88.312531500228388
20
-33.080009526997145
42
-0.41421511500823505
10
-86.237531500760497
20
-31.005058527126998
10
-75.687531500228417
20
-31.005058527126998
42
-0.41421356237309503
10
-73.612531500228414
20
-33.080058527127001
10
-73.6125315002284
20
-43.030009526941626
42
-0.41220481993492319
10
-75.673301384522659
20
-45.105009526997151
10
-86.237531500477886
20
-45.105002193544422
42
-0.41366727286107757
0
LWPOLYLINE
5
159
100
AcDbEntity
8
0
100
AcDbPolyline
90
8
70
1
43
0.0
10
54.562468499771612
20
-43.033929406984072
42
0.41366727286306088
10
56.63746849953305
20
-45.105002193544415
10
67.201698615477369
20
-45.105009526997151
42
0.41220481993492064
10
69.262468499771614
20
-43.030009526941626
10
69.2624684997716
20
-33.08000952699711
42
0.41421356237309503
10
67.187468499771597
20
-31.005009526997114
10
56.637468499771593
20
-31.00500952699711
42
0.41421356237309503
10
54.562468499771597
20
-33.08000952699711
0
LWPOLYLINE
5
160
100
AcDbEntity
8
0
100
AcDbPolyline
90
8
70
1
43
0.0
10
-16.875031500228399
20
-43.03392940698339
42
0.41366727286315547
10
-14.800031500466964
20
-45.105002193544415
10
-4.2358013845226763
20
-45.105009526997151
42
0.41220481992710123
10
-2.1750315002284148
20
-43.030009526997119
10
-2.1750315002283971
20
-33.08000952699711
42
0.41421356237309503
10
-4.2500315002283973
20
-31.005009526997114
10
-14.800031500228403
20
-31.00500952699711
42
0.41421356237309503
10
-16.875031500228399
20
-33.08000952699711
0
LWPOLYLINE
5
161
100
AcDbEntity
8
0
100
AcDbPolyline
90
8
70
1
43
0.0
10
-112.12503150022842
20
-43.033929406985116
10
-112.1250315002284
20
-33.080009526997145
42
-0.41421511500823505
10
-110.05003150076051
20
-31.005058527126998
10
-99.500031500228431
20
-31.005058527127005
42
-0.41421356237309503
10
-97.425031500228428
20
-33.080058527127001
10
-97.425031500228414
20
-43.030009526997119
42
-0.41220481992710128
10
-99.485801384522688
20
-45.105009526997151
10
-110.05003150047787
20
-45.105002193544415
42
-0.41366727286137583
0
LWPOLYLINE
5
162
100
AcDbEntity
8
0
100
AcDbPolyline
90
8
70
1
43
0.0
10
31.299968499771587
20
-43.932836289694777
10
31.299968499771577
20
-32.180009526997111
42
-0.414203666533704
10
32.374921180160861
20
-31.10505852696874
10
43.824968499795531
20
-31.10505852722385
42
-0.41421356236657092
10
44.899968499771589
20
-32.180058527223849
10
44.89996849977161
20
-43.930009526997154
42
-0.41142498802481575
10
43.835202558426346
20
-45.005009526997064
10
32.374968499362289
20
-45.005002193433327
42
-0.41345691929931627
0
LWPOLYLINE
5
163
100
AcDbEntity
8
0
100
AcDbPolyline
90
12
70
1
43
0.0
10
93.559343499771046
20
-15.005009776997085
10
96.059343499771046
20
-15.005009776997138
42
-0.41421356237310153
10
98.059343499771131
20
-17.00500977699712
10
98.05934349977106
20
-22.50500977699712
42
-0.41421356237315748
10
97.559343499771032
20
-23.00500977699711
10
97.059343499770989
20
-23.00500977699711
42
-0.41421356237310281
10
96.559343499771003
20
-22.505009776997106
10
96.559343499771018
20
-17.005009776997113
42
0.41421356237311585
10
96.059343499771046
20
-16.50500977699723
10
93.559343499771046
20
-16.505009776997142
42
-0.41421356237307422
10
93.059343499771074
20
-16.005009776997206
10
93.059343499771074
20
-15.505009776997127
42
-0.4142135623730534
0
LWPOLYLINE
5
164
100
AcDbEntity
8
0
100
AcDbPolyline
90
23
70
1
43
0.0
10
106.8051055288543
20
5.8205004730372956
42
0.41669298652265102
10
105.36807847073104
20
4.3953604730297258
10
105.36807852881219
20
-3.2053795270239336
42
0.41421109590999672
10
106.79306852892644
20
-4.6303795269626846
10
107.19716852885429
20
-4.6303795269626482
42
-0.31268021564693055
10
108.81233788919178
20
-5.7499297668225591
42
0.31269366156762413
10
110.56816852889014
20
-6.9668498439621374
10
132.31901852902848
20
-6.966851816436936
42
0.31265464049188552
10
134.07470852860709
20
-5.7499395276223595
42
-0.31268113368330802
10
135.68991852885441
20
-4.6303795269626846
10
136.08205155945956
20
-4.6303758240156245
42
0.41662887630311701
10
137.51895852885431
20
-3.2053395269249663
10
137.51895852885434
20
4.395560473037321
10
137.51893352907371
20
4.3955604730373228
42
0.41421870106896719
10
136.09396852889014
20
5.8205004730373133
10
135.22836852858458
20
5.8204906236091372
42
-0.30560633103330415
10
134.36768020711614
20
6.4007811518471129
42
0.3056086844581381
10
133.37116852882926
20
7.072660473037331
10
109.5159685288543
20
7.072660473037331
10
109.51596852885432
20
7.0726494730372922
42
0.30564902910972763
10
108.51935870321313
20
6.4007804025522965
42
-0.30563932784216513
10
107.65866852885426
20
5.820512473037347
10
107.65866852885426
20
5.8205004730373133
0
CIRCLE
5
165
100
AcDbEntity
8
0
100
AcDbCircle
10
-80.962500000005107
20
-50.774999999800912
30
0
40
1.5000000000009095
210
0
220
0
230
1
0
CIRCLE
5
166
100
AcDbEntity
8
0
100
AcDbCircle
10
61.912499999993983
20
-50.774999999800912
30
0
40
1.5000000000009095
210
0
220
0
230
1
0
CIRCLE
5
167
100
AcDbEntity
8
0
100
AcDbCircle
10
-3.1086244689504383e-14
20
50.775000000196542
30
0
40
1.5000000000009095
210
0
220
0
230
1
0
CIRCLE
5
168
100
AcDbEntity
8
0
100
AcDbCircle
10
133.34999999999579
20
50.775000000196542
30
0
40
1.5000000000009095
210
0
220
0
230
1
0
CIRCLE
5
169
100
AcDbEntity
8
0
100
AcDbCircle
10
-133.35000000000494
20
50.775000000196542
30
0
40
1.5000000000009095
210
0
220
0
230
1
0
CIRCLE
5
170
100
AcDbEntity
8
0
100
AcDbCircle
10
9.5249684997716031
20
-38.055009526997168
30
0
40
0.99999999999999645
210
0
220
0
230
1
0
CIRCLE
5
171
100
AcDbEntity
8
0
100
AcDbCircle
10
123.8249684997716
20
-19.005009526997121
30
0
40
1.0000000000000142
210
0
220
0
230
1
0
CIRCLE
5
172
100
AcDbEntity
8
0
100
AcDbCircle
10
38.099968499771578
20
19.094990473002866
30
0
40
1.0000000000000142
210
0
220
0
230
1
0
CIRCLE
5
173
100
AcDbEntity
8
0
100
AcDbCircle
10
-38.100031500228411
20
19.094990473002866
30
0
40
0.99999999999999645
210
0
220
0
230
1
0
CIRCLE
5
174
100
AcDbEntity
8
0
100
AcDbCircle
10
-140.49378150022841
20
0.044990473002854969
30
0
40
0.99999999999999645
210
0
220
0
230
1
0
CIRCLE
5
175
100
AcDbEntity
8
0
100
AcDbCircle
10
-104.77503150022842
20
38.144990473002878
30
0
40
0.99999999999999645
210
0
220
0
230
1
0
CIRCLE
5
176
100
AcDbEntity
8
0
100
AcDbCircle
10
-42.862531500228428
20
-19.005009526997121
30
0
40
0.99999999999999645
210
0
220
0
230
1
0
CIRCLE
5
177
100
AcDbEntity
8
0
100
AcDbCircle
10
117.55116849977158
20
19.444990473002903
30
0
40
1.0000000000000142
210
0
220
0
230
1
0
CIRCLE
5
178
100
AcDbEntity
8
0
100
AcDbCircle
10
-28.575031500228398
20
-38.055009526997168
30
0
40
0.99999999999999645
210
0
220
0
230
1
0
CIRCLE
5
179
100
AcDbEntity
8
0
100
AcDbCircle
10
-94.059406500228405
20
-38.055009526997168
30
0
40
0.99999999999999645
210
0
220
0
230
1
0
CIRCLE
5
180
100
AcDbEntity
8
0
100
AcDbCircle
10
52.387468499771586
20
-19.005009526997121
30
0
40
1.0000000000000142
210
0
220
0
230
1
0
CIRCLE
5
181
100
AcDbEntity
8
0
100
AcDbCircle
10
9.5249684997715924
20
38.144990473002878
30
0
40
0.99999999999999645
210
0
220
0
230
1
0
CIRCLE
5
182
100
AcDbEntity
8
0
100
AcDbCircle
10
-66.6750315002284
20
38.144990473002878
30
0
40
0.99999999999999645
210
0
220
0
230
1
0
CIRCLE
5
183
100
AcDbEntity
8
0
100
AcDbCircle
10
-117.30128150022841
20
19.444990473002868
30
0
40
0.99999999999999645
210
0
220
0
230
1
0
CIRCLE
5
184
100
AcDbEntity
8
0
100
AcDbCircle
10
-90.487531500228414
20
0.044990473002854969
30
0
40
0.99999999999999645
210
0
220
0
230
1
0
CIRCLE
5
185
100
AcDbEntity
8
0
100
AcDbCircle
10
-14.287531500228416
20
0.044990473002854969
30
0
40
0.99999999999999645
210
0
220
0
230
1
0
CIRCLE
5
186
100
AcDbEntity
8
0
100
AcDbCircle
10
104.77496849977157
20
38.144990473002878
30
0
40
1.0000000000000142
210
0
220
0
230
1
0
CIRCLE
5
187
100
AcDbEntity
8
0
100
AcDbCircle
10
71.437468499771612
20
-38.055009526997168
30
0
40
1.0000000000000142
210
0
220
0
230
1
0
CIRCLE
5
188
100
AcDbEntity
8
0
100
AcDbCircle
10
-71.437531500228403
20
-38.055009526997168
30
0
40
0.99999999999999645
210
0
220
0
230
1
0
CIRCLE
5
189
100
AcDbEntity
8
0
100
AcDbCircle
10
100.01246849977161
20
0.044990473002890496
30
0
40
1.0749999999999993
210
0
220
0
230
1
0
CIRCLE
5
190
100
AcDbEntity
8
0
100
AcDbCircle
10
-100.01253150022842
20
-19.005009526997121
30
0
40
0.99999999999999645
210
0
220
0
230
1
0
ENDSEC
0
SECTION
2
OBJECTS
0
DICTIONARY
5
C
100
AcDbDictionary
3
ACAD_GROUP
350
D
3
ACAD_MLINESTYLE
350
17
0
DICTIONARY
5
D
100
AcDbDictionary
0
DICTIONARY
5
1A
330
C
100
AcDbDictionary
0
DICTIONARY
5
17
100
AcDbDictionary
0
ENDSEC
0
EOF
