0
SECTION
2
HEADER
9
$INSUNITS
70
4
9
$ACADVER
1
AC1014
9
$HANDSEED
5
FFFF
0
ENDSEC
0
SECTION
2
TABLES
0
TABLE
2
VPORT
5
8
100
AcDbSymbolTable
0
ENDTAB
0
TABLE
2
LTYPE
5
5
100
AcDbSymbolTable
0
LTYPE
5
14
100
AcDbSymbolTableRecord
100
AcDbLinetypeTableRecord
2
BYBLOCK
70
0
0
LTYPE
5
15
100
AcDbSymbolTableRecord
100
AcDbLinetypeTableRecord
2
BYLAYER
70
0
0
LTYPE
5
16
100
AcDbSymbolTableRecord
100
AcDbLinetypeTableRecord
2
DASHED
70
0
3
Dashed __ __ __ __ __ __ __ __ __ __ __ __ __ _
72
65
73
2
40
0.75
49
0.5
74
0
49
-0.25
74
0
0
ENDTAB
0
TABLE
2
LAYER
5
2
100
AcDbSymbolTable
70
2
0
LAYER
5
50
100
AcDbSymbolTableRecord
100
AcDbLayerTableRecord
2
0
70
0
62
7
6
CONTINUOUS
0
ENDTAB
0
TABLE
2
STYLE
5
3
100
AcDbSymbolTable
70
1
0
STYLE
5
11
100
AcDbSymbolTableRecord
100
AcDbTextStyleTableRecord
2
STANDARD
70
0
0
ENDTAB
0
TABLE
2
VIEW
5
6
100
AcDbSymbolTable
70
0
0
ENDTAB
0
TABLE
2
UCS
5
7
100
AcDbSymbolTable
70
0
0
ENDTAB
0
TABLE
2
APPID
5
9
100
AcDbSymbolTable
70
2
0
APPID
5
12
100
AcDbSymbolTableRecord
100
AcDbRegAppTableRecord
2
ACAD
70
0
0
ENDTAB
0
TABLE
2
DIMSTYLE
5
A
100
AcDbSymbolTable
70
1
0
ENDTAB
0
TABLE
2
BLOCK_RECORD
5
1
100
AcDbSymbolTable
70
1
0
BLOCK_RECORD
5
1F
100
AcDbSymbolTableRecord
100
AcDbBlockTableRecord
2
*MODEL_SPACE
0
BLOCK_RECORD
5
1B
100
AcDbSymbolTableRecord
100
AcDbBlockTableRecord
2
*PAPER_SPACE
0
ENDTAB
0
ENDSEC
0
SECTION
2
BLOCKS
0
BLOCK
5
20
100
AcDbEntity
100
AcDbBlockBegin
2
*MODEL_SPACE
0
ENDBLK
5
21
100
AcDbEntity
100
AcDbBlockEnd
0
BLOCK
5
1C
100
AcDbEntity
100
AcDbBlockBegin
2
*PAPER_SPACE
0
ENDBLK
5
1D
100
AcDbEntity
100
AcDbBlockEnd
0
ENDSEC
0
SECTION
2
ENTITIES
0
LWPOLYLINE
5
100
100
AcDbEntity
8
0
100
AcDbPolyline
90
6
70
1
43
0.0
10
-29.574999999999356
20
-36.746446800157734
10
-29.574999999999374
20
-31.350000190751
42
-0.41421356237309503
10
-29.32499999999937
20
-31.100000190750997
10
-23.928553390592633
20
-31.100000190751011
42
-0.66817863791927623
10
-23.75177669529598
20
-31.526776886047649
10
-29.148223304702732
20
-36.923223495454344
42
-0.66817863791930865
0
LWPOLYLINE
5
101
100
AcDbEntity
8
0
100
AcDbPolyline
90
8
70
1
43
0.0
10
-33.79987373415215
20
-37.350000190751004
10
-51.399999999998812
20
-37.350000190751011
42
-0.41421356237308982
10
-51.649999999998826
20
-37.100000190751011
10
-51.649999999998826
20
-31.35000019075099
42
-0.41421356237311585
10
-51.399999999998826
20
-31.100000190750968
10
-39.549873734152293
20
-31.100000190750983
42
-0.19891236737964668
10
-39.373097038855661
20
-31.173223495454362
10
-33.623097038855526
20
-36.923223495454359
42
-0.66817863791932619
0
LWPOLYLINE
5
102
100
AcDbEntity
8
0
100
AcDbPolyline
90
6
70
1
43
0.0
10
-31.074999999998319
20
-39.453553581344288
10
-31.074999999998305
20
-44.850000190751018
42
-0.41421356237308982
10
-31.324999999998301
20
-45.100000190751032
10
-36.721446609405042
20
-45.100000190751011
42
-0.66817863791928522
10
-36.898223304701695
20
-44.673223495454373
10
-31.501776695294939
20
-39.276776886047678
42
-0.66817863791930421
0
LWPOLYLINE
5
103
100
AcDbEntity
8
0
100
AcDbPolyline
90
8
70
1
43
0.0
10
-26.850126265845521
20
-38.850000190751018
10
-9.2499999999988436
20
-38.850000190751011
42
-0.41421356237308982
10
-8.99999999999884
20
-39.100000190751011
10
-8.99999999999884
20
-44.850000190751025
42
-0.41421356237311585
10
-9.2499999999988436
20
-45.100000190751047
10
-21.100126265845379
20
-45.100000190751032
42
-0.19891236737965132
10
-21.276902961142014
20
-45.026776886047656
10
-27.026902961142145
20
-39.276776886047671
42
-0.66817863791934173
0
LWPOLYLINE
5
104
100
AcDbEntity
8
0
100
AcDbPolyline
90
6
70
1
43
0.0
10
31.075000049019643
20
-36.746446800157742
10
31.075000049019621
20
-31.350000190751008
42
-0.41421356237309503
10
31.325000049019629
20
-31.100000190751004
10
36.721446658426366
20
-31.100000190751018
42
-0.66817863791927612
10
36.898223353723019
20
-31.526776886047656
10
31.501776744316267
20
-36.923223495454344
42
-0.66817863791931786
0
LWPOLYLINE
5
105
100
AcDbEntity
8
0
100
AcDbPolyline
90
8
70
1
43
0.0
10
26.850126314866849
20
-37.350000190751011
10
9.2500000490201728
20
-37.350000190751018
42
-0.41421356237308982
10
9.0000000490201693
20
-37.100000190751018
10
9.0000000490201693
20
-31.350000190751
42
-0.41421356237311585
10
9.2500000490201728
20
-31.100000190750979
10
21.100126314866703
20
-31.10000019075099
42
-0.19891236737964657
10
21.276903010163334
20
-31.173223495454373
10
27.026903010163469
20
-36.923223495454366
42
-0.66817863791932619
0
LWPOLYLINE
5
106
100
AcDbEntity
8
0
100
AcDbPolyline
90
12
70
1
43
0.0
10
-109.10937488273261
20
2.0056034007870771
10
-109.10937488273261
20
-3.4943965992128945
42
-0.41421356237309503
10
-109.60937488273261
20
-3.9943965992129016
10
-110.10937488273262
20
-3.9943965992129371
42
-0.41421356237309503
10
-110.60937488273267
20
-3.4943965992128945
10
-110.60937488273262
20
2.0056034007870771
42
0.41421356237309503
10
-111.1093748827326
20
2.5056034007871202
10
-113.6093748827326
20
2.5056034007871197
42
-0.41421356237309503
10
-114.10937488273257
20
3.0056034007870913
10
-114.10937488273261
20
3.5056034007870984
42
-0.41421356237309503
10
-113.6093748827326
20
4.0056034007871055
10
-111.1093748827326
20
4.00560340078707
42
-0.41421356237309503
0
LWPOLYLINE
5
107
100
AcDbEntity
8
0
100
AcDbPolyline
90
8
70
1
43
0.0
10
25.550000116971407
20
31.105603401083801
10
12.5500001169714
20
31.10560340108367
42
-0.4142135623730378
10
12.05000011697126
20
31.605603401083712
10
12.050000116971287
20
44.605603401083997
42
-0.41421356237309503
10
12.5500001169714
20
45.10560340108411
10
25.550000116971407
20
45.105603401083968
42
-0.41421356237291812
10
26.050000116971166
20
44.605603401084508
10
26.050000116971503
20
31.605603401083702
42
-0.41421356237298057
0
LWPOLYLINE
5
108
100
AcDbEntity
8
0
100
AcDbPolyline
90
8
70
1
43
0.0
10
140.35000011697124
20
44.605603401083812
10
140.35000011697122
20
31.605603401083702
42
-0.41421356237301177
10
139.85000011697124
20
31.105603401083791
10
126.8500001169712
20
31.105603401083695
42
-0.41421356237309503
10
126.35000011697119
20
31.605603401083702
10
126.35000011697119
20
44.605603401083812
42
-0.41421356237309503
10
126.8500001169712
20
45.105603401083826
10
139.85000011697122
20
45.105603401083826
42
-0.41421356237309503
0
LWPOLYLINE
5
109
100
AcDbEntity
8
0
100
AcDbPolyline
90
8
70
1
43
0.0
10
122.0875001169712
20
26.05560340108422
42
0.41421356237298057
10
121.58750011697126
20
25.555603401083875
10
121.58750011697123
20
12.55560340108361
42
0.41421356237331874
10
122.0875001169712
20
12.05560340108379
10
135.08750011697123
20
12.055603401083326
42
0.41421356237312623
10
135.58750011697131
20
12.55560340108369
10
135.58750011697123
20
25.555603401083591
42
0.41421356237299095
10
135.08750011697126
20
26.055603401083776
0
LWPOLYLINE
5
110
100
AcDbEntity
8
0
100
AcDbPolyline
90
8
70
1
43
0.0
10
98.275000117564502
20
26.055603400490178
42
0.41421356237297013
10
97.775000117564517
20
25.555603400490394
10
97.775000117564559
20
12.555603400490387
42
0.41421356237304302
10
98.275000117564502
20
12.055603400490309
10
111.2750001175645
20
12.055603400490247
42
0.41421356237304302
10
111.77500011756462
20
12.555603400490707
10
111.7750001175645
20
25.555603400490085
42
0.41421356237321472
10
111.27500011756452
20
26.055603400490686
0
LWPOLYLINE
5
111
100
AcDbEntity
8
0
100
AcDbPolyline
90
8
70
1
43
0.0
10
120.8000001169712
20
31.105603401083801
10
107.8000001169712
20
31.105603401083695
42
-0.41421356237309503
10
107.3000001169712
20
31.605603401083702
10
107.30000011697118
20
44.605603401083812
42
-0.41421356237309503
10
107.8000001169712
20
45.105603401083833
10
120.8000001169712
20
45.105603401083826
42
-0.41421356237309503
10
121.3000001169712
20
44.605603401083812
10
121.3000001169712
20
31.605603401083702
42
-0.41421356237303258
0
LWPOLYLINE
5
112
100
AcDbEntity
8
0
100
AcDbPolyline
90
8
70
1
43
0.0
10
68.912500117564491
20
-12.544396599509602
42
0.41421356237310542
10
68.412500117564491
20
-12.044396599509826
10
55.412500117564498
20
-12.044396599509568
42
0.41421356237301177
10
54.912500117564619
20
-12.5443965995097
10
54.912500117564562
20
-25.544396599509597
42
0.41421356237303519
10
55.412500117564498
20
-26.044396599509394
10
68.412500117564491
20
-26.044396599509589
42
0.41421356237299617
10
68.912500117564491
20
-25.544396599509493
0
LWPOLYLINE
5
113
100
AcDbEntity
8
0
100
AcDbPolyline
90
8
70
1
43
0.0
10
126.8500001169712
20
-12.044396598916325
42
0.41421356237309503
10
126.35000011697119
20
-12.544396598916325
10
126.35000011697119
20
-25.544396598916226
42
0.41421356237309503
10
126.8500001169712
20
-26.044396598916304
10
139.85000011697122
20
-26.04439659891629
42
0.41421356237313667
10
140.35000011697124
20
-25.544396598916226
10
140.35000011697124
20
-12.544396598916325
42
0.41421356237309503
10
139.85000011697122
20
-12.044396598916212
0
LWPOLYLINE
5
114
100
AcDbEntity
8
0
100
AcDbPolyline
90
8
70
1
43
0.0
10
114.15625011697119
20
-12.544396598916325
10
114.15625011697119
20
-25.544396598916226
42
-0.41421356237313667
10
113.65625011697121
20
-26.044396598916293
10
100.65625011697122
20
-26.044396598916233
42
-0.41421356237309503
10
100.15625011697122
20
-25.544396598916226
10
100.15625011697124
20
-12.544396598916325
42
-0.41421356237315748
10
100.65625011697122
20
-12.044396598916229
10
113.65625011697121
20
-12.044396598916336
42
-0.41421356237309503
0
LWPOLYLINE
5
115
100
AcDbEntity
8
0
100
AcDbPolyline
90
10
70
1
43
0.0
10
-119.20624988302856
20
6.5056034010837926
10
-119.20624999999885
20
-6.4999999999949765
42
-0.41421356237315748
10
-119.70624999999886
20
-6.9999999999949569
10
-137.46624999999884
20
-6.9999999999949303
42
-0.41421356237309503
10
-137.96624999999887
20
-6.4999999999949765
10
-137.96624999999887
20
6.5000000000050662
42
-0.4142135623730846
10
-137.46624999999887
20
7.0000000000050608
10
-132.78089573338258
20
7.0000000000050466
42
-0.03748051269379557
10
-132.70624988302859
20
7.0056034010837651
10
-119.70624988302858
20
7.0056034010836932
42
-0.41421356237303258
0
LWPOLYLINE
5
116
100
AcDbEntity
8
0
100
AcDbPolyline
90
8
70
1
43
0.0
10
-135.08749988302861
20
-31.094396598916294
10
-122.08749988302861
20
-31.094396598916259
42
-0.41421356237309503
10
-121.58749988302857
20
-31.594396598916301
10
-121.5874998830286
20
-44.594396598916234
42
-0.41421356237313667
10
-122.08749988302861
20
-45.094396598916319
10
-135.08749988302861
20
-45.094396598916248
42
-0.4142135623730534
10
-135.5874998830287
20
-44.594396598916234
10
-135.58749988302853
20
-31.594396598916301
42
-0.41421356237315748
0
LWPOLYLINE
5
117
100
AcDbEntity
8
0
100
AcDbPolyline
90
8
70
1
43
0.0
10
-97.774999883028556
20
-31.594396598916301
42
0.41421356237309503
10
-98.274999883028599
20
-31.094396598916259
10
-111.2749998830286
20
-31.094396598916248
42
0.41421356237309503
10
-111.77499988302861
20
-31.594396598916195
10
-111.77499988302864
20
-44.594396598916219
42
0.41421356237306384
10
-111.2749998830286
20
-45.094396598916205
10
-98.274999883028599
20
-45.094396598916298
42
0.41421356237309503
10
-97.774999883028585
20
-44.594396598916305
0
LWPOLYLINE
5
118
100
AcDbEntity
8
0
100
AcDbPolyline
90
8
70
1
43
0.0
10
-74.462499883028613
20
-45.094396598916248
10
-87.462499883028585
20
-45.094396598916319
42
-0.41421356237314705
10
-87.962499883028599
20
-44.594396598916219
10
-87.962499883028613
20
-31.594396598916301
42
-0.41421356237309503
10
-87.462499883028585
20
-31.094396598916283
10
-74.462499883028613
20
-31.094396598916259
42
-0.41421356237309503
10
-73.96249988302857
20
-31.594396598916301
10
-73.962499883028684
20
-44.594396598916305
42
-0.41421356237309503
0
LWPOLYLINE
5
119
100
AcDbEntity
8
0
100
AcDbPolyline
90
8
70
1
43
0.0
10
-25.549999883028587
20
45.105603401083826
42
0.41421356237304302
10
-26.049999883028416
20
44.605603401084082
10
-26.049999883028654
20
31.605603401083808
42
0.41421356237309503
10
-25.549999883028587
20
31.105603401083695
10
-12.549999883028597
20
31.105603401083641
42
0.41421356237309503
10
-12.049999883028608
20
31.605603401083702
10
-12.049999883028359
20
44.605603401083712
42
0.41421356237315748
10
-12.549999883028597
20
45.10560340108411
0
LWPOLYLINE
5
120
100
AcDbEntity
8
0
100
AcDbPolyline
90
8
70
1
43
0.0
10
1.7375001175644122
20
-6.9943965995095425
42
0.41421356237309503
10
2.2375001175644371
20
-6.4943965995095176
10
2.2375001175644282
20
6.5056034004903829
42
0.41421356237309503
10
1.7375001175644122
20
7.00560340049039
10
-11.262499882435595
20
7.0056034004904078
42
0.41421356237309503
10
-11.762499882435584
20
6.5056034004903829
10
-11.762499882435531
20
-6.4943965995095176
42
0.41421356237309503
10
-11.262499882435595
20
-6.9943965995094182
0
LWPOLYLINE
5
121
100
AcDbEntity
8
0
100
AcDbPolyline
90
8
70
1
43
0.0
10
-6.9999998830286536
20
31.605603401083595
42
0.41421356237309503
10
-6.4999998830285932
20
31.105603401083535
10
6.5000001169714139
20
31.105603401083659
42
0.41421356237309503
10
7.0000001169714032
20
31.605603401083595
10
7.0000001169707815
20
44.605603401082803
42
0.41421356237283491
10
6.5000001169714139
20
45.105603401083783
10
-6.4999998830285932
20
45.105603401084089
42
0.41421356237299095
10
-6.9999998830285826
20
44.60560340108438
0
LWPOLYLINE
5
122
100
AcDbEntity
8
0
100
AcDbPolyline
90
8
70
1
43
0.0
10
-74.462499882435594
20
-6.9943965995094892
10
-87.462499882435608
20
-6.994396599509507
42
-0.41421356237309503
10
-87.962499882435594
20
-6.4943965995095176
10
-87.962499882435537
20
6.5056034004904895
42
-0.41421356237309503
10
-87.462499882435608
20
7.0056034004904255
10
-74.462499882435594
20
7.0056034004904078
42
-0.41421356237309503
10
-73.962499882435566
20
6.5056034004903829
10
-73.962499882435694
20
-6.4943965995095176
42
-0.41421356237313667
0
LWPOLYLINE
5
123
100
AcDbEntity
8
0
100
AcDbPolyline
90
8
70
1
43
0.0
10
-83.487499882435571
20
-12.544396599509531
42
0.4142135623730378
10
-83.9874998824356
20
-12.044396599509612
10
-96.987499882435614
20
-12.044396599509515
42
0.41421356237309503
10
-97.487499882435614
20
-12.544396599509522
10
-97.487499882435586
20
-25.544396599509497
42
0.41421356237315488
10
-96.987499882435614
20
-26.044396599509607
10
-83.9874998824356
20
-26.044396599509572
42
0.41421356237309503
10
-83.487499882435628
20
-25.5443965995096
0
LWPOLYLINE
5
124
100
AcDbEntity
8
0
100
AcDbPolyline
90
8
70
1
43
0.0
10
-64.937499882435588
20
-26.044396599509561
42
0.4142135623730378
10
-64.437499882435446
20
-25.544396599509518
10
-64.437499882435588
20
-12.544396599509531
42
0.4142135623730378
10
-64.937499882435588
20
-12.044396599509515
10
-77.937499882435603
20
-12.044396599509612
42
0.41421356237309503
10
-78.437499882435603
20
-12.544396599509522
10
-78.437499882435574
20
-25.5443965995096
42
0.41421356237309503
10
-77.937499882435603
20
-26.044396599509607
0
LWPOLYLINE
5
125
100
AcDbEntity
8
0
100
AcDbPolyline
90
8
70
1
43
0.0
10
-69.19999988302871
20
44.605603401083812
42
0.41421356237303258
10
-69.69999988302861
20
45.105603401083613
10
-82.699999883028624
20
45.105603401083826
42
0.41421356237309503
10
-83.199999883028624
20
44.605603401083812
10
-83.199999883028624
20
31.605603401083702
42
0.41421356237309503
10
-82.699999883028624
20
31.105603401083695
10
-69.69999988302861
20
31.105603401083659
42
0.41421356237309503
10
-69.19999988302861
20
31.605603401083702
0
LWPOLYLINE
5
126
100
AcDbEntity
8
0
100
AcDbPolyline
90
8
70
1
43
0.0
10
-73.174999882435628
20
26.055603400490437
42
0.4142135623730378
10
-73.674999882435671
20
25.55560340049049
10
-73.674999882435543
20
12.555603400490485
42
0.41421356237321472
10
-73.174999882435628
20
12.05560340049038
10
-60.174999882435628
20
12.055603400490451
42
0.41421356237315748
10
-59.674999882435614
20
12.555603400490387
10
-59.674999882435564
20
25.55560340049049
42
0.4142135623730378
10
-60.174999882435628
20
26.055603400490401
0
LWPOLYLINE
5
127
100
AcDbEntity
8
0
100
AcDbPolyline
90
8
70
1
43
0.0
10
-45.099999883028602
20
31.605603401083702
10
-45.099999883028602
20
44.605603401083712
42
-0.41421356237309503
10
-44.599999883028602
20
45.105603401083712
10
-31.599999883028627
20
45.105603401083734
42
-0.41421356237315748
10
-31.099999883028495
20
44.605603401083499
10
-31.099999883028584
20
31.605603401083702
42
-0.41421356237309503
10
-31.599999883028627
20
31.105603401083659
10
-44.599999883028602
20
31.10560340108389
42
-0.41421356237298057
0
LWPOLYLINE
5
128
100
AcDbEntity
8
0
100
AcDbPolyline
90
8
70
1
43
0.0
10
-41.124999882435617
20
12.055603400490416
42
0.41421356237309503
10
-40.624999882435645
20
12.555603400490387
10
-40.624999882435532
20
25.555603400490394
42
0.41421356237309503
10
-41.124999882435617
20
26.055603400490508
10
-54.124999882435617
20
26.055603400490401
42
0.41421356237303258
10
-54.624999882435588
20
25.555603400490501
10
-54.624999882435603
20
12.555603400490396
42
0.4142135623730378
10
-54.124999882435617
20
12.055603400490487
0
LWPOLYLINE
5
129
100
AcDbEntity
8
0
100
AcDbPolyline
90
8
70
1
43
0.0
10
-22.074999882435602
20
12.05560340049038
10
-35.074999882435577
20
12.055603400490522
42
-0.41421356237309503
10
-35.574999882435549
20
12.555603400490494
10
-35.57499988243557
20
25.555603400490394
42
-0.41421356237315748
10
-35.074999882435577
20
26.055603400490497
10
-22.074999882435602
20
26.05560340049033
42
-0.4142135623730378
10
-21.574999882435666
20
25.55560340049049
10
-21.574999882435595
20
12.555603400490494
42
-0.41421356237315748
0
LWPOLYLINE
5
130
100
AcDbEntity
8
0
100
AcDbPolyline
90
8
70
1
43
0.0
10
-26.337499882435491
20
-12.544396599509602
42
0.4142135623730378
10
-26.837499882435605
20
-12.044396599509586
10
-39.837499882435608
20
-12.044396599509515
42
0.41421356237309503
10
-40.337499882435623
20
-12.544396599509522
10
-40.337499882435722
20
-25.544396599509597
42
0.41421356237303519
10
-39.837499882435608
20
-26.044396599509714
10
-26.837499882435605
20
-26.044396599509554
42
0.41421356237315748
10
-26.337499882435598
20
-25.544396599509493
0
LWPOLYLINE
5
131
100
AcDbEntity
8
0
100
AcDbPolyline
90
8
70
1
43
0.0
10
-16.812499882435592
20
6.5056034004904895
10
-16.812499882435592
20
-6.4943965995095887
42
-0.41421356237309503
10
-17.312499882435599
20
-6.9943965995095958
10
-30.312499882435606
20
-6.9943965995095514
42
-0.41421356237315227
10
-30.812499882435461
20
-6.4943965995095976
10
-30.812499882435649
20
6.5056034004903829
42
-0.41421356237309503
10
-30.312499882435606
20
7.0056034004904255
10
-17.312499882435599
20
7.00560340049039
42
-0.41421356237303258
0
LWPOLYLINE
5
132
100
AcDbEntity
8
0
100
AcDbPolyline
90
8
70
1
43
0.0
10
-49.862499882435536
20
-6.4943965995095887
42
0.41421356237309503
10
-49.362499882435614
20
-6.994396599509507
10
-36.362499882435614
20
-6.9943965995094537
42
0.41421356237309503
10
-35.8624998824356
20
-6.4943965995095176
10
-35.862499882435671
20
6.5056034004904895
42
0.41421356237309503
10
-36.362499882435614
20
7.00560340049039
10
-49.362499882435614
20
7.005603400490461
42
0.41421356237303258
10
-49.862499882435628
20
6.5056034004904895
0
LWPOLYLINE
5
133
100
AcDbEntity
8
0
100
AcDbPolyline
90
8
70
1
43
0.0
10
-50.149999883028556
20
44.605603401083499
42
0.41421356237303258
10
-50.649999883028599
20
45.105603401083428
10
-63.649999883028613
20
45.105603401083926
42
0.41421356237315748
10
-64.149999883028613
20
44.605603401083599
10
-64.149999883028642
20
31.605603401083702
42
0.41421356237309503
10
-63.649999883028613
20
31.105603401083695
10
-50.649999883028599
20
31.10560340108373
42
0.41421356237309503
10
-50.149999883028599
20
31.605603401083702
0
LWPOLYLINE
5
134
100
AcDbEntity
8
0
100
AcDbPolyline
90
8
70
1
43
0.0
10
-55.412499882435583
20
-6.9943965995095247
42
0.41421356237309503
10
-54.912499882435583
20
-6.4943965995095176
10
-54.91249988243554
20
6.5056034004904895
42
0.41421356237309503
10
-55.412499882435583
20
7.0056034004904966
10
-68.412499882435597
20
7.0056034004904433
42
0.41421356237309503
10
-68.912499882435597
20
6.5056034004903829
10
-68.912499882435498
20
-6.4943965995095887
42
0.41421356237309503
10
-68.412499882435597
20
-6.9943965995094892
0
LWPOLYLINE
5
135
100
AcDbEntity
8
0
100
AcDbPolyline
90
8
70
1
43
0.0
10
-58.887499882435591
20
-12.044396599509515
10
-45.887499882435577
20
-12.044396599509595
42
-0.41421356237309503
10
-45.387499882435655
20
-12.544396599509522
10
-45.387499882435648
20
-25.5443965995096
42
-0.41421356237309503
10
-45.887499882435577
20
-26.044396599509536
10
-58.887499882435591
20
-26.044396599509582
42
-0.41421356237315488
10
-59.38749988243557
20
-25.544396599509497
10
-59.387499882435492
20
-12.544396599509522
42
-0.41421356237315748
0
LWPOLYLINE
5
136
100
AcDbEntity
8
0
100
AcDbPolyline
90
8
70
1
43
0.0
10
-79.224999882435597
20
12.055603400490487
10
-92.224999882435583
20
12.055603400490433
42
-0.4142135623730378
10
-92.724999882435668
20
12.555603400490396
10
-92.724999882435583
20
25.555603400490501
42
-0.41421356237309503
10
-92.224999882435611
20
26.055603400490472
10
-79.224999882435597
20
26.055603400490448
42
-0.4142135623730378
10
-78.724999882435554
20
25.55560340049049
10
-78.724999882435696
20
12.555603400490494
42
-0.41421356237315748
0
LWPOLYLINE
5
137
100
AcDbEntity
8
0
100
AcDbPolyline
90
8
70
1
43
0.0
10
-122.08749988302861
20
12.055603401083683
10
-135.08749988302861
20
12.055603401083719
42
-0.4142135623730378
10
-135.5874998830287
20
12.555603401083699
10
-135.58749988302867
20
25.555603401083786
42
-0.41421356237304302
10
-135.08749988302861
20
26.05560340108374
10
-122.08749988302863
20
26.05560340108374
42
-0.4142135623730378
10
-121.58749988302857
20
25.555603401083793
10
-121.5874998830286
20
12.55560340108369
42
-0.41421356237309503
0
LWPOLYLINE
5
138
100
AcDbEntity
8
0
100
AcDbPolyline
90
8
70
1
43
0.0
10
-102.24999988302861
20
31.605603401083702
10
-102.24999988302856
20
44.605603401083712
42
-0.41421356237315748
10
-101.74999988302859
20
45.105603401083783
10
-88.749999883028593
20
45.105603401083755
42
-0.41421356237303258
10
-88.249999883028437
20
44.605603401083712
10
-88.249999883028565
20
31.605603401083595
42
-0.41421356237303258
10
-88.749999883028593
20
31.105603401083677
10
-101.74999988302859
20
31.105603401083695
42
-0.41421356237309503
0
LWPOLYLINE
5
139
100
AcDbEntity
8
0
100
AcDbPolyline
90
8
70
1
43
0.0
10
-111.77499988243562
20
12.555603400490494
10
-111.77499988243559
20
25.555603400490501
42
-0.41421356237309503
10
-111.27499988243562
20
26.055603400490472
10
-98.274999882435608
20
26.055603400490472
42
-0.41421356237309503
10
-97.774999882435637
20
25.555603400490501
10
-97.774999882435566
20
12.555603400490494
42
-0.41421356237309503
10
-98.274999882435608
20
12.055603400490451
10
-111.27499988243562
20
12.05560340049038
42
-0.41421356237315748
0
LWPOLYLINE
5
140
100
AcDbEntity
8
0
100
AcDbPolyline
90
8
70
1
43
0.0
10
-106.51249988243558
20
7.0056034004904966
42
0.41421356237315227
10
-107.01249988243548
20
6.5056034004904983
10
-107.01249988243559
20
-6.494396599509491
42
0.41421356237315227
10
-106.51249988243558
20
-6.9943965995095958
10
-93.512499882435606
20
-6.9943965995095247
42
0.4142135623730534
10
-93.012499882435606
20
-6.4943965995095887
10
-93.012499882435606
20
6.5056034004904895
42
0.41421356237309503
10
-93.512499882435606
20
7.0056034004904966
0
LWPOLYLINE
5
141
100
AcDbEntity
8
0
100
AcDbPolyline
90
8
70
1
43
0.0
10
-20.787499882435601
20
-12.044396599509657
42
0.41421356237309503
10
-21.287499882435572
20
-12.544396599509628
10
-21.287499882435622
20
-25.544396599509493
42
0.41421356237309503
10
-20.787499882435601
20
-26.044396599509607
10
-7.7874998824355934
20
-26.044396599509483
42
0.41421356237303258
10
-7.2874998824355863
20
-25.5443965995096
10
-7.2874998824355597
20
-12.544396599509531
42
0.4142135623730378
10
-7.7874998824355934
20
-12.044396599509621
0
LWPOLYLINE
5
142
100
AcDbEntity
8
0
100
AcDbPolyline
90
8
70
1
43
0.0
10
-16.024999882435598
20
26.055603400490384
42
0.41421356237309503
10
-16.524999882435587
20
25.555603400490394
10
-16.524999882435658
20
12.555603400490494
42
0.41421356237309503
10
-16.024999882435598
20
12.055603400490487
10
-3.0249998824356084
20
12.05560340049038
42
0.41421356237309503
10
-2.5249998824356013
20
12.555603400490281
10
-2.5249998824355924
20
25.555603400490405
42
0.41421356237315227
10
-3.0249998824356084
20
26.055603400490597
0
LWPOLYLINE
5
143
100
AcDbEntity
8
0
100
AcDbPolyline
90
8
70
1
43
0.0
10
92.22500011756469
20
12.055603400490487
10
79.225000117564505
20
12.055603400490389
42
-0.41421356237321472
10
78.72500011756452
20
12.555603400490387
10
78.725000117564534
20
25.555603400490394
42
-0.41421356237285051
10
79.225000117564505
20
26.055603400490355
10
92.225000117564491
20
26.05560340049049
42
-0.41421356237310025
10
92.725000117564406
20
25.555603400490405
10
92.725000117564704
20
12.555603400490494
42
-0.41421356237321988
0
LWPOLYLINE
5
144
100
AcDbEntity
8
0
100
AcDbPolyline
90
8
70
1
43
0.0
10
102.25000011697121
20
44.605603401083499
10
102.25000011697131
20
31.605603401083382
42
-0.4142135623728973
10
101.75000011697131
20
31.105603401083918
10
88.750000116971222
20
31.10560340108405
42
-0.41421356237316787
10
88.250000116971137
20
31.605603401083613
10
88.250000116971108
20
44.605603401084707
42
-0.4142135623730222
10
88.750000116971194
20
45.105603401083279
10
101.75000011697131
20
45.105603401083592
42
-0.41421356237310542
0
LWPOLYLINE
5
145
100
AcDbEntity
8
0
100
AcDbPolyline
90
8
70
1
43
0.0
10
74.462500117564502
20
-12.04439659950963
42
0.41421356237315227
10
73.96250011756463
20
-12.544396599509415
10
73.962500117564602
20
-25.544396599509518
42
0.4142135623730378
10
74.462500117564502
20
-26.044396599509394
10
87.462500117564517
20
-26.044396599509589
42
0.4142135623730222
10
87.962500117564502
20
-25.544396599509707
10
87.962500117564616
20
-12.544396599509419
42
0.41421356237303519
10
87.462500117564417
20
-12.044396599509302
0
LWPOLYLINE
5
146
100
AcDbEntity
8
0
100
AcDbPolyline
90
8
70
1
43
0.0
10
69.200000116971282
20
31.605603401083382
42
0.41421356237285051
10
69.700000116971296
20
31.105603401083364
10
82.700000116971296
20
31.105603401083648
42
0.41421356237290774
10
83.200000116971196
20
31.605603401083275
10
83.200000116971268
20
44.605603401082504
42
0.4142135623732095
10
82.700000116971296
20
45.105603401083187
10
69.700000116971296
20
45.105603401082547
42
0.41421356237309503
10
69.200000116971211
20
44.605603401083499
0
LWPOLYLINE
5
147
100
AcDbEntity
8
0
100
AcDbPolyline
90
8
70
1
43
0.0
10
64.937500117564497
20
7.0056034004904966
42
0.41421356237286089
10
64.437500117564511
20
6.5056034004905161
10
64.437500117564582
20
-6.494396599509491
42
0.41421356237309503
10
64.937500117564497
20
-6.9943965995095958
10
77.937500117564497
20
-6.9943965995095247
42
0.41421356237317308
10
78.43750011756471
20
-6.4943965995095887
10
78.437500117564525
20
6.5056034004904895
42
0.41421356237309503
10
77.937500117564497
20
7.0056034004904966
0
LWPOLYLINE
5
148
100
AcDbEntity
8
0
100
AcDbPolyline
90
8
70
1
43
0.0
10
59.675000117564437
20
12.555603400490387
42
0.41421356237315748
10
60.175000117564608
20
12.055603400490114
10
73.175000117564593
20
12.055603400490327
42
0.4142135623730378
10
73.675000117564494
20
12.555603400490387
10
73.675000117564537
20
25.555603400490288
42
0.4142135623730378
10
73.175000117564593
20
26.055603400490401
10
60.175000117564608
20
26.055603400490234
42
0.41421356237316787
10
59.675000117564494
20
25.555603400490785
0
LWPOLYLINE
5
149
100
AcDbEntity
8
0
100
AcDbPolyline
90
8
70
1
43
0.0
10
87.962500116971313
20
-31.594396598916397
42
0.41421356237321472
10
87.462500116971299
20
-31.094396598916404
10
74.462500116971199
20
-31.094396598916305
42
0.41421356237285567
10
73.962500116971214
20
-31.594396598916195
10
73.962500116971228
20
-44.594396598916163
42
0.41421356237310025
10
74.462500116971199
20
-45.094396598916347
10
87.462500116971299
20
-45.094396598916347
42
0.41421356237327195
10
87.962500116971199
20
-44.594396598916489
0
LWPOLYLINE
5
150
100
AcDbEntity
8
0
100
AcDbPolyline
90
8
70
1
43
0.0
10
50.150000116971313
20
31.605603401083702
42
0.41421356237315748
10
50.650000116971214
20
31.105603401083908
10
63.650000116971306
20
31.105603401083826
42
0.41421356237298579
10
64.150000116971199
20
31.605603401083808
10
64.150000116971299
20
44.605603401083798
42
0.41421356237313667
10
63.650000116971306
20
45.105603401082504
10
50.650000116971214
20
45.105603401084302
42
0.41421356237297013
10
50.150000116971313
20
44.605603401082604
0
LWPOLYLINE
5
151
100
AcDbEntity
8
0
100
AcDbPolyline
90
8
70
1
43
0.0
10
21.575000117564382
20
12.555603400490494
42
0.41421356237309503
10
22.075000117564407
20
12.055603400490469
10
35.0750001175644
20
12.055603400490389
42
0.41421356237309503
10
35.5750001175644
20
12.555603400490387
10
35.575000117564443
20
25.555603400490405
42
0.41421356237315227
10
35.0750001175644
20
26.055603400490508
10
22.075000117564407
20
26.055603400490355
42
0.41421356237309503
10
21.5750001175644
20
25.555603400490501
0
LWPOLYLINE
5
152
100
AcDbEntity
8
0
100
AcDbPolyline
90
8
70
1
43
0.0
10
36.362500117564394
20
-12.044396599509621
10
49.362500117564494
20
-12.044396599509621
42
-0.41421356237321472
10
49.862500117564501
20
-12.54439659950962
10
49.862500117564537
20
-25.544396599509493
42
-0.4142135623730534
10
49.362500117564494
20
-26.044396599509462
10
36.362500117564394
20
-26.044396599509572
42
-0.41421356237309503
10
35.862500117564423
20
-25.5443965995096
10
35.862500117564394
20
-12.544396599509522
42
-0.41421356237303258
0
LWPOLYLINE
5
153
100
AcDbEntity
8
0
100
AcDbPolyline
90
8
70
1
43
0.0
10
40.337500117564353
20
6.5056034004904895
42
0.41421356237309503
10
39.837500117564403
20
7.0056034004904433
10
26.83750011756441
20
7.0056034004902834
42
0.41421356237309503
10
26.337500117564403
20
6.5056034004903829
10
26.337500117564367
20
-6.494396599509491
42
0.41421356237315227
10
26.83750011756441
20
-6.9943965995097024
10
39.837500117564403
20
-6.9943965995094803
42
0.41421356237309503
10
40.337500117564403
20
-6.4943965995095176
0
LWPOLYLINE
5
154
100
AcDbEntity
8
0
100
AcDbPolyline
90
8
70
1
43
0.0
10
30.812500117564401
20
-12.5443965995097
10
30.812500117564525
20
-25.544396599509493
42
-0.4142135623730534
10
30.312500117564394
20
-26.044396599509554
10
17.312500117564404
20
-26.044396599509568
42
-0.41421356237315488
10
16.812500117564436
20
-25.544396599509497
10
16.812500117564397
20
-12.544396599509628
42
-0.4142135623730534
10
17.312500117564404
20
-12.044396599509692
10
30.312500117564394
20
-12.044396599509692
42
-0.41421356237309503
0
LWPOLYLINE
5
155
100
AcDbEntity
8
0
100
AcDbPolyline
90
8
70
1
43
0.0
10
54.625000117564504
20
25.555603400490394
10
54.625000117564625
20
12.555603400490494
42
-0.41421356237304302
10
54.125000117564497
20
12.055603400490273
10
41.125000117564397
20
12.055603400490416
42
-0.41421356237309503
10
40.625000117564426
20
12.555603400490387
10
40.625000117564497
20
25.555603400490501
42
-0.41421356237309503
10
41.125000117564397
20
26.055603400490401
10
54.125000117564497
20
26.055603400489975
42
-0.41421356237309503
0
LWPOLYLINE
5
156
100
AcDbEntity
8
0
100
AcDbPolyline
90
8
70
1
43
0.0
10
31.100000116971316
20
31.605603401083606
42
0.4142135623730378
10
31.600000116971412
20
31.105603401083606
10
44.600000116971103
20
31.105603401083471
42
0.41421356237315748
10
45.100000116971216
20
31.605603401083489
10
45.100000116971231
20
44.605603401083101
42
0.41421356237328233
10
44.600000116971103
20
45.10560340108411
10
31.600000116971412
20
45.105603401082242
42
0.41421356237314705
10
31.100000116971405
20
44.60560340108421
0
LWPOLYLINE
5
157
100
AcDbEntity
8
0
100
AcDbPolyline
90
8
70
1
43
0.0
10
59.387500117564542
20
6.5056034004903829
42
0.41421356237315748
10
58.8875001175645
20
7.0056034004903189
10
45.887500117564514
20
7.005603400490461
42
0.41421356237315748
10
45.3875001175645
20
6.5056034004904895
10
45.387500117564379
20
-6.4943965995094199
42
0.41421356237315227
10
45.887500117564514
20
-6.9943965995095958
10
58.887500117564606
20
-6.9943965995095603
42
0.41421356237287649
10
59.387500117564613
20
-6.4943965995095887
0
LWPOLYLINE
5
158
100
AcDbEntity
8
0
100
AcDbPolyline
90
8
70
1
43
0.0
10
83.987500117564608
20
7.0056034004902834
10
96.987500117564522
20
7.0056034004905143
42
-0.41421356237314705
10
97.487500117564537
20
6.505603400490596
10
97.487500117564451
20
-6.4943965995096953
42
-0.41421356237303258
10
96.987500117564522
20
-6.9943965995097468
10
83.987500117564622
20
-6.9943965995096491
42
-0.41421356237320428
10
83.487500117564664
20
-6.4943965995097042
10
83.487500117564622
20
6.5056034004904895
42
-0.4142135623730846
0
LWPOLYLINE
5
159
100
AcDbEntity
8
0
100
AcDbPolyline
90
8
70
1
43
0.0
10
135.58750011697123
20
-31.594396598916195
42
0.41421356237309503
10
135.08750011697126
20
-31.094396598916219
10
122.08750011697111
20
-31.094396598916475
42
0.41421356237298057
10
121.58750011697121
20
-31.594396598916301
10
121.58750011697126
20
-44.594396598916248
42
0.414213562373069
10
122.0875001169712
20
-45.094396598916134
10
135.08750011697126
20
-45.094396598916532
42
0.41421356237313667
10
135.58750011697123
20
-44.594396598916134
0
LWPOLYLINE
5
160
100
AcDbEntity
8
0
100
AcDbPolyline
90
8
70
1
43
0.0
10
97.77500011697127
20
-44.594396598916333
42
0.41421356237297535
10
98.275000116971199
20
-45.094396598916276
10
111.27500011697121
20
-45.094396598916539
42
0.41421356237315748
10
111.7750001169712
20
-44.594396598916347
10
111.77500011697128
20
-31.594396598916504
42
0.41421356237315227
10
111.27500011697121
20
-31.094396598916294
10
98.275000116971313
20
-31.094396598916497
42
0.4142135623730222
10
97.775000116971313
20
-31.594396598916195
0
LWPOLYLINE
5
161
100
AcDbEntity
8
0
100
AcDbPolyline
90
8
70
1
43
0.0
10
3.0250001175644137
20
26.055603400490401
10
16.025000117564403
20
26.055603400490483
42
-0.41421356237309503
10
16.525000117564488
20
25.555603400490394
10
16.525000117564321
20
12.555603400490494
42
-0.41421356237309503
10
16.025000117564403
20
12.055603400490575
10
3.0250001175644137
20
12.055603400490362
42
-0.41421356237315227
10
2.5250001175643888
20
12.555603400490485
10
2.5250001175644066
20
25.555603400490394
42
-0.41421356237309503
0
LWPOLYLINE
5
162
100
AcDbEntity
8
0
100
AcDbPolyline
90
8
70
1
43
0.0
10
20.787500117564388
20
-6.9943965995096136
42
0.4142135623730378
10
21.287500117564484
20
-6.4943965995096153
10
21.287500117564313
20
6.5056034004903829
42
0.41421356237309503
10
20.787500117564388
20
7.0056034004902834
10
7.7875001175643987
20
7.005603400490461
42
0.41421356237309503
10
7.2875001175643916
20
6.5056034004903829
10
7.2875001175644005
20
-6.4943965995096153
42
0.4142135623730378
10
7.7875001175643987
20
-6.9943965995094892
0
LWPOLYLINE
5
163
100
AcDbEntity
8
0
100
AcDbPolyline
90
8
70
1
43
0.0
10
11.762500117564425
20
-12.544396599509602
42
0.4142135623730378
10
11.262500117564382
20
-12.044396599509657
10
-1.7374998824356069
20
-12.044396599509657
42
0.41421356237303258
10
-2.237499882435614
20
-12.544396599509522
10
-2.2374998824356811
20
-25.544396599509493
42
0.41421356237309503
10
-1.7374998824356069
20
-26.044396599509607
10
11.262500117564382
20
-26.044396599509572
42
0.41421356237309503
10
11.76250011756439
20
-25.5443965995096
0
LWPOLYLINE
5
164
100
AcDbEntity
8
0
100
AcDbPolyline
90
8
70
1
43
0.0
10
-140.3499998830286
20
31.605603401083712
42
0.4142135623730378
10
-139.84999988302854
20
31.105603401083741
10
-126.84999988302857
20
31.10560340108373
42
0.41421356237309503
10
-126.3499998830286
20
31.605603401083702
10
-126.3499998830285
20
44.605603401083812
42
0.41421356237303258
10
-126.84999988302857
20
45.105603401083783
10
-139.84999988302854
20
45.105603401083826
42
0.41421356237309503
10
-140.3499998830286
20
44.605603401083812
0
LWPOLYLINE
5
165
100
AcDbEntity
8
0
100
AcDbPolyline
90
8
70
1
43
0.0
10
-107.7999998830286
20
31.105603401083695
10
-120.79999988302856
20
31.105603401083712
42
-0.4142135623730378
10
-121.29999988302868
20
31.605603401083712
10
-121.29999988302858
20
44.605603401083712
42
-0.41421356237309503
10
-120.79999988302858
20
45.105603401083712
10
-107.7999998830286
20
45.105603401083826
42
-0.41421356237315748
10
-107.29999988302859
20
44.605603401083712
10
-107.29999988302859
20
31.605603401083702
42
-0.41421356237309503
0
LWPOLYLINE
5
166
100
AcDbEntity
8
0
100
AcDbPolyline
90
12
70
1
43
0.0
10
-112.60937488273262
20
-3.9943965992129016
10
-115.10937488273258
20
-3.9943965992129371
42
-0.41421356237309503
10
-117.10937488273261
20
-1.9943965992129087
10
-117.10937488273252
20
3.5056034007870984
42
-0.41421356237309503
10
-116.60937488273257
20
4.0056034007870522
10
-116.1093748827326
20
4.00560340078707
42
-0.41421356237309503
10
-115.60937488273262
20
3.5056034007870984
10
-115.6093748827326
20
-1.9943965992129087
42
0.41421356237309503
10
-115.10937488273258
20
-2.4943965992128097
10
-112.60937488273264
20
-2.4943965992129513
42
-0.4142135623730378
10
-112.10937488273265
20
-2.9943965992128252
10
-112.10937488273261
20
-3.4943965992128945
42
-0.41421356237309503
0
ARC
5
167
100
AcDbEntity
8
0
100
AcDbCircle
10
-113.53164958780559
20
-51.989991063850965
30
0
40
2.0000000000023146
210
-1.2490008602665579e-15
220
-3.2558168237112531e-19
230
1
100
AcDbArc
50
180.01493550278713
51
269.99999999994219
0
LINE
5
168
100
AcDbEntity
8
0
100
AcDbLine
10
-113.53164958780761
20
-53.989991063853282
30
-6.5116336726190393e-19
11
-90.095287882397614
21
-53.989991063853168
31
0
0
ARC
5
169
100
AcDbEntity
8
0
100
AcDbCircle
10
-90.095287882400598
20
-51.989991063849516
30
0
40
2.0000000000036522
210
0
220
0
230
1
100
AcDbArc
50
-89.999999999914507
51
0
0
LINE
5
170
100
AcDbEntity
8
0
100
AcDbLine
10
-88.095287882396946
20
-51.989991063849516
30
3.6239487510766104e-27
11
-88.095287882397614
21
-50.094396598916319
31
9.9920072216264089e-15
0
ARC
5
171
100
AcDbEntity
8
0
100
AcDbCircle
10
-85.095287882397614
20
-50.094396598916319
30
9.9920072216264089e-15
40
2.9999999999999982
210
0
220
-0
230
1
100
AcDbArc
50
90
51
180
0
LINE
5
172
100
AcDbEntity
8
0
100
AcDbLine
10
-85.095287882397614
20
-47.094396598916319
30
9.9920072216264089e-15
11
-50.786919544476575
21
-47.094396598916376
31
9.9920072216264089e-15
0
ARC
5
173
100
AcDbEntity
8
0
100
AcDbCircle
10
-50.786919544476575
20
-50.09439659891639
30
9.9920072216264089e-15
40
3.0000000000000151
210
0
220
-0
230
1
100
AcDbArc
50
0.0090244015451351831
51
90
0
LINE
5
174
100
AcDbEntity
8
0
100
AcDbLine
10
-47.786919581688551
20
-50.093924082358399
30
9.9920072216264089e-15
11
-47.786620863867611
21
-51.990478684738179
31
0
0
ARC
5
175
100
AcDbEntity
8
0
100
AcDbCircle
10
-45.786620931815577
20
-51.989957337344975
30
0
40
2.000000000002812
210
0
220
0
230
1
100
AcDbArc
50
180.01493550278713
51
269.99999999994179
0
LINE
5
176
100
AcDbEntity
8
0
100
AcDbLine
10
-45.786620931817609
20
-53.989957337347285
30
-6.5116336726148716e-19
11
-22.350259226407605
21
-53.989957337347136
31
0
0
ARC
5
177
100
AcDbEntity
8
0
100
AcDbCircle
10
-22.350259226410625
20
-51.989957337343483
30
0
40
2.0000000000036522
210
0
220
0
230
1
100
AcDbArc
50
-89.999999999913499
51
0
0
LINE
5
178
100
AcDbEntity
8
0
100
AcDbLine
10
-20.350259226406973
20
-51.989957337343483
30
3.6239487510766743e-27
11
-20.350259226407612
21
-50.094396598916461
31
9.9920072216264089e-15
0
ARC
5
179
100
AcDbEntity
8
0
100
AcDbCircle
10
-17.350259226407605
20
-50.094396598916461
30
9.9920072216264089e-15
40
2.9999999999999982
210
0
220
-0
230
1
100
AcDbArc
50
90
51
180
0
LINE
5
180
100
AcDbEntity
8
0
100
AcDbLine
10
-17.350259226407605
20
-47.094396598916461
30
9.9920072216264089e-15
11
17.349673957981402
21
-47.094396598916518
31
9.9920072216264089e-15
0
ARC
5
181
100
AcDbEntity
8
0
100
AcDbCircle
10
17.349673957981402
20
-50.094396598916532
30
9.9920072216264089e-15
40
2.9999999999999898
210
0
220
-0
230
1
100
AcDbArc
50
0.0090244012220425333
51
90
0
LINE
5
182
100
AcDbEntity
8
0
100
AcDbLine
10
20.349673920769412
20
-50.093924082375452
30
9.9920072216264089e-15
11
20.3499726438924
21
-51.990512411245135
31
0
0
ARC
5
183
100
AcDbEntity
8
0
100
AcDbCircle
10
22.349972575944399
20
-51.98999106385051
30
0
40
2.0000000000027764
210
0
220
0
230
1
100
AcDbArc
50
180.0149355028359
51
269.99999999997152
0
LINE
5
184
100
AcDbEntity
8
0
100
AcDbLine
10
22.349972575943404
20
-53.989991063853111
30
-6.5116336774931982e-19
11
45.786334281352694
21
-53.989991063853168
31
0
0
ARC
5
185
100
AcDbEntity
8
0
100
AcDbCircle
10
45.786334281350406
20
-51.989991063850866
30
0
40
2.0000000000023022
210
0
220
0
230
1
100
AcDbArc
50
-89.999999999934445
51
0
0
LINE
5
186
100
AcDbEntity
8
0
100
AcDbLine
10
47.786334281352708
20
-51.989991063850866
30
2.2089295023377672e-27
11
47.786334281352595
21
-50.094396598916603
31
9.9920072216264089e-15
0
ARC
5
187
100
AcDbEntity
8
0
100
AcDbCircle
10
50.786334281352495
20
-50.094396598916603
30
9.9920072216264089e-15
40
2.9999999999999982
210
0
220
-0
230
1
100
AcDbArc
50
90
51
180
0
LINE
5
188
100
AcDbEntity
8
0
100
AcDbLine
10
50.786334281352495
20
-47.094396598916603
30
9.9920072216264089e-15
11
85.103831441342408
21
-47.09439659891666
31
9.9920072216264089e-15
0
ARC
5
189
100
AcDbEntity
8
0
100
AcDbCircle
10
85.103831441342308
20
-50.094396598916674
30
9.9920072216264089e-15
40
2.9999999999999973
210
0
220
-0
230
1
100
AcDbArc
50
0.0090244015451351831
51
89.999999999998096
0
LINE
5
190
100
AcDbEntity
8
0
100
AcDbLine
10
88.103831404130318
20
-50.093924082358676
30
9.9920072216264089e-15
11
88.104130124876207
21
-51.990497249143544
31
0
0
ARC
5
191
100
AcDbEntity
8
0
100
AcDbCircle
10
90.104130056927701
20
-51.989975901750341
30
0
40
2.0000000000022791
210
0
220
0
230
1
100
AcDbArc
50
180.01493550278713
51
269.99999999995111
0
LINE
5
192
100
AcDbEntity
8
0
100
AcDbLine
10
90.104130056925996
20
-53.989975901752658
30
-6.5116336686198766e-19
11
113.5404917623361
21
-53.989975901752501
31
0
0
ARC
5
193
100
AcDbEntity
8
0
100
AcDbCircle
10
113.54049176233241
20
-51.989975901748849
30
0
40
2.0000000000036522
210
0
220
0
230
1
100
AcDbArc
50
270.00000000010584
51
360
0
LINE
5
194
100
AcDbEntity
8
0
100
AcDbLine
10
115.54049176233606
20
-51.989975901748863
30
3.5894360864745357e-27
11
115.54049176233602
21
-50.094396598916745
31
9.9920072216264089e-15
0
ARC
5
195
100
AcDbEntity
8
0
100
AcDbCircle
10
118.540491762336
20
-50.094396598916745
30
9.9920072216264089e-15
40
2.9999999999999982
210
0
220
-0
230
1
100
AcDbArc
50
90
51
180
0
LINE
5
196
100
AcDbEntity
8
0
100
AcDbLine
10
118.540491762336
20
-47.094396598916745
30
9.9920072216264089e-15
11
141.37499972213493
21
-47.094396598916774
31
-2.6006974351844292e-13
0
ARC
5
197
100
AcDbEntity
8
0
100
AcDbCircle
10
141.37499972213493
20
-45.594396598916745
30
7.0998762424778761e-13
40
1.5000000000000213
210
-7.6585246215204386e-27
220
-6.467049118441445e-13
230
1
100
AcDbArc
50
-90
51
1.4837004097464935e-05
0
LINE
5
198
100
AcDbEntity
8
0
100
AcDbLine
10
142.8749997221349
20
-45.594396210484888
30
7.099878742986018e-13
11
142.87497610961753
21
45.605603821681001
31
3.9968028886505635e-14
0
ARC
5
199
100
AcDbEntity
8
0
100
AcDbCircle
10
141.37497610961756
20
45.605603433317171
30
1.9984014443252818e-14
40
1.5000000000000182
210
-1.3322676295501269e-14
220
-3.4493637278384493e-21
230
1
100
AcDbArc
50
1.4837004097464935e-05
51
90
0
LINE
5
200
100
AcDbEntity
8
0
100
AcDbLine
10
141.37497610961756
20
47.105603433317199
30
1.9984021126394774e-14
11
121.84520345906272
21
47.105603433317199
31
-7.5023320889044953e-13
0
ARC
5
201
100
AcDbEntity
8
0
100
AcDbCircle
10
121.84520345906272
20
50.105603433317199
30
-7.5023320889044953e-13
40
3.0000000000000071
210
0
220
0
230
1
100
AcDbArc
50
180
51
270
0
LINE
5
202
100
AcDbEntity
8
0
100
AcDbLine
10
118.8452034590627
20
50.105603433317199
30
-7.5023320889044953e-13
11
118.8452034590627
21
51.989991063839881
31
0
0
ARC
5
203
100
AcDbEntity
8
0
100
AcDbCircle
10
116.845203459066
20
51.989991063845991
30
0
40
1.9999999999967066
210
0
220
0
230
1
100
AcDbArc
50
0
51
90.000000000100158
0
LINE
5
204
100
AcDbEntity
8
0
100
AcDbLine
10
116.8452034590625
20
53.989991063842751
30
-5.3370690803322367e-27
11
93.409157279892696
21
53.989991063843291
31
0
0
ARC
5
205
100
AcDbEntity
8
0
100
AcDbCircle
10
93.409157279883601
20
51.989991063852003
30
0
40
1.9999999999912887
210
0
220
-0
230
1
100
AcDbArc
50
89.999999999739458
51
180
0
LINE
5
206
100
AcDbEntity
8
0
100
AcDbLine
10
91.409157279892725
20
51.989991063852003
30
3.7864813588955939e-27
11
91.409157279892895
21
50.10560343331727
31
-7.5023320889044953e-13
0
ARC
5
207
100
AcDbEntity
8
0
100
AcDbCircle
10
88.409157279892909
20
50.10560343331727
30
-7.5023320889044953e-13
40
3.0000000000000071
210
0
220
0
230
1
100
AcDbArc
50
-90
51
0
0
LINE
5
208
100
AcDbEntity
8
0
100
AcDbLine
10
88.409157279892909
20
47.10560343331727
30
-7.5023320889044953e-13
11
54.213894540002698
21
47.105603433317199
31
-7.5023320889044953e-13
0
ARC
5
209
100
AcDbEntity
8
0
100
AcDbCircle
10
54.213894540002698
20
50.105603433317199
30
-7.5023320889044953e-13
40
3.0000000000000071
210
0
220
0
230
1
100
AcDbArc
50
180
51
270
0
LINE
5
210
100
AcDbEntity
8
0
100
AcDbLine
10
51.213894540002691
20
50.105603433317199
30
-7.5023320889044953e-13
11
51.213894540002713
21
51.989991063839881
31
0
0
ARC
5
211
100
AcDbEntity
8
0
100
AcDbCircle
10
49.213894540002002
20
51.989991063852102
30
0
40
2.0000000000007034
210
0
220
0
230
1
100
AcDbArc
50
0
51
89.999999999977007
0
LINE
5
212
100
AcDbEntity
8
0
100
AcDbLine
10
49.213894540002805
20
53.989991063852862
30
-7.9131759785562071e-27
11
25.777347029412407
21
53.989991063843291
31
0
0
ARC
5
213
100
AcDbEntity
8
0
100
AcDbCircle
10
25.7773470294104
20
51.989991063844187
30
0
40
1.9999999999991047
210
0
220
-0
230
1
100
AcDbArc
50
89.999999999942503
51
179.9737925035146
0
SPLINE
5
214
100
AcDbEntity
8
0
100
AcDbSpline
70
0
71
3
72
10
73
6
74
0
42
0.000000001
43
0.0000000001
44
0.0000000001
40
-0.18459021554509514
40
-0.18459021554509514
40
-0.18459021554509514
40
-0.18459021554509514
40
-0.09050870043401138
40
-0.09050870043401138
40
-0
40
-0
40
-0
40
-0
10
23.777347238632398
20
51.99090587801669
30
0
10
23.777284460696571
20
51.667365113864406
30
0
10
23.777217087364111
20
51.375876092854341
30
0
10
23.777016407395788
20
50.731887701349208
30
0
10
23.776892448534532
20
50.406088951052382
30
0
10
23.776770751960346
20
50.104393307483704
30
0
0
ARC
5
215
100
AcDbEntity
8
0
100
AcDbCircle
10
20.776770995369933
20
50.105603433975347
30
-1.7486012637846216e-14
40
3.0000000006581651
210
-5.3248896573539677e-25
220
2.425999934100211e-15
230
1
100
AcDbArc
50
270.00000001257598
51
359.97688828583199
0
LINE
5
216
100
AcDbEntity
8
0
100
AcDbLine
10
20.776770996028411
20
47.105603433317178
30
-1.0208012833948875e-14
11
-20.777677758437587
21
47.105603433317199
31
-7.5023320889044953e-13
0
ARC
5
217
100
AcDbEntity
8
0
100
AcDbCircle
10
-20.777677758437587
20
50.105603433317199
30
-7.5023320889044953e-13
40
3.0000000000000115
210
0
220
0
230
1
100
AcDbArc
50
180
51
270
0
LINE
5
218
100
AcDbEntity
8
0
100
AcDbLine
10
-23.777677758437598
20
50.105603433317199
30
-7.5023320889044953e-13
11
-23.777677758437594
21
51.989991063839881
31
0
0
ARC
5
219
100
AcDbEntity
8
0
100
AcDbCircle
10
-25.777677758422595
20
51.989991063847597
30
0
40
1.9999999999850004
210
0
220
0
230
1
100
AcDbArc
50
0
51
90.000000000429495
0
LINE
5
220
100
AcDbEntity
8
0
100
AcDbLine
10
-25.777677758437587
20
53.989991063833017
30
-1.8873395185082025e-26
11
-49.214059269567599
21
53.989991063843291
31
0
0
ARC
5
221
100
AcDbEntity
8
0
100
AcDbCircle
10
-49.214059269568594
20
51.989991063837181
30
0
40
2.0000000000061036
210
0
220
-0
230
1
100
AcDbArc
50
89.999999999971507
51
179.99593777782789
0
SPLINE
5
222
100
AcDbEntity
8
0
100
AcDbSpline
70
0
71
3
72
8
73
4
74
0
42
0.000000001
43
0.0000000001
44
0.0000000001
40
-1.9845320802348401
40
-1.9845320802348401
40
-1.9845320802348401
40
-1.9845320802348401
40
-0.85704028589971304
40
-0.85704028589971304
40
-0.85704028589971304
40
-0.85704028589971304
10
-51.214059264547615
20
51.990132862140911
30
0
10
-51.214111250738611
20
51.256891385110507
30
0
10
-51.214186187402589
20
50.672178428211595
30
0
10
-51.214269778123608
20
50.10516116783721
30
0
0
ARC
5
223
100
AcDbEntity
8
0
100
AcDbCircle
10
-54.214269746224147
20
50.105603434017723
30
-7.4940054162198066e-14
40
3.0000000007004513
210
-5.0316117858604651e-24
220
2.1546825050552464e-14
230
1
100
AcDbArc
50
270.00000001337952
51
359.99155333813155
0
LINE
5
224
100
AcDbEntity
8
0
100
AcDbLine
10
-54.214269745523595
20
47.105603433317278
30
-1.029957899544818e-14
11
-88.408535686767578
21
47.105603433317199
31
-7.5023320889044953e-13
0
ARC
5
225
100
AcDbEntity
8
0
100
AcDbCircle
10
-88.408535686767578
20
50.105603433317199
30
-7.5023320889044953e-13
40
3.0000000000000071
210
0
220
0
230
1
100
AcDbArc
50
180
51
270
0
LINE
5
226
100
AcDbEntity
8
0
100
AcDbLine
10
-91.408535686767593
20
50.105603433317199
30
-7.5023320889044953e-13
11
-91.408535686767593
21
51.989991063842908
31
0
0
ARC
5
227
100
AcDbEntity
8
0
100
AcDbCircle
10
-93.408535686766584
20
51.989991063843192
30
0
40
1.9999999999989981
210
0
220
0
230
1
100
AcDbArc
50
0
51
90.000000000028507
0
LINE
5
228
100
AcDbEntity
8
0
100
AcDbLine
10
-93.408535686767578
20
53.989991063842794
30
-5.3243012485892716e-28
11
-116.84458186593764
21
53.989991063843291
31
0
0
ARC
5
229
100
AcDbEntity
8
0
100
AcDbCircle
10
-116.84458186593764
20
51.989991063843291
30
0
40
1.9999999999999929
210
0
220
-0
230
1
100
AcDbArc
50
90
51
180
0
LINE
5
230
100
AcDbEntity
8
0
100
AcDbLine
10
-118.84458186593719
20
51.989991063843291
30
1.182781496179243e-28
11
-118.84458186633461
21
50.105603432684603
31
-7.5023320889044953e-13
0
ARC
5
231
100
AcDbEntity
8
0
100
AcDbCircle
10
-121.84458186633462
20
50.10560343331727
30
-7.5023320889044953e-13
40
3.0000000000000071
210
0
220
0
230
1
100
AcDbArc
50
270
51
360
0
LINE
5
232
100
AcDbEntity
8
0
100
AcDbLine
10
-121.84458186633462
20
47.10560343331727
30
-7.5023320889044953e-13
11
-141.37499988302858
21
47.105603433317199
31
5.879741138414829e-12
0
ARC
5
233
100
AcDbEntity
8
0
100
AcDbCircle
10
-141.37499988302858
20
45.605603433317285
30
-1.7813852239316921e-10
40
1.4999999999999147
210
0
220
-3.906504749314606e-12
230
1
100
AcDbArc
50
90
51
180
0
LINE
5
234
100
AcDbEntity
8
0
100
AcDbLine
10
-142.87499988302858
20
45.605603433317285
30
1.9984014443253177e-14
11
-142.87499988302559
21
-45.594396598917925
31
-4.0245584642661925e-14
0
ARC
5
235
100
AcDbEntity
8
0
100
AcDbCircle
10
-141.37499988302758
20
-45.594396598917882
30
7.0998762424778761e-13
40
1.4999999999979963
210
-5.0015547259430107e-13
220
-1.1846061260100506e-26
230
1
100
AcDbArc
50
180
51
270
0
LINE
5
236
100
AcDbEntity
8
0
100
AcDbLine
10
-141.37499988302758
20
-47.094396598916163
30
7.0998762424776156e-13
11
-118.5319482057796
21
-47.094396598916234
31
9.9920072216264089e-15
0
ARC
5
237
100
AcDbEntity
8
0
100
AcDbCircle
10
-118.5319482057796
20
-50.094396598916248
30
9.9920072216264089e-15
40
3.0000000000000151
210
1.572815932043098e-15
220
2.4772719371956028e-19
230
1
100
AcDbArc
50
0.0090244015451351831
51
90
0
LINE
5
238
100
AcDbEntity
8
0
100
AcDbLine
10
-115.53194824299156
20
-50.093924082357375
30
5.273559366969492e-15
11
-115.53164951985713
21
-51.990512411244183
31
-2.4980018054065884e-15
0
LWPOLYLINE
5
239
100
AcDbEntity
8
0
100
AcDbPolyline
90
8
70
1
43
0.0
10
136.38175000000095
20
-7.9999999999953886
10
130.38175000000092
20
-7.9999999999952998
42
-0.41421356237309503
10
129.8817500000012
20
-7.4999999999955591
10
129.88175000000123
20
7.500000000005258
42
-0.4142135623730534
10
130.38175000000106
20
8.0000000000051763
10
136.38175000000129
20
8.0000000000052296
42
-0.41421356237309503
10
136.88175000000123
20
7.5000000000052935
10
136.88175000000112
20
-7.4999999999952038
42
-0.41421356237309503
0
LWPOLYLINE
5
240
100
AcDbEntity
8
0
100
AcDbPolyline
90
8
70
1
43
0.0
10
-6.9999999999988383
20
-44.599999999994893
10
-6.9999999999988383
20
-31.599999999994957
42
-0.41421356237299095
10
-6.4999999999988667
20
-31.099999999994949
10
6.5000000000011049
20
-31.099999999995003
42
-0.41421356237307422
10
7.0000000000011635
20
-31.599999999994957
10
7.0000000000011031
20
-44.599999999994928
42
-0.41421356237307422
10
6.5000000000011404
20
-45.09999999999507
10
-6.4999999999988312
20
-45.099999999994935
42
-0.41421356237303258
0
LWPOLYLINE
5
241
100
AcDbEntity
8
0
100
AcDbPolyline
90
8
70
1
43
0.0
10
-60.649999999998855
20
-45.5999999999948
10
-60.649999999998855
20
-30.599999999994871
42
-0.41421356237307422
10
-60.149999999998883
20
-30.099999999994939
10
-54.149999999998798
20
-30.099999999994971
42
-0.41421356237303258
10
-53.649999999998897
20
-30.599999999994907
10
-53.649999999998883
20
-45.5999999999948
42
-0.41421356237309503
10
-54.149999999998869
20
-46.099999999994793
10
-60.149999999998883
20
-46.099999999994772
42
-0.41421356237309503
0
LWPOLYLINE
5
242
100
AcDbEntity
8
0
100
AcDbPolyline
90
8
70
1
43
0.0
10
-130.38174999999885
20
-27.049999999994991
10
-136.3817499999989
20
-27.049999999994991
42
-0.41421356237307422
10
-136.88174999999885
20
-26.549999999994931
10
-136.88174999999885
20
-11.549999999994931
42
-0.4142135623730846
10
-136.38174999999887
20
-11.049999999994924
10
-130.38174999999885
20
-11.049999999994959
42
-0.41421356237311585
10
-129.88174999999885
20
-11.549999999994931
10
-129.88174999999893
20
-26.549999999995002
42
-0.41421356237306384
0
LWPOLYLINE
5
243
100
AcDbEntity
8
0
100
AcDbPolyline
90
8
70
1
43
0.0
10
114.9437500000011
20
7.0000000000053753
10
127.94375000000115
20
7.0000000000050022
42
-0.4142135623730534
10
128.44375000000116
20
6.5000000000049241
10
128.44375000000116
20
-6.4999999999949765
42
-0.41421356237292856
10
127.94375000000115
20
-6.9999999999949836
10
114.9437500000011
20
-6.9999999999950546
42
-0.41421356237311585
10
114.44375000000127
20
-6.4999999999949054
10
114.44375000000119
20
6.500000000004853
42
-0.41421356237294937
0
LWPOLYLINE
5
244
100
AcDbEntity
8
0
100
AcDbPolyline
90
8
70
1
43
0.0
10
53.650000000001214
20
-45.599999999995546
10
53.650000000001221
20
-30.599999999994942
42
-0.41421356237309503
10
54.150000000001256
20
-30.099999999994907
10
60.150000000001199
20
-30.099999999994953
42
-0.41421356237313667
10
60.650000000001221
20
-30.599999999994907
10
60.6500000000011
20
-45.599999999995653
42
-0.41421356237309503
10
60.150000000001128
20
-46.099999999995624
10
54.150000000001256
20
-46.099999999995589
42
-0.41421356237309503
0
LWPOLYLINE
5
245
100
AcDbEntity
8
0
100
AcDbPolyline
90
8
70
1
43
0.0
10
-106.50574999999884
20
-27.04999999999492
10
-112.50574999999886
20
-27.049999999994938
42
-0.41421356237307422
10
-113.0057499999989
20
-26.549999999995002
10
-113.00574999999884
20
-11.54999999999486
42
-0.41421356237307422
10
-112.50574999999886
20
-11.049999999994906
10
-106.50574999999891
20
-11.049999999994871
42
-0.41421356237309503
10
-106.00574999999893
20
-11.54999999999486
10
-106.00574999999886
20
-26.549999999994931
42
-0.41421356237309503
0
LWPOLYLINE
5
246
100
AcDbEntity
8
0
100
AcDbPolyline
90
8
70
1
43
0.0
10
-127.94374999999886
20
-12.049999999994938
10
-114.94374999999893
20
-12.049999999994938
42
-0.41421356237309503
10
-114.44374999999893
20
-12.549999999994945
10
-114.44374999999886
20
-25.549999999994917
42
-0.41421356237311585
10
-114.94374999999893
20
-26.049999999994959
10
-127.94374999999891
20
-26.049999999994942
42
-0.41421356237306384
10
-128.44374999999889
20
-25.549999999994988
10
-128.44374999999889
20
-12.549999999994945
42
-0.41421356237311585
0
LWPOLYLINE
5
247
100
AcDbEntity
8
0
100
AcDbPolyline
90
8
70
1
43
0.0
10
113.0057500000011
20
7.5000000000050804
10
113.00575000000123
20
-7.4999999999948841
42
-0.41421356237315748
10
112.50575000000096
20
-7.9999999999951221
10
106.50575000000123
20
-7.9999999999950333
42
-0.41421356237309503
10
106.00575000000119
20
-7.4999999999949907
10
106.00575000000121
20
7.5000000000050804
42
-0.41421356237309503
10
106.50575000000137
20
8.0000000000052296
10
112.50575000000103
20
8.0000000000051941
42
-0.41421356237311585
0
LWPOLYLINE
5
248
100
AcDbEntity
8
0
100
AcDbPolyline
90
8
70
1
43
0.0
10
33.799873783173474
20
-38.850000190751025
10
51.40000004902015
20
-38.850000190751018
42
-0.41421356237308982
10
51.650000049020157
20
-39.100000190751018
10
51.650000049020157
20
-44.850000190751032
42
-0.41421356237311585
10
51.40000004902015
20
-45.100000190751061
10
39.549873783173616
20
-45.100000190751039
42
-0.19891236737965132
10
39.373097087876985
20
-45.026776886047664
10
33.62309708787685
20
-39.276776886047678
42
-0.66817863791934173
0
LWPOLYLINE
5
249
100
AcDbEntity
8
0
100
AcDbPolyline
90
8
70
1
43
0.0
10
21.100126314867769
20
-45.100000190751039
10
9.2500000490210432
20
-45.100000190751039
42
-0.41421356237310542
10
9.0000000490210397
20
-44.850000190751025
10
9.0000000490210574
20
-39.100000190751025
42
-0.41421356237310936
10
9.2500000490210557
20
-38.850000190751039
10
26.850126314867726
20
-38.850000190751025
42
-0.66817863791930798
10
27.026903010164357
20
-39.276776886047664
10
21.276903010164389
20
-45.026776886047671
42
-0.19891236737968421
0
LWPOLYLINE
5
250
100
AcDbEntity
8
0
100
AcDbPolyline
90
6
70
1
43
0.0
10
31.50177674431729
20
-39.276776886047664
10
36.898223353724006
20
-44.673223495454366
42
-0.66817863791933618
10
36.721446658427396
20
-45.100000190751047
10
31.325000049020648
20
-45.100000190751039
42
-0.41421356237311585
10
31.075000049020652
20
-44.850000190751025
10
31.075000049020648
20
-39.453553581344302
42
-0.66817863791931442
0
LWPOLYLINE
5
251
100
AcDbEntity
8
0
100
AcDbPolyline
90
6
70
1
43
0.0
10
29.575000049020677
20
-39.453553581344295
10
29.575000049020694
20
-44.850000190751032
42
-0.41421356237308982
10
29.325000049020694
20
-45.100000190751039
10
23.928553439613953
20
-45.100000190751018
42
-0.66817863791928522
10
23.751776744317304
20
-44.67322349545438
10
29.148223353724056
20
-39.276776886047692
42
-0.66817863791931331
0
LWPOLYLINE
5
252
100
AcDbEntity
8
0
100
AcDbPolyline
90
6
70
1
43
0.0
10
29.148223353723033
20
-36.923223495454373
10
23.751776744316313
20
-31.526776886047671
42
-0.6681786379193535
10
23.928553439612934
20
-31.100000190750986
10
29.325000049019671
20
-31.100000190751004
42
-0.41421356237311585
10
29.575000049019664
20
-31.350000190751018
10
29.575000049019664
20
-36.746446800157734
42
-0.66817863791930976
0
LWPOLYLINE
5
253
100
AcDbEntity
8
0
100
AcDbPolyline
90
8
70
1
43
0.0
10
39.549873783172551
20
-31.100000190751004
10
51.400000049019276
20
-31.100000190751004
42
-0.41421356237310542
10
51.650000049019276
20
-31.350000190751018
10
51.650000049019262
20
-37.100000190751018
42
-0.41421356237309503
10
51.400000049019276
20
-37.350000190751004
10
33.799873783172593
20
-37.350000190751011
42
-0.66817863791931709
10
33.623097087875962
20
-36.923223495454366
10
39.373097087875934
20
-31.173223495454366
42
-0.19891236737967763
0
LWPOLYLINE
5
254
100
AcDbEntity
8
0
100
AcDbPolyline
90
6
70
1
43
0.0
10
-29.148223304701709
20
-39.276776886047656
10
-23.751776695294989
20
-44.673223495454351
42
-0.66817863791933618
10
-23.928553390591603
20
-45.100000190751039
10
-29.324999999998347
20
-45.100000190751032
42
-0.41421356237311585
10
-29.574999999998344
20
-44.850000190751018
10
-29.574999999998347
20
-39.453553581344295
42
-0.66817863791931442
0
LWPOLYLINE
5
255
100
AcDbEntity
8
0
100
AcDbPolyline
90
8
70
1
43
0.0
10
-39.549873734151227
20
-45.100000190751032
10
-51.399999999997952
20
-45.100000190751032
42
-0.41421356237310542
10
-51.649999999997959
20
-44.850000190751018
10
-51.649999999997938
20
-39.100000190751018
42
-0.41421356237310542
10
-51.399999999997945
20
-38.850000190751032
10
-33.799873734151269
20
-38.850000190751018
42
-0.66817863791930798
10
-33.623097038854638
20
-39.276776886047656
10
-39.37309703885461
20
-45.026776886047664
42
-0.19891236737968421
0
LWPOLYLINE
5
256
100
AcDbEntity
8
0
100
AcDbPolyline
90
6
70
1
43
0.0
10
-31.501776695295966
20
-36.923223495454366
10
-36.898223304702682
20
-31.526776886047664
42
-0.6681786379193535
10
-36.721446609406065
20
-31.100000190750979
10
-31.324999999999328
20
-31.100000190750997
42
-0.41421356237311585
10
-31.074999999999335
20
-31.350000190751008
10
-31.074999999999335
20
-36.746446800157727
42
-0.66817863791930976
0
LWPOLYLINE
5
257
100
AcDbEntity
8
0
100
AcDbPolyline
90
8
70
1
43
0.0
10
-21.100126265846448
20
-31.100000190750997
10
-9.2499999999997229
20
-31.100000190750997
42
-0.41421356237310542
10
-8.9999999999997193
20
-31.350000190751008
10
-8.9999999999997371
20
-37.100000190751011
42
-0.41421356237309503
10
-9.2499999999997229
20
-37.350000190750997
10
-26.850126265846406
20
-37.350000190751004
42
-0.66817863791931709
10
-27.026902961143033
20
-36.923223495454359
10
-21.276902961143062
20
-31.173223495454359
42
-0.19891236737967763
0
SPLINE
5
258
100
AcDbEntity
8
0
100
AcDbSpline
70
0
71
3
72
56
73
52
74
0
42
0.000000001
43
0.0000000001
44
0.0000000001
40
-0.78382793456643696
40
-0.78382793456643696
40
-0.78382793456643696
40
-0.78382793456643696
40
-0.776110065255328
40
-0.776110065255328
40
-0.763171823048993
40
-0.763171823048993
40
-0.73464024823546903
40
-0.73464024823546903
40
-0.70481638849068196
40
-0.70481638849068196
40
-0.67360773106749905
40
-0.67360773106749905
40
-0.638068343732619
40
-0.638068343732619
40
-0.50571290117918399
40
-0.50571290117918399
40
-0.13643481269361801
40
-0.13643481269361801
40
-0.107957701301162
40
-0.107957701301162
40
-0.083272820595464495
40
-0.083272820595464495
40
-0.056422478933057803
40
-0.056422478933057803
40
-0.029404399824743101
40
-0.029404399824743101
40
0
40
0
40
0.0102624702930918
40
0.0102624702930918
40
0.024317122002876598
40
0.024317122002876598
40
0.0395138395846035
40
0.0395138395846035
40
0.054895206836867098
40
0.054895206836867098
40
0.079218832884444104
40
0.079218832884444104
40
0.1567618692271
40
0.1567618692271
40
0.319023486601207
40
0.319023486601207
40
0.33241072834305502
40
0.33241072834305502
40
0.34433604317188998
40
0.34433604317188998
40
0.35712680953466303
40
0.35712680953466303
40
0.37017596425472599
40
0.37017596425472599
40
0.38184796569704599
40
0.38184796569704599
40
0.38184796569704599
40
0.38184796569704599
10
106.07268478424589
20
-50.440009628199519
30
0
10
106.07286122442211
20
-50.51625769994105
30
0
10
106.07268478424589
20
-50.611404146011395
30
0
10
106.07268478424589
20
-50.956280033734359
30
0
10
106.0725575024249
20
-50.987325906059993
30
0
10
106.05472100168799
20
-51.131273718917015
30
0
10
106.0231505578286
20
-51.22451857129748
30
0
10
105.92752211348082
20
-51.394555807171983
30
0
10
105.86301900709961
20
-51.468800341484467
30
0
10
105.71014356787281
20
-51.589870566241999
30
0
10
105.62230048471801
20
-51.634137841729256
30
0
10
105.4264593783744
20
-51.690682849355426
30
0
10
105.3438997446832
20
-51.690009628254515
30
0
10
104.5758009492078
20
-51.690009628254515
30
0
10
103.98413321448049
20
-51.690009628254515
30
0
10
101.7907055453059
20
-51.690009628254515
30
0
10
100.21292491936632
20
-51.690009628254515
30
0
10
98.550624086067202
20
-51.690009628254515
30
0
10
98.434332665031704
20
-51.690325249945147
30
9.9920072216264089e-15
10
98.221983627067829
20
-51.689730546384439
30
9.9920072216264089e-15
10
98.1267464666401
20
-51.670070924823165
30
9.9920072216264089e-15
10
97.94456352848492
20
-51.595778030001128
30
9.9920072216264089e-15
10
97.860826030791017
20
-51.538996741042396
30
1.9984014443252818e-14
10
97.722023255740822
20
-51.399819486129076
30
1.9984014443252818e-14
10
97.668469366146525
20
-51.31866639778076
30
1.9984014443252818e-14
10
97.591895167963898
20
-51.137400007626979
30
1.9984014443252818e-14
10
97.572684783519819
20
-51.038024288847282
30
1.9984014443252818e-14
10
97.572684784486398
20
-50.905801388454549
30
1.9984014443252818e-14
10
97.57146079326921
20
-50.497997229367627
30
-1.0269562977782698e-14
10
97.574675636907315
20
-50.327158240418598
30
-1.0269562977782698e-14
10
97.595922336165188
20
-50.232101160178019
30
-1.0269562977782698e-14
10
97.673116327168714
20
-50.051451777143058
30
-1.0269562977782698e-14
10
97.73094837962951
20
-49.968985729054168
30
0
10
97.871974547097011
20
-49.832466698548018
30
0
10
97.954054845429226
20
-49.780072513089891
30
0
10
98.179887023238095
20
-49.688758760248831
30
0
10
98.295640883751105
20
-49.69000962814755
30
0
10
99.264001872342305
20
-49.69000962814755
30
0
10
99.984286807673115
20
-49.69000962814755
30
0
10
102.1630990797924
20
-49.69000962814755
30
0
10
103.60366895045411
20
-49.69000962814755
30
0
10
105.12900149634891
20
-49.69000962814755
30
0
10
105.2426929510118
20
-49.686055024906409
30
0
10
105.45260640343881
20
-49.69474635229767
30
0
10
105.54736566944869
20
-49.718228393342173
30
0
10
105.72581110222801
20
-49.799474728007681
30
0
10
105.80649101213052
20
-49.85877228182369
30
0
10
105.9397559072405
20
-50.002388350079855
30
0
10
105.9904776708057
20
-50.085756660913688
30
0
10
106.05397482622841
20
-50.253275942159817
30
0
10
106.06550438137381
20
-50.324962907691898
30
0
10
106.07268478424589
20
-50.440009628199519
30
0
0
SPLINE
5
259
100
AcDbEntity
8
0
100
AcDbSpline
70
0
71
3
72
56
73
52
74
0
42
0.000000001
43
0.0000000001
44
0.0000000001
40
-0.78382793463842104
40
-0.78382793463842104
40
-0.78382793463842104
40
-0.78382793463842104
40
-0.77611006532705995
40
-0.77611006532705995
40
-0.76317182311980403
40
-0.76317182311980403
40
-0.73464024830239605
40
-0.73464024830239605
40
-0.70481638855381501
40
-0.70481638855381501
40
-0.673607731127148
40
-0.673607731127148
40
-0.63806834378839605
40
-0.63806834378839605
40
-0.50571290122066503
40
-0.50571290122066503
40
-0.136434812699742
40
-0.136434812699742
40
-0.10795770130485401
40
-0.10795770130485401
40
-0.083272820597385999
40
-0.083272820597385999
40
-0.056422478933863103
40
-0.056422478933863103
40
-0.029404399825004299
40
-0.029404399825004299
40
0
40
0
40
0.010262470293040501
40
0.010262470293040501
40
0.024317122004926799
40
0.024317122004926799
40
0.039513839588752403
40
0.039513839588752403
40
0.054895206842932698
40
0.054895206842932698
40
0.079218832893238195
40
0.079218832893238195
40
0.156761869243527
40
0.156761869243527
40
0.31902348663163799
40
0.31902348663163799
40
0.33241072837448099
40
0.33241072837448099
40
0.34433604320407302
40
0.34433604320407302
40
0.35712680956748899
40
0.35712680956748899
40
0.37017596428801802
40
0.37017596428801802
40
0.38184796573079599
40
0.38184796573079599
40
0.38184796573079599
40
0.38184796573079599
10
38.318527303283417
20
-50.439991063794153
30
0
10
38.318703743459395
20
-50.516239135535471
30
0
10
38.318527303283417
20
-50.611385581605376
30
0
10
38.318527303283417
20
-50.956261469333924
30
0
10
38.318400021462402
20
-50.987307341655836
30
0
10
38.300563520726399
20
-51.131255154509091
30
0
10
38.268993076866394
20
-51.224500006889485
30
0
10
38.173364632519394
20
-51.394537242764414
30
0
10
38.108861526138398
20
-51.468781777077396
30
0
10
37.955986086911402
20
-51.589852001835283
30
0
10
37.868143003756401
20
-51.634119277323038
30
0
10
37.672301897412396
20
-51.690664284949918
30
0
10
37.589742263721391
20
-51.689991063849149
30
0
10
36.8216434682504
20
-51.689991063849149
30
0
10
36.229975733523418
20
-51.689991063849149
30
0
10
34.036548064355401
20
-51.689991063849149
30
0
10
32.458767438415407
20
-51.689991063849149
30
0
10
30.796466605108392
20
-51.689991063849149
30
0
10
30.6801751840724
20
-51.690306685539426
30
9.9920072216264089e-15
10
30.46782614610839
20
-51.689711981979286
30
9.9920072216264089e-15
10
30.372588985680391
20
-51.670052360418723
30
9.9920072216264089e-15
10
30.1904060475254
20
-51.595759465597396
30
9.9920072216264089e-15
10
30.106668549829401
20
-51.538978176639233
30
1.9984014443252818e-14
10
29.967865774778399
20
-51.399800921725131
30
1.9984014443252818e-14
10
29.914311885184404
20
-51.318647833376815
30
1.9984014443252818e-14
10
29.837737687001393
20
-51.13738144322275
30
1.9984014443252818e-14
10
29.818527302556408
20
-51.03800572444284
30
1.9984014443252818e-14
10
29.818527303523403
20
-50.905782824049325
30
1.9984014443252818e-14
10
29.8173033123064
20
-50.49797866495274
30
-1.0269562977782698e-14
10
29.820518155944402
20
-50.327139676015577
30
-1.0269562977782698e-14
10
29.841764855201411
20
-50.232082595774571
30
-1.0269562977782698e-14
10
29.918958846205399
20
-50.051433212739042
30
-1.0269562977782698e-14
10
29.976790898664412
20
-49.968967164649754
30
0
10
30.1178170661324
20
-49.832448134143434
30
0
10
30.199897364464388
20
-49.780053948684881
30
0
10
30.425729542273405
20
-49.68874019584382
30
0
10
30.541483402786405
20
-49.689991063742184
30
0
10
31.509844391374404
20
-49.689991063742184
30
0
10
32.230129326705409
20
-49.689991063742184
30
0
10
34.408941598819411
20
-49.689991063742184
30
0
10
35.849511469481413
20
-49.689991063742184
30
0
10
37.374844015383403
20
-49.689991063742184
30
0
10
37.488535470046415
20
-49.686036460501043
30
0
10
37.698448922473403
20
-49.694727787891949
30
0
10
37.793208188483405
20
-49.718209828936239
30
0
10
37.971653621263414
20
-49.799456163601462
30
0
10
38.052333531166397
20
-49.858753717417258
30
0
10
38.185598426276414
20
-50.002369785672954
30
0
10
38.236320189841408
20
-50.085738096506546
30
0
10
38.299817345265396
20
-50.253257377753485
30
0
10
38.311346900410399
20
-50.324944343286063
30
0
10
38.318527303283417
20
-50.439991063794153
30
0
0
SPLINE
5
260
100
AcDbEntity
8
0
100
AcDbSpline
70
0
71
3
72
56
73
52
74
0
42
0.000000001
43
0.0000000001
44
0.0000000001
40
-0.78382793456643696
40
-0.78382793456643696
40
-0.78382793456643696
40
-0.78382793456643696
40
-0.776110065255328
40
-0.776110065255328
40
-0.763171823048993
40
-0.763171823048993
40
-0.73464024823546903
40
-0.73464024823546903
40
-0.70481638849068196
40
-0.70481638849068196
40
-0.67360773106749905
40
-0.67360773106749905
40
-0.638068343732619
40
-0.638068343732619
40
-0.50571290117918399
40
-0.50571290117918399
40
-0.13643481269361801
40
-0.13643481269361801
40
-0.107957701301162
40
-0.107957701301162
40
-0.083272820595464495
40
-0.083272820595464495
40
-0.056422478933057803
40
-0.056422478933057803
40
-0.029404399824743101
40
-0.029404399824743101
40
0
40
0
40
0.0102624702930918
40
0.0102624702930918
40
0.024317122002876598
40
0.024317122002876598
40
0.0395138395846035
40
0.0395138395846035
40
0.054895206836867098
40
0.054895206836867098
40
0.079218832884444104
40
0.079218832884444104
40
0.1567618692271
40
0.1567618692271
40
0.319023486601207
40
0.319023486601207
40
0.33241072834305502
40
0.33241072834305502
40
0.34433604317188998
40
0.34433604317188998
40
0.35712680953466303
40
0.35712680953466303
40
0.37017596425472599
40
0.37017596425472599
40
0.38184796569704599
40
0.38184796569704599
40
0.38184796569704599
40
0.38184796569704599
10
-97.563094860487581
20
-50.440024790300185
30
0
10
-97.56291842031159
20
-50.516272862041674
30
0
10
-97.563094860487581
20
-50.611419308112048
30
0
10
-97.563094860487581
20
-50.956295195835025
30
0
10
-97.563222142308575
20
-50.98734106816066
30
0
10
-97.581058643045623
20
-51.131288881017682
30
0
10
-97.612629086904604
20
-51.224533733398104
30
0
10
-97.708257531252599
20
-51.39457096927265
30
0
10
-97.77276063763361
20
-51.468815503585134
30
0
10
-97.925636076860613
20
-51.589885728342665
30
0
10
-98.013479160015592
20
-51.634153003829923
30
0
10
-98.209320266358603
20
-51.690698011456092
30
0
10
-98.291879900050617
20
-51.690024790355181
30
0
10
-99.059978695525587
20
-51.690024790355181
30
0
10
-99.651646430252597
20
-51.690024790355181
30
0
10
-101.84507409942762
20
-51.690024790355181
30
0
10
-103.42285472536661
20
-51.690024790355181
30
0
10
-105.0851555586666
20
-51.690024790355181
30
0
10
-105.20144697970161
20
-51.690340412045813
30
9.9920072216264089e-15
10
-105.41379601766559
20
-51.689745708485106
30
9.9920072216264089e-15
10
-105.50903317809359
20
-51.670086086923831
30
9.9920072216264089e-15
10
-105.6912161162486
20
-51.595793192101794
30
9.9920072216264089e-15
10
-105.77495361394261
20
-51.539011903143063
30
1.9984014443252818e-14
10
-105.9137563889926
20
-51.399834648229742
30
1.9984014443252818e-14
10
-105.96731027858661
20
-51.318681559881426
30
1.9984014443252818e-14
10
-106.04388447676962
20
-51.137415169727646
30
1.9984014443252818e-14
10
-106.0630948612136
20
-51.038039450947949
30
1.9984014443252818e-14
10
-106.06309486024662
20
-50.905816550555215
30
1.9984014443252818e-14
10
-106.06431885146458
20
-50.498012391468293
30
-1.0269562977782698e-14
10
-106.06110400782561
20
-50.327173402519264
30
-1.0269562977782698e-14
10
-106.03985730856861
20
-50.232116322278685
30
-1.0269562977782698e-14
10
-105.96266331756462
20
-50.051466939243724
30
-1.0269562977782698e-14
10
-105.90483126510358
20
-49.969000891154835
30
0
10
-105.76380509763661
20
-49.832481860648684
30
0
10
-105.68172479930462
20
-49.780087675190558
30
0
10
-105.45589262149561
20
-49.688773922349498
30
0
10
-105.34013876098263
20
-49.690024790248216
30
0
10
-104.37177777239063
20
-49.690024790248216
30
0
10
-103.65149283706062
20
-49.690024790248216
30
0
10
-101.47268056494062
20
-49.690024790248216
30
0
10
-100.03211069427961
20
-49.690024790248216
30
0
10
-98.506778148384612
20
-49.690024790248216
30
0
10
-98.3930866937216
20
-49.686070187007076
30
0
10
-98.183173241294611
20
-49.694761514398294
30
0
10
-98.088413975284624
20
-49.718243555442839
30
0
10
-97.909968542505595
20
-49.799489890108305
30
0
10
-97.829288632602612
20
-49.858787443924356
30
0
10
-97.696023737492595
20
-50.002403512180521
30
0
10
-97.645301973927602
20
-50.085771823014355
30
0
10
-97.581804818504608
20
-50.253291104260484
30
0
10
-97.570275263359591
20
-50.324978069792564
30
0
10
-97.563094860487581
20
-50.440024790300185
30
0
0
SPLINE
5
261
100
AcDbEntity
8
0
100
AcDbSpline
70
0
71
3
72
56
73
52
74
0
42
0.000000001
43
0.0000000001
44
0.0000000001
40
-0.78382793456643696
40
-0.78382793456643696
40
-0.78382793456643696
40
-0.78382793456643696
40
-0.776110065255328
40
-0.776110065255328
40
-0.763171823048993
40
-0.763171823048993
40
-0.73464024823546903
40
-0.73464024823546903
40
-0.70481638849068196
40
-0.70481638849068196
40
-0.67360773106749905
40
-0.67360773106749905
40
-0.638068343732619
40
-0.638068343732619
40
-0.50571290117918399
40
-0.50571290117918399
40
-0.13643481269361801
40
-0.13643481269361801
40
-0.107957701301162
40
-0.107957701301162
40
-0.083272820595464495
40
-0.083272820595464495
40
-0.056422478933057803
40
-0.056422478933057803
40
-0.029404399824743101
40
-0.029404399824743101
40
0
40
0
40
0.0102624702930918
40
0.0102624702930918
40
0.024317122002876598
40
0.024317122002876598
40
0.0395138395846035
40
0.0395138395846035
40
0.054895206836867098
40
0.054895206836867098
40
0.079218832884444104
40
0.079218832884444104
40
0.1567618692271
40
0.1567618692271
40
0.319023486601207
40
0.319023486601207
40
0.33241072834305502
40
0.33241072834305502
40
0.34433604317188998
40
0.34433604317188998
40
0.35712680953466303
40
0.35712680953466303
40
0.37017596425472599
40
0.37017596425472599
40
0.38184796569704599
40
0.38184796569704599
40
0.38184796569704599
40
0.38184796569704599
10
-29.818066204497615
20
-50.439991063794153
30
0
10
-29.817889764321617
20
-50.516239135535685
30
0
10
-29.818066204497615
20
-50.611385581606015
30
0
10
-29.818066204497615
20
-50.956261469328993
30
0
10
-29.818193486318609
20
-50.987307341654628
30
0
10
-29.836029987055586
20
-51.131255154511649
30
0
10
-29.867600430914596
20
-51.224500006892114
30
0
10
-29.963228875262597
20
-51.394537242766617
30
0
10
-30.027731981643608
20
-51.468781777079101
30
0
10
-30.180607420870604
20
-51.589852001836633
30
0
10
-30.268450504025619
20
-51.63411927732389
30
0
10
-30.464291610368601
20
-51.69066428495006
30
0
10
-30.54685124406058
20
-51.689991063849149
30
0
10
-31.314950039535585
20
-51.689991063849149
30
0
10
-31.906617774262624
20
-51.689991063849149
30
0
10
-34.10004544343758
20
-51.689991063849149
30
0
10
-35.677826069376607
20
-51.689991063849149
30
0
10
-37.340126902676602
20
-51.689991063849149
30
0
10
-37.456418323711574
20
-51.690306685539781
30
9.9920072216264089e-15
10
-37.668767361675592
20
-51.689711981979073
30
9.9920072216264089e-15
10
-37.76400452210359
20
-51.670052360417799
30
9.9920072216264089e-15
10
-37.946187460258599
20
-51.595759465595762
30
9.9920072216264089e-15
10
-38.029924957952602
20
-51.538978176637031
30
1.9984014443252818e-14
10
-38.168727733002598
20
-51.39980092172371
30
1.9984014443252818e-14
10
-38.222281622596611
20
-51.318647833375394
30
1.9984014443252818e-14
10
-38.298855820779579
20
-51.137381443221614
30
1.9984014443252818e-14
10
-38.31806620522363
20
-51.038005724441916
30
1.9984014443252818e-14
10
-38.318066204256581
20
-50.905782824049183
30
1.9984014443252818e-14
10
-38.319290195474608
20
-50.497978664962261
30
-1.0269562977782698e-14
10
-38.316075351835593
20
-50.327139676013232
30
-1.0269562977782698e-14
10
-38.294828652578602
20
-50.232082595772653
30
-1.0269562977782698e-14
10
-38.217634661574579
20
-50.051433212737692
30
-1.0269562977782698e-14
10
-38.159802609113612
20
-49.968967164648802
30
0
10
-38.018776441646608
20
-49.832448134142652
30
0
10
-37.936696143314578
20
-49.780053948684525
30
0
10
-37.710863965505595
20
-49.688740195843465
30
0
10
-37.595110104992585
20
-49.689991063742184
30
0
10
-36.626749116400589
20
-49.689991063742184
30
0
10
-35.906464181070618
20
-49.689991063742184
30
0
10
-33.727651908950577
20
-49.689991063742184
30
0
10
-32.287082038289597
20
-49.689991063742184
30
0
10
-30.761749492394603
20
-49.689991063742184
30
0
10
-30.648058037731598
20
-49.686036460501043
30
0
10
-30.43814458530461
20
-49.694727787892305
30
0
10
-30.343385319294587
20
-49.718209828936807
30
0
10
-30.164939886515594
20
-49.799456163602315
30
0
10
-30.084259976612611
20
-49.858753717418324
30
0
10
-29.950995081502594
20
-50.002369785674489
30
0
10
-29.9002733179376
20
-50.085738096508322
30
0
10
-29.836776162514607
20
-50.253257377754451
30
0
10
-29.825246607369618
20
-50.324944343286532
30
0
10
-29.818066204497615
20
-50.439991063794153
30
0
0
SPLINE
5
262
100
AcDbEntity
8
0
100
AcDbSpline
70
0
71
3
72
56
73
52
74
0
42
0.000000001
43
0.0000000001
44
0.0000000001
40
-0.78748370185031502
40
-0.78748370185031502
40
-0.78748370185031502
40
-0.78748370185031502
40
-0.77969115242156695
40
-0.77969115242156695
40
-0.76663405520976302
40
-0.76663405520976302
40
-0.73786326646737899
40
-0.73786326646737899
40
-0.70781326224998997
40
-0.70781326224998997
40
-0.67639295414971901
40
-0.67639295414971901
40
-0.64064098604046704
40
-0.64064098604046704
40
-0.50759968409105904
40
-0.50759968409105904
40
-0.136703055936549
40
-0.136703055936549
40
-0.108123864048231
40
-0.108123864048231
40
-0.083370187748165403
40
-0.083370187748165403
40
-0.056466416889606103
40
-0.056466416889606103
40
-0.0294160928187212
40
-0.0294160928187212
40
0
40
0
40
0.010260335934350299
40
0.010260335934350299
40
0.0245687052386423
40
0.0245687052386423
40
0.040027460088049499
40
0.040027460088049499
40
0.055661611858228897
40
0.055661611858228897
40
0.080365332308921497
40
0.080365332308921497
40
0.15905750079896899
40
0.15905750079896899
40
0.32359283415483803
40
0.32359283415483803
40
0.33715687675112399
40
0.33715687675112399
40
0.34923008124647897
40
0.34923008124647897
40
0.36216917721170599
40
0.36216917721170599
40
0.37535916557862198
40
0.37535916557862198
40
0.38715017468954899
40
0.38715017468954899
40
0.38715017468954899
40
0.38715017468954899
10
41.746403088132396
20
50.939991063803888
30
0
10
41.746576284450398
20
50.86375399711001
30
0
10
41.746403088132396
20
50.7686078560358
30
0
10
41.746403088132396
20
50.423806526070308
30
0
10
41.74627801923441
20
50.3926926451132
30
0
10
41.728444183591392
20
50.248766340700598
30
0
10
41.696887454510403
20
50.155515180599494
30
0
10
41.601259844557404
20
49.985479428379392
30
0
10
41.536767017621408
20
49.911223876776575
30
0
10
41.383892945387402
20
49.790154734627009
30
0
10
41.296055201358399
20
49.745873363683998
30
0
10
41.100219131440397
20
49.689329810231882
30
0
10
41.017682703733399
20
49.689991063748892
30
0
10
40.249759945454414
20
49.689991063748892
30
0
10
39.658081658290399
20
49.689991063748892
30
0
10
37.465065695547395
20
49.689991063748892
30
0
10
35.887256929774395
20
49.689991063748892
30
0
10
34.224389697444394
20
49.689991063748892
30
0
10
34.108096202178402
20
49.689675315367893
30
9.9920072216264089e-15
10
33.8957411250164
20
49.69027003586119
30
9.9920072216264089e-15
10
33.800499471958418
20
49.7099156161797
30
9.9920072216264089e-15
10
33.618319562952394
20
49.784207275753886
30
9.9920072216264089e-15
10
33.534571846951394
20
49.84097636446721
30
1.9984014443252818e-14
10
33.395769232801399
20
49.980153458055781
30
1.9984014443252818e-14
10
33.342202251392393
20
50.061299777245281
30
1.9984014443252818e-14
10
33.265629334783412
20
50.242563133672306
30
1.9984014443252818e-14
10
33.246403087413405
20
50.341937426510498
30
1.9984014443252818e-14
10
33.246403088384398
20
50.474192189020698
30
1.9984014443252818e-14
10
33.245203962000417
20
50.883324797138187
30
-1.0269562977782698e-14
10
33.248393202210394
20
51.052803201991296
30
-1.0269562977782698e-14
10
33.269625890788404
20
51.147865015598072
30
-1.0269562977782698e-14
10
33.346818689626403
20
51.328511608700481
30
-1.0269562977782698e-14
10
33.404638812545414
20
51.410987982713209
30
0
10
33.545664652552404
20
51.547506696225994
30
0
10
33.627738359752399
20
51.599914111982002
30
0
10
33.853550333825396
20
51.691219695574603
30
0
10
33.969267238646395
20
51.689991063856894
30
0
10
34.9374271619374
20
51.689991063856894
30
0
10
35.657724943602403
20
51.689991063856894
30
0
10
37.836231355085403
20
51.689991063856894
30
0
10
39.2768269184144
20
51.689991063856894
30
0
10
40.802673588653406
20
51.689991063856894
30
0
10
40.916367107149405
20
51.693947495009681
30
0
10
41.12628539627741
20
51.685255967352305
30
0
10
41.221049735303396
20
51.661787887269796
30
0
10
41.399492697920394
20
51.580542677264788
30
0
10
41.480183083842391
20
51.521256679919972
30
0
10
41.6134474596684
20
51.37764117127
30
0
10
41.664182646205404
20
51.294279194552303
30
0
10
41.727687351247397
20
51.126739995743392
30
0
10
41.739217921713404
20
51.055080111875085
30
0
10
41.746403088132396
20
50.939991063803888
30
0
0
SPLINE
5
263
100
AcDbEntity
8
0
100
AcDbSpline
70
0
71
3
72
56
73
52
74
0
42
0.000000001
43
0.0000000001
44
0.0000000001
40
-0.78748370188940797
40
-0.78748370188940797
40
-0.78748370188940797
40
-0.78748370188940797
40
-0.77969115246103504
40
-0.77969115246103504
40
-0.76663405524917105
40
-0.76663405524917105
40
-0.73786326650560696
40
-0.73786326650560696
40
-0.707813262287046
40
-0.707813262287046
40
-0.67639295418558998
40
-0.67639295418558998
40
-0.64064098607464004
40
-0.64064098607464004
40
-0.50759968411718903
40
-0.50759968411718903
40
-0.13670305594103199
40
-0.13670305594103199
40
-0.10812386405091599
40
-0.10812386405091599
40
-0.083370187749448002
40
-0.083370187749448002
40
-0.056466416889647403
40
-0.056466416889647403
40
-0.029416092818592799
40
-0.029416092818592799
40
0
40
0
40
0.010260335934363801
40
0.010260335934363801
40
0.024568705239112101
40
0.024568705239112101
40
0.040027460088926797
40
0.040027460088926797
40
0.055661611859374197
40
0.055661611859374197
40
0.080365332310461807
40
0.080365332310461807
40
0.159057500801735
40
0.159057500801735
40
0.32359283415982998
40
0.32359283415982998
40
0.33715687675639
40
0.33715687675639
40
0.34923008125183502
40
0.34923008125183502
40
0.362169177216909
40
0.362169177216909
40
0.37535916558329901
40
0.37535916558329901
40
0.38715017469388002
40
0.38715017469388002
40
0.38715017469388002
40
0.38715017469388002
10
-100.87602713863761
20
50.939991063775892
30
0
10
-100.8758539423186
20
50.863753997082682
30
0
10
-100.87602713863761
20
50.768607856010007
30
0
10
-100.87602713863761
20
50.423806526041389
30
0
10
-100.87615220753457
20
50.392692645086811
30
0
10
-100.89398604317759
20
50.248766340676184
30
0
10
-100.9255427722576
20
50.155515180575293
30
0
10
-101.02117038221161
20
49.985479428355305
30
0
10
-101.0856632091466
20
49.911223876752203
30
0
10
-101.2385372813806
20
49.790154734602311
30
0
10
-101.3263750254096
20
49.745873363658987
30
0
10
-101.52221109532759
20
49.68932981020599
30
0
10
-101.60474752303563
20
49.689991063722886
30
0
10
-102.37267028131163
20
49.689991063722886
30
0
10
-102.96434856847662
20
49.689991063722886
30
0
10
-105.1573645312166
20
49.689991063722886
30
0
10
-106.73517329698961
20
49.689991063722886
30
0
10
-108.39804052932061
20
49.689991063722886
30
0
10
-108.51433402458861
20
49.689675315342271
30
9.9920072216264089e-15
10
-108.72668910175159
20
49.690270035834999
30
9.9920072216264089e-15
10
-108.82193075480961
20
49.709915616153083
30
9.9920072216264089e-15
10
-109.0041106638156
20
49.784207275726388
30
9.9920072216264089e-15
10
-109.08785837981563
20
49.84097636443758
30
1.9984014443252818e-14
10
-109.22666099396858
20
49.980153458029605
30
1.9984014443252818e-14
10
-109.28022797537758
20
50.061299777219489
30
1.9984014443252818e-14
10
-109.35680089198561
20
50.242563133646399
30
1.9984014443252818e-14
10
-109.37602713935659
20
50.341937426483895
30
1.9984014443252818e-14
10
-109.3760271383856
20
50.474192188993797
30
1.9984014443252818e-14
10
-109.37722626476861
20
50.883324797113985
30
-1.0269562977782698e-14
10
-109.37403702455961
20
51.052803201964693
30
-1.0269562977782698e-14
10
-109.3528043359816
20
51.147865015571611
30
-1.0269562977782698e-14
10
-109.27561153714458
20
51.328511608673693
30
-1.0269562977782698e-14
10
-109.2177914142256
20
51.410987982686493
30
0
10
-109.0767655742186
20
51.547506696199306
30
0
10
-108.99469186701859
20
51.599914111955073
30
0
10
-108.7688798929466
20
51.691219695547503
30
0
10
-108.6531629881266
20
51.689991063829893
30
0
10
-107.68500306483661
20
51.689991063829893
30
0
10
-106.96470528317361
20
51.689991063829893
30
0
10
-104.7861988716936
20
51.689991063829893
30
0
10
-103.34560330836661
20
51.689991063829893
30
0
10
-101.81975663812759
20
51.689991063829893
30
0
10
-101.70606311963061
20
51.693947494981472
30
0
10
-101.49614483050159
20
51.685255967327294
30
0
10
-101.40138049147561
20
51.661787887246589
30
0
10
-101.2229375288596
20
51.58054267724539
30
0
10
-101.14224714293462
20
51.521256679901711
30
0
10
-101.00898276710461
20
51.377641171248399
30
0
10
-100.95824758056659
20
51.294279194529807
30
0
10
-100.89474287552159
20
51.126739995717912
30
0
10
-100.88321230505562
20
51.055080111848184
30
0
10
-100.87602713863761
20
50.939991063775892
30
0
0
SPLINE
5
264
100
AcDbEntity
8
0
100
AcDbSpline
70
0
71
3
72
56
73
52
74
0
42
0.000000001
43
0.0000000001
44
0.0000000001
40
-0.78748370230806897
40
-0.78748370230806897
40
-0.78748370230806897
40
-0.78748370230806897
40
-0.77969115287657298
40
-0.77969115287657298
40
-0.76663405565957399
40
-0.76663405565957399
40
-0.73786326690149295
40
-0.73786326690149295
40
-0.70781326266757105
40
-0.70781326266757105
40
-0.67639295455250603
40
-0.67639295455250603
40
-0.64064098642312794
40
-0.64064098642312794
40
-0.50759968438141201
40
-0.50759968438141201
40
-0.13670305598447599
40
-0.13670305598447599
40
-0.10812386407767199
40
-0.10812386407767199
40
-0.083370187762471501
40
-0.083370187762471501
40
-0.056466416893693201
40
-0.056466416893693201
40
-0.029416092820702899
40
-0.029416092820702899
40
0
40
0
40
0.0102603359337596
40
0.0102603359337596
40
0.024568705253763999
40
0.024568705253763999
40
0.040027460117604101
40
0.040027460117604101
40
0.055661611895983197
40
0.055661611895983197
40
0.080365332357626607
40
0.080365332357626607
40
0.15905750087898399
40
0.15905750087898399
40
0.32359283429369601
40
0.32359283429369601
40
0.337156876893831
40
0.337156876893831
40
0.349230081392294
40
0.349230081392294
40
0.36216917736186099
40
0.36216917736186099
40
0.37535916573354899
40
0.37535916573354899
40
0.38715017484933301
40
0.38715017484933301
40
0.38715017484933301
40
0.38715017484933301
10
-33.245169210306585
20
50.939991063803888
30
0
10
-33.244996013988612
20
50.863753997111601
30
0
10
-33.245169210306585
20
50.768607856040276
30
0
10
-33.245169210306585
20
50.423806526081009
30
0
10
-33.245294279204586
20
50.392692645127198
30
0
10
-33.26312811484263
20
50.248766340726775
30
0
10
-33.294684843920578
20
50.155515180626992
30
0
10
-33.390312453870607
20
49.985479428404687
30
0
10
-33.454805280809609
20
49.911223876795091
30
0
10
-33.607679353040595
20
49.790154734640183
30
0
10
-33.695517097064624
20
49.745873363694585
30
0
10
-33.891353166987614
20
49.68932981023238
30
0
10
-33.973889594701575
20
49.689991063748892
30
0
10
-34.741812352941594
20
49.689991063748892
30
0
10
-35.333490640105595
20
49.689991063748892
30
0
10
-37.526506602820589
20
49.689991063748892
30
0
10
-39.104315368591585
20
49.689991063748892
30
0
10
-40.767182600949582
20
49.689991063748892
30
0
10
-40.883476096220605
20
49.689675315373293
30
9.9920072216264089e-15
10
-41.095831173389627
20
49.6902700358565
30
9.9920072216264089e-15
10
-41.191072826451588
20
49.709915616170889
30
9.9920072216264089e-15
10
-41.373252735448588
20
49.784207275732285
30
9.9920072216264089e-15
10
-41.457000451459592
20
49.840976364429693
30
1.9984014443252818e-14
10
-41.595803065631628
20
49.980153458037805
30
1.9984014443252818e-14
10
-41.649370047042623
20
50.061299777228299
30
1.9984014443252818e-14
10
-41.725942963654589
20
50.242563133660894
30
1.9984014443252818e-14
10
-41.745169211026592
20
50.34193742650389
30
1.9984014443252818e-14
10
-41.745169210056602
20
50.474192189018808
30
1.9984014443252818e-14
10
-41.746368336435594
20
50.883324797187996
30
-1.0269562977782698e-14
10
-41.743179096233604
20
51.052803201960785
30
-1.0269562977782698e-14
10
-41.721946407660596
20
51.147865015571711
30
-1.0269562977782698e-14
10
-41.644753608834591
20
51.328511608670993
30
-1.0269562977782698e-14
10
-41.586933485941614
20
51.41098798267889
30
0
10
-41.445907645899581
20
51.547506696221973
30
0
10
-41.363833938694597
20
51.599914111980794
30
0
10
-41.138021964615575
20
51.691219695573395
30
0
10
-41.022305059797603
20
51.689991063856894
30
0
10
-40.054145136513611
20
51.689991063856894
30
0
10
-39.333847354847592
20
51.689991063856894
30
0
10
-37.155340943376615
20
51.689991063856894
30
0
10
-35.714745380044576
20
51.689991063856894
30
0
10
-34.188898709782606
20
51.689991063856894
30
0
10
-34.075205191289598
20
51.693947495009795
30
0
10
-33.865286902166588
20
51.685255967352305
30
0
10
-33.770522563143629
20
51.661787887270009
30
0
10
-33.592079600519597
20
51.580542677260212
30
0
10
-33.511389214603597
20
51.521256679913407
30
0
10
-33.378124838781588
20
51.377641171274405
30
0
10
-33.327389652242601
20
51.294279194560502
30
0
10
-33.263884947193588
20
51.126739995749787
30
0
10
-33.252354376726615
20
51.055080111879377
30
0
10
-33.245169210306585
20
50.939991063803888
30
0
0
SPLINE
5
265
100
AcDbEntity
8
0
100
AcDbSpline
70
0
71
3
72
56
73
52
74
0
42
0.000000001
43
0.0000000001
44
0.0000000001
40
-0.787483702289272
40
-0.787483702289272
40
-0.787483702289272
40
-0.787483702289272
40
-0.77969115285857304
40
-0.77969115285857304
40
-0.76663405564250797
40
-0.76663405564250797
40
-0.73786326688431603
40
-0.73786326688431603
40
-0.70781326265022904
40
-0.70781326265022904
40
-0.67639295453508597
40
-0.67639295453508597
40
-0.64064098640616396
40
-0.64064098640616396
40
-0.50759968436840197
40
-0.50759968436840197
40
-0.13670305598212601
40
-0.13670305598212601
40
-0.10812386407621701
40
-0.10812386407621701
40
-0.083370187761661496
40
-0.083370187761661496
40
-0.056466416893315802
40
-0.056466416893315802
40
-0.0294160928204984
40
-0.0294160928204984
40
0
40
0
40
0.0102603359338271
40
0.0102603359338271
40
0.0245687052524723
40
0.0245687052524723
40
0.040027460114958398
40
0.040027460114958398
40
0.055661611892090998
40
0.055661611892090998
40
0.080365332351757496
40
0.080365332351757496
40
0.159057500866533
40
0.159057500866533
40
0.323592834267659
40
0.323592834267659
40
0.33715687686663598
40
0.33715687686663598
40
0.349230081364098
40
0.349230081364098
40
0.362169177332477
40
0.362169177332477
40
0.37535916570300198
40
0.37535916570300198
40
0.387150174817533
40
0.387150174817533
40
0.387150174817533
40
0.387150174817533
10
109.3777120071927
20
50.939991063804001
30
0
10
109.3778852035105
20
50.863753997111502
30
0
10
109.3777120071922
20
50.768607856039395
30
0
10
109.3777120071922
20
50.423806526068176
30
0
10
109.3775869382943
20
50.392692645120803
30
0
10
109.3597531026565
20
50.248766340723691
30
0
10
109.32819637357869
20
50.155515180624107
30
0
10
109.2325687636275
20
49.985479428401987
30
0
10
109.1680759366885
20
49.911223876792988
30
0
10
109.0152018644573
20
49.790154734638804
30
0
10
108.9273641204322
20
49.745873363693406
30
0
10
108.73152805051032
20
49.68932981023238
30
0
10
108.64899162279769
20
49.689991063748892
30
0
10
107.88106886455461
20
49.689991063748892
30
0
10
107.28939057739061
20
49.689991063748892
30
0
10
105.09637461467341
20
49.689991063748892
30
0
10
103.51856584890291
20
49.689991063748892
30
0
10
101.85569861654521
20
49.689991063748892
30
0
10
101.7394051212749
20
49.689675315372611
30
9.9920072216264089e-15
10
101.52705004410609
20
49.690270035857097
30
9.9920072216264089e-15
10
101.43180839104349
20
49.709915616172196
30
9.9920072216264089e-15
10
101.24962848204561
20
49.784207275735085
30
9.9920072216264089e-15
10
101.16588076603641
20
49.840976364433004
30
1.9984014443252818e-14
10
101.02707815186641
20
49.980153458040192
30
1.9984014443252818e-14
10
100.97351117045591
20
50.061299777230502
30
1.9984014443252818e-14
10
100.89693825384522
20
50.242563133662173
30
1.9984014443252818e-14
10
100.8777120064731
20
50.3419374265046
30
1.9984014443252818e-14
10
100.8777120074443
20
50.474192189018993
30
1.9984014443252818e-14
10
100.87651288106389
20
50.883324797184088
30
-1.0269562977782698e-14
10
100.87970212126601
20
51.052803201963201
30
-1.0269562977782698e-14
10
100.90093480984009
20
51.147865015573387
30
-1.0269562977782698e-14
10
100.97812760866643
20
51.328511608672102
30
-1.0269562977782698e-14
10
101.0359477315597
20
51.410987982680098
30
0
10
101.17697357160111
20
51.547506696222513
30
0
10
101.25904727880592
20
51.599914111981192
30
0
10
101.48485925288401
20
51.691219695573395
30
0
10
101.60057615770251
20
51.689991063856894
30
0
10
102.56873608098761
20
51.689991063856894
30
0
10
103.28903386265401
20
51.689991063856894
30
0
10
105.46754027412641
20
51.689991063856894
30
0
10
106.9081358374591
20
51.689991063856894
30
0
10
108.433982507721
20
51.689991063856894
30
0
10
108.54767602621351
20
51.693947495010107
30
0
10
108.75759431533581
20
51.685255967351807
30
0
10
108.85235865435919
20
51.661787887269398
30
0
10
109.0308016169833
20
51.580542677258677
30
0
10
109.1114920028985
20
51.521256679911701
30
0
10
109.24475637872
20
51.377641171272202
30
0
10
109.2954915652583
20
51.294279194557987
30
0
10
109.35899627030621
20
51.126739995748395
30
0
10
109.37052684077301
20
51.055080111879306
30
0
10
109.3777120071927
20
50.939991063804001
30
0
0
ENDSEC
0
SECTION
2
OBJECTS
0
DICTIONARY
5
C
100
AcDbDictionary
3
ACAD_GROUP
350
D
3
ACAD_MLINESTYLE
350
17
0
DICTIONARY
5
D
100
AcDbDictionary
0
DICTIONARY
5
1A
330
C
100
AcDbDictionary
0
DICTIONARY
5
17
100
AcDbDictionary
0
ENDSEC
0
EOF
