0
SECTION
2
HEADER
9
$INSUNITS
70
4
9
$ACADVER
1
AC1014
9
$HANDSEED
5
FFFF
0
ENDSEC
0
SECTION
2
TABLES
0
TABLE
2
VPORT
5
8
100
AcDbSymbolTable
0
ENDTAB
0
TABLE
2
LTYPE
5
5
100
AcDbSymbolTable
0
LTYPE
5
14
100
AcDbSymbolTableRecord
100
AcDbLinetypeTableRecord
2
BYBLOCK
70
0
0
LTYPE
5
15
100
AcDbSymbolTableRecord
100
AcDbLinetypeTableRecord
2
BYLAYER
70
0
0
LTYPE
5
16
100
AcDbSymbolTableRecord
100
AcDbLinetypeTableRecord
2
DASHED
70
0
3
Dashed __ __ __ __ __ __ __ __ __ __ __ __ __ _
72
65
73
2
40
0.75
49
0.5
74
0
49
-0.25
74
0
0
ENDTAB
0
TABLE
2
LAYER
5
2
100
AcDbSymbolTable
70
2
0
LAYER
5
50
100
AcDbSymbolTableRecord
100
AcDbLayerTableRecord
2
0
70
0
62
7
6
CONTINUOUS
0
ENDTAB
0
TABLE
2
STYLE
5
3
100
AcDbSymbolTable
70
1
0
STYLE
5
11
100
AcDbSymbolTableRecord
100
AcDbTextStyleTableRecord
2
STANDARD
70
0
0
ENDTAB
0
TABLE
2
VIEW
5
6
100
AcDbSymbolTable
70
0
0
ENDTAB
0
TABLE
2
UCS
5
7
100
AcDbSymbolTable
70
0
0
ENDTAB
0
TABLE
2
APPID
5
9
100
AcDbSymbolTable
70
2
0
APPID
5
12
100
AcDbSymbolTableRecord
100
AcDbRegAppTableRecord
2
ACAD
70
0
0
ENDTAB
0
TABLE
2
DIMSTYLE
5
A
100
AcDbSymbolTable
70
1
0
ENDTAB
0
TABLE
2
BLOCK_RECORD
5
1
100
AcDbSymbolTable
70
1
0
BLOCK_RECORD
5
1F
100
AcDbSymbolTableRecord
100
AcDbBlockTableRecord
2
*MODEL_SPACE
0
BLOCK_RECORD
5
1B
100
AcDbSymbolTableRecord
100
AcDbBlockTableRecord
2
*PAPER_SPACE
0
ENDTAB
0
ENDSEC
0
SECTION
2
BLOCKS
0
BLOCK
5
20
100
AcDbEntity
100
AcDbBlockBegin
2
*MODEL_SPACE
0
ENDBLK
5
21
100
AcDbEntity
100
AcDbBlockEnd
0
BLOCK
5
1C
100
AcDbEntity
100
AcDbBlockBegin
2
*PAPER_SPACE
0
ENDBLK
5
1D
100
AcDbEntity
100
AcDbBlockEnd
0
ENDSEC
0
SECTION
2
ENTITIES
0
LWPOLYLINE
5
100
100
AcDbEntity
8
0
100
AcDbPolyline
90
166
70
1
43
0.0
10
33.221103321356694
20
-61.220589828220191
42
0.19891236737965093
10
32.160443149576921
20
-60.781250000000057
10
31.193750000000087
20
-60.781250000000071
42
-0.41421356237312101
10
30.193750000000072
20
-59.781250000000043
10
30.193750000000055
20
-40.206248879596615
42
0.41421356237311585
10
29.693750000000101
20
-39.706248879596622
10
22.693750000000072
20
-39.7062488795966
42
0.41421356237307422
10
22.193750000000101
20
-40.206248879596615
10
22.193750000001348
20
-54.445589828220506
42
-0.19891236737976636
10
21.974080085891181
20
-54.975919914110548
10
19.913419914111891
20
-57.036580085889874
42
-0.19891236737971305
10
19.383089828221927
20
-57.256249999999994
10
-22.956250000000047
20
-57.256249999999994
42
-0.41421356237313145
10
-23.956250000000043
20
-56.25624999999998
10
-23.956250000000043
20
-43.75624999999998
42
0.41421356237304302
10
-24.456250000000015
20
-43.256249999999987
10
-37.45625000000004
20
-43.256249999999987
42
0.41421356237312623
10
-37.956250000000047
20
-43.75624999999998
10
-37.956250000000011
20
-56.25624999999998
42
-0.414213562373069
10
-38.956250000000011
20
-57.256249999999994
10
-81.295589828218027
20
-57.256250000000001
42
-0.19891236737971571
10
-81.825919914107942
20
-57.036580085889881
10
-83.886580085889847
20
-54.975919914107969
42
-0.19891236737965545
10
-84.106249999999932
20
-54.445589828218047
10
-84.106249999999932
20
-40.206250000000026
42
0.41421356237310542
10
-84.606249999999932
20
-39.70625000000004
10
-91.606249999999946
20
-39.70625000000004
42
0.41421356237309503
10
-92.106249999999932
20
-40.206250000000026
10
-92.106249999999932
20
-59.781249999999972
42
-0.414213562373069
10
-93.106249999999932
20
-60.781249999999986
10
-117.88544314957664
20
-60.781250000000036
42
0.1989123673796524
10
-118.94610332135643
20
-61.22058982822017
10
-121.26742366491635
20
-63.541910171779904
42
-0.19891236737965443
10
-122.32808383669618
20
-63.981250000000038
10
-124.20624999999994
20
-63.981250000000017
42
-0.41421356237310542
10
-124.70624999999995
20
-63.481249999999996
10
-124.70624999999997
20
-59.956249999999983
42
0.99999999999999989
10
-127.70624999999995
20
-59.956250000000026
10
-127.70624999999998
20
-63.481250000000088
42
-0.41421356237310542
10
-128.20624999999993
20
-63.981250000000038
10
-130.08441616330376
20
-63.981250000000045
42
-0.19891236737964321
10
-131.14507633508356
20
-63.541910171779875
10
-133.46639667864349
20
-61.220589828220149
42
0.19891236737964493
10
-134.52705685042321
20
-60.781250000000036
10
-171.02058982822004
20
-60.781250000000043
42
-0.19891236737966583
10
-171.55091991410998
20
-60.561580085889958
10
-174.11158008588987
20
-58.000919914110099
42
-0.19891236737962212
10
-174.33124999999995
20
-57.470589828220184
10
-174.33124999999993
20
55.47058982822012
42
-0.19891236737964935
10
-174.11158008588987
20
56.000919914110021
10
-171.55091991411007
20
58.561580085889887
42
-0.19891236737965581
10
-171.02058982822015
20
58.781249999999972
10
-150.81507034355957
20
58.781249999999979
42
0.19891236737965587
10
-149.75441017177977
20
59.220589828220156
10
-145.43308982822012
20
63.541910171779783
42
-0.1989123673796602
10
-144.37242965644029
20
63.981249999999967
10
-142.49374999999992
20
63.981249999999946
42
-0.41421356237309503
10
-141.99374999999995
20
63.48124999999996
10
-141.99374999999995
20
59.531249999999964
42
0.99999999999999989
10
-138.99374999999995
20
59.531249999999964
10
-138.99374999999995
20
63.48124999999996
42
-0.41421356237309503
10
-138.49374999999992
20
63.981249999999967
10
-136.61507034355958
20
63.981249999999967
42
-0.19891236737966239
10
-135.55441017177978
20
63.541910171779783
10
-131.2330898282201
20
59.220589828220142
42
0.19891236737963783
10
-130.17242965644027
20
58.781249999999972
10
-65.090070343559617
20
58.781249999999943
42
0.19891236737965801
10
-64.029410171779745
20
59.220589828220156
10
-59.708089828220139
20
63.541910171779762
42
-0.19891236737968593
10
-58.647429656440352
20
63.981249999999967
10
-56.76874999999994
20
63.981249999999946
42
-0.41421356237310542
10
-56.268749999999926
20
63.48124999999996
10
-56.268749999999947
20
59.531249999999915
42
0.99999999999999989
10
-53.26874999999994
20
59.531249999999964
10
-53.26874999999994
20
63.481249999999953
42
-0.41421356237305862
10
-52.768749999999933
20
63.981249999999967
10
-50.890070343559529
20
63.981249999999946
42
-0.1989123673796738
10
-49.829410171779728
20
63.541910171779783
10
-45.50808982822015
20
59.220589828220149
42
0.19891236737966855
10
-44.447429656440335
20
58.781249999999972
10
20.634929656440445
20
58.781249999999964
42
0.1989123673796675
10
21.695589828220214
20
59.22058982822012
10
26.016910171779909
20
63.54191017177979
42
-0.1989123673796446
10
27.077570343559643
20
63.981249999999967
10
28.956250000000061
20
63.981250000000038
42
-0.41421356237303258
10
29.456250000000033
20
63.48124999999996
10
29.456250000000068
20
59.531249999999901
42
0.99999999999999989
10
32.45625000000004
20
59.531249999999964
10
32.45625000000004
20
63.481249999999946
42
-0.41421356237298057
10
32.956250000000047
20
63.981249999999967
10
34.83492965644043
20
63.981249999999974
42
-0.19891236737961415
10
35.895589828220196
20
63.541910171779783
10
40.216910171779858
20
59.220589828220099
42
0.19891236737964277
10
41.27757034355966
20
58.781249999999972
10
105.89375000000007
20
58.781249999999936
42
-0.41421356237315748
10
106.39375000000008
20
58.281249999999964
10
106.39375000000013
20
57.256249999999945
42
-0.41421356237310025
10
105.89375000000007
20
56.756249999999966
10
95.893750000000068
20
56.756249999999895
42
0.4142135623731783
10
95.393750000000068
20
56.256249999999959
10
95.393750000000068
20
43.256249999999937
42
0.41421356237310542
10
95.893750000000068
20
42.756249999999945
10
108.89375000000008
20
42.756249999999874
42
0.41421356237309503
10
109.3937500000001
20
43.256249999999952
10
109.39375000000015
20
53.206249999999926
42
-0.41421356237307422
10
109.89375000000007
20
53.706249999999933
10
118.70625000000007
20
53.706249999999933
42
-0.41421356237311585
10
119.20625000000008
20
53.206249999999962
10
119.20625000000008
20
43.256249999999937
42
0.41421356237310542
10
119.7062500000001
20
42.756249999999945
10
132.70625000000007
20
42.75624999999998
42
0.41421356237315748
10
133.20625000000007
20
43.256249999999952
10
133.20625000000015
20
56.256249999999923
42
0.4142135623731783
10
132.70625000000007
20
56.756249999999966
10
122.70625000000007
20
56.756249999999859
42
-0.41421356237303258
10
122.2062500000001
20
57.256249999999937
10
122.20625000000013
20
58.281249999999936
42
-0.41421356237313145
10
122.70625000000007
20
58.781249999999936
10
144.45992965644035
20
58.781249999999972
42
0.19891236737967644
10
145.52058982822021
20
59.220589828220085
10
149.8419101717798
20
63.541910171779747
42
-0.1989123673797718
10
150.90257034355969
20
63.981249999999932
10
152.78125000000006
20
63.981249999999861
42
-0.41421356237332396
10
153.28125000000003
20
63.481249999999925
10
153.28124999999997
20
59.531250000000057
42
0.99999999999999989
10
156.28124999999994
20
59.531249999999929
10
156.28124999999997
20
63.481249999999953
42
-0.41421356237320428
10
156.78125000000006
20
63.981249999999932
10
158.65992965644028
20
63.981249999999896
42
-0.19891236737967463
10
159.72058982822008
20
63.541910171779747
10
164.04191017177999
20
59.220589828220156
42
0.19891236737968485
10
165.10257034355962
20
58.781249999999936
10
171.02058982822018
20
58.781249999999915
42
-0.19891236737954779
10
171.5509199141101
20
58.561580085889844
10
174.1115800858899
20
56.000919914110142
42
-0.19891236737974791
10
174.33124999999993
20
55.470589828220227
10
174.33125000000013
20
-57.470589828220255
42
-0.19891236737977733
10
174.11158008588987
20
-58.000919914110142
10
171.55091991411015
20
-60.561580085889986
42
-0.19891236737955875
10
171.02058982822027
20
-60.781250000000071
10
144.0520568504233
20
-60.781250000000085
42
0.19891236737965942
10
142.99139667864364
20
-61.220589828220149
10
140.67007633508356
20
-63.541910171780017
42
-0.19891236737960399
10
139.60941616330399
20
-63.981250000000074
10
137.7312500000001
20
-63.98125000000006
42
-0.4142135623730846
10
137.23125000000007
20
-63.481250000000031
10
137.23125000000005
20
-59.956250000000026
42
0.99999999999999989
10
134.23125000000005
20
-59.956250000000054
10
134.23125000000007
20
-63.481249999999974
42
-0.41421356237309503
10
133.73124999999999
20
-63.981250000000074
10
131.85308383669627
20
-63.981250000000067
42
-0.19891236737965731
10
130.79242366491644
20
-63.541910171779946
10
128.47110332135657
20
-61.220589828220142
42
0.19891236737961773
10
127.41044314957688
20
-60.781250000000107
10
48.802056850423376
20
-60.781250000000057
42
0.19891236737964529
10
47.741396678643504
20
-61.220589828220255
10
45.420076335083728
20
-63.541910171779875
42
-0.19891236737964496
10
44.359416163303784
20
-63.981250000000074
10
42.481250000000053
20
-63.98125000000006
42
-0.41421356237310542
10
41.981250000000045
20
-63.48124999999996
10
41.981250000000081
20
-59.956250000000075
42
0.99999999999999989
10
38.981250000000038
20
-59.95625000000004
10
38.981250000000038
20
-63.481250000000088
42
-0.41421356237309503
10
38.481250000000067
20
-63.98125000000006
10
36.6030838366963
20
-63.981250000000045
42
-0.19891236737965731
10
35.542423664916463
20
-63.541910171779925
0
LWPOLYLINE
5
101
100
AcDbEntity
8
0
100
AcDbPolyline
90
4
70
1
43
0.0
10
131.98125000000005
20
-60.031250000000057
42
0.99999999999999989
10
131.9812500000001
20
-61.531250000000085
10
132.48125000000013
20
-61.531249999999993
42
0.99999999999999989
10
132.48125000000013
20
-60.031250000000078
0
LWPOLYLINE
5
102
100
AcDbEntity
8
0
100
AcDbPolyline
90
4
70
1
43
0.0
10
36.731250000000095
20
-60.031250000000099
42
0.99999999999999989
10
36.731250000000095
20
-61.531249999999943
10
37.231250000000067
20
-61.531249999999943
42
0.99999999999999989
10
37.231250000000138
20
-60.031250000000099
0
LWPOLYLINE
5
103
100
AcDbEntity
8
0
100
AcDbPolyline
90
4
70
1
43
0.0
10
-129.95624999999995
20
-60.031249999999972
10
-129.45625000000001
20
-60.031250000000043
42
-0.99999999999999989
10
-129.45624999999995
20
-61.531250000000028
10
-129.95624999999993
20
-61.531250000000028
42
-0.99999999999999989
0
LWPOLYLINE
5
104
100
AcDbEntity
8
0
100
AcDbPolyline
90
8
70
1
43
0.0
10
36.100000000000101
20
-44.256250000000094
10
37.100000000000044
20
-44.256250000000094
42
-0.4142135623730534
10
37.850000000000072
20
-45.00625000000008
10
37.850000000000108
20
-55.506249999999838
42
-0.41421356237314361
10
37.100000000000044
20
-56.256249999999817
10
36.100000000000101
20
-56.256249999999838
42
-0.4142135623730534
10
35.350000000000072
20
-55.506249999999838
10
35.350000000000051
20
-45.006250000000065
42
-0.41421356237312279
0
LWPOLYLINE
5
105
100
AcDbEntity
8
0
100
AcDbPolyline
90
8
70
1
43
0.0
10
43.506250000000044
20
-43.256249999999966
10
56.506250000000087
20
-43.256250000000009
42
-0.4142135623730846
10
57.006250000000094
20
-43.756249999999994
10
57.006250000000129
20
-56.75624999999998
42
-0.41421356237314705
10
56.506250000000051
20
-57.256250000000009
10
43.506250000000044
20
-57.256250000000023
42
-0.4142135623730222
10
43.006250000000072
20
-56.756249999999966
10
43.006250000000094
20
-43.75624999999998
42
-0.4142135623730846
0
LWPOLYLINE
5
106
100
AcDbEntity
8
0
100
AcDbPolyline
90
8
70
1
43
0.0
10
60.662500000000072
20
-55.506249999999859
10
60.662500000000051
20
-45.00625000000008
42
-0.41421356237312279
10
61.412500000000101
20
-44.256250000000108
10
62.412500000000044
20
-44.256250000000108
42
-0.4142135623730534
10
63.162500000000072
20
-45.006250000000101
10
63.162500000000072
20
-55.506249999999859
42
-0.4142135623730534
10
62.412500000000044
20
-56.256249999999852
10
61.412500000000101
20
-56.256249999999852
42
-0.4142135623730534
0
LWPOLYLINE
5
107
100
AcDbEntity
8
0
100
AcDbPolyline
90
8
70
1
43
0.0
10
80.81875000000008
20
-43.756249999999994
10
80.81875000000008
20
-56.75624999999998
42
-0.41421356237316787
10
80.318750000000108
20
-57.256250000000009
10
67.318750000000136
20
-57.256250000000023
42
-0.41421356237323032
10
66.818750000000037
20
-56.75624999999998
10
66.818750000000051
20
-43.756249999999994
42
-0.4142135623730534
10
67.318750000000136
20
-43.256249999999987
10
80.318750000000108
20
-43.256249999999966
42
-0.4142135623730846
0
LWPOLYLINE
5
108
100
AcDbEntity
8
0
100
AcDbPolyline
90
8
70
1
43
0.0
10
85.225000000000051
20
-44.256250000000108
42
0.41421356237312978
10
84.47500000000008
20
-45.00625000000008
10
84.47500000000008
20
-55.506249999999859
42
0.41421356237310897
10
85.225000000000051
20
-56.256249999999852
10
86.225000000000094
20
-56.256249999999852
42
0.41421356237309503
10
86.975000000000023
20
-55.506249999999859
10
86.975000000000023
20
-45.006250000000101
42
0.41421356237306034
10
86.225000000000051
20
-44.256250000000094
0
LWPOLYLINE
5
109
100
AcDbEntity
8
0
100
AcDbPolyline
90
8
70
1
43
0.0
10
91.131250000000037
20
-43.256249999999987
10
104.13124999999997
20
-43.256250000000023
42
-0.41421356237315748
10
104.63124999999998
20
-43.756249999999994
10
104.63124999999998
20
-56.75624999999998
42
-0.41421356237314705
10
104.13124999999997
20
-57.256250000000009
10
91.131250000000037
20
-57.256250000000009
42
-0.41421356237326151
10
90.63125000000008
20
-56.75624999999998
10
90.631250000000023
20
-43.756249999999994
42
-0.41421356237313667
0
LWPOLYLINE
5
110
100
AcDbEntity
8
0
100
AcDbPolyline
90
8
70
1
43
0.0
10
119.20625000000008
20
-56.756250000000051
42
0.41421356237298057
10
119.7062500000001
20
-57.25625000000008
10
132.70625000000007
20
-57.256250000000065
42
0.4142135623730534
10
133.20625000000013
20
-56.756250000000051
10
133.20625000000007
20
-43.756250000000065
42
0.41421356237313667
10
132.70625000000007
20
-43.256250000000058
10
119.7062500000001
20
-43.256250000000037
42
0.41421356237306384
10
119.20625000000015
20
-43.756250000000065
0
LWPOLYLINE
5
111
100
AcDbEntity
8
0
100
AcDbPolyline
90
4
70
1
43
0.0
10
161.330288101375
20
58.781249992549363
10
158.83028810137529
20
58.78124999254937
42
-0.99999999999999989
10
158.83028810137515
20
60.281249992549341
10
161.330288101375
20
60.281249992549562
42
-0.99999999999999989
0
LWPOLYLINE
5
112
100
AcDbEntity
8
0
100
AcDbPolyline
90
4
70
1
43
0.0
10
150.73221189862468
20
58.781249992549377
42
0.99999999999999989
10
150.73221189862483
20
60.281249992549618
10
148.23221189862497
20
60.281249992549363
42
0.99999999999999989
10
148.23221189862497
20
58.781249992549256
0
LWPOLYLINE
5
113
100
AcDbEntity
8
0
100
AcDbPolyline
90
4
70
1
43
0.0
10
24.40721189432363
20
60.281249999999709
42
0.99999999999999989
10
24.40721189432363
20
58.781249999999723
10
26.907211894323488
20
58.781249999999723
42
0.99999999999999989
10
26.907211894323559
20
60.281249999999709
0
LWPOLYLINE
5
114
100
AcDbEntity
8
0
100
AcDbPolyline
90
4
70
1
43
0.0
10
37.505288105676442
20
58.78124999999973
42
0.99999999999999989
10
37.505288105676513
20
60.281249999999702
10
35.005288105676513
20
60.281249999999709
42
0.99999999999999989
10
35.005288105676513
20
58.781249999999723
0
LWPOLYLINE
5
115
100
AcDbEntity
8
0
100
AcDbPolyline
90
4
70
1
43
0.0
10
-136.44471189432326
20
60.281249999999964
42
0.99999999999999989
10
-136.44471189432326
20
58.781249999999964
10
-133.94471189432326
20
58.781249999999943
42
0.99999999999999989
10
-133.94471189432329
20
60.281249999999993
0
LWPOLYLINE
5
116
100
AcDbEntity
8
0
100
AcDbPolyline
90
4
70
1
43
0.0
10
-144.54278810567661
20
58.781249999999964
42
0.99999999999999989
10
-144.54278810567664
20
60.281249999999964
10
-147.04278810567661
20
60.281249999999964
42
0.99999999999999989
10
-147.04278810567661
20
58.781249999999972
0
LWPOLYLINE
5
117
100
AcDbEntity
8
0
100
AcDbPolyline
90
4
70
1
43
0.0
10
-48.219711894323339
20
58.781249999999829
10
-50.719711894323382
20
58.781249999999787
42
-0.99999999999999989
10
-50.719711894323382
20
60.281249999999787
10
-48.219711894323339
20
60.281249999999815
42
-0.99999999999999989
0
LWPOLYLINE
5
118
100
AcDbEntity
8
0
100
AcDbPolyline
90
4
70
1
43
0.0
10
-61.317788105676563
20
60.281249999999893
42
0.99999999999999989
10
-61.317788105676563
20
58.781249999999893
10
-58.817788105676527
20
58.781249999999893
42
0.99999999999999989
10
-58.817788105676527
20
60.281249999999886
0
LWPOLYLINE
5
119
100
AcDbEntity
8
0
100
AcDbPolyline
90
8
70
1
43
0.0
10
-168.92500000000001
20
-18.656249999999943
42
0.41421356237309503
10
-168.42500000000001
20
-19.156249999999943
10
-150.66249999999997
20
-19.156250000000004
42
0.41421356237306384
10
-150.16249999999997
20
-18.656250000000014
10
-150.16249999999994
20
-5.6562500000000338
42
0.41421356237310025
10
-150.66249999999997
20
-5.1562500000000355
10
-168.42499999999998
20
-5.1562499999999662
42
0.41421356237311585
10
-168.92500000000001
20
-5.6562499999999716
0
LWPOLYLINE
5
120
100
AcDbEntity
8
0
100
AcDbPolyline
90
8
70
1
43
0.0
10
-157.80624999999995
20
42.756249999999987
42
0.41421356237310025
10
-157.30624999999998
20
43.256249999999994
10
-157.30624999999995
20
56.256249999999959
42
0.41421356237309503
10
-157.80624999999995
20
56.756249999999966
10
-170.80624999999995
20
56.756249999999994
42
0.41421356237311585
10
-171.30624999999995
20
56.256249999999959
10
-171.30624999999995
20
43.256249999999987
42
0.41421356237307422
10
-170.80624999999998
20
42.75624999999998
0
LWPOLYLINE
5
121
100
AcDbEntity
8
0
100
AcDbPolyline
90
8
70
1
43
0.0
10
-119.70624999999993
20
42.756249999999966
42
0.41421356237310025
10
-119.20624999999994
20
43.256249999999959
10
-119.20624999999994
20
56.256249999999959
42
0.4142135623730846
10
-119.70624999999993
20
56.756249999999966
10
-132.70624999999993
20
56.756249999999973
42
0.4142135623730846
10
-133.20624999999995
20
56.256249999999959
10
-133.20624999999993
20
43.256249999999966
42
0.41421356237307422
10
-132.70624999999993
20
42.75624999999998
0
LWPOLYLINE
5
122
100
AcDbEntity
8
0
100
AcDbPolyline
90
8
70
1
43
0.0
10
-114.15624999999993
20
43.256249999999987
10
-114.15624999999994
20
56.256249999999959
42
-0.41421356237309503
10
-113.65624999999994
20
56.756249999999966
10
-100.65624999999996
20
56.756249999999952
42
-0.41421356237309503
10
-100.15624999999997
20
56.256249999999959
10
-100.15624999999997
20
43.256249999999987
42
-0.41421356237312623
10
-100.65624999999996
20
42.75624999999998
10
-113.65624999999994
20
42.756249999999994
42
-0.41421356237309503
0
LWPOLYLINE
5
123
100
AcDbEntity
8
0
100
AcDbPolyline
90
8
70
1
43
0.0
10
-81.106249999999918
20
56.256249999999966
42
0.414213562373069
10
-81.606249999999946
20
56.756249999999952
10
-94.60624999999996
20
56.756249999999973
42
0.4142135623730846
10
-95.10624999999996
20
56.256249999999959
10
-95.10624999999996
20
43.256249999999966
42
0.41421356237307422
10
-94.60624999999996
20
42.75624999999998
10
-81.606249999999946
20
42.75624999999998
42
0.41421356237304302
10
-81.10624999999996
20
43.256249999999987
0
LWPOLYLINE
5
124
100
AcDbEntity
8
0
100
AcDbPolyline
90
8
70
1
43
0.0
10
-75.556249999999935
20
56.756249999999966
42
0.41421356237307422
10
-76.056249999999906
20
56.256249999999959
10
-76.056249999999906
20
43.256249999999952
42
0.4142135623730846
10
-75.556249999999935
20
42.75624999999998
10
-62.556249999999935
20
42.756249999999987
42
0.41421356237310542
10
-62.05624999999992
20
43.256249999999987
10
-62.05624999999992
20
56.256249999999959
42
0.41421356237309503
10
-62.556249999999935
20
56.756249999999966
0
LWPOLYLINE
5
125
100
AcDbEntity
8
0
100
AcDbPolyline
90
8
70
1
43
0.0
10
-46.981249999999939
20
56.756249999999966
10
-33.981249999999946
20
56.756249999999966
42
-0.41421356237309503
10
-33.481249999999946
20
56.256249999999959
10
-33.481249999999932
20
43.256249999999987
42
-0.41421356237312623
10
-33.981249999999946
20
42.756249999999952
10
-46.981249999999939
20
42.756249999999945
42
-0.4142135623730534
10
-47.481249999999946
20
43.256249999999952
10
-47.481249999999932
20
56.256249999999959
42
-0.41421356237304302
0
LWPOLYLINE
5
126
100
AcDbEntity
8
0
100
AcDbPolyline
90
8
70
1
43
0.0
10
-14.931249999999938
20
42.75624999999998
10
-27.931249999999928
20
42.756249999999945
42
-0.4142135623730534
10
-28.431249999999935
20
43.256249999999952
10
-28.431249999999935
20
56.256249999999959
42
-0.4142135623730534
10
-27.931249999999928
20
56.756249999999966
10
-14.931249999999938
20
56.756249999999966
42
-0.41421356237309503
10
-14.431249999999931
20
56.256249999999959
10
-14.431249999999949
20
43.256249999999952
42
-0.41421356237310542
0
LWPOLYLINE
5
127
100
AcDbEntity
8
0
100
AcDbPolyline
90
8
70
1
43
0.0
10
-9.3812499999999588
20
43.256249999999952
10
-9.3812499999999233
20
56.256249999999959
42
-0.41421356237313667
10
-8.8812499999999162
20
56.756249999999966
10
4.1187500000000199
20
56.756250000000001
42
-0.41421356237319906
10
4.6187500000000234
20
56.256249999999959
10
4.6187499999999915
20
43.256249999999952
42
-0.41421356237319906
10
4.1187500000000199
20
42.756249999999945
10
-8.8812499999999162
20
42.756249999999909
42
-0.4142135623730534
0
LWPOLYLINE
5
128
100
AcDbEntity
8
0
100
AcDbPolyline
90
8
70
1
43
0.0
10
9.6687500000001236
20
43.256249999999959
42
0.41421356237314189
10
10.16875000000006
20
42.756249999999945
10
23.168750000000067
20
42.756249999999937
42
0.4142135623730534
10
23.668750000000003
20
43.256249999999952
10
23.668750000000038
20
56.256249999999959
42
0.4142135623730534
10
23.168750000000067
20
56.756250000000001
10
10.16875000000006
20
56.756249999999966
42
0.4142135623731783
10
9.6687500000001236
20
56.256249999999959
0
LWPOLYLINE
5
129
100
AcDbEntity
8
0
100
AcDbPolyline
90
8
70
1
43
0.0
10
51.743750000000048
20
42.756249999999945
42
0.41421356237314705
10
52.243750000000055
20
43.256249999999966
10
52.243750000000034
20
56.256249999999952
42
0.41421356237314189
10
51.743750000000048
20
56.756249999999966
10
38.743750000000041
20
56.75624999999993
42
0.41421356237315748
10
38.243750000000034
20
56.256249999999959
10
38.243750000000063
20
43.256249999999959
42
0.41421356237297535
10
38.743750000000041
20
42.75624999999998
0
LWPOLYLINE
5
130
100
AcDbEntity
8
0
100
AcDbPolyline
90
8
70
1
43
0.0
10
57.793750000000053
20
56.756249999999966
42
0.4142135623730378
10
57.293750000000152
20
56.256249999999952
10
57.293750000000045
20
43.256249999999952
42
0.41421356237315748
10
57.793750000000053
20
42.75624999999998
10
70.793750000000131
20
42.75624999999998
42
0.41421356237319906
10
71.293750000000074
20
43.256249999999952
10
71.29375000000006
20
56.25624999999993
42
0.41421356237302737
10
70.793750000000131
20
56.756249999999966
0
LWPOLYLINE
5
131
100
AcDbEntity
8
0
100
AcDbPolyline
90
8
70
1
43
0.0
10
89.843750000000071
20
42.756249999999945
42
0.41421356237316265
10
90.343750000000114
20
43.256249999999959
10
90.343750000000114
20
56.256249999999959
42
0.41421356237307422
10
89.843750000000071
20
56.756249999999966
10
76.843750000000057
20
56.75624999999993
42
0.41421356237315748
10
76.343750000000057
20
56.256249999999959
10
76.343750000000085
20
43.256249999999959
42
0.41421356237297535
10
76.843750000000057
20
42.75624999999998
0
LWPOLYLINE
5
132
100
AcDbEntity
8
0
100
AcDbPolyline
90
8
70
1
43
0.0
10
151.75624999999999
20
42.756249999999945
10
138.75625000000002
20
42.756249999999945
42
-0.41421356237316787
10
138.25625000000002
20
43.256249999999937
10
138.25625000000011
20
56.256249999999923
42
-0.41421356237307422
10
138.75625000000002
20
56.756249999999952
10
151.75624999999999
20
56.756249999999824
42
-0.41421356237326151
10
152.25625000000005
20
56.256249999999923
10
152.25625000000011
20
43.256249999999952
42
-0.41421356237319906
0
LWPOLYLINE
5
133
100
AcDbEntity
8
0
100
AcDbPolyline
90
8
70
1
43
0.0
10
157.80625000000003
20
56.75624999999993
10
170.80625000000001
20
56.756249999999895
42
-0.41421356237307944
10
171.30625000000015
20
56.256249999999916
10
171.3062500000002
20
43.256249999999952
42
-0.41421356237309503
10
170.80625000000001
20
42.756249999999909
10
157.80625000000006
20
42.756249999999945
42
-0.41421356237338119
10
157.30625000000009
20
43.256249999999945
10
157.30625000000015
20
56.256249999999923
42
-0.41421356237307422
0
LWPOLYLINE
5
134
100
AcDbEntity
8
0
100
AcDbPolyline
90
8
70
1
43
0.0
10
-171.30624999999995
20
19.443749999999973
10
-171.30624999999995
20
32.44374999999998
42
-0.41421356237309503
10
-170.80624999999995
20
32.94374999999998
10
-157.80624999999995
20
32.943749999999987
42
-0.41421356237310542
10
-157.30624999999992
20
32.44374999999998
10
-157.30624999999995
20
19.443749999999973
42
-0.41421356237310542
10
-157.80624999999995
20
18.943749999999984
10
-170.80624999999998
20
18.943749999999966
42
-0.41421356237307422
0
LWPOLYLINE
5
135
100
AcDbEntity
8
0
100
AcDbPolyline
90
8
70
1
43
0.0
10
-138.75624999999997
20
18.943749999999966
42
0.41421356237309243
10
-138.25624999999997
20
19.443749999999969
10
-138.25624999999997
20
32.443749999999987
42
0.41421356237309243
10
-138.75624999999997
20
32.943749999999987
10
-151.75624999999994
20
32.943749999999966
42
0.41421356237309503
10
-152.25624999999994
20
32.44374999999998
10
-152.25624999999994
20
19.443749999999959
42
0.41421356237306639
10
-151.75624999999997
20
18.943750000000001
0
LWPOLYLINE
5
136
100
AcDbEntity
8
0
100
AcDbPolyline
90
8
70
1
43
0.0
10
-132.70624999999993
20
32.943749999999952
10
-119.70624999999993
20
32.943749999999987
42
-0.41421356237312623
10
-119.20624999999994
20
32.44374999999998
10
-119.20624999999995
20
19.443749999999973
42
-0.41421356237306384
10
-119.70624999999993
20
18.943749999999948
10
-132.70624999999995
20
18.943749999999966
42
-0.41421356237309503
10
-133.20624999999995
20
19.443749999999973
10
-133.20624999999993
20
32.44374999999998
42
-0.41421356237310542
0
LWPOLYLINE
5
137
100
AcDbEntity
8
0
100
AcDbPolyline
90
8
70
1
43
0.0
10
-114.15624999999994
20
19.443749999999973
10
-114.15624999999993
20
32.44374999999998
42
-0.41421356237313667
10
-113.65624999999994
20
32.943749999999973
10
-100.65624999999996
20
32.943749999999966
42
-0.41421356237309503
10
-100.15624999999997
20
32.44374999999998
10
-100.15624999999997
20
19.443749999999973
42
-0.41421356237313667
10
-100.65624999999997
20
18.943749999999969
10
-113.65624999999994
20
18.943749999999966
42
-0.41421356237309503
0
LWPOLYLINE
5
138
100
AcDbEntity
8
0
100
AcDbPolyline
90
8
70
1
43
0.0
10
-94.606249999999946
20
32.943749999999952
10
-81.606249999999946
20
32.943749999999966
42
-0.41421356237311846
10
-81.106249999999918
20
32.443749999999973
10
-81.106249999999918
20
19.443749999999973
42
-0.41421356237306384
10
-81.606249999999946
20
18.943749999999962
10
-94.60624999999996
20
18.943749999999966
42
-0.41421356237309503
10
-95.106249999999974
20
19.443749999999973
10
-95.106249999999974
20
32.44374999999998
42
-0.4142135623730846
0
LWPOLYLINE
5
139
100
AcDbEntity
8
0
100
AcDbPolyline
90
8
70
1
43
0.0
10
-62.05624999999992
20
32.44374999999998
10
-62.05624999999992
20
19.443749999999973
42
-0.41421356237309503
10
-62.556249999999935
20
18.943749999999966
10
-75.556249999999935
20
18.943749999999948
42
-0.41421356237313928
10
-76.056249999999906
20
19.443749999999959
10
-76.056249999999906
20
32.44374999999998
42
-0.41421356237300139
10
-75.556249999999935
20
32.943749999999966
10
-62.556249999999935
20
32.943749999999966
42
-0.41421356237310542
0
LWPOLYLINE
5
140
100
AcDbEntity
8
0
100
AcDbPolyline
90
8
70
1
43
0.0
10
-56.506249999999923
20
32.943749999999952
42
0.41421356237302737
10
-57.006249999999895
20
32.443749999999952
10
-57.006249999999895
20
19.443749999999966
42
0.41421356237316265
10
-56.506249999999923
20
18.943750000000001
10
-43.506249999999952
20
18.943749999999934
42
0.41421356237311585
10
-43.006249999999952
20
19.443749999999973
10
-43.006249999999952
20
32.443749999999945
42
0.41421356237310542
10
-43.506249999999952
20
32.943749999999952
0
LWPOLYLINE
5
141
100
AcDbEntity
8
0
100
AcDbPolyline
90
8
70
1
43
0.0
10
-24.456249999999944
20
18.943749999999934
42
0.41421356237309243
10
-23.95624999999994
20
19.443749999999934
10
-23.956249999999937
20
32.443749999999945
42
0.41421356237310542
10
-24.456249999999944
20
32.943749999999952
10
-37.456249999999933
20
32.943749999999966
42
0.4142135623730846
10
-37.95624999999994
20
32.443749999999945
10
-37.95624999999994
20
19.443749999999973
42
0.41421356237304302
10
-37.456249999999933
20
18.94374999999993
0
LWPOLYLINE
5
142
100
AcDbEntity
8
0
100
AcDbPolyline
90
8
70
1
43
0.0
10
-18.406249999999922
20
32.943749999999987
10
-5.4062499999999503
20
32.943749999999952
42
-0.41421356237299617
10
-4.9062500000000142
20
32.443749999999973
10
-4.9062499999999343
20
19.443749999999937
42
-0.41421356237311585
10
-5.4062499999999503
20
18.943749999999959
10
-18.406249999999922
20
18.943749999999966
42
-0.41421356237307422
10
-18.906249999999893
20
19.443749999999973
10
-18.906249999999929
20
32.443749999999945
42
-0.41421356237307422
0
LWPOLYLINE
5
143
100
AcDbEntity
8
0
100
AcDbPolyline
90
8
70
1
43
0.0
10
13.643750000000026
20
18.94374999999993
10
0.64375000000008953
20
18.943749999999966
42
-0.41421356237316526
10
0.14375000000008242
20
19.443749999999952
10
0.14375000000010907
20
32.443749999999945
42
-0.41421356237303275
10
0.64375000000008964
20
32.943749999999959
10
13.643750000000026
20
32.943749999999987
42
-0.41421356237310281
10
14.143750000000033
20
32.443749999999966
10
14.143750000000033
20
19.443749999999937
42
-0.41421356237326151
0
LWPOLYLINE
5
144
100
AcDbEntity
8
0
100
AcDbPolyline
90
8
70
1
43
0.0
10
19.193750000000144
20
19.443749999999955
42
0.4142135623730846
10
19.693750000000101
20
18.943749999999945
10
32.693750000000072
20
18.94374999999993
42
0.41421356237303258
10
33.193750000000044
20
19.443749999999937
10
33.193750000000044
20
32.443749999999952
42
0.41421356237304818
10
32.693750000000072
20
32.943749999999987
10
19.693750000000101
20
32.943749999999987
42
0.41421356237309503
10
19.193750000000129
20
32.443749999999945
0
LWPOLYLINE
5
145
100
AcDbEntity
8
0
100
AcDbPolyline
90
8
70
1
43
0.0
10
38.743750000000041
20
32.943749999999966
42
0.4142135623730378
10
38.243750000000091
20
32.443749999999973
10
38.243750000000034
20
19.443749999999966
42
0.41421356237317308
10
38.743750000000041
20
18.943749999999966
10
51.743750000000048
20
18.943749999999948
42
0.41421356237321988
10
52.243750000000055
20
19.443749999999937
10
52.243750000000055
20
32.443749999999945
42
0.41421356237311585
10
51.743750000000048
20
32.943749999999987
0
LWPOLYLINE
5
146
100
AcDbEntity
8
0
100
AcDbPolyline
90
8
70
1
43
0.0
10
57.293750000000053
20
19.443749999999934
42
0.41421356237305079
10
57.793750000000053
20
18.943749999999937
10
70.793750000000131
20
18.94374999999993
42
0.4142135623731783
10
71.293750000000074
20
19.443749999999937
10
71.293750000000045
20
32.443749999999959
42
0.414213562373004
10
70.793750000000131
20
32.943749999999987
10
57.793750000000053
20
32.943749999999952
42
0.41421356237307422
10
57.293750000000152
20
32.443749999999945
0
LWPOLYLINE
5
147
100
AcDbEntity
8
0
100
AcDbPolyline
90
8
70
1
43
0.0
10
119.7062500000001
20
32.943749999999959
42
0.41421356237304302
10
119.20625000000015
20
32.443749999999966
10
119.20625000000008
20
19.44374999999993
42
0.41421356237317308
10
119.7062500000001
20
18.94374999999993
10
132.70625000000007
20
18.943749999999916
42
0.41421356237299095
10
133.20625000000004
20
19.443749999999937
10
133.20625000000007
20
32.443749999999945
42
0.41421356237315748
10
132.70625000000007
20
32.943749999999916
0
LWPOLYLINE
5
148
100
AcDbEntity
8
0
100
AcDbPolyline
90
8
70
1
43
0.0
10
151.75624999999999
20
18.94374999999993
10
138.75625000000002
20
18.94374999999993
42
-0.41421356237305079
10
138.25625000000002
20
19.443749999999934
10
138.25625000000014
20
32.443749999999945
42
-0.4142135623730534
10
138.75625000000002
20
32.943749999999916
10
151.75624999999999
20
32.943749999999916
42
-0.41421356237313667
10
152.25625000000005
20
32.443749999999945
10
152.25625000000011
20
19.443749999999937
42
-0.41421356237319906
0
LWPOLYLINE
5
149
100
AcDbEntity
8
0
100
AcDbPolyline
90
8
70
1
43
0.0
10
157.30625000000015
20
19.44374999999993
42
0.41421356237331874
10
157.80625000000003
20
18.94374999999993
10
170.80625000000001
20
18.943749999999888
42
0.41421356237309503
10
171.3062500000002
20
19.443749999999937
10
171.3062500000002
20
32.44374999999993
42
0.41421356237314444
10
170.80625000000001
20
32.943749999999916
10
157.80625000000003
20
32.943749999999909
42
0.41421356237311585
10
157.30625000000015
20
32.443749999999945
0
LWPOLYLINE
5
150
100
AcDbEntity
8
0
100
AcDbPolyline
90
8
70
1
43
0.0
10
-153.04374999999996
20
-0.10625000000000995
10
-166.04374999999999
20
-0.10625000000000995
42
-0.41421356237305346
10
-166.54374999999993
20
0.39374999999996169
10
-166.54374999999993
20
13.393750000000004
42
-0.41421356237307422
10
-166.04374999999993
20
13.893749999999978
10
-153.04374999999996
20
13.893749999999976
42
-0.41421356237309503
10
-152.54374999999993
20
13.393749999999986
10
-152.54374999999996
20
0.39374999999996163
42
-0.41421356237311585
0
LWPOLYLINE
5
151
100
AcDbEntity
8
0
100
AcDbPolyline
90
8
70
1
43
0.0
10
-142.23124999999996
20
13.893749999999967
42
0.4142135623730846
10
-142.73124999999993
20
13.393749999999969
10
-142.73124999999996
20
0.39374999999994392
42
0.41421356237307427
10
-142.23124999999996
20
-0.10625000000000995
10
-129.23124999999996
20
-0.10625000000003659
42
0.41421356237310542
10
-128.73124999999993
20
0.39374999999996163
10
-128.73124999999993
20
13.393749999999951
42
0.4142135623730846
10
-129.23124999999996
20
13.893749999999976
0
LWPOLYLINE
5
152
100
AcDbEntity
8
0
100
AcDbPolyline
90
8
70
1
43
0.0
10
-123.18124999999995
20
13.893749999999976
10
-110.18124999999995
20
13.893749999999994
42
-0.41421356237307944
10
-109.68124999999993
20
13.393749999999978
10
-109.68124999999993
20
0.39374999999996163
42
-0.4142135623730846
10
-110.18124999999992
20
-0.10625000000004547
10
-123.18124999999995
20
-0.10625000000000995
42
-0.41421356237310031
10
-123.68124999999992
20
0.39374999999997057
10
-123.68124999999992
20
13.393749999999969
42
-0.41421356237311585
0
LWPOLYLINE
5
153
100
AcDbEntity
8
0
100
AcDbPolyline
90
8
70
1
43
0.0
10
-90.631249999999937
20
13.393749999999969
42
0.4142135623730846
10
-91.131249999999937
20
13.893749999999976
10
-104.13124999999994
20
13.893749999999967
42
0.41421356237309503
10
-104.63124999999994
20
13.393749999999969
10
-104.63124999999994
20
0.39374999999997057
42
0.41421356237312112
10
-104.13124999999994
20
-0.10625000000004547
10
-91.131249999999937
20
-0.10625000000004547
42
0.41421356237312623
10
-90.631249999999937
20
0.39374999999996163
0
LWPOLYLINE
5
154
100
AcDbEntity
8
0
100
AcDbPolyline
90
8
70
1
43
0.0
10
-72.08124999999994
20
-0.10625000000004547
10
-85.08124999999994
20
-0.10625000000004547
42
-0.41421356237312629
10
-85.581249999999926
20
0.39374999999996169
10
-85.581249999999926
20
13.393749999999969
42
-0.4142135623730534
10
-85.08124999999994
20
13.893749999999958
10
-72.08124999999994
20
13.893749999999976
42
-0.41421356237308982
10
-71.581249999999926
20
13.393749999999978
10
-71.581249999999926
20
0.39374999999996163
42
-0.41421356237309503
0
LWPOLYLINE
5
155
100
AcDbEntity
8
0
100
AcDbPolyline
90
8
70
1
43
0.0
10
-52.531249999999957
20
13.393749999999969
42
0.41421356237304302
10
-53.031249999999943
20
13.893749999999976
10
-66.031249999999929
20
13.893749999999967
42
0.41421356237310542
10
-66.531249999999943
20
13.393749999999969
10
-66.531249999999943
20
0.39374999999994392
42
0.41421356237308471
10
-66.031249999999929
20
-0.10625000000004547
10
-53.031249999999957
20
-0.10625000000003659
42
0.41421356237311585
10
-52.531249999999915
20
0.39374999999996163
0
LWPOLYLINE
5
156
100
AcDbEntity
8
0
100
AcDbPolyline
90
8
70
1
43
0.0
10
-33.481249999999946
20
13.393749999999951
42
0.4142135623730846
10
-33.981249999999946
20
13.89374999999994
10
-46.981249999999939
20
13.893749999999967
42
0.4142135623730534
10
-47.481249999999932
20
13.393749999999969
10
-47.48124999999996
20
0.39374999999994392
42
0.41421356237304308
10
-46.981249999999939
20
-0.106250000000081
10
-33.981249999999946
20
-0.10625000000004547
42
0.41421356237309503
10
-33.481249999999946
20
0.39374999999996163
0
LWPOLYLINE
5
157
100
AcDbEntity
8
0
100
AcDbPolyline
90
8
70
1
43
0.0
10
-14.931249999999938
20
-0.10625000000004547
10
-27.931249999999928
20
-0.10625000000004547
42
-0.41421356237301188
10
-28.431249999999935
20
0.39374999999996169
10
-28.431249999999988
20
13.393749999999969
42
-0.41421356237310542
10
-27.931249999999928
20
13.89374999999994
10
-14.931249999999938
20
13.893749999999923
42
-0.41421356237310025
10
-14.431249999999931
20
13.393749999999942
10
-14.431249999999931
20
0.39374999999996163
42
-0.41421356237309503
0
LWPOLYLINE
5
158
100
AcDbEntity
8
0
100
AcDbPolyline
90
8
70
1
43
0.0
10
-9.3812499999999233
20
0.39374999999996163
10
-9.3812499999999588
20
13.393749999999969
42
-0.41421356237307422
10
-8.8812499999999162
20
13.893749999999976
10
4.1187500000000909
20
13.893750000000011
42
-0.41421356237303258
10
4.618750000000027
20
13.393749999999969
10
4.618750000000027
20
0.39374999999996163
42
-0.4142135623732407
10
4.1187500000000199
20
-0.106250000000081
10
-8.8812499999999162
20
-0.10625000000004547
42
-0.41421356237313667
0
LWPOLYLINE
5
159
100
AcDbEntity
8
0
100
AcDbPolyline
90
8
70
1
43
0.0
10
10.168750000000024
20
13.89374999999994
10
23.168750000000067
20
13.893749999999967
42
-0.41421356237304818
10
23.668750000000031
20
13.393749999999942
10
23.668750000000038
20
0.3937499999999261
42
-0.41421356237307422
10
23.168750000000067
20
-0.106250000000081
10
10.16875000000006
20
-0.10625000000007212
42
-0.4142135623731471
10
9.6687500000000615
20
0.39374999999994392
10
9.6687500000000526
20
13.393749999999933
42
-0.41421356237315748
0
LWPOLYLINE
5
160
100
AcDbEntity
8
0
100
AcDbPolyline
90
8
70
1
43
0.0
10
42.718750000000043
20
13.393749999999942
42
0.41421356237304818
10
42.218750000000078
20
13.893749999999967
10
29.218750000000107
20
13.89374999999994
42
0.41421356237307422
10
28.718750000000064
20
13.393749999999933
10
28.718750000000142
20
0.39374999999993504
42
0.41421356237307949
10
29.218750000000107
20
-0.106250000000081
10
42.218750000000078
20
-0.106250000000081
42
0.41421356237303258
10
42.71875000000005
20
0.3937499999999261
0
LWPOLYLINE
5
161
100
AcDbEntity
8
0
100
AcDbPolyline
90
8
70
1
43
0.0
10
61.76875000000004
20
13.39374999999996
42
0.41421356237312101
10
61.26875000000009
20
13.893750000000029
10
48.268750000000047
20
13.89374999999994
42
0.41421356237301177
10
47.76875000000004
20
13.393749999999933
10
47.768750000000054
20
0.39374999999992616
42
0.41421356237301188
10
48.268750000000047
20
-0.10625000000004547
10
61.268750000000054
20
-0.106250000000081
42
0.41421356237313667
10
61.768750000000061
20
0.3937499999999261
0
LWPOLYLINE
5
162
100
AcDbEntity
8
0
100
AcDbPolyline
90
8
70
1
43
0.0
10
80.318750000000108
20
-0.106250000000081
10
67.318750000000136
20
-0.10625000000000995
42
-0.4142135623731471
10
66.818750000000051
20
0.39374999999994392
10
66.818750000000023
20
13.393749999999933
42
-0.41421356237315748
10
67.318750000000136
20
13.893749999999931
10
80.318750000000108
20
13.893749999999976
42
-0.4142135623730534
10
80.81875000000008
20
13.393749999999933
10
80.81875000000008
20
0.3937499999999261
42
-0.41421356237307422
0
LWPOLYLINE
5
163
100
AcDbEntity
8
0
100
AcDbPolyline
90
8
70
1
43
0.0
10
90.631250000000108
20
0.39374999999992616
42
0.41421356237313672
10
91.131250000000037
20
-0.106250000000081
10
104.13125000000005
20
-0.106250000000081
42
0.41421356237301177
10
104.63124999999998
20
0.3937499999999261
10
104.63125000000002
20
13.393749999999942
42
0.41421356237304818
10
104.13125000000005
20
13.893749999999976
10
91.131250000000037
20
13.893749999999931
42
0.41421356237313667
10
90.631250000000023
20
13.393749999999933
0
LWPOLYLINE
5
164
100
AcDbEntity
8
0
100
AcDbPolyline
90
8
70
1
43
0.0
10
119.20625000000008
20
0.39374999999993504
42
0.41421356237312112
10
119.7062500000001
20
-0.10625000000004547
10
132.70625000000007
20
-0.10625000000004547
42
0.4142135623732407
10
133.20625000000013
20
0.3937499999999261
10
133.20625000000007
20
13.393749999999933
42
0.41421356237301177
10
132.70625000000007
20
13.89374999999994
10
119.7062500000001
20
13.89374999999994
42
0.4142135623730534
10
119.20625000000008
20
13.393749999999933
0
LWPOLYLINE
5
165
100
AcDbEntity
8
0
100
AcDbPolyline
90
8
70
1
43
0.0
10
138.25625000000005
20
0.39374999999992616
42
0.41421356237301188
10
138.75625000000002
20
-0.10625000000006324
10
151.75624999999999
20
-0.10625000000004547
42
0.4142135623731783
10
152.25625000000011
20
0.3937499999999261
10
152.25625000000005
20
13.393749999999951
42
0.41421356237318868
10
151.75624999999999
20
13.893749999999869
10
138.75625000000002
20
13.89374999999994
42
0.41421356237303258
10
138.25625000000014
20
13.393749999999933
0
LWPOLYLINE
5
166
100
AcDbEntity
8
0
100
AcDbPolyline
90
8
70
1
43
0.0
10
157.30625000000015
20
0.39374999999991728
42
0.41421356237340207
10
157.80625000000003
20
-0.10625000000008988
10
170.80625000000001
20
-0.106250000000081
42
0.41421356237307422
10
171.3062500000002
20
0.3937499999999261
10
171.30625000000015
20
13.393749999999951
42
0.4142135623730846
10
170.80625000000001
20
13.893749999999905
10
157.80624999999998
20
13.89374999999994
42
0.41421356237303258
10
157.30625000000015
20
13.393749999999933
0
LWPOLYLINE
5
167
100
AcDbEntity
8
0
100
AcDbPolyline
90
8
70
1
43
0.0
10
-123.96874999999994
20
-5.6562500000000249
42
0.41421356237311585
10
-124.46874999999994
20
-5.1562500000000266
10
-137.46874999999994
20
-5.1562500000000178
42
0.41421356237309503
10
-137.96874999999997
20
-5.6562500000000071
10
-137.96874999999997
20
-18.656250000000057
42
0.41421356237308982
10
-137.46874999999994
20
-19.156250000000021
10
-124.46874999999994
20
-19.15625000000005
42
0.41421356237309503
10
-123.96874999999994
20
-18.65625000000005
0
LWPOLYLINE
5
168
100
AcDbEntity
8
0
100
AcDbPolyline
90
8
70
1
43
0.0
10
-105.41874999999997
20
-19.156250000000021
10
-118.41874999999995
20
-19.156250000000039
42
-0.41421356237307422
10
-118.91874999999996
20
-18.656250000000032
10
-118.91874999999996
20
-5.6562500000000426
42
-0.41421356237313667
10
-118.41874999999995
20
-5.1562500000000355
10
-105.41874999999993
20
-5.1562500000000355
42
-0.41421356237310542
10
-104.91874999999996
20
-5.6562500000000249
10
-104.91874999999999
20
-18.65625000000005
42
-0.41421356237310542
0
LWPOLYLINE
5
169
100
AcDbEntity
8
0
100
AcDbPolyline
90
8
70
1
43
0.0
10
-86.36874999999992
20
-19.156250000000021
10
-99.368749999999935
20
-19.156250000000057
42
-0.41421356237306384
10
-99.868749999999949
20
-18.656250000000032
10
-99.868749999999949
20
-5.6562500000000426
42
-0.41421356237311585
10
-99.368749999999949
20
-5.1562500000000266
10
-86.36874999999992
20
-5.1562500000000533
42
-0.41421356237312623
10
-85.868749999999949
20
-5.6562500000000426
10
-85.868749999999977
20
-18.65625000000005
42
-0.4142135623730846
0
LWPOLYLINE
5
170
100
AcDbEntity
8
0
100
AcDbPolyline
90
8
70
1
43
0.0
10
-66.818749999999923
20
-5.6562500000000249
42
0.41421356237310542
10
-67.318749999999895
20
-5.1562500000000266
10
-80.318749999999937
20
-5.1562500000000533
42
0.4142135623730534
10
-80.818749999999937
20
-5.6562500000000426
10
-80.818749999999966
20
-18.656250000000043
42
0.41421356237316265
10
-80.318749999999966
20
-19.156250000000021
10
-67.318749999999909
20
-19.156250000000021
42
0.4142135623730534
10
-66.818749999999937
20
-18.65625000000005
0
LWPOLYLINE
5
171
100
AcDbEntity
8
0
100
AcDbPolyline
90
8
70
1
43
0.0
10
-61.268749999999926
20
-5.1562500000000266
42
0.41421356237311585
10
-61.768749999999926
20
-5.6562500000000249
10
-61.768749999999955
20
-18.656250000000032
42
0.4142135623730846
10
-61.268749999999947
20
-19.156250000000021
10
-48.268749999999955
20
-19.156250000000064
42
0.41421356237304302
10
-47.768749999999969
20
-18.65625000000005
10
-47.768749999999933
20
-5.6562500000000426
42
0.41421356237306384
10
-48.26874999999994
20
-5.1562500000000355
0
LWPOLYLINE
5
172
100
AcDbEntity
8
0
100
AcDbPolyline
90
8
70
1
43
0.0
10
-42.718749999999943
20
-18.65625000000005
10
-42.718749999999929
20
-5.6562500000000426
42
-0.41421356237313667
10
-42.218749999999915
20
-5.1562500000000355
10
-29.218749999999929
20
-5.1562500000000711
42
-0.4142135623730846
10
-28.718749999999922
20
-5.6562500000000604
10
-28.71874999999994
20
-18.65625000000005
42
-0.41421356237304302
10
-29.218749999999947
20
-19.156250000000075
10
-42.218749999999936
20
-19.156250000000057
42
-0.41421356237309503
0
LWPOLYLINE
5
173
100
AcDbEntity
8
0
100
AcDbPolyline
90
8
70
1
43
0.0
10
-23.668749999999967
20
-18.656250000000032
42
0.4142135623730846
10
-23.16874999999996
20
-19.156250000000021
10
-10.168749999999918
20
-19.15625000000005
42
0.41421356237313667
10
-9.6687499999999105
20
-18.65625000000005
10
-9.6687499999999105
20
-5.6562500000000338
42
0.41421356237313145
10
-10.168749999999918
20
-5.1562500000000355
10
-23.168749999999942
20
-5.1562500000000266
42
0.41421356237312623
10
-23.66874999999995
20
-5.6562500000000426
0
LWPOLYLINE
5
174
100
AcDbEntity
8
0
100
AcDbPolyline
90
8
70
1
43
0.0
10
8.8812500000000938
20
-19.156250000000057
42
0.41421356237313667
10
9.3812500000001009
20
-18.65625000000005
10
9.3812500000000831
20
-5.6562500000000426
42
0.41421356237309503
10
8.8812500000000938
20
-5.1562500000000711
10
-4.1187499999999488
20
-5.1562500000000355
42
0.41421356237313667
10
-4.6187499999999559
20
-5.6562500000000426
10
-4.6187499999999471
20
-18.65625000000005
42
0.41421356237303258
10
-4.1187500000000199
20
-19.156250000000092
0
LWPOLYLINE
5
175
100
AcDbEntity
8
0
100
AcDbPolyline
90
8
70
1
43
0.0
10
27.931250000000034
20
-19.156250000000057
42
0.41421356237313667
10
28.431250000000041
20
-18.65625000000005
10
28.431250000000034
20
-5.6562500000000693
42
0.41421356237323553
10
27.931250000000034
20
-5.1562500000000355
10
14.931250000000027
20
-5.1562500000000711
42
0.41421356237299095
10
14.43125000000002
20
-5.6562500000000426
10
14.431250000000029
20
-18.656250000000057
42
0.41421356237300661
10
14.931250000000027
20
-19.156250000000021
0
LWPOLYLINE
5
176
100
AcDbEntity
8
0
100
AcDbPolyline
90
8
70
1
43
0.0
10
33.481250000000067
20
-18.65625000000005
10
33.481250000000145
20
-5.6562500000000426
42
-0.41421356237307422
10
33.981250000000038
20
-5.1562500000000444
10
46.981250000000045
20
-5.1562500000000355
42
-0.41421356237301177
10
47.481250000000053
20
-5.6562500000000426
10
47.481250000000045
20
-18.65625000000005
42
-0.41421356237326151
10
46.981250000000045
20
-19.15625000000005
10
33.981250000000038
20
-19.156250000000128
42
-0.41421356237303258
0
LWPOLYLINE
5
177
100
AcDbEntity
8
0
100
AcDbPolyline
90
8
70
1
43
0.0
10
66.031250000000057
20
-19.15625000000005
42
0.41421356237326151
10
66.531250000000057
20
-18.65625000000005
10
66.531250000000057
20
-5.6562500000000426
42
0.41421356237301177
10
66.031250000000057
20
-5.1562500000000355
10
53.03125000000005
20
-5.1562500000000444
42
0.41421356237313667
10
52.531250000000114
20
-5.6562500000000426
10
52.531250000000078
20
-18.656250000000068
42
0.4142135623730222
10
53.03125000000005
20
-19.156250000000092
0
LWPOLYLINE
5
178
100
AcDbEntity
8
0
100
AcDbPolyline
90
8
70
1
43
0.0
10
-127.94374999999995
20
-24.206250000000029
42
0.41421356237306384
10
-128.44374999999994
20
-24.706249999999965
10
-128.44374999999997
20
-37.706250000000026
42
0.41421356237310542
10
-127.94374999999995
20
-38.206250000000033
10
-114.94374999999992
20
-38.206250000000033
42
0.4142135623730846
10
-114.44374999999994
20
-37.706250000000026
10
-114.44374999999994
20
-24.706249999999983
42
0.41421356237307422
10
-114.94374999999994
20
-24.206250000000047
0
LWPOLYLINE
5
179
100
AcDbEntity
8
0
100
AcDbPolyline
90
8
70
1
43
0.0
10
-109.39374999999995
20
-37.706250000000026
10
-109.39374999999993
20
-24.706249999999983
42
-0.41421356237307422
10
-108.89374999999995
20
-24.206250000000047
10
-95.893749999999969
20
-24.206250000000082
42
-0.4142135623730534
10
-95.393749999999955
20
-24.706250000000018
10
-95.393749999999955
20
-37.70625000000004
42
-0.4142135623730846
10
-95.893749999999955
20
-38.206250000000054
10
-108.89374999999994
20
-38.206250000000011
42
-0.41421356237312623
0
LWPOLYLINE
5
180
100
AcDbEntity
8
0
100
AcDbPolyline
90
8
70
1
43
0.0
10
-76.343749999999943
20
-24.706250000000001
42
0.41421356237310542
10
-76.843749999999957
20
-24.206250000000047
10
-89.843749999999986
20
-24.206250000000047
42
0.41421356237310542
10
-90.343749999999972
20
-24.706250000000018
10
-90.343749999999943
20
-37.70625000000004
42
0.4142135623730534
10
-89.84375
20
-38.206250000000054
10
-76.843749999999957
20
-38.206250000000054
42
0.41421356237309503
10
-76.343749999999943
20
-37.70625000000004
0
LWPOLYLINE
5
181
100
AcDbEntity
8
0
100
AcDbPolyline
90
8
70
1
43
0.0
10
-71.29374999999996
20
-37.70625000000004
10
-71.29374999999996
20
-24.706250000000018
42
-0.41421356237311585
10
-70.79374999999996
20
-24.206250000000047
10
-57.793749999999982
20
-24.206250000000065
42
-0.41421356237309503
10
-57.29374999999996
20
-24.706250000000018
10
-57.29374999999996
20
-37.70625000000004
42
-0.41421356237307422
10
-57.79374999999996
20
-38.206250000000054
10
-70.79374999999996
20
-38.206250000000054
42
-0.41421356237309503
0
LWPOLYLINE
5
182
100
AcDbEntity
8
0
100
AcDbPolyline
90
8
70
1
43
0.0
10
-38.243749999999949
20
-24.706250000000018
42
0.41421356237309503
10
-38.74374999999997
20
-24.206250000000065
10
-51.743749999999942
20
-24.206250000000047
42
0.41421356237311585
10
-52.243749999999949
20
-24.706250000000018
10
-52.243749999999949
20
-37.70625000000004
42
0.41421356237309503
10
-51.743749999999942
20
-38.206250000000054
10
-38.74374999999997
20
-38.206250000000054
42
0.4142135623730846
10
-38.243749999999949
20
-37.70625000000004
0
LWPOLYLINE
5
183
100
AcDbEntity
8
0
100
AcDbPolyline
90
8
70
1
43
0.0
10
-32.693749999999966
20
-24.206250000000047
42
0.41421356237310542
10
-33.193749999999973
20
-24.706250000000001
10
-33.193749999999973
20
-37.70625000000004
42
0.41421356237309503
10
-32.693749999999966
20
-38.206250000000054
10
-19.693749999999959
20
-38.206250000000054
42
0.41421356237306384
10
-19.193749999999969
20
-37.70625000000004
10
-19.193749999999969
20
-24.706250000000018
42
0.41421356237314705
10
-19.693749999999959
20
-24.206250000000118
0
LWPOLYLINE
5
184
100
AcDbEntity
8
0
100
AcDbPolyline
90
8
70
1
43
0.0
10
-0.64374999999994742
20
-38.206250000000068
42
0.41421356237310542
10
-0.14374999999994031
20
-37.70625000000004
10
-0.14374999999995808
20
-24.706250000000018
42
0.41421356237303258
10
-0.64374999999994742
20
-24.206250000000047
10
-13.64374999999999
20
-24.206250000000082
42
0.41421356237311585
10
-14.143749999999962
20
-24.706250000000018
10
-14.143749999999962
20
-37.70625000000004
42
0.41421356237309503
10
-13.643749999999955
20
-38.206250000000054
0
LWPOLYLINE
5
185
100
AcDbEntity
8
0
100
AcDbPolyline
90
8
70
1
43
0.0
10
18.906250000000107
20
-24.706250000000018
42
0.41421356237309503
10
18.406250000000064
20
-24.206250000000047
10
5.4062499999999858
20
-24.206250000000065
42
0.41421356237307422
10
4.9062500000000497
20
-24.706250000000018
10
4.9062500000000497
20
-37.70625000000004
42
0.41421356237321988
10
5.4062500000000568
20
-38.206250000000054
10
18.406250000000064
20
-38.206250000000068
42
0.4142135623730534
10
18.906250000000107
20
-37.70625000000004
0
LWPOLYLINE
5
186
100
AcDbEntity
8
0
100
AcDbPolyline
90
8
70
1
43
0.0
10
23.956250000000061
20
-37.70625000000004
10
23.956250000000061
20
-24.706250000000018
42
-0.41421356237309503
10
24.456250000000033
20
-24.206250000000047
10
37.45625000000004
20
-24.206250000000082
42
-0.41421356237306384
10
37.956250000000047
20
-24.706250000000036
10
37.956250000000047
20
-37.70625000000004
42
-0.41421356237312623
10
37.456250000000075
20
-38.206250000000068
10
24.456250000000033
20
-38.206250000000104
42
-0.41421356237306384
0
LWPOLYLINE
5
187
100
AcDbEntity
8
0
100
AcDbPolyline
90
8
70
1
43
0.0
10
57.006250000000094
20
-24.706250000000018
42
0.41421356237303258
10
56.506250000000087
20
-24.206250000000047
10
43.506250000000044
20
-24.206250000000065
42
0.41421356237309503
10
43.006250000000072
20
-24.706250000000018
10
43.006250000000108
20
-37.70625000000004
42
0.41421356237310542
10
43.506250000000044
20
-38.206250000000068
10
56.506250000000051
20
-38.206250000000068
42
0.41421356237310542
10
57.006250000000129
20
-37.706250000000061
0
LWPOLYLINE
5
188
100
AcDbEntity
8
0
100
AcDbPolyline
90
8
70
1
43
0.0
10
138.75625000000002
20
-24.206250000000065
42
0.41421356237303258
10
138.25625000000005
20
-24.706250000000018
10
138.25625000000002
20
-37.706250000000061
42
0.41421356237313667
10
138.75625000000002
20
-38.206250000000068
10
151.75624999999999
20
-38.206250000000054
42
0.41421356237318868
10
152.25625000000011
20
-37.706250000000061
10
152.25625000000005
20
-24.706250000000018
42
0.41421356237288692
10
151.75624999999999
20
-24.206250000000047
0
LWPOLYLINE
5
189
100
AcDbEntity
8
0
100
AcDbPolyline
90
8
70
1
43
0.0
10
138.25625000000002
20
-56.756250000000051
10
138.25625000000014
20
-43.756250000000065
42
-0.41421356237307422
10
138.75625000000002
20
-43.256250000000058
10
151.75624999999999
20
-43.256250000000094
42
-0.41421356237313667
10
152.25625000000005
20
-43.756250000000065
10
152.25625000000005
20
-56.756250000000051
42
-0.41421356237282447
10
151.75624999999999
20
-57.256250000000065
10
138.75625000000002
20
-57.256250000000044
42
-0.4142135623730846
0
LWPOLYLINE
5
190
100
AcDbEntity
8
0
100
AcDbPolyline
90
8
70
1
43
0.0
10
157.30625000000015
20
-56.756250000000051
42
0.4142135623730534
10
157.80625000000003
20
-57.256250000000023
10
170.80625000000001
20
-57.256250000000065
42
0.4142135623730846
10
171.3062500000002
20
-56.756250000000051
10
171.3062500000002
20
-43.756250000000065
42
0.41421356237313667
10
170.80625000000001
20
-43.256250000000094
10
157.80625000000003
20
-43.256250000000058
42
0.41421356237357371
10
157.30625000000015
20
-43.756250000000065
0
LWPOLYLINE
5
191
100
AcDbEntity
8
0
100
AcDbPolyline
90
40
70
1
43
0.0
10
-161.08799999999997
20
-42.206250000000054
10
-167.58799999999994
20
-42.20625000000009
42
-0.41421356237312623
10
-168.08799999999997
20
-41.706250000000068
10
-168.08799999999997
20
-21.706250000000047
42
-0.41421356237313667
10
-167.58799999999994
20
-21.20625000000009
10
-161.08799999999997
20
-21.206250000000075
42
-0.41421356237307422
10
-160.58799999999994
20
-21.706250000000047
10
-160.58799999999997
20
-25.406250000000021
42
0.41421356237309503
10
-160.28799999999993
20
-25.706250000000033
10
-159.69999999999996
20
-25.706250000000033
42
0.41421356237306034
10
-159.39999999999995
20
-25.406250000000039
10
-159.39999999999995
20
-24.70625000000009
42
-0.41421356237314705
10
-158.89999999999995
20
-24.206250000000118
10
-145.89999999999998
20
-24.206250000000082
42
-0.41421356237306384
10
-145.39999999999995
20
-24.706250000000036
10
-145.39999999999995
20
-25.406250000000021
42
0.41421356237307771
10
-145.09999999999994
20
-25.706250000000047
10
-144.51199999999997
20
-25.706250000000033
42
0.41421356237311241
10
-144.21199999999996
20
-25.406250000000004
10
-144.21199999999999
20
-21.706250000000047
42
-0.41421356237310542
10
-143.71199999999996
20
-21.206250000000047
10
-137.21199999999996
20
-21.206250000000075
42
-0.41421356237307422
10
-136.71199999999996
20
-21.706250000000047
10
-136.71199999999996
20
-41.706250000000068
42
-0.4142135623730534
10
-137.21199999999996
20
-42.206250000000061
10
-143.71200299999995
20
-42.206250000000068
42
-0.41421356237304302
10
-144.21200299999998
20
-41.706250000000082
10
-144.21200100000033
20
-40.006249466003005
42
0.41421356237314705
10
-144.51200053399705
20
-39.706249000000462
10
-146.46199999999996
20
-39.70624600000005
42
-0.41421362681246809
10
-147.21199899999974
20
-38.956244834992795
10
-147.21199799999994
20
-38.506245000000057
42
0.41421310740617406
10
-147.51199753399368
20
-38.206245000000479
10
-157.29129615472954
20
-38.206247163254176
42
0.41099375097905677
10
-157.58799499999955
20
-38.506228533997145
10
-157.58799599999998
20
-38.95622900000005
42
-0.4142136268124334
10
-158.33799716500724
20
-39.706227999999825
10
-160.28799699999993
20
-39.70622500000006
42
0.41421408372025015
10
-160.58799800000128
20
-40.006224533997141
10
-160.58799999999994
20
-41.706250000000068
42
-0.41421356237304302
0
LWPOLYLINE
5
192
100
AcDbEntity
8
0
100
AcDbPolyline
90
40
70
1
43
0.0
10
96.987502000000063
20
-19.156243000000099
42
0.41421356237314189
10
97.487502000000049
20
-18.656243000000103
10
97.487502000000148
20
-17.956243000000107
42
-0.41421356237309503
10
97.787502000000075
20
-17.656243000000096
10
98.375502000000111
20
-17.656244000000143
42
-0.41421356237314705
10
98.675501000000054
20
-17.956243000000107
10
98.675500000000056
20
-20.656250000000096
42
0.41421356237310542
10
99.175500000000028
20
-21.156250000000085
10
105.67550000000008
20
-21.156250000000078
42
0.41421356237307422
10
106.17550000000011
20
-20.656250000000078
10
106.17550000000001
20
-1.6562500000001013
42
0.41421356237312101
10
105.67550000000008
20
-1.1562500000001208
10
99.175500000000056
20
-1.1562500000000675
42
0.41421356237315748
10
98.675500000000056
20
-1.6562500000000924
10
98.675499000000073
20
-3.3562682094396123
42
-0.41421335789514258
10
98.375499000000062
20
-3.656268000000118
10
96.425498165007383
20
-3.6562650000003849
42
0.41421362681246809
10
95.675497000000078
20
-4.4062640000000997
10
95.675496939766433
20
-4.8562644660029619
42
-0.4113923837692432
10
95.378389000000041
20
-5.1562500000000711
10
85.599499533997218
20
-5.1562479999997208
42
-0.41421310740953854
10
85.299500000000137
20
-4.8562480000001074
10
85.299500000001913
20
-4.4062481650074226
42
0.41421323628822176
10
84.549502000000061
20
-3.6562470000001568
10
82.599502000000086
20
-3.6562450000018716
42
-0.41421453868088376
10
82.299501000000035
20
-3.3562430000000987
10
82.299500000000094
20
-1.6562500000000924
42
0.41421356237301177
10
81.79950000000008
20
-1.1562500000000853
10
75.299500000000108
20
-1.1562500000000764
42
0.41421356237309503
10
74.799500000000165
20
-1.6562500000000924
10
74.799500000000137
20
-20.656250000000085
42
0.41421356237311063
10
75.299500000000108
20
-21.156250000000085
10
81.79950000000008
20
-21.156250000000068
42
0.41421356237301177
10
82.299500000000052
20
-20.656250000000078
10
82.29950200000016
20
-17.956243000000107
42
-0.41421356237309503
10
82.599502000000086
20
-17.656243000000096
10
83.187502000000109
20
-17.656243000000096
42
-0.41421356237299095
10
83.487502000000092
20
-17.956243000000107
10
83.48750200000012
20
-18.656243000000075
42
0.41421356237309503
10
83.987502000000063
20
-19.156243000000082
0
LWPOLYLINE
5
193
100
AcDbEntity
8
0
100
AcDbPolyline
90
42
70
1
43
0.0
10
93.913000000000082
20
-41.706250000000097
42
0.41421356237313667
10
94.413000000000125
20
-42.206250000000139
10
100.91300000000007
20
-42.206250000000068
42
0.41421356237303258
10
101.41300000000008
20
-41.706250000000097
10
101.41300000000012
20
-22.706250000000132
42
0.41421356237303258
10
100.91300000000007
20
-22.20625000000009
10
94.413000000000125
20
-22.206250000000125
42
0.41421356237311585
10
93.913000000000082
20
-22.706250000000132
10
93.913000000000125
20
-25.406250000000075
42
-0.41421356237314705
10
93.613000000000071
20
-25.706250000000104
10
93.025000000000119
20
-25.706250000000068
42
-0.41421356237309503
10
92.72500000000008
20
-25.406250000000092
10
92.725000000000065
20
-24.70625000000009
42
0.41421356237290774
10
92.22500000000008
20
-24.206250000000082
10
79.225000000000108
20
-24.206250000000082
42
0.41421356237303258
10
78.725000000000136
20
-24.70625000000009
10
78.725000000000136
20
-25.406250000000092
42
-0.41421356237309503
10
78.425000000000125
20
-25.706250000000104
10
77.837000000000131
20
-25.706250000000104
42
-0.41421356237312978
10
77.537000000000091
20
-25.406250000000092
10
77.53700000000012
20
-22.706250000000132
42
0.41421356237303258
10
77.037000000000091
20
-22.20625000000009
10
70.537000000000091
20
-22.206250000000125
42
0.4142135623730534
10
70.037000000000091
20
-22.706250000000132
10
70.036999931938169
20
-23.719624000000117
10
70.037000000000091
20
-38.692876000000069
10
70.037000000000063
20
-41.706250000000097
42
0.4142135623731783
10
70.537000000000091
20
-42.206250000000139
10
77.037000000000091
20
-42.206250000000125
42
0.41421356237304302
10
77.53700000000012
20
-41.706250000000097
10
77.537001999998907
20
-40.006224533997177
42
-0.41421408372031954
10
77.837003000000038
20
-39.706225000000103
10
79.787002834992791
20
-39.706227999999875
42
0.41421362681246809
10
80.537004000000081
20
-38.956229000000079
10
80.537005000000306
20
-38.506228533997188
42
-0.41075175998696001
10
80.83345541425328
20
-38.206250000000068
10
90.613002466010755
20
-38.206245000000443
42
-0.4142131074020638
10
90.913002000000063
20
-38.506245000000092
10
90.913001000000278
20
-38.95624483499283
42
0.41421362681248891
10
91.663000000000181
20
-39.706246000000078
10
93.61299946600451
20
-39.706248000000393
42
-0.41421310740940748
10
93.913000000000082
20
-40.006249000000125
0
LWPOLYLINE
5
194
100
AcDbEntity
8
0
100
AcDbPolyline
90
40
70
1
43
0.0
10
84.980753000000078
20
17.44377499999991
42
0.41421408372025015
10
84.68075199999879
20
17.143775466002822
10
84.68075000000006
20
15.443749999999916
42
-0.41421356237313667
10
84.180750000000046
20
14.94374999999998
10
77.680750000000074
20
14.943749999999962
42
-0.41421356237312623
10
77.180750000000145
20
15.443749999999934
10
77.180750000000131
20
35.443749999999916
42
-0.41421356237301177
10
77.680750000000074
20
35.943749999999923
10
84.180750000000046
20
35.943749999999909
42
-0.41421356237298057
10
84.680750000000046
20
35.443749999999895
10
84.68075000000006
20
31.743749999999906
42
0.41421356237306034
10
84.980750000000072
20
31.44374999999993
10
85.56875000000008
20
31.44374999999993
42
0.41421356237307339
10
85.868750000000077
20
31.74374999999992
10
85.868750000000205
20
32.443749999999909
42
-0.41421356237309503
10
86.368750000000105
20
32.943749999999881
10
99.368750000000119
20
32.943749999999895
42
-0.41421356237313145
10
99.868750000000034
20
32.443749999999916
10
99.868750000000091
20
31.743749999999906
42
0.41421356237309503
10
100.16875000000006
20
31.44374999999993
10
100.75675000000007
20
31.44374999999993
42
0.41421356237307339
10
101.05675000000006
20
31.74374999999992
10
101.05675000000008
20
35.443749999999916
42
-0.41421356237311585
10
101.55675000000009
20
35.943749999999959
10
108.05675000000015
20
35.943749999999923
42
-0.41421356237314444
10
108.55675000000016
20
35.443749999999902
10
108.55675000000016
20
15.443749999999916
42
-0.41421356237309503
10
108.05675000000019
20
14.943749999999874
10
101.55675000000009
20
14.943749999999945
42
-0.41421356237300661
10
101.05675000000016
20
15.443749999999943
10
101.05675000000008
20
17.143750999999909
42
0.41421310740933814
10
100.75674946600465
20
17.44375199999957
10
98.806750000000093
20
17.443753999999842
42
-0.41421362681255475
10
98.05675100000029
20
18.193755165007161
10
98.056752000000074
20
18.643754999999906
42
0.41421310740582712
10
97.756752466006859
20
18.94375499999952
10
87.977423385098888
20
18.943752499999711
42
0.41096407832733556
10
87.68075500000046
20
18.643771466002839
10
87.680754000000121
20
18.193770999999934
42
-0.4142136268124611
10
86.930752834992859
20
17.443772000000191
0
LWPOLYLINE
5
195
100
AcDbEntity
8
0
100
AcDbPolyline
90
8
70
1
43
0.0
10
119.20625000000008
20
-18.656250000000085
10
119.20625000000008
20
-5.6562500000000782
42
-0.4142135623731783
10
119.7062500000001
20
-5.1562500000000711
10
170.80625000000023
20
-5.1562500000000711
42
-0.41421356237313667
10
171.30625000000015
20
-5.6562500000000782
10
171.3062500000002
20
-18.656250000000085
42
-0.4142135623731783
10
170.80625000000023
20
-19.156250000000057
10
119.7062500000001
20
-19.156250000000092
42
-0.41421356237297013
0
LWPOLYLINE
5
196
100
AcDbEntity
8
0
100
AcDbPolyline
90
8
70
1
43
0.0
10
119.7062500000001
20
-24.206250000000011
42
0.41421356237313667
10
119.20625000000008
20
-24.706250000000018
10
119.20625000000008
20
-37.70625000000004
42
0.41421356237306384
10
119.7062500000001
20
-38.206250000000068
10
132.70625000000007
20
-38.206250000000033
42
0.4142135623730846
10
133.20625000000007
20
-37.70625000000004
10
133.20625000000004
20
-24.706250000000036
42
0.41421356237295975
10
132.70625000000007
20
-24.206249999999976
0
LWPOLYLINE
5
197
100
AcDbEntity
8
0
100
AcDbPolyline
90
8
70
1
43
0.0
10
171.3062500000002
20
-24.706250000000018
10
171.3062500000002
20
-37.70625000000004
42
-0.41421356237313667
10
170.80625000000023
20
-38.206250000000082
10
157.80625000000026
20
-38.206250000000068
42
-0.41421356237295975
10
157.30625000000015
20
-37.70625000000004
10
157.30625000000001
20
-24.706250000000018
42
-0.41421356237313667
10
157.80625000000003
20
-24.206250000000047
10
170.80625000000023
20
-24.206250000000118
42
-0.41421356237297013
0
LWPOLYLINE
5
198
100
AcDbEntity
8
0
100
AcDbPolyline
90
12
70
1
43
0.0
10
-147.56549999999999
20
-8.1562500000000071
10
-147.06549999999996
20
-8.1562500000000426
42
-0.41421356237308982
10
-146.56549999999996
20
-8.6562500000000409
10
-146.56549999999996
20
-14.156250000000021
42
0.41421356237309503
10
-146.06549999999996
20
-14.656250000000011
10
-143.56549999999996
20
-14.656250000000028
42
-0.41421356237309503
10
-143.06549999999993
20
-15.156250000000036
10
-143.06549999999996
20
-15.656250000000007
42
-0.41421356237312623
10
-143.56549999999996
20
-16.156250000000032
10
-146.06549999999996
20
-16.156249999999996
42
-0.41421356237309764
10
-148.06549999999993
20
-14.156250000000021
10
-148.06549999999999
20
-8.6562500000000142
42
-0.41421356237306384
0
LWPOLYLINE
5
199
100
AcDbEntity
8
0
100
AcDbPolyline
90
12
70
1
43
0.0
10
-142.06549999999996
20
-9.6562499999999929
10
-144.56549999999996
20
-9.6562500000000284
42
-0.41421356237305862
10
-145.06549999999993
20
-9.156250000000048
10
-145.06549999999993
20
-8.6562500000000142
42
-0.41421356237306384
10
-144.56549999999996
20
-8.1562500000000426
10
-142.06549999999996
20
-8.1562500000000071
42
-0.41421356237310936
10
-140.06549999999996
20
-10.156250000000009
10
-140.06549999999993
20
-15.656250000000007
42
-0.41421356237309503
10
-140.56549999999996
20
-16.156250000000021
10
-141.06549999999996
20
-16.156250000000014
42
-0.41421356237312101
10
-141.56549999999993
20
-15.656250000000016
10
-141.56549999999996
20
-10.156250000000036
42
0.41421356237316787
0
LWPOLYLINE
5
200
100
AcDbEntity
8
0
100
AcDbPolyline
90
8
70
1
43
0.0
10
-170.93749999999997
20
12.893749999999891
10
-169.9375
20
12.893749999999855
42
-0.41421356237310542
10
-169.18749999999994
20
12.143749999999871
10
-169.18749999999994
20
1.6437500000001037
42
-0.41421356237309503
10
-169.9375
20
0.8937500000000892
10
-170.93749999999997
20
0.89375000000007532
42
-0.4142135623730846
10
-171.68749999999994
20
1.6437500000001126
10
-171.6875
20
12.143749999999862
42
-0.41421356237309503
0
LWPOLYLINE
5
201
100
AcDbEntity
8
0
100
AcDbPolyline
90
8
70
1
43
0.0
10
86.225000000000051
20
0.89375000000007532
42
0.41421356237310197
10
86.975000000000023
20
1.6437500000000504
10
86.975000000000023
20
12.143749999999818
42
0.41421356237307078
10
86.225000000000023
20
12.89374999999982
10
85.225000000000051
20
12.89374999999982
42
0.41421356237313667
10
84.47500000000008
20
12.143749999999827
10
84.47500000000008
20
1.6437500000000238
42
0.41421356237300833
10
85.225000000000051
20
0.89375000000000426
0
LWPOLYLINE
5
202
100
AcDbEntity
8
0
100
AcDbPolyline
90
8
70
1
43
0.0
10
-133.88749972432845
20
-36.456249999999898
42
0.41421356237308815
10
-133.13749972432845
20
-37.206249999999876
10
-132.13749972432848
20
-37.206249999999876
42
0.41421356237312279
10
-131.38749972432851
20
-36.456249999999898
10
-131.38749972432848
20
-25.956250000000125
42
0.41421356237309503
10
-132.13749972432848
20
-25.206250000000132
10
-133.13749972432848
20
-25.206250000000118
42
0.41421356237307422
10
-133.88749972432848
20
-25.95625000000009
0
LWPOLYLINE
5
203
100
AcDbEntity
8
0
100
AcDbPolyline
90
8
70
1
43
0.0
10
-146.38749999999993
20
12.143749999999844
42
0.41421356237308815
10
-147.13749999999996
20
12.893749999999828
10
-148.13749999999996
20
12.893749999999876
42
0.41421356237308815
10
-148.88749999999993
20
12.143749999999862
10
-148.88749999999993
20
1.6437500000000771
42
0.41421356237309853
10
-148.13749999999996
20
0.89375000000007532
10
-147.13749999999996
20
0.89375000000006199
42
0.41421356237308116
10
-146.38749999999993
20
1.6437500000001037
0
LWPOLYLINE
5
204
100
AcDbEntity
8
0
100
AcDbPolyline
90
8
70
1
43
0.0
10
63.021624982984541
20
-25.206250000000203
10
64.021624982984633
20
-25.206250000000168
42
-0.41421356237307422
10
64.771624982984548
20
-25.956250000000178
10
64.771624982984548
20
-36.45624999999994
42
-0.41421356237306733
10
64.021624982984633
20
-37.206249999999926
10
63.021624982984541
20
-37.206249999999947
42
-0.41421356237306034
10
62.271624982984584
20
-36.45624999999994
10
62.271624982984584
20
-25.956250000000161
42
-0.41421356237309503
0
LWPOLYLINE
5
205
100
AcDbEntity
8
0
100
AcDbPolyline
90
8
70
1
43
0.0
10
71.915375000000097
20
-6.9062500000001847
10
71.915375000000068
20
-17.406249999999908
42
-0.41421356237315055
10
71.16537500000004
20
-18.156249999999943
10
70.165375000000097
20
-18.156249999999936
42
-0.41421356237310197
10
69.415375000000068
20
-17.406249999999961
10
69.415375000000054
20
-6.9062500000001492
42
-0.41421356237306733
10
70.165375000000054
20
-6.1562500000001474
10
71.16537500000004
20
-6.1562500000001918
42
-0.41421356237312279
0
LWPOLYLINE
5
206
100
AcDbEntity
8
0
100
AcDbPolyline
90
8
70
1
43
0.0
10
-166.54374999999999
20
-56.756249999999952
10
-166.54375000000002
20
-43.756249999999959
42
-0.4142135623730534
10
-166.04375000000002
20
-43.256249999999966
10
-153.04374999999999
20
-43.256249999999966
42
-0.4142135623730846
10
-152.54374999999999
20
-43.756249999999959
10
-152.54374999999999
20
-56.756249999999952
42
-0.41421356237311585
10
-153.04374999999999
20
-57.256249999999973
10
-166.04374999999999
20
-57.256249999999973
42
-0.41421356237310542
0
LWPOLYLINE
5
207
100
AcDbEntity
8
0
100
AcDbPolyline
90
8
70
1
43
0.0
10
-148.13750000000002
20
-44.256250000000051
42
0.41421356237310897
10
-148.88749999999999
20
-45.006250000000051
10
-148.88749999999999
20
-55.506249999999817
42
0.41421356237309159
10
-148.13749999999999
20
-56.256249999999817
10
-147.13749999999999
20
-56.256249999999817
42
0.41421356237308815
10
-146.38750000000002
20
-55.506249999999824
10
-146.38750000000002
20
-45.006250000000065
42
0.41421356237308116
10
-147.13750000000002
20
-44.256250000000072
0
LWPOLYLINE
5
208
100
AcDbEntity
8
0
100
AcDbPolyline
90
8
70
1
43
0.0
10
-142.73124999999999
20
-56.756249999999952
42
0.41421356237310542
10
-142.23124999999999
20
-57.256249999999973
10
-129.23124999999996
20
-57.256249999999952
42
0.41421356237304302
10
-128.73124999999999
20
-56.756249999999952
10
-128.73124999999999
20
-43.756249999999959
42
0.41421356237314705
10
-129.23124999999999
20
-43.256249999999966
10
-142.23124999999999
20
-43.256249999999966
42
0.4142135623730534
10
-142.73124999999999
20
-43.756249999999959
0
LWPOLYLINE
5
209
100
AcDbEntity
8
0
100
AcDbPolyline
90
8
70
1
43
0.0
10
-124.32499999999999
20
-44.256250000000072
42
0.41421356237310897
10
-125.07499999999996
20
-45.006250000000051
10
-125.07499999999996
20
-55.506249999999824
42
0.41421356237308116
10
-124.32499999999997
20
-56.256249999999817
10
-123.32499999999999
20
-56.256249999999817
42
0.41421356237308116
10
-122.575
20
-55.506249999999824
10
-122.57499999999996
20
-45.006250000000065
42
0.41421356237310197
10
-123.32499999999999
20
-44.256250000000072
0
LWPOLYLINE
5
210
100
AcDbEntity
8
0
100
AcDbPolyline
90
8
70
1
43
0.0
10
-104.91874999999996
20
-43.756249999999959
10
-104.91874999999996
20
-56.756249999999952
42
-0.41421356237313667
10
-105.41874999999999
20
-57.256250000000001
10
-118.41874999999999
20
-57.256249999999973
42
-0.41421356237309503
10
-118.91874999999999
20
-56.756249999999966
10
-118.91874999999999
20
-43.756249999999959
42
-0.4142135623730534
10
-118.41874999999999
20
-43.256249999999959
10
-105.41874999999997
20
-43.256249999999966
42
-0.41421356237310542
0
LWPOLYLINE
5
211
100
AcDbEntity
8
0
100
AcDbPolyline
90
8
70
1
43
0.0
10
-97.26249999999996
20
-45.00625000000008
42
0.41421356237308116
10
-98.01249999999996
20
-44.256250000000094
10
-99.012499999999974
20
-44.256250000000094
42
0.41421356237308815
10
-99.76249999999996
20
-45.006250000000065
10
-99.762499999999932
20
-55.506249999999838
42
0.41421356237309503
10
-99.012499999999932
20
-56.256249999999838
10
-98.012499999999974
20
-56.256249999999838
42
0.41421356237307422
10
-97.26249999999996
20
-55.506249999999838
0
LWPOLYLINE
5
212
100
AcDbEntity
8
0
100
AcDbPolyline
90
24
70
1
43
0.0
10
-70.356249999998965
20
-46.256249999999994
42
0.41421356237306733
10
-71.106249999998965
20
-47.006249999999987
10
-71.106249999998937
20
-47.50624999999998
42
-0.41421356237310197
10
-71.856249999998909
20
-48.256250000000009
10
-80.356249999998965
20
-48.256249999999966
42
0.41421356237306034
10
-81.10624999999898
20
-49.006249999999966
10
-81.10624999999898
20
-51.506249999999966
42
0.41421356237307422
10
-80.356249999998965
20
-52.256249999999994
10
-71.856249999998909
20
-52.256250000000009
42
-0.41421356237310897
10
-71.106249999998965
20
-53.006249999999966
10
-71.106249999998965
20
-53.506249999999994
42
0.41421356237310197
10
-70.356249999998965
20
-54.256249999999966
10
-51.706250000000026
20
-54.256249999999966
42
0.41421356237306733
10
-50.956250000000018
20
-53.506249999999994
10
-50.956250000000018
20
-53.006249999999966
42
-0.4142135623730257
10
-50.206250000000011
20
-52.256249999999994
10
-41.706250000000011
20
-52.256249999999994
42
0.41421356237312978
10
-40.95625000000004
20
-51.506249999999966
10
-40.95625000000004
20
-49.006249999999966
42
0.41421356237312279
10
-41.706250000000011
20
-48.256249999999987
10
-50.206250000000011
20
-48.256249999999987
42
-0.41421356237309503
10
-50.956250000000018
20
-47.50624999999998
10
-50.956250000000018
20
-47.006249999999987
42
0.4142135623730534
10
-51.706250000000026
20
-46.25624999999998
0
LWPOLYLINE
5
213
100
AcDbEntity
8
0
100
AcDbPolyline
90
24
70
1
43
0.0
10
-10.956250000000054
20
-53.006249999999966
42
0.41421356237309503
10
-11.706250000000047
20
-52.256249999999973
10
-20.206250000000008
20
-52.256249999999994
42
-0.4142135623730534
10
-20.956250000000036
20
-51.506249999999966
10
-20.956250000000018
20
-49.006249999999966
42
-0.41421356237312978
10
-20.206250000000008
20
-48.256250000000009
10
-11.706250000000047
20
-48.256249999999987
42
0.41421356237309503
10
-10.956250000000036
20
-47.50624999999998
10
-10.956250000000054
20
-47.006249999999987
42
-0.41421356237310897
10
-10.206250000000097
20
-46.256249999999994
10
8.4437500000008825
20
-46.25624999999998
42
-0.41421356237310197
10
9.1937500000008754
20
-47.006249999999987
10
9.1937500000008754
20
-47.50624999999998
42
0.41421356237309503
10
9.9437500000008683
20
-48.256249999999966
10
18.443750000000882
20
-48.256249999999987
42
-0.41421356237313667
10
19.193750000000964
20
-49.006249999999966
10
19.193750000000875
20
-51.506249999999966
42
-0.41421356237309503
10
18.443750000000882
20
-52.256249999999952
10
9.9437500000008683
20
-52.256249999999994
42
0.41421356237309503
10
9.1937500000008932
20
-53.006249999999966
10
9.1937500000008754
20
-53.506249999999994
42
-0.41421356237308815
10
8.4437500000008825
20
-54.256249999999966
10
-10.206250000000097
20
-54.256249999999966
42
-0.41421356237308116
10
-10.956250000000036
20
-53.506249999999994
0
LWPOLYLINE
5
214
100
AcDbEntity
8
0
100
AcDbPolyline
90
4
70
1
43
0.0
10
139.48125000000005
20
-61.531250000000064
42
0.99999999999999989
10
139.48125000000005
20
-60.031250000000114
10
138.9812500000001
20
-60.031250000000114
42
0.99999999999999989
10
138.98124999999996
20
-61.531250000000064
0
LWPOLYLINE
5
215
100
AcDbEntity
8
0
100
AcDbPolyline
90
4
70
1
43
0.0
10
-122.45624999999993
20
-61.531249999999993
10
-122.95624999999994
20
-61.531250000000028
42
-0.99999999999999989
10
-122.95624999999994
20
-60.031250000000078
10
-122.45624999999987
20
-60.031250000000007
42
-0.99999999999999989
0
LWPOLYLINE
5
216
100
AcDbEntity
8
0
100
AcDbPolyline
90
4
70
1
43
0.0
10
44.231250000000095
20
-61.531250000000064
42
0.99999999999999989
10
44.231250000000024
20
-60.031250000000114
10
43.731250000000195
20
-60.031250000000099
42
0.99999999999999989
10
43.731250000000053
20
-61.531250000000043
0
ENDSEC
0
SECTION
2
OBJECTS
0
DICTIONARY
5
C
100
AcDbDictionary
3
ACAD_GROUP
350
D
3
ACAD_MLINESTYLE
350
17
0
DICTIONARY
5
D
100
AcDbDictionary
0
DICTIONARY
5
1A
330
C
100
AcDbDictionary
0
DICTIONARY
5
17
100
AcDbDictionary
0
ENDSEC
0
EOF
