0
SECTION
2
HEADER
9
$INSUNITS
70
4
9
$ACADVER
1
AC1014
9
$HANDSEED
5
FFFF
0
ENDSEC
0
SECTION
2
TABLES
0
TABLE
2
VPORT
5
8
100
AcDbSymbolTable
0
ENDTAB
0
TABLE
2
LTYPE
5
5
100
AcDbSymbolTable
0
LTYPE
5
14
100
AcDbSymbolTableRecord
100
AcDbLinetypeTableRecord
2
BYBLOCK
70
0
0
LTYPE
5
15
100
AcDbSymbolTableRecord
100
AcDbLinetypeTableRecord
2
BYLAYER
70
0
0
LTYPE
5
16
100
AcDbSymbolTableRecord
100
AcDbLinetypeTableRecord
2
DASHED
70
0
3
Dashed __ __ __ __ __ __ __ __ __ __ __ __ __ _
72
65
73
2
40
0.75
49
0.5
74
0
49
-0.25
74
0
0
ENDTAB
0
TABLE
2
LAYER
5
2
100
AcDbSymbolTable
70
2
0
LAYER
5
50
100
AcDbSymbolTableRecord
100
AcDbLayerTableRecord
2
0
70
0
62
7
6
CONTINUOUS
0
ENDTAB
0
TABLE
2
STYLE
5
3
100
AcDbSymbolTable
70
1
0
STYLE
5
11
100
AcDbSymbolTableRecord
100
AcDbTextStyleTableRecord
2
STANDARD
70
0
0
ENDTAB
0
TABLE
2
VIEW
5
6
100
AcDbSymbolTable
70
0
0
ENDTAB
0
TABLE
2
UCS
5
7
100
AcDbSymbolTable
70
0
0
ENDTAB
0
TABLE
2
APPID
5
9
100
AcDbSymbolTable
70
2
0
APPID
5
12
100
AcDbSymbolTableRecord
100
AcDbRegAppTableRecord
2
ACAD
70
0
0
ENDTAB
0
TABLE
2
DIMSTYLE
5
A
100
AcDbSymbolTable
70
1
0
ENDTAB
0
TABLE
2
BLOCK_RECORD
5
1
100
AcDbSymbolTable
70
1
0
BLOCK_RECORD
5
1F
100
AcDbSymbolTableRecord
100
AcDbBlockTableRecord
2
*MODEL_SPACE
0
BLOCK_RECORD
5
1B
100
AcDbSymbolTableRecord
100
AcDbBlockTableRecord
2
*PAPER_SPACE
0
ENDTAB
0
ENDSEC
0
SECTION
2
BLOCKS
0
BLOCK
5
20
100
AcDbEntity
100
AcDbBlockBegin
2
*MODEL_SPACE
0
ENDBLK
5
21
100
AcDbEntity
100
AcDbBlockEnd
0
BLOCK
5
1C
100
AcDbEntity
100
AcDbBlockBegin
2
*PAPER_SPACE
0
ENDBLK
5
1D
100
AcDbEntity
100
AcDbBlockEnd
0
ENDSEC
0
SECTION
2
ENTITIES
0
LWPOLYLINE
5
100
100
AcDbEntity
8
0
100
AcDbPolyline
90
8
70
1
43
0.0
10
-12.975723296944404
20
-31.077004046229639
10
-10.50000014901163
20
-31.077004046229639
42
-0.41421356237309764
10
-10.00000014901163
20
-31.577004046229643
10
-10.00000014901171
20
-44.577004046229661
42
-0.41421356237309503
10
-10.500000149011708
20
-45.077004046229661
10
-12.975723296944368
20
-45.077004046229661
42
-0.41421356237309503
10
-13.475723296944368
20
-44.577004046229661
10
-13.475723296944402
20
-31.577004046229639
42
-0.41421356237309503
0
LWPOLYLINE
5
101
100
AcDbEntity
8
0
100
AcDbPolyline
90
8
70
1
43
0.0
10
13.051078799259763
20
-45.077004046229661
10
10.500000149011514
20
-45.077004046229661
42
-0.41421356237309503
10
10.000000149011514
20
-44.577004046229661
10
10.000000149011598
20
-31.577004046229632
42
-0.41421356237309243
10
10.500000149011598
20
-31.077004046229639
10
13.051078799260022
20
-31.077004046229639
42
-0.41421356237310025
10
13.551078799260024
20
-31.577004046229646
10
13.551078799259761
20
-44.577004046229675
42
-0.41421356237308982
0
LWPOLYLINE
5
102
100
AcDbEntity
8
0
100
AcDbPolyline
90
12
70
1
43
0.0
10
-109.10937495068166
20
2.0229959534736941
10
-109.10937495068161
20
-3.4770040465263108
42
-0.41421356237309503
10
-109.60937495068163
20
-3.9770040465263179
10
-110.10937495068166
20
-3.977004046526309
42
-0.4142135623730846
10
-110.60937495068168
20
-3.4770040465263019
10
-110.60937495068163
20
2.0229959534736985
42
0.41421356237307944
10
-111.1093749506816
20
2.522995953473679
10
-113.6093749506816
20
2.5229959534736945
42
-0.41421356237308593
10
-114.10937495068161
20
3.0229959534736861
10
-114.10937495068161
20
3.5229959534736843
42
-0.41421356237310025
10
-113.6093749506816
20
4.0229959534736999
10
-111.1093749506816
20
4.0229959534736288
42
-0.41421356237309176
0
LWPOLYLINE
5
103
100
AcDbEntity
8
0
100
AcDbPolyline
90
8
70
1
43
0.0
10
121.5875005490218
20
-44.577004046229654
10
121.58750054902178
20
-31.577004046229646
42
-0.41421356237293894
10
122.08750054902167
20
-31.077004046229924
10
135.08750054902168
20
-31.077004046229639
42
-0.41421356237298579
10
135.5875005490216
20
-31.577004046229568
10
135.58750054902191
20
-44.577004046229476
42
-0.41421356237323032
10
135.08750054902168
20
-45.07700404622986
10
122.08750054902171
20
-45.077004046229604
42
-0.41421356237311585
0
LWPOLYLINE
5
104
100
AcDbEntity
8
0
100
AcDbPolyline
90
8
70
1
43
0.0
10
-135.58749945097827
20
-44.577004046229654
10
-135.5874994509783
20
-31.577004046229682
42
-0.41421356237306384
10
-135.0874994509783
20
-31.077004046229625
10
-122.08749945097834
20
-31.077004046229675
42
-0.41421356237314705
10
-121.58749945097824
20
-31.577004046229682
10
-121.58749945097836
20
-44.577004046229654
42
-0.41421356237314705
10
-122.08749945097834
20
-45.077004046229732
10
-135.08749945097833
20
-45.077004046229575
42
-0.41421356237303258
0
LWPOLYLINE
5
105
100
AcDbEntity
8
0
100
AcDbPolyline
90
152
70
1
43
0.0
10
-81.020994259377346
20
-48.902494435893438
42
0.41421356237311585
10
-80.520994259377289
20
-49.402494435893445
10
-74.54779136729735
20
-49.402494435893516
42
-0.4142135623730222
10
-73.547791367297322
20
-50.40249443589326
10
-73.547791367297876
20
-51.702082579594716
42
-0.4142135623731939
10
-74.547791367297336
20
-52.702082579594659
10
-84.02099425937736
20
-52.702082579593821
42
-0.41421356237309243
10
-86.020994259377304
20
-50.702082579593863
10
-86.020994259377346
20
-48.102004046228743
42
0.4142135623730846
10
-86.520994259377346
20
-47.60200404622875
10
-118.54779635558133
20
-47.602004046228558
42
0.4142135623730846
10
-119.04779635558128
20
-48.102004046228558
10
-119.04779635558131
20
-50.702082579593792
42
-0.41421356237309503
10
-121.04779635558131
20
-52.702082579593785
10
-130.54779635558134
20
-52.70208257959419
42
-0.41421356237297535
10
-131.54779635558134
20
-51.702082579594588
10
-131.54779635558182
20
-50.402494435894241
42
-0.41421356237323032
10
-130.54779635558134
20
-49.402494435893445
10
-124.54779635558143
20
-49.402494435893438
42
0.41421356237311585
10
-124.04779635558135
20
-48.902494435893388
10
-124.04779635558135
20
-48.10200404622833
42
0.4142135623730846
10
-124.54779635558133
20
-47.602004046228373
10
-141.37499995097869
20
-47.602004046229567
42
-0.41421356237310897
10
-142.87499995097519
20
-46.102004046229588
10
-142.87499995097832
20
46.147995953770391
42
-0.41421356237307599
10
-141.37499995097841
20
47.647995953770348
10
-103.34022311068537
20
47.647995953770355
42
0.41421356237311585
10
-102.8402231106854
20
48.147995953770391
10
-102.84022311068547
20
48.948489994678262
42
0.41421356237308982
10
-103.34022311068544
20
49.448489994678226
10
-109.34022311068532
20
49.448489994676343
42
-0.41421356237327195
10
-110.34022311068533
20
50.448489994676962
10
-110.34022311068568
20
51.748499424166852
42
-0.41421356237295975
10
-109.34022311068532
20
52.748499424166759
10
-99.840223110685343
20
52.748499424166688
42
-0.41421356237309243
10
-97.840223110685329
20
50.74849942416666
10
-97.840223110685372
20
48.147995953770362
42
0.41421356237310025
10
-97.340223110685358
20
47.647995953770348
10
-65.313421014481449
20
47.647995953770376
42
0.414213562373069
10
-64.813421014481492
20
48.147995953770355
10
-64.813421014481463
20
50.748499424166468
42
-0.41421356237309764
10
-62.813421014481463
20
52.748499424166475
10
-53.313421014482344
20
52.748499424166475
42
-0.41421356237295454
10
-52.313421014482344
20
51.748499424166781
10
-52.31342101448206
20
50.448489994676876
42
-0.41421356237323553
10
-53.313421014482287
20
49.448489994676166
10
-59.313421014481506
20
49.448489994677729
42
0.41421356237310542
10
-59.813421014481492
20
48.948489994677757
10
-59.813421014481435
20
48.147995953770405
42
0.41421356237306384
10
-59.313421014481378
20
47.647995953770383
10
-11.340223110685361
20
47.647995953770433
42
0.4142135623730846
10
-10.840223110685372
20
48.147995953770391
10
-10.840223110685336
20
48.948489994677189
42
0.41421356237309503
10
-11.340223110685343
20
49.448489994677196
10
-17.340223110685287
20
49.448489994676379
42
-0.4142135623732095
10
-18.340223110685372
20
50.448489994676855
10
-18.340223110685585
20
51.748499424166667
42
-0.41421356237301438
10
-17.340223110685287
20
52.748499424166688
10
-7.8402231106853657
20
52.748499424166617
42
-0.41421356237309004
10
-5.8402231106853719
20
50.748499424166589
10
-5.8402231106852822
20
48.147995953770469
42
0.41421356237314189
10
-5.3402231106852582
20
47.647995953770348
10
26.686578985518601
20
47.64799595377049
42
0.41421356237309503
10
27.186578985518679
20
48.147995953770497
10
27.186578985518537
20
50.748499424166475
42
-0.41421356237307033
10
29.186578985518707
20
52.748499424166475
10
38.686578985517635
20
52.748499424166404
42
-0.41421356237300139
10
39.686578985517684
20
51.748499424166603
10
39.686578985518111
20
50.448489994676805
42
-0.41421356237314189
10
38.686578985517741
20
49.448489994675988
10
32.686578985518366
20
49.448489994676734
42
0.41421356237321988
10
32.186578985518253
20
48.948489994676407
10
32.186578985518622
20
48.147995953770241
42
0.41421356237296497
10
32.686578985518651
20
47.647995953770454
10
80.172976476946786
20
47.647995953770454
42
0.41421356237309503
10
80.672976476946729
20
48.147995953770533
10
80.672976476946616
20
48.948489994676166
42
0.41421356237294416
10
80.172976476946616
20
49.448489994676237
10
74.599776889314626
20
49.448489994675491
42
-0.41421356237312623
10
73.599776889314654
20
50.448489994675505
10
73.599776889314867
20
51.748499424166504
42
-0.41421356237310281
10
74.599776889314739
20
52.748499424166404
10
84.172976476946673
20
52.748499424166404
42
-0.41421356237308982
10
86.172976476946701
20
50.748499424166411
10
86.17297647694663
20
48.147995953770504
42
0.41421356237305862
10
86.672976476946673
20
47.647995953770526
10
118.69977857314979
20
47.64799595377049
42
0.41421356237309503
10
119.19977857314976
20
48.147995953770497
10
119.19977857314979
20
50.748499424166397
42
-0.41421356237309764
10
121.19977857314979
20
52.748499424166404
10
130.6997785731497
20
52.748499424166475
42
-0.41421356237313667
10
131.69977857314976
20
51.748499424166212
10
131.69977857314922
20
50.44848999467532
42
-0.41421356237311324
10
130.69977857314967
20
49.448489994675704
10
124.69977857314956
20
49.448489994675739
42
0.41421356237309503
10
124.19977857314962
20
48.948489994675661
10
124.19977857314967
20
48.14799611070066
42
0.41421355977254432
10
124.6997785687104
20
47.64799611070071
10
141.37497591905856
20
47.647995962649233
42
-0.41421348393982294
10
142.87497590574077
20
46.147996351012921
10
142.87499979011267
20
-46.102003657866177
42
-0.41421363820586232
10
141.37499979011267
20
-47.6020040462301
10
124.67657879925959
20
-47.602004046211199
42
0.4142135623730534
10
124.17657879925969
20
-48.102004046211206
10
124.17657879925967
20
-48.948911280467833
42
0.41421356237307422
10
124.67657879925966
20
-49.448911280467783
10
130.64978169133974
20
-49.448911280466383
42
-0.41421356237331353
10
131.64978169133974
20
-50.448911280467001
10
131.64978169133877
20
-51.74849942416639
42
-0.41421356237311585
10
130.64978169133965
20
-52.748499424165587
10
121.17657879925957
20
-52.7484994241658
42
-0.41421356237309243
10
119.17657879925969
20
-50.748499424165928
10
119.17657879925976
20
-48.102004046229879
42
0.4142135623730222
10
118.67657879925972
20
-47.602004046229958
10
86.649776703056631
20
-47.602004046229652
42
0.41421356237312623
10
86.149776703056631
20
-48.102004046229681
10
86.14977670305656
20
-50.748499424166397
42
-0.41421356237307944
10
84.149776703056745
20
-52.748499424166383
10
74.64977670305575
20
-52.74849942416683
42
-0.41421356237323553
10
73.649776703055636
20
-51.748499424166297
10
73.649776703055196
20
-50.448911280467016
42
-0.41421356237320428
10
74.649776703055721
20
-49.44891128046612
10
80.649776703056688
20
-49.44891128046757
42
0.4142135623730846
10
81.149776703056631
20
-48.948911280467549
10
81.149776703056574
20
-48.102004046214176
42
0.41421356237310542
10
80.649776703056659
20
-47.602004046214233
10
22.051078799259756
20
-47.602004046218305
42
0.41421356237311585
10
21.551078799259642
20
-48.102004046218347
10
21.551078799259642
20
-48.948911280467264
42
0.4142135623730846
10
22.051078799259614
20
-49.448911280467215
10
28.024281691339716
20
-49.448911280466987
42
-0.4142135623730534
10
29.024281691339695
20
-50.448911280466753
10
29.02428169133934
20
-51.748499424166212
42
-0.41421356237304818
10
28.024281691339752
20
-52.748499424165928
10
18.551078799259706
20
-52.748499424166191
42
-0.41421356237306384
10
16.551078799259642
20
-50.748499424166127
10
16.551078799259695
20
-48.102004046229339
42
0.4142135623730846
10
16.05107879925967
20
-47.602004046229339
10
-15.975723296944295
20
-47.60200404622914
42
0.41421356237307422
10
-16.475723296944409
20
-48.102004046229126
10
-16.475723296944302
20
-50.748499424166518
42
-0.41421356237310025
10
-18.475723296944295
20
-52.748499424166546
10
-27.975723296944235
20
-52.748499424166852
42
-0.41421356237299095
10
-28.975723296944409
20
-51.748499424166923
10
-28.975723296943752
20
-50.44891128046654
42
-0.41421356237323032
10
-27.975723296944324
20
-49.44891128046693
10
-21.975723296944274
20
-49.448911280466916
42
0.41421356237314705
10
-21.475723296944267
20
-48.948911280466909
10
-21.475723296944231
20
-48.102004046221332
42
0.41421356237318868
10
-21.975723296944381
20
-47.60200404622131
10
-80.520994259377346
20
-47.602004046225375
42
0.41421356237309503
10
-81.020994259377304
20
-48.102004046225382
0
LWPOLYLINE
5
106
100
AcDbEntity
8
0
100
AcDbPolyline
90
8
70
1
43
0.0
10
64.437500049614613
20
-6.4770040468229251
42
0.41421356237310025
10
64.937500049614698
20
-6.9770040468230121
10
77.93750004961467
20
-6.9770040468228789
42
0.41421356237364654
10
78.437500049615636
20
-6.4770040468229162
10
78.437500049614613
20
6.5229959531770998
42
0.41421356237314189
10
77.93750004961467
20
7.0229959531771158
10
64.937500049614584
20
7.0229959531771868
42
0.41421356237240825
10
64.437500049614727
20
6.5229959531770731
0
LWPOLYLINE
5
107
100
AcDbEntity
8
0
100
AcDbPolyline
90
8
70
1
43
0.0
10
100.15625004902169
20
-25.527004046229614
42
0.41421356237307944
10
100.65625004902174
20
-26.027004046229631
10
113.65625004902172
20
-26.027004046229489
42
0.41421356237303258
10
114.15625004902168
20
-25.527004046229607
10
114.15625004902168
20
-12.5270040462296
42
0.41421356237311585
10
113.65625004902171
20
-12.027004046229592
10
100.65625004902174
20
-12.027004046229601
42
0.41421356237311585
10
100.15625004902176
20
-12.527004046229617
0
LWPOLYLINE
5
108
100
AcDbEntity
8
0
100
AcDbPolyline
90
8
70
1
43
0.0
10
88.750000049021764
20
45.12299595376998
10
101.75000004902174
20
45.1229959537703
42
-0.41421356237303258
10
102.25000004902164
20
44.622995953770221
10
102.25000004902178
20
31.622995953770072
42
-0.41421356237290774
10
101.75000004902176
20
31.122995953770598
10
88.750000049021764
20
31.122995953770669
42
-0.41421356237302481
10
88.250000049021793
20
31.622995953770236
10
88.250000049021622
20
44.622995953771429
42
-0.41421356237315748
0
LWPOLYLINE
5
109
100
AcDbEntity
8
0
100
AcDbPolyline
90
8
70
1
43
0.0
10
96.987500049614596
20
-6.9770040468229766
42
0.41421356237296497
10
97.487500049614582
20
-6.4770040468231027
10
97.487500049614496
20
6.5229959531772863
42
0.41421356237309503
10
96.987500049614681
20
7.0229959531771158
10
83.987500049614709
20
7.0229959531770447
42
0.41421356237309503
10
83.48750004961488
20
6.5229959531772153
10
83.487500049614809
20
-6.4770040468231027
42
0.414213562373069
10
83.987500049614709
20
-6.9770040468229766
0
LWPOLYLINE
5
110
100
AcDbEntity
8
0
100
AcDbPolyline
90
8
70
1
43
0.0
10
74.462500049614704
20
-12.027004046822878
10
87.462500049614675
20
-12.027004046822611
42
-0.41421356237301699
10
87.962500049614903
20
-12.527004046822698
10
87.962500049614675
20
-25.527004046822999
42
-0.41421356237299095
10
87.462500049614732
20
-26.027004046822881
10
74.462500049614704
20
-26.027004046822661
42
-0.41421356237302737
10
73.962500049614846
20
-25.527004046822917
10
73.962500049614874
20
-12.527004046822707
42
-0.41421356237309503
0
LWPOLYLINE
5
111
100
AcDbEntity
8
0
100
AcDbPolyline
90
8
70
1
43
0.0
10
-54.912499950385012
20
6.5229959531770376
10
-54.912499950384955
20
-6.4770040468229517
42
-0.41421356237306384
10
-55.412499950385055
20
-6.9770040468228522
10
-68.412499950385097
20
-6.9770040468229766
42
-0.41421356237315227
10
-68.91249995038504
20
-6.4770040468229428
10
-68.912499950385083
20
6.5229959531769666
42
-0.41421356237301177
10
-68.412499950385069
20
7.0229959531770536
10
-55.412499950384984
20
7.0229959531769737
42
-0.41421356237307422
0
LWPOLYLINE
5
112
100
AcDbEntity
8
0
100
AcDbPolyline
90
8
70
1
43
0.0
10
-3.0249999503852898
20
12.072995953176964
42
0.41421356237314444
10
-2.524999950385407
20
12.572995953176967
10
-2.5249999503854381
20
25.572995953176971
42
0.41421356237314189
10
-3.0249999503853076
20
26.072995953177198
10
-16.024999950385279
20
26.072995953177003
42
0.41421356237309503
10
-16.524999950385393
20
25.572995953176978
10
-16.5249999503853
20
12.572995953177063
42
0.41421356237302481
10
-16.024999950385279
20
12.072995953177177
0
LWPOLYLINE
5
113
100
AcDbEntity
8
0
100
AcDbPolyline
90
8
70
1
43
0.0
10
54.912500049614721
20
-25.527004046823016
42
0.41421356237301177
10
55.412500049614657
20
-26.027004046822881
10
68.412500049614735
20
-26.027004046822945
42
0.4142135623730534
10
68.912500049614636
20
-25.52700404682291
10
68.912500049614636
20
-12.527004046822912
42
0.41421356237297535
10
68.412500049614664
20
-12.027004046823144
10
55.412500049614586
20
-12.02700404682294
42
0.41421356237251233
10
54.912500049614721
20
-12.527004046823009
0
LWPOLYLINE
5
114
100
AcDbEntity
8
0
100
AcDbPolyline
90
8
70
1
43
0.0
10
-64.937499950385131
20
-26.027004046822935
10
-77.93749995038489
20
-26.027004046822945
42
-0.4142135623730846
10
-78.437499950384904
20
-25.527004046822945
10
-78.437499950384918
20
-12.527004046822956
42
-0.41421356237311585
10
-77.937499950384947
20
-12.027004046822984
10
-64.937499950385131
20
-12.027004046822967
42
-0.41421356237308982
10
-64.437499950385131
20
-12.527004046822965
10
-64.437499950385032
20
-25.527004046822857
42
-0.4142135623730846
0
LWPOLYLINE
5
115
100
AcDbEntity
8
0
100
AcDbPolyline
90
8
70
1
43
0.0
10
-135.08749995097833
20
26.072995953770338
42
0.41421356237309503
10
-135.5874999509783
20
25.572995953770334
10
-135.58749995097821
20
12.572995953770345
42
0.41421356237309503
10
-135.08749995097821
20
12.072995953770338
10
-122.0874999509782
20
12.072995953770258
42
0.41421356237314705
10
-121.58749995097835
20
12.572995953770345
10
-121.58749995097828
20
25.572995953770349
42
0.41421356237309764
10
-122.08749995097826
20
26.072995953770324
0
LWPOLYLINE
5
116
100
AcDbEntity
8
0
100
AcDbPolyline
90
8
70
1
43
0.0
10
-69.199999950978366
20
44.622995953770484
42
0.41421356237312101
10
-69.699999950978423
20
45.122995953770193
10
-82.699999950978338
20
45.122995953770406
42
0.41421356237311585
10
-83.199999950978381
20
44.622995953770364
10
-83.199999950978238
20
31.622995953770289
42
0.41421356237307683
10
-82.699999950978338
20
31.12299595377042
10
-69.699999950978409
20
31.122995953770271
42
0.41421356237305862
10
-69.199999950978395
20
31.622995953770356
0
LWPOLYLINE
5
117
100
AcDbEntity
8
0
100
AcDbPolyline
90
8
70
1
43
0.0
10
-87.462499950978199
20
-31.077004046229657
10
-74.462499950978227
20
-31.077004046229622
42
-0.4142135623730534
10
-73.962499950978255
20
-31.577004046229664
10
-73.962499950978355
20
-44.577004046229725
42
-0.4142135623730378
10
-74.462499950978341
20
-45.077004046229668
10
-87.462499950978341
20
-45.077004046229717
42
-0.4142135623730534
10
-87.962499950978298
20
-44.577004046229689
10
-87.962499950978298
20
-31.577004046229682
42
-0.4142135623730534
0
LWPOLYLINE
5
118
100
AcDbEntity
8
0
100
AcDbPolyline
90
8
70
1
43
0.0
10
-79.224999950385097
20
12.072995953177092
42
0.41421356237314966
10
-78.724999950385012
20
12.572995953177063
10
-78.72499995038514
20
25.572995953177056
42
0.41421356237308982
10
-79.22499995038514
20
26.072995953177056
10
-92.224999950385026
20
26.072995953177127
42
0.41421356237316787
10
-92.724999950385012
20
25.572995953177049
10
-92.724999950385026
20
12.572995953177045
42
0.41421356237309764
10
-92.22499995038504
20
12.07299595317707
0
LWPOLYLINE
5
119
100
AcDbEntity
8
0
100
AcDbPolyline
90
8
70
1
43
0.0
10
-73.962499950385023
20
6.5229959531770376
10
-73.962499950384995
20
-6.4770040468229517
42
-0.41421356237315748
10
-74.462499950385023
20
-6.9770040468228878
10
-87.462499950385038
20
-6.9770040468229588
42
-0.41421356237301177
10
-87.96249995038491
20
-6.4770040468229517
10
-87.962499950384995
20
6.5229959531770376
42
-0.4142135623730846
10
-87.462499950385052
20
7.0229959531769914
10
-74.462499950384995
20
7.0229959531770092
42
-0.41421356237309503
0
LWPOLYLINE
5
120
100
AcDbEntity
8
0
100
AcDbPolyline
90
8
70
1
43
0.0
10
-102.24999995097832
20
31.622995953770321
10
-102.24999995097821
20
44.622995953770292
42
-0.41421356237310542
10
-101.74999995097829
20
45.122995953770413
10
-88.749999950978378
20
45.122995953770335
42
-0.41421356237310542
10
-88.249999950978378
20
44.622995953770314
10
-88.249999950978264
20
31.622995953770285
42
-0.41421356237316787
10
-88.749999950978363
20
31.122995953770314
10
-101.74999995097835
20
31.122995953770385
42
-0.41421356237307422
0
LWPOLYLINE
5
121
100
AcDbEntity
8
0
100
AcDbPolyline
90
8
70
1
43
0.0
10
-98.274999950385009
20
12.072995953177106
10
-111.27499995038505
20
12.072995953177035
42
-0.41421356237309243
10
-111.77499995038505
20
12.572995953177038
10
-111.77499995038505
20
25.572995953177049
42
-0.4142135623730846
10
-111.27499995038507
20
26.072995953177056
10
-98.274999950385151
20
26.072995953177056
42
-0.41421356237312884
10
-97.77499995038508
20
25.572995953177063
10
-97.774999950385038
20
12.572995953177042
42
-0.41421356237299095
0
LWPOLYLINE
5
122
100
AcDbEntity
8
0
100
AcDbPolyline
90
8
70
1
43
0.0
10
-60.174999950385065
20
12.072995953177067
42
0.41421356237314966
10
-59.674999950385157
20
12.572995953177056
10
-59.67499995038505
20
25.572995953177049
42
0.41421356237319906
10
-60.1749999503852
20
26.072995953177092
10
-73.174999950385015
20
26.072995953177024
42
0.41421356237310025
10
-73.674999950385001
20
25.572995953177049
10
-73.674999950385029
20
12.57299595317714
42
0.414213562373069
10
-73.174999950385171
20
12.07299595317707
0
LWPOLYLINE
5
123
100
AcDbEntity
8
0
100
AcDbPolyline
90
8
70
1
43
0.0
10
-31.599999950978326
20
31.122995953770296
42
0.41421356237310802
10
-31.099999950978319
20
31.62299595377036
10
-31.099999950978212
20
44.622995953770143
42
0.41421356237316265
10
-31.599999950978344
20
45.122995953770371
10
-44.5999999509784
20
45.122995953770314
42
0.4142135623730222
10
-45.099999950978287
20
44.622995953770328
10
-45.099999950978436
20
31.622995953770342
42
0.41421356237304563
10
-44.599999950978315
20
31.122995953770314
0
LWPOLYLINE
5
124
100
AcDbEntity
8
0
100
AcDbPolyline
90
8
70
1
43
0.0
10
-26.837499950385375
20
-26.027004046822988
42
0.41421356237315748
10
-26.337499950385368
20
-25.527004046822839
10
-26.337499950385297
20
-12.527004046823036
42
0.41421356237308982
10
-26.837499950385393
20
-12.027004046822931
10
-39.83749995038508
20
-12.027004046822878
42
0.41421356237315748
10
-40.337499950385052
20
-12.527004046822938
10
-40.337499950385158
20
-25.527004046823034
42
0.41421356237310542
10
-39.837499950384938
20
-26.027004046822988
0
LWPOLYLINE
5
125
100
AcDbEntity
8
0
100
AcDbPolyline
90
8
70
1
43
0.0
10
64.150000049021941
20
44.622995953770484
42
0.41421356237339679
10
63.650000049021678
20
45.122995953769198
10
50.650000049021742
20
45.122995953770975
42
0.41421356237294937
10
50.15000004902177
20
44.622995953769298
10
50.150000049021948
20
31.622995953770396
42
0.41421356237311846
10
50.650000049021742
20
31.122995953770562
10
63.65000004902172
20
31.122995953770562
42
0.41421356237302737
10
64.150000049021685
20
31.622995953770463
0
LWPOLYLINE
5
126
100
AcDbEntity
8
0
100
AcDbPolyline
90
8
70
1
43
0.0
10
-6.9999999509783972
20
31.622995953770317
42
0.41421356237314444
10
-6.4999999509782747
20
31.122995953770143
10
6.5000000490217147
20
31.122995953770261
42
0.41421356237307422
10
7.0000000490216507
20
31.62299595377025
10
7.0000000490220904
20
44.62299595376949
42
0.41421356237339679
10
6.5000000490216792
20
45.122995953770442
10
-6.4999999509782924
20
45.122995953770783
42
0.41421356237299095
10
-6.999999950978264
20
44.622995953771074
0
LWPOLYLINE
5
127
100
AcDbEntity
8
0
100
AcDbPolyline
90
8
70
1
43
0.0
10
58.887500049614587
20
-6.9770040468229233
42
0.41421356237304302
10
59.387500049614545
20
-6.4770040468229162
10
59.38750004961463
20
6.522995953177082
42
0.414213562373069
10
58.887500049614658
20
7.0229959531770092
10
45.887500049614687
20
7.0229959531770714
42
0.41421356237303258
10
45.387500049614715
20
6.5229959531772153
10
45.387500049614644
20
-6.4770040468227119
42
0.4142135623732251
10
45.887500049614687
20
-6.9770040468229766
0
LWPOLYLINE
5
128
100
AcDbEntity
8
0
100
AcDbPolyline
90
8
70
1
43
0.0
10
36.362500049614646
20
-12.027004046822967
42
0.41421356237300661
10
35.862500049614603
20
-12.527004046822929
10
35.862500049614738
20
-25.527004046822938
42
0.41421356237314189
10
36.362500049614681
20
-26.02700404682297
10
49.362500049614688
20
-26.027004046822686
42
0.41421356237294937
10
49.862500049614624
20
-25.527004046822928
10
49.862500049614631
20
-12.527004046823009
42
0.41421356237316787
10
49.362500049614653
20
-12.027004046822896
0
LWPOLYLINE
5
129
100
AcDbEntity
8
0
100
AcDbPolyline
90
8
70
1
43
0.0
10
16.025000049614562
20
12.072995953177141
10
3.0250000496147322
20
12.072995953177088
42
-0.4142135623730378
10
2.5250000496146363
20
12.572995953177086
10
2.5250000496147207
20
25.572995953176978
42
-0.41421356237309503
10
3.0250000496147322
20
26.072995953176989
10
16.025000049614562
20
26.072995953177109
42
-0.41421356237313667
10
16.525000049614622
20
25.572995953176978
10
16.525000049614675
20
12.572995953177077
42
-0.41421356237315748
0
LWPOLYLINE
5
130
100
AcDbEntity
8
0
100
AcDbPolyline
90
8
70
1
43
0.0
10
126.85000004902167
20
45.122995953770442
42
0.41421356237313667
10
126.35000004902167
20
44.622995953770435
10
126.35000004902179
20
31.622995953770445
42
0.41421356237310542
10
126.85000004902179
20
31.12299595377042
10
139.85000004902173
20
31.122995953770456
42
0.41421356237313667
10
140.35000004902173
20
31.622995953770463
10
140.3500000490217
20
44.622995953770427
42
0.41421356237312101
10
139.85000004902176
20
45.122995953770442
0
LWPOLYLINE
5
131
100
AcDbEntity
8
0
100
AcDbPolyline
90
8
70
1
43
0.0
10
41.125000049614677
20
26.072995953177092
42
0.41421356237304041
10
40.625000049614819
20
25.57299595317717
10
40.625000049614641
20
12.572995953177104
42
0.41421356237317308
10
41.125000049614613
20
12.072995953176999
10
54.125000049614592
20
12.072995953176964
42
0.41421356237308982
10
54.62500004961484
20
12.572995953177184
10
54.625000049614485
20
25.572995953177092
42
0.41421356237292334
10
54.125000049614584
20
26.072995953176701
0
LWPOLYLINE
5
132
100
AcDbEntity
8
0
100
AcDbPolyline
90
8
70
1
43
0.0
10
135.08750004902174
20
12.072995953770004
42
0.41421356237312884
10
135.58750004902186
20
12.572995953770295
10
135.58750004902191
20
25.572995953770324
42
0.41421356237308982
10
135.08750004902168
20
26.072995953770501
10
122.08750004902164
20
26.072995953770899
42
0.4142135623731783
10
121.58750004902174
20
25.572995953770601
10
121.58750004902205
20
12.572995953770313
42
0.41421356237318085
10
122.08750004902171
20
12.072995953770516
0
LWPOLYLINE
5
133
100
AcDbEntity
8
0
100
AcDbPolyline
90
8
70
1
43
0.0
10
97.775000049021514
20
-44.577004046229604
42
0.41421356237307422
10
98.275000049021699
20
-45.077004046229604
10
111.27500004902167
20
-45.077004046229789
42
0.41421356237312623
10
111.77500004902171
20
-44.577004046229604
10
111.77500004902174
20
-31.577004046229689
42
0.41421356237311063
10
111.27500004902174
20
-31.077004046229657
10
98.275000049021656
20
-31.077004046229799
42
0.41421356237297013
10
97.775000049021656
20
-31.577004046229522
0
LWPOLYLINE
5
134
100
AcDbEntity
8
0
100
AcDbPolyline
90
8
70
1
43
0.0
10
87.9625000490215
20
-31.5770040462297
42
0.41421356237318868
10
87.462500049021656
20
-31.077004046229693
10
74.462500049021685
20
-31.077004046229657
42
0.41421356237297013
10
73.962500049021571
20
-31.577004046229522
10
73.962500049021486
20
-44.577004046229405
42
0.41421356237316787
10
74.462500049021685
20
-45.077004046229732
10
87.46250004902177
20
-45.07700404622959
42
0.4142135623731783
10
87.962500049021344
20
-44.577004046229796
0
LWPOLYLINE
5
135
100
AcDbEntity
8
0
100
AcDbPolyline
90
8
70
1
43
0.0
10
69.200000049021483
20
31.622995953770143
42
0.41421356237299095
10
69.700000049021725
20
31.122995953770008
10
82.700000049021611
20
31.122995953770385
42
0.41421356237290774
10
83.200000049021554
20
31.622995953770001
10
83.200000049022009
20
44.622995953769163
42
0.41421356237350604
10
82.700000049021725
20
45.122995953769909
10
69.700000049021639
20
45.122995953769269
42
0.41421356237288692
10
69.200000049022208
20
44.622995953770221
0
LWPOLYLINE
5
136
100
AcDbEntity
8
0
100
AcDbPolyline
90
8
70
1
43
0.0
10
79.225000049614636
20
26.072995953177021
10
92.225000049614607
20
26.072995953177163
42
-0.41421356237319129
10
92.725000049614792
20
25.572995953177099
10
92.725000049615744
20
12.572995953177184
42
-0.41421356237309503
10
92.225000049615744
20
12.072995953177168
10
79.225000049614636
20
12.072995953177106
42
-0.41421356237313145
10
78.725000049614806
20
12.572995953176997
10
78.725000049614664
20
25.572995953177013
42
-0.41421356237244988
0
LWPOLYLINE
5
137
100
AcDbEntity
8
0
100
AcDbPolyline
90
8
70
1
43
0.0
10
97.775000049614675
20
12.572995953177113
10
97.775000049614647
20
25.572995953177085
42
-0.41421356237297013
10
98.275000049614619
20
26.072995953176914
10
111.27500004961462
20
26.072995953177394
42
-0.41421356237344364
10
111.775000049615
20
25.572995953176701
10
111.77500004961495
20
12.572995953177397
42
-0.41421356237316787
10
111.2750000496146
20
12.072995953176964
10
98.275000049614647
20
12.072995953177106
42
-0.41421356237311585
0
LWPOLYLINE
5
138
100
AcDbEntity
8
0
100
AcDbPolyline
90
8
70
1
43
0.0
10
31.100000049021617
20
31.622995953770321
10
31.100000049021759
20
44.622995953770861
42
-0.41421356237309503
10
31.600000049021695
20
45.122995953768879
10
44.600000049021702
20
45.122995953770427
42
-0.4142135623736049
10
45.100000049021759
20
44.622995953769774
10
45.100000049021567
20
31.622995953770143
42
-0.4142135623731939
10
44.600000049021673
20
31.122995953770136
10
31.60000004902173
20
31.122995953770243
42
-0.41421356237307422
0
LWPOLYLINE
5
139
100
AcDbEntity
8
0
100
AcDbPolyline
90
8
70
1
43
0.0
10
140.35000004902176
20
-12.5270040462296
42
0.41421356237315748
10
139.85000004902176
20
-12.027004046229486
10
126.85000004902173
20
-12.02700404622953
42
0.4142135623730846
10
126.35000004902167
20
-12.5270040462296
10
126.35000004902167
20
-25.527004046229607
42
0.41421356237318868
10
126.85000004902179
20
-26.027004046229596
10
139.85000004902173
20
-26.027004046229543
42
0.4142135623730846
10
140.35000004902173
20
-25.527004046229607
0
LWPOLYLINE
5
140
100
AcDbEntity
8
0
100
AcDbPolyline
90
8
70
1
43
0.0
10
40.337500049614619
20
6.5229959531770731
10
40.337500049614547
20
-6.4770040468229162
42
-0.41421356237246026
10
39.837500049615677
20
-6.9770040468227634
10
26.837500049614675
20
-6.9770040468230832
42
-0.41421356237318346
10
26.337500049614668
20
-6.4770040468229251
10
26.337500049614739
20
6.5229959531770731
42
-0.41421356237309503
10
26.837500049614675
20
7.0229959531770092
10
39.837500049614647
20
7.0229959531772224
42
-0.41421356237319906
0
LWPOLYLINE
5
141
100
AcDbEntity
8
0
100
AcDbPolyline
90
8
70
1
43
0.0
10
-20.787499950385389
20
-12.027004046823038
42
0.41421356237301699
10
-21.28749995038536
20
-12.527004046822947
10
-21.287499950385318
20
-25.527004046822945
42
0.41421356237310542
10
-20.787499950385353
20
-26.027004046822917
10
-7.7874999503853459
20
-26.027004046822846
42
0.41421356237301177
10
-7.2874999503852678
20
-25.527004046822945
10
-7.2874999503853477
20
-12.527004046822929
42
0.41421356237308982
10
-7.7874999503853815
20
-12.027004046822913
0
LWPOLYLINE
5
142
100
AcDbEntity
8
0
100
AcDbPolyline
90
8
70
1
43
0.0
10
22.075000049614744
20
26.072995953176985
42
0.41421356237308721
10
21.575000049614914
20
25.57299595317717
10
21.575000049614594
20
12.572995953177175
42
0.41421356237321472
10
22.075000049614744
20
12.072995953177106
10
35.07500004961468
20
12.072995953177106
42
0.41421356237311585
10
35.575000049614687
20
12.572995953177077
10
35.575000049614616
20
25.572995953176992
42
0.41421356237314966
10
35.075000049614573
20
26.072995953177127
0
LWPOLYLINE
5
143
100
AcDbEntity
8
0
100
AcDbPolyline
90
8
70
1
43
0.0
10
-12.549999950978439
20
31.122995953770296
42
0.41421356237310281
10
-12.049999950978414
20
31.622995953770406
10
-12.04999995097813
20
44.622995953770321
42
0.41421356237318346
10
-12.549999950978332
20
45.122995953770655
10
-25.549999950978322
20
45.12299595377052
42
0.4142135623730222
10
-26.049999950978133
20
44.622995953770719
10
-26.049999950978382
20
31.62299595377047
42
0.41421356237312101
10
-25.549999950978304
20
31.122995953770349
0
LWPOLYLINE
5
144
100
AcDbEntity
8
0
100
AcDbPolyline
90
8
70
1
43
0.0
10
-35.074999950385063
20
26.072995953177092
42
0.41421356237304818
10
-35.574999950385049
20
25.572995953177077
10
-35.574999950385028
20
12.572995953177163
42
0.41421356237308204
10
-35.074999950385006
20
12.072995953177177
10
-22.074999950385319
20
12.07299595317707
42
0.41421356237315748
10
-21.574999950385347
20
12.572995953177184
10
-21.574999950385401
20
25.572995953177188
42
0.41421356237303519
10
-22.074999950385319
20
26.072995953176985
0
LWPOLYLINE
5
145
100
AcDbEntity
8
0
100
AcDbPolyline
90
8
70
1
43
0.0
10
-126.84999995097826
20
31.122995953770349
10
-139.84999995097832
20
31.122995953770367
42
-0.41421356237308982
10
-140.34999995097829
20
31.622995953770349
10
-140.34999995097832
20
44.622995953770328
42
-0.41421356237309503
10
-139.84999995097832
20
45.122995953770335
10
-126.84999995097833
20
45.122995953770314
42
-0.41421356237312101
10
-126.34999995097827
20
44.622995953770356
10
-126.34999995097829
20
31.622995953770356
42
-0.41421356237311585
0
LWPOLYLINE
5
146
100
AcDbEntity
8
0
100
AcDbPolyline
90
8
70
1
43
0.0
10
-17.312499950385387
20
-6.9770040468229411
10
-30.312499950385359
20
-6.9770040468229233
42
-0.41421356237312623
10
-30.812499950385295
20
-6.477004046822934
10
-30.812499950385419
20
6.5229959531770731
42
-0.41421356237304302
10
-30.312499950385412
20
7.022995953177098
10
-17.312499950385387
20
7.0229959531770803
42
-0.41421356237310025
10
-16.81249995038538
20
6.5229959531770643
10
-16.81249995038538
20
-6.477004046822934
42
-0.41421356237309503
0
LWPOLYLINE
5
147
100
AcDbEntity
8
0
100
AcDbPolyline
90
8
70
1
43
0.0
10
-93.012499950385006
20
6.5229959531770376
42
0.41421356237309503
10
-93.512499950385006
20
7.0229959531770358
10
-106.51249995038505
20
7.0229959531770936
42
0.41421356237315748
10
-107.01249995038502
20
6.5229959531770376
10
-107.01249995038506
20
-6.4770040468229517
42
0.4142135623730846
10
-106.51249995038505
20
-6.9770040468229411
10
-93.512499950385006
20
-6.9770040468229233
42
0.4142135623730846
10
-93.012499950385035
20
-6.4770040468229517
0
LWPOLYLINE
5
148
100
AcDbEntity
8
0
100
AcDbPolyline
90
8
70
1
43
0.0
10
-119.20624995097832
20
6.5229959537703408
10
-119.20624995097836
20
-6.4770040462296663
42
-0.41421356237307422
10
-119.70624995097835
20
-6.9770040462296556
10
-132.70624995097833
20
-6.9770040462296734
42
-0.41421356237310542
10
-133.20624995097833
20
-6.4770040462296663
10
-133.20624995097833
20
6.5229959537703408
42
-0.4142135623730846
10
-132.70624995097836
20
7.022995953770339
10
-119.70624995097836
20
7.0229959537703834
42
-0.41421356237309503
0
LWPOLYLINE
5
149
100
AcDbEntity
8
0
100
AcDbPolyline
90
8
70
1
43
0.0
10
-98.274999950978312
20
-45.077004046229732
42
0.4142135623730846
10
-97.774999950978298
20
-44.577004046229746
10
-97.774999950978383
20
-31.577004046229682
42
0.4142135623730534
10
-98.274999950978312
20
-31.077004046229675
10
-111.27499995097837
20
-31.077004046229646
42
0.4142135623730846
10
-111.77499995097826
20
-31.577004046229682
10
-111.7749999509783
20
-44.577004046229682
42
0.41421356237301699
10
-111.27499995097821
20
-45.077004046229625
0
LWPOLYLINE
5
150
100
AcDbEntity
8
0
100
AcDbPolyline
90
8
70
1
43
0.0
10
-83.487499950385029
20
-12.527004046822956
42
0.4142135623731783
10
-83.987499950385128
20
-12.027004046822958
10
-96.987499950385043
20
-12.027004046822958
42
0.41421356237310542
10
-97.487499950385015
20
-12.527004046822956
10
-97.487499950385015
20
-25.527004046822867
42
0.41421356237315227
10
-96.987499950385043
20
-26.027004046822952
10
-83.987499950385029
20
-26.02700404682296
42
0.41421356237303258
10
-83.4874999503851
20
-25.527004046822963
0
LWPOLYLINE
5
151
100
AcDbEntity
8
0
100
AcDbPolyline
90
8
70
1
43
0.0
10
-120.79999995097837
20
45.122995953770371
42
0.41421356237310025
10
-121.29999995097836
20
44.622995953770335
10
-121.29999995097833
20
31.622995953770342
42
0.41421356237310802
10
-120.79999995097836
20
31.122995953770349
10
-107.79999995097839
20
31.122995953770367
42
0.41421356237315748
10
-107.29999995097835
20
31.622995953770356
10
-107.29999995097828
20
44.622995953770335
42
0.41421356237313145
10
-107.79999995097839
20
45.122995953770371
0
LWPOLYLINE
5
152
100
AcDbEntity
8
0
100
AcDbPolyline
90
8
70
1
43
0.0
10
-54.624999950385131
20
12.572995953177042
10
-54.624999950385202
20
25.572995953177156
42
-0.41421356237309503
10
-54.124999950385053
20
26.072995953177092
10
-41.124999950385046
20
26.072995953177056
42
-0.41421356237308204
10
-40.624999950385039
20
25.57299595317707
10
-40.624999950385074
20
12.572995953177077
42
-0.41421356237315227
10
-41.124999950385039
20
12.072995953176999
10
-54.124999950385018
20
12.072995953177177
42
-0.41421356237311585
0
LWPOLYLINE
5
153
100
AcDbEntity
8
0
100
AcDbPolyline
90
8
70
1
43
0.0
10
-50.149999950978241
20
44.622995953770115
10
-50.149999950978383
20
31.622995953770392
42
-0.41421356237316787
10
-50.649999950978369
20
31.122995953770314
10
-63.649999950978327
20
31.122995953770342
42
-0.41421356237310281
10
-64.149999950978341
20
31.622995953770371
10
-64.149999950978199
20
44.622995953770186
42
-0.41421356237307944
10
-63.649999950978213
20
45.122995953770484
10
-50.649999950978355
20
45.122995953770122
42
-0.41421356237303258
0
LWPOLYLINE
5
154
100
AcDbEntity
8
0
100
AcDbPolyline
90
8
70
1
43
0.0
10
73.675000049614709
20
25.572995953177013
10
73.675000049614638
20
12.572995953177113
42
-0.41421356237311585
10
73.175000049614624
20
12.072995953176999
10
60.175000049614624
20
12.072995953176786
42
-0.41421356237316787
10
59.675000049614546
20
12.572995953176989
10
59.675000049614624
20
25.572995953177369
42
-0.41421356237299095
10
60.175000049614589
20
26.072995953176942
10
73.175000049614738
20
26.072995953176985
42
-0.41421356237309503
0
LWPOLYLINE
5
155
100
AcDbEntity
8
0
100
AcDbPolyline
90
8
70
1
43
0.0
10
-11.762499950385319
20
-6.477004046822934
10
-11.762499950385354
20
6.5229959531769666
42
-0.41421356237310542
10
-11.262499950385365
20
7.0229959531770092
10
1.7375000496146242
20
7.0229959531771069
42
-0.41421356237308982
10
2.237500049614658
20
6.522995953177082
10
2.2375000496147379
20
-6.477004046822934
42
-0.41421356237303258
10
1.7375000496146242
20
-6.9770040468229411
10
-11.262499950385347
20
-6.977004046822799
42
-0.41421356237303258
0
LWPOLYLINE
5
156
100
AcDbEntity
8
0
100
AcDbPolyline
90
8
70
1
43
0.0
10
-36.362499950384972
20
-6.97700404682287
10
-49.362499950385086
20
-6.9770040468229588
42
-0.41421356237312101
10
-49.862499950385043
20
-6.4770040468229606
10
-49.862499950385029
20
6.5229959531770376
42
-0.41421356237310542
10
-49.362499950385171
20
7.0229959531770891
10
-36.362499950384972
20
7.0229959531770803
42
-0.41421356237311063
10
-35.862499950384965
20
6.5229959531770465
10
-35.862499950385036
20
-6.477004046822934
42
-0.41421356237309503
0
LWPOLYLINE
5
157
100
AcDbEntity
8
0
100
AcDbPolyline
90
8
70
1
43
0.0
10
-45.887499950385049
20
-26.027004046822917
42
0.41421356237314189
10
-45.387499950385092
20
-25.527004046823023
10
-45.387499950385148
20
-12.527004046822956
42
0.41421356237310542
10
-45.88749995038512
20
-12.027004046822967
10
-58.887499950384985
20
-12.027004046822842
42
0.41421356237312623
10
-59.387499950384921
20
-12.527004046822956
10
-59.387499950385099
20
-25.527004046822952
42
0.41421356237316265
10
-58.887499950384949
20
-26.027004046822935
0
LWPOLYLINE
5
158
100
AcDbEntity
8
0
100
AcDbPolyline
90
8
70
1
43
0.0
10
30.312500049614677
20
-26.027004046822864
42
0.4142135623730222
10
30.812500049614755
20
-25.527004046822839
10
30.812500049614648
20
-12.527004046823116
42
0.41421356237315748
10
30.312500049614641
20
-12.027004046823002
10
17.31250004961467
20
-12.02700404682302
42
0.41421356237310542
10
16.812500049614698
20
-12.527004046823027
10
16.81250004961468
20
-25.527004046822839
42
0.41421356237315748
10
17.31250004961467
20
-26.027004046822935
0
LWPOLYLINE
5
159
100
AcDbEntity
8
0
100
AcDbPolyline
90
8
70
1
43
0.0
10
25.550000049021588
20
31.122995953770413
42
0.41421356237307683
10
26.050000049021563
20
31.622995953770435
10
26.050000049021449
20
44.622995953771138
42
0.41421356237293372
10
25.550000049021691
20
45.122995953770619
10
12.550000049021683
20
45.122995953770733
42
0.41421356237307422
10
12.050000049021605
20
44.622995953770683
10
12.050000049021588
20
31.622995953770396
42
0.41421356237307683
10
12.550000049021719
20
31.122995953770314
0
LWPOLYLINE
5
160
100
AcDbEntity
8
0
100
AcDbPolyline
90
8
70
1
43
0.0
10
21.287500049614607
20
6.5229959531770731
10
21.287500049614749
20
-6.477004046822934
42
-0.4142135623730222
10
20.787500049614671
20
-6.9770040468229588
10
7.787500049614664
20
-6.9770040468228434
42
-0.41421356237311063
10
7.2875000496147901
20
-6.4770040468229428
10
7.2875000496146214
20
6.5229959531769666
42
-0.41421356237312623
10
7.7875000496146107
20
7.0229959531771158
10
20.787500049614636
20
7.0229959531768316
42
-0.41421356237313667
0
LWPOLYLINE
5
161
100
AcDbEntity
8
0
100
AcDbPolyline
90
8
70
1
43
0.0
10
-2.2374999503853132
20
-25.527004046822945
10
-2.2374999503853399
20
-12.527004046822938
42
-0.41421356237307422
10
-1.7374999503853417
20
-12.027004046822976
10
11.26250004961463
20
-12.027004046822967
42
-0.41421356237308982
10
11.762500049614708
20
-12.527004046823036
10
11.76250004961461
20
-25.527004046822945
42
-0.41421356237310542
10
11.262500049614612
20
-26.027004046822924
10
-1.7374999503853417
20
-26.02700404682281
42
-0.41421356237303258
0
LWPOLYLINE
5
162
100
AcDbEntity
8
0
100
AcDbPolyline
90
8
70
1
43
0.0
10
107.30000004902173
20
31.622995953770427
42
0.41421356237307422
10
107.80000004902178
20
31.122995953770413
10
120.80000004902172
20
31.122995953770456
42
0.41421356237311585
10
121.30000004902172
20
31.622995953770427
10
121.30000004902159
20
44.622995953770435
42
0.41421356237301177
10
120.80000004902175
20
45.122995953770442
10
107.80000004902178
20
45.122995953770442
42
0.41421356237307422
10
107.30000004902166
20
44.622995953770435
0
LWPOLYLINE
5
163
100
AcDbEntity
8
0
100
AcDbPolyline
90
8
70
1
43
0.0
10
-60.649999450978243
20
-45.577004046229547
10
-60.649999450978243
20
-30.57700404622965
42
-0.41421356237307422
10
-60.149999450978285
20
-30.077004046229696
10
-54.149999450978328
20
-30.077004046229678
42
-0.41421356237310542
10
-53.64999945097837
20
-30.57700404622965
10
-53.649999450978285
20
-45.577004046229547
42
-0.4142135623730534
10
-54.149999450978292
20
-46.077004046229547
10
-60.149999450978271
20
-46.077004046229519
42
-0.41421356237309503
0
LWPOLYLINE
5
164
100
AcDbEntity
8
0
100
AcDbPolyline
90
8
70
1
43
0.0
10
114.44375054902167
20
-6.4770040462296041
42
0.4142135623731939
10
114.94375054902167
20
-6.9770040462297089
10
127.94375054902176
20
-6.9770040462296379
42
0.41421356237299095
10
128.44375054902187
20
-6.4770040462297018
10
128.4437505490217
20
6.5229959537702076
42
0.41421356237302737
10
127.94375054902176
20
7.0229959537703124
10
114.9437505490217
20
7.0229959537706321
42
0.41421356237314705
10
114.44375054902125
20
6.5229959537701987
0
LWPOLYLINE
5
165
100
AcDbEntity
8
0
100
AcDbPolyline
90
8
70
1
43
0.0
10
-113.00574945097836
20
-26.527004046229692
10
-113.00574945097829
20
-11.527004046229656
42
-0.4142135623730846
10
-112.50574945097833
20
-11.027004046229676
10
-106.5057494509783
20
-11.027004046229614
42
-0.41421356237310025
10
-106.0057494509783
20
-11.52700404622963
10
-106.00574945097824
20
-26.527004046229674
42
-0.41421356237307422
10
-106.50574945097823
20
-27.027004046229624
10
-112.50574945097831
20
-27.027004046229646
42
-0.41421356237312623
0
LWPOLYLINE
5
166
100
AcDbEntity
8
0
100
AcDbPolyline
90
8
70
1
43
0.0
10
136.88175054902158
20
7.5229959537706037
42
0.41421356237299095
10
136.3817505490216
20
8.022995953770625
10
130.38175054902166
20
8.0229959537705398
42
0.41421356237310542
10
129.88175054902172
20
7.5229959537706037
10
129.88175054902212
20
-7.4770040462301868
42
0.41421356237302737
10
130.38175054902169
20
-7.9770040462299363
10
136.38175054902166
20
-7.9770040462300607
42
0.4142135623730846
10
136.88175054902175
20
-7.4770040462298937
0
LWPOLYLINE
5
167
100
AcDbEntity
8
0
100
AcDbPolyline
90
8
70
1
43
0.0
10
6.5000005490216672
20
-45.077004046229717
42
0.41421356237306384
10
7.0000005490217632
20
-44.577004046229632
10
7.0000005490216921
20
-31.577004046229654
42
0.4142135623730378
10
6.5000005490216495
20
-31.07700404622971
10
-6.4999994509783399
20
-31.077004046229639
42
0.41421356237301177
10
-6.9999994509784358
20
-31.577004046229646
10
-6.999999450978418
20
-44.577004046229632
42
0.4142135623730222
10
-6.4999994509783221
20
-45.077004046229604
0
LWPOLYLINE
5
168
100
AcDbEntity
8
0
100
AcDbPolyline
90
8
70
1
43
0.0
10
106.50575054902166
20
8.0229959537705042
42
0.41421356237309503
10
106.00575054902149
20
7.5229959537703905
10
106.00575054902168
20
-7.4770040462297072
42
0.41421356237299617
10
106.50575054902163
20
-7.9770040462297409
10
112.5057505490217
20
-7.9770040462297942
42
0.41421356237310542
10
113.00575054902197
20
-7.4770040462296095
10
113.00575054902166
20
7.5229959537703905
42
0.41421356237311585
10
112.50575054902171
20
8.0229959537703621
0
LWPOLYLINE
5
169
100
AcDbEntity
8
0
100
AcDbPolyline
90
8
70
1
43
0.0
10
-128.44374945097837
20
-25.527004046229681
42
0.41421356237311324
10
-127.94374945097832
20
-26.027004046229685
10
-114.94374945097832
20
-26.027004046229713
42
0.4142135623730846
10
-114.44374945097827
20
-25.527004046229678
10
-114.44374945097832
20
-12.527004046229671
42
0.41421356237309503
10
-114.94374945097832
20
-12.027004046229663
10
-127.94374945097832
20
-12.027004046229663
42
0.41421356237311585
10
-128.4437494509784
20
-12.527004046229671
0
LWPOLYLINE
5
170
100
AcDbEntity
8
0
100
AcDbPolyline
90
8
70
1
43
0.0
10
54.150000549021655
20
-30.077004046229554
10
60.15000054902174
20
-30.077004046229661
42
-0.41421356237311585
10
60.650000549021676
20
-30.577004046229632
10
60.650000549021748
20
-45.577004046229831
42
-0.41421356237309503
10
60.15000054902174
20
-46.077004046229831
10
54.150000549021655
20
-46.077004046229831
42
-0.41421356237312623
10
53.650000549021698
20
-45.577004046229831
10
53.650000549021577
20
-30.577004046229632
42
-0.41421356237309503
0
LWPOLYLINE
5
171
100
AcDbEntity
8
0
100
AcDbPolyline
90
8
70
1
43
0.0
10
-130.3817494509783
20
-27.027004046229628
42
0.41421356237307944
10
-129.8817494509783
20
-26.527004046229685
10
-129.88174945097836
20
-11.527004046229647
42
0.41421356237308982
10
-130.38174945097836
20
-11.027004046229667
10
-136.38174945097833
20
-11.027004046229646
42
0.4142135623730846
10
-136.88174945097828
20
-11.527004046229656
10
-136.88174945097836
20
-26.527004046229685
42
0.41421356237308982
10
-136.3817494509783
20
-27.027004046229717
0
LWPOLYLINE
5
172
100
AcDbEntity
8
0
100
AcDbPolyline
90
12
70
1
43
0.0
10
-112.60937495068166
20
-3.9770040465263357
10
-115.10937495068166
20
-3.9770040465263001
42
-0.41421356237310153
10
-117.10937495068174
20
-1.9770040465263161
10
-117.10937495068167
20
3.5229959534736843
42
-0.41421356237315354
10
-116.60937495068166
20
4.022995953473667
10
-116.1093749506816
20
4.022995953473691
42
-0.41421356237310414
10
-115.60937495068161
20
3.5229959534736865
10
-115.60937495068163
20
-1.9770040465263161
42
0.41421356237312101
10
-115.10937495068166
20
-2.4770040465262078
10
-112.60937495068166
20
-2.4770040465262788
42
-0.41421356237307422
10
-112.10937495068168
20
-2.9770040465262149
10
-112.10937495068171
20
-3.4770040465263108
42
-0.4142135623730534
0
LWPOLYLINE
5
173
100
AcDbEntity
8
0
100
AcDbPolyline
90
4
70
1
43
0.0
10
-63.649999450978243
20
-45.077004046229661
10
-70.962499950978298
20
-45.077004046229661
10
-70.962499950978298
20
-31.077004046229639
10
-63.649999450978243
20
-31.077004046229639
0
LWPOLYLINE
5
174
100
AcDbEntity
8
0
100
AcDbPolyline
90
4
70
1
43
0.0
10
70.962500049021529
20
-45.077004046229661
10
63.650000549021691
20
-45.077004046229661
10
63.650000549021691
20
-31.077004046229639
10
70.962500049021529
20
-31.077004046229639
0
LWPOLYLINE
5
175
100
AcDbEntity
8
0
100
AcDbPolyline
90
8
70
1
43
0.0
10
-24.975723296944075
20
-45.077004046229661
10
-50.14999945097837
20
-45.077004046229661
42
-0.41421356237309503
10
-50.64999945097837
20
-44.577004046229661
10
-50.64999945097837
20
-31.577004046229639
42
-0.41421356237309503
10
-50.14999945097837
20
-31.077004046229639
10
-24.975723296943528
20
-31.077004046229639
42
-0.41421356237310802
10
-24.475723296943528
20
-31.577004046229661
10
-24.475723296944089
20
-44.577004046229689
42
-0.4142135623730846
0
LWPOLYLINE
5
176
100
AcDbEntity
8
0
100
AcDbPolyline
90
8
70
1
43
0.0
10
24.551078799259642
20
-44.577004046229661
10
24.551078799259642
20
-31.577004046229639
42
-0.41421356237309503
10
25.051078799259638
20
-31.077004046229639
10
50.150000549021627
20
-31.077004046229639
42
-0.41421356237309503
10
50.650000549021627
20
-31.577004046229639
10
50.650000549021627
20
-44.577004046229661
42
-0.41421356237309503
10
50.150000549021627
20
-45.077004046229661
10
25.051078799259638
20
-45.077004046229661
42
-0.41421356237309503
0
ENDSEC
0
SECTION
2
OBJECTS
0
DICTIONARY
5
C
100
AcDbDictionary
3
ACAD_GROUP
350
D
3
ACAD_MLINESTYLE
350
17
0
DICTIONARY
5
D
100
AcDbDictionary
0
DICTIONARY
5
1A
330
C
100
AcDbDictionary
0
DICTIONARY
5
17
100
AcDbDictionary
0
ENDSEC
0
EOF
